<?xml version="1.0" encoding="UTF-8" standalone="no"?>
<!-- Created with Inkscape (http://www.inkscape.org/) -->
<svg
   xmlns:dc="http://purl.org/dc/elements/1.1/"
   xmlns:cc="http://web.resource.org/cc/"
   xmlns:rdf="http://www.w3.org/1999/02/22-rdf-syntax-ns#"
   xmlns:svg="http://www.w3.org/2000/svg"
   xmlns="http://www.w3.org/2000/svg"
   xmlns:xlink="http://www.w3.org/1999/xlink"
   xmlns:sodipodi="http://inkscape.sourceforge.net/DTD/sodipodi-0.dtd"
   xmlns:inkscape="http://www.inkscape.org/namespaces/inkscape"
   sodipodi:docname="gnome-mime-application-x-font-linux-psf.svg"
   sodipodi:docbase="/home/francois/Rodent/scalable/mimetypes"
   height="128.00000pt"
   width="128.00000pt"
   inkscape:version="0.41"
   sodipodi:version="0.32"
   id="svg1">
  <metadata
     id="metadata15">
    <rdf:RDF
       id="RDF17">
      <cc:Work
         id="Work19"
         rdf:about="">
        <dc:format
           id="format21">image/svg+xml</dc:format>
        <dc:type
           rdf:resource="http://purl.org/dc/dcmitype/StillImage"
           id="type23" />
      </cc:Work>
    </rdf:RDF>
  </metadata>
  <defs
     id="defs3">
    <linearGradient
       id="linearGradient3587">
      <stop
         style="stop-color:#efe0cd;stop-opacity:0.56097561;"
         offset="0.0000000"
         id="stop3589" />
      <stop
         style="stop-color:#cececd;stop-opacity:0.21951219;"
         offset="1.0000000"
         id="stop3591" />
    </linearGradient>
    <linearGradient
       id="linearGradient2832">
      <stop
         id="stop2834"
         offset="0.0000000"
         style="stop-color:#ffffff;stop-opacity:1.0000000;" />
      <stop
         id="stop2836"
         offset="1.0000000"
         style="stop-color:#ffffff;stop-opacity:0.0000000;" />
    </linearGradient>
    <linearGradient
       id="linearGradient839">
      <stop
         id="stop840"
         offset="0.0000000"
         style="stop-color:#46a046;stop-opacity:1.0000000;" />
      <stop
         id="stop841"
         offset="0.39364964"
         style="stop-color:#df421e;stop-opacity:1.0000000;" />
      <stop
         id="stop842"
         offset="0.72036445"
         style="stop-color:#ada7c8;stop-opacity:1.0000000;" />
      <stop
         id="stop843"
         offset="1.0000000"
         style="stop-color:#eed680;stop-opacity:1.0000000;" />
    </linearGradient>
    <linearGradient
       y2="0.50000000"
       x2="1.0000000"
       y1="0.50000000"
       x1="1.3267924e-17"
       id="linearGradient836"
       xlink:href="#linearGradient839" />
    <linearGradient
       gradientUnits="userSpaceOnUse"
       y2="73.398720"
       x2="72.999245"
       y1="16.369013"
       x1="23.983805"
       gradientTransform="matrix(0.939922,0.000000,0.000000,0.896911,4.950743,6.511692)"
       id="linearGradient2830"
       xlink:href="#linearGradient2832"
       inkscape:collect="always" />
    <linearGradient
       inkscape:collect="always"
       xlink:href="#linearGradient1700"
       id="linearGradient1407"
       gradientUnits="userSpaceOnUse"
       gradientTransform="matrix(0.777129,0.000000,0.000000,0.894628,-162.4688,12.76856)"
       x1="111.32588"
       y1="124.28045"
       x2="107.31592"
       y2="93.732185" />
    <linearGradient
       inkscape:collect="always"
       xlink:href="#linearGradient1700"
       id="linearGradient1390"
       gradientUnits="userSpaceOnUse"
       gradientTransform="matrix(0.777129,0.000000,0.000000,0.894628,-2.922179,10.43077)"
       x1="111.32588"
       y1="124.28045"
       x2="107.31592"
       y2="93.732185" />
    <linearGradient
       id="linearGradient1350">
      <stop
         id="stop1352"
         offset="0.0000000"
         style="stop-color:#46a046;stop-opacity:1.0000000;" />
      <stop
         id="stop1354"
         offset="0.39364964"
         style="stop-color:#df421e;stop-opacity:1.0000000;" />
      <stop
         id="stop1356"
         offset="0.72036445"
         style="stop-color:#ada7c8;stop-opacity:1.0000000;" />
      <stop
         id="stop1358"
         offset="1.0000000"
         style="stop-color:#eed680;stop-opacity:1.0000000;" />
    </linearGradient>
    <linearGradient
       y2="0.50000000"
       x2="1.0000000"
       y1="0.50000000"
       x1="1.3267924e-17"
       id="linearGradient1360"
       xlink:href="#linearGradient839" />
    <linearGradient
       gradientUnits="userSpaceOnUse"
       y2="87.980263"
       x2="128.66997"
       y1="121.73159"
       x1="123.50353"
       gradientTransform="matrix(0.870364,0.000000,0.000000,1.001961,4.612015,4.886798)"
       id="linearGradient1362"
       xlink:href="#linearGradient1700"
       inkscape:collect="always" />
    <linearGradient
       y2="0.50000000"
       x2="1.0000000"
       y1="0.50000000"
       x1="1.3267924e-17"
       id="linearGradient1363"
       xlink:href="#linearGradient839" />
    <linearGradient
       id="linearGradient1353">
      <stop
         id="stop1355"
         offset="0.0000000"
         style="stop-color:#46a046;stop-opacity:1.0000000;" />
      <stop
         id="stop1357"
         offset="0.39364964"
         style="stop-color:#df421e;stop-opacity:1.0000000;" />
      <stop
         id="stop1359"
         offset="0.72036445"
         style="stop-color:#ada7c8;stop-opacity:1.0000000;" />
      <stop
         id="stop1361"
         offset="1.0000000"
         style="stop-color:#eed680;stop-opacity:1.0000000;" />
    </linearGradient>
    <linearGradient
       id="linearGradient1700">
      <stop
         id="stop1701"
         offset="0.0000000"
         style="stop-color:#000000;stop-opacity:0.69918698;" />
      <stop
         id="stop1702"
         offset="1"
         style="stop-color:#000000;stop-opacity:0;" />
    </linearGradient>
    <linearGradient
       xlink:href="#linearGradient839"
       id="linearGradient1427"
       x1="1.3267924e-17"
       y1="0.50000000"
       x2="1.0000000"
       y2="0.50000000" />
    <linearGradient
       id="linearGradient1417">
      <stop
         style="stop-color:#46a046;stop-opacity:1.0000000;"
         offset="0.0000000"
         id="stop1419" />
      <stop
         style="stop-color:#df421e;stop-opacity:1.0000000;"
         offset="0.39364964"
         id="stop1421" />
      <stop
         style="stop-color:#ada7c8;stop-opacity:1.0000000;"
         offset="0.72036445"
         id="stop1423" />
      <stop
         style="stop-color:#eed680;stop-opacity:1.0000000;"
         offset="1.0000000"
         id="stop1425" />
    </linearGradient>
    <linearGradient
       y2="0.50000000"
       x2="1.0000000"
       y1="0.50000000"
       x1="1.3267924e-17"
       id="linearGradient1381"
       xlink:href="#linearGradient839" />
    <linearGradient
       id="linearGradient1371">
      <stop
         id="stop1373"
         offset="0.0000000"
         style="stop-color:#46a046;stop-opacity:1.0000000;" />
      <stop
         id="stop1375"
         offset="0.39364964"
         style="stop-color:#df421e;stop-opacity:1.0000000;" />
      <stop
         id="stop1377"
         offset="0.72036445"
         style="stop-color:#ada7c8;stop-opacity:1.0000000;" />
      <stop
         id="stop1379"
         offset="1.0000000"
         style="stop-color:#eed680;stop-opacity:1.0000000;" />
    </linearGradient>
    <linearGradient
       xlink:href="#linearGradient839"
       id="linearGradient1374"
       x1="1.3267924e-17"
       y1="0.50000000"
       x2="1.0000000"
       y2="0.50000000" />
    <linearGradient
       id="linearGradient1364">
      <stop
         style="stop-color:#46a046;stop-opacity:1.0000000;"
         offset="0.0000000"
         id="stop1366" />
      <stop
         style="stop-color:#df421e;stop-opacity:1.0000000;"
         offset="0.39364964"
         id="stop1368" />
      <stop
         style="stop-color:#ada7c8;stop-opacity:1.0000000;"
         offset="0.72036445"
         id="stop1370" />
      <stop
         style="stop-color:#eed680;stop-opacity:1.0000000;"
         offset="1.0000000"
         id="stop1372" />
    </linearGradient>
    <linearGradient
       xlink:href="#linearGradient839"
       id="linearGradient1382"
       x1="1.3267924e-17"
       y1="0.50000000"
       x2="1.0000000"
       y2="0.50000000" />
    <linearGradient
       id="linearGradient1372">
      <stop
         style="stop-color:#46a046;stop-opacity:1.0000000;"
         offset="0.0000000"
         id="stop1374" />
      <stop
         style="stop-color:#df421e;stop-opacity:1.0000000;"
         offset="0.39364964"
         id="stop1376" />
      <stop
         style="stop-color:#ada7c8;stop-opacity:1.0000000;"
         offset="0.72036445"
         id="stop1378" />
      <stop
         style="stop-color:#eed680;stop-opacity:1.0000000;"
         offset="1.0000000"
         id="stop1380" />
    </linearGradient>
  </defs>
  <sodipodi:namedview
     inkscape:current-layer="svg1"
     inkscape:window-y="34"
     inkscape:window-x="0"
     gridspacingy="1.0000000mm"
     gridspacingx="1.0000000mm"
     snaptogrid="false"
     showgrid="true"
     inkscape:window-height="653"
     inkscape:window-width="756"
     inkscape:cy="84.745763"
     inkscape:cx="39.322034"
     inkscape:zoom="2.9500000"
     inkscape:pageshadow="2"
     inkscape:pageopacity="0.0"
     borderopacity="1.0"
     bordercolor="#666666"
     pagecolor="#ffffff"
     id="base" />
  <rect
     rx="22.892691"
     ry="22.892691"
     y="13.614116"
     x="20.782476"
     height="133.38696"
     width="117.75612"
     id="rect834"
     style="stroke-miterlimit:4.0000000;stroke-dasharray:none;stroke-opacity:0.49999997;stroke-linejoin:round;stroke-width:7.5000000;stroke:#000000;fill-rule:evenodd;fill:none" />
  <rect
     rx="22.892691"
     ry="22.892691"
     y="13.524447"
     x="20.643702"
     height="133.38696"
     width="117.75612"
     id="rect828"
     style="fill:#bab5ab;fill-opacity:1.0000000;fill-rule:evenodd;stroke:#000000;stroke-width:3.7500000;stroke-dasharray:none;stroke-miterlimit:4.0000000" />
  <path
     sodipodi:nodetypes="cccccc"
     id="path2838"
     d="M 117.38055,142.41910 L 41.662967,142.41910 C 30.018294,142.41910 24.316361,136.71717 24.316361,125.07250 C 24.316361,125.07250 51.936692,58.557014 134.72716,48.414718 L 134.72716,125.07250 C 134.72716,136.71717 129.02522,142.41910 117.38055,142.41910 z "
     style="stroke-width:6.2500000;stroke:none;fill-rule:evenodd;fill-opacity:0.27935222;fill:#ffffff" />
  <g
     id="g1402"
     transform="translate(149.1525,6.779661)">
    <rect
       style="fill:#ffffff;fill-rule:evenodd;stroke:#000000;stroke-width:5.5853095"
       id="rect849"
       width="92.758514"
       height="69.498535"
       ry="11.146752"
       x="-115.97440"
       y="19.515079"
       rx="11.146752" />
    <path
       style="font-size:40.000000;stroke-width:1.0000000pt;font-family:Trek"
       d="M -104.28975,58.286269 L -92.087909,29.778662 L -85.822098,29.778662 L -73.620256,58.286269 L -80.142562,58.286269 L -82.964009,51.360899 L -94.872714,51.360899 L -97.730803,58.286269 L -104.28975,58.286269 z M -88.936682,36.740674 L -93.113890,46.890555 L -84.796117,46.890555 L -88.936682,36.740674 z "
       id="path896" />
    <path
       style="font-size:40.000000;stroke-width:1.0000000pt;font-family:Trek"
       d="M -71.693616,79.713101 L -71.693616,51.205494 L -66.343860,51.205494 L -66.343860,59.340056 L -59.858198,59.340056 C -56.780246,59.340056 -54.337440,60.219468 -52.529754,61.978292 C -51.723626,62.808848 -51.088500,63.883684 -50.624360,65.202803 C -50.135800,66.497493 -49.891520,67.938751 -49.891520,69.526578 C -49.891520,72.848802 -50.746510,75.377112 -52.456470,77.111507 C -54.142009,78.845904 -56.609256,79.713101 -59.858198,79.713101 L -71.693616,79.713101 z M -66.343860,75.425967 L -60.700968,75.425967 C -59.186419,75.425967 -57.965016,74.900763 -57.036742,73.850354 C -56.084045,72.799946 -55.607697,71.358687 -55.607697,69.526578 C -55.607697,67.718898 -56.059623,66.289854 -56.963457,65.239445 C -57.842869,64.164608 -59.088712,63.627189 -60.700968,63.627189 L -66.343860,63.627189 L -66.343860,75.425967 z "
       id="path897" />
    <path
       style="font-size:40.000000;stroke-width:1.0000000pt;font-family:Trek"
       d="M -39.120540,29.550717 L -39.120540,34.460768 L -49.673480,34.460768 C -52.018577,34.460768 -53.777402,35.242467 -54.949955,36.805867 C -56.122504,38.369265 -56.708779,40.702150 -56.708779,43.804521 C -56.708779,46.931319 -56.159146,49.276418 -55.059881,50.839817 C -53.960612,52.403216 -52.165146,53.184916 -49.673480,53.184916 L -39.120540,53.184916 L -39.120540,58.058324 L -51.505587,58.058324 C -55.365232,58.058324 -58.333248,56.836918 -60.409638,54.394108 C -62.461599,51.926868 -63.487580,48.397006 -63.487580,43.804521 C -63.487580,39.163179 -62.461599,35.633317 -60.409638,33.214934 C -58.357676,30.772123 -55.389661,29.550717 -51.505587,29.550717 L -39.120540,29.550717 z "
       id="path843" />
  </g>
  <path
     style="font-size:40.000000;fill:#ffffff;fill-opacity:1.0000000;stroke-width:1.0000000pt;font-family:Trek"
     d="M 124.01382,110.10169 L 114.01382,110.10169 C 112.46715,110.10169 111.22715,110.27502 110.29382,110.62169 C 109.84048,110.75502 109.44048,110.91502 109.09382,111.10169 C 108.74715,111.28835 108.41382,111.55502 108.09382,111.90169 C 107.21382,112.70169 106.57382,113.68835 106.17382,114.86169 L 105.93382,115.82169 L 105.85382,116.90169 L 105.85382,117.74169 L 124.01382,117.74169 L 124.01382,122.86169 L 105.85382,122.86169 L 105.85382,135.86169 L 99.133816,135.86169 L 99.133816,120.30169 C 99.133816,118.94169 99.173816,117.75502 99.253816,116.74169 C 99.333814,115.70169 99.467144,114.79502 99.653814,114.02169 C 100.21382,111.46169 101.38715,109.36835 103.17382,107.74169 C 104.29382,106.70169 105.65382,105.94169 107.25382,105.46169 C 108.85382,104.98169 110.88048,104.74169 113.33382,104.74169 L 124.01382,104.74169 L 124.01382,110.10169 z M 94.293813,104.74169 L 94.293813,110.10169 L 77.093813,110.10169 C 76.000480,110.10169 75.013813,110.42169 74.133813,111.06169 C 73.387146,111.72835 73.013813,112.64835 73.013813,113.82169 C 73.013813,115.10169 73.427146,116.06169 74.253813,116.70169 C 74.973813,117.26169 75.960480,117.54169 77.213813,117.54169 L 86.893813,117.54169 C 89.053813,117.54169 91.000480,118.15502 92.733813,119.38169 C 94.920480,121.00835 96.013813,123.44835 96.013813,126.70169 C 96.013813,129.79502 94.920480,132.22169 92.733813,133.98169 C 91.027146,135.23502 89.080480,135.86169 86.893813,135.86169 L 66.293813,135.86169 L 66.293813,130.54169 L 83.893813,130.54169 C 84.907146,130.54169 85.840480,130.18169 86.693813,129.46169 C 87.547146,128.74169 87.973813,127.82169 87.973813,126.70169 C 87.973813,125.55502 87.547146,124.63502 86.693813,123.94169 C 85.893813,123.22169 84.920480,122.86169 83.773813,122.86169 L 74.013813,122.86169 C 71.853813,122.86169 69.933813,122.26169 68.253813,121.06169 C 66.067146,119.43502 64.973813,117.02169 64.973813,113.82169 C 64.973813,110.62169 66.067146,108.20835 68.253813,106.58169 C 69.880480,105.35502 71.800480,104.74169 74.013813,104.74169 L 94.293813,104.74169 z M 40.453816,124.74169 L 40.453816,135.86169 L 33.733816,135.86169 L 33.733816,104.74169 L 52.413813,104.74169 C 55.293813,104.74169 57.573813,105.59502 59.253813,107.30169 C 60.933813,108.98169 61.773813,111.46169 61.773813,114.74169 C 61.773813,117.99502 60.933813,120.47502 59.253813,122.18169 C 57.573813,123.88835 55.293813,124.74169 52.413813,124.74169 L 40.453816,124.74169 z M 40.453816,110.10169 L 40.453816,119.42169 L 49.373813,119.42169 C 50.840480,119.42169 52.040480,119.04835 52.973813,118.30169 C 53.907146,117.52835 54.373813,116.34169 54.373813,114.74169 C 54.373813,113.16835 53.907146,112.00835 52.973813,111.26169 C 52.067146,110.48835 50.867146,110.10169 49.373813,110.10169 L 40.453816,110.10169 z "
     id="path1408" />
  <path
     style="font-size:40.000000;stroke-width:1.0000000pt;font-family:Trek"
     d="M 124.69178,110.77965 L 114.69178,110.77965 C 113.14511,110.77965 111.90511,110.95298 110.97178,111.29965 C 110.51844,111.43298 110.11844,111.59298 109.77178,111.77965 C 109.42511,111.96631 109.09178,112.23298 108.77178,112.57965 C 107.89178,113.37965 107.25178,114.36631 106.85178,115.53965 L 106.61178,116.49965 L 106.53178,117.57965 L 106.53178,118.41965 L 124.69178,118.41965 L 124.69178,123.53965 L 106.53178,123.53965 L 106.53178,136.53965 L 99.811782,136.53965 L 99.811782,120.97965 C 99.811782,119.61965 99.851782,118.43298 99.931782,117.41965 C 100.01178,116.37965 100.14511,115.47298 100.33178,114.69965 C 100.89178,112.13965 102.06511,110.04631 103.85178,108.41965 C 104.97178,107.37965 106.33178,106.61965 107.93178,106.13965 C 109.53178,105.65965 111.55844,105.41965 114.01178,105.41965 L 124.69178,105.41965 L 124.69178,110.77965 z M 94.971779,105.41965 L 94.971779,110.77965 L 77.771779,110.77965 C 76.678446,110.77965 75.691779,111.09965 74.811779,111.73965 C 74.065112,112.40631 73.691779,113.32631 73.691779,114.49965 C 73.691779,115.77965 74.105112,116.73965 74.931779,117.37965 C 75.651779,117.93965 76.638446,118.21965 77.891779,118.21965 L 87.571779,118.21965 C 89.731779,118.21965 91.678446,118.83298 93.411779,120.05965 C 95.598446,121.68631 96.691779,124.12631 96.691779,127.37965 C 96.691779,130.47298 95.598446,132.89965 93.411779,134.65965 C 91.705112,135.91298 89.758446,136.53965 87.571779,136.53965 L 66.971779,136.53965 L 66.971779,131.21965 L 84.571779,131.21965 C 85.585112,131.21965 86.518446,130.85965 87.371779,130.13965 C 88.225112,129.41965 88.651779,128.49965 88.651779,127.37965 C 88.651779,126.23298 88.225112,125.31298 87.371779,124.61965 C 86.571779,123.89965 85.598446,123.53965 84.451779,123.53965 L 74.691779,123.53965 C 72.531779,123.53965 70.611779,122.93965 68.931779,121.73965 C 66.745112,120.11298 65.651779,117.69965 65.651779,114.49965 C 65.651779,111.29965 66.745112,108.88631 68.931779,107.25965 C 70.558446,106.03298 72.478446,105.41965 74.691779,105.41965 L 94.971779,105.41965 z M 41.131782,125.41965 L 41.131782,136.53965 L 34.411782,136.53965 L 34.411782,105.41965 L 53.091779,105.41965 C 55.971779,105.41965 58.251779,106.27298 59.931779,107.97965 C 61.611779,109.65965 62.451779,112.13965 62.451779,115.41965 C 62.451779,118.67298 61.611779,121.15298 59.931779,122.85965 C 58.251779,124.56631 55.971779,125.41965 53.091779,125.41965 L 41.131782,125.41965 z M 41.131782,110.77965 L 41.131782,120.09965 L 50.051779,120.09965 C 51.518446,120.09965 52.718446,119.72631 53.651779,118.97965 C 54.585112,118.20631 55.051779,117.01965 55.051779,115.41965 C 55.051779,113.84631 54.585112,112.68631 53.651779,111.93965 C 52.745112,111.16631 51.545112,110.77965 50.051779,110.77965 L 41.131782,110.77965 z "
     id="path851" />
  <path
     sodipodi:nodetypes="cccccc"
     id="rect2063"
     d="M 41.662967,17.197108 L 117.38055,17.197108 C 129.02522,17.197108 134.72716,22.899041 134.72716,34.543716 C 134.72716,34.543716 55.440598,35.449314 24.316361,125.89213 L 24.316361,34.543716 C 24.316361,24.254973 31.374226,17.197108 41.662967,17.197108 z "
     style="fill:url(#linearGradient2830);fill-opacity:1.0000000;fill-rule:evenodd;stroke:none;stroke-width:6.2500000" />
</svg>
