<?xml version="1.0" encoding="UTF-8" standalone="no"?>
<!-- Created with Inkscape (http://www.inkscape.org/) -->
<svg
   xmlns:dc="http://purl.org/dc/elements/1.1/"
   xmlns:cc="http://web.resource.org/cc/"
   xmlns:rdf="http://www.w3.org/1999/02/22-rdf-syntax-ns#"
   xmlns:svg="http://www.w3.org/2000/svg"
   xmlns="http://www.w3.org/2000/svg"
   xmlns:xlink="http://www.w3.org/1999/xlink"
   xmlns:sodipodi="http://inkscape.sourceforge.net/DTD/sodipodi-0.dtd"
   xmlns:inkscape="http://www.inkscape.org/namespaces/inkscape"
   id="svg1"
   sodipodi:version="0.32"
   inkscape:version="0.41"
   width="128.00000pt"
   height="128.00000pt"
   sodipodi:docbase="/home/francois/Rodent/scalable/mimetypes"
   sodipodi:docname="gnome-mime-image-x-3ds.svg">
  <metadata
     id="metadata15">
    <rdf:RDF
       id="RDF17">
      <cc:Work
         rdf:about=""
         id="Work19">
        <dc:format
           id="format21">image/svg+xml</dc:format>
        <dc:type
           id="type23"
           rdf:resource="http://purl.org/dc/dcmitype/StillImage" />
      </cc:Work>
    </rdf:RDF>
  </metadata>
  <defs
     id="defs3">
    <linearGradient
       inkscape:collect="always"
       id="linearGradient3661">
      <stop
         style="stop-color:#ffffff;stop-opacity:1;"
         offset="0"
         id="stop3663" />
      <stop
         style="stop-color:#ffffff;stop-opacity:0;"
         offset="1"
         id="stop3665" />
    </linearGradient>
    <linearGradient
       id="linearGradient5154">
      <stop
         id="stop5156"
         offset="0.0000000"
         style="stop-color:#eed680;stop-opacity:1.0000000;" />
      <stop
         id="stop5160"
         offset="1.0000000"
         style="stop-color:#d1940c;stop-opacity:1.0000000;" />
    </linearGradient>
    <linearGradient
       id="linearGradient2832">
      <stop
         id="stop2834"
         offset="0.0000000"
         style="stop-color:#ffffff;stop-opacity:1.0000000;" />
      <stop
         id="stop2836"
         offset="1.0000000"
         style="stop-color:#ffffff;stop-opacity:0.0000000;" />
    </linearGradient>
    <linearGradient
       gradientUnits="userSpaceOnUse"
       y2="73.398720"
       x2="72.999245"
       y1="16.369013"
       x1="23.983805"
       gradientTransform="matrix(0.939922,0.000000,0.000000,0.896911,6.581525,6.695884)"
       id="linearGradient2830"
       xlink:href="#linearGradient2832"
       inkscape:collect="always" />
    <linearGradient
       id="linearGradient839">
      <stop
         style="stop-color:#46a046;stop-opacity:1.0000000;"
         offset="0.0000000"
         id="stop840" />
      <stop
         style="stop-color:#df421e;stop-opacity:1.0000000;"
         offset="0.39364964"
         id="stop841" />
      <stop
         style="stop-color:#ada7c8;stop-opacity:1.0000000;"
         offset="0.72036445"
         id="stop842" />
      <stop
         style="stop-color:#eed680;stop-opacity:1.0000000;"
         offset="1.0000000"
         id="stop843" />
    </linearGradient>
    <linearGradient
       xlink:href="#linearGradient839"
       id="linearGradient836"
       x1="1.3267924e-17"
       y1="0.50000000"
       x2="1.0000000"
       y2="0.50000000" />
    <radialGradient
       gradientUnits="userSpaceOnUse"
       fy="47.347126"
       fx="58.462635"
       r="134.21057"
       cy="48.719688"
       cx="58.462635"
       id="radialGradient835"
       xlink:href="#linearGradient3661" />
    <linearGradient
       y2="0.50000000"
       x2="1.0000000"
       y1="0.50000000"
       x1="1.3267924e-17"
       id="linearGradient1347"
       xlink:href="#linearGradient839" />
    <linearGradient
       id="linearGradient1337">
      <stop
         id="stop1339"
         offset="0.0000000"
         style="stop-color:#46a046;stop-opacity:1.0000000;" />
      <stop
         id="stop1341"
         offset="0.39364964"
         style="stop-color:#df421e;stop-opacity:1.0000000;" />
      <stop
         id="stop1343"
         offset="0.72036445"
         style="stop-color:#ada7c8;stop-opacity:1.0000000;" />
      <stop
         id="stop1345"
         offset="1.0000000"
         style="stop-color:#eed680;stop-opacity:1.0000000;" />
    </linearGradient>
    <linearGradient
       id="linearGradient837">
      <stop
         id="stop838"
         offset="0.0000000"
         style="stop-color:#eed680;stop-opacity:1.0000000;" />
      <stop
         id="stop846"
         offset="0.72068703"
         style="stop-color:#dfb546;stop-opacity:1.0000000;" />
      <stop
         id="stop845"
         offset="1.0000000"
         style="stop-color:#d1940c;stop-opacity:1.0000000;" />
    </linearGradient>
    <radialGradient
       xlink:href="#linearGradient839"
       id="radialGradient1368"
       cx="0.26557374"
       cy="0.32026142"
       r="0.73238075"
       fx="0.26557377"
       fy="0.31045750" />
    <linearGradient
       xlink:href="#linearGradient839"
       id="linearGradient1366"
       x1="1.3267924e-17"
       y1="0.50000000"
       x2="1.0000000"
       y2="0.50000000" />
    <linearGradient
       id="linearGradient1356">
      <stop
         style="stop-color:#46a046;stop-opacity:1.0000000;"
         offset="0.0000000"
         id="stop1358" />
      <stop
         style="stop-color:#df421e;stop-opacity:1.0000000;"
         offset="0.39364964"
         id="stop1360" />
      <stop
         style="stop-color:#ada7c8;stop-opacity:1.0000000;"
         offset="0.72036445"
         id="stop1362" />
      <stop
         style="stop-color:#eed680;stop-opacity:1.0000000;"
         offset="1.0000000"
         id="stop1364" />
    </linearGradient>
    <linearGradient
       id="linearGradient1348">
      <stop
         style="stop-color:#eed680;stop-opacity:1.0000000;"
         offset="0.0000000"
         id="stop1350" />
      <stop
         style="stop-color:#dfb546;stop-opacity:1.0000000;"
         offset="0.72068703"
         id="stop1352" />
      <stop
         style="stop-color:#d1940c;stop-opacity:1.0000000;"
         offset="1.0000000"
         id="stop1354" />
    </linearGradient>
    <radialGradient
       inkscape:collect="always"
       xlink:href="#linearGradient1356"
       id="radialGradient3673"
       cx="63.231537"
       cy="50.092251"
       fx="63.231537"
       fy="51.464809"
       r="167.43921"
       gradientUnits="userSpaceOnUse" />
  </defs>
  <sodipodi:namedview
     id="base"
     pagecolor="#ffffff"
     bordercolor="#666666"
     borderopacity="1.0"
     inkscape:pageopacity="0.0"
     inkscape:pageshadow="2"
     inkscape:zoom="2.9500000"
     inkscape:cx="80.000000"
     inkscape:cy="80.000000"
     inkscape:window-width="751"
     inkscape:window-height="653"
     showgrid="true"
     snaptogrid="false"
     gridspacingx="1.0000000mm"
     gridspacingy="1.0000000mm"
     inkscape:window-x="0"
     inkscape:window-y="34"
     inkscape:current-layer="svg1" />
  <rect
     style="stroke-miterlimit:4.0000000;stroke-dasharray:none;stroke-opacity:0.49999997;stroke-linejoin:round;stroke-width:7.5000000;stroke:#000000;fill-rule:evenodd;fill:none"
     id="rect834"
     width="117.01241"
     height="132.54453"
     x="21.615664"
     y="13.822820"
     ry="22.892691"
     rx="22.892691" />
  <rect
     style="stroke-miterlimit:4.0000000;stroke-dasharray:none;fill:#df421e;fill-rule:evenodd;stroke:#000000;stroke-width:3.7500000;fill-opacity:1.0000000"
     id="rect828"
     width="117.01241"
     height="132.54453"
     x="21.615664"
     y="13.822820"
     ry="22.892691"
     rx="22.892691" />
  <path
     sodipodi:nodetypes="cccccc"
     id="path2838"
     d="M 117.55369,142.69710 L 41.836122,142.69710 C 30.191452,142.69710 24.489512,136.99517 24.489512,125.35050 C 24.489512,125.35050 52.109842,58.835020 134.90030,48.692724 L 134.90030,125.35050 C 134.90030,136.99517 129.19836,142.69710 117.55369,142.69710 z "
     style="stroke-width:6.2500000;stroke:none;fill-rule:evenodd;fill-opacity:0.27125505;fill:#ffffff" />
  <path
     transform="matrix(0.798804,0.000000,0.000000,0.798804,19.36453,6.406948)"
     d="M 121.18196 66.562988 A 44.665630 44.665630 0 1 1  31.850697,66.562988 A 44.665630 44.665630 0 1 1  121.18196 66.562988 z"
     sodipodi:ry="44.665630"
     sodipodi:rx="44.665630"
     sodipodi:cy="66.562988"
     sodipodi:cx="76.516327"
     id="path834"
     style="fill:url(#radialGradient3673);fill-opacity:1.0;fill-rule:evenodd;stroke:#000000;stroke-width:4.0029163"
     sodipodi:type="arc" />
  <path
     style="font-size:40.000000;stroke-width:1.0000000pt;font-family:Trek"
     d="M 125.83906,103.73629 L 125.83906,109.09629 L 108.63906,109.09629 C 107.54573,109.09629 106.55906,109.41629 105.67906,110.05629 C 104.93239,110.72295 104.55906,111.64295 104.55906,112.81629 C 104.55906,114.09629 104.97239,115.05629 105.79906,115.69629 C 106.51906,116.25629 107.50573,116.53629 108.75906,116.53629 L 118.43906,116.53629 C 120.59906,116.53629 122.54573,117.14962 124.27906,118.37629 C 126.46573,120.00295 127.55906,122.44295 127.55906,125.69629 C 127.55906,128.78962 126.46573,131.21629 124.27906,132.97629 C 122.57239,134.22962 120.62573,134.85629 118.43906,134.85629 L 97.839056,134.85629 L 97.839056,129.53629 L 115.43906,129.53629 C 116.45239,129.53629 117.38573,129.17629 118.23906,128.45629 C 119.09239,127.73629 119.51906,126.81629 119.51906,125.69629 C 119.51906,124.54962 119.09239,123.62962 118.23906,122.93629 C 117.43906,122.21629 116.46573,121.85629 115.31906,121.85629 L 105.55906,121.85629 C 103.39906,121.85629 101.47906,121.25629 99.799056,120.05629 C 97.612389,118.42962 96.519056,116.01629 96.519056,112.81629 C 96.519056,109.61629 97.612389,107.20295 99.799056,105.57629 C 101.42573,104.34962 103.34573,103.73629 105.55906,103.73629 L 125.83906,103.73629 z M 63.959056,103.73629 L 80.479056,103.73629 C 84.665722,103.73629 87.852389,105.06962 90.039056,107.73629 C 92.225722,110.40295 93.319056,114.25629 93.319056,119.29629 C 93.319056,124.28295 92.225722,128.12295 90.039056,130.81629 C 87.879056,133.50962 84.692389,134.85629 80.479056,134.85629 L 63.959056,134.85629 L 63.959056,103.73629 z M 70.439056,129.53629 L 78.319056,129.53629 C 80.932389,129.53629 82.865722,128.69629 84.119056,127.01629 C 85.372389,125.30962 85.999056,122.73629 85.999056,119.29629 C 85.999056,115.85629 85.399056,113.29629 84.199056,111.61629 C 83.025722,109.93629 81.065722,109.09629 78.319056,109.09629 L 70.439056,109.09629 L 70.439056,129.53629 z M 56.279056,119.57629 C 57.532389,120.18962 58.465722,120.89629 59.079056,121.69629 C 60.225722,123.08295 60.799056,124.70962 60.799056,126.57629 C 60.799056,129.32295 59.705722,131.49629 57.519056,133.09629 C 56.692389,133.68295 55.772389,134.12295 54.759056,134.41629 C 53.772386,134.70962 52.745726,134.85629 51.679056,134.85629 L 34.159056,134.85629 L 34.159056,129.53629 L 49.439056,129.53629 C 50.665726,129.53629 51.625726,129.24295 52.319056,128.65629 C 53.199056,128.01629 53.639056,127.02962 53.639056,125.69629 C 53.639056,124.41629 53.239056,123.45629 52.439056,122.81629 C 51.639056,122.17629 50.639056,121.85629 49.439056,121.85629 L 37.679056,121.85629 L 37.679056,116.73629 L 49.439056,116.73629 C 50.639056,116.73629 51.599056,116.45629 52.319056,115.89629 C 53.199056,115.25629 53.639056,114.25629 53.639056,112.89629 C 53.639056,111.69629 53.239056,110.76295 52.439056,110.09629 C 51.639056,109.42962 50.639056,109.09629 49.439056,109.09629 L 34.159056,109.09629 L 34.159056,103.73629 L 51.679056,103.73629 C 53.839056,103.73629 55.785722,104.30962 57.519056,105.45629 C 59.705722,107.00295 60.799056,109.18962 60.799056,112.01629 C 60.799056,113.85629 60.225722,115.46962 59.079056,116.85629 C 58.439056,117.65629 57.505722,118.37629 56.279056,119.01629 L 55.759056,119.29629 L 56.279056,119.57629 z "
     id="path842" />
  <path
     style="font-size:40.000000;fill:#ffffff;fill-opacity:1.0000000;stroke-width:1.0000000pt;font-family:Trek"
     d="M 125.16110,103.05833 L 125.16110,108.41833 L 107.96110,108.41833 C 106.86777,108.41833 105.88110,108.73833 105.00110,109.37833 C 104.25443,110.04499 103.88110,110.96499 103.88110,112.13833 C 103.88110,113.41833 104.29443,114.37833 105.12110,115.01833 C 105.84110,115.57833 106.82777,115.85833 108.08110,115.85833 L 117.76110,115.85833 C 119.92110,115.85833 121.86777,116.47166 123.60110,117.69833 C 125.78777,119.32499 126.88110,121.76499 126.88110,125.01833 C 126.88110,128.11166 125.78777,130.53833 123.60110,132.29833 C 121.89443,133.55166 119.94777,134.17833 117.76110,134.17833 L 97.161090,134.17833 L 97.161090,128.85833 L 114.76110,128.85833 C 115.77443,128.85833 116.70777,128.49833 117.56110,127.77833 C 118.41443,127.05833 118.84110,126.13833 118.84110,125.01833 C 118.84110,123.87166 118.41443,122.95166 117.56110,122.25833 C 116.76110,121.53833 115.78777,121.17833 114.64110,121.17833 L 104.88110,121.17833 C 102.72110,121.17833 100.80110,120.57833 99.121090,119.37833 C 96.934423,117.75166 95.841090,115.33833 95.841090,112.13833 C 95.841090,108.93833 96.934423,106.52499 99.121090,104.89833 C 100.74777,103.67166 102.66777,103.05833 104.88110,103.05833 L 125.16110,103.05833 z M 63.281090,103.05833 L 79.801090,103.05833 C 83.987756,103.05833 87.174423,104.39166 89.361090,107.05833 C 91.547756,109.72499 92.641090,113.57833 92.641090,118.61833 C 92.641090,123.60499 91.547756,127.44499 89.361090,130.13833 C 87.201090,132.83166 84.014423,134.17833 79.801090,134.17833 L 63.281090,134.17833 L 63.281090,103.05833 z M 69.761090,128.85833 L 77.641090,128.85833 C 80.254423,128.85833 82.187756,128.01833 83.441090,126.33833 C 84.694423,124.63166 85.321090,122.05833 85.321090,118.61833 C 85.321090,115.17833 84.721090,112.61833 83.521090,110.93833 C 82.347756,109.25833 80.387756,108.41833 77.641090,108.41833 L 69.761090,108.41833 L 69.761090,128.85833 z M 55.601090,118.89833 C 56.854423,119.51166 57.787756,120.21833 58.401090,121.01833 C 59.547756,122.40499 60.121090,124.03166 60.121090,125.89833 C 60.121090,128.64499 59.027756,130.81833 56.841090,132.41833 C 56.014423,133.00499 55.094423,133.44499 54.081090,133.73833 C 53.094420,134.03166 52.067760,134.17833 51.001090,134.17833 L 33.481090,134.17833 L 33.481090,128.85833 L 48.761090,128.85833 C 49.987760,128.85833 50.947760,128.56499 51.641090,127.97833 C 52.521090,127.33833 52.961090,126.35166 52.961090,125.01833 C 52.961090,123.73833 52.561090,122.77833 51.761090,122.13833 C 50.961090,121.49833 49.961090,121.17833 48.761090,121.17833 L 37.001090,121.17833 L 37.001090,116.05833 L 48.761090,116.05833 C 49.961090,116.05833 50.921090,115.77833 51.641090,115.21833 C 52.521090,114.57833 52.961090,113.57833 52.961090,112.21833 C 52.961090,111.01833 52.561090,110.08499 51.761090,109.41833 C 50.961090,108.75166 49.961090,108.41833 48.761090,108.41833 L 33.481090,108.41833 L 33.481090,103.05833 L 51.001090,103.05833 C 53.161090,103.05833 55.107756,103.63166 56.841090,104.77833 C 59.027756,106.32499 60.121090,108.51166 60.121090,111.33833 C 60.121090,113.17833 59.547756,114.79166 58.401090,116.17833 C 57.761090,116.97833 56.827756,117.69833 55.601090,118.33833 L 55.081090,118.61833 L 55.601090,118.89833 z "
     id="path2143" />
  <path
     sodipodi:nodetypes="cccccc"
     id="rect2063"
     d="M 43.293749,17.381303 L 119.01134,17.381303 C 130.65601,17.381303 136.35795,23.083236 136.35795,34.727911 C 136.35795,34.727911 57.071380,35.633509 25.947143,126.07633 L 25.947143,34.727911 C 25.947143,24.439168 33.005008,17.381303 43.293749,17.381303 z "
     style="fill:url(#linearGradient2830);fill-opacity:1.0000000;fill-rule:evenodd;stroke:none;stroke-width:6.2500000" />
</svg>
