<?xml version="1.0" encoding="UTF-8" standalone="no"?>
<!-- Created with Inkscape (http://www.inkscape.org/) -->
<svg
   xmlns:dc="http://purl.org/dc/elements/1.1/"
   xmlns:cc="http://web.resource.org/cc/"
   xmlns:rdf="http://www.w3.org/1999/02/22-rdf-syntax-ns#"
   xmlns:svg="http://www.w3.org/2000/svg"
   xmlns="http://www.w3.org/2000/svg"
   xmlns:xlink="http://www.w3.org/1999/xlink"
   xmlns:sodipodi="http://inkscape.sourceforge.net/DTD/sodipodi-0.dtd"
   xmlns:inkscape="http://www.inkscape.org/namespaces/inkscape"
   id="svg1"
   sodipodi:version="0.32"
   inkscape:version="0.41"
   width="128.00000pt"
   height="128.00000pt"
   sodipodi:docbase="/home/francois/Rodent/scalable/stock"
   sodipodi:docname="stock_copy.svg">
  <metadata
     id="metadata50">
    <rdf:RDF
       id="RDF52">
      <cc:Work
         rdf:about=""
         id="Work54">
        <dc:format
           id="format56">image/svg+xml</dc:format>
        <dc:type
           id="type58"
           rdf:resource="http://purl.org/dc/dcmitype/StillImage" />
      </cc:Work>
    </rdf:RDF>
  </metadata>
  <defs
     id="defs3">
    <linearGradient
       id="linearGradient566">
      <stop
         style="stop-color:#ffff00;stop-opacity:1.0000000;"
         offset="0.0000000"
         id="stop567" />
      <stop
         style="stop-color:#ffd800;stop-opacity:1.0000000;"
         offset="0.43829629"
         id="stop854" />
      <stop
         style="stop-color:#ffb200;stop-opacity:1.0000000;"
         offset="1.0000000"
         id="stop568" />
    </linearGradient>
    <linearGradient
       id="linearGradient860">
      <stop
         style="stop-color:#ffffff;stop-opacity:1.0000000;"
         offset="0.0000000"
         id="stop861" />
      <stop
         style="stop-color:#ffea7d;stop-opacity:1.0000000;"
         offset="0.25000000"
         id="stop862" />
      <stop
         style="stop-color:#ffbf00;stop-opacity:1.0000;"
         offset="1"
         id="stop863" />
    </linearGradient>
    <linearGradient
       xlink:href="#linearGradient566"
       id="linearGradient569"
       x1="0.48750001"
       y1="0.48387095"
       x2="0.96249998"
       y2="0.48387095"
       spreadMethod="reflect" />
    <linearGradient
       xlink:href="#linearGradient566"
       id="linearGradient589"
       x1="0.44374999"
       y1="0.046875000"
       x2="0.44374999"
       y2="0.57812500"
       spreadMethod="reflect" />
    <linearGradient
       id="linearGradient849">
      <stop
         style="stop-color:#ffc900;stop-opacity:1.0000000;"
         offset="0.0000000"
         id="stop850" />
      <stop
         style="stop-color:#5d5d5c;stop-opacity:1.0000000;"
         offset="1.0000000"
         id="stop851" />
    </linearGradient>
    <linearGradient
       id="linearGradient843">
      <stop
         style="stop-color:#ffffff;stop-opacity:1.0000000;"
         offset="0.0000000"
         id="stop844" />
      <stop
         style="stop-color:#5c5d5c;stop-opacity:1.0000000;"
         offset="1.0000000"
         id="stop845" />
    </linearGradient>
    <linearGradient
       id="linearGradient838">
      <stop
         style="stop-color:#ffd000;stop-opacity:1.0000000;"
         offset="0.0000000"
         id="stop839" />
      <stop
         style="stop-color:#5c5d5c;stop-opacity:1.0000000;"
         offset="1.0000000"
         id="stop840" />
    </linearGradient>
    <linearGradient
       xlink:href="#linearGradient838"
       id="linearGradient841"
       x1="0.35333332"
       y1="0.35135135"
       x2="0.47999999"
       y2="0.049549550" />
    <linearGradient
       xlink:href="#linearGradient843"
       id="linearGradient842"
       x1="0.80165291"
       y1="0.15765765"
       x2="0.43801653"
       y2="0.72522521" />
    <linearGradient
       xlink:href="#linearGradient849"
       id="linearGradient847"
       x1="0.53358209"
       y1="0.50450450"
       x2="0.33208954"
       y2="0.24324325" />
    <radialGradient
       xlink:href="#linearGradient566"
       id="radialGradient853"
       cx="0.32499999"
       cy="0.33021805"
       r="0.54695481"
       fx="0.32187498"
       fy="0.33021802" />
    <linearGradient
       xlink:href="#linearGradient828"
       id="linearGradient832" />
    <linearGradient
       xlink:href="#linearGradient828"
       id="linearGradient831"
       x1="40.682816"
       y1="60.120761"
       x2="39.968490"
       y2="31.373242"
       gradientTransform="matrix(1.541928,0.000000,0.000000,0.561212,4.039973,6.786943)"
       gradientUnits="userSpaceOnUse" />
    <linearGradient
       id="linearGradient828">
      <stop
         style="stop-color:#000;stop-opacity:1;"
         offset="0"
         id="stop829" />
      <stop
         style="stop-color:#fff;stop-opacity:1;"
         offset="1"
         id="stop830" />
    </linearGradient>
    <linearGradient
       y2="31.373242"
       x2="39.968490"
       y1="60.120761"
       x1="40.682816"
       gradientTransform="matrix(1.541928,0.000000,0.000000,0.561212,-158.7179,0.791383)"
       gradientUnits="userSpaceOnUse"
       id="linearGradient1407"
       xlink:href="#linearGradient828"
       inkscape:collect="always" />
  </defs>
  <sodipodi:namedview
     id="base"
     pagecolor="#ffffff"
     bordercolor="#666666"
     borderopacity="1.0"
     inkscape:pageopacity="0.0"
     inkscape:pageshadow="2"
     inkscape:zoom="2.9625000"
     inkscape:cx="80.000000"
     inkscape:cy="80.000000"
     inkscape:window-width="1242"
     inkscape:window-height="653"
     showgrid="true"
     snaptogrid="true"
     gridspacingx="1.0000000mm"
     gridspacingy="1.0000000mm"
     inkscape:window-x="15"
     inkscape:window-y="34"
     inkscape:current-layer="svg1" />
  <path
     style="fill:#000000;fill-opacity:0.40000001;fill-rule:evenodd;stroke:none;stroke-width:2.4340091;stroke-linecap:round"
     d="M 36.916724,51.588106 L 91.609606,51.419761"
     id="path1421" />
  <path
     style="fill:#000000;fill-opacity:0.40000001;fill-rule:evenodd;stroke:none;stroke-width:2.4340091;stroke-linecap:round"
     d="M 37.276825,90.198298 L 72.374656,89.968868"
     id="path1423" />
  <path
     style="fill:#000000;fill-opacity:0.40000001;fill-rule:evenodd;stroke:none;stroke-width:2.4340091;stroke-linecap:round"
     d="M 39.748022,53.348329 L 89.654056,53.168409"
     id="path1425" />
  <path
     style="fill:#000000;fill-opacity:0.40000001;fill-rule:evenodd;stroke:none;stroke-width:2.4340091;stroke-linecap:round"
     d="M 40.076610,94.613388 L 72.102596,94.368178"
     id="path1427" />
  <rect
     style="fill:#ffffff;fill-rule:evenodd;stroke:#000000;stroke-width:7.1727767"
     id="rect849"
     width="102.03041"
     height="104.20293"
     ry="17.815737"
     x="10.971897"
     y="11.207236"
     rx="17.815737" />
  <path
     style="font-size:10.976674;font-style:normal;font-weight:normal;fill:#000000;fill-opacity:1.0000000;stroke:none;stroke-width:1.0000000pt;stroke-linecap:butt;stroke-linejoin:miter;stroke-opacity:1.0000000;font-family:Bitstream Vera Sans"
     d="M 42.601023,30.149368 L 42.601023,31.004628 C 42.291993,30.862089 41.980987,30.756011 41.668005,30.686392 C 41.358975,30.613468 41.045987,30.577003 40.729043,30.576998 C 40.019866,30.577003 39.469168,30.765956 39.076947,31.143857 C 38.684719,31.518452 38.488607,32.045531 38.488610,32.725094 C 38.488607,33.404664 38.684719,33.933400 39.076947,34.311305 C 39.469168,34.685896 40.019866,34.873191 40.729043,34.873190 C 41.045987,34.873191 41.358975,34.838384 41.668005,34.768769 C 41.980987,34.695841 42.291993,34.588104 42.601023,34.445561 L 42.601023,35.290876 C 42.295955,35.410214 41.979006,35.499719 41.650177,35.559388 C 41.325299,35.619057 40.978636,35.648892 40.610187,35.648892 C 39.607833,35.648892 38.811500,35.385353 38.221184,34.858273 C 37.630865,34.331196 37.335707,33.620137 37.335707,32.725094 C 37.335707,31.816798 37.632847,31.102425 38.227127,30.581970 C 38.825366,30.061527 39.643489,29.801302 40.681501,29.801297 C 41.018254,29.801302 41.347089,29.831137 41.668005,29.890801 C 41.988910,29.947161 42.299916,30.033349 42.601023,30.149368 M 47.070005,30.576998 C 46.483646,30.577003 46.020108,30.769271 45.679391,31.153801 C 45.338668,31.535026 45.168309,32.058790 45.168310,32.725094 C 45.168309,33.391404 45.336688,33.916825 45.673448,34.301359 C 46.014166,34.682581 46.479685,34.873191 47.070005,34.873190 C 47.652395,34.873191 48.113951,34.680923 48.454676,34.296386 C 48.795391,33.911852 48.965750,33.388089 48.965756,32.725094 C 48.965750,32.065421 48.795391,31.543314 48.454676,31.158774 C 48.113951,30.770928 47.652395,30.577003 47.070005,30.576998 M 47.070005,29.801297 C 48.020847,29.801302 48.767658,30.059869 49.310438,30.576998 C 49.853207,31.094137 50.124595,31.810168 50.124602,32.725094 C 50.124595,33.636711 49.853207,34.352742 49.310438,34.873190 C 48.767658,35.390325 48.020847,35.648892 47.070005,35.648892 C 46.115193,35.648892 45.366401,35.390325 44.823629,34.873190 C 44.284814,34.352742 44.015408,33.636711 44.015409,32.725094 C 44.015408,31.810168 44.284814,31.094137 44.823629,30.576998 C 45.366401,30.059869 46.115193,29.801302 47.070005,29.801297 M 52.989028,34.669320 L 52.989028,37.622953 L 51.889612,37.622953 L 51.889612,29.935553 L 52.989028,29.935553 L 52.989028,30.780869 C 53.218814,30.449377 53.508029,30.204070 53.856676,30.044946 C 54.209279,29.882519 54.629236,29.801302 55.116549,29.801297 C 55.924763,29.801302 56.580452,30.069814 57.083614,30.606833 C 57.590725,31.143862 57.844284,31.849948 57.844291,32.725094 C 57.844284,33.600247 57.590725,34.306333 57.083614,34.843356 C 56.580452,35.380380 55.924763,35.648892 55.116549,35.648892 C 54.629236,35.648892 54.209279,35.569333 53.856676,35.410214 C 53.508029,35.247782 53.218814,35.000817 52.989028,34.669320 M 56.709218,32.725094 C 56.709211,32.052160 56.542814,31.525082 56.210023,31.143857 C 55.881183,30.759326 55.427550,30.567059 54.849123,30.567053 C 54.270687,30.567059 53.815074,30.759326 53.482280,31.143857 C 53.153443,31.525082 52.989026,32.052160 52.989028,32.725094 C 52.989026,33.398034 53.153443,33.926770 53.482280,34.311305 C 53.815074,34.692526 54.270687,34.883136 54.849123,34.883136 C 55.427550,34.883136 55.881183,34.692526 56.210023,34.311305 C 56.542814,33.926770 56.709211,33.398034 56.709218,32.725094 M 62.426186,36.021825 C 62.117157,36.684817 61.816056,37.117419 61.522881,37.319634 C 61.229701,37.521844 60.837477,37.622950 60.346208,37.622953 L 59.472617,37.622953 L 59.472617,36.857196 L 60.114439,36.857196 C 60.415539,36.857195 60.649289,36.797525 60.815688,36.678188 C 60.982085,36.558848 61.166311,36.277076 61.368369,35.832872 L 61.564481,35.415187 L 58.872395,29.935553 L 60.031239,29.935553 L 62.111218,34.291415 L 64.191196,29.935553 L 65.350036,29.935553 L 62.426186,36.021825 M 73.313386,30.576998 C 72.727026,30.577003 72.263486,30.769271 71.922776,31.153801 C 71.582046,31.535026 71.411686,32.058790 71.411696,32.725094 C 71.411686,33.391404 71.580066,33.916825 71.916826,34.301359 C 72.257546,34.682581 72.723066,34.873191 73.313386,34.873190 C 73.895786,34.873191 74.357336,34.680923 74.698066,34.296386 C 75.038776,33.911852 75.209136,33.388089 75.209146,32.725094 C 75.209136,32.065421 75.038776,31.543314 74.698066,31.158774 C 74.357336,30.770928 73.895786,30.577003 73.313386,30.576998 M 73.313386,29.801297 C 74.264236,29.801302 75.011046,30.059869 75.553826,30.576998 C 76.096596,31.094137 76.367986,31.810168 76.367996,32.725094 C 76.367986,33.636711 76.096596,34.352742 75.553826,34.873190 C 75.011046,35.390325 74.264236,35.648892 73.313386,35.648892 C 72.358576,35.648892 71.609786,35.390325 71.067006,34.873190 C 70.528196,34.352742 70.258786,33.636711 70.258786,32.725094 C 70.258786,31.810168 70.528196,31.094137 71.067006,30.576998 C 71.609786,30.059869 72.358576,29.801302 73.313386,29.801297 M 82.031476,30.790813 C 81.908656,30.731149 81.773946,30.688054 81.627366,30.661530 C 81.484736,30.631700 81.326256,30.616783 81.151936,30.616777 C 80.533886,30.616783 80.058466,30.785845 79.725666,31.123967 C 79.396836,31.458782 79.232416,31.941109 79.232416,32.570948 L 79.232416,35.504691 L 78.132996,35.504691 L 78.132996,29.935553 L 79.232416,29.935553 L 79.232416,30.800758 C 79.462206,30.462637 79.761326,30.212358 80.129776,30.049919 C 80.498226,29.884176 80.945916,29.801302 81.472856,29.801297 C 81.548126,29.801302 81.631326,29.806275 81.722446,29.816214 C 81.813566,29.822849 81.914596,29.834452 82.025536,29.851021 L 82.031476,30.790813 M 38.868948,55.036453 L 38.868948,57.990085 L 37.769532,57.990085 L 37.769532,50.302685 L 38.868948,50.302685 L 38.868948,51.148001 C 39.098734,50.816509 39.387949,50.571202 39.736597,50.412079 C 40.089199,50.249651 40.509156,50.168434 40.996469,50.168429 C 41.804684,50.168434 42.460372,50.436946 42.963534,50.973965 C 43.470645,51.510993 43.724205,52.217080 43.724211,53.092226 C 43.724205,53.967378 43.470645,54.673465 42.963534,55.210488 C 42.460372,55.747512 41.804684,56.016024 40.996469,56.016024 C 40.509156,56.016024 40.089199,55.936465 39.736597,55.777346 C 39.387949,55.614914 39.098734,55.367949 38.868948,55.036453 M 42.589138,53.092226 C 42.589131,52.419292 42.422734,51.892213 42.089943,51.510989 C 41.761104,51.126458 41.307470,50.934190 40.729043,50.934186 C 40.150607,50.934190 39.694994,51.126458 39.362200,51.510989 C 39.033363,51.892213 38.868946,52.419292 38.868948,53.092226 C 38.868946,53.765166 39.033363,54.293902 39.362200,54.678436 C 39.694994,55.059658 40.150607,55.250268 40.729043,55.250268 C 41.307470,55.250268 41.761104,55.059658 42.089943,54.678436 C 42.422734,54.293902 42.589131,53.765166 42.589138,53.092226 M 48.561646,53.072336 C 47.678147,53.072339 47.066040,53.156871 46.725323,53.325931 C 46.384600,53.494997 46.214241,53.783398 46.214242,54.191137 C 46.214241,54.516005 46.341020,54.774571 46.594581,54.966838 C 46.852100,55.155791 47.200744,55.250268 47.640513,55.250268 C 48.246675,55.250268 48.732002,55.071260 49.096498,54.713244 C 49.464946,54.351914 49.649173,53.872902 49.649177,53.276207 L 49.649177,53.072336 L 48.561646,53.072336 M 50.742652,52.694431 L 50.742652,55.871823 L 49.649177,55.871823 L 49.649177,55.026507 C 49.399575,55.364635 49.088569,55.614914 48.716159,55.777346 C 48.343739,55.936465 47.888126,56.016024 47.349316,56.016024 C 46.667873,56.016024 46.125099,55.856906 45.720991,55.538670 C 45.320841,55.217118 45.120767,54.787831 45.120769,54.250806 C 45.120767,53.624280 45.370364,53.151899 45.869560,52.833660 C 46.372715,52.515426 47.121506,52.356308 48.115937,52.356305 L 49.649177,52.356305 L 49.649177,52.266800 C 49.649173,51.845804 49.482774,51.520938 49.149983,51.292201 C 48.821144,51.060159 48.357606,50.944135 47.759369,50.944130 C 47.379028,50.944135 47.008594,50.982257 46.648067,51.058496 C 46.287535,51.134745 45.940873,51.249112 45.608078,51.401595 L 45.608078,50.556279 C 46.008224,50.427002 46.396486,50.330868 46.772866,50.267878 C 47.149239,50.201584 47.515712,50.168434 47.872282,50.168429 C 48.835011,50.168434 49.554087,50.377277 50.029516,50.794957 C 50.504934,51.212647 50.742645,51.845804 50.742652,52.694431 M 57.244069,50.466775 L 57.244069,51.331981 C 56.935039,51.199388 56.614128,51.099939 56.281336,51.033635 C 55.948536,50.967340 55.603854,50.934190 55.247291,50.934186 C 54.704512,50.934190 54.296441,51.003805 54.023075,51.143028 C 53.753666,51.282261 53.618963,51.491103 53.618965,51.769556 C 53.618963,51.981718 53.716028,52.149123 53.910161,52.271773 C 54.104291,52.391115 54.494533,52.505481 55.080892,52.614872 L 55.455288,52.684485 C 56.231809,52.823717 56.782507,53.020958 57.107385,53.276207 C 57.436214,53.528146 57.600631,53.881190 57.600636,54.335337 C 57.600631,54.852473 57.354996,55.261870 56.863730,55.563531 C 56.376416,55.865193 55.704881,56.016024 54.849123,56.016024 C 54.492553,56.016024 54.120138,55.986189 53.731878,55.926520 C 53.347576,55.870165 52.941484,55.783977 52.513605,55.667953 L 52.513605,54.723188 C 52.917714,54.898882 53.315880,55.031481 53.708106,55.120983 C 54.100329,55.207174 54.488591,55.250268 54.872894,55.250268 C 55.387933,55.250268 55.784119,55.177339 56.061453,55.031480 C 56.338780,54.882308 56.477444,54.673465 56.477448,54.404952 C 56.477444,54.156332 56.376416,53.965721 56.174366,53.833121 C 55.976269,53.700524 55.538484,53.572898 54.861009,53.450242 L 54.480670,53.375655 C 53.803189,53.256319 53.313900,53.073997 53.012800,52.828687 C 52.711697,52.580068 52.561147,52.240284 52.561147,51.809336 C 52.561147,51.285576 52.783010,50.881151 53.226740,50.596059 C 53.670467,50.310978 54.300403,50.168434 55.116549,50.168429 C 55.520655,50.168434 55.900993,50.193297 56.257565,50.243016 C 56.614128,50.292746 56.942962,50.367332 57.244069,50.466775 M 60.429408,48.721447 L 60.429408,50.302685 L 62.681727,50.302685 L 62.681727,51.013745 L 60.429408,51.013745 L 60.429408,54.036991 C 60.429405,54.491142 60.502700,54.782859 60.649291,54.912141 C 60.799839,55.041425 61.102921,55.106067 61.558538,55.106066 L 62.681727,55.106066 L 62.681727,55.871823 L 61.558538,55.871823 C 60.714659,55.871823 60.132266,55.740882 59.811356,55.479000 C 59.490444,55.213803 59.329989,54.733134 59.329990,54.036991 L 59.329990,51.013745 L 58.527713,51.013745 L 58.527713,50.302685 L 59.329990,50.302685 L 59.329990,48.721447 L 60.429408,48.721447 M 69.819026,52.858521 L 69.819026,53.306041 L 64.791416,53.306041 C 64.838956,53.935886 65.064786,54.416556 65.468896,54.748051 C 65.876966,55.076233 66.443516,55.240323 67.168536,55.240322 C 67.588486,55.240323 67.994576,55.197228 68.386806,55.111039 C 68.782986,55.024850 69.175216,54.895567 69.563486,54.723188 L 69.563486,55.588394 C 69.171256,55.727623 68.769126,55.833701 68.357096,55.906630 C 67.945056,55.979560 67.527076,56.016024 67.103166,56.016024 C 66.041386,56.016024 65.199486,55.757457 64.577478,55.240322 C 63.959426,54.723189 63.650401,54.023732 63.650401,53.141951 C 63.650401,52.230340 63.943578,51.507678 64.529935,50.973965 C 65.120256,50.436946 65.914606,50.168434 66.912996,50.168429 C 67.808376,50.168434 68.515566,50.410427 69.034576,50.894406 C 69.557536,51.375080 69.819016,52.029784 69.819026,52.858521 M 68.725546,52.590009 C 68.717616,52.089454 68.549236,51.690001 68.220406,51.391650 C 67.895536,51.093308 67.463686,50.944135 66.924876,50.944130 C 66.314756,50.944135 65.825456,51.088336 65.457016,51.376733 C 65.092516,51.665139 64.882536,52.071221 64.827076,52.594982 L 68.725546,52.590009 M 42.054286,70.833918 L 42.054286,71.699128 C 41.745256,71.566528 41.424346,71.467088 41.091553,71.400778 C 40.758753,71.334488 40.414072,71.301338 40.057508,71.301328 C 39.514730,71.301338 39.106658,71.370948 38.833292,71.510168 C 38.563883,71.649408 38.429180,71.858258 38.429182,72.136698 C 38.429180,72.348868 38.526245,72.516268 38.720378,72.638918 C 38.914508,72.758258 39.304751,72.872618 39.891109,72.982018 L 40.265505,73.051628 C 41.042026,73.190858 41.592725,73.388108 41.917602,73.643348 C 42.246431,73.895298 42.410848,74.248328 42.410854,74.702478 C 42.410848,75.219618 42.165213,75.629008 41.673947,75.930678 C 41.186634,76.232338 40.515099,76.383168 39.659340,76.383168 C 39.302770,76.383168 38.930355,76.353328 38.542094,76.293668 C 38.157793,76.237308 37.751702,76.151118 37.323822,76.035098 L 37.323822,75.090338 C 37.727931,75.266028 38.126098,75.398628 38.518323,75.488128 C 38.910546,75.574318 39.298808,75.617418 39.683111,75.617418 C 40.198150,75.617418 40.594336,75.544488 40.871670,75.398628 C 41.148996,75.249448 41.287661,75.040608 41.287666,74.772098 C 41.287661,74.523468 41.186634,74.332868 40.984584,74.200268 C 40.786486,74.067668 40.348701,73.940038 39.671226,73.817388 L 39.290887,73.742798 C 38.613406,73.623468 38.124117,73.441148 37.823016,73.195828 C 37.521914,72.947218 37.371364,72.607428 37.371365,72.176478 C 37.371364,71.652718 37.593227,71.248298 38.036957,70.963198 C 38.480684,70.678128 39.110619,70.535588 39.926765,70.535578 C 40.330872,70.535588 40.711211,70.560438 41.067783,70.610158 C 41.424346,70.659888 41.753179,70.734478 42.054286,70.833918 M 49.851232,73.225668 L 49.851232,73.673188 L 44.823629,73.673188 C 44.871170,74.303028 45.096995,74.783698 45.501107,75.115198 C 45.909176,75.443378 46.475722,75.607468 47.200746,75.607468 C 47.620699,75.607468 48.026790,75.564378 48.419020,75.478178 C 48.815200,75.391988 49.207424,75.262708 49.595693,75.090338 L 49.595693,75.955538 C 49.203462,76.094768 48.801333,76.200848 48.389305,76.273778 C 47.977266,76.346708 47.559291,76.383168 47.135375,76.383168 C 46.073593,76.383168 45.231699,76.124608 44.609688,75.607468 C 43.991636,75.090338 43.682612,74.390878 43.682612,73.509098 C 43.682612,72.597478 43.975789,71.874818 44.562146,71.341108 C 45.152461,70.804088 45.946814,70.535588 46.945206,70.535578 C 47.840582,70.535588 48.547774,70.777568 49.066784,71.261558 C 49.589743,71.742228 49.851226,72.396928 49.851232,73.225668 M 48.757759,72.957148 C 48.749829,72.456608 48.581450,72.057148 48.252621,71.758798 C 47.927743,71.460458 47.495901,71.311278 46.957091,71.311268 C 46.346961,71.311278 45.857673,71.455478 45.489221,71.743878 C 45.124728,72.032278 44.914750,72.438368 44.859286,72.962118 L 48.757759,72.957148 M 51.645957,68.501848 L 52.739430,68.501848 L 52.739430,76.238968 L 51.645957,76.238968 L 51.645957,68.501848 M 60.714661,73.225668 L 60.714661,73.673188 L 55.687057,73.673188 C 55.734598,74.303028 55.960423,74.783698 56.364536,75.115198 C 56.772604,75.443378 57.339150,75.607468 58.064174,75.607468 C 58.484128,75.607468 58.890219,75.564378 59.282448,75.478178 C 59.678628,75.391988 60.070852,75.262708 60.459121,75.090338 L 60.459121,75.955538 C 60.066890,76.094768 59.664762,76.200848 59.252734,76.273778 C 58.840696,76.346708 58.422719,76.383168 57.998805,76.383168 C 56.937021,76.383168 56.095127,76.124608 55.473116,75.607468 C 54.855065,75.090338 54.546040,74.390878 54.546041,73.509098 C 54.546040,72.597478 54.839218,71.874818 55.425574,71.341108 C 56.015889,70.804088 56.810242,70.535588 57.808635,70.535578 C 58.704011,70.535588 59.411203,70.777568 59.930212,71.261558 C 60.453172,71.742228 60.714654,72.396928 60.714661,73.225668 M 59.621187,72.957148 C 59.613257,72.456608 59.444878,72.057148 59.116049,71.758798 C 58.791171,71.460458 58.359329,71.311278 57.820521,71.311268 C 57.210391,71.311278 56.721101,71.455478 56.352650,71.743878 C 55.988156,72.032278 55.778178,72.438368 55.722714,72.962118 L 59.621187,72.957148 M 67.299276,70.883648 L 67.299276,71.738908 C 66.990246,71.596368 66.679246,71.490288 66.366256,71.420668 C 66.057226,71.347738 65.744246,71.311278 65.427296,71.311268 C 64.718116,71.311278 64.167422,71.500238 63.775200,71.878138 C 63.382974,72.252728 63.186862,72.779808 63.186863,73.459378 C 63.186862,74.138938 63.382974,74.667668 63.775200,75.045578 C 64.167422,75.420178 64.718116,75.607468 65.427296,75.607468 C 65.744246,75.607468 66.057226,75.572658 66.366256,75.503048 C 66.679246,75.430118 66.990246,75.322388 67.299276,75.179838 L 67.299276,76.025148 C 66.994206,76.144498 66.677256,76.233998 66.348426,76.293668 C 66.023556,76.353328 65.676886,76.383168 65.308446,76.383168 C 64.306088,76.383168 63.509753,76.119628 62.919438,75.592548 C 62.329120,75.065468 62.033961,74.354408 62.033962,73.459378 C 62.033961,72.551078 62.331100,71.836698 62.925380,71.316248 C 63.523620,70.795808 64.341744,70.535588 65.379756,70.535578 C 65.716506,70.535588 66.045346,70.565408 66.366256,70.625078 C 66.687166,70.681438 66.998166,70.767618 67.299276,70.883648 M 70.270676,69.088598 L 70.270676,70.669828 L 72.522996,70.669828 L 72.522996,71.380888 L 70.270676,71.380888 L 70.270676,74.404138 C 70.270676,74.858288 70.343966,75.150008 70.490556,75.279288 C 70.641106,75.408568 70.944186,75.473218 71.399806,75.473218 L 72.522996,75.473218 L 72.522996,76.238968 L 71.399806,76.238968 C 70.555926,76.238968 69.973536,76.108028 69.652626,75.846138 C 69.331716,75.580948 69.171256,75.100278 69.171256,74.404138 L 69.171256,71.380888 L 68.368976,71.380888 L 68.368976,70.669828 L 69.171256,70.669828 L 69.171256,69.088598 L 70.270676,69.088598 M 79.660296,73.225668 L 79.660296,73.673188 L 74.632696,73.673188 C 74.680236,74.303028 74.906066,74.783698 75.310176,75.115198 C 75.718246,75.443378 76.284786,75.607468 77.009816,75.607468 C 77.429766,75.607468 77.835856,75.564378 78.228086,75.478178 C 78.624266,75.391988 79.016486,75.262708 79.404756,75.090338 L 79.404756,75.955538 C 79.012526,76.094768 78.610396,76.200848 78.198376,76.273778 C 77.786336,76.346708 77.368356,76.383168 76.944446,76.383168 C 75.882656,76.383168 75.040766,76.124608 74.418756,75.607468 C 73.800706,75.090338 73.491666,74.390878 73.491666,73.509098 C 73.491666,72.597478 73.784856,71.874818 74.371216,71.341108 C 74.961526,70.804088 75.755876,70.535588 76.754276,70.535578 C 77.649646,70.535588 78.356836,70.777568 78.875846,71.261558 C 79.398806,71.742228 79.660296,72.396928 79.660296,73.225668 M 78.566826,72.957148 C 78.558896,72.456608 78.390516,72.057148 78.061686,71.758798 C 77.736806,71.460458 77.304966,71.311278 76.766156,71.311268 C 76.156026,71.311278 75.666736,71.455478 75.298286,71.743878 C 74.933796,72.032278 74.723816,72.438368 74.668356,72.962118 L 78.566826,72.957148 M 85.834866,71.515148 L 85.834866,68.501848 L 86.928346,68.501848 L 86.928346,76.238968 L 85.834866,76.238968 L 85.834866,75.403598 C 85.605066,75.735088 85.313876,75.982058 84.961266,76.144498 C 84.612616,76.303618 84.192666,76.383168 83.701406,76.383168 C 82.897136,76.383168 82.241456,76.114658 81.734336,75.577638 C 81.231176,75.040608 80.979596,74.334528 80.979596,73.459378 C 80.979596,72.584228 81.231176,71.878138 81.734336,71.341108 C 82.241456,70.804088 82.897136,70.535588 83.701406,70.535578 C 84.192666,70.535588 84.612616,70.616798 84.961266,70.779218 C 85.313876,70.938348 85.605066,71.183648 85.834866,71.515148 M 82.108726,73.459378 C 82.108726,74.132308 82.273146,74.661048 82.601986,75.045578 C 82.934776,75.426798 83.390386,75.617418 83.968826,75.617418 C 84.547256,75.617418 85.002866,75.426798 85.335676,75.045578 C 85.668456,74.661048 85.834866,74.132308 85.834866,73.459378 C 85.834866,72.786438 85.668456,72.259358 85.335676,71.878138 C 85.002866,71.493598 84.547256,71.301338 83.968826,71.301328 C 83.390386,71.301338 82.934776,71.493598 82.601986,71.878138 C 82.273146,72.259358 82.108726,72.786438 82.108726,73.459378 M 38.892720,89.455718 L 38.892720,91.036958 L 41.145039,91.036958 L 41.145039,91.748018 L 38.892720,91.748018 L 38.892720,94.771268 C 38.892718,95.225418 38.966012,95.517128 39.112603,95.646418 C 39.263152,95.775698 39.566233,95.840328 40.021851,95.840328 L 41.145039,95.840328 L 41.145039,96.606098 L 40.021851,96.606098 C 39.177971,96.606098 38.595578,96.475148 38.274669,96.213268 C 37.953756,95.948068 37.793302,95.467408 37.793303,94.771268 L 37.793303,91.748018 L 36.991026,91.748018 L 36.991026,91.036958 L 37.793303,91.036958 L 37.793303,89.455718 L 38.892720,89.455718 M 48.282335,93.592798 L 48.282335,94.040308 L 43.254731,94.040308 C 43.302272,94.670158 43.528097,95.150818 43.932209,95.482328 C 44.340278,95.810508 44.906824,95.974598 45.631848,95.974598 C 46.051802,95.974598 46.457892,95.931498 46.850122,95.845308 C 47.246302,95.759118 47.638526,95.629838 48.026795,95.457458 L 48.026795,96.322668 C 47.634564,96.461898 47.232435,96.567978 46.820407,96.640908 C 46.408369,96.713838 45.990393,96.750298 45.566478,96.750298 C 44.504695,96.750298 43.662801,96.491728 43.040790,95.974598 C 42.422738,95.457458 42.113714,94.758008 42.113714,93.876218 C 42.113714,92.964608 42.406892,92.241948 42.993248,91.708238 C 43.583563,91.171218 44.377916,90.902698 45.376308,90.902698 C 46.271684,90.902698 46.978877,91.144698 47.497886,91.628668 C 48.020845,92.109348 48.282328,92.764058 48.282335,93.592798 M 47.188861,93.324278 C 47.180931,92.823718 47.012552,92.424268 46.683723,92.125918 C 46.358845,91.827578 45.927003,91.678408 45.388194,91.678398 C 44.778063,91.678408 44.288775,91.822608 43.920324,92.111008 C 43.555830,92.399408 43.345852,92.805488 43.290388,93.329248 L 47.188861,93.324278 M 55.395860,91.036958 L 52.989028,93.746938 L 55.520659,96.606098 L 54.231072,96.606098 L 52.293722,94.418218 L 50.356370,96.606098 L 49.066784,96.606098 L 51.651900,93.692238 L 49.286667,91.036958 L 50.576254,91.036958 L 52.341263,93.020958 L 54.106273,91.036958 L 55.395860,91.036958 M 58.147374,89.455718 L 58.147374,91.036958 L 60.399693,91.036958 L 60.399693,91.748018 L 58.147374,91.748018 L 58.147374,94.771268 C 58.147372,95.225418 58.220666,95.517128 58.367257,95.646418 C 58.517805,95.775698 58.820888,95.840328 59.276505,95.840328 L 60.399693,95.840328 L 60.399693,96.606098 L 59.276505,96.606098 C 58.432626,96.606098 57.850232,96.475148 57.529323,96.213268 C 57.208411,95.948068 57.047956,95.467408 57.047957,94.771268 L 57.047957,91.748018 L 56.245680,91.748018 L 56.245680,91.036958 L 57.047957,91.036958 L 57.047957,89.455718 L 58.147374,89.455718"
     id="path1429" />
  <path
     style="fill:#000000;fill-opacity:0.40000001;fill-rule:evenodd;stroke:none;stroke-width:2.4340091;stroke-linecap:round"
     d="M 33.292857,52.570494 L 83.949027,52.382314"
     id="path860" />
  <path
     style="fill:#000000;fill-opacity:0.40000001;fill-rule:evenodd;stroke:none;stroke-width:2.4340091;stroke-linecap:round"
     d="M 33.459620,63.259457 L 92.856669,63.155045"
     id="path861" />
  <path
     style="fill:#000000;fill-opacity:0.40000001;fill-rule:evenodd;stroke:none;stroke-width:2.4340091;stroke-linecap:round"
     d="M 33.292857,73.948419 L 66.133753,73.927779"
     id="path862" />
  <path
     style="fill:#000000;fill-opacity:0.40000001;fill-rule:evenodd;stroke:none;stroke-width:2.4340091;stroke-linecap:round"
     d="M 33.459620,84.839060 L 92.856669,84.700518"
     id="path863" />
  <path
     style="fill:#000000;fill-opacity:0.40000001;fill-rule:evenodd;stroke:none;stroke-width:2.4340091;stroke-linecap:round"
     d="M 33.626382,95.729722 L 66.133753,95.473264"
     id="path864" />
  <path
     style="fill:#000000;fill-opacity:0.40000001;fill-rule:evenodd;stroke:none;stroke-width:2.4340091;stroke-linecap:round"
     d="M 34.353822,96.852261 L 93.584111,96.881239"
     id="path865" />
  <rect
     style="fill:#ffffff;fill-rule:evenodd;stroke:#000000;stroke-width:7.1727767"
     id="rect862"
     width="102.03041"
     height="104.20293"
     ry="17.815737"
     x="47.047649"
     y="45.813503"
     rx="17.815737" />
  <path
     style="fill:#000000;fill-opacity:0.40000001;fill-rule:evenodd;stroke:none;stroke-width:2.4340091;stroke-linecap:round"
     d="M 69.368605,87.176761 L 120.02478,86.988581"
     id="path866" />
  <path
     style="fill:#000000;fill-opacity:0.40000001;fill-rule:evenodd;stroke:none;stroke-width:2.4340091;stroke-linecap:round"
     d="M 69.535367,97.865737 L 128.93242,97.761317"
     id="path867" />
  <path
     style="fill:#000000;fill-opacity:0.40000001;fill-rule:evenodd;stroke:none;stroke-width:2.4340091;stroke-linecap:round"
     d="M 69.368605,108.55469 L 102.20950,108.53406"
     id="path868" />
  <path
     style="fill:#000000;fill-opacity:0.40000001;fill-rule:evenodd;stroke:none;stroke-width:2.4340091;stroke-linecap:round"
     d="M 69.535367,119.44533 L 128.93242,119.30679"
     id="path869" />
  <path
     style="fill:#000000;fill-opacity:0.40000001;fill-rule:evenodd;stroke:none;stroke-width:2.4340091;stroke-linecap:round"
     d="M 69.702129,130.33599 L 102.20950,130.07952"
     id="path870" />
  <path
     style="fill:#000000;fill-opacity:0.40000001;fill-rule:evenodd;stroke:none;stroke-width:2.4340091;stroke-linecap:round"
     d="M 70.429569,131.45852 L 129.65987,131.48750"
     id="path871" />
  <path
     style="fill:#000000;fill-opacity:0.40000001;fill-rule:evenodd;stroke:none;stroke-width:2.4340091;stroke-linecap:round"
     d="M 72.241618,86.938318 L 126.93450,86.769973"
     id="path1381" />
  <path
     style="fill:#000000;fill-opacity:0.40000001;fill-rule:evenodd;stroke:none;stroke-width:2.4340091;stroke-linecap:round"
     d="M 72.601719,125.54851 L 107.69955,125.31908"
     id="path1385" />
  <path
     style="fill:#000000;fill-opacity:0.40000001;fill-rule:evenodd;stroke:none;stroke-width:2.4340091;stroke-linecap:round"
     d="M 75.072916,88.698541 L 124.97895,88.518621"
     id="path895" />
  <path
     style="fill:#000000;fill-opacity:0.40000001;fill-rule:evenodd;stroke:none;stroke-width:2.4340091;stroke-linecap:round"
     d="M 75.401504,129.96360 L 107.42749,129.71839"
     id="path899" />
  <path
     style="font-size:10.976674;font-style:normal;font-weight:normal;fill:#000000;fill-opacity:1.0000000;stroke:none;stroke-width:1.0000000pt;stroke-linecap:butt;stroke-linejoin:miter;stroke-opacity:1.0000000;font-family:Bitstream Vera Sans"
     d="M 77.925917,65.499580 L 77.925917,66.354840 C 77.616887,66.212301 77.305881,66.106223 76.992899,66.036604 C 76.683869,65.963680 76.370881,65.927215 76.053937,65.927210 C 75.344760,65.927215 74.794062,66.116168 74.401841,66.494069 C 74.009613,66.868664 73.813501,67.395743 73.813504,68.075306 C 73.813501,68.754876 74.009613,69.283612 74.401841,69.661517 C 74.794062,70.036108 75.344760,70.223403 76.053937,70.223402 C 76.370881,70.223403 76.683869,70.188596 76.992899,70.118981 C 77.305881,70.046053 77.616887,69.938316 77.925917,69.795773 L 77.925917,70.641088 C 77.620849,70.760426 77.303900,70.849931 76.975071,70.909600 C 76.650193,70.969269 76.303530,70.999104 75.935081,70.999104 C 74.932727,70.999104 74.136394,70.735565 73.546078,70.208485 C 72.955759,69.681408 72.660601,68.970349 72.660601,68.075306 C 72.660601,67.167010 72.957741,66.452637 73.552021,65.932182 C 74.150260,65.411739 74.968383,65.151514 76.006395,65.151509 C 76.343148,65.151514 76.671983,65.181349 76.992899,65.241013 C 77.313804,65.297373 77.624810,65.383561 77.925917,65.499580 M 82.394899,65.927210 C 81.808540,65.927215 81.345002,66.119483 81.004285,66.504013 C 80.663562,66.885238 80.493203,67.409002 80.493204,68.075306 C 80.493203,68.741616 80.661582,69.267037 80.998342,69.651571 C 81.339060,70.032793 81.804579,70.223403 82.394899,70.223402 C 82.977289,70.223403 83.438845,70.031135 83.779570,69.646598 C 84.120285,69.262064 84.290644,68.738301 84.290650,68.075306 C 84.290644,67.415633 84.120285,66.893526 83.779570,66.508986 C 83.438845,66.121140 82.977289,65.927215 82.394899,65.927210 M 82.394899,65.151509 C 83.345741,65.151514 84.092552,65.410081 84.635332,65.927210 C 85.178101,66.444349 85.449489,67.160380 85.449496,68.075306 C 85.449489,68.986923 85.178101,69.702954 84.635332,70.223402 C 84.092552,70.740537 83.345741,70.999104 82.394899,70.999104 C 81.440087,70.999104 80.691295,70.740537 80.148523,70.223402 C 79.609708,69.702954 79.340302,68.986923 79.340303,68.075306 C 79.340302,67.160380 79.609708,66.444349 80.148523,65.927210 C 80.691295,65.410081 81.440087,65.151514 82.394899,65.151509 M 88.313922,70.019532 L 88.313922,72.973165 L 87.214506,72.973165 L 87.214506,65.285765 L 88.313922,65.285765 L 88.313922,66.131081 C 88.543708,65.799589 88.832923,65.554282 89.181570,65.395158 C 89.534173,65.232731 89.954130,65.151514 90.441443,65.151509 C 91.249657,65.151514 91.905346,65.420026 92.408508,65.957045 C 92.915619,66.494074 93.169178,67.200160 93.169185,68.075306 C 93.169178,68.950459 92.915619,69.656545 92.408508,70.193568 C 91.905346,70.730592 91.249657,70.999104 90.441443,70.999104 C 89.954130,70.999104 89.534173,70.919545 89.181570,70.760426 C 88.832923,70.597994 88.543708,70.351029 88.313922,70.019532 M 92.034112,68.075306 C 92.034105,67.402372 91.867708,66.875294 91.534917,66.494069 C 91.206077,66.109538 90.752444,65.917271 90.174017,65.917265 C 89.595581,65.917271 89.139968,66.109538 88.807174,66.494069 C 88.478337,66.875294 88.313920,67.402372 88.313922,68.075306 C 88.313920,68.748246 88.478337,69.276982 88.807174,69.661517 C 89.139968,70.042738 89.595581,70.233348 90.174017,70.233348 C 90.752444,70.233348 91.206077,70.042738 91.534917,69.661517 C 91.867708,69.276982 92.034105,68.748246 92.034112,68.075306 M 97.751080,71.372037 C 97.442051,72.035029 97.140950,72.467631 96.847775,72.669846 C 96.554595,72.872056 96.162371,72.973162 95.671102,72.973165 L 94.797511,72.973165 L 94.797511,72.207408 L 95.439333,72.207408 C 95.740433,72.207407 95.974183,72.147737 96.140582,72.028400 C 96.306979,71.909060 96.491205,71.627288 96.693263,71.183084 L 96.889375,70.765399 L 94.197289,65.285765 L 95.356133,65.285765 L 97.436112,69.641627 L 99.516090,65.285765 L 100.67493,65.285765 L 97.751080,71.372037 M 108.63828,65.927210 C 108.05192,65.927215 107.58838,66.119483 107.24767,66.504013 C 106.90694,66.885238 106.73658,67.409002 106.73659,68.075306 C 106.73658,68.741616 106.90496,69.267037 107.24172,69.651571 C 107.58244,70.032793 108.04796,70.223403 108.63828,70.223402 C 109.22068,70.223403 109.68223,70.031135 110.02296,69.646598 C 110.36367,69.262064 110.53403,68.738301 110.53404,68.075306 C 110.53403,67.415633 110.36367,66.893526 110.02296,66.508986 C 109.68223,66.121140 109.22068,65.927215 108.63828,65.927210 M 108.63828,65.151509 C 109.58913,65.151514 110.33594,65.410081 110.87872,65.927210 C 111.42149,66.444349 111.69288,67.160380 111.69289,68.075306 C 111.69288,68.986923 111.42149,69.702954 110.87872,70.223402 C 110.33594,70.740537 109.58913,70.999104 108.63828,70.999104 C 107.68347,70.999104 106.93468,70.740537 106.39190,70.223402 C 105.85309,69.702954 105.58368,68.986923 105.58368,68.075306 C 105.58368,67.160380 105.85309,66.444349 106.39190,65.927210 C 106.93468,65.410081 107.68347,65.151514 108.63828,65.151509 M 117.35637,66.141025 C 117.23355,66.081361 117.09884,66.038266 116.95226,66.011742 C 116.80963,65.981912 116.65115,65.966995 116.47683,65.966989 C 115.85878,65.966995 115.38336,66.136057 115.05056,66.474179 C 114.72173,66.808994 114.55731,67.291321 114.55731,67.921160 L 114.55731,70.854903 L 113.45789,70.854903 L 113.45789,65.285765 L 114.55731,65.285765 L 114.55731,66.150970 C 114.78710,65.812849 115.08622,65.562570 115.45467,65.400131 C 115.82312,65.234388 116.27081,65.151514 116.79775,65.151509 C 116.87302,65.151514 116.95622,65.156487 117.04734,65.166426 C 117.13846,65.173061 117.23949,65.184664 117.35043,65.201233 L 117.35637,66.141025 M 74.193842,90.386665 L 74.193842,93.340297 L 73.094426,93.340297 L 73.094426,85.652897 L 74.193842,85.652897 L 74.193842,86.498213 C 74.423628,86.166721 74.712843,85.921414 75.061491,85.762291 C 75.414093,85.599863 75.834050,85.518646 76.321363,85.518641 C 77.129578,85.518646 77.785266,85.787158 78.288428,86.324177 C 78.795539,86.861205 79.049099,87.567292 79.049105,88.442438 C 79.049099,89.317590 78.795539,90.023677 78.288428,90.560700 C 77.785266,91.097724 77.129578,91.366236 76.321363,91.366236 C 75.834050,91.366236 75.414093,91.286677 75.061491,91.127558 C 74.712843,90.965126 74.423628,90.718161 74.193842,90.386665 M 77.914032,88.442438 C 77.914025,87.769504 77.747628,87.242425 77.414837,86.861201 C 77.085998,86.476670 76.632364,86.284402 76.053937,86.284398 C 75.475501,86.284402 75.019888,86.476670 74.687094,86.861201 C 74.358257,87.242425 74.193840,87.769504 74.193842,88.442438 C 74.193840,89.115378 74.358257,89.644114 74.687094,90.028648 C 75.019888,90.409870 75.475501,90.600480 76.053937,90.600480 C 76.632364,90.600480 77.085998,90.409870 77.414837,90.028648 C 77.747628,89.644114 77.914025,89.115378 77.914032,88.442438 M 83.886540,88.422548 C 83.003041,88.422551 82.390934,88.507083 82.050217,88.676143 C 81.709494,88.845209 81.539135,89.133610 81.539136,89.541349 C 81.539135,89.866217 81.665914,90.124783 81.919475,90.317050 C 82.176994,90.506003 82.525638,90.600480 82.965407,90.600480 C 83.571569,90.600480 84.056896,90.421472 84.421392,90.063456 C 84.789840,89.702126 84.974067,89.223114 84.974071,88.626419 L 84.974071,88.422548 L 83.886540,88.422548 M 86.067546,88.044643 L 86.067546,91.222035 L 84.974071,91.222035 L 84.974071,90.376719 C 84.724469,90.714847 84.413463,90.965126 84.041053,91.127558 C 83.668633,91.286677 83.213020,91.366236 82.674210,91.366236 C 81.992767,91.366236 81.449993,91.207118 81.045885,90.888882 C 80.645735,90.567330 80.445661,90.138043 80.445663,89.601018 C 80.445661,88.974492 80.695258,88.502111 81.194454,88.183872 C 81.697609,87.865638 82.446400,87.706520 83.440831,87.706517 L 84.974071,87.706517 L 84.974071,87.617012 C 84.974067,87.196016 84.807668,86.871150 84.474877,86.642413 C 84.146038,86.410371 83.682500,86.294347 83.084263,86.294342 C 82.703922,86.294347 82.333488,86.332469 81.972961,86.408708 C 81.612429,86.484957 81.265767,86.599324 80.932972,86.751807 L 80.932972,85.906491 C 81.333118,85.777214 81.721380,85.681080 82.097760,85.618090 C 82.474133,85.551796 82.840606,85.518646 83.197176,85.518641 C 84.159905,85.518646 84.878981,85.727489 85.354410,86.145169 C 85.829828,86.562859 86.067539,87.196016 86.067546,88.044643 M 92.568963,85.816987 L 92.568963,86.682193 C 92.259933,86.549600 91.939022,86.450151 91.606230,86.383847 C 91.273430,86.317552 90.928748,86.284402 90.572185,86.284398 C 90.029406,86.284402 89.621335,86.354017 89.347969,86.493240 C 89.078560,86.632473 88.943857,86.841315 88.943859,87.119768 C 88.943857,87.331930 89.040922,87.499335 89.235055,87.621985 C 89.429185,87.741327 89.819427,87.855693 90.405786,87.965084 L 90.780182,88.034697 C 91.556703,88.173929 92.107401,88.371170 92.432279,88.626419 C 92.761108,88.878358 92.925525,89.231402 92.925530,89.685549 C 92.925525,90.202685 92.679890,90.612082 92.188624,90.913743 C 91.701310,91.215405 91.029775,91.366236 90.174017,91.366236 C 89.817447,91.366236 89.445032,91.336401 89.056772,91.276732 C 88.672470,91.220377 88.266378,91.134189 87.838499,91.018165 L 87.838499,90.073400 C 88.242608,90.249094 88.640774,90.381693 89.033000,90.471195 C 89.425223,90.557386 89.813485,90.600480 90.197788,90.600480 C 90.712827,90.600480 91.109013,90.527551 91.386347,90.381692 C 91.663674,90.232520 91.802338,90.023677 91.802342,89.755164 C 91.802338,89.506544 91.701310,89.315933 91.499260,89.183333 C 91.301163,89.050736 90.863378,88.923110 90.185903,88.800454 L 89.805564,88.725867 C 89.128083,88.606531 88.638794,88.424209 88.337694,88.178899 C 88.036591,87.930280 87.886041,87.590496 87.886041,87.159548 C 87.886041,86.635788 88.107904,86.231363 88.551634,85.946271 C 88.995361,85.661190 89.625297,85.518646 90.441443,85.518641 C 90.845549,85.518646 91.225887,85.543509 91.582459,85.593228 C 91.939022,85.642958 92.267856,85.717544 92.568963,85.816987 M 95.754302,84.071659 L 95.754302,85.652897 L 98.006621,85.652897 L 98.006621,86.363957 L 95.754302,86.363957 L 95.754302,89.387203 C 95.754299,89.841354 95.827594,90.133071 95.974185,90.262353 C 96.124733,90.391637 96.427815,90.456279 96.883432,90.456278 L 98.006621,90.456278 L 98.006621,91.222035 L 96.883432,91.222035 C 96.039553,91.222035 95.457160,91.091094 95.136250,90.829212 C 94.815338,90.564015 94.654883,90.083346 94.654884,89.387203 L 94.654884,86.363957 L 93.852607,86.363957 L 93.852607,85.652897 L 94.654884,85.652897 L 94.654884,84.071659 L 95.754302,84.071659 M 105.14392,88.208733 L 105.14392,88.656253 L 100.11631,88.656253 C 100.16385,89.286098 100.38968,89.766768 100.79379,90.098263 C 101.20186,90.426445 101.76841,90.590535 102.49343,90.590534 C 102.91338,90.590535 103.31947,90.547440 103.71170,90.461251 C 104.10788,90.375062 104.50011,90.245779 104.88838,90.073400 L 104.88838,90.938606 C 104.49615,91.077835 104.09402,91.183913 103.68199,91.256842 C 103.26995,91.329772 102.85197,91.366236 102.42806,91.366236 C 101.36628,91.366236 100.52438,91.107669 99.902372,90.590534 C 99.284320,90.073401 98.975295,89.373944 98.975295,88.492163 C 98.975295,87.580552 99.268472,86.857890 99.854829,86.324177 C 100.44515,85.787158 101.23950,85.518646 102.23789,85.518641 C 103.13327,85.518646 103.84046,85.760639 104.35947,86.244618 C 104.88243,86.725292 105.14391,87.379996 105.14392,88.208733 M 104.05044,87.940221 C 104.04251,87.439666 103.87413,87.040213 103.54530,86.741862 C 103.22043,86.443520 102.78858,86.294347 102.24977,86.294342 C 101.63965,86.294347 101.15035,86.438548 100.78191,86.726945 C 100.41741,87.015351 100.20743,87.421433 100.15197,87.945194 L 104.05044,87.940221 M 77.379180,106.18413 L 77.379180,107.04934 C 77.070150,106.91674 76.749240,106.81730 76.416447,106.75099 C 76.083647,106.68470 75.738966,106.65155 75.382402,106.65154 C 74.839624,106.65155 74.431552,106.72116 74.158186,106.86038 C 73.888777,106.99962 73.754074,107.20847 73.754076,107.48691 C 73.754074,107.69908 73.851139,107.86648 74.045272,107.98913 C 74.239402,108.10847 74.629645,108.22283 75.216003,108.33223 L 75.590399,108.40184 C 76.366920,108.54107 76.917619,108.73832 77.242496,108.99356 C 77.571325,109.24551 77.735742,109.59854 77.735748,110.05269 C 77.735742,110.56983 77.490107,110.97922 76.998841,111.28089 C 76.511528,111.58255 75.839993,111.73338 74.984234,111.73338 C 74.627664,111.73338 74.255249,111.70354 73.866988,111.64388 C 73.482687,111.58752 73.076596,111.50133 72.648716,111.38531 L 72.648716,110.44055 C 73.052825,110.61624 73.450992,110.74884 73.843217,110.83834 C 74.235440,110.92453 74.623702,110.96763 75.008005,110.96763 C 75.523044,110.96763 75.919230,110.89470 76.196564,110.74884 C 76.473890,110.59966 76.612555,110.39082 76.612560,110.12231 C 76.612555,109.87368 76.511528,109.68308 76.309478,109.55048 C 76.111380,109.41788 75.673595,109.29025 74.996120,109.16760 L 74.615781,109.09301 C 73.938300,108.97368 73.449011,108.79136 73.147910,108.54604 C 72.846808,108.29743 72.696258,107.95764 72.696259,107.52669 C 72.696258,107.00293 72.918121,106.59851 73.361851,106.31341 C 73.805578,106.02834 74.435513,105.88580 75.251659,105.88579 C 75.655766,105.88580 76.036105,105.91065 76.392677,105.96037 C 76.749240,106.01010 77.078073,106.08469 77.379180,106.18413 M 85.176126,108.57588 L 85.176126,109.02340 L 80.148523,109.02340 C 80.196064,109.65324 80.421889,110.13391 80.826001,110.46541 C 81.234070,110.79359 81.800616,110.95768 82.525640,110.95768 C 82.945593,110.95768 83.351684,110.91459 83.743914,110.82839 C 84.140094,110.74220 84.532318,110.61292 84.920587,110.44055 L 84.920587,111.30575 C 84.528356,111.44498 84.126227,111.55106 83.714199,111.62399 C 83.302160,111.69692 82.884185,111.73338 82.460269,111.73338 C 81.398487,111.73338 80.556593,111.47482 79.934582,110.95768 C 79.316530,110.44055 79.007506,109.74109 79.007506,108.85931 C 79.007506,107.94769 79.300683,107.22503 79.887040,106.69132 C 80.477355,106.15430 81.271708,105.88580 82.270100,105.88579 C 83.165476,105.88580 83.872668,106.12778 84.391678,106.61177 C 84.914637,107.09244 85.176120,107.74714 85.176126,108.57588 M 84.082653,108.30736 C 84.074723,107.80682 83.906344,107.40736 83.577515,107.10901 C 83.252637,106.81067 82.820795,106.66149 82.281985,106.66148 C 81.671855,106.66149 81.182567,106.80569 80.814115,107.09409 C 80.449622,107.38249 80.239644,107.78858 80.184180,108.31233 L 84.082653,108.30736 M 86.970851,103.85206 L 88.064324,103.85206 L 88.064324,111.58918 L 86.970851,111.58918 L 86.970851,103.85206 M 96.039555,108.57588 L 96.039555,109.02340 L 91.011951,109.02340 C 91.059492,109.65324 91.285317,110.13391 91.689430,110.46541 C 92.097498,110.79359 92.664044,110.95768 93.389068,110.95768 C 93.809022,110.95768 94.215113,110.91459 94.607342,110.82839 C 95.003522,110.74220 95.395746,110.61292 95.784015,110.44055 L 95.784015,111.30575 C 95.391784,111.44498 94.989656,111.55106 94.577628,111.62399 C 94.165590,111.69692 93.747613,111.73338 93.323699,111.73338 C 92.261915,111.73338 91.420021,111.47482 90.798010,110.95768 C 90.179959,110.44055 89.870934,109.74109 89.870935,108.85931 C 89.870934,107.94769 90.164112,107.22503 90.750468,106.69132 C 91.340783,106.15430 92.135136,105.88580 93.133529,105.88579 C 94.028905,105.88580 94.736097,106.12778 95.255106,106.61177 C 95.778066,107.09244 96.039548,107.74714 96.039555,108.57588 M 94.946081,108.30736 C 94.938151,107.80682 94.769772,107.40736 94.440943,107.10901 C 94.116065,106.81067 93.684223,106.66149 93.145415,106.66148 C 92.535285,106.66149 92.045995,106.80569 91.677544,107.09409 C 91.313050,107.38249 91.103072,107.78858 91.047608,108.31233 L 94.946081,108.30736 M 102.62417,106.23386 L 102.62417,107.08912 C 102.31514,106.94658 102.00414,106.84050 101.69115,106.77088 C 101.38212,106.69795 101.06914,106.66149 100.75219,106.66148 C 100.04301,106.66149 99.492316,106.85045 99.100094,107.22835 C 98.707868,107.60294 98.511756,108.13002 98.511757,108.80959 C 98.511756,109.48915 98.707868,110.01788 99.100094,110.39579 C 99.492316,110.77039 100.04301,110.95768 100.75219,110.95768 C 101.06914,110.95768 101.38212,110.92287 101.69115,110.85326 C 102.00414,110.78033 102.31514,110.67260 102.62417,110.53005 L 102.62417,111.37536 C 102.31910,111.49471 102.00215,111.58421 101.67332,111.64388 C 101.34845,111.70354 101.00178,111.73338 100.63334,111.73338 C 99.630982,111.73338 98.834647,111.46984 98.244332,110.94276 C 97.654014,110.41568 97.358855,109.70462 97.358856,108.80959 C 97.358855,107.90129 97.655994,107.18691 98.250274,106.66646 C 98.848514,106.14602 99.666638,105.88580 100.70465,105.88579 C 101.04140,105.88580 101.37024,105.91562 101.69115,105.97529 C 102.01206,106.03165 102.32306,106.11783 102.62417,106.23386 M 105.59557,104.43881 L 105.59557,106.02004 L 107.84789,106.02004 L 107.84789,106.73110 L 105.59557,106.73110 L 105.59557,109.75435 C 105.59557,110.20850 105.66886,110.50022 105.81545,110.62950 C 105.96600,110.75878 106.26908,110.82343 106.72470,110.82343 L 107.84789,110.82343 L 107.84789,111.58918 L 106.72470,111.58918 C 105.88082,111.58918 105.29843,111.45824 104.97752,111.19635 C 104.65661,110.93116 104.49615,110.45049 104.49615,109.75435 L 104.49615,106.73110 L 103.69387,106.73110 L 103.69387,106.02004 L 104.49615,106.02004 L 104.49615,104.43881 L 105.59557,104.43881 M 114.98519,108.57588 L 114.98519,109.02340 L 109.95759,109.02340 C 110.00513,109.65324 110.23096,110.13391 110.63507,110.46541 C 111.04314,110.79359 111.60968,110.95768 112.33471,110.95768 C 112.75466,110.95768 113.16075,110.91459 113.55298,110.82839 C 113.94916,110.74220 114.34138,110.61292 114.72965,110.44055 L 114.72965,111.30575 C 114.33742,111.44498 113.93529,111.55106 113.52327,111.62399 C 113.11123,111.69692 112.69325,111.73338 112.26934,111.73338 C 111.20755,111.73338 110.36566,111.47482 109.74365,110.95768 C 109.12560,110.44055 108.81656,109.74109 108.81656,108.85931 C 108.81656,107.94769 109.10975,107.22503 109.69611,106.69132 C 110.28642,106.15430 111.08077,105.88580 112.07917,105.88579 C 112.97454,105.88580 113.68173,106.12778 114.20074,106.61177 C 114.72370,107.09244 114.98519,107.74714 114.98519,108.57588 M 113.89172,108.30736 C 113.88379,107.80682 113.71541,107.40736 113.38658,107.10901 C 113.06170,106.81067 112.62986,106.66149 112.09105,106.66148 C 111.48092,106.66149 110.99163,106.80569 110.62318,107.09409 C 110.25869,107.38249 110.04871,107.78858 109.99325,108.31233 L 113.89172,108.30736 M 121.15976,106.86536 L 121.15976,103.85206 L 122.25324,103.85206 L 122.25324,111.58918 L 121.15976,111.58918 L 121.15976,110.75381 C 120.92996,111.08530 120.63877,111.33227 120.28616,111.49471 C 119.93751,111.65383 119.51756,111.73338 119.02630,111.73338 C 118.22203,111.73338 117.56635,111.46487 117.05923,110.92785 C 116.55607,110.39082 116.30449,109.68474 116.30449,108.80959 C 116.30449,107.93444 116.55607,107.22835 117.05923,106.69132 C 117.56635,106.15430 118.22203,105.88580 119.02630,105.88579 C 119.51756,105.88580 119.93751,105.96701 120.28616,106.12943 C 120.63877,106.28856 120.92996,106.53386 121.15976,106.86536 M 117.43362,108.80959 C 117.43362,109.48252 117.59804,110.01126 117.92688,110.39579 C 118.25967,110.77701 118.71528,110.96763 119.29372,110.96763 C 119.87215,110.96763 120.32776,110.77701 120.66057,110.39579 C 120.99335,110.01126 121.15976,109.48252 121.15976,108.80959 C 121.15976,108.13665 120.99335,107.60957 120.66057,107.22835 C 120.32776,106.84381 119.87215,106.65155 119.29372,106.65154 C 118.71528,106.65155 118.25967,106.84381 117.92688,107.22835 C 117.59804,107.60957 117.43362,108.13665 117.43362,108.80959 M 74.217614,124.80593 L 74.217614,126.38717 L 76.469933,126.38717 L 76.469933,127.09823 L 74.217614,127.09823 L 74.217614,130.12148 C 74.217612,130.57563 74.290906,130.86734 74.437497,130.99663 C 74.588046,131.12591 74.891127,131.19054 75.346745,131.19054 L 76.469933,131.19054 L 76.469933,131.95631 L 75.346745,131.95631 C 74.502865,131.95631 73.920472,131.82536 73.599563,131.56348 C 73.278650,131.29828 73.118196,130.81762 73.118197,130.12148 L 73.118197,127.09823 L 72.315920,127.09823 L 72.315920,126.38717 L 73.118197,126.38717 L 73.118197,124.80593 L 74.217614,124.80593 M 83.607229,128.94301 L 83.607229,129.39052 L 78.579625,129.39052 C 78.627166,130.02037 78.852991,130.50103 79.257103,130.83254 C 79.665172,131.16072 80.231718,131.32481 80.956742,131.32481 C 81.376696,131.32481 81.782786,131.28171 82.175016,131.19552 C 82.571196,131.10933 82.963420,130.98005 83.351689,130.80767 L 83.351689,131.67288 C 82.959458,131.81211 82.557329,131.91819 82.145301,131.99112 C 81.733263,132.06405 81.315287,132.10051 80.891372,132.10051 C 79.829589,132.10051 78.987695,131.84194 78.365684,131.32481 C 77.747632,130.80767 77.438608,130.10822 77.438608,129.22643 C 77.438608,128.31482 77.731786,127.59216 78.318142,127.05845 C 78.908457,126.52143 79.702810,126.25291 80.701202,126.25291 C 81.596578,126.25291 82.303771,126.49491 82.822780,126.97888 C 83.345739,127.45956 83.607222,128.11427 83.607229,128.94301 M 82.513755,128.67449 C 82.505825,128.17393 82.337446,127.77448 82.008617,127.47613 C 81.683739,127.17779 81.251897,127.02862 80.713088,127.02861 C 80.102957,127.02862 79.613669,127.17282 79.245218,127.46122 C 78.880724,127.74962 78.670746,128.15570 78.615282,128.67946 L 82.513755,128.67449 M 90.720754,126.38717 L 88.313922,129.09715 L 90.845553,131.95631 L 89.555966,131.95631 L 87.618616,129.76843 L 85.681264,131.95631 L 84.391678,131.95631 L 86.976794,129.04245 L 84.611561,126.38717 L 85.901148,126.38717 L 87.666157,128.37117 L 89.431167,126.38717 L 90.720754,126.38717 M 93.472268,124.80593 L 93.472268,126.38717 L 95.724587,126.38717 L 95.724587,127.09823 L 93.472268,127.09823 L 93.472268,130.12148 C 93.472266,130.57563 93.545560,130.86734 93.692151,130.99663 C 93.842699,131.12591 94.145782,131.19054 94.601399,131.19054 L 95.724587,131.19054 L 95.724587,131.95631 L 94.601399,131.95631 C 93.757520,131.95631 93.175126,131.82536 92.854217,131.56348 C 92.533305,131.29828 92.372850,130.81762 92.372851,130.12148 L 92.372851,127.09823 L 91.570574,127.09823 L 91.570574,126.38717 L 92.372851,126.38717 L 92.372851,124.80593 L 93.472268,124.80593"
     id="text3615" />
</svg>
