<?xml version="1.0" encoding="UTF-8" standalone="no"?>
<!-- Created with Inkscape (http://www.inkscape.org/) -->

<svg
   sodipodi:docname="emblem-show-hidden.svg"
   height="182.40677pt"
   width="195.11864pt"
   inkscape:version="1.4.2 (ebf0e940d0, 2025-05-08)"
   sodipodi:version="0.32"
   id="svg1"
   version="1.1"
   xmlns:inkscape="http://www.inkscape.org/namespaces/inkscape"
   xmlns:sodipodi="http://sodipodi.sourceforge.net/DTD/sodipodi-0.dtd"
   xmlns:xlink="http://www.w3.org/1999/xlink"
   xmlns="http://www.w3.org/2000/svg"
   xmlns:svg="http://www.w3.org/2000/svg"
   xmlns:rdf="http://www.w3.org/1999/02/22-rdf-syntax-ns#"
   xmlns:cc="http://creativecommons.org/ns#"
   xmlns:dc="http://purl.org/dc/elements/1.1/">
  <metadata
     id="metadata18">
    <rdf:RDF>
      <cc:Work
         rdf:about="">
        <dc:format>image/svg+xml</dc:format>
        <dc:type
           rdf:resource="http://purl.org/dc/dcmitype/StillImage" />
      </cc:Work>
    </rdf:RDF>
  </metadata>
  <defs
     id="defs3">
    <linearGradient
       id="linearGradient826">
      <stop
         id="stop827"
         offset="0.0000000"
         style="stop-color:#ffc300;stop-opacity:1.0000000;" />
      <stop
         id="stop828"
         offset="1.0000000"
         style="stop-color:#ffdf00;stop-opacity:1.0000000;" />
    </linearGradient>
    <linearGradient
       y2="0.171875"
       x2="0.328125"
       y1="0.8828125"
       x1="0.921875"
       id="linearGradient829"
       xlink:href="#linearGradient826" />
  </defs>
  <sodipodi:namedview
     inkscape:current-layer="svg1"
     horizgrid="false"
     inkscape:window-y="55"
     inkscape:window-x="2267"
     gridspacingy="1.0000000mm"
     gridspacingx="1.0000000mm"
     snaptogrid="true"
     showgrid="true"
     inkscape:window-height="897"
     inkscape:window-width="1338"
     inkscape:cy="94.576271"
     inkscape:cx="124.91525"
     inkscape:zoom="2.95"
     inkscape:pageshadow="2"
     inkscape:pageopacity="0.0"
     borderopacity="1.0"
     bordercolor="#666666"
     pagecolor="#ffffff"
     id="base"
     inkscape:showpageshadow="2"
     inkscape:pagecheckerboard="0"
     inkscape:deskcolor="#d1d1d1"
     inkscape:document-units="pt"
     inkscape:window-maximized="0" />
  <ellipse
     id="path834"
     style="fill:#000000;fill-opacity:1;fill-rule:evenodd;stroke:none;stroke-width:3.9621"
     cx="76.041809"
     cy="169.83829"
     rx="24.209391"
     ry="25.261316" />
  <path
     sodipodi:nodetypes="cccc"
     id="path835"
     d="m 145.24925,103.71199 c 0,0 -13.40613,-53.634001 -3.40746,-53.634001 3.33289,0 3.33289,0 6.66578,0 9.99865,0 -3.33289,53.326171 -3.25832,53.634001 z"
     style="fill-rule:evenodd;stroke:#000000;stroke-width:0.971462pt" />
  <path
     sodipodi:nodetypes="cccc"
     id="path836"
     d="m 145.24925,104.35891 c 0,0 -13.40613,53.63401 -3.40746,53.63401 3.33289,0 3.33289,0 6.66578,0 9.99865,0 -3.33289,-53.32617 -3.25832,-53.63401 z"
     style="fill-rule:evenodd;stroke:#000000;stroke-width:0.971462pt" />
  <path
     sodipodi:nodetypes="cccc"
     id="path837"
     d="m 144.20395,104.58901 c 0,0 -50.281888,-14.299861 -50.281888,-3.63462 0,3.55508 0,3.55508 0,7.11017 0,10.66522 49.993298,-3.55509 50.281888,-3.47555 z"
     style="fill-rule:evenodd;stroke:#000000;stroke-width:0.971462pt" />
  <path
     sodipodi:nodetypes="cccc"
     id="path838"
     d="m 146.21892,104.58901 c 0,0 50.28189,-14.299861 50.28189,-3.63462 0,3.55508 0,3.55508 0,7.11017 0,10.66522 -49.99331,-3.55509 -50.28189,-3.47555 z"
     style="fill-rule:evenodd;stroke:#000000;stroke-width:0.971462pt" />
  <path
     sodipodi:nodetypes="cccc"
     id="path839"
     d="m 146.64943,103.34687 c 0,0 24.50996,-48.965168 31.81918,-41.687689 2.43642,2.425831 2.43642,2.425831 4.87283,4.851661 7.30922,7.277471 -36.54961,36.556728 -36.69201,36.836028 z"
     style="fill-rule:evenodd;stroke:#000000;stroke-width:0.971462pt" />
  <path
     sodipodi:nodetypes="cccc"
     id="path840"
     d="m 146.70792,105.6548 c 0,0 45.90484,26.14397 39.08221,33.94048 -2.27423,2.59884 -2.27423,2.59884 -4.54843,5.19768 -6.82264,7.7965 -34.27193,-38.98625 -34.53378,-39.13816 z"
     style="fill-rule:evenodd;stroke:#000000;stroke-width:0.971462pt" />
  <path
     sodipodi:nodetypes="cccc"
     id="path841"
     d="m 144.14802,105.71719 c 0,0 -24.50996,48.96517 -31.81918,41.6877 -2.43641,-2.42585 -2.43641,-2.42585 -4.87282,-4.85167 -7.30923,-7.27747 36.54959,-36.55673 36.692,-36.83603 z"
     style="fill-rule:evenodd;stroke:#000000;stroke-width:0.971462pt" />
  <path
     sodipodi:nodetypes="cccc"
     id="path842"
     d="m 144.48573,104.25446 c 0,0 -45.904843,-26.143967 -39.08221,-33.940462 2.27422,-2.598841 2.27422,-2.598841 4.54843,-5.19768 6.82263,-7.796503 34.27193,38.986232 34.53378,39.138142 z"
     style="fill-rule:evenodd;stroke:#000000;stroke-width:0.971462pt" />
</svg>
