<?xml version="1.0" encoding="UTF-8" standalone="no"?>
<!-- Created with Inkscape (http://www.inkscape.org/) -->
<svg
   xmlns:dc="http://purl.org/dc/elements/1.1/"
   xmlns:cc="http://web.resource.org/cc/"
   xmlns:rdf="http://www.w3.org/1999/02/22-rdf-syntax-ns#"
   xmlns:svg="http://www.w3.org/2000/svg"
   xmlns="http://www.w3.org/2000/svg"
   xmlns:xlink="http://www.w3.org/1999/xlink"
   xmlns:sodipodi="http://inkscape.sourceforge.net/DTD/sodipodi-0.dtd"
   xmlns:inkscape="http://www.inkscape.org/namespaces/inkscape"
   sodipodi:docname="bluefish-icon.svg"
   sodipodi:docbase="/home/francois/Images/Rodent/Rodent/scalable/apps"
   height="128.00000pt"
   width="128.00000pt"
   inkscape:version="0.41"
   sodipodi:version="0.32"
   id="svg1">
  <metadata
     id="metadata14">
    <rdf:RDF
       id="RDF15">
      <cc:Work
         id="Work16"
         rdf:about="">
        <dc:format
           id="format17">image/svg+xml</dc:format>
        <dc:type
           rdf:resource="http://purl.org/dc/dcmitype/StillImage"
           id="type19" />
      </cc:Work>
    </rdf:RDF>
  </metadata>
  <defs
     id="defs3">
    <linearGradient
       id="linearGradient4352"
       inkscape:collect="always">
      <stop
         id="stop4354"
         offset="0"
         style="stop-color:#ffffff;stop-opacity:1;" />
      <stop
         id="stop4356"
         offset="1"
         style="stop-color:#ffffff;stop-opacity:0;" />
    </linearGradient>
    <linearGradient
       id="linearGradient2060"
       inkscape:collect="always">
      <stop
         id="stop2062"
         offset="0"
         style="stop-color:#ffffff;stop-opacity:1;" />
      <stop
         id="stop2064"
         offset="1"
         style="stop-color:#ffffff;stop-opacity:0;" />
    </linearGradient>
    <linearGradient
       id="linearGradient826">
      <stop
         id="stop827"
         offset="0.0000000"
         style="stop-color:#9db8d2;stop-opacity:1.0000000;" />
      <stop
         id="stop828"
         offset="1.0000000"
         style="stop-color:#7590ae;stop-opacity:1.0000000;" />
    </linearGradient>
    <linearGradient
       y2="75.187967"
       x2="75.888564"
       y1="31.800103"
       x1="5.2282925"
       id="linearGradient829"
       xlink:href="#linearGradient826"
       gradientTransform="matrix(1.123546,0.000000,0.000000,0.805611,4.136064,1.114385)"
       gradientUnits="userSpaceOnUse" />
    <linearGradient
       gradientUnits="userSpaceOnUse"
       y2="97.171623"
       x2="50.960560"
       y1="53.646336"
       x1="24.810984"
       gradientTransform="matrix(1.112726,0.000000,0.000000,0.813444,3.813559,-0.175633)"
       id="linearGradient2066"
       xlink:href="#linearGradient2060"
       inkscape:collect="always" />
    <linearGradient
       gradientUnits="userSpaceOnUse"
       y2="52.104031"
       x2="132.93314"
       y1="32.694420"
       x1="118.85295"
       gradientTransform="matrix(0.918434,0.000000,0.000000,0.985526,4.136064,1.114385)"
       id="linearGradient4358"
       xlink:href="#linearGradient4352"
       inkscape:collect="always" />
    <linearGradient
       y2="82.128174"
       x2="121.91209"
       y1="80.606956"
       x1="101.27267"
       gradientTransform="matrix(0.918434,0.000000,0.000000,0.985526,4.136064,1.114385)"
       gradientUnits="userSpaceOnUse"
       id="linearGradient5130"
       xlink:href="#linearGradient4352"
       inkscape:collect="always" />
  </defs>
  <sodipodi:namedview
     inkscape:current-layer="svg1"
     inkscape:window-y="49"
     inkscape:window-x="15"
     snaptoguides="true"
     showguides="true"
     gridspacingy="1.0000000mm"
     gridspacingx="1.0000000mm"
     showgrid="true"
     inkscape:window-height="653"
     inkscape:window-width="1242"
     inkscape:cy="80.000000"
     inkscape:cx="80.000000"
     inkscape:zoom="2.9500000"
     inkscape:pageshadow="2"
     inkscape:pageopacity="0.0"
     borderopacity="1.0"
     bordercolor="#666666"
     pagecolor="#ffffff"
     id="base" />
  <path
     sodipodi:nodetypes="cccccccc"
     id="path834"
     d="M 12.197800,77.573929 C 12.197800,77.573929 43.021511,-4.1004939 101.58657,67.742748 C 104.41208,28.922194 145.76722,27.157618 147.05154,26.905537 C 141.65739,34.467984 141.63826,55.375292 128.71806,69.634730 C 140.79964,81.470431 140.37307,109.25128 146.53783,118.91532 C 108.52192,112.36120 104.92581,99.000873 102.10031,88.413436 C 96.962997,107.57164 82.835468,124.46111 53.552945,122.94861 C -6.2964239,118.41115 12.197800,77.573929 12.197800,77.573929 z "
     style="stroke-miterlimit:4.0000000;stroke-dasharray:none;stroke-opacity:0.49999997;stroke-width:5.0000000;stroke:#000000;fill-rule:evenodd;fill-opacity:0.38866398;fill:#000000" />
  <path
     sodipodi:nodetypes="cccccccc"
     id="path825"
     d="M 11.727914,77.513121 C 11.727914,77.513121 42.840410,-6.4906152 101.95416,67.401560 C 104.80613,27.473863 146.54872,25.658962 147.84507,25.399693 C 142.40040,33.177815 142.38109,54.681390 129.33984,69.347500 C 141.53462,81.520749 141.10405,110.09388 147.32655,120.03354 C 108.95446,113.29249 105.32468,99.551138 102.47270,88.661765 C 97.287273,108.36634 83.027383,125.73748 53.470512,124.18186 C -6.9395820,119.51498 11.727914,77.513121 11.727914,77.513121 z "
     style="stroke-dasharray:none;stroke-miterlimit:4.0000000;stroke-width:1.2500000;stroke:#000000;fill-rule:evenodd;fill:url(#linearGradient829)" />
  <path
     sodipodi:nodetypes="cccc"
     id="path2068"
     d="M 99.483819,88.759959 C 100.56341,89.569652 94.377490,117.91804 64.103225,122.01224 C 51.267084,122.38736 33.715741,121.35352 21.044281,112.67105 C 74.268977,102.46984 98.843376,57.374075 99.483819,88.759959 z "
     style="fill:#ffffff;fill-opacity:0.20647772;fill-rule:evenodd;stroke:none;stroke-width:0.25000000pt;stroke-linecap:butt;stroke-linejoin:miter;stroke-opacity:1.0000000" />
  <path
     sodipodi:nodetypes="cccc"
     id="path1070"
     d="M 12.720176,85.381874 C 11.640586,84.572181 25.405360,41.388582 53.744597,39.229402 C 64.000702,39.499299 70.748139,42.468172 80.194551,49.215609 C 104.37097,75.542052 12.715602,104.51258 12.720176,85.381874 z "
     style="fill:url(#linearGradient2066);fill-opacity:1.0000000;fill-rule:evenodd;stroke:none;stroke-width:0.25000000pt;stroke-linecap:butt;stroke-linejoin:miter;stroke-opacity:1.0000000" />
  <path
     transform="matrix(0.843980,0.404544,-0.404544,0.843980,9.546973,45.37686)"
     d="M 47.943262 10.921986 A 14.184397 18.581560 0 1 1  19.574469,10.921986 A 14.184397 18.581560 0 1 1  47.943262 10.921986 z"
     sodipodi:ry="18.581560"
     sodipodi:rx="14.184397"
     sodipodi:cy="10.921986"
     sodipodi:cx="33.758865"
     id="path830"
     style="stroke-miterlimit:4.0000000;stroke-dasharray:none;stroke-linejoin:round;stroke-linecap:round;stroke-width:2.6711504;stroke:#000000;fill-rule:evenodd;fill-opacity:1.0000000;fill:#ffffff"
     sodipodi:type="arc" />
  <path
     transform="matrix(0.935927,0.000000,0.000000,0.935927,-15.76469,79.76828)"
     d="M 50.496456 -7.3758864 A 5.6737590 6.2411346 0 1 1  39.148938,-7.3758864 A 5.6737590 6.2411346 0 1 1  50.496456 -7.3758864 z"
     sodipodi:ry="6.2411346"
     sodipodi:rx="5.6737590"
     sodipodi:cy="-7.3758864"
     sodipodi:cx="44.822697"
     id="path831"
     style="fill-rule:evenodd;stroke:#000000;stroke-width:1.0000000pt"
     sodipodi:type="arc" />
  <path
     transform="matrix(0.935927,0.000000,0.000000,0.935927,0.696995,82.42338)"
     d="M 27.517730 -10.070922 A 2.4113476 3.2624114 0 1 1  22.695035,-10.070922 A 2.4113476 3.2624114 0 1 1  27.517730 -10.070922 z"
     sodipodi:ry="3.2624114"
     sodipodi:rx="2.4113476"
     sodipodi:cy="-10.070922"
     sodipodi:cx="25.106382"
     id="path832"
     style="fill:#ffffff;fill-opacity:1.0000000;fill-rule:evenodd;stroke:#ffffff;stroke-width:1.0000000pt;stroke-opacity:1.0000000"
     sodipodi:type="arc" />
  <path
     id="path833"
     d="M 17.158677,110.83307 C 17.158677,110.83307 62.295547,101.00916 62.030036,89.061163"
     style="stroke-miterlimit:4.0000000;stroke-dasharray:none;stroke-linecap:round;stroke-width:2.5000000;stroke:#000000;fill-rule:evenodd;fill-opacity:0.75000000;fill:none" />
  <path
     sodipodi:nodetypes="ccc"
     id="path1693"
     d="M 104.05762,70.050323 C 104.05762,62.955221 105.30852,34.838078 143.09417,28.090640 C 144.06856,34.906695 134.50114,57.287375 104.05762,70.050323 z "
     style="fill:url(#linearGradient4358);fill-opacity:1.0000000;fill-rule:evenodd;stroke:none;stroke-width:0.25000000pt;stroke-linecap:butt;stroke-linejoin:miter;stroke-opacity:1.0000000" />
  <path
     sodipodi:nodetypes="cscsc"
     id="path4360"
     d="M 138.64567,44.860886 C 138.00066,49.375947 135.75291,56.566482 132.00699,62.101038 C 128.26108,67.635593 112.84752,93.887050 106.20987,91.778191 C 105.49198,79.365928 111.61742,70.129760 116.05742,68.953579 C 124.37927,66.749075 131.32174,56.988592 138.64567,44.860886 z "
     style="fill:#ffffff;fill-opacity:0.21457489;fill-rule:evenodd;stroke:none;stroke-width:0.25000000pt;stroke-linecap:butt;stroke-linejoin:miter;stroke-opacity:1.0000000" />
  <path
     sodipodi:nodetypes="ccc"
     id="path6648"
     d="M 143.74124,117.35993 C 101.17063,109.61981 138.94279,110.00155 133.40761,79.338455 C 138.88331,89.292639 139.74310,105.61252 143.74124,117.35993 z "
     style="fill:#ffffff;fill-opacity:0.21457489;fill-rule:evenodd;stroke:none;stroke-width:0.25000000pt;stroke-linecap:butt;stroke-linejoin:miter;stroke-opacity:1.0000000" />
</svg>
