<?xml version="1.0" encoding="UTF-8" standalone="no"?>
<!DOCTYPE svg PUBLIC "-//W3C//DTD SVG 20010904//EN"
"http://www.w3.org/TR/2001/REC-SVG-20010904/DTD/svg10.dtd">
<!-- Created with Inkscape (http://www.inkscape.org/) -->
<svg
   id="svg1"
   sodipodi:version="0.32"
   inkscape:version="0.38.1"
   width="128.00000pt"
   height="128.00000pt"
   sodipodi:docbase="/usr/share/icons/Rodent/scalable/stock"
   sodipodi:docname="stock_mute.svg"
   xmlns="http://www.w3.org/2000/svg"
   xmlns:inkscape="http://www.inkscape.org/namespaces/inkscape"
   xmlns:sodipodi="http://sodipodi.sourceforge.net/DTD/sodipodi-0.dtd"
   xmlns:xlink="http://www.w3.org/1999/xlink">
  <defs
     id="defs3">
    <linearGradient
       id="linearGradient850">
      <stop
         style="stop-color:#eed680;stop-opacity:1.0000000;"
         offset="0.0000000"
         id="stop852" />
      <stop
         style="stop-color:#dfb546;stop-opacity:1.0000000;"
         offset="0.68035328"
         id="stop858" />
      <stop
         style="stop-color:#d8a429;stop-opacity:1.0000000;"
         offset="0.77277374"
         id="stop859" />
      <stop
         style="stop-color:#d1940c;stop-opacity:1.0000000;"
         offset="1.0000000"
         id="stop857" />
    </linearGradient>
    <linearGradient
       xlink:href="#linearGradient850"
       id="linearGradient569"
       x1="0.11875000"
       y1="0.12612613"
       x2="0.59375000"
       y2="0.66066068"
       spreadMethod="pad" />
    <linearGradient
       id="linearGradient839">
      <stop
         style="stop-color:#46a046;stop-opacity:1.0000000;"
         offset="0.0000000"
         id="stop840" />
      <stop
         style="stop-color:#df421e;stop-opacity:1.0000000;"
         offset="0.39364964"
         id="stop841" />
      <stop
         style="stop-color:#ada7c8;stop-opacity:1.0000000;"
         offset="0.72036445"
         id="stop842" />
      <stop
         style="stop-color:#eed680;stop-opacity:1.0000000;"
         offset="1.0000000"
         id="stop843" />
    </linearGradient>
    <linearGradient
       xlink:href="#linearGradient839"
       id="linearGradient836"
       x1="1.3267924e-17"
       y1="0.50000000"
       x2="1.0000000"
       y2="0.50000000" />
  </defs>
  <sodipodi:namedview
     id="base"
     pagecolor="#ffffff"
     bordercolor="#666666"
     borderopacity="1.0"
     inkscape:pageopacity="0.0"
     inkscape:pageshadow="2"
     inkscape:zoom="3.5521067"
     inkscape:cx="66.459322"
     inkscape:cy="62.629296"
     inkscape:window-width="751"
     inkscape:window-height="909"
     showgrid="true"
     snaptogrid="true"
     gridspacingx="1.0000000mm"
     gridspacingy="1.0000000mm"
     inkscape:window-x="142"
     inkscape:window-y="31" />
  <g
     id="g838"
     transform="matrix(-1.474779,0.000000,0.000000,1.474779,172.9941,-14.34704)">
    <path
       style="fill:#4b6983;fill-rule:evenodd;stroke:#000000;stroke-width:1.5059674;stroke-linejoin:round;"
       d="M 89.725711,30.433362 L 74.778985,94.455805 L 104.65881,79.520341 C 107.41966,77.077142 110.92444,76.441725 112.63525,70.717991 C 114.25030,65.314633 113.28001,62.195194 111.06214,58.175920 L 111.06214,58.175920 L 89.725711,30.433362 z "
       id="path831"
       sodipodi:nodetypes="ccccccc" />
    <path
       sodipodi:type="arc"
       style="fill-rule:evenodd;stroke:#000000;stroke-width:5.0000000;fill:#9db8d2;fill-opacity:1.0000000;stroke-dasharray:none;"
       id="path825"
       sodipodi:cx="100.98425"
       sodipodi:cy="78.503937"
       sodipodi:rx="44.291340"
       sodipodi:ry="70.866142"
       d="M 145.27559 78.503937 A 44.291340 70.866142 0 1 0 56.692913,78.503937 A 44.291340 70.866142 0 1 0 145.27559 78.503937 z"
       transform="matrix(0.477735,0.122682,-0.122682,0.477735,35.52938,11.17656)" />
    <path
       sodipodi:type="arc"
       style="fill-rule:evenodd;stroke:#000000;stroke-width:2.2747321;stroke-dasharray:none;fill:#7590ae;fill-opacity:1.0000000;"
       id="path826"
       sodipodi:cx="102.75591"
       sodipodi:cy="85.590553"
       sodipodi:rx="28.346457"
       sodipodi:ry="56.692913"
       d="M 131.10237 85.590553 A 28.346457 56.692913 0 1 0 74.409456,85.590553 A 28.346457 56.692913 0 1 0 131.10237 85.590553 z"
       transform="matrix(0.575251,0.147724,-0.135083,0.526023,24.05911,0.197551)" />
    <path
       sodipodi:type="arc"
       style="fill-rule:evenodd;stroke:#000000;stroke-width:1.0000000pt;fill:#314e6c;fill-opacity:1.0000000;"
       id="path827"
       sodipodi:cx="33.661419"
       sodipodi:cy="51.929134"
       sodipodi:rx="12.401575"
       sodipodi:ry="19.488190"
       d="M 46.062994 51.929134 A 12.401575 19.488190 0 1 0 21.259844,51.929134 A 12.401575 19.488190 0 1 0 46.062994 51.929134 z"
       transform="matrix(0.477735,0.122682,-0.140577,0.547423,70.71934,29.45280)" />
  </g>
  <path
     style="fill:url(#linearGradient569);fill-rule:evenodd;stroke:#000000;stroke-width:5.0000000;stroke-dasharray:none;"
     d="M 140.59824,41.720018 C 140.53144,38.763935 139.33863,35.858136 137.05644,33.710285 C 132.49208,29.414590 125.30732,29.803742 120.94770,34.568469 L 98.779524,58.795708 L 76.227279,34.414442 C 71.842088,29.674729 64.773138,29.454451 60.374564,33.930339 C 55.975997,38.406218 55.968037,45.826216 60.353228,50.565929 L 83.460216,75.541322 L 60.225212,100.93481 C 55.865582,105.69952 56.023565,112.98862 60.587925,117.28433 C 65.152292,121.58002 72.337044,121.21287 76.696673,116.44814 L 98.886204,92.198926 L 121.43843,116.58017 C 125.82362,121.31989 132.89257,121.54016 137.29115,117.06428 C 141.68971,112.58839 141.69766,105.16839 137.31247,100.42870 L 114.20550,75.453297 L 137.44049,50.081826 C 139.62031,47.699462 140.66503,44.676101 140.59824,41.720018 z "
     id="path855" />
</svg>
