<?xml version="1.0" encoding="UTF-8" standalone="no"?>
<!-- Created with Inkscape (http://www.inkscape.org/) -->
<svg
   xmlns:dc="http://purl.org/dc/elements/1.1/"
   xmlns:cc="http://web.resource.org/cc/"
   xmlns:rdf="http://www.w3.org/1999/02/22-rdf-syntax-ns#"
   xmlns:svg="http://www.w3.org/2000/svg"
   xmlns="http://www.w3.org/2000/svg"
   xmlns:xlink="http://www.w3.org/1999/xlink"
   xmlns:sodipodi="http://inkscape.sourceforge.net/DTD/sodipodi-0.dtd"
   xmlns:inkscape="http://www.inkscape.org/namespaces/inkscape"
   width="128pt"
   height="128pt"
   id="svg2"
   sodipodi:version="0.32"
   inkscape:version="0.43"
   version="1.0"
   sodipodi:docbase="/usr/share/icons/Rongeur/scalable/weather"
   sodipodi:docname="34.svg">
  <defs
     id="defs4">
    <radialGradient
       inkscape:collect="always"
       xlink:href="#linearGradient2228"
       id="radialGradient39609"
       gradientUnits="userSpaceOnUse"
       gradientTransform="matrix(0.705746,-0.261172,0.218219,0.589677,20.1646,45.34183)"
       cx="105.7495"
       cy="40.954887"
       fx="105.7495"
       fy="40.954887"
       r="18.441303" />
    <radialGradient
       inkscape:collect="always"
       xlink:href="#linearGradient2228"
       id="radialGradient39607"
       gradientUnits="userSpaceOnUse"
       gradientTransform="matrix(0.705746,-0.261172,0.218219,0.589677,20.1646,45.34183)"
       cx="105.7495"
       cy="40.954887"
       fx="105.7495"
       fy="40.954887"
       r="18.441303" />
    <linearGradient
       inkscape:collect="always"
       xlink:href="#linearGradient16625"
       id="linearGradient39605"
       gradientUnits="userSpaceOnUse"
       x1="106.51814"
       y1="72.749504"
       x2="103.73402"
       y2="67.183083" />
    <radialGradient
       inkscape:collect="always"
       xlink:href="#linearGradient2228"
       id="radialGradient39603"
       gradientUnits="userSpaceOnUse"
       gradientTransform="matrix(0.785326,0.126861,-6.054325e-2,0.37479,24.31043,14.37175)"
       cx="104.58278"
       cy="44.728218"
       fx="104.58278"
       fy="44.728218"
       r="18.441303" />
    <linearGradient
       inkscape:collect="always"
       id="linearGradient16625">
      <stop
         style="stop-color:#000000;stop-opacity:1;"
         offset="0"
         id="stop16627" />
      <stop
         style="stop-color:#000000;stop-opacity:0;"
         offset="1"
         id="stop16629" />
    </linearGradient>
    <linearGradient
       inkscape:collect="always"
       xlink:href="#linearGradient16625"
       id="linearGradient39601"
       gradientUnits="userSpaceOnUse"
       x1="105.98466"
       y1="46.649616"
       x2="102.32878"
       y2="57.902809" />
    <linearGradient
       id="linearGradient2228">
      <stop
         style="stop-color:#ffffff;stop-opacity:1;"
         offset="0"
         id="stop2230" />
      <stop
         style="stop-color:#ffffff;stop-opacity:0;"
         offset="1"
         id="stop2232" />
    </linearGradient>
    <radialGradient
       inkscape:collect="always"
       xlink:href="#linearGradient2228"
       id="radialGradient39599"
       gradientUnits="userSpaceOnUse"
       gradientTransform="matrix(0.785326,0.126861,-6.054325e-2,0.37479,24.31043,14.37175)"
       cx="104.58278"
       cy="44.728218"
       fx="104.58278"
       fy="44.728218"
       r="18.441303" />
    <linearGradient
       id="linearGradient7594">
      <stop
         id="stop7596"
         offset="0"
         style="stop-color:#dbdbdb;stop-opacity:1;" />
      <stop
         id="stop7598"
         offset="1"
         style="stop-color:#ffffff;stop-opacity:1;" />
    </linearGradient>
    <linearGradient
       inkscape:collect="always"
       xlink:href="#linearGradient7594"
       id="linearGradient40511"
       gradientUnits="userSpaceOnUse"
       gradientTransform="matrix(0.782964,0,0,0.782964,-27.92913,-9.826669)"
       x1="82.245445"
       y1="80.538895"
       x2="71.049232"
       y2="50.257565" />
    <linearGradient
       id="linearGradient44470">
      <stop
         style="stop-color:#f4f4f4;stop-opacity:1;"
         offset="0"
         id="stop44472" />
      <stop
         style="stop-color:#e5e5e5;stop-opacity:0;"
         offset="1"
         id="stop44474" />
    </linearGradient>
    <linearGradient
       id="linearGradient2489">
      <stop
         style="stop-color:#494949;stop-opacity:1;"
         offset="0"
         id="stop2491" />
      <stop
         style="stop-color:#696969;stop-opacity:0;"
         offset="1"
         id="stop2493" />
    </linearGradient>
    <radialGradient
       inkscape:collect="always"
       xlink:href="#linearGradient2489"
       id="radialGradient3370"
       cx="79.59079"
       cy="150.38364"
       fx="79.59079"
       fy="150.38364"
       r="46.035805"
       gradientTransform="matrix(1,0,0,5.777778e-2,-8.557607e-16,141.6948)"
       gradientUnits="userSpaceOnUse" />
    <linearGradient
       id="linearGradient9305">
      <stop
         style="stop-color:#b2b2b2;stop-opacity:1;"
         offset="0"
         id="stop9307" />
      <stop
         style="stop-color:#ffffff;stop-opacity:1;"
         offset="1"
         id="stop9309" />
    </linearGradient>
    <linearGradient
       id="linearGradient4848">
      <stop
         id="stop4850"
         offset="0"
         style="stop-color:#fffcc6;stop-opacity:1;" />
      <stop
         id="stop4852"
         offset="1"
         style="stop-color:#ffffff;stop-opacity:0;" />
    </linearGradient>
    <linearGradient
       id="linearGradient3082">
      <stop
         style="stop-color:#eca20d;stop-opacity:1;"
         offset="0"
         id="stop3084" />
      <stop
         style="stop-color:#dfb646;stop-opacity:0.16149068;"
         offset="1"
         id="stop3086" />
    </linearGradient>
    <linearGradient
       inkscape:collect="always"
       xlink:href="#linearGradient3082"
       id="linearGradient3963"
       x1="57.150787"
       y1="95.877953"
       x2="68.665039"
       y2="54.4617"
       gradientUnits="userSpaceOnUse"
       gradientTransform="matrix(0.919494,0,0,0.919494,20.19126,7.417586)" />
    <radialGradient
       inkscape:collect="always"
       xlink:href="#linearGradient4848"
       id="radialGradient6606"
       cx="63.134533"
       cy="80.197952"
       fx="63.134533"
       fy="80.197952"
       r="27.274118"
       gradientUnits="userSpaceOnUse" />
    <linearGradient
       inkscape:collect="always"
       xlink:href="#linearGradient9305"
       id="linearGradient16313"
       gradientUnits="userSpaceOnUse"
       gradientTransform="matrix(0.641506,0,0,0.641506,-60.83219,15.27188)"
       x1="-147.59802"
       y1="37.64101"
       x2="-148.51944"
       y2="19.682367" />
    <linearGradient
       inkscape:collect="always"
       xlink:href="#linearGradient9305"
       id="linearGradient18935"
       gradientUnits="userSpaceOnUse"
       gradientTransform="matrix(0.67705,0,0,0.72304,215.9633,173.2113)"
       x1="-147.59802"
       y1="39.842052"
       x2="-147.23732"
       y2="25.084929" />
    <linearGradient
       inkscape:collect="always"
       xlink:href="#linearGradient3082"
       id="linearGradient19812"
       gradientUnits="userSpaceOnUse"
       gradientTransform="matrix(0.919494,0,0,0.919494,-99.80874,7.417586)"
       x1="57.150787"
       y1="95.877953"
       x2="68.665039"
       y2="54.4617" />
    <linearGradient
       inkscape:collect="always"
       xlink:href="#linearGradient3082"
       id="linearGradient19818"
       gradientUnits="userSpaceOnUse"
       gradientTransform="matrix(0.919494,0,0,0.919494,-99.80874,7.417586)"
       x1="176.11113"
       y1="85.884476"
       x2="180.77936"
       y2="57.896957" />
    <linearGradient
       inkscape:collect="always"
       xlink:href="#linearGradient9305"
       id="linearGradient21576"
       gradientUnits="userSpaceOnUse"
       gradientTransform="matrix(0.67705,0,0,0.72304,215.9633,173.2113)"
       x1="-147.59802"
       y1="39.842052"
       x2="-147.23732"
       y2="25.084929" />
    <linearGradient
       inkscape:collect="always"
       xlink:href="#linearGradient9305"
       id="linearGradient21584"
       gradientUnits="userSpaceOnUse"
       gradientTransform="matrix(0.67705,0,0,0.72304,215.9633,173.2113)"
       x1="-147.59802"
       y1="39.842052"
       x2="-147.23732"
       y2="25.084929" />
    <linearGradient
       inkscape:collect="always"
       xlink:href="#linearGradient9305"
       id="linearGradient21587"
       gradientUnits="userSpaceOnUse"
       gradientTransform="matrix(0.67705,0,0,0.72304,-56.0367,11.0156)"
       x1="-147.59802"
       y1="39.842052"
       x2="-147.23732"
       y2="25.084929" />
    <linearGradient
       inkscape:collect="always"
       xlink:href="#linearGradient9305"
       id="linearGradient21591"
       gradientUnits="userSpaceOnUse"
       gradientTransform="matrix(0.495733,0,0,0.529407,-70.49254,29.92015)"
       x1="-147.59802"
       y1="39.842052"
       x2="-147.23732"
       y2="25.084929" />
    <linearGradient
       inkscape:collect="always"
       xlink:href="#linearGradient9305"
       id="linearGradient23350"
       gradientUnits="userSpaceOnUse"
       gradientTransform="matrix(0.495733,0,0,0.529407,-70.49254,29.92015)"
       x1="-147.59802"
       y1="39.842052"
       x2="-147.23732"
       y2="25.084929" />
    <linearGradient
       inkscape:collect="always"
       xlink:href="#linearGradient9305"
       id="linearGradient23352"
       gradientUnits="userSpaceOnUse"
       gradientTransform="matrix(0.67705,0,0,0.72304,-56.0367,11.0156)"
       x1="-147.59802"
       y1="39.842052"
       x2="-147.23732"
       y2="25.084929" />
    <linearGradient
       inkscape:collect="always"
       xlink:href="#linearGradient3082"
       id="linearGradient23364"
       gradientUnits="userSpaceOnUse"
       gradientTransform="matrix(0.919494,0,0,0.919494,-99.80874,7.417586)"
       x1="176.11113"
       y1="85.884476"
       x2="180.77936"
       y2="57.896957" />
    <radialGradient
       inkscape:collect="always"
       xlink:href="#linearGradient4848"
       id="radialGradient23366"
       gradientUnits="userSpaceOnUse"
       cx="63.134533"
       cy="80.197952"
       fx="63.134533"
       fy="80.197952"
       r="27.274118" />
    <linearGradient
       inkscape:collect="always"
       xlink:href="#linearGradient9305"
       id="linearGradient30739"
       gradientUnits="userSpaceOnUse"
       gradientTransform="matrix(0.558563,0,0,0.596505,184.0126,81.1561)"
       x1="-147.59802"
       y1="39.842052"
       x2="-147.23732"
       y2="25.084929" />
    <linearGradient
       inkscape:collect="always"
       xlink:href="#linearGradient44470"
       id="linearGradient44476"
       x1="133.31081"
       y1="70.052345"
       x2="-5.0000048"
       y2="60.793045"
       gradientUnits="userSpaceOnUse"
       gradientTransform="matrix(0.729842,0,0,0.992104,-61.74202,115.7085)" />
    <linearGradient
       inkscape:collect="always"
       xlink:href="#linearGradient9305"
       id="linearGradient46234"
       x1="57.949337"
       y1="201"
       x2="110.29797"
       y2="201"
       gradientUnits="userSpaceOnUse" />
    <linearGradient
       inkscape:collect="always"
       xlink:href="#linearGradient9305"
       id="linearGradient46236"
       x1="6.4869647"
       y1="191.38536"
       x2="67.5"
       y2="191.38536"
       gradientUnits="userSpaceOnUse"
       gradientTransform="translate(13.91304,-134.2707)" />
    <linearGradient
       inkscape:collect="always"
       xlink:href="#linearGradient7594"
       id="linearGradient46377"
       gradientUnits="userSpaceOnUse"
       gradientTransform="matrix(0.782964,0,0,0.782964,-27.92913,-9.826669)"
       x1="82.245445"
       y1="80.538895"
       x2="71.049232"
       y2="50.257565" />
  </defs>
  <sodipodi:namedview
     id="base"
     pagecolor="#ffffff"
     bordercolor="#666666"
     borderopacity="1.0"
     inkscape:pageopacity="0.0"
     inkscape:pageshadow="2"
     inkscape:zoom="1.221875"
     inkscape:cx="196.66381"
     inkscape:cy="21.712322"
     inkscape:document-units="px"
     inkscape:current-layer="layer1"
     showgrid="true"
     inkscape:window-width="810"
     inkscape:window-height="542"
     inkscape:window-x="294"
     inkscape:window-y="142" />
  <metadata
     id="metadata7">
    <rdf:RDF>
      <cc:Work
         rdf:about="">
        <dc:format>image/svg+xml</dc:format>
        <dc:type
           rdf:resource="http://purl.org/dc/dcmitype/StillImage" />
        <cc:license
           rdf:resource="http://creativecommons.org/licenses/LGPL/2.1/" />
      </cc:Work>
      <cc:License
         rdf:about="http://creativecommons.org/licenses/LGPL/2.1/">
        <cc:permits
           rdf:resource="http://web.resource.org/cc/Reproduction" />
        <cc:permits
           rdf:resource="http://web.resource.org/cc/Distribution" />
        <cc:requires
           rdf:resource="http://web.resource.org/cc/Notice" />
        <cc:permits
           rdf:resource="http://web.resource.org/cc/DerivativeWorks" />
        <cc:requires
           rdf:resource="http://web.resource.org/cc/ShareAlike" />
        <cc:requires
           rdf:resource="http://web.resource.org/cc/SourceCode" />
      </cc:License>
    </rdf:RDF>
  </metadata>
  <g
     inkscape:label="Calque 1"
     inkscape:groupmode="layer"
     id="layer1">
    <path
       sodipodi:type="arc"
       style="opacity:1;color:#000000;fill:url(#radialGradient3370);fill-opacity:1;fill-rule:evenodd;stroke:none;stroke-width:2.5999999;stroke-linecap:butt;stroke-linejoin:miter;marker:none;marker-start:none;marker-mid:none;marker-end:none;stroke-miterlimit:4;stroke-dasharray:none;stroke-dashoffset:0;stroke-opacity:0.49803922;visibility:visible;display:inline;overflow:visible"
       id="path1614"
       sodipodi:cx="79.59079"
       sodipodi:cy="150.38364"
       sodipodi:rx="46.035805"
       sodipodi:ry="2.6598465"
       d="M 125.62659 150.38364 A 46.035805 2.6598465 0 1 1  33.554985,150.38364 A 46.035805 2.6598465 0 1 1  125.62659 150.38364 z"
       transform="matrix(1.031806,0,0,1.423077,-4.622235,-59.21395)" />
    <g
       id="g33271">
      <path
         sodipodi:type="star"
         style="color:#000000;fill:#000000;fill-opacity:0.49803922;fill-rule:evenodd;stroke:#000000;stroke-width:2.35169616;stroke-linecap:round;stroke-linejoin:round;marker:none;marker-start:none;marker-mid:none;marker-end:none;stroke-miterlimit:4;stroke-dasharray:none;stroke-dashoffset:0;stroke-opacity:0.49803922;visibility:visible;display:inline;overflow:visible"
         id="path31523"
         sodipodi:sides="16"
         sodipodi:cx="62.124382"
         sodipodi:cy="79.692871"
         sodipodi:r1="21.958059"
         sodipodi:r2="30.939734"
         sodipodi:arg1="2.1874979"
         sodipodi:arg2="2.3838474"
         inkscape:flatsided="false"
         inkscape:rounded="0"
         inkscape:randomized="0"
         d="M 49.424994,97.606048 L 39.650146,100.9573 L 43.536601,91.382643 L 33.223352,90.738122 L 40.47803,83.379576 L 31.196477,78.837406 L 40.714919,74.815242 L 33.878096,67.066928 L 44.211205,66.993483 L 40.859956,57.218635 L 50.43461,61.10509 L 51.079132,50.791841 L 58.437677,58.046519 L 62.979847,48.764966 L 67.002011,58.283408 L 74.750325,51.446585 L 74.82377,61.779694 L 84.598618,58.428445 L 80.712163,68.003099 L 91.025412,68.647621 L 83.770734,76.006166 L 93.052287,80.548336 L 83.533845,84.5705 L 90.370668,92.318814 L 80.037559,92.392259 L 83.388808,102.16711 L 73.814154,98.280652 L 73.169632,108.5939 L 65.811087,101.33922 L 61.268917,110.62078 L 57.246753,101.10233 L 49.498439,107.93916 L 49.424994,97.606048 z "
         transform="matrix(2.126125,0,0,2.126125,-52.32183,-90.3817)" />
      <path
         transform="matrix(2.126125,0,0,2.126125,-52.32183,-90.3817)"
         d="M 49.424994,97.606048 L 39.650146,100.9573 L 43.536601,91.382643 L 33.223352,90.738122 L 40.47803,83.379576 L 31.196477,78.837406 L 40.714919,74.815242 L 33.878096,67.066928 L 44.211205,66.993483 L 40.859956,57.218635 L 50.43461,61.10509 L 51.079132,50.791841 L 58.437677,58.046519 L 62.979847,48.764966 L 67.002011,58.283408 L 74.750325,51.446585 L 74.82377,61.779694 L 84.598618,58.428445 L 80.712163,68.003099 L 91.025412,68.647621 L 83.770734,76.006166 L 93.052287,80.548336 L 83.533845,84.5705 L 90.370668,92.318814 L 80.037559,92.392259 L 83.388808,102.16711 L 73.814154,98.280652 L 73.169632,108.5939 L 65.811087,101.33922 L 61.268917,110.62078 L 57.246753,101.10233 L 49.498439,107.93916 L 49.424994,97.606048 z "
         inkscape:randomized="0"
         inkscape:rounded="0"
         inkscape:flatsided="false"
         sodipodi:arg2="2.3838474"
         sodipodi:arg1="2.1874979"
         sodipodi:r2="30.939734"
         sodipodi:r1="21.958059"
         sodipodi:cy="79.692871"
         sodipodi:cx="62.124382"
         sodipodi:sides="16"
         id="path1307"
         style="color:#000000;fill:#e8e4a6;fill-opacity:1;fill-rule:evenodd;stroke:#000000;stroke-width:0.98771239;stroke-linecap:round;stroke-linejoin:round;marker:none;marker-start:none;marker-mid:none;marker-end:none;stroke-miterlimit:4;stroke-dasharray:none;stroke-dashoffset:0;stroke-opacity:1;visibility:visible;display:inline;overflow:visible"
         sodipodi:type="star" />
      <path
         sodipodi:type="star"
         style="color:#000000;fill:url(#linearGradient23364);fill-opacity:1;fill-rule:evenodd;stroke:none;stroke-width:1.76756549;stroke-linecap:round;stroke-linejoin:round;marker:none;marker-start:none;marker-mid:none;marker-end:none;stroke-miterlimit:4;stroke-dasharray:none;stroke-dashoffset:0;stroke-opacity:1;visibility:visible;display:inline;overflow:visible"
         id="path19814"
         sodipodi:sides="16"
         sodipodi:cx="62.124382"
         sodipodi:cy="79.692871"
         sodipodi:r1="25.302961"
         sodipodi:r2="30.939734"
         sodipodi:arg1="2.1202605"
         sodipodi:arg2="2.31661"
         inkscape:flatsided="false"
         inkscape:rounded="0.15765629"
         inkscape:randomized="0"
         d="M 48.910408,101.27135 C 47.852958,100.6238 42.040417,103.26062 41.129616,102.41922 C 40.218815,101.57781 42.387686,95.574943 41.658535,94.572017 C 40.929385,93.569091 34.550229,93.780835 34.03075,92.65493 C 33.511272,91.529025 37.812247,86.813085 37.522403,85.607469 C 37.232559,84.401853 31.257956,82.156281 31.208886,80.917285 C 31.159815,79.678288 36.93811,76.96724 37.131698,75.742477 C 37.325287,74.517714 32.664817,70.156696 33.093625,68.993234 C 33.522433,67.829771 39.898355,67.536347 40.545903,66.478897 C 41.193452,65.421447 38.556629,59.608906 39.398034,58.698105 C 40.239438,57.787304 46.242311,59.956175 47.245236,59.227024 C 48.248162,58.497874 48.036418,52.118718 49.162323,51.59924 C 50.288228,51.079761 55.004168,55.380736 56.209784,55.090892 C 57.415401,54.801048 59.660972,48.826445 60.899968,48.777375 C 62.138965,48.728304 64.850013,54.506599 66.074776,54.700187 C 67.299539,54.893776 71.660558,50.233306 72.82402,50.662114 C 73.987482,51.090922 74.280906,57.466844 75.338356,58.114393 C 76.395806,58.761941 82.208347,56.125118 83.119148,56.966523 C 84.029949,57.807927 81.861078,63.8108 82.590229,64.813725 C 83.319379,65.816651 89.698535,65.604907 90.218014,66.730812 C 90.737492,67.856717 86.436517,72.572657 86.726361,73.778273 C 87.016205,74.98389 92.990808,77.229461 93.039878,78.468457 C 93.088949,79.707454 87.310654,82.418502 87.117066,83.643265 C 86.923477,84.868028 91.583947,89.229047 91.155139,90.392509 C 90.726331,91.555971 84.350409,91.849395 83.702861,92.906845 C 83.055312,93.964295 85.692135,99.776836 84.85073,100.68764 C 84.009326,101.59844 78.006453,99.429567 77.003528,100.15872 C 76.000602,100.88787 76.212346,107.26702 75.086441,107.7865 C 73.960536,108.30598 69.244596,104.00501 68.03898,104.29485 C 66.833363,104.58469 64.587792,110.5593 63.348796,110.60837 C 62.109799,110.65744 59.398751,104.87914 58.173988,104.68555 C 56.949225,104.49197 52.588206,109.15244 51.424745,108.72363 C 50.261282,108.29482 49.967858,101.9189 48.910408,101.27135 z "
         transform="matrix(1.419186,0,0,1.419186,-8.403687,-34.0437)" />
      <path
         transform="matrix(1.403305,0,0,1.403305,-8.834645,-33.48689)"
         d="M 90.408651 80.197952 A 27.274118 27.274118 0 1 1  35.860415,80.197952 A 27.274118 27.274118 0 1 1  90.408651 80.197952 z"
         sodipodi:ry="27.274118"
         sodipodi:rx="27.274118"
         sodipodi:cy="80.197952"
         sodipodi:cx="63.134533"
         id="path3965"
         style="opacity:0.66360857;color:#000000;fill:url(#radialGradient23366);fill-opacity:1;fill-rule:evenodd;stroke:none;stroke-width:3.6329999;stroke-linecap:round;stroke-linejoin:round;marker:none;marker-start:none;marker-mid:none;marker-end:none;stroke-miterlimit:4;stroke-dasharray:none;stroke-dashoffset:0;stroke-opacity:1;visibility:visible;display:inline;overflow:visible"
         sodipodi:type="arc" />
    </g>
    <g
       id="g57127">
      <path
         sodipodi:nodetypes="ccscsssssssssc"
         id="path20207"
         d="M 54.061809,23.204617 C 47.119784,23.469713 41.342973,28.437121 39.846117,34.99801 C 37.979014,32.843507 35.228916,31.474674 32.163279,31.474674 C 26.878744,31.474671 22.516045,35.537596 22.033702,40.698967 C 21.385191,40.568615 20.71346,40.503225 20.027343,40.503225 C 14.421651,40.503226 9.8732814,45.076051 9.8732814,50.681754 C 9.8732814,56.287456 14.421638,60.835816 20.027343,60.835816 C 25.304595,60.835815 64.939093,60.444333 69.745545,60.444335 C 75.351264,60.444335 79.92409,55.871508 79.92409,50.265805 C 79.92409,44.660106 75.351264,40.087277 69.745545,40.087275 C 69.738248,40.087275 69.728386,40.08726 69.72109,40.087275 C 69.784802,39.524569 69.818953,38.954155 69.818953,38.374543 C 69.818953,30.015048 63.008542,23.20462 54.649021,23.204617 C 54.453099,23.204617 54.255969,23.197204 54.061809,23.204617 z "
         style="color:#000000;fill:#000000;fill-opacity:0.49803922;fill-rule:nonzero;stroke:#000000;stroke-width:5;stroke-linecap:butt;stroke-linejoin:round;marker:none;marker-start:none;marker-mid:none;marker-end:none;stroke-miterlimit:4;stroke-dasharray:none;stroke-dashoffset:0;stroke-opacity:0.49803922;visibility:visible;display:inline;overflow:visible" />
      <path
         style="color:#000000;fill:url(#linearGradient46377);fill-opacity:1;fill-rule:nonzero;stroke:#000000;stroke-width:2;stroke-linecap:butt;stroke-linejoin:round;marker:none;marker-start:none;marker-mid:none;marker-end:none;stroke-miterlimit:3;stroke-dasharray:none;stroke-dashoffset:0;stroke-opacity:1;visibility:visible;display:inline;overflow:visible"
         d="M 54.061809,23.204617 C 47.119784,23.469713 41.342973,28.437121 39.846117,34.99801 C 37.979014,32.843507 35.228916,31.474674 32.163279,31.474674 C 26.878744,31.474671 22.516045,35.537596 22.033702,40.698967 C 21.385191,40.568615 20.71346,40.503225 20.027343,40.503225 C 14.421651,40.503226 9.8732814,45.076051 9.8732814,50.681754 C 9.8732814,56.287456 14.421638,60.835816 20.027343,60.835816 C 25.304595,60.835815 64.939093,60.444333 69.745545,60.444335 C 75.351264,60.444335 79.92409,55.871508 79.92409,50.265805 C 79.92409,44.660106 75.351264,40.087277 69.745545,40.087275 C 69.738248,40.087275 69.728386,40.08726 69.72109,40.087275 C 69.784802,39.524569 69.818953,38.954155 69.818953,38.374543 C 69.818953,30.015048 63.008542,23.20462 54.649021,23.204617 C 54.453099,23.204617 54.255969,23.197204 54.061809,23.204617 z "
         id="path20209"
         sodipodi:nodetypes="ccscsssssssssc" />
      <path
         sodipodi:type="arc"
         style="color:#000000;fill:url(#radialGradient39599);fill-opacity:1;fill-rule:evenodd;stroke:url(#linearGradient39601);stroke-width:2.97754812;stroke-linecap:round;stroke-linejoin:miter;marker:none;marker-start:none;marker-mid:none;marker-end:none;stroke-miterlimit:0.5;stroke-dasharray:none;stroke-dashoffset:0;stroke-opacity:1;visibility:visible;display:inline;overflow:visible"
         id="path20211"
         sodipodi:cx="103.73402"
         sodipodi:cy="52.173912"
         sodipodi:rx="17.391304"
         sodipodi:ry="17.391304"
         d="M 121.12532 52.173912 A 17.391304 17.391304 0 1 1  86.342712,52.173912 A 17.391304 17.391304 0 1 1  121.12532 52.173912 z"
         transform="matrix(0.839617,0,0,0.839617,-32.24481,-5.954069)" />
      <path
         transform="matrix(0.559798,0,0,0.559798,-5.738601,21.04176)"
         d="M 121.12532 52.173912 A 17.391304 17.391304 0 1 1  86.342712,52.173912 A 17.391304 17.391304 0 1 1  121.12532 52.173912 z"
         sodipodi:ry="17.391304"
         sodipodi:rx="17.391304"
         sodipodi:cy="52.173912"
         sodipodi:cx="103.73402"
         id="path20213"
         style="color:#000000;fill:url(#radialGradient39603);fill-opacity:1;fill-rule:evenodd;stroke:url(#linearGradient39605);stroke-width:4.46589661;stroke-linecap:round;stroke-linejoin:miter;marker:none;marker-start:none;marker-mid:none;marker-end:none;stroke-miterlimit:0.5;stroke-dasharray:none;stroke-dashoffset:0;stroke-opacity:1;visibility:visible;display:inline;overflow:visible"
         sodipodi:type="arc" />
      <path
         sodipodi:type="arc"
         style="color:#000000;fill:url(#radialGradient39607);fill-opacity:1;fill-rule:evenodd;stroke:none;stroke-width:3.09814024;stroke-linecap:round;stroke-linejoin:miter;marker:none;marker-start:none;marker-mid:none;marker-end:none;stroke-miterlimit:0;stroke-dasharray:none;stroke-dashoffset:0;stroke-opacity:1;visibility:visible;display:inline;overflow:visible"
         id="path20215"
         sodipodi:cx="103.73402"
         sodipodi:cy="52.173912"
         sodipodi:rx="17.391304"
         sodipodi:ry="17.391304"
         d="M 121.12532 52.173912 A 17.391304 17.391304 0 1 1  86.342712,52.173912 A 17.391304 17.391304 0 1 1  121.12532 52.173912 z"
         transform="matrix(0.451133,0,0,0.451133,-27.50119,27.04923)" />
      <path
         transform="matrix(0.451133,0,0,0.451133,-15.93894,18.43142)"
         d="M 121.12532 52.173912 A 17.391304 17.391304 0 1 1  86.342712,52.173912 A 17.391304 17.391304 0 1 1  121.12532 52.173912 z"
         sodipodi:ry="17.391304"
         sodipodi:rx="17.391304"
         sodipodi:cy="52.173912"
         sodipodi:cx="103.73402"
         id="path20217"
         style="color:#000000;fill:url(#radialGradient39609);fill-opacity:1;fill-rule:evenodd;stroke:none;stroke-width:3.09814024;stroke-linecap:round;stroke-linejoin:miter;marker:none;marker-start:none;marker-mid:none;marker-end:none;stroke-miterlimit:0;stroke-dasharray:none;stroke-dashoffset:0;stroke-opacity:1;visibility:visible;display:inline;overflow:visible"
         sodipodi:type="arc" />
    </g>
  </g>
</svg>
