<?xml version="1.0" encoding="UTF-8" standalone="no"?>
<!-- Created with Sodipodi ("http://www.sodipodi.com/") -->
<svg
   xmlns:dc="http://purl.org/dc/elements/1.1/"
   xmlns:cc="http://web.resource.org/cc/"
   xmlns:rdf="http://www.w3.org/1999/02/22-rdf-syntax-ns#"
   xmlns:svg="http://www.w3.org/2000/svg"
   xmlns="http://www.w3.org/2000/svg"
   xmlns:sodipodi="http://inkscape.sourceforge.net/DTD/sodipodi-0.dtd"
   xmlns:inkscape="http://www.inkscape.org/namespaces/inkscape"
   inkscape:version="0.41"
   sodipodi:docname="xfce4-panel.svg"
   sodipodi:docbase="/home/francois/Images/Rodent/Rodent/scalable/apps"
   height="128pt"
   width="128pt"
   sodipodi:version="0.32"
   id="svg562">
  <metadata
     id="metadata33">
    <rdf:RDF
       id="RDF35">
      <cc:Work
         id="Work37"
         rdf:about="">
        <dc:format
           id="format39">image/svg+xml</dc:format>
        <dc:type
           rdf:resource="http://purl.org/dc/dcmitype/StillImage"
           id="type41" />
      </cc:Work>
    </rdf:RDF>
  </metadata>
  <defs
     id="defs564" />
  <sodipodi:namedview
     inkscape:current-layer="svg562"
     inkscape:window-y="49"
     inkscape:window-x="15"
     inkscape:window-height="653"
     inkscape:window-width="1242"
     inkscape:cy="80.000000"
     inkscape:cx="80.000000"
     inkscape:zoom="2.9500000"
     gridspacingy="1mm"
     gridspacingx="1mm"
     showgrid="true"
     snaptogrid="false"
     id="base" />
  <path
     sodipodi:nodetypes="cccc"
     id="path603"
     d="M 152.90633,29.440104 L 8.4247212,29.440104 L 8.4247212,130.44669 L 152.90633,130.44669"
     style="font-size:12.000000;fill:#e8e8e7;fill-rule:evenodd;stroke:#000000;stroke-width:3.1686664" />
  <g
     transform="matrix(0.773846,0.000000,0.000000,0.770442,5.396729,20.82571)"
     id="g622">
    <rect
       y="21.811001"
       x="14.173230"
       height="7.0866108"
       width="7.0866132"
       id="rect612"
       style="font-size:12.000000;fill:#9a999a;fill-opacity:1.0000000;fill-rule:evenodd;stroke-width:1.0000000" />
    <rect
       y="25.354309"
       x="17.716539"
       height="7.0866108"
       width="7.0866151"
       id="rect613"
       style="font-size:12.000000;fill:#ffffff;fill-opacity:0.57669997;fill-rule:evenodd;stroke-width:1.0000000" />
    <rect
       y="35.984230"
       x="14.173230"
       height="7.0866108"
       width="7.0866132"
       id="rect614"
       style="font-size:12.000000;fill:#9a999a;fill-opacity:1.0000000;fill-rule:evenodd;stroke-width:1.0000000" />
    <rect
       y="39.527538"
       x="17.716539"
       height="7.0866108"
       width="7.0866151"
       id="rect615"
       style="font-size:12.000000;fill:#ffffff;fill-opacity:0.57669997;fill-rule:evenodd;stroke-width:1.0000000" />
    <rect
       y="50.157452"
       x="14.173230"
       height="7.0866108"
       width="7.0866132"
       id="rect616"
       style="font-size:12.000000;fill:#9a999a;fill-opacity:1.0000000;fill-rule:evenodd;stroke-width:1.0000000" />
    <rect
       y="53.700760"
       x="17.716539"
       height="7.0866108"
       width="7.0866151"
       id="rect617"
       style="font-size:12.000000;fill:#ffffff;fill-opacity:0.57669997;fill-rule:evenodd;stroke-width:1.0000000" />
    <rect
       y="64.330681"
       x="14.173230"
       height="7.0866108"
       width="7.0866132"
       id="rect618"
       style="font-size:12.000000;fill:#9a999a;fill-opacity:1.0000000;fill-rule:evenodd;stroke-width:1.0000000" />
    <rect
       y="67.874001"
       x="17.716539"
       height="7.0866108"
       width="7.0866151"
       id="rect619"
       style="font-size:12.000000;fill:#ffffff;fill-opacity:0.57669997;fill-rule:evenodd;stroke-width:1.0000000" />
    <rect
       y="78.503899"
       x="14.173230"
       height="7.0866108"
       width="7.0866132"
       id="rect620"
       style="font-size:12.000000;fill:#9a999a;fill-opacity:1.0000000;fill-rule:evenodd;stroke-width:1.0000000" />
    <rect
       y="82.047211"
       x="17.716539"
       height="7.0866108"
       width="7.0866151"
       id="rect621"
       style="font-size:12.000000;fill:#ffffff;fill-opacity:0.57669997;fill-rule:evenodd;stroke-width:1.0000000" />
    <rect
       y="92.677132"
       x="14.173230"
       height="7.0866108"
       width="7.0866132"
       id="rect622"
       style="font-size:12.000000;fill:#9a999a;fill-opacity:1.0000000;fill-rule:evenodd;stroke-width:1.0000000" />
    <rect
       y="96.220451"
       x="17.716539"
       height="7.0866108"
       width="7.0866151"
       id="rect623"
       style="font-size:12.000000;fill:#ffffff;fill-opacity:0.57669997;fill-rule:evenodd;stroke-width:1.0000000" />
    <rect
       y="106.85040"
       x="14.173230"
       height="7.0866108"
       width="7.0866132"
       id="rect624"
       style="font-size:12.000000;fill:#9a999a;fill-opacity:1.0000000;fill-rule:evenodd;stroke-width:1.0000000" />
    <rect
       y="110.39370"
       x="17.716539"
       height="7.0866108"
       width="7.0866151"
       id="rect625"
       style="font-size:12.000000;fill:#ffffff;fill-opacity:0.57669997;fill-rule:evenodd;stroke-width:1.0000000" />
    <rect
       y="121.02360"
       x="14.173230"
       height="7.0866108"
       width="7.0866132"
       id="rect626"
       style="font-size:12.000000;fill:#9a999a;fill-opacity:1.0000000;fill-rule:evenodd;stroke-width:1.0000000" />
    <rect
       y="124.56690"
       x="17.716539"
       height="7.0866108"
       width="7.0866151"
       id="rect627"
       style="font-size:12.000000;fill:#ffffff;fill-opacity:0.57669997;fill-rule:evenodd;stroke-width:1.0000000" />
  </g>
  <g
     style="fill:#000000;fill-opacity:0.49999997;stroke:none"
     transform="matrix(0.572627,0.000000,0.000000,0.556526,-57.73293,-125.9984)"
     id="g23">
    <path
       transform="translate(4.865640,17.02960)"
       d="M 143.75600,326.77400 C 144.29400,326.68400 157.70900,333.76500 166.72600,336.21200 C 182.80500,340.32100 197.48200,352.68800 204.57600,359.79200 C 205.10200,360.40000 210.66900,355.62400 216.49500,355.96800 C 224.45300,356.45000 249.07700,363.37400 252.36700,358.65900 C 254.36200,355.89100 254.21900,352.49500 256.70800,351.10400 C 258.04800,350.72900 251.72700,339.16800 258.44500,335.46400 C 263.23500,333.07000 267.29400,346.47300 268.52400,347.97500 C 269.07500,348.64700 271.99800,348.81100 271.65200,347.28000 C 271.27700,345.61700 266.54900,332.75600 272.34700,330.59800 C 281.76400,326.86900 280.09500,347.05400 280.34000,347.62800 C 280.86100,348.85000 313.13700,349.79200 315.09400,364.31000 C 316.22600,372.30000 289.23600,382.62700 286.59600,384.46700 C 283.95700,386.30700 284.17700,389.25000 285.20600,391.07100 C 286.38900,393.04600 294.25200,399.71200 293.20000,402.88700 C 292.47700,404.72100 277.80200,397.99900 276.86500,399.41200 C 274.72800,402.11100 287.54800,408.86700 283.12100,413.66100 C 281.36600,414.80900 261.17400,405.20700 261.22500,405.32000 C 260.68300,405.52600 232.69300,410.43300 211.17900,403.92900 C 210.42100,403.71500 197.37100,416.53500 195.88700,416.09400 C 193.85800,415.35000 198.87800,404.94400 198.32000,402.88700 C 197.40800,401.74100 189.06900,407.54000 188.58900,404.62500 C 188.01500,400.79400 195.90700,396.39000 195.54000,393.85100 C 193.50500,379.42700 196.44900,371.00400 201.44800,363.96300 C 203.11500,361.37100 181.85600,345.31700 166.46500,338.98100 C 151.07500,332.64500 142.84100,327.27500 143.75600,326.77400 z "
       id="path14"
       style="fill:#020202;fill-opacity:1.0000000;fill-rule:evenodd;stroke:#000002;stroke-width:1.0000000pt;stroke-linecap:butt;stroke-linejoin:miter;stroke-opacity:1.0000000" />
    <path
       d="M 286.93400,392.03100 C 286.76500,391.44100 297.43700,384.98600 298.98200,386.47000 C 301.76300,387.47800 287.03200,392.78000 286.93400,392.03100 z "
       id="path7"
       style="fill:#ffffff;fill-opacity:1.0000000;fill-rule:evenodd;stroke:#000000;stroke-width:0.60000000pt;stroke-linecap:butt;stroke-linejoin:miter;stroke-opacity:1.0000000" />
    <path
       d="M 292.03100,397.90100 C 291.09100,397.33300 298.42000,388.78700 300.21800,389.71400 C 302.84300,392.32200 291.90800,398.10400 292.03100,397.90100 z "
       id="path8"
       style="fill:#ffffff;fill-opacity:1.0000000;fill-rule:evenodd;stroke:#000000;stroke-width:0.60000000pt;stroke-linecap:butt;stroke-linejoin:miter;stroke-opacity:1.0000000" />
    <path
       d="M 320.91600,358.35800 C 320.02500,357.62100 313.03800,368.64500 314.58300,369.78900 C 315.51200,370.48400 321.31400,358.75100 320.91600,358.35800 z "
       id="path13"
       style="fill:#020202;fill-opacity:1.0000000;fill-rule:evenodd;stroke:#000000;stroke-width:0.60000000pt;stroke-linecap:butt;stroke-linejoin:miter;stroke-opacity:1.0000000" />
    <ellipse
       sodipodi:ry="3.3981960"
       sodipodi:rx="3.0120370"
       sodipodi:cy="374.58655"
       sodipodi:cx="288.86475"
       transform="matrix(0.925300,0.000000,0.000000,0.933788,22.02830,24.35200)"
       ry="3.3981960"
       rx="3.0120370"
       cy="374.58655"
       cx="288.86475"
       id="ellipse17"
       style="fill:#ffffff;fill-opacity:1.0000000;fill-rule:evenodd;stroke:#000000;stroke-width:0.60000000pt;stroke-linecap:butt;stroke-linejoin:miter;stroke-opacity:1.0000000" />
    <path
       transform="translate(-8.032100,-1.544630)"
       d="M 320.91600,358.35800 C 320.47500,357.84600 318.13500,369.72600 319.21700,370.25200 C 320.14600,370.94700 321.76400,358.97600 320.91600,358.35800 z "
       id="path18"
       style="fill:#020202;fill-opacity:1.0000000;fill-rule:evenodd;stroke:#000000;stroke-width:0.60000000pt;stroke-linecap:butt;stroke-linejoin:miter;stroke-opacity:1.0000000" />
    <path
       transform="translate(-38.30690,14.98300)"
       d="M 321.36600,357.90800 C 318.59500,359.86700 322.88700,370.95300 329.94600,364.48000 C 324.40000,364.64300 322.55000,363.01900 321.36600,357.90800 z "
       id="path21"
       style="fill:#ffffff;fill-opacity:1.0000000;fill-rule:evenodd;stroke:#000000;stroke-width:0.60000000pt;stroke-linecap:butt;stroke-linejoin:miter;stroke-opacity:1.0000000" />
  </g>
  <path
     sodipodi:nodetypes="cccccc"
     id="path680"
     d="M 79.430038,56.739189 L 68.462141,45.819555 L 68.462141,45.819555 L 57.494244,56.739189 L 57.494244,56.739189 L 79.430038,56.739189 z "
     style="font-size:12.000000;fill:#a6a6a6;fill-opacity:1.0000000;fill-rule:evenodd;stroke:none;stroke-width:1.0000000" />
  <path
     sodipodi:nodetypes="cccccc"
     id="path681"
     d="M 82.172006,59.469089 L 71.204109,48.549464 L 71.204109,48.549464 L 60.236220,59.469089 L 60.236220,59.469089 L 82.172006,59.469089 z "
     style="font-size:12.000000;fill:#ffffff;fill-opacity:0.61379999;fill-rule:evenodd;stroke:none;stroke-width:1.0000000" />
  <rect
     y="31.186441"
     x="10.629921"
     height="3.3898306"
     width="141.73228"
     id="rect1317"
     style="stroke-opacity:0.35627529;stroke-miterlimit:4.0000000;stroke-linecap:butt;stroke-width:0.62500000;stroke:none;fill-rule:evenodd;fill-opacity:0.32388663;fill:#ffffff" />
  <rect
     y="125.18644"
     x="10.629921"
     height="3.3898306"
     width="141.73228"
     id="rect2835"
     style="stroke-opacity:0.35627529;stroke-miterlimit:4.0000000;stroke-linecap:butt;stroke-width:0.62500000;stroke:none;fill-rule:evenodd;fill-opacity:0.11336029;fill:#000000" />
</svg>
