<?xml version="1.0" encoding="UTF-8" standalone="no"?>
<!-- Created with Sodipodi ("http://www.sodipodi.com/") -->

<svg
   xmlns:dc="http://purl.org/dc/elements/1.1/"
   xmlns:cc="http://creativecommons.org/ns#"
   xmlns:rdf="http://www.w3.org/1999/02/22-rdf-syntax-ns#"
   xmlns:svg="http://www.w3.org/2000/svg"
   xmlns="http://www.w3.org/2000/svg"
   xmlns:xlink="http://www.w3.org/1999/xlink"
   xmlns:sodipodi="http://sodipodi.sourceforge.net/DTD/sodipodi-0.dtd"
   xmlns:inkscape="http://www.inkscape.org/namespaces/inkscape"
   inkscape:version="0.47pre4 r22446"
   sodipodi:docname="applications-other.svg"
   height="128pt"
   width="128pt"
   sodipodi:version="0.32"
   id="svg623"
   version="1.1">
  <metadata
     id="metadata20">
    <rdf:RDF>
      <cc:Work
         rdf:about="">
        <dc:format>image/svg+xml</dc:format>
        <dc:type
           rdf:resource="http://purl.org/dc/dcmitype/StillImage" />
        <dc:title></dc:title>
      </cc:Work>
    </rdf:RDF>
  </metadata>
  <defs
     id="defs625">
    <inkscape:perspective
       sodipodi:type="inkscape:persp3d"
       inkscape:vp_x="0 : 80 : 1"
       inkscape:vp_y="0 : 1000 : 0"
       inkscape:vp_z="160 : 80 : 1"
       inkscape:persp3d-origin="80 : 53.333333 : 1"
       id="perspective21" />
    <linearGradient
       id="linearGradient692">
      <stop
         id="stop693"
         offset="0"
         style="stop-color:#ffe700;stop-opacity:1.0000;" />
      <stop
         id="stop694"
         offset="1"
         style="stop-color:#ff8f00;stop-opacity:1.0000;" />
    </linearGradient>
    <linearGradient
       id="linearGradient695"
       xlink:href="#linearGradient692" />
    <linearGradient
       xlink:href="#linearGradient826"
       id="linearGradient839"
       x1="43.048252"
       y1="108.43548"
       x2="52.922692"
       y2="118.89303"
       spreadMethod="reflect"
       gradientTransform="matrix(0.945763,0,0,0.932067,4.278885,4.248903)"
       gradientUnits="userSpaceOnUse" />
    <linearGradient
       xlink:href="#linearGradient832"
       id="linearGradient838"
       x1="76.588139"
       y1="55.388818"
       x2="160.80687"
       y2="129.71553"
       spreadMethod="reflect"
       gradientTransform="matrix(0.945884,0,0,0.931948,4.278885,4.248903)"
       gradientUnits="userSpaceOnUse" />
    <linearGradient
       xlink:href="#linearGradient832"
       id="linearGradient831"
       x1="6.8050215"
       y1="82.187533"
       x2="157.20624"
       y2="82.187533"
       gradientTransform="matrix(0.936241,0,0,0.941546,4.278885,4.248903)"
       gradientUnits="userSpaceOnUse" />
    <linearGradient
       xlink:href="#linearGradient826"
       id="linearGradient829"
       x1="0.025641026"
       y1="0.46766168"
       x2="0.43589744"
       y2="0.47761193" />
    <linearGradient
       id="linearGradient826">
      <stop
         style="stop-color:#eed680;stop-opacity:1.0000000;"
         offset="0.0000000"
         id="stop827" />
      <stop
         style="stop-color:#dfb546;stop-opacity:1.0000000;"
         offset="0.34620437"
         id="stop840" />
      <stop
         style="stop-color:#d1940c;stop-opacity:1.0000000;"
         offset="1.0000000"
         id="stop828" />
    </linearGradient>
    <linearGradient
       id="linearGradient832">
      <stop
         style="stop-color:#ffffff;stop-opacity:1.0000000;"
         offset="0.0000000"
         id="stop833" />
      <stop
         style="stop-color:#bdbcbc;stop-opacity:1.0000000;"
         offset="0.50000000"
         id="stop835" />
      <stop
         style="stop-color:#7b7979;stop-opacity:1.0000000;"
         offset="1.0000000"
         id="stop834" />
    </linearGradient>
    <inkscape:perspective
       id="perspective2847"
       inkscape:persp3d-origin="80 : 53.333333 : 1"
       inkscape:vp_z="160 : 80 : 1"
       inkscape:vp_y="0 : 1000 : 0"
       inkscape:vp_x="0 : 80 : 1"
       sodipodi:type="inkscape:persp3d" />
  </defs>
  <sodipodi:namedview
     inkscape:current-layer="svg623"
     inkscape:window-y="34"
     inkscape:window-x="163"
     inkscape:window-height="653"
     inkscape:window-width="640"
     inkscape:cy="80"
     inkscape:cx="80"
     inkscape:zoom="1.0429825"
     snaptogrid="false"
     showgrid="false"
     id="base"
     inkscape:window-maximized="0">
    <inkscape:grid
       id="GridFromPre046Settings"
       type="xygrid"
       originx="0px"
       originy="0px"
       spacingx="1mm"
       spacingy="1mm"
       color="#0000ff"
       empcolor="#0000ff"
       opacity="0.2"
       empopacity="0.4"
       empspacing="5" />
  </sodipodi:namedview>
  <path
     id="path848"
     d="M 50.448943,11.908238 L 35.776733,20.991035 L 64.282742,65.063560 L 16.185839,78.450206 L 16.185839,132.97493 L 16.185839,134.56792 L 65.149101,148.17814 L 109.19368,134.56792 L 109.19368,80.043188 L 123.89384,70.960391 L 94.521466,25.518460 L 50.448943,11.908238 z M 61.460088,28.955949 L 79.821311,57.322222 L 61.460088,28.955949 z "
     style="font-size:12.000000;fill:none;fill-rule:evenodd;stroke:#000000;stroke-width:8.9430618;stroke-linecap:round;stroke-linejoin:round;stroke-opacity:0.49999997" />
  <path
     sodipodi:nodetypes="ccccc"
     id="path611"
     d="M 63.697454,149.99708 L 63.697454,149.99708 L 147.66536,126.14662 L 76.771574,105.16855 L 63.697454,149.99708 z "
     style="font-size:12.000000;fill:#808080;fill-opacity:0.59789997;fill-rule:evenodd;stroke:none;stroke-opacity:1.0000000" />
  <path
     sodipodi:nodetypes="ccccc"
     id="path633"
     d="M 109.19906,80.045303 L 109.19906,134.56059 L 65.137365,120.93169 L 65.137365,66.416464 L 109.19906,80.045303 z "
     style="font-size:12.000000;fill:#515151;fill-rule:evenodd;stroke:#000000;stroke-width:4.4715309;stroke-linecap:round;stroke-linejoin:round" />
  <path
     sodipodi:nodetypes="ccccc"
     id="path631"
     d="M 16.179902,78.445747 L 65.137411,64.816908 L 65.137411,119.33218 L 16.179902,132.96108 L 16.179902,78.445747 z "
     style="font-size:12.000000;fill:#4a494d;fill-rule:evenodd;stroke:#000000;stroke-width:4.4715309;stroke-linecap:round;stroke-linejoin:round" />
  <path
     sodipodi:nodetypes="ccccc"
     id="path635"
     d="M 123.88628,70.959408 L 109.19906,80.045303 L 65.137365,66.416464 L 79.824600,57.330587 L 123.88628,70.959408 z "
     style="font-size:12.000000;fill:#4d4d4a;fill-rule:evenodd;stroke:#000000;stroke-width:4.4715309;stroke-linecap:round;stroke-linejoin:round" />
  <path
     sodipodi:nodetypes="ccccc"
     id="path640"
     d="M 94.511822,25.529976 L 123.88628,70.959408 L 79.824600,57.330587 L 50.450126,11.901149 L 94.511822,25.529976 z "
     style="font-size:12.000000;fill:#363434;fill-rule:evenodd;stroke:#000000;stroke-width:4.4715309;stroke-linecap:round;stroke-linejoin:round" />
  <path
     sodipodi:nodetypes="ccccc"
     id="path638"
     d="M 50.450126,11.901149 L 79.824583,57.330587 L 65.137357,66.416464 L 35.762894,20.987042 L 50.450126,11.901149 z "
     style="font-size:12.000000;fill:#494949;fill-rule:evenodd;stroke:#000000;stroke-width:4.4715309;stroke-linecap:round;stroke-linejoin:round" />
  <path
     sodipodi:nodetypes="ccccc"
     id="path637"
     d="M 94.511822,25.529976 L 123.88628,70.959408 L 109.19906,80.045303 L 79.824600,34.615881 L 94.511822,25.529976 z "
     style="font-size:12.000000;fill:#828482;fill-rule:evenodd;stroke:#000000;stroke-width:4.4715309;stroke-linecap:round;stroke-linejoin:round" />
  <path
     sodipodi:nodetypes="ccccc"
     id="path627"
     d="M 109.19906,80.045303 L 109.19906,134.56059 L 65.137365,148.18939 L 65.137365,93.674161 L 109.19906,80.045303 z "
     style="font-size:12.000000;fill:#808085;fill-rule:evenodd;stroke:#000000;stroke-width:4.4715309;stroke-linecap:round;stroke-linejoin:round" />
  <path
     sodipodi:nodetypes="ccccc"
     id="path629"
     d="M 65.137365,93.674161 L 65.137365,148.18939 L 16.179902,134.56059 L 16.179902,80.045303 L 65.137365,93.674161 z "
     style="font-size:12.000000;fill:#e8e8e8;fill-rule:evenodd;stroke:#000000;stroke-width:4.4715309;stroke-linecap:round;stroke-linejoin:round" />
  <path
     sodipodi:nodetypes="ccccc"
     id="path642"
     d="M 50.450126,11.901149 L 94.511822,25.529976 L 79.824600,34.615881 L 35.762894,20.987042 L 50.450126,11.901149 z "
     style="font-size:12.000000;fill:#e8e8e8;fill-rule:evenodd;stroke:#000000;stroke-width:4.4715309;stroke-linecap:round;stroke-linejoin:round" />
  <g
     id="g2862"
     transform="matrix(0.77270228,0,0,0.77270228,36.794852,32.574679)">
    <path
       style="fill:url(#linearGradient831);fill-rule:evenodd;stroke:#000000;stroke-width:3.54451346;stroke-opacity:0.47741933"
       d="m 120.99099,19.270522 -16.59521,16.682025 2.75008,19.478257 19.34529,2.796234 16.5952,-16.682023 c 0,0 16.57152,16.705866 -2.78956,36.168228 -22.12694,22.242708 -35.93259,2.756494 -44.226247,5.532857 l -66.380825,66.7281 c -5.52779,-0.004 -8.293653,2.77637 -13.817494,-2.79227 -5.52384,-5.56861 -2.757978,-8.34894 -2.754028,-13.91361 L 79.499036,66.540231 C 82.268852,58.195243 62.931461,44.269714 85.058407,22.027015 104.41948,2.5646547 120.99099,19.270522 120.99099,19.270522 z"
       id="path836"
       sodipodi:nodetypes="ccccccccccccc" />
    <path
       style="fill-opacity:0.3677419;fill-rule:evenodd;stroke:#000000;stroke-width:3.57729673;stroke-opacity:0.47096773"
       d="m 92.680282,93.175591 -59.60974,57.949149 c -5.305824,-1.94984 -11.346129,-0.008 -17.015144,-5.53475 -5.669015,-5.52685 -4.473951,-11.91089 -5.660915,-16.57267 l 59.60974,-57.949147 c 5.669015,5.526855 17.007044,16.580563 22.676059,22.107418 z"
       id="path837"
       sodipodi:nodetypes="cccccc" />
    <path
       style="fill:url(#linearGradient838);fill-rule:evenodd;stroke:#000000;stroke-width:3.52083778"
       d="m 120.27333,16.390472 -16.65853,16.397344 2.76057,19.145859 19.4191,2.748518 16.65853,-16.397345 c 0,0 16.63476,16.42078 -2.8002,35.551015 -22.21138,21.863122 -36.06971,2.709454 -44.394989,5.438438 L 28.623679,144.86368 c -5.548884,-0.004 -8.3253,2.72899 -13.870219,-2.74461 -5.5449178,-5.47359 -2.768501,-8.20649 -2.764537,-13.67617 L 78.623054,62.853518 C 81.40344,54.650941 61.992263,40.96305 84.20364,19.099925 c 19.43493,-19.1302349 36.06969,-2.709453 36.06969,-2.709453 z"
       id="path834"
       sodipodi:nodetypes="ccccccccccccc" />
    <path
       style="fill:url(#linearGradient839);fill-rule:evenodd;stroke:#000000;stroke-width:2.34722519"
       d="M 89.701003,90.209774 31.396137,147.60048 c -2.772458,-2.7368 -11.097758,-0.008 -16.642677,-5.48141 C 9.2085422,136.64548 11.988923,128.4429 9.2164642,125.70611 L 67.521329,68.315393 c 5.544919,5.473595 16.634756,16.420783 22.179674,21.894381 z"
       id="path830"
       sodipodi:nodetypes="cccccc" />
  </g>
</svg>
