<?xml version="1.0" encoding="UTF-8" standalone="no"?>
<!-- Created with Inkscape (http://www.inkscape.org/) -->

<svg
   xmlns:dc="http://purl.org/dc/elements/1.1/"
   xmlns:cc="http://creativecommons.org/ns#"
   xmlns:rdf="http://www.w3.org/1999/02/22-rdf-syntax-ns#"
   xmlns:svg="http://www.w3.org/2000/svg"
   xmlns="http://www.w3.org/2000/svg"
   xmlns:xlink="http://www.w3.org/1999/xlink"
   xmlns:sodipodi="http://sodipodi.sourceforge.net/DTD/sodipodi-0.dtd"
   xmlns:inkscape="http://www.inkscape.org/namespaces/inkscape"
   id="svg1"
   sodipodi:version="0.32"
   inkscape:version="0.47 r22583"
   width="128.00000pt"
   height="128.00000pt"
   sodipodi:docname="audio-volume-low.svg"
   version="1.1">
  <metadata
     id="metadata25">
    <rdf:RDF>
      <cc:Work
         rdf:about="">
        <dc:format>image/svg+xml</dc:format>
        <dc:type
           rdf:resource="http://purl.org/dc/dcmitype/StillImage" />
        <dc:title></dc:title>
      </cc:Work>
    </rdf:RDF>
  </metadata>
  <defs
     id="defs3">
    <inkscape:perspective
       sodipodi:type="inkscape:persp3d"
       inkscape:vp_x="0 : 80 : 1"
       inkscape:vp_y="0 : 1000 : 0"
       inkscape:vp_z="160 : 80 : 1"
       inkscape:persp3d-origin="80 : 53.333333 : 1"
       id="perspective27" />
    <linearGradient
       id="linearGradient850">
      <stop
         style="stop-color:#eed680;stop-opacity:1.0000000;"
         offset="0.0000000"
         id="stop852" />
      <stop
         style="stop-color:#dfb546;stop-opacity:1.0000000;"
         offset="0.68035328"
         id="stop858" />
      <stop
         style="stop-color:#d8a429;stop-opacity:1.0000000;"
         offset="0.77277374"
         id="stop859" />
      <stop
         style="stop-color:#d1940c;stop-opacity:1.0000000;"
         offset="1.0000000"
         id="stop857" />
    </linearGradient>
    <linearGradient
       xlink:href="#linearGradient850"
       id="linearGradient569"
       x1="0.11875000"
       y1="0.12612613"
       x2="0.59375000"
       y2="0.66066068"
       spreadMethod="pad" />
    <linearGradient
       id="linearGradient839">
      <stop
         style="stop-color:#46a046;stop-opacity:1.0000000;"
         offset="0.0000000"
         id="stop840" />
      <stop
         style="stop-color:#df421e;stop-opacity:1.0000000;"
         offset="0.39364964"
         id="stop841" />
      <stop
         style="stop-color:#ada7c8;stop-opacity:1.0000000;"
         offset="0.72036445"
         id="stop842" />
      <stop
         style="stop-color:#eed680;stop-opacity:1.0000000;"
         offset="1.0000000"
         id="stop843" />
    </linearGradient>
    <linearGradient
       xlink:href="#linearGradient839"
       id="linearGradient836"
       x1="1.3267924e-17"
       y1="0.50000000"
       x2="1.0000000"
       y2="0.50000000" />
  </defs>
  <sodipodi:namedview
     id="base"
     pagecolor="#ffffff"
     bordercolor="#666666"
     borderopacity="1.0"
     inkscape:pageopacity="0.0"
     inkscape:pageshadow="2"
     inkscape:zoom="3.5521067"
     inkscape:cx="71.80826"
     inkscape:cy="33.913943"
     inkscape:window-width="751"
     inkscape:window-height="776"
     showgrid="true"
     snaptogrid="true"
     inkscape:window-x="142"
     inkscape:window-y="1"
     inkscape:window-maximized="0"
     inkscape:current-layer="svg1">
    <inkscape:grid
       id="GridFromPre046Settings"
       type="xygrid"
       originx="0px"
       originy="0px"
       spacingx="1.0000000mm"
       spacingy="1.0000000mm"
       color="#0000ff"
       empcolor="#0000ff"
       opacity="0.2"
       empopacity="0.4"
       empspacing="5" />
  </sodipodi:namedview>
  <path
     style="fill:none;fill-rule:evenodd;stroke:#000000;stroke-width:5.0000000;stroke-linejoin:round;stroke-linecap:round;stroke-dasharray:none;stroke-opacity:0.50000000;"
     d="M 57.734066 24.879831 C 49.821791 24.084578 42.586355 28.859049 38.313996 35.209606 C 28.735268 47.183014 19.156542 59.156422 9.5778151 71.129829 C 4.1399947 79.256788 5.1012394 91.403187 12.543975 97.944101 C 16.785251 101.37789 21.465146 104.05809 26.414785 106.32432 C 38.635796 112.42616 50.856806 118.52799 63.077816 124.62983 C 66.524218 125.05723 73.051306 127.11714 77.628670 125.12551 C 89.672954 121.33950 95.404202 108.24595 97.062365 96.666840 C 99.877584 75.193830 93.414344 52.153999 78.676533 36.095096 C 73.134382 30.321894 65.928119 25.451813 57.734066 24.879831 z "
     id="path853" />
  <g
     id="g838"
     transform="matrix(-1.474779,0.000000,0.000000,1.474779,172.9941,-14.34704)">
    <path
       style="fill:#4b6983;fill-rule:evenodd;stroke:#000000;stroke-width:1.5059674;stroke-linejoin:round;"
       d="M 89.725711,30.433362 L 74.778985,94.455805 L 104.65881,79.520341 C 107.41966,77.077142 110.92444,76.441725 112.63525,70.717991 C 114.25030,65.314633 113.28001,62.195194 111.06214,58.175920 L 111.06214,58.175920 L 89.725711,30.433362 z "
       id="path831"
       sodipodi:nodetypes="ccccccc" />
    <path
       sodipodi:type="arc"
       style="fill-rule:evenodd;stroke:#000000;stroke-width:5.0000000;fill:#9db8d2;fill-opacity:1.0000000;stroke-dasharray:none;"
       id="path825"
       sodipodi:cx="100.98425"
       sodipodi:cy="78.503937"
       sodipodi:rx="44.291340"
       sodipodi:ry="70.866142"
       d="m 145.27559,78.503937 c 0,39.138293 -19.82991,70.866143 -44.29134,70.866143 -24.461429,0 -44.291337,-31.72785 -44.291337,-70.866143 0,-39.13829 19.829908,-70.8661425 44.291337,-70.8661425 24.46143,0 44.29134,31.7278525 44.29134,70.8661425 z"
       transform="matrix(0.477735,0.122682,-0.122682,0.477735,35.52938,11.17656)" />
    <path
       sodipodi:type="arc"
       style="fill-rule:evenodd;stroke:#000000;stroke-width:2.2747321;stroke-dasharray:none;fill:#7590ae;fill-opacity:1.0000000;"
       id="path826"
       sodipodi:cx="102.75591"
       sodipodi:cy="85.590553"
       sodipodi:rx="28.346457"
       sodipodi:ry="56.692913"
       d="m 131.10237,85.590553 c 0,31.310627 -12.69114,56.692917 -28.34646,56.692917 -15.655313,0 -28.346454,-25.38229 -28.346454,-56.692917 0,-31.310631 12.691141,-56.692913 28.346454,-56.692913 15.65532,0 28.34646,25.382282 28.34646,56.692913 z"
       transform="matrix(0.575251,0.147724,-0.135083,0.526023,24.05911,0.197551)" />
    <path
       sodipodi:type="arc"
       style="fill-rule:evenodd;stroke:#000000;stroke-width:1.0000000pt;fill:#314e6c;fill-opacity:1.0000000;"
       id="path827"
       sodipodi:cx="33.661419"
       sodipodi:cy="51.929134"
       sodipodi:rx="12.401575"
       sodipodi:ry="19.488190"
       d="m 46.062994,51.929134 c 0,10.76303 -5.552374,19.48819 -12.401575,19.48819 -6.849201,0 -12.401575,-8.72516 -12.401575,-19.48819 0,-10.76303 5.552374,-19.488189 12.401575,-19.488189 6.849201,0 12.401575,8.725159 12.401575,19.488189 z"
       transform="matrix(0.477735,0.122682,-0.140577,0.547423,70.71934,29.45280)" />
  </g>
</svg>
