<?xml version="1.0" encoding="UTF-8" standalone="no"?>
<!-- Created with Inkscape (http://www.inkscape.org/) -->
<svg
   xmlns:dc="http://purl.org/dc/elements/1.1/"
   xmlns:cc="http://web.resource.org/cc/"
   xmlns:rdf="http://www.w3.org/1999/02/22-rdf-syntax-ns#"
   xmlns:svg="http://www.w3.org/2000/svg"
   xmlns="http://www.w3.org/2000/svg"
   xmlns:xlink="http://www.w3.org/1999/xlink"
   xmlns:sodipodi="http://inkscape.sourceforge.net/DTD/sodipodi-0.dtd"
   xmlns:inkscape="http://www.inkscape.org/namespaces/inkscape"
   sodipodi:docname="stock_repeat.svg"
   sodipodi:docbase="/home/francois/Rodent/scalable/stock"
   inkscape:version="0.41"
   sodipodi:version="0.32"
   id="svg1329"
   height="128.00000pt"
   width="128.00000pt">
  <defs
     id="defs3">
    <linearGradient
       id="linearGradient857">
      <stop
         id="stop858"
         offset="0.0000000"
         style="stop-color:#eed680;stop-opacity:1.0000000;" />
      <stop
         id="stop860"
         offset="1.0000000"
         style="stop-color:#d1940c;stop-opacity:1.0000000;" />
    </linearGradient>
    <radialGradient
       gradientUnits="userSpaceOnUse"
       fy="53.749325"
       fx="51.894654"
       r="85.454695"
       cy="53.749330"
       cx="52.382897"
       id="radialGradient853"
       xlink:href="#linearGradient857" />
    <radialGradient
       gradientTransform="matrix(0.899436,0.000000,0.000000,0.899436,8.250600,8.195520)"
       r="85.454695"
       fy="53.749325"
       fx="51.894654"
       cy="53.749330"
       cx="52.382897"
       gradientUnits="userSpaceOnUse"
       id="radialGradient2107"
       xlink:href="#linearGradient857"
       inkscape:collect="always" />
    <radialGradient
       r="85.454695"
       fy="53.749325"
       fx="51.894654"
       cy="53.749330"
       cx="52.382897"
       gradientUnits="userSpaceOnUse"
       id="radialGradient2141"
       xlink:href="#linearGradient857"
       inkscape:collect="always" />
    <radialGradient
       fy="0.33021802"
       fx="0.32187498"
       r="0.54695481"
       cy="0.33021805"
       cx="0.32499999"
       id="radialGradient2209"
       xlink:href="#linearGradient566" />
    <linearGradient
       y2="0.24324325"
       x2="0.33208954"
       y1="0.50450450"
       x1="0.53358209"
       id="linearGradient847"
       xlink:href="#linearGradient849" />
    <linearGradient
       y2="0.72522521"
       x2="0.43801653"
       y1="0.15765765"
       x1="0.80165291"
       id="linearGradient842"
       xlink:href="#linearGradient843" />
    <linearGradient
       y2="0.049549550"
       x2="0.47999999"
       y1="0.35135135"
       x1="0.35333332"
       id="linearGradient841"
       xlink:href="#linearGradient838" />
    <linearGradient
       id="linearGradient838">
      <stop
         id="stop839"
         offset="0.0000000"
         style="stop-color:#ffd000;stop-opacity:1.0000000;" />
      <stop
         id="stop840"
         offset="1.0000000"
         style="stop-color:#5c5d5c;stop-opacity:1.0000000;" />
    </linearGradient>
    <linearGradient
       id="linearGradient843">
      <stop
         id="stop844"
         offset="0.0000000"
         style="stop-color:#ffffff;stop-opacity:1.0000000;" />
      <stop
         id="stop845"
         offset="1.0000000"
         style="stop-color:#5c5d5c;stop-opacity:1.0000000;" />
    </linearGradient>
    <linearGradient
       id="linearGradient849">
      <stop
         id="stop850"
         offset="0.0000000"
         style="stop-color:#ffc900;stop-opacity:1.0000000;" />
      <stop
         id="stop851"
         offset="1.0000000"
         style="stop-color:#5d5d5c;stop-opacity:1.0000000;" />
    </linearGradient>
    <linearGradient
       spreadMethod="reflect"
       y2="0.57812500"
       x2="0.44374999"
       y1="0.046875000"
       x1="0.44374999"
       id="linearGradient589"
       xlink:href="#linearGradient566" />
    <linearGradient
       gradientUnits="userSpaceOnUse"
       gradientTransform="matrix(0.340285,0.000000,0.000000,0.323614,33.95591,109.7730)"
       spreadMethod="pad"
       y2="114.95580"
       x2="115.17990"
       y1="40.033262"
       x1="43.328550"
       id="linearGradient569"
       xlink:href="#linearGradient850" />
    <linearGradient
       id="linearGradient860">
      <stop
         id="stop861"
         offset="0.0000000"
         style="stop-color:#ffffff;stop-opacity:1.0000000;" />
      <stop
         id="stop862"
         offset="0.25000000"
         style="stop-color:#ffea7d;stop-opacity:1.0000000;" />
      <stop
         id="stop863"
         offset="1"
         style="stop-color:#ffbf00;stop-opacity:1.0000;" />
    </linearGradient>
    <linearGradient
       id="linearGradient566">
      <stop
         id="stop567"
         offset="0.0000000"
         style="stop-color:#ffff00;stop-opacity:1.0000000;" />
      <stop
         id="stop854"
         offset="0.43829629"
         style="stop-color:#ffd800;stop-opacity:1.0000000;" />
      <stop
         id="stop568"
         offset="1.0000000"
         style="stop-color:#ffb200;stop-opacity:1.0000000;" />
    </linearGradient>
    <linearGradient
       id="linearGradient850">
      <stop
         id="stop852"
         offset="0.0000000"
         style="stop-color:#eed680;stop-opacity:1.0000000;" />
      <stop
         id="stop855"
         offset="1.0000000"
         style="stop-color:#d1940c;stop-opacity:1.0000000;" />
    </linearGradient>
    <linearGradient
       y2="114.95580"
       x2="115.17990"
       y1="40.033262"
       x1="43.328550"
       spreadMethod="pad"
       gradientTransform="matrix(0.333196,0.000000,0.000000,0.316872,39.39583,109.8199)"
       gradientUnits="userSpaceOnUse"
       id="linearGradient2215"
       xlink:href="#linearGradient850"
       inkscape:collect="always" />
    <linearGradient
       y2="114.95580"
       x2="115.17990"
       y1="40.033262"
       x1="43.328550"
       spreadMethod="pad"
       gradientTransform="matrix(0.309259,0.000000,0.000000,0.294108,45.60998,112.2504)"
       gradientUnits="userSpaceOnUse"
       id="linearGradient2220"
       xlink:href="#linearGradient850"
       inkscape:collect="always" />
    <radialGradient
       gradientTransform="matrix(-1.000000,0.000000,0.000000,-1.000000,159.9062,160.8627)"
       r="85.454695"
       fy="53.749325"
       fx="51.894654"
       cy="53.749330"
       cx="52.382897"
       gradientUnits="userSpaceOnUse"
       id="radialGradient2229"
       xlink:href="#linearGradient857"
       inkscape:collect="always" />
    <radialGradient
       gradientTransform="matrix(0.000000,1.000000,-1.000000,0.000000,160.3906,0.484372)"
       r="85.454695"
       fy="53.749325"
       fx="51.894654"
       cy="53.749330"
       cx="52.382897"
       gradientUnits="userSpaceOnUse"
       id="radialGradient2234"
       xlink:href="#linearGradient857"
       inkscape:collect="always" />
    <radialGradient
       gradientTransform="matrix(0.903212,0.000000,0.000000,0.903212,7.275967,7.016252)"
       r="85.454695"
       fy="53.749325"
       fx="51.894654"
       cy="53.749330"
       cx="52.382897"
       gradientUnits="userSpaceOnUse"
       id="radialGradient2237"
       xlink:href="#linearGradient857"
       inkscape:collect="always" />
  </defs>
  <sodipodi:namedview
     inkscape:window-y="34"
     inkscape:window-x="363"
     inkscape:window-height="653"
     inkscape:window-width="640"
     showgrid="true"
     inkscape:current-layer="layer1"
     inkscape:document-units="px"
     inkscape:cy="80.000000"
     inkscape:cx="80.000000"
     inkscape:zoom="2.9500000"
     inkscape:pageshadow="2"
     inkscape:pageopacity="0.0"
     borderopacity="1.0"
     bordercolor="#666666"
     pagecolor="#ffffff"
     id="base" />
  <metadata
     id="metadata4">
    <rdf:RDF
       id="RDF5">
      <cc:Work
         id="Work6"
         rdf:about="">
        <dc:format
           id="format7">image/svg+xml</dc:format>
        <dc:type
           rdf:resource="http://purl.org/dc/dcmitype/StillImage"
           id="type9" />
      </cc:Work>
    </rdf:RDF>
  </metadata>
  <g
     id="layer1"
     inkscape:groupmode="layer"
     inkscape:label="Layer 1">
    <path
       id="path2086"
       d="M 79.617615,12.181497 L 79.617615,20.620885 C 79.579679,20.620814 79.542667,20.620885 79.504714,20.620885 C 76.522079,20.620885 73.617039,20.925484 70.754846,21.354745 C 70.716444,21.360505 70.680322,21.377137 70.641945,21.382971 C 70.161826,21.452300 69.678075,21.496324 69.202450,21.580548 C 69.038737,21.609382 68.885844,21.663319 68.722619,21.693450 C 66.060460,22.189201 63.455422,22.827345 60.932414,23.669226 C 60.923862,23.672080 60.912739,23.666369 60.904189,23.669226 C 58.172398,24.582182 55.538666,25.713339 53.001083,26.999821 C 52.772223,27.114503 52.522369,27.192165 52.295448,27.310300 C 52.183458,27.368743 52.068308,27.420514 51.956744,27.479653 C 51.647958,27.642932 51.386163,27.874586 51.081757,28.044160 C 48.911931,29.247684 46.807878,30.565712 44.815723,32.023939 C 44.771445,32.056276 44.718811,32.076185 44.674596,32.108615 C 44.625814,32.144480 44.582039,32.185888 44.533469,32.221516 C 42.122232,34.007989 39.871422,35.967763 37.759378,38.092395 C 37.354211,38.498590 36.967168,38.916518 36.573912,39.334312 C 35.953494,39.995373 35.301088,40.621178 34.711037,41.310088 C 34.189947,41.918484 33.794282,42.626931 33.299768,43.257639 C 32.722396,43.988204 32.064483,44.644736 31.521569,45.402768 C 31.486271,45.452198 31.443811,45.494352 31.408667,45.543895 C 30.919881,46.230781 30.568204,47.009476 30.110300,47.717249 C 29.769695,48.245420 29.334799,48.702682 29.009510,49.241420 C 28.804051,49.580629 28.587310,49.913893 28.388552,50.257534 C 27.865019,51.165525 27.368363,52.086043 26.892607,53.023621 C 26.841146,53.124638 26.802462,53.232677 26.751480,53.334100 C 26.745664,53.345715 26.729063,53.350705 26.723255,53.362325 C 26.689446,53.430071 26.643907,53.492011 26.610353,53.559903 C 26.569494,53.642427 26.538025,53.731223 26.497452,53.813931 C 26.295031,54.225675 26.097095,54.639305 25.904719,55.055848 C 25.429184,56.089800 24.966349,57.123836 24.549900,58.188865 C 24.315734,58.785177 24.115800,59.389661 23.900717,59.995289 C 23.752126,60.415416 23.618041,60.842485 23.477336,61.265431 C 23.355041,61.632453 23.167779,61.967312 23.053955,62.337996 L 12.017832,79.555477 L 20.457220,79.555477 C 20.457148,79.593410 20.457220,79.602200 20.457220,79.640153 C 20.457220,82.627136 20.759805,85.551789 21.191080,88.418246 C 21.209540,88.540939 21.228312,88.662733 21.247531,88.785176 C 21.301721,89.181197 21.347467,89.578637 21.416883,89.970642 C 21.435707,90.077516 21.482183,90.174455 21.501559,90.281121 C 22.533200,95.897885 24.328781,101.23301 26.836156,106.17200 C 26.950838,106.40086 27.028500,106.65072 27.146635,106.87764 C 27.205078,106.98963 27.256849,107.10478 27.315988,107.21634 C 27.483001,107.53220 27.706899,107.80828 27.880495,108.11956 C 29.068487,110.25693 30.368783,112.30776 31.803823,114.27269 C 31.856065,114.34441 31.892465,114.42693 31.944950,114.49849 C 31.993160,114.56406 32.038240,114.63087 32.086077,114.69607 C 33.850193,117.06868 35.809140,119.27521 37.900505,121.35726 C 38.334496,121.79075 38.779850,122.20752 39.227098,122.62740 C 39.848849,123.20956 40.443724,123.82204 41.089973,124.37737 C 41.110104,124.39468 41.126264,124.41655 41.146423,124.43382 C 41.156358,124.44237 41.164704,124.45351 41.174649,124.46205 C 41.737866,124.94407 42.399018,125.30145 42.981073,125.76042 C 43.750139,126.37146 44.439435,127.07878 45.239103,127.65152 C 45.288532,127.68682 45.330687,127.72928 45.380230,127.76442 C 46.145918,128.30928 47.016004,128.69739 47.807613,129.20391 C 48.280229,129.50547 48.681256,129.90228 49.162431,130.19180 C 49.426349,130.35116 49.686150,130.51632 49.952742,130.67163 C 50.906451,131.22523 51.873431,131.75150 52.859956,132.25225 C 52.878766,132.26181 52.897584,132.27094 52.916406,132.28048 C 53.014858,132.33036 53.099881,132.40045 53.198660,132.44983 C 53.266405,132.48364 53.328346,132.52918 53.396238,132.56273 C 53.587743,132.65755 53.796468,132.72351 53.988971,132.81676 C 54.344259,132.99023 54.700858,133.15965 55.061535,133.32482 C 55.980291,133.74413 56.912614,134.13748 57.855848,134.51028 C 58.571317,134.79393 59.300283,135.04451 60.029202,135.30060 C 60.234274,135.37242 60.444960,135.42797 60.650160,135.49817 C 61.171818,135.67770 61.645238,135.95667 62.174331,136.11913 L 79.363587,147.15525 L 79.363587,138.71587 C 79.401523,138.71594 79.438535,138.71587 79.476488,138.71587 C 83.035618,138.71587 86.479581,138.30770 89.863428,137.69975 C 92.686209,137.19262 95.465718,136.53472 98.133472,135.63930 C 100.88258,134.71658 103.51273,133.58141 106.06480,132.28048 C 106.29377,132.16527 106.54306,132.08866 106.77044,131.97000 C 106.83400,131.93683 106.90459,131.91872 106.96802,131.88532 C 106.99811,131.86943 107.02262,131.84482 107.05269,131.82887 C 107.40936,131.64030 107.71676,131.37613 108.06881,131.17969 C 110.03476,130.07960 111.95050,128.90520 113.77033,127.59507 C 113.96932,127.45236 114.19406,127.34470 114.39129,127.19991 C 114.49928,127.12044 114.59640,127.02783 114.70177,126.94588 C 116.88092,125.31305 118.92180,123.52224 120.85490,121.61129 C 121.12191,121.34963 121.43987,121.14509 121.70166,120.87743 C 122.07924,120.49138 122.37968,120.03338 122.74600,119.63551 C 123.22898,119.11240 123.74953,118.62329 124.21372,118.08311 C 124.23103,118.06298 124.25289,118.04682 124.27017,118.02666 C 124.27872,118.01673 124.28986,118.00838 124.29840,117.99844 C 124.73278,117.49089 125.04001,116.88426 125.45564,116.36137 C 126.09227,115.55998 126.83425,114.84840 127.43142,114.01866 C 127.48191,113.94849 127.55057,113.89148 127.60077,113.82108 C 127.62498,113.78702 127.63308,113.74229 127.65722,113.70818 C 128.18473,112.96513 128.57762,112.13242 129.06849,111.36547 C 129.36697,110.89741 129.74147,110.48711 130.02815,110.01066 C 130.18751,109.74674 130.35267,109.48694 130.50798,109.22035 C 131.06159,108.26663 131.58785,107.29966 132.08860,106.31313 C 132.11154,106.26812 132.12219,106.21705 132.14505,106.17200 C 132.20071,106.06187 132.28759,105.97208 132.34263,105.86153 C 132.41002,105.72618 132.44538,105.57398 132.51198,105.43814 C 132.72993,104.99712 132.95561,104.56042 133.16117,104.11155 C 133.58047,103.19280 133.97382,102.26047 134.34663,101.31724 C 134.63028,100.60177 134.88086,99.872804 135.13694,99.143885 C 135.22845,98.882631 135.30217,98.615126 135.39097,98.353574 C 135.55251,97.879352 135.80793,97.451030 135.95548,96.970531 L 146.99160,79.781280 L 138.52399,79.781280 C 138.52407,79.743342 138.55221,79.706332 138.55221,79.668379 C 138.55221,76.678817 138.22135,73.787035 137.79013,70.918511 C 137.73661,70.559958 137.67820,70.203125 137.62078,69.845947 C 137.59066,69.668027 137.56782,69.487035 137.53610,69.309664 C 137.53249,69.289252 137.51151,69.273622 137.50788,69.253214 C 136.47716,63.524320 134.65095,58.105394 132.08860,53.080071 C 131.97877,52.862182 131.91931,52.619106 131.80635,52.402662 C 131.77318,52.339102 131.75506,52.268509 131.72167,52.205085 C 131.70579,52.174984 131.68116,52.150478 131.66522,52.120409 C 131.48274,51.775256 131.23412,51.473342 131.04426,51.132520 C 129.97725,49.220756 128.81036,47.374373 127.54432,45.600346 C 127.35839,45.339186 127.22576,45.039968 127.03626,44.781810 C 126.91211,44.613102 126.79769,44.438214 126.66933,44.273753 C 126.60798,44.195137 126.53233,44.127623 126.47175,44.047950 C 124.91357,42.004830 123.22508,40.084802 121.41941,38.261747 C 121.17170,38.009554 120.96686,37.718966 120.71378,37.471437 C 120.38018,37.145157 119.98368,36.886103 119.64121,36.568225 C 119.04276,36.011587 118.48405,35.406619 117.86301,34.874702 C 117.29030,34.384182 116.62088,34.015067 116.02836,33.548109 C 115.28711,32.963875 114.62016,32.292367 113.85501,31.741685 C 113.78484,31.691184 113.72783,31.622532 113.65743,31.572332 C 113.62337,31.548118 113.57864,31.540025 113.54453,31.515882 C 112.88432,31.047187 112.13493,30.713686 111.45585,30.273965 C 110.92768,29.933360 110.47042,29.498464 109.93168,29.173175 C 109.59247,28.967717 109.25920,28.750975 108.91557,28.552217 C 108.00758,28.028684 107.08706,27.532028 106.14948,27.056272 C 106.01859,26.989592 105.88590,26.924563 105.75432,26.858694 C 105.73553,26.849284 105.71668,26.839861 105.69787,26.830469 C 105.67144,26.817305 105.63965,26.815377 105.61320,26.802243 C 105.11613,26.554917 104.62163,26.301325 104.11725,26.068384 C 103.08330,25.592850 102.04927,25.130014 100.98424,24.713565 C 100.38793,24.479399 99.783442,24.279465 99.177811,24.064382 C 98.704401,23.896945 98.215448,23.770038 97.738317,23.612776 C 97.415798,23.506361 97.132297,23.317544 96.806879,23.217620 L 79.617615,12.181497 z M 79.532939,39.334312 C 79.561661,39.334312 79.588907,39.334252 79.617615,39.334312 L 79.617615,46.926939 L 89.383596,40.660905 C 95.795959,42.256143 101.56379,45.404004 106.37528,49.608350 C 106.53816,49.757015 106.72289,49.880485 106.88334,50.031730 C 107.71086,50.778826 108.43418,51.619166 109.19782,52.430888 C 110.45504,53.825772 111.72465,55.218933 112.78244,56.777596 C 112.81637,56.827590 112.86163,56.868571 112.89535,56.918723 C 112.91924,56.952763 112.92800,56.997507 112.95180,57.031625 C 117.28602,63.522107 119.83879,71.336338 119.83879,79.724829 C 119.83879,79.753549 119.83884,79.752572 119.83879,79.781280 L 112.24616,79.781280 L 118.51220,89.547261 C 116.95868,95.791884 113.91287,101.43569 109.87523,106.17200 C 109.57720,106.50693 109.33720,106.89141 109.02847,107.21634 C 108.35620,107.95449 107.57921,108.58989 106.85511,109.27680 C 105.37759,110.62003 103.88888,111.94129 102.22615,113.05900 C 95.715022,117.43588 87.881687,120.00244 79.448263,120.00244 C 79.419560,120.00244 79.392275,120.00250 79.363587,120.00244 L 79.363587,112.40981 L 69.625831,118.67585 C 63.355395,117.12146 57.694372,114.09496 52.944632,110.03888 C 52.625443,109.75400 52.266823,109.51497 51.956744,109.22035 C 51.203030,108.53469 50.568367,107.73018 49.868065,106.99054 C 48.602833,105.59491 47.320153,104.20468 46.255217,102.64383 C 46.156695,102.50563 46.069790,102.35993 45.972963,102.22045 C 41.672879,95.746696 39.170647,87.964331 39.170647,79.611928 C 39.170646,79.583222 39.170584,79.555940 39.170647,79.527252 L 46.763274,79.555477 L 40.497240,69.789496 C 42.081750,63.397528 45.183246,57.658520 49.360009,52.854268 C 49.530883,52.665970 49.665530,52.446610 49.839840,52.261535 C 50.607193,51.411382 51.488162,50.673248 52.323673,49.890604 C 53.719908,48.637335 55.110954,47.388113 56.670382,46.334206 C 56.715873,46.303461 56.765888,46.280095 56.811509,46.249530 C 63.312309,41.894061 71.122051,39.334312 79.532939,39.334312 z "
       style="fill:none;fill-opacity:1.0000000;fill-rule:evenodd;stroke:#000000;stroke-width:8.0000000;stroke-miterlimit:4.0000000;stroke-dasharray:none;stroke-opacity:0.30769232" />
    <path
       id="path852"
       d="M 79.617615,12.181497 L 79.617615,20.620885 C 79.579679,20.620814 79.542667,20.620885 79.504714,20.620885 C 76.522079,20.620885 73.617039,20.925484 70.754846,21.354745 C 70.716444,21.360505 70.680322,21.377137 70.641945,21.382971 C 70.161826,21.452300 69.678075,21.496324 69.202450,21.580548 C 69.038737,21.609382 68.885844,21.663319 68.722619,21.693450 C 66.060460,22.189201 63.455422,22.827345 60.932414,23.669226 C 60.923862,23.672080 60.912739,23.666369 60.904189,23.669226 C 58.172398,24.582182 55.538666,25.713339 53.001083,26.999821 C 52.772223,27.114503 52.522369,27.192165 52.295448,27.310300 C 52.183458,27.368743 52.068308,27.420514 51.956744,27.479653 C 51.647958,27.642932 51.386163,27.874586 51.081757,28.044160 C 48.911931,29.247684 46.807878,30.565712 44.815723,32.023939 C 44.771445,32.056276 44.718811,32.076185 44.674596,32.108615 C 44.625814,32.144480 44.582039,32.185888 44.533469,32.221516 C 42.122232,34.007989 39.871422,35.967763 37.759378,38.092395 C 37.354211,38.498590 36.967168,38.916518 36.573912,39.334312 C 35.953494,39.995373 35.301088,40.621178 34.711037,41.310088 C 34.189947,41.918484 33.794282,42.626931 33.299768,43.257639 C 32.722396,43.988204 32.064483,44.644736 31.521569,45.402768 C 31.486271,45.452198 31.443811,45.494352 31.408667,45.543895 C 30.919881,46.230781 30.568204,47.009476 30.110300,47.717249 C 29.769695,48.245420 29.334799,48.702682 29.009510,49.241420 C 28.804051,49.580629 28.587310,49.913893 28.388552,50.257534 C 27.865019,51.165525 27.368363,52.086043 26.892607,53.023621 C 26.841146,53.124638 26.802462,53.232677 26.751480,53.334100 C 26.745664,53.345715 26.729063,53.350705 26.723255,53.362325 C 26.689446,53.430071 26.643907,53.492011 26.610353,53.559903 C 26.569494,53.642427 26.538025,53.731223 26.497452,53.813931 C 26.295031,54.225675 26.097095,54.639305 25.904719,55.055848 C 25.429184,56.089800 24.966349,57.123836 24.549900,58.188865 C 24.315734,58.785177 24.115800,59.389661 23.900717,59.995289 C 23.752126,60.415416 23.618041,60.842485 23.477336,61.265431 C 23.355041,61.632453 23.167779,61.967312 23.053955,62.337996 L 12.017832,79.555477 L 20.457220,79.555477 C 20.457148,79.593410 20.457220,79.602200 20.457220,79.640153 C 20.457220,82.627136 20.759805,85.551789 21.191080,88.418246 C 21.209540,88.540939 21.228312,88.662733 21.247531,88.785176 C 21.301721,89.181197 21.347467,89.578637 21.416883,89.970642 C 21.435707,90.077516 21.482183,90.174455 21.501559,90.281121 C 22.533200,95.897885 24.328781,101.23301 26.836156,106.17200 C 26.950838,106.40086 27.028500,106.65072 27.146635,106.87764 C 27.205078,106.98963 27.256849,107.10478 27.315988,107.21634 C 27.483001,107.53220 27.706899,107.80828 27.880495,108.11956 C 29.068487,110.25693 30.368783,112.30776 31.803823,114.27269 C 31.856065,114.34441 31.892465,114.42693 31.944950,114.49849 C 31.993160,114.56406 32.038240,114.63087 32.086077,114.69607 C 33.850193,117.06868 35.809140,119.27521 37.900505,121.35726 C 38.334496,121.79075 38.779850,122.20752 39.227098,122.62740 C 39.848849,123.20956 40.443724,123.82204 41.089973,124.37737 C 41.110104,124.39468 41.126264,124.41655 41.146423,124.43382 C 41.156358,124.44237 41.164704,124.45351 41.174649,124.46205 C 41.737866,124.94407 42.399018,125.30145 42.981073,125.76042 C 43.750139,126.37146 44.439435,127.07878 45.239103,127.65152 C 45.288532,127.68682 45.330687,127.72928 45.380230,127.76442 C 46.145918,128.30928 47.016004,128.69739 47.807613,129.20391 C 48.280229,129.50547 48.681256,129.90228 49.162431,130.19180 C 49.426349,130.35116 49.686150,130.51632 49.952742,130.67163 C 50.906451,131.22523 51.873431,131.75150 52.859956,132.25225 C 52.878766,132.26181 52.897584,132.27094 52.916406,132.28048 C 53.014858,132.33036 53.099881,132.40045 53.198660,132.44983 C 53.266405,132.48364 53.328346,132.52918 53.396238,132.56273 C 53.587743,132.65755 53.796468,132.72351 53.988971,132.81676 C 54.344259,132.99023 54.700858,133.15965 55.061535,133.32482 C 55.980291,133.74413 56.912614,134.13748 57.855848,134.51028 C 58.571317,134.79393 59.300283,135.04451 60.029202,135.30060 C 60.234274,135.37242 60.444960,135.42797 60.650160,135.49817 C 61.171818,135.67770 61.645238,135.95667 62.174331,136.11913 L 79.363587,147.15525 L 79.363587,138.71587 C 79.401523,138.71594 79.438535,138.71587 79.476488,138.71587 C 83.035618,138.71587 86.479581,138.30770 89.863428,137.69975 C 92.686209,137.19262 95.465718,136.53472 98.133472,135.63930 C 100.88258,134.71658 103.51273,133.58141 106.06480,132.28048 C 106.29377,132.16527 106.54306,132.08866 106.77044,131.97000 C 106.83400,131.93683 106.90459,131.91872 106.96802,131.88532 C 106.99811,131.86943 107.02262,131.84482 107.05269,131.82887 C 107.40936,131.64030 107.71676,131.37613 108.06881,131.17969 C 110.03476,130.07960 111.95050,128.90520 113.77033,127.59507 C 113.96932,127.45236 114.19406,127.34470 114.39129,127.19991 C 114.49928,127.12044 114.59640,127.02783 114.70177,126.94588 C 116.88092,125.31305 118.92180,123.52224 120.85490,121.61129 C 121.12191,121.34963 121.43987,121.14509 121.70166,120.87743 C 122.07924,120.49138 122.37968,120.03338 122.74600,119.63551 C 123.22898,119.11240 123.74953,118.62329 124.21372,118.08311 C 124.23103,118.06298 124.25289,118.04682 124.27017,118.02666 C 124.27872,118.01673 124.28986,118.00838 124.29840,117.99844 C 124.73278,117.49089 125.04001,116.88426 125.45564,116.36137 C 126.09227,115.55998 126.83425,114.84840 127.43142,114.01866 C 127.48191,113.94849 127.55057,113.89148 127.60077,113.82108 C 127.62498,113.78702 127.63308,113.74229 127.65722,113.70818 C 128.18473,112.96513 128.57762,112.13242 129.06849,111.36547 C 129.36697,110.89741 129.74147,110.48711 130.02815,110.01066 C 130.18751,109.74674 130.35267,109.48694 130.50798,109.22035 C 131.06159,108.26663 131.58785,107.29966 132.08860,106.31313 C 132.11154,106.26812 132.12219,106.21705 132.14505,106.17200 C 132.20071,106.06187 132.28759,105.97208 132.34263,105.86153 C 132.41002,105.72618 132.44538,105.57398 132.51198,105.43814 C 132.72993,104.99712 132.95561,104.56042 133.16117,104.11155 C 133.58047,103.19280 133.97382,102.26047 134.34663,101.31724 C 134.63028,100.60177 134.88086,99.872804 135.13694,99.143885 C 135.22845,98.882631 135.30217,98.615126 135.39097,98.353574 C 135.55251,97.879352 135.80793,97.451030 135.95548,96.970531 L 146.99160,79.781280 L 138.52399,79.781280 C 138.52407,79.743342 138.55221,79.706332 138.55221,79.668379 C 138.55221,76.678817 138.22135,73.787035 137.79013,70.918511 C 137.73661,70.559958 137.67820,70.203125 137.62078,69.845947 C 137.59066,69.668027 137.56782,69.487035 137.53610,69.309664 C 137.53249,69.289252 137.51151,69.273622 137.50788,69.253214 C 136.47716,63.524320 134.65095,58.105394 132.08860,53.080071 C 131.97877,52.862182 131.91931,52.619106 131.80635,52.402662 C 131.77318,52.339102 131.75506,52.268509 131.72167,52.205085 C 131.70579,52.174984 131.68116,52.150478 131.66522,52.120409 C 131.48274,51.775256 131.23412,51.473342 131.04426,51.132520 C 129.97725,49.220756 128.81036,47.374373 127.54432,45.600346 C 127.35839,45.339186 127.22576,45.039968 127.03626,44.781810 C 126.91211,44.613102 126.79769,44.438214 126.66933,44.273753 C 126.60798,44.195137 126.53233,44.127623 126.47175,44.047950 C 124.91357,42.004830 123.22508,40.084802 121.41941,38.261747 C 121.17170,38.009554 120.96686,37.718966 120.71378,37.471437 C 120.38018,37.145157 119.98368,36.886103 119.64121,36.568225 C 119.04276,36.011587 118.48405,35.406619 117.86301,34.874702 C 117.29030,34.384182 116.62088,34.015067 116.02836,33.548109 C 115.28711,32.963875 114.62016,32.292367 113.85501,31.741685 C 113.78484,31.691184 113.72783,31.622532 113.65743,31.572332 C 113.62337,31.548118 113.57864,31.540025 113.54453,31.515882 C 112.88432,31.047187 112.13493,30.713686 111.45585,30.273965 C 110.92768,29.933360 110.47042,29.498464 109.93168,29.173175 C 109.59247,28.967717 109.25920,28.750975 108.91557,28.552217 C 108.00758,28.028684 107.08706,27.532028 106.14948,27.056272 C 106.01859,26.989592 105.88590,26.924563 105.75432,26.858694 C 105.73553,26.849284 105.71668,26.839861 105.69787,26.830469 C 105.67144,26.817305 105.63965,26.815377 105.61320,26.802243 C 105.11613,26.554917 104.62163,26.301325 104.11725,26.068384 C 103.08330,25.592850 102.04927,25.130014 100.98424,24.713565 C 100.38793,24.479399 99.783442,24.279465 99.177811,24.064382 C 98.704401,23.896945 98.215448,23.770038 97.738317,23.612776 C 97.415798,23.506361 97.132297,23.317544 96.806879,23.217620 L 79.617615,12.181497 z M 79.532939,39.334312 C 79.561661,39.334312 79.588907,39.334252 79.617615,39.334312 L 79.617615,46.926939 L 89.383596,40.660905 C 95.795959,42.256143 101.56379,45.404004 106.37528,49.608350 C 106.53816,49.757015 106.72289,49.880485 106.88334,50.031730 C 107.71086,50.778826 108.43418,51.619166 109.19782,52.430888 C 110.45504,53.825772 111.72465,55.218933 112.78244,56.777596 C 112.81637,56.827590 112.86163,56.868571 112.89535,56.918723 C 112.91924,56.952763 112.92800,56.997507 112.95180,57.031625 C 117.28602,63.522107 119.83879,71.336338 119.83879,79.724829 C 119.83879,79.753549 119.83884,79.752572 119.83879,79.781280 L 112.24616,79.781280 L 118.51220,89.547261 C 116.95868,95.791884 113.91287,101.43569 109.87523,106.17200 C 109.57720,106.50693 109.33720,106.89141 109.02847,107.21634 C 108.35620,107.95449 107.57921,108.58989 106.85511,109.27680 C 105.37759,110.62003 103.88888,111.94129 102.22615,113.05900 C 95.715022,117.43588 87.881687,120.00244 79.448263,120.00244 C 79.419560,120.00244 79.392275,120.00250 79.363587,120.00244 L 79.363587,112.40981 L 69.625831,118.67585 C 63.355395,117.12146 57.694372,114.09496 52.944632,110.03888 C 52.625443,109.75400 52.266823,109.51497 51.956744,109.22035 C 51.203030,108.53469 50.568367,107.73018 49.868065,106.99054 C 48.602833,105.59491 47.320153,104.20468 46.255217,102.64383 C 46.156695,102.50563 46.069790,102.35993 45.972963,102.22045 C 41.672879,95.746696 39.170647,87.964331 39.170647,79.611928 C 39.170646,79.583222 39.170584,79.555940 39.170647,79.527252 L 46.763274,79.555477 L 40.497240,69.789496 C 42.081750,63.397528 45.183246,57.658520 49.360009,52.854268 C 49.530883,52.665970 49.665530,52.446610 49.839840,52.261535 C 50.607193,51.411382 51.488162,50.673248 52.323673,49.890604 C 53.719908,48.637335 55.110954,47.388113 56.670382,46.334206 C 56.715873,46.303461 56.765888,46.280095 56.811509,46.249530 C 63.312309,41.894061 71.122051,39.334312 79.532939,39.334312 z "
       style="stroke-dasharray:none;stroke-miterlimit:4.0000000;stroke-width:6.0000000;stroke:#000000;fill-rule:evenodd;fill-opacity:1.0000000;fill:url(#radialGradient2237)" />
  </g>
</svg>
