<?xml version="1.0" encoding="UTF-8" standalone="no"?>
<!-- Created with Inkscape (http://www.inkscape.org/) -->
<svg
   xmlns:dc="http://purl.org/dc/elements/1.1/"
   xmlns:cc="http://web.resource.org/cc/"
   xmlns:rdf="http://www.w3.org/1999/02/22-rdf-syntax-ns#"
   xmlns:svg="http://www.w3.org/2000/svg"
   xmlns="http://www.w3.org/2000/svg"
   xmlns:xlink="http://www.w3.org/1999/xlink"
   xmlns:sodipodi="http://inkscape.sourceforge.net/DTD/sodipodi-0.dtd"
   xmlns:inkscape="http://www.inkscape.org/namespaces/inkscape"
   width="128pt"
   height="128pt"
   id="svg2"
   sodipodi:version="0.32"
   inkscape:version="0.43"
   version="1.0"
   sodipodi:docbase="/usr/share/icons/Rongeur/scalable/weather"
   sodipodi:docname="14.svg">
  <defs
     id="defs4">
    <linearGradient
       id="linearGradient4268">
      <stop
         id="stop4270"
         offset="0"
         style="stop-color:#3aaeff;stop-opacity:1;" />
      <stop
         id="stop4272"
         offset="1"
         style="stop-color:#ffffff;stop-opacity:1;" />
    </linearGradient>
    <radialGradient
       inkscape:collect="always"
       xlink:href="#linearGradient4268"
       id="radialGradient14279"
       gradientUnits="userSpaceOnUse"
       gradientTransform="matrix(0.188741,-0.251129,0.228148,0.171466,90.19906,77.94455)"
       cx="-62.731571"
       cy="85.424194"
       fx="-62.731571"
       fy="85.424194"
       r="42.425969" />
    <radialGradient
       inkscape:collect="always"
       xlink:href="#linearGradient2228"
       id="radialGradient39623"
       gradientUnits="userSpaceOnUse"
       gradientTransform="matrix(0.705746,-0.261172,0.218219,0.589677,20.1646,45.34183)"
       cx="105.7495"
       cy="40.954887"
       fx="105.7495"
       fy="40.954887"
       r="18.441303" />
    <radialGradient
       inkscape:collect="always"
       xlink:href="#linearGradient2228"
       id="radialGradient39621"
       gradientUnits="userSpaceOnUse"
       gradientTransform="matrix(0.705746,-0.261172,0.218219,0.589677,20.1646,45.34183)"
       cx="105.7495"
       cy="40.954887"
       fx="105.7495"
       fy="40.954887"
       r="18.441303" />
    <linearGradient
       inkscape:collect="always"
       xlink:href="#linearGradient16625"
       id="linearGradient39619"
       gradientUnits="userSpaceOnUse"
       x1="106.51814"
       y1="72.749504"
       x2="103.73402"
       y2="67.183083" />
    <radialGradient
       inkscape:collect="always"
       xlink:href="#linearGradient2228"
       id="radialGradient39617"
       gradientUnits="userSpaceOnUse"
       gradientTransform="matrix(0.785326,0.126861,-6.054325e-2,0.37479,24.31043,14.37175)"
       cx="104.58278"
       cy="44.728218"
       fx="104.58278"
       fy="44.728218"
       r="18.441303" />
    <linearGradient
       inkscape:collect="always"
       id="linearGradient16625">
      <stop
         style="stop-color:#000000;stop-opacity:1;"
         offset="0"
         id="stop16627" />
      <stop
         style="stop-color:#000000;stop-opacity:0;"
         offset="1"
         id="stop16629" />
    </linearGradient>
    <linearGradient
       inkscape:collect="always"
       xlink:href="#linearGradient16625"
       id="linearGradient41389"
       gradientUnits="userSpaceOnUse"
       x1="105.98466"
       y1="46.649616"
       x2="102.32878"
       y2="57.902809" />
    <linearGradient
       id="linearGradient2228">
      <stop
         style="stop-color:#ffffff;stop-opacity:1;"
         offset="0"
         id="stop51917" />
      <stop
         style="stop-color:#ffffff;stop-opacity:0;"
         offset="1"
         id="stop2232" />
    </linearGradient>
    <radialGradient
       inkscape:collect="always"
       xlink:href="#linearGradient2228"
       id="radialGradient41387"
       gradientUnits="userSpaceOnUse"
       gradientTransform="matrix(0.785326,0.126861,-6.054325e-2,0.37479,24.31043,14.37175)"
       cx="104.58278"
       cy="44.728218"
       fx="104.58278"
       fy="44.728218"
       r="18.441303" />
    <linearGradient
       id="linearGradient7594">
      <stop
         id="stop7596"
         offset="0"
         style="stop-color:#d3d3d3;stop-opacity:1;" />
      <stop
         id="stop7598"
         offset="1"
         style="stop-color:#ffffff;stop-opacity:1;" />
    </linearGradient>
    <linearGradient
       inkscape:collect="always"
       xlink:href="#linearGradient7594"
       id="linearGradient48724"
       gradientUnits="userSpaceOnUse"
       gradientTransform="matrix(1.315088,0,0,1.315088,-33.74891,-0.726583)"
       x1="82.245445"
       y1="80.538895"
       x2="71.049232"
       y2="50.257565" />
    <linearGradient
       id="linearGradient2489">
      <stop
         style="stop-color:#494949;stop-opacity:1;"
         offset="0"
         id="stop2491" />
      <stop
         style="stop-color:#696969;stop-opacity:0;"
         offset="1"
         id="stop2493" />
    </linearGradient>
    <radialGradient
       inkscape:collect="always"
       xlink:href="#linearGradient2489"
       id="radialGradient3370"
       cx="79.59079"
       cy="150.38364"
       fx="79.59079"
       fy="150.38364"
       r="46.035805"
       gradientTransform="matrix(1,0,0,5.777778e-2,-8.557607e-16,141.6948)"
       gradientUnits="userSpaceOnUse" />
    <linearGradient
       inkscape:collect="always"
       xlink:href="#linearGradient9305"
       id="linearGradient23409"
       gradientUnits="userSpaceOnUse"
       gradientTransform="matrix(0.67705,0,0,0.72304,-56.0367,11.0156)"
       x1="-147.59802"
       y1="39.842052"
       x2="-147.23732"
       y2="25.084929" />
    <linearGradient
       inkscape:collect="always"
       xlink:href="#linearGradient9305"
       id="linearGradient23350"
       gradientUnits="userSpaceOnUse"
       gradientTransform="matrix(0.495733,0,0,0.529407,-70.49254,29.92015)"
       x1="-147.59802"
       y1="39.842052"
       x2="-147.23732"
       y2="25.084929" />
    <linearGradient
       inkscape:collect="always"
       xlink:href="#linearGradient9305"
       id="linearGradient31620"
       gradientUnits="userSpaceOnUse"
       gradientTransform="matrix(0.76286,0,0,0.814679,200.3006,59.85557)"
       x1="-147.59802"
       y1="39.842052"
       x2="-147.23732"
       y2="25.084929" />
    <linearGradient
       inkscape:collect="always"
       xlink:href="#linearGradient9305"
       id="linearGradient33370"
       gradientUnits="userSpaceOnUse"
       gradientTransform="matrix(0.558563,0,0,0.596505,184.0126,81.1561)"
       x1="-147.59802"
       y1="39.842052"
       x2="-147.23732"
       y2="25.084929" />
    <linearGradient
       id="linearGradient2226">
      <stop
         id="stop2228"
         offset="0"
         style="stop-color:#ebebeb;stop-opacity:1;" />
      <stop
         id="stop2230"
         offset="1"
         style="stop-color:#000000;stop-opacity:1;" />
    </linearGradient>
    <linearGradient
       id="linearGradient9305">
      <stop
         style="stop-color:#b2b2b2;stop-opacity:1;"
         offset="0"
         id="stop9307" />
      <stop
         style="stop-color:#ffffff;stop-opacity:1;"
         offset="1"
         id="stop9309" />
    </linearGradient>
    <radialGradient
       inkscape:collect="always"
       xlink:href="#linearGradient2226"
       id="radialGradient1416"
       gradientUnits="userSpaceOnUse"
       gradientTransform="matrix(1.580712,-0.267822,0.296088,1.747539,-133.4445,-19.95394)"
       cx="177.07892"
       cy="104.10686"
       fx="177.07892"
       fy="104.10686"
       r="51.560101" />
    <radialGradient
       inkscape:collect="always"
       xlink:href="#linearGradient4268"
       id="radialGradient14294"
       gradientUnits="userSpaceOnUse"
       gradientTransform="matrix(1.219667,-1.059091,0.825553,0.950345,928.2551,-294.5662)"
       cx="-572.79291"
       cy="-197.80835"
       fx="-572.79291"
       fy="-197.80835"
       r="42.425969" />
  </defs>
  <sodipodi:namedview
     id="base"
     pagecolor="#ffffff"
     bordercolor="#666666"
     borderopacity="1.0"
     inkscape:pageopacity="0.0"
     inkscape:pageshadow="2"
     inkscape:zoom="1.5328125"
     inkscape:cx="130.64348"
     inkscape:cy="64.29338"
     inkscape:document-units="px"
     inkscape:current-layer="layer1"
     showgrid="true"
     inkscape:window-width="948"
     inkscape:window-height="542"
     inkscape:window-x="224"
     inkscape:window-y="46" />
  <metadata
     id="metadata7">
    <rdf:RDF>
      <cc:Work
         rdf:about="">
        <dc:format>image/svg+xml</dc:format>
        <dc:type
           rdf:resource="http://purl.org/dc/dcmitype/StillImage" />
        <cc:license
           rdf:resource="http://creativecommons.org/licenses/GPL/2.0/" />
      </cc:Work>
      <cc:License
         rdf:about="http://creativecommons.org/licenses/GPL/2.0/">
        <cc:permits
           rdf:resource="http://web.resource.org/cc/Reproduction" />
        <cc:permits
           rdf:resource="http://web.resource.org/cc/Distribution" />
        <cc:requires
           rdf:resource="http://web.resource.org/cc/Notice" />
        <cc:permits
           rdf:resource="http://web.resource.org/cc/DerivativeWorks" />
        <cc:requires
           rdf:resource="http://web.resource.org/cc/ShareAlike" />
        <cc:requires
           rdf:resource="http://web.resource.org/cc/SourceCode" />
      </cc:License>
    </rdf:RDF>
  </metadata>
  <g
     inkscape:label="Calque 1"
     inkscape:groupmode="layer"
     id="layer1">
    <path
       sodipodi:type="arc"
       style="opacity:1;color:#000000;fill:url(#radialGradient3370);fill-opacity:1;fill-rule:evenodd;stroke:none;stroke-width:2.5999999;stroke-linecap:butt;stroke-linejoin:miter;marker:none;marker-start:none;marker-mid:none;marker-end:none;stroke-miterlimit:4;stroke-dasharray:none;stroke-dashoffset:0;stroke-opacity:0.49803922;visibility:visible;display:inline;overflow:visible"
       id="path1614"
       sodipodi:cx="79.59079"
       sodipodi:cy="150.38364"
       sodipodi:rx="46.035805"
       sodipodi:ry="2.6598465"
       d="M 125.62659 150.38364 A 46.035805 2.6598465 0 1 1  33.554985,150.38364 A 46.035805 2.6598465 0 1 1  125.62659 150.38364 z"
       transform="matrix(1.031806,0,0,1.423077,-4.622235,-59.21395)" />
    <g
       id="g51899"
       transform="translate(-5.817256,-36.00009)">
      <path
         style="color:#000000;fill:#000000;fill-opacity:0.49803922;fill-rule:nonzero;stroke:#000000;stroke-width:5;stroke-linecap:butt;stroke-linejoin:round;marker:none;marker-start:none;marker-mid:none;marker-end:none;stroke-miterlimit:4;stroke-dasharray:none;stroke-dashoffset:0;stroke-opacity:0.49803922;visibility:visible;display:inline;overflow:visible"
         d="M 103.96556,54.753685 C 92.305516,55.198946 82.602614,63.542341 80.088458,74.562194 C 76.952423,70.943432 72.333266,68.644301 67.184159,68.6443 C 58.308087,68.644297 50.980376,75.468499 50.17022,84.137678 C 49.080967,83.918737 47.95272,83.808905 46.800296,83.808905 C 37.384814,83.808906 29.745256,91.48955 29.745256,100.90505 C 29.745256,110.32054 37.384801,117.96009 46.800296,117.96009 C 55.66412,117.96009 122.23535,117.30254 130.30839,117.30255 C 139.72391,117.30255 147.40455,109.6219 147.40455,100.20641 C 147.40455,90.790917 139.72391,83.110268 130.30839,83.110265 C 130.29615,83.110265 130.27957,83.110239 130.26731,83.110265 C 130.37434,82.165126 130.43168,81.207045 130.43168,80.233511 C 130.43168,66.192671 118.99273,54.753689 104.95186,54.753685 C 104.62278,54.753685 104.29167,54.741233 103.96556,54.753685 z "
         id="path19322"
         sodipodi:nodetypes="ccscsssssssssc" />
      <path
         sodipodi:nodetypes="ccscsssssssssc"
         id="path10469"
         d="M 103.96546,54.753685 C 92.305451,55.198946 82.602549,63.542341 80.088392,74.562194 C 76.952358,70.943432 72.333201,68.644301 67.184093,68.6443 C 58.308022,68.644297 50.98031,75.468499 50.170154,84.137678 C 49.080901,83.918737 47.952655,83.808905 46.800231,83.808905 C 37.384749,83.808906 29.745191,91.48955 29.745191,100.90505 C 29.745191,110.32054 37.384735,117.96009 46.800231,117.96009 C 55.664054,117.96009 122.23525,117.30254 130.3083,117.30255 C 139.72382,117.30255 147.40446,109.6219 147.40446,100.20641 C 147.40446,90.790917 139.72382,83.110268 130.3083,83.110265 C 130.29606,83.110265 130.27948,83.110239 130.26722,83.110265 C 130.37425,82.165126 130.43159,81.207045 130.43159,80.233511 C 130.43159,66.192671 118.99263,54.753689 104.95177,54.753685 C 104.62269,54.753685 104.29157,54.741233 103.96546,54.753685 z "
         style="color:#000000;fill:url(#linearGradient48724);fill-opacity:1;fill-rule:nonzero;stroke:#000000;stroke-width:2;stroke-linecap:butt;stroke-linejoin:round;marker:none;marker-start:none;marker-mid:none;marker-end:none;stroke-miterlimit:3;stroke-dasharray:none;stroke-dashoffset:0;stroke-opacity:1;visibility:visible;display:inline;overflow:visible" />
      <path
         transform="matrix(1.410245,0,0,1.410245,-41.11408,5.598302)"
         d="M 121.12532 52.173912 A 17.391304 17.391304 0 1 1  86.342712,52.173912 A 17.391304 17.391304 0 1 1  121.12532 52.173912 z"
         sodipodi:ry="17.391304"
         sodipodi:rx="17.391304"
         sodipodi:cy="52.173912"
         sodipodi:cx="103.73402"
         id="path15746"
         style="color:#000000;fill:url(#radialGradient41387);fill-opacity:1;fill-rule:evenodd;stroke:url(#linearGradient41389);stroke-width:1.77274168;stroke-linecap:round;stroke-linejoin:miter;marker:none;marker-start:none;marker-mid:none;marker-end:none;stroke-miterlimit:0.5;stroke-dasharray:none;stroke-dashoffset:0;stroke-opacity:1;visibility:visible;display:inline;overflow:visible"
         sodipodi:type="arc" />
      <path
         sodipodi:type="arc"
         style="color:#000000;fill:url(#radialGradient39617);fill-opacity:1;fill-rule:evenodd;stroke:url(#linearGradient39619);stroke-width:2.65886164;stroke-linecap:round;stroke-linejoin:miter;marker:none;marker-start:none;marker-mid:none;marker-end:none;stroke-miterlimit:0.5;stroke-dasharray:none;stroke-dashoffset:0;stroke-opacity:1;visibility:visible;display:inline;overflow:visible"
         id="path16633"
         sodipodi:cx="103.73402"
         sodipodi:cy="52.173912"
         sodipodi:rx="17.391304"
         sodipodi:ry="17.391304"
         d="M 121.12532 52.173912 A 17.391304 17.391304 0 1 1  86.342712,52.173912 A 17.391304 17.391304 0 1 1  121.12532 52.173912 z"
         transform="matrix(0.940252,0,0,0.940252,4.318323,51.75812)" />
      <path
         transform="matrix(0.757735,0,0,0.757735,-33.03008,61.2112)"
         d="M 121.12532 52.173912 A 17.391304 17.391304 0 1 1  86.342712,52.173912 A 17.391304 17.391304 0 1 1  121.12532 52.173912 z"
         sodipodi:ry="17.391304"
         sodipodi:rx="17.391304"
         sodipodi:cy="52.173912"
         sodipodi:cx="103.73402"
         id="path18385"
         style="color:#000000;fill:url(#radialGradient39621);fill-opacity:1;fill-rule:evenodd;stroke:none;stroke-width:3.09814024;stroke-linecap:round;stroke-linejoin:miter;marker:none;marker-start:none;marker-mid:none;marker-end:none;stroke-miterlimit:0;stroke-dasharray:none;stroke-dashoffset:0;stroke-opacity:1;visibility:visible;display:inline;overflow:visible"
         sodipodi:type="arc" />
      <path
         sodipodi:type="arc"
         style="color:#000000;fill:url(#radialGradient39623);fill-opacity:1;fill-rule:evenodd;stroke:none;stroke-width:3.09814024;stroke-linecap:round;stroke-linejoin:miter;marker:none;marker-start:none;marker-mid:none;marker-end:none;stroke-miterlimit:0;stroke-dasharray:none;stroke-dashoffset:0;stroke-opacity:1;visibility:visible;display:inline;overflow:visible"
         id="path19264"
         sodipodi:cx="103.73402"
         sodipodi:cy="52.173912"
         sodipodi:rx="17.391304"
         sodipodi:ry="17.391304"
         d="M 121.12532 52.173912 A 17.391304 17.391304 0 1 1  86.342712,52.173912 A 17.391304 17.391304 0 1 1  121.12532 52.173912 z"
         transform="matrix(0.757735,0,0,0.757735,-13.60985,46.73649)" />
    </g>
    <path
       id="path8653"
       style="fill:none;fill-opacity:1;fill-rule:evenodd;stroke:#b0ccd5;stroke-width:2;stroke-linecap:round;stroke-linejoin:miter;stroke-miterlimit:4;stroke-opacity:1"
       d="M 106.51921,97.27673 L 106.48079,118.21589 M 98.5,100.99261 L 114.5,114.5 M 100,99 L 100,102 L 97,104 M 104,97 L 106,99 L 110,98 M 115.25471,101.97532 L 115,106 L 118.44267,107.74602 M 115.75162,111.93881 L 111.47576,111.84028 L 112.30334,116.44267 M 103.48276,115.97532 L 106,115 L 109,117 M 98,107.41379 L 100,110 L 100,113 M 118.5,104.5 L 98.29177,109.98428" />
    <path
       id="path11354"
       style="fill:none;fill-opacity:1;fill-rule:evenodd;stroke:#b0ccd5;stroke-width:0.95998091;stroke-linecap:round;stroke-linejoin:miter;stroke-miterlimit:4;stroke-opacity:1"
       d="M 80.09753,92.42804 L 88.81775,99.43164 M 81.60755,92.08992 L 81.67848,93.75638 L 79.55487,93.94521 M 83.49075,90.90972 L 84.78512,92.1372 L 86.70508,91.65722 M 88.16397,92.58455 L 87.73363,94.65347 L 89.32256,95.857 M 88.90168,97.60199 L 86.80202,97.93302 L 87.05739,100.16982 M 82.20546,100.06105 L 83.69746,99.49357 L 84.8064,100.54813 M 79.57379,96.23058 L 81.00666,96.95175 L 80.34462,98.81733 M 85.09578,90.47999 L 83.34659,101.3073 M 89.52001,93.82072 L 79.50759,97.66802" />
    <path
       style="color:#000000;fill:url(#radialGradient14294);fill-opacity:1;fill-rule:evenodd;stroke:none;stroke-width:1;stroke-linecap:butt;stroke-linejoin:miter;marker:none;marker-start:none;marker-mid:none;marker-end:none;stroke-miterlimit:4;stroke-dasharray:none;stroke-dashoffset:0;stroke-opacity:1;visibility:visible;display:inline;overflow:visible"
       d="M 90.788456,143.47124 C 90.415216,143.098 90.109836,141.71992 90.109836,140.40883 C 90.109836,138.27113 89.896466,138.15729 88.042926,139.30608 C 86.333886,140.3653 85.807836,140.32273 85.004736,139.06022 C 83.574806,136.81232 83.760046,136.3131 86.292616,135.58957 C 88.561996,134.94125 88.557346,134.92124 85.783656,133.40249 C 83.088746,131.92689 82.236326,129.9683 83.666536,128.53809 C 84.041746,128.16289 85.484926,128.60037 86.873616,129.51027 L 89.398496,131.16464 L 88.813116,127.5574 C 88.380386,124.89078 88.627566,123.79672 89.761016,123.36179 C 92.649876,122.25323 93.163616,122.77915 93.163616,126.84512 C 93.163616,131.51113 93.659256,131.76236 96.885386,128.73157 C 98.810146,126.92334 99.480076,126.76922 100.76821,127.83828 C 103.14853,129.81376 102.63794,131.55811 99.271166,132.95267 C 97.591586,133.64837 96.217386,134.51965 96.217386,134.88885 C 96.217386,135.25805 97.591586,136.07882 99.271166,136.71278 C 102.51543,137.93736 102.86318,138.66875 101.34367,141.07164 C 100.53596,142.3489 99.904546,142.21255 97.131066,140.16203 L 93.868596,137.74998 L 94.508576,140.94992 C 95.037416,143.59412 94.828886,144.14985 93.307816,144.14985 C 92.295406,144.14985 91.161686,143.84447 90.788456,143.47124 z M 62.608326,130.10487 L 63.247346,126.90975 L 59.840136,129.50856 C 56.819016,131.81288 56.285526,131.92977 55.132216,130.54012 C 53.638163,128.73989 53.527223,128.90297 58.130046,126.13322 L 61.629506,124.02742 L 58.827216,122.962 C 57.285966,122.37601 55.596696,121.89657 55.073286,121.89657 C 53.850666,121.89657 53.873156,121.20907 55.175356,118.77587 C 56.514766,116.27318 57.674376,116.29878 61.344446,118.91211 L 64.300876,121.01727 L 64.300876,116.3673 C 64.300876,112.08593 64.502616,111.71731 66.845696,111.71731 C 69.702196,111.71731 69.771496,111.9292 68.436896,116.5827 L 67.483276,119.90776 L 70.375396,117.84839 C 73.983436,115.27924 74.480136,115.27903 74.480136,117.84669 C 74.480136,119.05373 73.428116,120.3837 71.935316,121.06386 C 68.783836,122.49977 68.701926,123.51491 71.674816,124.29234 C 73.784786,124.8441 73.832696,125.01611 72.302526,126.54628 C 70.999956,127.84885 70.199296,127.96383 68.555916,127.08432 C 66.666726,126.07325 66.435246,126.28296 66.146836,129.26695 C 65.926286,131.54887 65.232116,132.68111 63.898536,132.93404 C 62.235646,133.24947 62.057526,132.85886 62.608326,130.10487 z M 49.356623,106.02774 C 48.983383,105.65449 48.678003,104.26418 48.678003,102.93814 C 48.678003,100.79455 48.437863,100.65568 46.512703,101.686 C 44.823773,102.5899 44.155363,102.54179 43.474513,101.46734 C 42.143963,99.36759 42.373743,98.76257 44.793423,97.99459 C 46.976213,97.3018 46.967013,97.26316 44.284463,95.85763 C 41.481483,94.389 40.713513,92.076161 42.634593,90.888861 C 43.229733,90.521041 44.652563,91.066591 45.796463,92.101191 C 47.861163,93.96863 47.873623,93.95273 47.513683,89.910581 C 47.197723,86.362381 47.437673,85.798091 49.379853,85.521671 C 51.326843,85.244561 51.648553,85.739871 51.924663,89.439691 L 52.240743,93.67492 L 55.071443,91.439691 C 57.355043,89.636461 58.191173,89.444331 59.397623,90.445601 C 61.844053,92.475961 61.118543,94.27795 57.298493,95.6593 L 53.703873,96.95913 L 57.298493,98.80328 C 61.196123,100.80289 61.644493,101.76177 59.510123,103.53315 C 58.450713,104.41238 57.458633,104.15507 55.269893,102.43341 L 52.412643,100.1859 L 53.064693,103.44612 C 53.606053,106.15293 53.404273,106.70635 51.875993,106.70635 C 50.863573,106.70635 49.729853,106.40097 49.356623,106.02774 z "
       id="path2510"
       sodipodi:nodetypes="csssssscccsssssssscccsccccscccsscccscccsssssssccssssssssscccscccscccsc" />
  </g>
</svg>
