<?xml version="1.0" encoding="UTF-8" standalone="no"?>
<!-- Created with Inkscape (http://www.inkscape.org/) -->
<svg
   xmlns:dc="http://purl.org/dc/elements/1.1/"
   xmlns:cc="http://web.resource.org/cc/"
   xmlns:rdf="http://www.w3.org/1999/02/22-rdf-syntax-ns#"
   xmlns:svg="http://www.w3.org/2000/svg"
   xmlns="http://www.w3.org/2000/svg"
   xmlns:xlink="http://www.w3.org/1999/xlink"
   xmlns:sodipodi="http://inkscape.sourceforge.net/DTD/sodipodi-0.dtd"
   xmlns:inkscape="http://www.inkscape.org/namespaces/inkscape"
   sodipodi:docname="gnome-help.svg"
   sodipodi:docbase="/home/francois/Rodent/scalable/apps"
   height="128.00000pt"
   width="128.00000pt"
   inkscape:version="0.41"
   sodipodi:version="0.32"
   id="svg1">
  <metadata
     id="metadata28">
    <rdf:RDF
       id="RDF30">
      <cc:Work
         id="Work32"
         rdf:about="">
        <dc:format
           id="format34">image/svg+xml</dc:format>
        <dc:type
           rdf:resource="http://purl.org/dc/dcmitype/StillImage"
           id="type36" />
      </cc:Work>
    </rdf:RDF>
  </metadata>
  <defs
     id="defs3">
    <linearGradient
       id="linearGradient866">
      <stop
         id="stop867"
         offset="0.0000000"
         style="stop-color:#ffffff;stop-opacity:0.29411766;" />
      <stop
         id="stop868"
         offset="1.0000000"
         style="stop-color:#000000;stop-opacity:0.32156864;" />
    </linearGradient>
    <linearGradient
       id="linearGradient858">
      <stop
         id="stop859"
         offset="0.0000000"
         style="stop-color:#000000;stop-opacity:0.0000000;" />
      <stop
         id="stop860"
         offset="1.0000000"
         style="stop-color:#ffffff;stop-opacity:1.0000000;" />
    </linearGradient>
    <linearGradient
       id="linearGradient827">
      <stop
         id="stop828"
         offset="0.0000000"
         style="stop-color:#000000;stop-opacity:0.66949153;" />
      <stop
         id="stop829"
         offset="1.0000000"
         style="stop-color:#ffffff;stop-opacity:0.0000000;" />
    </linearGradient>
    <linearGradient
       id="linearGradient830"
       xlink:href="#linearGradient858" />
    <linearGradient
       y2="0.32673267"
       x2="0.68159211"
       y1="0.50495046"
       x1="0.50746274"
       id="linearGradient861"
       xlink:href="#linearGradient858" />
    <radialGradient
       fy="0.17910448"
       fx="0.15841584"
       r="0.53908408"
       cy="0.17910448"
       cx="0.15841584"
       id="radialGradient865"
       xlink:href="#linearGradient866" />
  </defs>
  <sodipodi:namedview
     inkscape:current-layer="svg1"
     showguides="true"
     snaptoguides="true"
     inkscape:window-y="34"
     inkscape:window-x="47"
     gridspacingy="1.0000000mm"
     gridspacingx="1.0000000mm"
     snaptogrid="false"
     showgrid="true"
     inkscape:window-height="653"
     inkscape:window-width="655"
     inkscape:cy="78.989154"
     inkscape:cx="80.000000"
     inkscape:zoom="2.9500000"
     inkscape:pageshadow="2"
     inkscape:pageopacity="0.0"
     borderopacity="1.0"
     bordercolor="#666666"
     pagecolor="#ffffff"
     id="base">
    <sodipodi:guide
       id="guide835"
       position="63.835897"
       orientation="horizontal" />
    <sodipodi:guide
       id="guide836"
       position="63.835897"
       orientation="vertical" />
  </sodipodi:namedview>
  <path
     id="path848"
     d="M 11.572374,80.648700 C 11.572374,118.47343 42.276459,149.17751 80.101192,149.17751 C 117.92594,149.17751 148.63001,118.47343 148.63002,80.648700 C 148.63002,42.823968 117.92594,12.119892 80.101192,12.119883 C 42.276459,12.119883 11.572374,42.823968 11.572374,80.648700 z M 46.651933,80.592484 C 46.651933,61.427035 61.900820,45.878336 80.719582,45.878336 C 99.538362,45.878336 114.81535,61.427035 114.81535,80.592484 C 114.81535,99.757924 99.538352,115.30662 80.719582,115.30662 C 61.900820,115.30662 46.651933,99.757924 46.651933,80.592484 z "
     style="fill:none;fill-opacity:0.0000000;fill-rule:evenodd;stroke:#000000;stroke-width:8.9947586;stroke-opacity:0.49999997" />
  <path
     id="path834"
     d="M 12.094241,80.126837 C 12.094241,117.95156 42.798327,148.65565 80.623060,148.65565 C 118.44779,148.65565 149.15188,117.95156 149.15189,80.126837 C 149.15189,42.302103 118.44779,11.598026 80.623060,11.598017 C 42.798327,11.598017 12.094241,42.302103 12.094241,80.126837 z M 47.173802,80.070619 C 47.173802,60.905170 62.422687,45.356471 81.241449,45.356471 C 100.06023,45.356471 115.33722,60.905170 115.33722,80.070619 C 115.33722,99.236058 100.06022,114.78476 81.241449,114.78476 C 62.422687,114.78476 47.173802,99.236058 47.173802,80.070619 z "
     style="fill:#ffffff;fill-rule:evenodd;stroke:#000000;stroke-width:3.3730345" />
  <path
     sodipodi:nodetypes="cccccc"
     id="path837"
     d="M 11.917662,80.242876 L 47.153226,80.058376 C 47.153226,80.058376 47.026462,46.657006 80.554596,46.657006 C 80.554596,33.908527 80.554596,11.598692 80.554596,11.598692 C 80.554596,11.598692 53.527460,8.4115709 28.030504,37.095640 C 8.9077870,62.592595 11.917662,80.242876 11.917662,80.242876 z "
     style="fill:#df421e;fill-opacity:1.0000000;fill-rule:evenodd;stroke:none;stroke-width:1.0000000pt" />
  <path
     sodipodi:nodetypes="cccccc"
     id="path839"
     d="M 149.75371,80.620542 L 114.51814,80.805043 C 114.51814,80.805043 114.64490,114.20640 81.116758,114.20640 C 81.116758,126.95489 81.116758,149.26472 81.116758,149.26472 C 81.116758,149.26472 108.14391,152.45184 133.64087,123.76777 C 152.76359,98.270810 149.75371,80.620542 149.75371,80.620542 z "
     style="fill:#df421e;fill-opacity:1.0000000;fill-rule:evenodd;stroke:none;stroke-width:1.0000000pt" />
  <path
     id="path875"
     d="M 146.78037,75.850189 C 146.78037,107.23420 121.28367,137.93261 89.868091,144.37347 C 58.452523,150.81433 32.955829,130.57061 32.955829,99.186616 C 32.955829,67.802615 58.452523,37.104183 89.868091,30.663329 C 121.28367,24.222473 146.78037,44.466188 146.78037,75.850189 z "
     style="fill-opacity:0.0000000;fill-rule:evenodd;stroke:#686868;stroke-width:7.2174010;stroke-opacity:0.49677417" />
  <path
     id="path872"
     d="M 129.29782,61.237916 C 129.29782,92.621915 103.80110,123.32032 72.385544,129.76119 C 40.969975,136.20206 15.473283,115.95833 15.473283,84.574340 C 15.473283,53.190341 40.969975,22.491905 72.385544,16.051051 C 103.80110,9.6101967 129.29782,29.853911 129.29782,61.237916 z "
     style="fill-opacity:0.0000000;fill-rule:evenodd;stroke:#ffffff;stroke-width:7.2174010;stroke-opacity:0.78064513" />
  <path
     sodipodi:nodetypes="cccccc"
     id="path936"
     d="M 12.054595,80.058367 L 47.290159,80.242868 C 47.290159,80.242868 47.163396,113.64423 80.691530,113.64423 C 80.691530,126.39272 80.691530,148.70255 80.691530,148.70255 C 80.691530,148.70255 53.664393,151.88966 28.167438,123.20560 C 9.0447205,97.708646 12.054595,80.058367 12.054595,80.058367 z "
     style="fill:#ffffff;fill-opacity:1.0000000;fill-rule:evenodd;stroke:none;stroke-width:1.0000000pt" />
  <path
     sodipodi:nodetypes="cccccc"
     id="path937"
     d="M 80.691531,11.421432 L 80.876031,46.656995 C 80.876031,46.656995 114.27741,46.530233 114.27741,80.058363 C 127.02588,80.058363 149.33572,80.058363 149.33572,80.058363 C 149.33572,80.058363 152.52285,53.031230 123.83878,27.534273 C 98.341824,8.4115526 80.691531,11.421432 80.691531,11.421432 z "
     style="fill:#ffffff;fill-opacity:1.0000000;fill-rule:evenodd;stroke:none;stroke-width:1.0000000pt" />
  <path
     id="path847"
     d="M 11.572374,80.648700 C 11.572374,118.47343 42.276459,149.17751 80.101192,149.17751 C 117.92594,149.17751 148.63001,118.47343 148.63002,80.648700 C 148.63002,42.823968 117.92594,12.119892 80.101192,12.119883 C 42.276459,12.119883 11.572374,42.823968 11.572374,80.648700 z M 46.651933,80.592484 C 46.651933,61.427035 61.900820,45.878336 80.719582,45.878336 C 99.538362,45.878336 114.81535,61.427035 114.81535,80.592484 C 114.81535,99.757924 99.538352,115.30662 80.719582,115.30662 C 61.900820,115.30662 46.651933,99.757924 46.651933,80.592484 z "
     style="fill:#ffffff;fill-opacity:0.0000000;fill-rule:evenodd;stroke:#000000;stroke-width:4.4973793" />
</svg>
