<?xml version="1.0" encoding="UTF-8" standalone="no"?>
<!-- Created with Sodipodi ("http://www.sodipodi.com/") -->

<svg
   xmlns:dc="http://purl.org/dc/elements/1.1/"
   xmlns:cc="http://creativecommons.org/ns#"
   xmlns:rdf="http://www.w3.org/1999/02/22-rdf-syntax-ns#"
   xmlns:svg="http://www.w3.org/2000/svg"
   xmlns="http://www.w3.org/2000/svg"
   xmlns:xlink="http://www.w3.org/1999/xlink"
   xmlns:sodipodi="http://sodipodi.sourceforge.net/DTD/sodipodi-0.dtd"
   xmlns:inkscape="http://www.inkscape.org/namespaces/inkscape"
   inkscape:version="0.48.0 r9654"
   sodipodi:docname="cd-audio.svg"
   height="128pt"
   width="128pt"
   sodipodi:version="0.32"
   id="svg559"
   version="1.1">
  <metadata
     id="metadata19">
    <rdf:RDF>
      <cc:Work
         rdf:about="">
        <dc:format>image/svg+xml</dc:format>
        <dc:type
           rdf:resource="http://purl.org/dc/dcmitype/StillImage" />
        <dc:title />
      </cc:Work>
    </rdf:RDF>
  </metadata>
  <defs
     id="defs561">
    <linearGradient
       id="linearGradient833">
      <stop
         id="stop834"
         offset="0.0000000"
         style="stop-color:#000000;stop-opacity:1.0000000;" />
      <stop
         id="stop835"
         offset="1.0000000"
         style="stop-color:#ffc300;stop-opacity:1.0000000;" />
    </linearGradient>
    <linearGradient
       id="linearGradient828">
      <stop
         id="stop829"
         offset="0.0000000"
         style="stop-color:#8d888a;stop-opacity:1.0000000;" />
      <stop
         id="stop830"
         offset="1.0000000"
         style="stop-color:#ffffff;stop-opacity:1.0000000;" />
    </linearGradient>
    <linearGradient
       gradientUnits="userSpaceOnUse"
       spreadMethod="reflect"
       y2="80.661353"
       x2="77.421263"
       y1="10.451617"
       x1="6.0236632"
       id="linearGradient831"
       xlink:href="#linearGradient828" />
    <linearGradient
       spreadMethod="reflect"
       y2="0.32338309"
       x2="0.38118812"
       y1="0.044776119"
       x1="0.95544553"
       id="linearGradient836"
       xlink:href="#linearGradient833" />
    <radialGradient
       spreadMethod="reflect"
       fy="0.50000000"
       fx="0.50000000"
       r="0.50000000"
       cy="0.50000000"
       cx="0.50000000"
       id="radialGradient839"
       xlink:href="#linearGradient833" />
    <radialGradient
       id="radialGradient841"
       xlink:href="#linearGradient833" />
  </defs>
  <sodipodi:namedview
     inkscape:current-layer="svg559"
     showgrid="false"
     snaptogrid="true"
     inkscape:window-y="34"
     inkscape:window-x="91"
     inkscape:window-height="653"
     inkscape:window-width="829"
     inkscape:cy="84.437829"
     inkscape:cx="80"
     inkscape:zoom="2.085965"
     id="base"
     inkscape:snap-grids="false"
     inkscape:window-maximized="0">
    <inkscape:grid
       id="GridFromPre046Settings"
       type="xygrid"
       originx="0px"
       originy="0px"
       spacingx="1.0000000mm"
       spacingy="1.0000000mm"
       color="#0000ff"
       empcolor="#0000ff"
       opacity="0.2"
       empopacity="0.4"
       empspacing="5" />
  </sodipodi:namedview>
  <path
     transform="matrix(0.910425,0.000000,0.000000,0.908032,7.169470,7.100264)"
     d="M 155.90551 80.275589 A 76.181099 76.181099 0 1 1  3.5433121,80.275589 A 76.181099 76.181099 0 1 1  155.90551 80.275589 z"
     sodipodi:ry="76.181099"
     sodipodi:rx="76.181099"
     sodipodi:cy="80.275589"
     sodipodi:cx="79.724411"
     id="path838"
     style="fill:none;fill-rule:evenodd;stroke:#000000;stroke-width:6.7911477;stroke-miterlimit:4.0000000;stroke-opacity:0.49999997"
     sodipodi:type="arc" />
  <path
     transform="matrix(0.910425,0.000000,0.000000,0.908032,7.169470,7.100264)"
     d="M 155.90551 80.275589 A 76.181099 76.181099 0 1 1  3.5433121,80.275589 A 76.181099 76.181099 0 1 1  155.90551 80.275589 z"
     sodipodi:ry="76.181099"
     sodipodi:rx="76.181099"
     sodipodi:cy="80.275589"
     sodipodi:cx="79.724411"
     id="path827"
     style="fill:url(#linearGradient831);fill-rule:evenodd;stroke:#000000;stroke-width:2.7164590;stroke-miterlimit:4.0000000"
     sodipodi:type="arc" />
  <path
     transform="matrix(0.261308,0.000000,0.000000,0.279198,59.27233,58.78058)"
     d="M 155.90551 80.275589 A 76.181099 76.181099 0 1 1  3.5433121,80.275589 A 76.181099 76.181099 0 1 1  155.90551 80.275589 z"
     sodipodi:ry="76.181099"
     sodipodi:rx="76.181099"
     sodipodi:cy="80.275589"
     sodipodi:cx="79.724411"
     id="path840"
     style="fill:#000000;fill-opacity:0.0000000;fill-rule:evenodd;stroke:#000000;stroke-width:6.2500000"
     sodipodi:type="arc" />
  <path
     transform="matrix(0.101290,0.000000,0.000000,0.108224,71.86728,72.91392)"
     d="M 155.90551 80.275589 A 76.181099 76.181099 0 1 1  3.5433121,80.275589 A 76.181099 76.181099 0 1 1  155.90551 80.275589 z"
     sodipodi:ry="76.181099"
     sodipodi:rx="76.181099"
     sodipodi:cy="80.275589"
     sodipodi:cx="79.724411"
     id="path842"
     style="fill:#ffffff;fill-opacity:1.0000000;fill-rule:evenodd;stroke:#000000;stroke-width:6.2500000"
     sodipodi:type="arc" />
  <g
     style="font-size:20.40254784px;font-style:normal;font-variant:normal;font-weight:bold;font-stretch:normal;text-align:start;line-height:80.00000119%;letter-spacing:0px;word-spacing:0px;writing-mode:lr-tb;text-anchor:start;fill:#000000;fill-opacity:1;stroke:none;font-family:Helvetica Rounded LT Std;-inkscape-font-specification:Helvetica Rounded LT Std Bold"
     id="text2995">
    <path
       d="m 65.402121,119.40355 c 0,5.05983 2.713543,7.69176 7.304112,7.69176 3.244002,0 5.814726,-2.10146 5.814726,-4.22333 0,-0.8161 -0.816103,-1.28536 -1.632204,-1.28536 -1.6118,0 -1.550596,2.81555 -4.182522,2.81555 -2.897159,0 -3.958095,-2.32589 -3.958095,-4.99862 0,-3.1828 1.734219,-4.99862 3.835679,-4.99862 3.06038,0 2.489113,2.65233 4.427353,2.65233 0.999724,0 1.509789,-0.57128 1.509789,-1.50979 0,-1.42818 -2.101466,-3.83568 -5.937142,-3.83568 -4.733386,0 -7.181696,3.55005 -7.181696,7.69176"
       style=""
       id="path2999" />
    <path
       d="m 80.615408,124.78982 c 0,1.48939 0.775298,1.95865 1.958645,1.95865 l 4.019302,0 c 4.468153,0 7.059281,-2.69314 7.059281,-7.34492 0,-5.75351 -3.346021,-7.34492 -6.998074,-7.34492 l -4.080509,0 c -1.183347,0 -1.958645,0.46926 -1.958645,1.95865 l 0,10.77254 m 3.346018,-10.03805 2.795149,0 c 2.448303,0 3.550043,1.75462 3.550043,4.65178 0,2.26468 -0.856909,4.65178 -3.52964,4.65178 l -2.815552,0 0,-9.30356"
       style=""
       id="path3001" />
  </g>
</svg>
