<?xml version="1.0" encoding="UTF-8" standalone="no"?>
<!DOCTYPE svg PUBLIC "-//W3C//DTD SVG 20010904//EN"
"http://www.w3.org/TR/2001/REC-SVG-20010904/DTD/svg10.dtd">
<svg
   width="128.00000pt"
   height="128.00000pt"
   viewBox="0 0 800 800"
   xmlns="http://www.w3.org/2000/svg"
   xmlns:sodipodi="http://sodipodi.sourceforge.net/DTD/sodipodi-0.dtd"
   xmlns:inkscape="http://www.inkscape.org/namespaces/inkscape"
   xmlns:xlink="http://www.w3.org/1999/xlink"
   id="svg1"
   sodipodi:version="0.32"
   inkscape:version="0.39"
   xmlns:rdf="http://www.w3.org/1999/02/22-rdf-syntax-ns#"
   xmlns:cc="http://web.resource.org/cc/"
   xmlns:dc="http://purl.org/dc/elements/1.1/"
   sodipodi:docname="debian.svg"
   sodipodi:docbase="/home/francois"
   inkscape:export-filename="/home/francois/debian.png"
   inkscape:export-xdpi="14.400000"
   inkscape:export-ydpi="14.400000">
  <defs
     id="defs5" />
  <sodipodi:namedview
     id="base"
     pagecolor="#ffffff"
     bordercolor="#666666"
     borderopacity="1.0"
     inkscape:pageopacity="0.0"
     inkscape:pageshadow="2"
     inkscape:zoom="6.1796875"
     inkscape:cx="64.000000"
     inkscape:cy="64.000000"
     inkscape:window-width="1272"
     inkscape:window-height="954"
     inkscape:window-x="0"
     inkscape:window-y="0" />
  <path
     id="path830"
     fill="none"
     stroke="black"
     stroke-width="1"
     d="M 442.68,26.76            C 442.68,26.76 442.08,27.36 442.08,27.36              442.08,27.36 442.08,26.76 442.08,26.76              442.08,26.76 442.68,26.76 442.68,26.76 Z            M 430.81,28.57            C 427.84,29.17 426.06,29.77 423.09,28.57              423.09,28.57 430.81,28.57 430.81,28.57 Z            M 392.82,32.79            C 395.79,32.19 401.13,30.98 404.10,32.19              398.76,34.60 392.82,37.62 388.67,41.24              398.76,38.22 404.69,39.43 414.78,40.63              414.78,40.63 425.46,41.84 425.46,41.84              421.90,42.44 418.34,43.65 415.97,46.06              415.97,46.06 423.09,46.67 423.09,46.67              423.09,46.67 453.95,43.05 453.95,43.05              459.30,43.05 464.64,44.25 469.39,46.06              469.39,46.06 468.20,39.43 468.20,39.43              468.20,39.43 486.01,44.86 486.01,44.86              499.06,49.08 510.34,52.09 522.81,57.52              522.81,57.52 537.64,64.76 537.64,64.76              539.43,65.97 542.99,67.78 544.77,68.38              548.92,68.99 556.64,65.37 561.98,64.76              564.95,64.76 574.44,66.57 576.23,68.99              578.01,70.80 577.41,73.21 582.75,78.03              586.91,81.65 594.62,86.48 599.37,89.50              599.37,89.50 599.97,88.89 599.97,88.89              599.97,88.89 590.47,77.43 590.47,77.43              598.78,81.05 613.62,91.91 620.74,97.94              646.26,117.85 668.22,143.19 684.25,171.54              689.59,180.59 693.75,190.24 697.31,199.89              698.50,202.91 700.87,208.94 700.87,211.96              699.09,208.34 697.90,207.13 694.93,204.72              694.93,210.15 695.53,213.77 696.12,219.20              696.71,221.61 697.31,224.02 695.53,225.83              695.53,225.83 705.62,257.20 705.62,257.20              706.21,260.22 708.59,266.25 707.40,269.27              704.43,256.00 697.31,237.90 691.97,225.23              690.19,219.80 684.25,207.74 680.10,204.12              680.10,205.32 680.10,206.53 678.91,207.74              675.94,211.36 668.82,205.32 667.04,211.36              666.44,214.37 668.82,223.42 670.00,226.44              671.79,230.06 673.57,231.87 675.94,227.64              675.94,227.64 677.13,227.64 677.13,227.64              683.06,237.30 681.28,236.69 683.06,246.95              683.06,246.95 688.40,270.48 688.40,270.48              682.47,266.86 683.06,259.62 677.72,259.62              677.72,259.62 681.88,274.10 681.88,274.10              684.84,280.73 686.03,281.94 689.59,287.37              687.81,287.97 687.22,287.97 686.03,289.78              684.84,292.80 685.44,303.66 686.03,306.67              686.62,308.48 687.81,312.10 690.19,313.31              691.37,313.31 693.75,312.70 694.93,312.10              694.93,312.10 686.62,339.25 686.62,339.25              686.62,339.25 684.84,350.71 684.84,350.71              684.84,350.71 684.84,356.74 684.84,356.74              684.84,356.74 679.50,343.47 679.50,343.47              679.50,343.47 678.91,356.74 678.91,356.74              676.53,356.14 675.35,356.74 674.75,359.16              674.75,359.16 673.57,374.24 673.57,374.24              670.60,388.11 662.88,400.18 657.54,412.85              653.98,420.69 654.57,426.12 653.39,428.53              653.39,428.53 647.45,418.88 647.45,418.88              643.89,423.10 636.77,434.56 637.36,439.99              637.36,439.99 637.95,444.22 637.95,444.22              637.95,447.84 636.17,452.06 634.39,454.47              633.80,447.84 633.80,450.25 636.17,444.22              627.86,449.65 621.33,457.49 614.21,464.73              608.28,470.76 601.15,476.19 594.03,481.62              569.70,499.11 541.21,509.97 512.12,512.99              512.12,512.99 499.06,514.20 499.06,514.20              499.06,514.20 487.19,514.20 487.19,514.20              487.19,514.20 481.26,513.59 481.26,513.59              466.42,512.39 453.36,510.58 439.12,506.35              435.56,505.15 425.46,502.73 422.50,500.92              422.50,500.92 417.75,495.49 417.75,495.49              417.75,495.49 404.69,485.24 404.69,485.24              383.92,467.74 364.92,450.25 352.46,424.91              345.93,410.43 342.37,395.35 341.18,379.67              341.18,379.67 340.59,372.43 340.59,372.43              340.59,372.43 340.59,359.76 340.59,359.76              340.59,359.76 342.37,337.44 342.37,337.44              342.37,337.44 348.30,325.98 348.30,325.98              352.46,315.12 354.83,304.26 361.36,294.61              366.70,285.56 369.08,286.16 371.45,283.14              371.45,283.14 376.20,275.30 376.20,275.30              378.57,271.08 383.92,265.05 387.48,261.43              402.32,247.55 421.90,237.90 441.49,234.88              448.61,234.28 455.74,234.28 462.86,234.28              477.10,234.28 491.35,239.71 503.81,246.35              512.72,250.57 520.43,256.60 527.55,263.84              530.52,266.86 533.49,269.27 535.27,272.89              528.74,268.06 526.37,265.65 518.65,261.43              506.19,254.19 487.79,248.76 473.54,248.76              462.26,248.76 455.14,248.76 443.86,251.77              406.47,261.43 377.39,288.57 365.52,325.98              362.55,335.63 360.77,345.28 360.17,354.93              360.17,354.93 359.58,362.17 359.58,362.17              359.58,362.17 360.17,370.01 360.17,370.01              360.17,370.01 363.74,366.40 363.74,366.40              363.74,413.45 394.01,458.09 434.96,479.21              448.02,486.44 467.01,493.08 481.85,493.08              500.25,493.08 509.15,491.87 526.37,484.64              526.37,484.64 526.96,486.44 526.96,486.44              534.68,484.64 544.17,481.02 550.11,476.19              556.64,471.36 562.57,464.12 569.10,460.50              566.73,463.52 563.17,465.93 561.98,470.16              568.51,469.55 575.04,463.52 579.79,459.90              579.79,459.90 602.34,439.99 602.34,439.99              607.09,435.77 614.81,430.34 615.99,423.71              616.59,420.69 615.99,419.48 615.99,417.07              615.99,412.85 617.77,406.81 620.74,404.40              623.71,402.59 628.46,401.38 630.24,398.37              630.24,398.37 634.39,387.51 634.39,387.51              637.95,379.06 640.33,371.82 641.51,362.78              642.11,359.16 642.70,356.14 641.51,352.52              641.51,352.52 636.77,362.17 636.77,362.17              638.55,352.52 640.92,344.07 640.92,334.42              640.92,334.42 641.51,324.17 641.51,324.17              641.51,324.17 641.51,315.72 641.51,315.72              641.51,315.72 640.92,309.69 640.92,309.69              640.92,309.69 640.92,285.56 640.92,285.56              640.92,277.72 639.14,281.94 637.95,275.91              637.95,275.91 637.36,266.25 637.36,266.25              636.17,259.01 634.39,251.77 632.61,244.54              623.11,213.17 605.90,186.02 584.53,161.89              564.95,139.57 542.99,122.68 515.09,112.42              498.47,106.39 477.70,102.17 459.89,100.96              459.89,100.96 453.95,100.36 453.95,100.36              453.95,100.36 448.02,100.36 448.02,100.36              448.02,100.36 442.08,99.75 442.08,99.75              442.08,99.75 439.12,99.75 439.12,99.75              439.12,99.75 428.43,100.36 428.43,100.36              428.43,100.36 411.81,102.17 411.81,102.17              409.44,102.77 405.88,103.98 403.50,103.37              404.69,100.36 400.54,101.56 398.76,101.56              398.76,101.56 383.32,104.58 383.32,104.58              364.33,108.80 359.58,116.64 343.56,123.28              343.56,123.28 329.31,128.71 329.31,128.71              328.12,129.31 328.12,129.92 327.53,131.12              327.53,131.12 343.56,128.11 343.56,128.11              337.03,135.95 322.19,134.14 312.69,136.55              300.82,139.57 285.98,151.63 278.86,161.29              283.01,160.68 285.39,158.87 288.95,157.06              288.36,159.48 285.98,163.10 284.20,164.30              283.01,164.90 280.05,164.90 278.86,164.90              276.49,164.90 274.11,166.11 272.33,166.71              265.21,169.13 257.49,174.56 251.56,178.78              236.72,189.64 222.47,204.12 210.01,217.99              200.51,228.25 191.01,239.71 183.89,251.77              183.89,251.77 190.42,252.98 190.42,252.98              186.86,262.63 182.11,272.29 177.36,281.33              173.21,288.57 166.68,301.24 164.31,309.09              164.31,309.09 160.74,341.66 160.74,341.66              160.74,341.66 156.59,385.70 156.59,385.70              156.59,385.70 156.00,391.73 156.00,391.73              156.00,391.73 155.40,409.23 155.40,409.23              155.40,409.23 156.00,417.07 156.00,417.07              156.00,424.91 157.18,433.96 159.56,441.20              159.56,441.20 165.49,453.87 165.49,453.87              166.09,458.09 163.71,468.95 164.31,473.17              164.31,473.17 171.43,488.86 171.43,488.86              171.43,488.86 167.87,488.86 167.87,488.86              169.65,497.91 176.18,516.00 183.89,520.83              189.23,524.45 193.39,520.83 199.92,527.47              206.45,534.10 213.57,549.18 216.54,558.23              209.41,556.42 207.63,552.80 202.89,547.98              204.67,557.63 208.82,565.47 214.16,573.92              214.16,573.92 220.69,584.17 220.69,584.17              222.47,587.79 217.72,589.00 218.91,592.62              220.10,598.05 228.41,603.48 231.97,607.70              229.00,606.49 226.63,606.49 227.81,610.72              228.41,613.13 231.38,617.35 232.56,619.77              232.56,619.77 248.59,642.69 248.59,642.69              250.96,646.31 255.71,652.34 257.49,655.96              257.49,655.96 261.05,651.14 261.05,651.14              261.05,651.14 262.24,656.57 262.24,656.57              264.61,664.41 269.96,671.65 274.70,678.28              277.67,682.51 278.86,686.13 284.20,686.13              285.39,686.13 289.54,686.13 290.73,686.73              291.92,687.33 293.70,689.75 294.29,690.95              296.67,693.97 297.85,695.17 300.82,698.19              307.35,704.83 311.50,707.84 320.41,711.46              320.41,711.46 314.47,719.91 314.47,719.91              319.81,721.11 326.94,724.13 331.09,727.15              331.09,727.15 339.40,733.18 339.40,733.18              339.40,733.18 356.02,741.02 356.02,741.02              356.02,741.02 351.27,731.37 351.27,731.37              357.21,735.59 363.14,743.44 368.48,748.87              373.83,754.29 383.92,762.14 391.04,765.15              402.91,770.58 418.34,773.00 431.40,775.41              436.15,776.01 450.99,779.03 454.55,780.84              454.55,780.84 443.27,780.23 443.27,780.23              443.27,780.23 431.99,780.23 431.99,780.23              431.99,780.23 423.09,779.63 423.09,779.63              379.17,779.03 330.50,757.91 294.29,733.18              214.16,678.89 155.40,594.43 131.07,499.72              125.73,478.60 122.16,457.49 120.98,435.77              120.98,435.77 120.38,428.53 120.38,428.53              120.38,428.53 120.38,418.88 120.38,418.88              120.38,418.88 119.79,411.04 119.79,411.04              119.79,411.04 120.38,388.11 120.38,388.11              120.38,388.11 119.79,380.87 119.79,380.87              119.79,380.87 119.79,371.82 119.79,371.82              119.79,371.82 120.38,362.78 120.38,362.78              120.38,362.78 120.38,348.90 120.38,348.90              120.38,348.90 120.98,339.25 120.98,339.25              120.98,339.25 120.98,324.17 120.98,324.17              120.98,324.17 118.60,307.28 118.60,307.28              118.60,305.47 120.38,301.24 120.98,299.43              120.98,299.43 127.51,278.92 127.51,278.92              132.85,260.22 145.31,227.64 154.22,211.36              158.96,212.56 161.93,208.94 164.31,205.32              167.87,200.50 173.80,185.42 176.18,178.78              177.96,175.76 182.11,166.11 183.89,163.70              185.08,161.89 186.86,162.49 188.05,160.68              188.05,160.68 190.42,155.25 190.42,155.25              192.20,151.63 193.39,149.22 195.76,146.20              205.26,133.54 221.29,119.06 233.16,108.20              233.16,108.20 240.87,100.96 240.87,100.96              244.43,97.34 248.59,92.51 252.74,89.50              252.74,89.50 253.34,95.53 253.34,95.53              278.27,73.81 300.82,63.56 329.90,50.28              329.90,50.28 353.05,40.03 353.05,40.03              353.05,40.03 367.89,34.00 367.89,34.00              367.89,34.00 367.30,37.01 367.30,37.01              376.20,37.01 384.51,34.60 392.82,32.79 Z            M 441.49,37.01            C 439.12,40.03 436.15,38.22 433.18,37.01              433.18,37.01 427.84,35.81 427.84,35.81              427.84,35.81 441.49,37.01 441.49,37.01 Z            M 139.97,189.04            C 141.75,195.67 136.41,202.91 130.47,205.32              133.44,198.69 134.03,197.48 134.63,189.64              134.63,189.64 139.97,189.04 139.97,189.04 Z            M 118.60,253.58            C 118.60,253.58 114.45,269.87 114.45,269.87              114.45,269.87 113.85,259.01 113.85,259.01              114.45,254.19 116.82,249.36 119.79,245.74              119.79,245.74 118.60,253.58 118.60,253.58 Z            M 556.64,341.06            C 556.64,339.85 555.45,338.04 555.45,336.84              554.86,333.82 557.23,330.20 559.61,328.39              561.98,333.22 561.98,341.66 559.61,346.49              557.83,344.68 557.83,343.47 556.64,341.06 Z            M 678.91,373.03            C 678.91,373.03 678.91,369.41 678.91,369.41              678.91,369.41 678.91,373.03 678.91,373.03 Z            M 691.97,377.25            C 690.78,382.08 689.59,392.94 687.22,396.56              687.22,396.56 692.56,369.41 692.56,369.41              693.15,371.82 692.56,374.84 691.97,377.25 Z            M 550.11,380.27            C 550.11,380.27 549.52,380.87 549.52,380.87              549.52,380.87 549.52,380.27 549.52,380.27              549.52,380.27 550.11,380.27 550.11,380.27 Z            M 537.05,388.72            C 534.08,393.54 531.71,396.56 529.93,401.99              532.90,402.59 533.49,401.99 536.46,400.78              544.17,396.56 543.58,391.13 548.33,385.10              546.55,392.34 541.80,400.78 537.64,406.81              537.64,406.81 536.46,406.81 536.46,406.81              533.49,403.19 531.12,404.40 529.93,401.99              528.74,399.57 529.93,397.16 530.52,395.35              532.30,391.73 537.05,385.10 539.43,382.08              540.02,384.49 538.24,386.91 537.05,388.72 Z            M 549.52,382.08            C 549.52,382.08 548.92,382.68 548.92,382.68              548.92,382.68 548.92,382.08 548.92,382.08              548.92,382.08 549.52,382.08 549.52,382.08 Z            M 677.13,382.68            C 677.13,382.68 676.53,383.29 676.53,383.29              676.53,383.29 676.53,382.68 676.53,382.68              676.53,382.68 677.13,382.68 677.13,382.68 Z            M 681.88,414.66            C 681.88,414.66 681.28,415.26 681.28,415.26              681.28,415.26 681.28,414.66 681.28,414.66              681.28,414.66 681.88,414.66 681.88,414.66 Z            M 681.28,416.47            C 681.28,416.47 680.69,417.07 680.69,417.07              680.69,417.07 680.69,416.47 680.69,416.47              680.69,416.47 681.28,416.47 681.28,416.47 Z            M 680.10,419.48            C 680.10,419.48 679.50,420.09 679.50,420.09              679.50,420.09 679.50,419.48 679.50,419.48              679.50,419.48 680.10,419.48 680.10,419.48 Z            M 678.91,422.50            C 678.91,422.50 678.31,423.10 678.31,423.10              678.31,423.10 678.31,422.50 678.31,422.50              678.31,422.50 678.91,422.50 678.91,422.50 Z            M 477.10,425.52            C 477.10,425.52 483.63,425.52 483.63,425.52              483.63,425.52 493.72,424.91 493.72,424.91              496.10,424.31 497.88,423.71 500.25,424.31              497.28,426.72 492.54,431.55 489.57,432.75              487.19,433.96 484.82,432.75 482.45,432.15              477.10,431.55 471.17,429.74 466.42,426.72              466.42,426.72 466.42,425.52 466.42,425.52              471.17,424.31 472.35,424.91 477.10,425.52 Z            M 347.12,427.33            C 347.12,427.33 346.52,427.93 346.52,427.93              346.52,427.93 346.52,427.33 346.52,427.33              346.52,427.33 347.12,427.33 347.12,427.33 Z            M 351.27,435.17            C 353.65,438.79 358.39,445.42 357.80,450.25              354.83,444.82 348.30,434.56 347.12,428.53              347.12,428.53 351.27,435.17 351.27,435.17 Z            M 342.37,453.87            C 345.93,459.90 356.61,476.79 358.39,481.62              351.87,476.79 345.34,467.14 340.59,459.90              339.40,458.09 335.25,452.66 335.25,450.85              334.65,449.04 335.84,444.82 335.84,443.01              338.21,444.82 341.18,450.85 342.37,453.87 Z            M 368.48,471.97            C 377.39,482.22 384.51,490.67 396.38,497.30              396.38,497.30 388.07,488.86 388.07,488.86              384.51,485.24 377.39,476.79 375.01,471.97              378.57,474.98 381.54,478.60 385.10,481.62              392.82,488.25 400.54,494.89 409.44,499.72              413.00,501.53 416.56,503.94 420.12,505.15              420.12,505.15 420.12,502.13 420.12,502.13              423.09,503.94 423.68,505.15 426.06,507.56              429.62,510.58 436.15,515.40 440.30,517.81              448.02,522.04 464.05,525.05 472.95,526.26              472.95,526.26 499.06,527.47 499.06,527.47              502.63,527.47 509.75,526.86 512.72,528.07              496.10,533.50 478.88,532.90 462.26,529.88              434.96,523.85 408.85,511.18 386.29,493.68              375.01,485.24 358.39,468.95 352.46,455.68              357.80,458.09 364.33,467.14 368.48,471.97 Z"
     style="stroke-width:2.4999996;stroke-miterlimit:4.0000000;stroke-dasharray:none;fill:#000000;fill-opacity:0.50988144;" />
  <path
     style="fill:#de0551;fill-opacity:1.0000000;stroke:#000000;stroke-width:4.9999992;stroke-miterlimit:4.0000000;stroke-dasharray:none;"
     d="M 433.33000,22.850000 C 433.33000,22.850000 432.74000,23.450000 432.74000,23.450000 C 432.74000,23.450000 432.74000,22.850000 432.74000,22.850000 C 432.74000,22.850000 433.33000,22.850000 433.33000,22.850000 z M 421.46000,24.660000 C 418.49000,25.260000 416.71000,25.870000 413.74000,24.660000 C 413.74000,24.660000 421.46000,24.660000 421.46000,24.660000 z M 383.47000,28.880000 C 386.44000,28.280000 391.78000,27.070000 394.75000,28.280000 C 389.41000,30.690000 383.47000,33.710000 379.32000,37.330000 C 389.41000,34.310000 395.34000,35.520000 405.43000,36.730000 C 405.43000,36.730000 416.12000,37.930000 416.12000,37.930000 C 412.56000,38.540000 409.00000,39.740000 406.62000,42.150000 C 406.62000,42.150000 413.74000,42.760000 413.74000,42.760000 C 413.74000,42.760000 444.61000,39.140000 444.61000,39.140000 C 449.95000,39.140000 455.29000,40.350000 460.04000,42.150000 C 460.04000,42.150000 458.85000,35.520000 458.85000,35.520000 C 458.85000,35.520000 476.66000,40.950000 476.66000,40.950000 C 489.72000,45.170000 500.99000,48.190000 513.46000,53.620000 C 513.46000,53.620000 528.30000,60.860000 528.30000,60.860000 C 530.08000,62.060000 533.64000,63.870000 535.42000,64.480000 C 539.57000,65.080000 547.29000,61.460000 552.63000,60.860000 C 555.60000,60.860000 565.10000,62.670000 566.88000,65.080000 C 568.66000,66.890000 568.07000,69.300000 573.41000,74.130000 C 577.56000,77.750000 585.28000,82.570000 590.03000,85.590000 C 590.03000,85.590000 590.62000,84.990000 590.62000,84.990000 C 590.62000,84.990000 581.12000,73.520000 581.12000,73.520000 C 589.43000,77.140000 604.27000,88.000000 611.39000,94.040000 C 636.92000,113.94000 658.88000,139.28000 674.90000,167.63000 C 680.24000,176.68000 684.40000,186.34000 687.96000,195.99000 C 689.15000,199.00000 691.52000,205.04000 691.52000,208.05000 C 689.74000,204.43000 688.55000,203.23000 685.59000,200.81000 C 685.59000,206.24000 686.18000,209.86000 686.77000,215.29000 C 687.37000,217.70000 687.96000,220.12000 686.18000,221.93000 C 686.18000,221.93000 696.27000,253.30000 696.27000,253.30000 C 696.86000,256.31000 699.24000,262.35000 698.05000,265.36000 C 695.08000,252.09000 687.96000,233.99000 682.62000,221.32000 C 680.84000,215.90000 674.90000,203.83000 670.75000,200.21000 C 670.75000,201.42000 670.75000,202.62000 669.56000,203.83000 C 666.59000,207.45000 659.47000,201.42000 657.69000,207.45000 C 657.10000,210.47000 659.47000,219.51000 660.66000,222.53000 C 662.44000,226.15000 664.22000,227.96000 666.59000,223.74000 C 666.59000,223.74000 667.78000,223.74000 667.78000,223.74000 C 673.72000,233.39000 671.94000,232.79000 673.72000,243.04000 C 673.72000,243.04000 679.06000,266.57000 679.06000,266.57000 C 673.12000,262.95000 673.72000,255.71000 668.37000,255.71000 C 668.37000,255.71000 672.53000,270.19000 672.53000,270.19000 C 675.50000,276.82000 676.68000,278.03000 680.24000,283.46000 C 678.46000,284.06000 677.87000,284.06000 676.68000,285.87000 C 675.50000,288.89000 676.09000,299.75000 676.68000,302.77000 C 677.28000,304.57000 678.46000,308.19000 680.84000,309.40000 C 682.03000,309.40000 684.40000,308.80000 685.59000,308.19000 C 685.59000,308.19000 677.28000,335.34000 677.28000,335.34000 C 677.28000,335.34000 675.50000,346.80000 675.50000,346.80000 C 675.50000,346.80000 675.50000,352.84000 675.50000,352.84000 C 675.50000,352.84000 670.15000,339.56000 670.15000,339.56000 C 670.15000,339.56000 669.56000,352.84000 669.56000,352.84000 C 667.19000,352.23000 666.00000,352.84000 665.41000,355.25000 C 665.41000,355.25000 664.22000,370.33000 664.22000,370.33000 C 661.25000,384.21000 653.54000,396.27000 648.19000,408.94000 C 644.63000,416.78000 645.23000,422.21000 644.04000,424.62000 C 644.04000,424.62000 638.10000,414.97000 638.10000,414.97000 C 634.54000,419.20000 627.42000,430.66000 628.01000,436.09000 C 628.01000,436.09000 628.61000,440.31000 628.61000,440.31000 C 628.61000,443.93000 626.83000,448.15000 625.05000,450.57000 C 624.45000,443.93000 624.45000,446.34000 626.83000,440.31000 C 618.52000,445.74000 611.99000,453.58000 604.86000,460.82000 C 598.93000,466.85000 591.81000,472.28000 584.68000,477.71000 C 560.35000,495.21000 531.86000,506.07000 502.78000,509.08000 C 502.78000,509.08000 489.72000,510.29000 489.72000,510.29000 C 489.72000,510.29000 477.85000,510.29000 477.85000,510.29000 C 477.85000,510.29000 471.91000,509.68000 471.91000,509.68000 C 457.07000,508.48000 444.01000,506.67000 429.77000,502.45000 C 426.21000,501.24000 416.12000,498.83000 413.15000,497.02000 C 413.15000,497.02000 408.40000,491.59000 408.40000,491.59000 C 408.40000,491.59000 395.34000,481.33000 395.34000,481.33000 C 374.57000,463.84000 355.58000,446.34000 343.11000,421.01000 C 336.58000,406.53000 333.02000,391.45000 331.83000,375.76000 C 331.83000,375.76000 331.24000,368.52000 331.24000,368.52000 C 331.24000,368.52000 331.24000,355.85000 331.24000,355.85000 C 331.24000,355.85000 333.02000,333.53000 333.02000,333.53000 C 333.02000,333.53000 338.96000,322.07000 338.96000,322.07000 C 343.11000,311.21000 345.49000,300.35000 352.01000,290.70000 C 357.36000,281.65000 359.73000,282.25000 362.11000,279.24000 C 362.11000,279.24000 366.85000,271.40000 366.85000,271.40000 C 369.23000,267.17000 374.57000,261.14000 378.13000,257.52000 C 392.97000,243.65000 412.56000,233.99000 432.14000,230.98000 C 439.27000,230.37000 446.39000,230.37000 453.51000,230.37000 C 467.76000,230.37000 482.00000,235.80000 494.47000,242.44000 C 503.37000,246.66000 511.08000,252.69000 518.21000,259.93000 C 521.18000,262.95000 524.14000,265.36000 525.92000,268.98000 C 519.39000,264.16000 517.02000,261.74000 509.30000,257.52000 C 496.84000,250.28000 478.44000,244.85000 464.19000,244.85000 C 452.92000,244.85000 445.79000,244.85000 434.52000,247.87000 C 397.12000,257.52000 368.04000,284.67000 356.17000,322.07000 C 353.20000,331.72000 351.42000,341.37000 350.83000,351.03000 C 350.83000,351.03000 350.23000,358.27000 350.23000,358.27000 C 350.23000,358.27000 350.83000,366.11000 350.83000,366.11000 C 350.83000,366.11000 354.39000,362.49000 354.39000,362.49000 C 354.39000,409.54000 384.66000,454.18000 425.61000,475.30000 C 438.67000,482.54000 457.67000,489.17000 472.50000,489.17000 C 490.90000,489.17000 499.81000,487.97000 517.02000,480.73000 C 517.02000,480.73000 517.61000,482.54000 517.61000,482.54000 C 525.33000,480.73000 534.83000,477.11000 540.76000,472.28000 C 547.29000,467.46000 553.23000,460.22000 559.76000,456.60000 C 557.38000,459.61000 553.82000,462.03000 552.63000,466.25000 C 559.16000,465.65000 565.69000,459.61000 570.44000,455.99000 C 570.44000,455.99000 592.99000,436.09000 592.99000,436.09000 C 597.74000,431.86000 605.46000,426.43000 606.65000,419.80000 C 607.24000,416.78000 606.65000,415.58000 606.65000,413.16000 C 606.65000,408.94000 608.43000,402.91000 611.39000,400.49000 C 614.36000,398.68000 619.11000,397.48000 620.89000,394.46000 C 620.89000,394.46000 625.05000,383.60000 625.05000,383.60000 C 628.61000,375.16000 630.98000,367.92000 632.17000,358.87000 C 632.76000,355.25000 633.35000,352.23000 632.17000,348.61000 C 632.17000,348.61000 627.42000,358.27000 627.42000,358.27000 C 629.20000,348.61000 631.57000,340.17000 631.57000,330.52000 C 631.57000,330.52000 632.17000,320.26000 632.17000,320.26000 C 632.17000,320.26000 632.17000,311.81000 632.17000,311.81000 C 632.17000,311.81000 631.57000,305.78000 631.57000,305.78000 C 631.57000,305.78000 631.57000,281.65000 631.57000,281.65000 C 631.57000,273.81000 629.79000,278.03000 628.61000,272.00000 C 628.61000,272.00000 628.01000,262.35000 628.01000,262.35000 C 626.83000,255.11000 625.05000,247.87000 623.26000,240.63000 C 613.77000,209.26000 596.56000,182.11000 575.19000,157.98000 C 555.60000,135.66000 533.64000,118.77000 505.74000,108.51000 C 489.12000,102.48000 468.35000,98.260000 450.54000,97.050000 C 450.54000,97.050000 444.61000,96.450000 444.61000,96.450000 C 444.61000,96.450000 438.67000,96.450000 438.67000,96.450000 C 438.67000,96.450000 432.74000,95.850000 432.74000,95.850000 C 432.74000,95.850000 429.77000,95.850000 429.77000,95.850000 C 429.77000,95.850000 419.09000,96.450000 419.09000,96.450000 C 419.09000,96.450000 402.47000,98.260000 402.47000,98.260000 C 400.09000,98.860000 396.53000,100.07000 394.16000,99.470000 C 395.34000,96.450000 391.19000,97.660000 389.41000,97.660000 C 389.41000,97.660000 373.98000,100.67000 373.98000,100.67000 C 354.98000,104.89000 350.23000,112.74000 334.21000,119.37000 C 334.21000,119.37000 319.96000,124.80000 319.96000,124.80000 C 318.78000,125.41000 318.78000,126.01000 318.18000,127.22000 C 318.18000,127.22000 334.21000,124.20000 334.21000,124.20000 C 327.68000,132.04000 312.84000,130.23000 303.34000,132.64000 C 291.47000,135.66000 276.63000,147.73000 269.51000,157.38000 C 273.67000,156.78000 276.04000,154.97000 279.60000,153.16000 C 279.01000,155.57000 276.63000,159.19000 274.85000,160.39000 C 273.67000,161.00000 270.70000,161.00000 269.51000,161.00000 C 267.14000,161.00000 264.76000,162.20000 262.98000,162.81000 C 255.86000,165.22000 248.14000,170.65000 242.21000,174.87000 C 227.37000,185.73000 213.13000,200.21000 200.66000,214.09000 C 191.16000,224.34000 181.67000,235.80000 174.55000,247.87000 C 174.55000,247.87000 181.07000,249.07000 181.07000,249.07000 C 177.51000,258.73000 172.76000,268.38000 168.02000,277.43000 C 163.86000,284.67000 157.33000,297.34000 154.96000,305.18000 C 154.96000,305.18000 151.40000,337.75000 151.40000,337.75000 C 151.40000,337.75000 147.24000,381.79000 147.24000,381.79000 C 147.24000,381.79000 146.65000,387.83000 146.65000,387.83000 C 146.65000,387.83000 146.06000,405.32000 146.06000,405.32000 C 146.06000,405.32000 146.65000,413.16000 146.65000,413.16000 C 146.65000,421.01000 147.84000,430.05000 150.21000,437.29000 C 150.21000,437.29000 156.15000,449.96000 156.15000,449.96000 C 156.74000,454.18000 154.36000,465.04000 154.96000,469.27000 C 154.96000,469.27000 162.08000,484.95000 162.08000,484.95000 C 162.08000,484.95000 158.52000,484.95000 158.52000,484.95000 C 160.30000,494.00000 166.83000,512.10000 174.55000,516.92000 C 179.89000,520.54000 184.04000,516.92000 190.57000,523.56000 C 197.10000,530.20000 204.22000,545.28000 207.19000,554.33000 C 200.07000,552.52000 198.29000,548.90000 193.54000,544.07000 C 195.32000,553.72000 199.47000,561.57000 204.82000,570.01000 C 204.82000,570.01000 211.35000,580.27000 211.35000,580.27000 C 213.13000,583.89000 208.38000,585.09000 209.56000,588.71000 C 210.75000,594.14000 219.06000,599.57000 222.62000,603.79000 C 219.65000,602.59000 217.28000,602.59000 218.47000,606.81000 C 219.06000,609.22000 222.03000,613.45000 223.22000,615.86000 C 223.22000,615.86000 239.24000,638.78000 239.24000,638.78000 C 241.62000,642.40000 246.36000,648.44000 248.14000,652.06000 C 248.14000,652.06000 251.71000,647.23000 251.71000,647.23000 C 251.71000,647.23000 252.89000,652.66000 252.89000,652.66000 C 255.27000,660.50000 260.61000,667.74000 265.36000,674.38000 C 268.33000,678.60000 269.51000,682.22000 274.85000,682.22000 C 276.04000,682.22000 280.20000,682.22000 281.38000,682.82000 C 282.57000,683.43000 284.35000,685.84000 284.94000,687.04000 C 287.32000,690.06000 288.51000,691.27000 291.47000,694.28000 C 298.00000,700.92000 302.16000,703.94000 311.06000,707.56000 C 311.06000,707.56000 305.12000,716.00000 305.12000,716.00000 C 310.47000,717.21000 317.59000,720.22000 321.74000,723.24000 C 321.74000,723.24000 330.05000,729.27000 330.05000,729.27000 C 330.05000,729.27000 346.67000,737.12000 346.67000,737.12000 C 346.67000,737.12000 341.92000,727.46000 341.92000,727.46000 C 347.86000,731.69000 353.80000,739.53000 359.14000,744.96000 C 364.48000,750.39000 374.57000,758.23000 381.69000,761.25000 C 393.56000,766.68000 409.00000,769.09000 422.05000,771.50000 C 426.80000,772.11000 441.64000,775.12000 445.20000,776.93000 C 445.20000,776.93000 433.92000,776.33000 433.92000,776.33000 C 433.92000,776.33000 422.65000,776.33000 422.65000,776.33000 C 422.65000,776.33000 413.74000,775.72000 413.74000,775.72000 C 369.82000,775.12000 321.15000,754.01000 284.94000,729.27000 C 204.82000,674.98000 146.06000,590.52000 121.72000,495.81000 C 116.38000,474.70000 112.82000,453.58000 111.63000,431.86000 C 111.63000,431.86000 111.04000,424.62000 111.04000,424.62000 C 111.04000,424.62000 111.04000,414.97000 111.04000,414.97000 C 111.04000,414.97000 110.44000,407.13000 110.44000,407.13000 C 110.44000,407.13000 111.04000,384.21000 111.04000,384.21000 C 111.04000,384.21000 110.44000,376.97000 110.44000,376.97000 C 110.44000,376.97000 110.44000,367.92000 110.44000,367.92000 C 110.44000,367.92000 111.04000,358.87000 111.04000,358.87000 C 111.04000,358.87000 111.04000,344.99000 111.04000,344.99000 C 111.04000,344.99000 111.63000,335.34000 111.63000,335.34000 C 111.63000,335.34000 111.63000,320.26000 111.63000,320.26000 C 111.63000,320.26000 109.26000,303.37000 109.26000,303.37000 C 109.26000,301.56000 111.04000,297.34000 111.63000,295.53000 C 111.63000,295.53000 118.16000,275.01000 118.16000,275.01000 C 123.50000,256.31000 135.96000,223.74000 144.87000,207.45000 C 149.62000,208.66000 152.58000,205.04000 154.96000,201.42000 C 158.52000,196.59000 164.45000,181.51000 166.83000,174.87000 C 168.61000,171.86000 172.76000,162.20000 174.55000,159.79000 C 175.73000,157.98000 177.51000,158.58000 178.70000,156.78000 C 178.70000,156.78000 181.07000,151.35000 181.07000,151.35000 C 182.85000,147.73000 184.04000,145.31000 186.42000,142.30000 C 195.91000,129.63000 211.94000,115.15000 223.81000,104.29000 C 223.81000,104.29000 231.53000,97.050000 231.53000,97.050000 C 235.09000,93.430000 239.24000,88.610000 243.40000,85.590000 C 243.40000,85.590000 243.99000,91.620000 243.99000,91.620000 C 268.92000,69.910000 291.47000,59.650000 320.56000,46.380000 C 320.56000,46.380000 343.71000,36.120000 343.71000,36.120000 C 343.71000,36.120000 358.54000,30.090000 358.54000,30.090000 C 358.54000,30.090000 357.95000,33.110000 357.95000,33.110000 C 366.85000,33.110000 375.16000,30.690000 383.47000,28.880000 z M 432.14000,33.110000 C 429.77000,36.120000 426.80000,34.310000 423.83000,33.110000 C 423.83000,33.110000 418.49000,31.900000 418.49000,31.900000 C 418.49000,31.900000 432.14000,33.110000 432.14000,33.110000 z M 130.62000,185.13000 C 132.40000,191.76000 127.06000,199.00000 121.13000,201.42000 C 124.09000,194.78000 124.69000,193.57000 125.28000,185.73000 C 125.28000,185.73000 130.62000,185.13000 130.62000,185.13000 z M 109.26000,249.68000 C 109.26000,249.68000 105.10000,265.97000 105.10000,265.97000 C 105.10000,265.97000 104.51000,255.11000 104.51000,255.11000 C 105.10000,250.28000 107.47000,245.46000 110.44000,241.84000 C 110.44000,241.84000 109.26000,249.68000 109.26000,249.68000 z M 547.29000,337.15000 C 547.29000,335.94000 546.10000,334.13000 546.10000,332.93000 C 545.51000,329.91000 547.88000,326.29000 550.26000,324.48000 C 552.63000,329.31000 552.63000,337.75000 550.26000,342.58000 C 548.48000,340.77000 548.48000,339.56000 547.29000,337.15000 z M 669.56000,369.12000 C 669.56000,369.12000 669.56000,365.50000 669.56000,365.50000 C 669.56000,365.50000 669.56000,369.12000 669.56000,369.12000 z M 682.62000,373.35000 C 681.43000,378.17000 680.24000,389.03000 677.87000,392.65000 C 677.87000,392.65000 683.21000,365.50000 683.21000,365.50000 C 683.81000,367.92000 683.21000,370.93000 682.62000,373.35000 z M 540.76000,376.36000 C 540.76000,376.36000 540.17000,376.97000 540.17000,376.97000 C 540.17000,376.97000 540.17000,376.36000 540.17000,376.36000 C 540.17000,376.36000 540.76000,376.36000 540.76000,376.36000 z M 527.70000,384.81000 C 524.74000,389.64000 522.36000,392.65000 520.58000,398.08000 C 523.55000,398.68000 524.14000,398.08000 527.11000,396.87000 C 534.83000,392.65000 534.23000,387.22000 538.98000,381.19000 C 537.20000,388.43000 532.45000,396.87000 528.30000,402.91000 C 528.30000,402.91000 527.11000,402.91000 527.11000,402.91000 C 524.14000,399.29000 521.77000,400.49000 520.58000,398.08000 C 519.39000,395.67000 520.58000,393.25000 521.18000,391.45000 C 522.96000,387.83000 527.70000,381.19000 530.08000,378.17000 C 530.67000,380.59000 528.89000,383.00000 527.70000,384.81000 z M 540.17000,378.17000 C 540.17000,378.17000 539.57000,378.78000 539.57000,378.78000 C 539.57000,378.78000 539.57000,378.17000 539.57000,378.17000 C 539.57000,378.17000 540.17000,378.17000 540.17000,378.17000 z M 667.78000,378.78000 C 667.78000,378.78000 667.19000,379.38000 667.19000,379.38000 C 667.19000,379.38000 667.19000,378.78000 667.19000,378.78000 C 667.19000,378.78000 667.78000,378.78000 667.78000,378.78000 z M 672.53000,410.75000 C 672.53000,410.75000 671.94000,411.35000 671.94000,411.35000 C 671.94000,411.35000 671.94000,410.75000 671.94000,410.75000 C 671.94000,410.75000 672.53000,410.75000 672.53000,410.75000 z M 671.94000,412.56000 C 671.94000,412.56000 671.34000,413.16000 671.34000,413.16000 C 671.34000,413.16000 671.34000,412.56000 671.34000,412.56000 C 671.34000,412.56000 671.94000,412.56000 671.94000,412.56000 z M 670.75000,415.58000 C 670.75000,415.58000 670.15000,416.18000 670.15000,416.18000 C 670.15000,416.18000 670.15000,415.58000 670.15000,415.58000 C 670.15000,415.58000 670.75000,415.58000 670.75000,415.58000 z M 669.56000,418.59000 C 669.56000,418.59000 668.97000,419.20000 668.97000,419.20000 C 668.97000,419.20000 668.97000,418.59000 668.97000,418.59000 C 668.97000,418.59000 669.56000,418.59000 669.56000,418.59000 z M 467.76000,421.61000 C 467.76000,421.61000 474.29000,421.61000 474.29000,421.61000 C 474.29000,421.61000 484.38000,421.01000 484.38000,421.01000 C 486.75000,420.40000 488.53000,419.80000 490.90000,420.40000 C 487.94000,422.81000 483.19000,427.64000 480.22000,428.85000 C 477.85000,430.05000 475.47000,428.85000 473.10000,428.24000 C 467.76000,427.64000 461.82000,425.83000 457.07000,422.81000 C 457.07000,422.81000 457.07000,421.61000 457.07000,421.61000 C 461.82000,420.40000 463.01000,421.01000 467.76000,421.61000 z M 337.77000,423.42000 C 337.77000,423.42000 337.18000,424.02000 337.18000,424.02000 C 337.18000,424.02000 337.18000,423.42000 337.18000,423.42000 C 337.18000,423.42000 337.77000,423.42000 337.77000,423.42000 z M 341.92000,431.26000 C 344.30000,434.88000 349.05000,441.52000 348.45000,446.34000 C 345.49000,440.91000 338.96000,430.66000 337.77000,424.62000 C 337.77000,424.62000 341.92000,431.26000 341.92000,431.26000 z M 333.02000,449.96000 C 336.58000,455.99000 347.27000,472.89000 349.05000,477.71000 C 342.52000,472.89000 335.99000,463.23000 331.24000,455.99000 C 330.05000,454.18000 325.90000,448.76000 325.90000,446.95000 C 325.31000,445.14000 326.49000,440.91000 326.49000,439.10000 C 328.87000,440.91000 331.83000,446.95000 333.02000,449.96000 z M 359.14000,468.06000 C 368.04000,478.32000 375.16000,486.76000 387.03000,493.40000 C 387.03000,493.40000 378.72000,484.95000 378.72000,484.95000 C 375.16000,481.33000 368.04000,472.89000 365.67000,468.06000 C 369.23000,471.08000 372.20000,474.70000 375.76000,477.71000 C 383.47000,484.35000 391.19000,490.98000 400.09000,495.81000 C 403.65000,497.62000 407.21000,500.03000 410.78000,501.24000 C 410.78000,501.24000 410.78000,498.22000 410.78000,498.22000 C 413.74000,500.03000 414.34000,501.24000 416.71000,503.65000 C 420.27000,506.67000 426.80000,511.49000 430.96000,513.91000 C 438.67000,518.13000 454.70000,521.15000 463.60000,522.35000 C 463.60000,522.35000 489.72000,523.56000 489.72000,523.56000 C 493.28000,523.56000 500.40000,522.96000 503.37000,524.16000 C 486.75000,529.59000 469.54000,528.99000 452.92000,525.97000 C 425.61000,519.94000 399.50000,507.27000 376.94000,489.78000 C 365.67000,481.33000 349.05000,465.04000 343.11000,451.77000 C 348.45000,454.18000 354.98000,463.23000 359.14000,468.06000 z "
     id="selection_to_path" />
  <metadata
     id="metadata6">
    <rdf:RDF
       id="RDF7">
      <cc:Work
         rdf:about=""
         id="Work8">
        <dc:format
           id="format9">image/svg+xml</dc:format>
        <dc:type
           id="type11"
           rdf:resource="http://purl.org/dc/dcmitype/StillImage" />
      </cc:Work>
    </rdf:RDF>
  </metadata>
</svg>
