<?xml version="1.0" encoding="UTF-8" standalone="no"?>
<!-- Created with Inkscape (http://www.inkscape.org/) -->

<svg
   id="svg1"
   sodipodi:version="0.32"
   inkscape:version="1.4.2 (ebf0e940d0, 2025-05-08)"
   width="114.27282pt"
   height="91.451538pt"
   sodipodi:docname="emblem-run.svg"
   version="1.1"
   xmlns:inkscape="http://www.inkscape.org/namespaces/inkscape"
   xmlns:sodipodi="http://sodipodi.sourceforge.net/DTD/sodipodi-0.dtd"
   xmlns:xlink="http://www.w3.org/1999/xlink"
   xmlns="http://www.w3.org/2000/svg"
   xmlns:svg="http://www.w3.org/2000/svg">
  <defs
     id="defs3">
    <linearGradient
       id="linearGradient843">
      <stop
         style="stop-color:#000;stop-opacity:1;"
         offset="0"
         id="stop844" />
      <stop
         style="stop-color:#fff;stop-opacity:1;"
         offset="1"
         id="stop845" />
    </linearGradient>
    <linearGradient
       xlink:href="#linearGradient843"
       id="linearGradient846"
       x1="0.90697676"
       y1="0.89054728"
       x2="0.38372093"
       y2="0.20895523" />
  </defs>
  <sodipodi:namedview
     id="base"
     pagecolor="#ffffff"
     bordercolor="#666666"
     borderopacity="1.0"
     inkscape:pageopacity="0.0"
     inkscape:pageshadow="2"
     inkscape:zoom="5.9921875"
     inkscape:cx="61.830508"
     inkscape:cy="56.156454"
     inkscape:window-width="1916"
     inkscape:window-height="1034"
     showgrid="true"
     snaptogrid="false"
     gridspacingy="1.0000000mm"
     gridspacingx="1.0000000mm"
     inkscape:window-x="1920"
     inkscape:window-y="0"
     inkscape:showpageshadow="2"
     inkscape:pagecheckerboard="0"
     inkscape:deskcolor="#d1d1d1"
     inkscape:document-units="pt"
     showguides="true"
     inkscape:window-maximized="1"
     inkscape:current-layer="svg1" />
  <ellipse
     style="fill:#999999;fill-opacity:1;fill-rule:evenodd;stroke:#999999;stroke-width:1.26079;stroke-dasharray:none;stroke-opacity:1"
     id="path831"
     transform="matrix(0.99849683,0.05480954,-0.7085034,0.7057074,0,0)"
     cx="171.61554"
     cy="66.867157"
     rx="16.054279"
     ry="12.8109" />
  <path
     style="fill:none;fill-rule:evenodd;stroke:#999999;stroke-width:8.45713;stroke-linecap:round;stroke-linejoin:round;stroke-opacity:1"
     d="m 115.1966,65.345623 -1.65028,1.643773 -1.65028,1.643773 -31.182033,3.491437 -24.474569,9.062703"
     id="path832"
     sodipodi:nodetypes="ccccc" />
  <path
     style="fill:none;fill-rule:evenodd;stroke:#999999;stroke-width:8.45713;stroke-linecap:round;stroke-linejoin:round;stroke-opacity:1"
     d="m 115.1966,65.345623 -3.30056,3.287546 8.85003,12.626319 27.38913,-8.902716"
     id="path833"
     sodipodi:nodetypes="cccc" />
  <path
     style="fill:none;fill-rule:evenodd;stroke:#999999;stroke-width:8.45713;stroke-linecap:round;stroke-linejoin:round;stroke-opacity:1"
     d="M 111.08147,69.155923 72.954903,89.042295"
     id="path834" />
  <path
     style="fill:none;fill-rule:evenodd;stroke:#999999;stroke-width:7.93156;stroke-linecap:round;stroke-linejoin:round;stroke-opacity:1"
     d="M 72.954903,89.042295 39.350625,101.07256 13.505454,96.185155 4.4001816,99.593491"
     id="path835"
     sodipodi:nodetypes="cccc" />
  <path
     style="fill:none;fill-rule:evenodd;stroke:#999999;stroke-width:8.45713;stroke-linecap:round;stroke-linejoin:round;stroke-opacity:1"
     d="M 73.056458,88.817428 93.84923,98.861021 93.119341,116.1631 104.21859,111.00553"
     id="path836"
     sodipodi:nodetypes="cccc" />
  <ellipse
     style="fill:#51516b;fill-opacity:1;fill-rule:evenodd;stroke:none;stroke-width:1.25286;stroke-dasharray:none;stroke-opacity:1"
     id="path825"
     cx="68.762299"
     cy="15.72658"
     rx="14.748116"
     ry="15.72658" />
  <path
     style="fill:none;fill-rule:evenodd;stroke:#54526b;stroke-width:10.4157;stroke-linecap:round;stroke-linejoin:round;stroke-opacity:1"
     d="m 68.762295,30.948801 v 2.859378 2.859379 L 44.629014,45.245694 34.559317,60.941731"
     id="path826"
     sodipodi:nodetypes="ccccc" />
  <path
     style="fill:none;fill-rule:evenodd;stroke:#54526b;stroke-width:10.4157;stroke-linecap:round;stroke-linejoin:round;stroke-opacity:1"
     d="m 68.762295,30.948801 v 5.718757 l 18.770327,20.01565 16.088858,-17.156272"
     id="path827"
     sodipodi:nodetypes="cccc" />
  <path
     style="fill:none;fill-rule:evenodd;stroke:#54526b;stroke-width:10.4157;stroke-linecap:round;stroke-linejoin:round;stroke-opacity:1"
     d="M 68.509646,37.603121 52.67344,73.839478"
     id="path828" />
  <path
     style="fill:none;fill-rule:evenodd;stroke:#51516b;stroke-width:9.76841;stroke-linecap:round;stroke-linejoin:round;stroke-opacity:1"
     d="m 52.673443,73.839479 c -6.256776,7.625009 -12.513552,15.250013 -18.770328,22.875026 -8.938253,-1.90625 -17.876504,-3.81251 -26.8147554,-5.71877 -1.429845,2.85939 -2.233876,5.09296 -2.203487,8.369536"
     id="path845"
     sodipodi:nodetypes="cccc" />
  <path
     style="fill:none;fill-rule:evenodd;stroke:#51516b;stroke-width:10.4157;stroke-linecap:round;stroke-linejoin:round;stroke-opacity:1"
     d="m 52.565143,73.459555 c 8.974352,4.892273 17.948704,9.784546 26.923054,14.676817 4.836726,9.530463 9.67346,19.060918 14.510183,28.591378 2.99721,-1.85014 5.994425,-3.70029 8.99164,-5.55043"
     id="path844" />
  <path
     style="fill:#34bbe5;fill-opacity:1;fill-rule:evenodd;stroke:#000000;stroke-width:1pt;stroke-linecap:butt;stroke-linejoin:miter;stroke-opacity:1"
     d="m 46.323323,66.194184 c 0,0 -6.258149,7.926987 -6.258148,11.264667 -1.460235,5.840939 -0.83442,1.668837 -8.135593,12.516297 C 17.327235,86.011654 15.867,86.220259 15.03258,86.220259 c -2.294654,1.251629 -6.4667535,5.632336 -2.08605,12.099082 4.797914,2.711859 22.112126,5.632339 23.363756,4.797919 1.460235,-0.83442 23.773743,-15.575852 18.174706,-17.209906 -6.075619,-1.564538 -12.855279,-6.153849 -11.707952,-6.779663 0.208604,4.797913 29.621903,11.890484 32.125162,14.185134 0.83442,2.92047 9.178618,20.860495 10.638853,21.903515 0.83442,-5.00651 5.215124,-11.05606 10.430245,-8.76141 C 98.891775,108.12376 87.001289,88.097703 84.706635,83.717 81.16035,79.96211 71.981733,75.790012 68.018239,74.746987 65.723584,70.783492 46.323323,66.194184 46.323323,66.194184 Z"
     id="path838"
     sodipodi:nodetypes="ccccccsccccccc" />
  <path
     style="fill:#ffffff;fill-opacity:1;fill-rule:evenodd;stroke:#000000;stroke-width:1.25;stroke-linecap:round;stroke-linejoin:round;stroke-dasharray:none;stroke-opacity:1"
     d="m 48.200768,37.82391 c 0,0 -4.380704,7.301173 3.963494,12.099086 2.711865,0.41721 20.443286,-13.767927 7.509778,-4.589308 -9.595827,20.234681 -15.436766,16.897001 -14.185136,21.277706 8.135593,4.589309 9.804432,7.301176 22.946545,7.509778 4.797913,-0.625815 6.049543,-18.148631 5.632333,-34.211213 -0.417209,17.105607 -0.208605,9.804433 5.006519,17.314212 -1.877444,-7.926989 3.129075,-10.013039 6.466753,-11.681878 -0.41721,-2.50326 -3.129074,-10.430248 -11.056062,-12.099088 3.129075,4.58931 -5.840938,5.215125 -9.387222,3.546286 -5.006519,-3.33768 -1.66884,-4.380705 -4.797915,-4.58931 -4.380704,0.625815 -12.099087,5.423729 -12.099087,5.423729 z"
     id="path837"
     sodipodi:nodetypes="cccccccccccc" />
  <path
     style="fill:#ffffff;fill-opacity:0.503226;fill-rule:evenodd;stroke:#ffffff;stroke-width:1pt;stroke-opacity:0.503226"
     d="M 81.368956,84.551419 54.458917,73.912565 53.833102,74.95559 80.951746,85.594444 Z"
     id="path840"
     sodipodi:nodetypes="ccccc" />
  <path
     style="fill:#ffffff;fill-opacity:0.496774;fill-rule:evenodd;stroke:#ffffff;stroke-width:1pt;stroke-opacity:0.496774"
     d="m 31.186874,91.889725 -15.344647,-3.693386 -0.692753,0.698656 15.342859,3.66612 z"
     id="path841"
     sodipodi:nodetypes="ccccc" />
  <path
     style="fill:#ffffff;fill-opacity:0.464516;fill-rule:evenodd;stroke:none;stroke-width:1pt;stroke-opacity:0.496774"
     d="m 67.429046,1.9024427 c -4.5928,1.439021 -9.1856,4.129672 -10.649326,9.3235833 L 56.113354,14.907315 72.788965,2.6489227 c -1.78664,-1.083246 -2.947464,-1.123468 -5.359919,-0.74648 z"
     id="path842"
     sodipodi:nodetypes="ccccc" />
</svg>
