<?xml version="1.0" encoding="UTF-8" standalone="no"?>
<!-- Created with Inkscape (http://www.inkscape.org/) -->
<svg
   xmlns:dc="http://purl.org/dc/elements/1.1/"
   xmlns:cc="http://web.resource.org/cc/"
   xmlns:rdf="http://www.w3.org/1999/02/22-rdf-syntax-ns#"
   xmlns:svg="http://www.w3.org/2000/svg"
   xmlns="http://www.w3.org/2000/svg"
   xmlns:xlink="http://www.w3.org/1999/xlink"
   xmlns:sodipodi="http://inkscape.sourceforge.net/DTD/sodipodi-0.dtd"
   xmlns:inkscape="http://www.inkscape.org/namespaces/inkscape"
   id="svg1"
   sodipodi:version="0.32"
   inkscape:version="0.41"
   width="128.00000pt"
   height="128.00000pt"
   sodipodi:docbase="/home/francois/Rodent/scalable/mimetypes"
   sodipodi:docname="gnome-mime-application-x-gettext-translation.svg">
  <metadata
     id="metadata15">
    <rdf:RDF
       id="RDF17">
      <cc:Work
         rdf:about=""
         id="Work19">
        <dc:format
           id="format21">image/svg+xml</dc:format>
        <dc:type
           id="type23"
           rdf:resource="http://purl.org/dc/dcmitype/StillImage" />
      </cc:Work>
    </rdf:RDF>
  </metadata>
  <defs
     id="defs3">
    <linearGradient
       id="linearGradient3587">
      <stop
         id="stop3589"
         offset="0.0000000"
         style="stop-color:#efe0cd;stop-opacity:0.56097561;" />
      <stop
         id="stop3591"
         offset="1.0000000"
         style="stop-color:#cececd;stop-opacity:0.21951219;" />
    </linearGradient>
    <linearGradient
       id="linearGradient2832">
      <stop
         style="stop-color:#ffffff;stop-opacity:1.0000000;"
         offset="0.0000000"
         id="stop2834" />
      <stop
         style="stop-color:#ffffff;stop-opacity:0.0000000;"
         offset="1.0000000"
         id="stop2836" />
    </linearGradient>
    <linearGradient
       id="linearGradient839">
      <stop
         style="stop-color:#46a046;stop-opacity:1.0000000;"
         offset="0.0000000"
         id="stop840" />
      <stop
         style="stop-color:#df421e;stop-opacity:1.0000000;"
         offset="0.39364964"
         id="stop841" />
      <stop
         style="stop-color:#ada7c8;stop-opacity:1.0000000;"
         offset="0.72036445"
         id="stop842" />
      <stop
         style="stop-color:#eed680;stop-opacity:1.0000000;"
         offset="1.0000000"
         id="stop843" />
    </linearGradient>
    <linearGradient
       xlink:href="#linearGradient839"
       id="linearGradient836"
       x1="1.3267924e-17"
       y1="0.50000000"
       x2="1.0000000"
       y2="0.50000000" />
    <linearGradient
       inkscape:collect="always"
       xlink:href="#linearGradient2832"
       id="linearGradient2830"
       gradientTransform="matrix(0.939922,0.000000,0.000000,0.896911,4.950743,6.511692)"
       x1="23.983805"
       y1="16.369013"
       x2="72.999245"
       y2="73.398720"
       gradientUnits="userSpaceOnUse" />
    <linearGradient
       gradientUnits="userSpaceOnUse"
       gradientTransform="scale(1.080100,0.925840)"
       spreadMethod="reflect"
       y2="55.073781"
       x2="76.569053"
       y1="73.521367"
       x1="95.121380"
       id="linearGradient674"
       xlink:href="#linearGradient869" />
    <linearGradient
       y2="0.50000000"
       x2="1.0000000"
       y1="0.50000000"
       x1="1.3267924e-17"
       id="linearGradient1373"
       xlink:href="#linearGradient839" />
    <linearGradient
       id="linearGradient1363">
      <stop
         id="stop1365"
         offset="0.0000000"
         style="stop-color:#46a046;stop-opacity:1.0000000;" />
      <stop
         id="stop1367"
         offset="0.39364964"
         style="stop-color:#df421e;stop-opacity:1.0000000;" />
      <stop
         id="stop1369"
         offset="0.72036445"
         style="stop-color:#ada7c8;stop-opacity:1.0000000;" />
      <stop
         id="stop1371"
         offset="1.0000000"
         style="stop-color:#eed680;stop-opacity:1.0000000;" />
    </linearGradient>
    <linearGradient
       gradientUnits="userSpaceOnUse"
       gradientTransform="scale(0.999352,1.000649)"
       spreadMethod="reflect"
       y2="75.142359"
       x2="47.145329"
       y1="81.199529"
       x1="52.724242"
       id="linearGradient904"
       xlink:href="#linearGradient907" />
    <linearGradient
       id="linearGradient866">
      <stop
         id="stop867"
         offset="0.0000000"
         style="stop-color:#ffff00;stop-opacity:1.0000000;" />
      <stop
         id="stop901"
         offset="0.36908397"
         style="stop-color:#ffea00;stop-opacity:1.0000000;" />
      <stop
         id="stop868"
         offset="1.0000000"
         style="stop-color:#ffd600;stop-opacity:1.0000000;" />
    </linearGradient>
    <linearGradient
       id="linearGradient869">
      <stop
         id="stop870"
         offset="0.0000000"
         style="stop-color:#990000;stop-opacity:1.0000000;" />
      <stop
         id="stop871"
         offset="1.0000000"
         style="stop-color:#ffffff;stop-opacity:1.0000000;" />
    </linearGradient>
    <linearGradient
       id="linearGradient907">
      <stop
         id="stop908"
         offset="0.0000000"
         style="stop-color:#eed680;stop-opacity:1.0000000;" />
      <stop
         id="stop911"
         offset="0.29427481"
         style="stop-color:#dfb546;stop-opacity:1.0000000;" />
      <stop
         id="stop910"
         offset="1.0000000"
         style="stop-color:#d1940c;stop-opacity:1.0000000;" />
    </linearGradient>
    <linearGradient
       y2="49.744450"
       x2="-66.468513"
       y1="63.613220"
       x1="-54.605907"
       spreadMethod="reflect"
       gradientTransform="scale(1.080100,0.925840)"
       gradientUnits="userSpaceOnUse"
       id="linearGradient2167"
       xlink:href="#linearGradient869"
       inkscape:collect="always" />
    <linearGradient
       y2="75.142359"
       x2="47.145329"
       y1="81.199529"
       x1="52.724242"
       spreadMethod="reflect"
       gradientTransform="matrix(0.999352,0.000000,0.000000,1.000649,-151.1197,-0.373250)"
       gradientUnits="userSpaceOnUse"
       id="linearGradient2169"
       xlink:href="#linearGradient907"
       inkscape:collect="always" />
    <linearGradient
       xlink:href="#linearGradient869"
       id="linearGradient1414"
       x1="0.68852460"
       y1="0.78625953"
       x2="0.37377051"
       y2="0.47328246"
       spreadMethod="reflect" />
    <linearGradient
       xlink:href="#linearGradient839"
       id="linearGradient1412"
       x1="1.3267924e-17"
       y1="0.50000000"
       x2="1.0000000"
       y2="0.50000000" />
    <linearGradient
       id="linearGradient1402">
      <stop
         style="stop-color:#46a046;stop-opacity:1.0000000;"
         offset="0.0000000"
         id="stop1404" />
      <stop
         style="stop-color:#df421e;stop-opacity:1.0000000;"
         offset="0.39364964"
         id="stop1406" />
      <stop
         style="stop-color:#ada7c8;stop-opacity:1.0000000;"
         offset="0.72036445"
         id="stop1408" />
      <stop
         style="stop-color:#eed680;stop-opacity:1.0000000;"
         offset="1.0000000"
         id="stop1410" />
    </linearGradient>
    <linearGradient
       xlink:href="#linearGradient907"
       id="linearGradient1400"
       x1="0.35737705"
       y1="0.49346405"
       x2="0.17377049"
       y2="0.29411766"
       spreadMethod="reflect" />
    <linearGradient
       id="linearGradient1392">
      <stop
         style="stop-color:#ffff00;stop-opacity:1.0000000;"
         offset="0.0000000"
         id="stop1394" />
      <stop
         style="stop-color:#ffea00;stop-opacity:1.0000000;"
         offset="0.36908397"
         id="stop1396" />
      <stop
         style="stop-color:#ffd600;stop-opacity:1.0000000;"
         offset="1.0000000"
         id="stop1398" />
    </linearGradient>
    <linearGradient
       id="linearGradient1385">
      <stop
         style="stop-color:#7590ae;stop-opacity:1.0000000;"
         offset="0.0000000"
         id="stop1387" />
      <stop
         style="stop-color:#89a4c0;stop-opacity:1.0000000;"
         offset="0.87030536"
         id="stop912" />
      <stop
         style="stop-color:#9db8d2;stop-opacity:1.0000000;"
         offset="1.0000000"
         id="stop1390" />
    </linearGradient>
    <linearGradient
       id="linearGradient1377">
      <stop
         style="stop-color:#eed680;stop-opacity:1.0000000;"
         offset="0.0000000"
         id="stop1379" />
      <stop
         style="stop-color:#dfb546;stop-opacity:1.0000000;"
         offset="0.29427481"
         id="stop1381" />
      <stop
         style="stop-color:#d1940c;stop-opacity:1.0000000;"
         offset="1.0000000"
         id="stop1383" />
    </linearGradient>
    <linearGradient
       xlink:href="#linearGradient869"
       id="linearGradient1435"
       x1="0.68852460"
       y1="0.78625953"
       x2="0.37377051"
       y2="0.47328246"
       spreadMethod="reflect" />
    <linearGradient
       xlink:href="#linearGradient839"
       id="linearGradient1433"
       x1="1.3267924e-17"
       y1="0.50000000"
       x2="1.0000000"
       y2="0.50000000" />
    <linearGradient
       id="linearGradient1423">
      <stop
         style="stop-color:#46a046;stop-opacity:1.0000000;"
         offset="0.0000000"
         id="stop1425" />
      <stop
         style="stop-color:#df421e;stop-opacity:1.0000000;"
         offset="0.39364964"
         id="stop1427" />
      <stop
         style="stop-color:#ada7c8;stop-opacity:1.0000000;"
         offset="0.72036445"
         id="stop1429" />
      <stop
         style="stop-color:#eed680;stop-opacity:1.0000000;"
         offset="1.0000000"
         id="stop1431" />
    </linearGradient>
    <linearGradient
       xlink:href="#linearGradient907"
       id="linearGradient1421"
       x1="0.35737705"
       y1="0.49346405"
       x2="0.17377049"
       y2="0.29411766"
       spreadMethod="reflect" />
    <linearGradient
       id="linearGradient1413">
      <stop
         style="stop-color:#ffff00;stop-opacity:1.0000000;"
         offset="0.0000000"
         id="stop1415" />
      <stop
         style="stop-color:#ffea00;stop-opacity:1.0000000;"
         offset="0.36908397"
         id="stop1417" />
      <stop
         style="stop-color:#ffd600;stop-opacity:1.0000000;"
         offset="1.0000000"
         id="stop1419" />
    </linearGradient>
    <linearGradient
       id="linearGradient1405">
      <stop
         style="stop-color:#7590ae;stop-opacity:1.0000000;"
         offset="0.0000000"
         id="stop1407" />
      <stop
         style="stop-color:#89a4c0;stop-opacity:1.0000000;"
         offset="0.87030536"
         id="stop1409" />
      <stop
         style="stop-color:#9db8d2;stop-opacity:1.0000000;"
         offset="1.0000000"
         id="stop1411" />
    </linearGradient>
    <linearGradient
       id="linearGradient1396">
      <stop
         style="stop-color:#eed680;stop-opacity:1.0000000;"
         offset="0.0000000"
         id="stop1399" />
      <stop
         style="stop-color:#dfb546;stop-opacity:1.0000000;"
         offset="0.29427481"
         id="stop1401" />
      <stop
         style="stop-color:#d1940c;stop-opacity:1.0000000;"
         offset="1.0000000"
         id="stop1403" />
    </linearGradient>
    <linearGradient
       inkscape:collect="always"
       xlink:href="#linearGradient907"
       id="linearGradient1458"
       gradientUnits="userSpaceOnUse"
       gradientTransform="matrix(0.999352,0.000000,0.000000,1.000649,-169.2854,-6.716269)"
       spreadMethod="reflect"
       x1="52.724242"
       y1="81.199529"
       x2="47.145329"
       y2="75.142359" />
    <linearGradient
       inkscape:collect="always"
       xlink:href="#linearGradient869"
       id="linearGradient1461"
       gradientUnits="userSpaceOnUse"
       gradientTransform="matrix(1.080100,0.000000,0.000000,0.925840,-169.2854,-6.716269)"
       spreadMethod="reflect"
       x1="95.121380"
       y1="73.521367"
       x2="76.569053"
       y2="55.073781" />
  </defs>
  <sodipodi:namedview
     inkscape:guide-bbox="true"
     showguides="true"
     id="base"
     pagecolor="#ffffff"
     bordercolor="#666666"
     borderopacity="1.0"
     inkscape:pageopacity="0.0"
     inkscape:pageshadow="2"
     inkscape:zoom="2.9500000"
     inkscape:cx="62.372881"
     inkscape:cy="75.766105"
     inkscape:window-width="756"
     inkscape:window-height="653"
     showgrid="true"
     snaptogrid="false"
     gridspacingx="1.0000000mm"
     gridspacingy="1.0000000mm"
     inkscape:window-x="0"
     inkscape:window-y="51"
     inkscape:current-layer="svg1" />
  <rect
     style="stroke-miterlimit:4.0000000;stroke-dasharray:none;stroke-opacity:0.49999997;stroke-linejoin:round;stroke-width:7.5000000;stroke:#000000;fill-rule:evenodd;fill:none"
     id="rect834"
     width="117.75612"
     height="133.38696"
     x="20.782476"
     y="13.614116"
     ry="22.892691"
     rx="22.892691" />
  <rect
     style="fill:#bab5ab;fill-opacity:1.0000000;fill-rule:evenodd;stroke:#000000;stroke-width:3.7500000;stroke-dasharray:none;stroke-miterlimit:4.0000000"
     id="rect828"
     width="117.75612"
     height="133.38696"
     x="20.643702"
     y="13.524447"
     ry="22.892691"
     rx="22.892691" />
  <path
     style="stroke-width:6.2500000;stroke:none;fill-rule:evenodd;fill-opacity:0.27935222;fill:#ffffff"
     d="M 117.38055,142.41910 L 41.662967,142.41910 C 30.018294,142.41910 24.316361,136.71717 24.316361,125.07250 C 24.316361,125.07250 51.936692,58.557014 134.72716,48.414718 L 134.72716,125.07250 C 134.72716,136.71717 129.02522,142.41910 117.38055,142.41910 z "
     id="path2838"
     sodipodi:nodetypes="cccccc" />
  <g
     transform="translate(148.0000,0.000000)"
     id="g2160">
    <path
       sodipodi:nodetypes="cccc"
       id="path873"
       d="M -81.317197,63.097780 L -76.328485,64.170081 L -78.286689,61.139573 L -81.317197,63.097780 z "
       style="fill-rule:evenodd;stroke:#000000;stroke-width:0.72004113pt" />
    <path
       style="fill:none;stroke:#000000;stroke-width:0.16759372"
       d="M -62.246200,51.016016 C -62.246200,51.016016 -60.572575,50.718565 -60.572575,50.718565 C -60.572575,50.718565 -59.202748,51.834488 -59.202748,51.834488 C -59.238682,51.169576 -59.546838,50.939043 -60.196908,50.635018 C -60.196908,50.635018 -60.129396,50.320931 -60.129396,50.320931 C -59.378062,50.153836 -59.207106,50.190583 -58.730172,49.635908 C -58.730172,49.635908 -60.574753,49.896612 -60.574753,49.896612 C -60.574753,49.896612 -61.807379,48.974475 -61.807379,48.974475 C -61.771445,49.639388 -61.600489,49.676135 -60.984176,50.137200 C -60.984176,50.137200 -62.246200,51.016016 -62.246200,51.016016 z M -61.501401,48.383055 C -61.501401,48.383055 -60.714132,48.880866 -60.714132,48.880866 C -59.211463,48.546669 -58.833617,49.285075 -58.358863,47.908450 C -58.358863,47.908450 -58.700774,47.834958 -58.700774,47.834958 C -59.211463,48.546669 -59.553375,48.473177 -60.408154,48.289445 C -60.408154,48.289445 -60.239377,47.504242 -60.239377,47.504242 C -60.239377,47.504242 -60.581290,47.430749 -60.581290,47.430749 C -60.581290,47.430749 -60.750067,48.215953 -60.750067,48.215953 C -60.750067,48.215953 -61.433890,48.068968 -61.433890,48.068968 C -61.433890,48.068968 -61.501401,48.383055 -61.501401,48.383055 z M -58.432908,45.756664 C -58.430729,46.578617 -58.464486,46.735664 -59.283332,47.216846 C -59.283332,47.216846 -58.945777,45.646425 -58.945777,45.646425 C -60.722846,45.593042 -60.480023,46.959622 -59.692753,47.457433 C -58.529818,47.871704 -57.542195,46.605308 -58.432908,45.756664 z M -60.007446,44.761034 C -60.007446,44.761034 -57.785019,45.238735 -57.785019,45.238735 C -57.785019,45.238735 -57.717507,44.924648 -57.717507,44.924648 C -58.743244,44.704171 -59.256111,44.593932 -59.395488,43.578186 C -59.395488,43.578186 -59.737401,43.504693 -59.737401,43.504693 C -59.737401,43.504693 -59.564267,44.363400 -59.564267,44.363400 C -59.564267,44.363400 -60.007446,44.761034 -60.007446,44.761034 z M -59.669891,43.190613 C -59.669891,43.190613 -57.447463,43.668315 -57.447463,43.668315 C -57.447463,43.668315 -57.379951,43.354228 -57.379951,43.354228 C -57.721864,43.280735 -59.602379,42.876526 -58.749779,42.238304 C -58.511310,41.960964 -57.485575,42.181441 -57.143663,42.254934 C -57.143663,42.254934 -57.076153,41.940854 -57.076153,41.940854 C -57.418065,41.867361 -59.127625,41.499898 -58.479735,40.981970 C -58.241267,40.704630 -57.215531,40.925107 -56.873619,40.998599 C -56.873619,40.998599 -56.772353,40.527473 -56.772353,40.527473 C -57.285221,40.417234 -58.140000,40.233502 -58.686623,40.280304 C -59.096047,40.520898 -59.399848,41.934279 -59.330157,42.442145 C -59.363913,42.599192 -59.192957,42.635939 -59.226712,42.792979 C -59.226712,42.792979 -59.669891,43.190613 -59.669891,43.190613 z M -59.355198,45.887013 C -59.355198,45.887013 -59.625243,47.143353 -59.625243,47.143353 C -60.036844,46.561988 -60.140289,46.211154 -59.355198,45.887013 z "
       id="path900" />
    <path
       sodipodi:nodetypes="cccc"
       id="path879"
       d="M -90.412933,65.688043 C -75.104619,49.385236 -43.627200,17.342738 -32.017540,29.139154 C -21.748650,41.371321 -61.572464,66.781133 -78.400378,77.559753 L -90.412933,65.688043 z "
       style="fill:url(#linearGradient2167);fill-opacity:1.0000000;fill-rule:evenodd;stroke:#000000;stroke-width:3.6002057" />
    <path
       sodipodi:nodetypes="cccccccc"
       id="path868"
       d="M -80.266178,76.307212 C -80.266178,76.307212 -83.886954,83.283950 -82.131989,85.314942 C -80.303635,86.916702 -97.836559,92.218905 -100.68798,91.898047 C -100.68798,91.898055 -103.15674,97.307853 -106.74006,93.675094 C -110.32338,90.042343 -104.68149,87.418103 -104.68149,87.418103 C -104.67634,83.221775 -100.04858,67.151169 -98.256925,68.967546 C -96.465265,70.783921 -89.224475,67.225324 -89.224475,67.225324 C -89.224475,67.225324 -80.266178,76.307212 -80.266178,76.307212 z "
       style="fill:url(#linearGradient2169);fill-opacity:0.75000000;fill-rule:evenodd;stroke:#000000;stroke-width:2.7001543" />
    <path
       sodipodi:nodetypes="cc"
       id="path876"
       d="M -105.52241,92.488546 C -105.52241,92.488546 -90.991393,78.155268 -90.991393,78.155268"
       style="fill:none;fill-opacity:0.75000000;fill-rule:evenodd;stroke:#000000;stroke-width:0.72004113pt;stroke-linecap:round;stroke-linejoin:round" />
  </g>
  <path
     style="font-size:40.000000;fill:#ffffff;fill-opacity:1.0000000;stroke-width:1.0000000pt;font-family:Trek"
     d="M 101.85861,115.26439 C 101.85861,111.58439 102.91194,108.74439 105.01861,106.74439 C 107.15194,104.71773 110.12528,103.70439 113.93861,103.70439 C 117.67194,103.70439 120.61861,104.70439 122.77861,106.70439 C 124.93861,108.67773 126.01861,111.53106 126.01861,115.26439 C 126.01861,118.94439 124.96528,121.79773 122.85861,123.82439 C 120.77861,125.82439 117.80528,126.82439 113.93861,126.82439 C 110.07194,126.82439 107.08528,125.83773 104.97861,123.86439 C 102.89861,121.89106 101.85861,119.02439 101.85861,115.26439 z M 113.93861,108.38439 C 111.85861,108.38439 110.32528,109.03773 109.33861,110.34439 C 108.53861,111.46439 108.13861,113.10439 108.13861,115.26439 C 108.13861,117.42439 108.52528,119.05106 109.29861,120.14439 C 110.23194,121.47773 111.77861,122.14439 113.93861,122.14439 C 116.01861,122.14439 117.55194,121.49106 118.53861,120.18439 C 119.33861,119.06439 119.73861,117.42439 119.73861,115.26439 C 119.73861,113.10439 119.35194,111.47773 118.57861,110.38439 C 117.64528,109.05106 116.09861,108.38439 113.93861,108.38439 z M 80.298607,108.82439 L 72.898607,108.82439 L 72.898607,126.38439 L 67.058607,126.38439 L 67.058607,104.14439 L 91.418607,104.14439 C 92.698607,104.14439 93.818607,104.30439 94.778607,104.62439 C 95.738607,104.94439 96.671937,105.51773 97.578607,106.34439 C 98.831937,107.67773 99.458604,109.21106 99.458604,110.94439 L 99.458604,126.38439 L 93.578607,126.38439 L 93.578607,112.06439 C 93.578607,111.13106 93.271940,110.35773 92.658607,109.74439 C 92.098607,109.13106 91.311940,108.82439 90.298607,108.82439 L 86.218607,108.82439 L 86.218607,126.38439 L 80.298607,126.38439 L 80.298607,108.82439 z M 63.858607,104.14439 L 63.858607,126.38439 L 63.858607,126.94439 C 63.858607,127.74439 63.845277,128.30439 63.818607,128.62439 C 63.791937,128.94439 63.698607,129.30439 63.538607,129.70439 C 63.378607,130.29106 63.151937,130.83773 62.858607,131.34439 C 62.565277,131.87773 62.098607,132.46439 61.458607,133.10439 C 59.938607,134.54439 57.978607,135.26439 55.578607,135.26439 L 42.578607,135.26439 L 42.578607,130.82439 L 54.418607,130.82439 C 55.111937,130.82439 55.631937,130.75773 55.978607,130.62439 C 56.351937,130.54439 56.711937,130.27773 57.058607,129.82439 C 57.431937,129.42439 57.671937,128.99773 57.778607,128.54439 L 57.938607,126.78439 L 57.938607,126.38439 L 50.978607,126.38439 C 47.538607,126.38439 44.858607,125.42439 42.938607,123.50439 C 41.018607,121.58439 40.058607,118.83773 40.058607,115.26439 C 40.058607,113.39773 40.285277,111.82439 40.738607,110.54439 C 41.191937,109.23773 41.925277,108.07773 42.938607,107.06439 C 44.831937,105.11773 47.511937,104.14439 50.978607,104.14439 L 63.858607,104.14439 z M 57.938607,108.82439 L 51.858607,108.82439 C 50.205277,108.82439 48.871937,109.39773 47.858607,110.54439 C 46.845277,111.69106 46.338607,113.26439 46.338607,115.26439 C 46.338607,117.23773 46.831937,118.81106 47.818607,119.98439 C 48.805277,121.13106 50.151937,121.70439 51.858607,121.70439 L 57.938607,121.70439 L 57.938607,108.82439 z M 31.858607,126.38439 L 31.858607,121.06439 L 37.258607,121.06439 L 37.258607,126.38439 L 31.858607,126.38439 z "
     id="path1468" />
  <path
     style="font-size:40.000000;stroke-width:1.0000000pt;font-family:Trek"
     d="M 102.53657,115.94235 C 102.53657,112.26235 103.58990,109.42235 105.69657,107.42235 C 107.82990,105.39569 110.80324,104.38235 114.61657,104.38235 C 118.34990,104.38235 121.29657,105.38235 123.45657,107.38235 C 125.61657,109.35569 126.69657,112.20902 126.69657,115.94235 C 126.69657,119.62235 125.64324,122.47569 123.53657,124.50235 C 121.45657,126.50235 118.48324,127.50235 114.61657,127.50235 C 110.74990,127.50235 107.76324,126.51569 105.65657,124.54235 C 103.57657,122.56902 102.53657,119.70235 102.53657,115.94235 z M 114.61657,109.06235 C 112.53657,109.06235 111.00324,109.71569 110.01657,111.02235 C 109.21657,112.14235 108.81657,113.78235 108.81657,115.94235 C 108.81657,118.10235 109.20324,119.72902 109.97657,120.82235 C 110.90990,122.15569 112.45657,122.82235 114.61657,122.82235 C 116.69657,122.82235 118.22990,122.16902 119.21657,120.86235 C 120.01657,119.74235 120.41657,118.10235 120.41657,115.94235 C 120.41657,113.78235 120.02990,112.15569 119.25657,111.06235 C 118.32324,109.72902 116.77657,109.06235 114.61657,109.06235 z M 80.976573,109.50235 L 73.576573,109.50235 L 73.576573,127.06235 L 67.736573,127.06235 L 67.736573,104.82235 L 92.096573,104.82235 C 93.376573,104.82235 94.496573,104.98235 95.456573,105.30235 C 96.416573,105.62235 97.349903,106.19569 98.256573,107.02235 C 99.509903,108.35569 100.13657,109.88902 100.13657,111.62235 L 100.13657,127.06235 L 94.256573,127.06235 L 94.256573,112.74235 C 94.256573,111.80902 93.949906,111.03569 93.336573,110.42235 C 92.776573,109.80902 91.989906,109.50235 90.976573,109.50235 L 86.896573,109.50235 L 86.896573,127.06235 L 80.976573,127.06235 L 80.976573,109.50235 z M 64.536573,104.82235 L 64.536573,127.06235 L 64.536573,127.62235 C 64.536573,128.42235 64.523243,128.98235 64.496573,129.30235 C 64.469903,129.62235 64.376573,129.98235 64.216573,130.38235 C 64.056573,130.96902 63.829903,131.51569 63.536573,132.02235 C 63.243243,132.55569 62.776573,133.14235 62.136573,133.78235 C 60.616573,135.22235 58.656573,135.94235 56.256573,135.94235 L 43.256573,135.94235 L 43.256573,131.50235 L 55.096573,131.50235 C 55.789903,131.50235 56.309903,131.43569 56.656573,131.30235 C 57.029903,131.22235 57.389903,130.95569 57.736573,130.50235 C 58.109903,130.10235 58.349903,129.67569 58.456573,129.22235 L 58.616573,127.46235 L 58.616573,127.06235 L 51.656573,127.06235 C 48.216573,127.06235 45.536573,126.10235 43.616573,124.18235 C 41.696573,122.26235 40.736573,119.51569 40.736573,115.94235 C 40.736573,114.07569 40.963243,112.50235 41.416573,111.22235 C 41.869903,109.91569 42.603243,108.75569 43.616573,107.74235 C 45.509903,105.79569 48.189903,104.82235 51.656573,104.82235 L 64.536573,104.82235 z M 58.616573,109.50235 L 52.536573,109.50235 C 50.883243,109.50235 49.549903,110.07569 48.536573,111.22235 C 47.523243,112.36902 47.016573,113.94235 47.016573,115.94235 C 47.016573,117.91569 47.509903,119.48902 48.496573,120.66235 C 49.483243,121.80902 50.829903,122.38235 52.536573,122.38235 L 58.616573,122.38235 L 58.616573,109.50235 z M 32.536573,127.06235 L 32.536573,121.74235 L 37.936573,121.74235 L 37.936573,127.06235 L 32.536573,127.06235 z "
     id="path859" />
  <path
     style="fill:url(#linearGradient2830);fill-opacity:1.0000000;fill-rule:evenodd;stroke:none;stroke-width:6.2500000"
     d="M 41.662967,17.197108 L 117.38055,17.197108 C 129.02522,17.197108 134.72716,22.899041 134.72716,34.543716 C 134.72716,34.543716 55.440598,35.449314 24.316361,125.89213 L 24.316361,34.543716 C 24.316361,24.254973 31.374226,17.197108 41.662967,17.197108 z "
     id="rect2063"
     sodipodi:nodetypes="cccccc" />
</svg>
