<?xml version="1.0" encoding="UTF-8" standalone="no"?>
<!-- Created with Inkscape (http://www.inkscape.org/) -->
<svg
   xmlns:dc="http://purl.org/dc/elements/1.1/"
   xmlns:cc="http://web.resource.org/cc/"
   xmlns:rdf="http://www.w3.org/1999/02/22-rdf-syntax-ns#"
   xmlns:svg="http://www.w3.org/2000/svg"
   xmlns="http://www.w3.org/2000/svg"
   xmlns:xlink="http://www.w3.org/1999/xlink"
   xmlns:sodipodi="http://inkscape.sourceforge.net/DTD/sodipodi-0.dtd"
   xmlns:inkscape="http://www.inkscape.org/namespaces/inkscape"
   sodipodi:docname="gnome-mime-application-x-gzip.svg"
   sodipodi:docbase="/home/francois/Rodent/scalable/mimetypes"
   height="128.00000pt"
   width="128.00000pt"
   inkscape:version="0.41"
   sodipodi:version="0.32"
   id="svg1">
  <metadata
     id="metadata33">
    <rdf:RDF
       id="RDF35">
      <cc:Work
         id="Work37"
         rdf:about="">
        <dc:format
           id="format39">image/svg+xml</dc:format>
        <dc:type
           rdf:resource="http://purl.org/dc/dcmitype/StillImage"
           id="type41" />
      </cc:Work>
    </rdf:RDF>
  </metadata>
  <defs
     id="defs3">
    <linearGradient
       id="linearGradient850">
      <stop
         id="stop851"
         offset="0.0000000"
         style="stop-color:#fbffff;stop-opacity:0.0000000;" />
      <stop
         id="stop852"
         offset="1.0000000"
         style="stop-color:#ffffff;stop-opacity:1.0000000;" />
    </linearGradient>
    <linearGradient
       gradientUnits="userSpaceOnUse"
       gradientTransform="matrix(0.793450,0.000000,0.000000,1.071523,6.458460,6.147121)"
       y2="11.502785"
       x2="22.394284"
       y1="74.459422"
       x1="78.702638"
       id="linearGradient859"
       xlink:href="#linearGradient850" />
    <linearGradient
       id="linearGradient839">
      <stop
         id="stop840"
         offset="0.0000000"
         style="stop-color:#46a046;stop-opacity:1.0000000;" />
      <stop
         id="stop841"
         offset="0.39364964"
         style="stop-color:#df421e;stop-opacity:1.0000000;" />
      <stop
         id="stop842"
         offset="0.72036445"
         style="stop-color:#ada7c8;stop-opacity:1.0000000;" />
      <stop
         id="stop843"
         offset="1.0000000"
         style="stop-color:#eed680;stop-opacity:1.0000000;" />
    </linearGradient>
    <linearGradient
       id="linearGradient833">
      <stop
         id="stop834"
         offset="0.0000000"
         style="stop-color:#00ff00;stop-opacity:1.0000000;" />
      <stop
         id="stop837"
         offset="0.30839416"
         style="stop-color:#ff0000;stop-opacity:1.0000000;" />
      <stop
         id="stop838"
         offset="0.75000000"
         style="stop-color:#7f8cff;stop-opacity:1.0000000;" />
      <stop
         id="stop835"
         offset="1.0000000"
         style="stop-color:#ffff00;stop-opacity:1.0000000;" />
    </linearGradient>
    <linearGradient
       gradientUnits="userSpaceOnUse"
       gradientTransform="matrix(0.673480,0.000000,0.000000,1.262399,6.458460,6.147121)"
       y2="16.549269"
       x2="110.16822"
       y1="79.337825"
       x1="157.21490"
       id="linearGradient836"
       xlink:href="#linearGradient850" />
    <linearGradient
       y2="0.019354839"
       x2="0.029508196"
       y1="0.66881722"
       x1="0.61967212"
       id="linearGradient855"
       xlink:href="#linearGradient850" />
    <linearGradient
       y2="0.29203540"
       x2="0.67540985"
       y1="0.92035401"
       x1="0.39344263"
       id="linearGradient853"
       xlink:href="#linearGradient850" />
  </defs>
  <sodipodi:namedview
     inkscape:current-layer="svg1"
     inkscape:window-y="34"
     inkscape:window-x="0"
     gridspacingy="1.0000000mm"
     gridspacingx="1.0000000mm"
     snaptogrid="false"
     showgrid="true"
     inkscape:window-height="653"
     inkscape:window-width="751"
     inkscape:cy="52.881356"
     inkscape:cx="80.000000"
     inkscape:zoom="2.9500000"
     inkscape:pageshadow="2"
     inkscape:pageopacity="0.0"
     borderopacity="1.0"
     bordercolor="#666666"
     pagecolor="#ffffff"
     id="base" />
  <path
     id="path874"
     d="M 82.328588,13.650591 L 13.634882,31.054531 L 13.778954,121.93543 L 13.807769,121.93543 L 13.807769,122.10832 L 14.067099,122.05069 L 82.155702,147.32098 L 146.12382,120.89811 L 146.12382,115.62506 L 146.12382,31.054531 L 82.328588,13.650591 z "
     style="font-size:40.000000;fill:none;stroke:#000000;stroke-width:11.525789;stroke-linejoin:round;stroke-opacity:0.49999997;font-family:Trek" />
  <path
     sodipodi:nodetypes="ccccc"
     id="path633"
     d="M 146.04185,31.073238 L 146.04185,115.63580 L 84.307349,102.05486 L 82.239336,13.682790 L 146.04185,31.073238 z "
     style="font-size:12.000000;fill:#515151;fill-rule:evenodd;stroke:#000000;stroke-width:6.9344954;stroke-linecap:round;stroke-linejoin:round" />
  <path
     sodipodi:nodetypes="ccccc"
     id="path631"
     d="M 13.532279,31.073238 L 82.239336,13.682790 L 86.641012,105.06549 L 13.712469,122.11835 L 13.532279,31.073238 z "
     style="font-size:12.000000;fill:#4a494d;fill-rule:evenodd;stroke:#000000;stroke-width:6.9344954;stroke-linecap:round;stroke-linejoin:round" />
  <path
     sodipodi:nodetypes="ccccc"
     id="path640"
     d="M 82.071717,52.213872 L 146.04185,31.073238 L 82.239336,13.682790 L 13.532279,31.073238 L 82.071717,52.213872 z "
     style="font-size:12.000000;fill:#9db8d2;fill-rule:evenodd;stroke:#000000;stroke-width:6.9344954;stroke-linecap:round;stroke-linejoin:round" />
  <path
     sodipodi:nodetypes="ccccc"
     id="path627"
     d="M 146.04185,31.073238 L 146.04185,120.92096 L 82.071717,147.34674 L 82.071717,52.213872 L 146.04185,31.073238 z "
     style="font-size:12.000000;fill:#4b6983;fill-rule:evenodd;stroke:#000000;stroke-width:6.9344954;stroke-linecap:round;stroke-linejoin:round" />
  <path
     sodipodi:nodetypes="ccccc"
     id="path629"
     d="M 82.071717,52.213872 L 82.071717,147.34674 L 13.673747,121.94427 L 13.532279,31.073238 L 82.071717,52.213872 z "
     style="font-size:12.000000;fill:#7590ae;fill-rule:evenodd;stroke:#000000;stroke-width:6.9344954;stroke-linecap:round;stroke-linejoin:round" />
  <path
     sodipodi:nodetypes="ccccc"
     id="path892"
     d="M 81.985909,17.291503 L 17.282461,33.814516 L 17.282461,118.33555 C 84.628342,144.75662 95.844591,162.09057 78.630620,49.769939 C 139.62695,27.296630 81.985909,17.291503 81.985909,17.291503 z "
     style="fill:url(#linearGradient859);fill-opacity:1.0000000;fill-rule:evenodd;stroke:none;stroke-width:1.0000000pt;stroke-linecap:butt;stroke-linejoin:miter;stroke-opacity:1.0000000" />
  <path
     sodipodi:nodetypes="cccccc"
     id="path849"
     d="M 85.657481,54.886620 L 85.657481,141.30524 C 85.910909,141.30524 112.77416,131.16816 125.19208,118.49681 C 137.86342,108.10630 142.17169,87.071844 142.17169,87.071844 L 142.17169,35.372743 L 85.657481,54.886620 z "
     style="fill:url(#linearGradient836);fill-opacity:0.75000000;fill-rule:evenodd;stroke:none;stroke-width:1.0000000pt;stroke-linecap:butt;stroke-linejoin:miter;stroke-opacity:1.0000000" />
  <path
     sodipodi:nodetypes="ccccc"
     id="path852"
     d="M 82.071717,52.213872 L 82.071717,147.34674 L 13.673747,121.94427 L 13.532279,31.073238 L 82.071717,52.213872 z "
     style="font-size:12.000000;fill:none;fill-rule:evenodd;stroke:#000000;stroke-width:6.9344954;stroke-linecap:round;stroke-linejoin:round" />
  <rect
     rx="7.4109697"
     y="74.061447"
     x="29.483648"
     ry="7.4109697"
     height="43.364216"
     width="102.16805"
     id="rect853"
     style="fill:#ffffff;fill-rule:evenodd;stroke:#000000;stroke-width:3.4577370" />
  <path
     id="path897"
     d="M 108.30976,105.17822 L 108.30976,110.08359 L 82.086282,110.08359 L 82.086282,105.17822 L 99.605484,86.478756 L 99.605484,86.331226 L 82.086282,86.331226 L 82.086282,81.388967 L 108.30976,81.388967 L 108.30976,86.331226 L 90.790559,104.95692 L 90.790559,105.17822 L 108.30976,105.17822 z M 63.718784,110.08359 C 59.833825,110.08359 56.846340,108.85418 54.756330,106.39534 C 52.690909,103.91192 51.658198,100.35891 51.658198,95.736272 C 51.658198,91.064484 52.690909,87.511467 54.756330,85.077220 C 56.821752,82.618385 59.809236,81.388967 63.718784,81.388967 L 79.172563,81.388967 L 79.172563,86.331226 L 65.562910,86.331226 C 63.202429,86.331226 61.432067,87.118054 60.251827,88.691707 C 59.071586,90.265362 58.481465,92.613550 58.481465,95.736272 C 58.481465,98.883605 59.034703,101.24409 60.141179,102.81774 C 61.247655,104.39139 63.054899,105.17822 65.562910,105.17822 L 73.050063,105.17822 L 73.050063,98.096763 L 64.972790,98.096763 L 64.972790,93.375790 L 79.172563,93.375790 L 79.172563,110.08359 L 63.718784,110.08359 z "
     style="font-size:40.000000;stroke-width:1.0000000pt;font-family:Trek" />
</svg>
