<?xml version="1.0" encoding="UTF-8" standalone="no"?>
<!-- Created with Inkscape (http://www.inkscape.org/) -->
<svg
   xmlns:dc="http://purl.org/dc/elements/1.1/"
   xmlns:cc="http://web.resource.org/cc/"
   xmlns:rdf="http://www.w3.org/1999/02/22-rdf-syntax-ns#"
   xmlns:svg="http://www.w3.org/2000/svg"
   xmlns="http://www.w3.org/2000/svg"
   xmlns:xlink="http://www.w3.org/1999/xlink"
   xmlns:sodipodi="http://inkscape.sourceforge.net/DTD/sodipodi-0.dtd"
   xmlns:inkscape="http://www.inkscape.org/namespaces/inkscape"
   sodipodi:docname="gnome-mime-audio-x-mpegurl.svg"
   sodipodi:docbase="/home/francois/Rodent/scalable/mimetypes"
   height="128.00000pt"
   width="128.00000pt"
   inkscape:version="0.41"
   sodipodi:version="0.32"
   id="svg1">
  <metadata
     id="metadata15">
    <rdf:RDF
       id="RDF17">
      <cc:Work
         id="Work19"
         rdf:about="">
        <dc:format
           id="format21">image/svg+xml</dc:format>
        <dc:type
           rdf:resource="http://purl.org/dc/dcmitype/StillImage"
           id="type23" />
      </cc:Work>
    </rdf:RDF>
  </metadata>
  <defs
     id="defs3">
    <linearGradient
       id="linearGradient3587">
      <stop
         style="stop-color:#efe0cd;stop-opacity:0.56097561;"
         offset="0.0000000"
         id="stop3589" />
      <stop
         style="stop-color:#cececd;stop-opacity:0.21951219;"
         offset="1.0000000"
         id="stop3591" />
    </linearGradient>
    <linearGradient
       id="linearGradient2832">
      <stop
         id="stop2834"
         offset="0.0000000"
         style="stop-color:#ffffff;stop-opacity:1.0000000;" />
      <stop
         id="stop2836"
         offset="1.0000000"
         style="stop-color:#ffffff;stop-opacity:0.0000000;" />
    </linearGradient>
    <linearGradient
       id="linearGradient839">
      <stop
         id="stop840"
         offset="0.0000000"
         style="stop-color:#46a046;stop-opacity:1.0000000;" />
      <stop
         id="stop841"
         offset="0.39364964"
         style="stop-color:#df421e;stop-opacity:1.0000000;" />
      <stop
         id="stop842"
         offset="0.72036445"
         style="stop-color:#ada7c8;stop-opacity:1.0000000;" />
      <stop
         id="stop843"
         offset="1.0000000"
         style="stop-color:#eed680;stop-opacity:1.0000000;" />
    </linearGradient>
    <linearGradient
       y2="0.50000000"
       x2="1.0000000"
       y1="0.50000000"
       x1="1.3267924e-17"
       id="linearGradient836"
       xlink:href="#linearGradient839" />
    <linearGradient
       gradientUnits="userSpaceOnUse"
       y2="73.398720"
       x2="72.999245"
       y1="16.369013"
       x1="23.983805"
       gradientTransform="matrix(0.939922,0.000000,0.000000,0.896911,4.950743,6.511692)"
       id="linearGradient2830"
       xlink:href="#linearGradient2832"
       inkscape:collect="always" />
    <linearGradient
       inkscape:collect="always"
       xlink:href="#linearGradient1700"
       id="linearGradient1407"
       gradientUnits="userSpaceOnUse"
       gradientTransform="matrix(0.777129,0.000000,0.000000,0.894628,-162.4688,12.76856)"
       x1="111.32588"
       y1="124.28045"
       x2="107.31592"
       y2="93.732185" />
    <linearGradient
       inkscape:collect="always"
       xlink:href="#linearGradient1700"
       id="linearGradient1390"
       gradientUnits="userSpaceOnUse"
       gradientTransform="matrix(0.777129,0.000000,0.000000,0.894628,-2.922179,10.43077)"
       x1="111.32588"
       y1="124.28045"
       x2="107.31592"
       y2="93.732185" />
    <linearGradient
       id="linearGradient1350">
      <stop
         id="stop1352"
         offset="0.0000000"
         style="stop-color:#46a046;stop-opacity:1.0000000;" />
      <stop
         id="stop1354"
         offset="0.39364964"
         style="stop-color:#df421e;stop-opacity:1.0000000;" />
      <stop
         id="stop1356"
         offset="0.72036445"
         style="stop-color:#ada7c8;stop-opacity:1.0000000;" />
      <stop
         id="stop1358"
         offset="1.0000000"
         style="stop-color:#eed680;stop-opacity:1.0000000;" />
    </linearGradient>
    <linearGradient
       y2="0.50000000"
       x2="1.0000000"
       y1="0.50000000"
       x1="1.3267924e-17"
       id="linearGradient1360"
       xlink:href="#linearGradient839" />
    <linearGradient
       gradientUnits="userSpaceOnUse"
       y2="87.980263"
       x2="128.66997"
       y1="121.73159"
       x1="123.50353"
       gradientTransform="matrix(0.870364,0.000000,0.000000,1.001961,4.612015,4.886798)"
       id="linearGradient1362"
       xlink:href="#linearGradient1700"
       inkscape:collect="always" />
    <linearGradient
       gradientUnits="userSpaceOnUse"
       y2="93.732185"
       x2="107.31592"
       y1="124.28045"
       x1="111.32588"
       gradientTransform="matrix(0.919657,0.000000,0.000000,1.058706,1.338192,1.084837)"
       id="linearGradient1703"
       xlink:href="#linearGradient1700"
       inkscape:collect="always" />
    <linearGradient
       y2="0.50000000"
       x2="1.0000000"
       y1="0.50000000"
       x1="1.3267924e-17"
       id="linearGradient1363"
       xlink:href="#linearGradient839" />
    <linearGradient
       id="linearGradient1353">
      <stop
         id="stop1355"
         offset="0.0000000"
         style="stop-color:#46a046;stop-opacity:1.0000000;" />
      <stop
         id="stop1357"
         offset="0.39364964"
         style="stop-color:#df421e;stop-opacity:1.0000000;" />
      <stop
         id="stop1359"
         offset="0.72036445"
         style="stop-color:#ada7c8;stop-opacity:1.0000000;" />
      <stop
         id="stop1361"
         offset="1.0000000"
         style="stop-color:#eed680;stop-opacity:1.0000000;" />
    </linearGradient>
    <linearGradient
       id="linearGradient1700">
      <stop
         id="stop1701"
         offset="0.0000000"
         style="stop-color:#000000;stop-opacity:0.69918698;" />
      <stop
         id="stop1702"
         offset="1"
         style="stop-color:#000000;stop-opacity:0;" />
    </linearGradient>
    <linearGradient
       xlink:href="#linearGradient839"
       id="linearGradient1427"
       x1="1.3267924e-17"
       y1="0.50000000"
       x2="1.0000000"
       y2="0.50000000" />
    <linearGradient
       id="linearGradient1417">
      <stop
         style="stop-color:#46a046;stop-opacity:1.0000000;"
         offset="0.0000000"
         id="stop1419" />
      <stop
         style="stop-color:#df421e;stop-opacity:1.0000000;"
         offset="0.39364964"
         id="stop1421" />
      <stop
         style="stop-color:#ada7c8;stop-opacity:1.0000000;"
         offset="0.72036445"
         id="stop1423" />
      <stop
         style="stop-color:#eed680;stop-opacity:1.0000000;"
         offset="1.0000000"
         id="stop1425" />
    </linearGradient>
    <linearGradient
       y2="0.50000000"
       x2="1.0000000"
       y1="0.50000000"
       x1="1.3267924e-17"
       id="linearGradient1384"
       xlink:href="#linearGradient839" />
    <linearGradient
       id="linearGradient1374">
      <stop
         id="stop1376"
         offset="0.0000000"
         style="stop-color:#46a046;stop-opacity:1.0000000;" />
      <stop
         id="stop1378"
         offset="0.39364964"
         style="stop-color:#df421e;stop-opacity:1.0000000;" />
      <stop
         id="stop1380"
         offset="0.72036445"
         style="stop-color:#ada7c8;stop-opacity:1.0000000;" />
      <stop
         id="stop1382"
         offset="1.0000000"
         style="stop-color:#eed680;stop-opacity:1.0000000;" />
    </linearGradient>
    <linearGradient
       y2="0.50000000"
       x2="1.0000000"
       y1="0.50000000"
       x1="1.3267924e-17"
       id="linearGradient2205"
       xlink:href="#linearGradient839" />
    <linearGradient
       id="linearGradient2195">
      <stop
         id="stop2197"
         offset="0.0000000"
         style="stop-color:#46a046;stop-opacity:1.0000000;" />
      <stop
         id="stop2199"
         offset="0.39364964"
         style="stop-color:#df421e;stop-opacity:1.0000000;" />
      <stop
         id="stop2201"
         offset="0.72036445"
         style="stop-color:#ada7c8;stop-opacity:1.0000000;" />
      <stop
         id="stop2203"
         offset="1.0000000"
         style="stop-color:#eed680;stop-opacity:1.0000000;" />
    </linearGradient>
    <linearGradient
       y2="0.50000000"
       x2="1.0000000"
       y1="0.50000000"
       x1="1.3267924e-17"
       id="linearGradient3025"
       xlink:href="#linearGradient839" />
    <linearGradient
       id="linearGradient3015">
      <stop
         id="stop3017"
         offset="0.0000000"
         style="stop-color:#46a046;stop-opacity:1.0000000;" />
      <stop
         id="stop3019"
         offset="0.39364964"
         style="stop-color:#df421e;stop-opacity:1.0000000;" />
      <stop
         id="stop3021"
         offset="0.72036445"
         style="stop-color:#ada7c8;stop-opacity:1.0000000;" />
      <stop
         id="stop3023"
         offset="1.0000000"
         style="stop-color:#eed680;stop-opacity:1.0000000;" />
    </linearGradient>
    <linearGradient
       y2="0.50000000"
       x2="1.0000000"
       y1="0.50000000"
       x1="1.3267924e-17"
       id="linearGradient3845"
       xlink:href="#linearGradient839" />
    <linearGradient
       id="linearGradient3835">
      <stop
         id="stop3837"
         offset="0.0000000"
         style="stop-color:#46a046;stop-opacity:1.0000000;" />
      <stop
         id="stop3839"
         offset="0.39364964"
         style="stop-color:#df421e;stop-opacity:1.0000000;" />
      <stop
         id="stop3841"
         offset="0.72036445"
         style="stop-color:#ada7c8;stop-opacity:1.0000000;" />
      <stop
         id="stop3843"
         offset="1.0000000"
         style="stop-color:#eed680;stop-opacity:1.0000000;" />
    </linearGradient>
    <linearGradient
       y2="0.50000000"
       x2="1.0000000"
       y1="0.50000000"
       x1="1.3267924e-17"
       id="linearGradient4665"
       xlink:href="#linearGradient839" />
    <linearGradient
       id="linearGradient4655">
      <stop
         id="stop4657"
         offset="0.0000000"
         style="stop-color:#46a046;stop-opacity:1.0000000;" />
      <stop
         id="stop4659"
         offset="0.39364964"
         style="stop-color:#df421e;stop-opacity:1.0000000;" />
      <stop
         id="stop4661"
         offset="0.72036445"
         style="stop-color:#ada7c8;stop-opacity:1.0000000;" />
      <stop
         id="stop4663"
         offset="1.0000000"
         style="stop-color:#eed680;stop-opacity:1.0000000;" />
    </linearGradient>
    <linearGradient
       y2="0.50000000"
       x2="1.0000000"
       y1="0.50000000"
       x1="1.3267924e-17"
       id="linearGradient5485"
       xlink:href="#linearGradient839" />
    <linearGradient
       id="linearGradient5475">
      <stop
         id="stop5477"
         offset="0.0000000"
         style="stop-color:#46a046;stop-opacity:1.0000000;" />
      <stop
         id="stop5479"
         offset="0.39364964"
         style="stop-color:#df421e;stop-opacity:1.0000000;" />
      <stop
         id="stop5481"
         offset="0.72036445"
         style="stop-color:#ada7c8;stop-opacity:1.0000000;" />
      <stop
         id="stop5483"
         offset="1.0000000"
         style="stop-color:#eed680;stop-opacity:1.0000000;" />
    </linearGradient>
    <linearGradient
       y2="0.50000000"
       x2="1.0000000"
       y1="0.50000000"
       x1="1.3267924e-17"
       id="linearGradient6305"
       xlink:href="#linearGradient839" />
    <linearGradient
       id="linearGradient6295">
      <stop
         id="stop6297"
         offset="0.0000000"
         style="stop-color:#46a046;stop-opacity:1.0000000;" />
      <stop
         id="stop6299"
         offset="0.39364964"
         style="stop-color:#df421e;stop-opacity:1.0000000;" />
      <stop
         id="stop6301"
         offset="0.72036445"
         style="stop-color:#ada7c8;stop-opacity:1.0000000;" />
      <stop
         id="stop6303"
         offset="1.0000000"
         style="stop-color:#eed680;stop-opacity:1.0000000;" />
    </linearGradient>
    <linearGradient
       y2="0.50000000"
       x2="1.0000000"
       y1="0.50000000"
       x1="1.3267924e-17"
       id="linearGradient7125"
       xlink:href="#linearGradient839" />
    <linearGradient
       id="linearGradient7115">
      <stop
         id="stop7117"
         offset="0.0000000"
         style="stop-color:#46a046;stop-opacity:1.0000000;" />
      <stop
         id="stop7119"
         offset="0.39364964"
         style="stop-color:#df421e;stop-opacity:1.0000000;" />
      <stop
         id="stop7121"
         offset="0.72036445"
         style="stop-color:#ada7c8;stop-opacity:1.0000000;" />
      <stop
         id="stop7123"
         offset="1.0000000"
         style="stop-color:#eed680;stop-opacity:1.0000000;" />
    </linearGradient>
    <linearGradient
       xlink:href="#linearGradient839"
       id="linearGradient1432"
       x1="1.3267924e-17"
       y1="0.50000000"
       x2="1.0000000"
       y2="0.50000000" />
    <linearGradient
       id="linearGradient1422">
      <stop
         style="stop-color:#46a046;stop-opacity:1.0000000;"
         offset="0.0000000"
         id="stop1424" />
      <stop
         style="stop-color:#df421e;stop-opacity:1.0000000;"
         offset="0.39364964"
         id="stop1426" />
      <stop
         style="stop-color:#ada7c8;stop-opacity:1.0000000;"
         offset="0.72036445"
         id="stop1428" />
      <stop
         style="stop-color:#eed680;stop-opacity:1.0000000;"
         offset="1.0000000"
         id="stop1430" />
    </linearGradient>
  </defs>
  <sodipodi:namedview
     inkscape:current-layer="svg1"
     inkscape:window-y="34"
     inkscape:window-x="0"
     gridspacingy="1.0000000mm"
     gridspacingx="1.0000000mm"
     snaptogrid="false"
     showgrid="true"
     inkscape:window-height="653"
     inkscape:window-width="756"
     inkscape:cy="87.593912"
     inkscape:cx="36.526921"
     inkscape:zoom="2.0859650"
     inkscape:pageshadow="2"
     inkscape:pageopacity="0.0"
     borderopacity="1.0"
     bordercolor="#666666"
     pagecolor="#ffffff"
     id="base" />
  <rect
     rx="22.892691"
     ry="22.892691"
     y="13.614116"
     x="20.782476"
     height="133.38696"
     width="117.75612"
     id="rect834"
     style="stroke-miterlimit:4.0000000;stroke-dasharray:none;stroke-opacity:0.49999997;stroke-linejoin:round;stroke-width:7.5000000;stroke:#000000;fill-rule:evenodd;fill:none" />
  <rect
     rx="22.892691"
     ry="22.892691"
     y="13.524447"
     x="20.643702"
     height="133.38696"
     width="117.75612"
     id="rect828"
     style="stroke-miterlimit:4.0000000;stroke-dasharray:none;fill:#83a67f;fill-opacity:1.0000000;fill-rule:evenodd;stroke:#000000;stroke-width:3.7500000" />
  <path
     sodipodi:nodetypes="cccccc"
     id="path2838"
     d="M 117.38055,142.41910 L 41.662967,142.41910 C 30.018294,142.41910 24.316361,136.71717 24.316361,125.07250 C 24.316361,125.07250 51.936692,58.557014 134.72716,48.414718 L 134.72716,125.07250 C 134.72716,136.71717 129.02522,142.41910 117.38055,142.41910 z "
     style="stroke-width:6.2500000;stroke:none;fill-rule:evenodd;fill-opacity:0.27935222;fill:#ffffff" />
  <g
     id="g1375"
     transform="matrix(0.529753,0.000000,0.000000,0.529753,37.55307,20.31400)">
    <path
       style="fill:#4b6983;fill-rule:evenodd;stroke:#000000;stroke-width:3.7500000;stroke-linejoin:round;stroke-miterlimit:4.0000000;stroke-opacity:0.47727272"
       d="M 71.062832,10.924845 C 49.872305,12.300807 28.066026,36.057179 19.551099,68.986837 C 9.8197500,106.62075 21.145800,142.05850 44.830005,148.09870 C 51.073848,149.69108 57.536772,149.02305 63.876628,146.57244 L 124.32344,117.06447 C 129.92174,112.14439 137.13629,110.55715 140.50830,99.353324 C 143.88032,88.149535 141.79406,82.200175 137.29677,74.106214 L 93.702558,19.700919 C 89.797307,15.854514 85.238849,13.071963 80.061487,11.751576 C 77.100963,10.996552 74.090051,10.728279 71.062832,10.924845 z "
       id="path1539"
       sodipodi:nodetypes="cccccccccc"
       inkscape:export-xdpi="27.000000"
       inkscape:export-ydpi="27.000000" />
    <path
       sodipodi:nodetypes="ccczcc"
       id="path831"
       d="M 92.945351,20.564156 L 65.265280,144.56473 L 124.02111,116.42450 C 130.80597,111.65325 136.43603,110.09957 139.70602,99.234682 C 142.97602,88.369815 140.97387,82.590786 136.61265,74.741679 L 92.945351,20.564156 z "
       style="fill:#7590ae;fill-opacity:1.0000000;fill-rule:evenodd;stroke:#000000;stroke-width:2.5240839;stroke-linejoin:round;stroke-miterlimit:4.0000000" />
    <path
       transform="matrix(0.939421,0.239581,-0.241243,0.932955,-13.93465,-17.04180)"
       d="M 145.27559 78.503937 A 44.291340 70.866142 0 1 1  56.692913,78.503937 A 44.291340 70.866142 0 1 1  145.27559 78.503937 z"
       sodipodi:ry="70.866142"
       sodipodi:rx="44.291340"
       sodipodi:cy="78.503937"
       sodipodi:cx="100.98425"
       id="path825"
       style="fill:#9db8d2;fill-opacity:1.0000000;fill-rule:evenodd;stroke:#000000;stroke-width:2.6114149;stroke-miterlimit:4.0000000"
       sodipodi:type="arc" />
    <path
       transform="matrix(1.131177,0.288486,-0.265628,1.027252,-33.13970,-37.83387)"
       d="M 131.10237 85.590553 A 28.346457 56.692913 0 1 1  74.409456,85.590553 A 28.346457 56.692913 0 1 1  131.10237 85.590553 z"
       sodipodi:ry="56.692913"
       sodipodi:rx="28.346457"
       sodipodi:cy="85.590553"
       sodipodi:cx="102.75591"
       id="path4029"
       style="fill:#7590ae;fill-opacity:1.0000000;fill-rule:evenodd;stroke:#000000;stroke-width:3.4019165;stroke-miterlimit:4.0000000;stroke-opacity:0.45909092"
       sodipodi:type="arc" />
    <path
       transform="matrix(1.131177,0.288486,-0.265628,1.027252,-33.13970,-37.83387)"
       d="M 131.10237 85.590553 A 28.346457 56.692913 0 1 1  74.409456,85.590553 A 28.346457 56.692913 0 1 1  131.10237 85.590553 z"
       sodipodi:ry="56.692913"
       sodipodi:rx="28.346457"
       sodipodi:cy="85.590553"
       sodipodi:cx="102.75591"
       id="path826"
       style="fill:#7590ae;fill-opacity:1.0000000;fill-rule:evenodd;stroke:#000000;stroke-width:2.2747321"
       sodipodi:type="arc" />
    <path
       sodipodi:nodetypes="cccccc"
       id="path2788"
       d="M 61.978897,23.522409 C 61.978897,23.522409 66.585421,42.766795 67.558215,66.383703 C 68.531007,90.000612 62.466930,96.330881 60.197074,100.73940 C 57.927228,105.14789 52.414723,119.56451 37.822802,133.10486 C 49.496334,142.80628 80.398453,138.66284 93.335626,77.310778 C 98.199603,38.264152 82.407585,15.080632 61.978897,23.522409 z "
       style="fill:#ffffff;fill-opacity:0.46558705;fill-rule:evenodd;stroke:none;stroke-width:1.0000000pt;stroke-linecap:butt;stroke-linejoin:miter;stroke-opacity:1.0000000" />
    <path
       transform="matrix(0.939421,0.239581,-0.276433,1.069045,58.67646,19.94617)"
       d="M 46.062994 51.929134 A 12.401575 19.488190 0 1 1  21.259844,51.929134 A 12.401575 19.488190 0 1 1  46.062994 51.929134 z"
       sodipodi:ry="19.488190"
       sodipodi:rx="12.401575"
       sodipodi:cy="51.929134"
       sodipodi:cx="33.661419"
       id="path5272"
       style="fill:#314e6c;fill-opacity:1.0000000;fill-rule:evenodd;stroke:#000000;stroke-width:4.4529762;stroke-miterlimit:4.0000000;stroke-opacity:0.49999997"
       sodipodi:type="arc" />
    <path
       transform="matrix(0.939421,0.239581,-0.276433,1.069045,58.67646,19.94617)"
       d="M 46.062994 51.929134 A 12.401575 19.488190 0 1 1  21.259844,51.929134 A 12.401575 19.488190 0 1 1  46.062994 51.929134 z"
       sodipodi:ry="19.488190"
       sodipodi:rx="12.401575"
       sodipodi:cy="51.929134"
       sodipodi:cx="33.661419"
       id="path827"
       style="fill:#314e6c;fill-opacity:1.0000000;fill-rule:evenodd;stroke:#000000;stroke-width:1.0000000pt"
       sodipodi:type="arc" />
    <path
       transform="matrix(0.939421,0.239581,-0.241243,0.932955,-13.93465,-17.04180)"
       d="M 145.27559 78.503937 A 44.291340 70.866142 0 1 1  56.692913,78.503937 A 44.291340 70.866142 0 1 1  145.27559 78.503937 z"
       sodipodi:ry="70.866142"
       sodipodi:rx="44.291340"
       sodipodi:cy="78.503937"
       sodipodi:cx="100.98425"
       id="path922"
       style="fill:none;fill-opacity:1.0000000;fill-rule:evenodd;stroke:#000000;stroke-width:3.9171224;stroke-miterlimit:4.0000000;stroke-opacity:0.46136364"
       sodipodi:type="arc" />
    <path
       sodipodi:nodetypes="ccc"
       id="path923"
       d="M 60.788258,21.071240 C 39.711047,18.152862 -3.1855065,95.157365 35.077744,136.33900 C 5.6030673,100.97744 31.774916,29.706046 60.788258,21.071240 z "
       style="fill:#ffffff;fill-opacity:1.0000000;fill-rule:evenodd;stroke:none;stroke-width:1.0000000pt;stroke-linecap:butt;stroke-linejoin:miter;stroke-opacity:1.0000000" />
    <path
       sodipodi:nodetypes="ccc"
       id="path1545"
       d="M 70.561920,102.75483 C 56.942809,90.432770 70.886184,63.843067 79.317068,64.491599 C 64.400897,81.353360 78.020010,97.566586 70.561920,102.75483 z "
       style="fill:#ffffff;fill-opacity:1.0000000;fill-rule:evenodd;stroke:none;stroke-width:1.0000000pt;stroke-linecap:butt;stroke-linejoin:miter;stroke-opacity:1.0000000" />
    <path
       sodipodi:nodetypes="csccc"
       id="path1078"
       d="M 98.304479,109.56442 L 80.794182,134.85705 C 77.825266,139.14548 129.43388,118.64381 137.86477,101.78206 C 142.40449,84.920279 109.32947,72.598220 109.32947,72.598220 L 98.304479,109.56442 z "
       style="fill:url(#linearGradient1703);fill-opacity:1.0000000;fill-rule:evenodd;stroke:none;stroke-width:0.25000000pt;stroke-linecap:butt;stroke-linejoin:miter;stroke-opacity:1.0000000" />
    <path
       sodipodi:nodetypes="ccc"
       id="path2074"
       d="M 65.528724,141.38887 C 86.605935,144.42988 130.70594,65.025282 92.442699,22.113005 C 118.70814,60.632688 93.739758,128.21106 65.528724,141.38887 z "
       style="fill:#000000;fill-opacity:0.29959515;fill-rule:evenodd;stroke:none;stroke-width:1.0000000pt;stroke-linecap:butt;stroke-linejoin:miter;stroke-opacity:1.0000000" />
    <path
       sodipodi:nodetypes="ccc"
       id="path5112"
       d="M 63.753452,139.64816 C 84.830663,142.56654 127.72722,65.562063 89.463966,24.380428 C 118.93865,59.741988 92.766794,131.01335 63.753452,139.64816 z "
       style="fill:#000000;fill-opacity:0.33198377;fill-rule:evenodd;stroke:none;stroke-width:1.0000000pt;stroke-linecap:butt;stroke-linejoin:miter;stroke-opacity:1.0000000" />
  </g>
  <path
     style="font-size:40.000000;fill:#ffffff;fill-opacity:1.0000000;stroke-width:1.0000000pt;font-family:Trek"
     d="M 100.39573,104.27666 L 107.11573,104.27666 L 107.11573,125.11666 C 107.11573,126.87666 107.75573,128.24999 109.03573,129.23666 C 110.31573,130.22332 112.04906,130.71666 114.23573,130.71666 C 116.36906,130.71666 118.10239,130.23666 119.43573,129.27666 C 120.79573,128.31666 121.47573,126.92999 121.47573,125.11666 L 121.47573,104.27666 L 128.19573,104.27666 L 128.19573,125.35666 C 128.19573,128.58332 126.87573,131.14332 124.23573,133.03666 C 121.59573,134.90332 118.26239,135.83666 114.23573,135.83666 C 110.18239,135.83666 106.88906,134.92999 104.35573,133.11666 C 101.71573,131.22332 100.39573,128.63666 100.39573,125.35666 L 100.39573,104.27666 z M 92.955723,120.11666 C 94.209056,120.72999 95.142389,121.43666 95.755723,122.23666 C 96.902389,123.62332 97.475727,125.24999 97.475727,127.11666 C 97.475727,129.86332 96.382389,132.03666 94.195723,133.63666 C 93.369056,134.22332 92.449056,134.66332 91.435723,134.95666 C 90.449056,135.24999 89.422389,135.39666 88.355723,135.39666 L 70.835724,135.39666 L 70.835724,130.07666 L 86.115723,130.07666 C 87.342389,130.07666 88.302389,129.78332 88.995723,129.19666 C 89.875723,128.55666 90.315723,127.56999 90.315723,126.23666 C 90.315723,124.95666 89.915723,123.99666 89.115723,123.35666 C 88.315723,122.71666 87.315723,122.39666 86.115723,122.39666 L 74.355724,122.39666 L 74.355724,117.27666 L 86.115723,117.27666 C 87.315723,117.27666 88.275723,116.99666 88.995723,116.43666 C 89.875723,115.79666 90.315723,114.79666 90.315723,113.43666 C 90.315723,112.23666 89.915723,111.30332 89.115723,110.63666 C 88.315723,109.96999 87.315723,109.63666 86.115723,109.63666 L 70.835724,109.63666 L 70.835724,104.27666 L 88.355723,104.27666 C 90.515723,104.27666 92.462389,104.84999 94.195723,105.99666 C 96.382389,107.54332 97.475727,109.72999 97.475727,112.55666 C 97.475727,114.39666 96.902389,116.00999 95.755723,117.39666 C 95.115723,118.19666 94.182389,118.91666 92.955723,119.55666 L 92.435723,119.83666 L 92.955723,120.11666 z M 36.395724,135.39666 L 29.675724,135.39666 L 29.675724,104.27666 L 39.675724,104.27666 L 47.835724,128.31666 L 56.075724,104.27666 L 66.115724,104.27666 L 66.115724,135.39666 L 59.395724,135.39666 L 59.395724,112.15666 L 59.235724,112.15666 L 51.155724,135.39666 L 44.635724,135.39666 L 36.555724,112.15666 L 36.395724,112.15666 L 36.395724,135.39666 z "
     id="path1456" />
  <path
     style="font-size:40.000000;stroke-width:1.0000000pt;font-family:Trek"
     d="M 101.07369,104.95462 L 107.79369,104.95462 L 107.79369,125.79462 C 107.79369,127.55462 108.43369,128.92795 109.71369,129.91462 C 110.99369,130.90128 112.72702,131.39462 114.91369,131.39462 C 117.04702,131.39462 118.78035,130.91462 120.11369,129.95462 C 121.47369,128.99462 122.15369,127.60795 122.15369,125.79462 L 122.15369,104.95462 L 128.87369,104.95462 L 128.87369,126.03462 C 128.87369,129.26128 127.55369,131.82128 124.91369,133.71462 C 122.27369,135.58128 118.94035,136.51462 114.91369,136.51462 C 110.86035,136.51462 107.56702,135.60795 105.03369,133.79462 C 102.39369,131.90128 101.07369,129.31462 101.07369,126.03462 L 101.07369,104.95462 z M 93.633689,120.79462 C 94.887022,121.40795 95.820355,122.11462 96.433689,122.91462 C 97.580355,124.30128 98.153693,125.92795 98.153693,127.79462 C 98.153693,130.54128 97.060355,132.71462 94.873689,134.31462 C 94.047022,134.90128 93.127022,135.34128 92.113689,135.63462 C 91.127022,135.92795 90.100355,136.07462 89.033689,136.07462 L 71.513690,136.07462 L 71.513690,130.75462 L 86.793689,130.75462 C 88.020355,130.75462 88.980355,130.46128 89.673689,129.87462 C 90.553689,129.23462 90.993689,128.24795 90.993689,126.91462 C 90.993689,125.63462 90.593689,124.67462 89.793689,124.03462 C 88.993689,123.39462 87.993689,123.07462 86.793689,123.07462 L 75.033690,123.07462 L 75.033690,117.95462 L 86.793689,117.95462 C 87.993689,117.95462 88.953689,117.67462 89.673689,117.11462 C 90.553689,116.47462 90.993689,115.47462 90.993689,114.11462 C 90.993689,112.91462 90.593689,111.98128 89.793689,111.31462 C 88.993689,110.64795 87.993689,110.31462 86.793689,110.31462 L 71.513690,110.31462 L 71.513690,104.95462 L 89.033689,104.95462 C 91.193689,104.95462 93.140355,105.52795 94.873689,106.67462 C 97.060355,108.22128 98.153693,110.40795 98.153693,113.23462 C 98.153693,115.07462 97.580355,116.68795 96.433689,118.07462 C 95.793689,118.87462 94.860355,119.59462 93.633689,120.23462 L 93.113689,120.51462 L 93.633689,120.79462 z M 37.073690,136.07462 L 30.353690,136.07462 L 30.353690,104.95462 L 40.353690,104.95462 L 48.513690,128.99462 L 56.753690,104.95462 L 66.793690,104.95462 L 66.793690,136.07462 L 60.073690,136.07462 L 60.073690,112.83462 L 59.913690,112.83462 L 51.833690,136.07462 L 45.313690,136.07462 L 37.233690,112.83462 L 37.073690,112.83462 L 37.073690,136.07462 z "
     id="path840" />
  <path
     sodipodi:nodetypes="cccccc"
     id="rect2063"
     d="M 41.662967,17.197108 L 117.38055,17.197108 C 129.02522,17.197108 134.72716,22.899041 134.72716,34.543716 C 134.72716,34.543716 55.440598,35.449314 24.316361,125.89213 L 24.316361,34.543716 C 24.316361,24.254973 31.374226,17.197108 41.662967,17.197108 z "
     style="fill:url(#linearGradient2830);fill-opacity:1.0000000;fill-rule:evenodd;stroke:none;stroke-width:6.2500000" />
</svg>
