<?xml version="1.0" encoding="UTF-8" standalone="no"?>
<!-- Created with Inkscape (http://www.inkscape.org/) -->
<svg
   xmlns:dc="http://purl.org/dc/elements/1.1/"
   xmlns:cc="http://web.resource.org/cc/"
   xmlns:rdf="http://www.w3.org/1999/02/22-rdf-syntax-ns#"
   xmlns:svg="http://www.w3.org/2000/svg"
   xmlns="http://www.w3.org/2000/svg"
   xmlns:xlink="http://www.w3.org/1999/xlink"
   xmlns:sodipodi="http://inkscape.sourceforge.net/DTD/sodipodi-0.dtd"
   xmlns:inkscape="http://www.inkscape.org/namespaces/inkscape"
   sodipodi:docname="gnome-mime-text-x-log.svg"
   sodipodi:docbase="/home/francois/Rodent/scalable/mimetypes"
   height="128.00000pt"
   width="128.00000pt"
   inkscape:version="0.41"
   sodipodi:version="0.32"
   id="svg1">
  <metadata
     id="metadata15">
    <rdf:RDF
       id="RDF17">
      <cc:Work
         id="Work19"
         rdf:about="">
        <dc:format
           id="format21">image/svg+xml</dc:format>
        <dc:type
           rdf:resource="http://purl.org/dc/dcmitype/StillImage"
           id="type23" />
      </cc:Work>
    </rdf:RDF>
  </metadata>
  <defs
     id="defs3">
    <linearGradient
       id="linearGradient3587">
      <stop
         style="stop-color:#efe0cd;stop-opacity:0.56097561;"
         offset="0.0000000"
         id="stop3589" />
      <stop
         style="stop-color:#cececd;stop-opacity:0.21951219;"
         offset="1.0000000"
         id="stop3591" />
    </linearGradient>
    <linearGradient
       id="linearGradient2832">
      <stop
         id="stop2834"
         offset="0.0000000"
         style="stop-color:#ffffff;stop-opacity:1.0000000;" />
      <stop
         id="stop2836"
         offset="1.0000000"
         style="stop-color:#ffffff;stop-opacity:0.0000000;" />
    </linearGradient>
    <linearGradient
       id="linearGradient839">
      <stop
         id="stop840"
         offset="0.0000000"
         style="stop-color:#46a046;stop-opacity:1.0000000;" />
      <stop
         id="stop841"
         offset="0.39364964"
         style="stop-color:#df421e;stop-opacity:1.0000000;" />
      <stop
         id="stop842"
         offset="0.72036445"
         style="stop-color:#ada7c8;stop-opacity:1.0000000;" />
      <stop
         id="stop843"
         offset="1.0000000"
         style="stop-color:#eed680;stop-opacity:1.0000000;" />
    </linearGradient>
    <linearGradient
       y2="0.50000000"
       x2="1.0000000"
       y1="0.50000000"
       x1="1.3267924e-17"
       id="linearGradient836"
       xlink:href="#linearGradient839" />
    <linearGradient
       gradientUnits="userSpaceOnUse"
       y2="73.398720"
       x2="72.999245"
       y1="16.369013"
       x1="23.983805"
       gradientTransform="matrix(0.939922,0.000000,0.000000,0.896911,4.950743,6.511692)"
       id="linearGradient2830"
       xlink:href="#linearGradient2832"
       inkscape:collect="always" />
    <linearGradient
       xlink:href="#linearGradient869"
       id="linearGradient674"
       x1="95.121380"
       y1="73.521367"
       x2="76.569053"
       y2="55.073781"
       spreadMethod="reflect"
       gradientTransform="scale(1.080100,0.925840)"
       gradientUnits="userSpaceOnUse" />
    <linearGradient
       xlink:href="#linearGradient839"
       id="linearGradient1373"
       x1="1.3267924e-17"
       y1="0.50000000"
       x2="1.0000000"
       y2="0.50000000" />
    <linearGradient
       id="linearGradient1363">
      <stop
         style="stop-color:#46a046;stop-opacity:1.0000000;"
         offset="0.0000000"
         id="stop1365" />
      <stop
         style="stop-color:#df421e;stop-opacity:1.0000000;"
         offset="0.39364964"
         id="stop1367" />
      <stop
         style="stop-color:#ada7c8;stop-opacity:1.0000000;"
         offset="0.72036445"
         id="stop1369" />
      <stop
         style="stop-color:#eed680;stop-opacity:1.0000000;"
         offset="1.0000000"
         id="stop1371" />
    </linearGradient>
    <linearGradient
       xlink:href="#linearGradient907"
       id="linearGradient904"
       x1="52.724242"
       y1="81.199529"
       x2="47.145329"
       y2="75.142359"
       spreadMethod="reflect"
       gradientTransform="scale(0.999352,1.000649)"
       gradientUnits="userSpaceOnUse" />
    <linearGradient
       id="linearGradient866">
      <stop
         style="stop-color:#ffff00;stop-opacity:1.0000000;"
         offset="0.0000000"
         id="stop867" />
      <stop
         style="stop-color:#ffea00;stop-opacity:1.0000000;"
         offset="0.36908397"
         id="stop901" />
      <stop
         style="stop-color:#ffd600;stop-opacity:1.0000000;"
         offset="1.0000000"
         id="stop868" />
    </linearGradient>
    <linearGradient
       id="linearGradient869">
      <stop
         style="stop-color:#990000;stop-opacity:1.0000000;"
         offset="0.0000000"
         id="stop870" />
      <stop
         style="stop-color:#ffffff;stop-opacity:1.0000000;"
         offset="1.0000000"
         id="stop871" />
    </linearGradient>
    <linearGradient
       id="linearGradient907">
      <stop
         style="stop-color:#eed680;stop-opacity:1.0000000;"
         offset="0.0000000"
         id="stop908" />
      <stop
         style="stop-color:#dfb546;stop-opacity:1.0000000;"
         offset="0.29427481"
         id="stop911" />
      <stop
         style="stop-color:#d1940c;stop-opacity:1.0000000;"
         offset="1.0000000"
         id="stop910" />
    </linearGradient>
    <linearGradient
       inkscape:collect="always"
       xlink:href="#linearGradient869"
       id="linearGradient2167"
       gradientUnits="userSpaceOnUse"
       gradientTransform="scale(1.080100,0.925840)"
       spreadMethod="reflect"
       x1="-54.605907"
       y1="63.613220"
       x2="-66.468513"
       y2="49.744450" />
    <linearGradient
       inkscape:collect="always"
       xlink:href="#linearGradient907"
       id="linearGradient2169"
       gradientUnits="userSpaceOnUse"
       gradientTransform="matrix(0.999352,0.000000,0.000000,1.000649,-151.1197,-0.373250)"
       spreadMethod="reflect"
       x1="52.724242"
       y1="81.199529"
       x2="47.145329"
       y2="75.142359" />
    <linearGradient
       xlink:href="#linearGradient869"
       id="linearGradient1434"
       x1="0.68852460"
       y1="0.78625953"
       x2="0.37377051"
       y2="0.47328246"
       spreadMethod="reflect" />
    <linearGradient
       xlink:href="#linearGradient839"
       id="linearGradient1432"
       x1="1.3267924e-17"
       y1="0.50000000"
       x2="1.0000000"
       y2="0.50000000" />
    <linearGradient
       id="linearGradient1422">
      <stop
         style="stop-color:#46a046;stop-opacity:1.0000000;"
         offset="0.0000000"
         id="stop1424" />
      <stop
         style="stop-color:#df421e;stop-opacity:1.0000000;"
         offset="0.39364964"
         id="stop1426" />
      <stop
         style="stop-color:#ada7c8;stop-opacity:1.0000000;"
         offset="0.72036445"
         id="stop1428" />
      <stop
         style="stop-color:#eed680;stop-opacity:1.0000000;"
         offset="1.0000000"
         id="stop1430" />
    </linearGradient>
    <linearGradient
       xlink:href="#linearGradient907"
       id="linearGradient1420"
       x1="0.35737705"
       y1="0.49346405"
       x2="0.17377049"
       y2="0.29411766"
       spreadMethod="reflect" />
    <linearGradient
       id="linearGradient1412">
      <stop
         style="stop-color:#ffff00;stop-opacity:1.0000000;"
         offset="0.0000000"
         id="stop1414" />
      <stop
         style="stop-color:#ffea00;stop-opacity:1.0000000;"
         offset="0.36908397"
         id="stop1416" />
      <stop
         style="stop-color:#ffd600;stop-opacity:1.0000000;"
         offset="1.0000000"
         id="stop1418" />
    </linearGradient>
    <linearGradient
       id="linearGradient1405">
      <stop
         style="stop-color:#7590ae;stop-opacity:1.0000000;"
         offset="0.0000000"
         id="stop1407" />
      <stop
         style="stop-color:#89a4c0;stop-opacity:1.0000000;"
         offset="0.87030536"
         id="stop912" />
      <stop
         style="stop-color:#9db8d2;stop-opacity:1.0000000;"
         offset="1.0000000"
         id="stop1410" />
    </linearGradient>
    <linearGradient
       id="linearGradient1397">
      <stop
         style="stop-color:#eed680;stop-opacity:1.0000000;"
         offset="0.0000000"
         id="stop1399" />
      <stop
         style="stop-color:#dfb546;stop-opacity:1.0000000;"
         offset="0.29427481"
         id="stop1401" />
      <stop
         style="stop-color:#d1940c;stop-opacity:1.0000000;"
         offset="1.0000000"
         id="stop1403" />
    </linearGradient>
    <linearGradient
       inkscape:collect="always"
       xlink:href="#linearGradient907"
       id="linearGradient1498"
       gradientUnits="userSpaceOnUse"
       gradientTransform="matrix(0.999352,0.000000,0.000000,1.000649,-194.3701,-13.49593)"
       spreadMethod="reflect"
       x1="52.724242"
       y1="81.199529"
       x2="47.145329"
       y2="75.142359" />
    <linearGradient
       inkscape:collect="always"
       xlink:href="#linearGradient869"
       id="linearGradient1501"
       gradientUnits="userSpaceOnUse"
       gradientTransform="matrix(1.080100,0.000000,0.000000,0.925840,-194.3701,-13.49593)"
       spreadMethod="reflect"
       x1="95.121380"
       y1="73.521367"
       x2="76.569053"
       y2="55.073781" />
    <linearGradient
       spreadMethod="reflect"
       y2="0.47328246"
       x2="0.37377051"
       y1="0.78625953"
       x1="0.68852460"
       id="linearGradient1457"
       xlink:href="#linearGradient869" />
    <linearGradient
       y2="0.50000000"
       x2="1.0000000"
       y1="0.50000000"
       x1="1.3267924e-17"
       id="linearGradient1455"
       xlink:href="#linearGradient839" />
    <linearGradient
       id="linearGradient1445">
      <stop
         id="stop1447"
         offset="0.0000000"
         style="stop-color:#46a046;stop-opacity:1.0000000;" />
      <stop
         id="stop1449"
         offset="0.39364964"
         style="stop-color:#df421e;stop-opacity:1.0000000;" />
      <stop
         id="stop1451"
         offset="0.72036445"
         style="stop-color:#ada7c8;stop-opacity:1.0000000;" />
      <stop
         id="stop1453"
         offset="1.0000000"
         style="stop-color:#eed680;stop-opacity:1.0000000;" />
    </linearGradient>
    <linearGradient
       spreadMethod="reflect"
       y2="0.29411766"
       x2="0.17377049"
       y1="0.49346405"
       x1="0.35737705"
       id="linearGradient1443"
       xlink:href="#linearGradient907" />
    <linearGradient
       id="linearGradient1435">
      <stop
         id="stop1437"
         offset="0.0000000"
         style="stop-color:#ffff00;stop-opacity:1.0000000;" />
      <stop
         id="stop1439"
         offset="0.36908397"
         style="stop-color:#ffea00;stop-opacity:1.0000000;" />
      <stop
         id="stop1441"
         offset="1.0000000"
         style="stop-color:#ffd600;stop-opacity:1.0000000;" />
    </linearGradient>
    <linearGradient
       id="linearGradient1427">
      <stop
         id="stop1429"
         offset="0.0000000"
         style="stop-color:#7590ae;stop-opacity:1.0000000;" />
      <stop
         id="stop1431"
         offset="0.87030536"
         style="stop-color:#89a4c0;stop-opacity:1.0000000;" />
      <stop
         id="stop1433"
         offset="1.0000000"
         style="stop-color:#9db8d2;stop-opacity:1.0000000;" />
    </linearGradient>
    <linearGradient
       id="linearGradient1418">
      <stop
         id="stop1420"
         offset="0.0000000"
         style="stop-color:#eed680;stop-opacity:1.0000000;" />
      <stop
         id="stop1422"
         offset="0.29427481"
         style="stop-color:#dfb546;stop-opacity:1.0000000;" />
      <stop
         id="stop1425"
         offset="1.0000000"
         style="stop-color:#d1940c;stop-opacity:1.0000000;" />
    </linearGradient>
    <linearGradient
       spreadMethod="reflect"
       y2="0.47328246"
       x2="0.37377051"
       y1="0.78625953"
       x1="0.68852460"
       id="linearGradient1567"
       xlink:href="#linearGradient869" />
    <linearGradient
       y2="0.50000000"
       x2="1.0000000"
       y1="0.50000000"
       x1="1.3267924e-17"
       id="linearGradient1565"
       xlink:href="#linearGradient839" />
    <linearGradient
       id="linearGradient1555">
      <stop
         id="stop1557"
         offset="0.0000000"
         style="stop-color:#46a046;stop-opacity:1.0000000;" />
      <stop
         id="stop1559"
         offset="0.39364964"
         style="stop-color:#df421e;stop-opacity:1.0000000;" />
      <stop
         id="stop1561"
         offset="0.72036445"
         style="stop-color:#ada7c8;stop-opacity:1.0000000;" />
      <stop
         id="stop1563"
         offset="1.0000000"
         style="stop-color:#eed680;stop-opacity:1.0000000;" />
    </linearGradient>
    <linearGradient
       spreadMethod="reflect"
       y2="0.29411766"
       x2="0.17377049"
       y1="0.49346405"
       x1="0.35737705"
       id="linearGradient1553"
       xlink:href="#linearGradient907" />
    <linearGradient
       id="linearGradient1545">
      <stop
         id="stop1547"
         offset="0.0000000"
         style="stop-color:#ffff00;stop-opacity:1.0000000;" />
      <stop
         id="stop1549"
         offset="0.36908397"
         style="stop-color:#ffea00;stop-opacity:1.0000000;" />
      <stop
         id="stop1551"
         offset="1.0000000"
         style="stop-color:#ffd600;stop-opacity:1.0000000;" />
    </linearGradient>
    <linearGradient
       id="linearGradient1537">
      <stop
         id="stop1539"
         offset="0.0000000"
         style="stop-color:#7590ae;stop-opacity:1.0000000;" />
      <stop
         id="stop1541"
         offset="0.87030536"
         style="stop-color:#89a4c0;stop-opacity:1.0000000;" />
      <stop
         id="stop1543"
         offset="1.0000000"
         style="stop-color:#9db8d2;stop-opacity:1.0000000;" />
    </linearGradient>
    <linearGradient
       id="linearGradient1529">
      <stop
         id="stop1531"
         offset="0.0000000"
         style="stop-color:#eed680;stop-opacity:1.0000000;" />
      <stop
         id="stop1533"
         offset="0.29427481"
         style="stop-color:#dfb546;stop-opacity:1.0000000;" />
      <stop
         id="stop1535"
         offset="1.0000000"
         style="stop-color:#d1940c;stop-opacity:1.0000000;" />
    </linearGradient>
    <linearGradient
       y2="75.142359"
       x2="47.145329"
       y1="81.199529"
       x1="52.724242"
       spreadMethod="reflect"
       gradientTransform="matrix(0.999352,0.000000,0.000000,1.000649,-150.9803,7.521019)"
       gradientUnits="userSpaceOnUse"
       id="linearGradient1593"
       xlink:href="#linearGradient907"
       inkscape:collect="always" />
    <linearGradient
       y2="55.073781"
       x2="76.569053"
       y1="73.521367"
       x1="95.121380"
       spreadMethod="reflect"
       gradientTransform="matrix(1.080100,0.000000,0.000000,0.925840,-150.9803,7.521019)"
       gradientUnits="userSpaceOnUse"
       id="linearGradient1596"
       xlink:href="#linearGradient869"
       inkscape:collect="always" />
    <linearGradient
       xlink:href="#linearGradient869"
       id="linearGradient1478"
       x1="0.68852460"
       y1="0.78625953"
       x2="0.37377051"
       y2="0.47328246"
       spreadMethod="reflect" />
    <linearGradient
       xlink:href="#linearGradient839"
       id="linearGradient1476"
       x1="1.3267924e-17"
       y1="0.50000000"
       x2="1.0000000"
       y2="0.50000000" />
    <linearGradient
       id="linearGradient1466">
      <stop
         style="stop-color:#46a046;stop-opacity:1.0000000;"
         offset="0.0000000"
         id="stop1468" />
      <stop
         style="stop-color:#df421e;stop-opacity:1.0000000;"
         offset="0.39364964"
         id="stop1470" />
      <stop
         style="stop-color:#ada7c8;stop-opacity:1.0000000;"
         offset="0.72036445"
         id="stop1472" />
      <stop
         style="stop-color:#eed680;stop-opacity:1.0000000;"
         offset="1.0000000"
         id="stop1474" />
    </linearGradient>
    <linearGradient
       xlink:href="#linearGradient907"
       id="linearGradient1464"
       x1="0.35737705"
       y1="0.49346405"
       x2="0.17377049"
       y2="0.29411766"
       spreadMethod="reflect" />
    <linearGradient
       id="linearGradient1456">
      <stop
         style="stop-color:#ffff00;stop-opacity:1.0000000;"
         offset="0.0000000"
         id="stop1458" />
      <stop
         style="stop-color:#ffea00;stop-opacity:1.0000000;"
         offset="0.36908397"
         id="stop1460" />
      <stop
         style="stop-color:#ffd600;stop-opacity:1.0000000;"
         offset="1.0000000"
         id="stop1462" />
    </linearGradient>
    <linearGradient
       id="linearGradient1448">
      <stop
         style="stop-color:#7590ae;stop-opacity:1.0000000;"
         offset="0.0000000"
         id="stop1450" />
      <stop
         style="stop-color:#89a4c0;stop-opacity:1.0000000;"
         offset="0.87030536"
         id="stop1452" />
      <stop
         style="stop-color:#9db8d2;stop-opacity:1.0000000;"
         offset="1.0000000"
         id="stop1454" />
    </linearGradient>
    <linearGradient
       id="linearGradient1440">
      <stop
         style="stop-color:#eed680;stop-opacity:1.0000000;"
         offset="0.0000000"
         id="stop1442" />
      <stop
         style="stop-color:#dfb546;stop-opacity:1.0000000;"
         offset="0.29427481"
         id="stop1444" />
      <stop
         style="stop-color:#d1940c;stop-opacity:1.0000000;"
         offset="1.0000000"
         id="stop1446" />
    </linearGradient>
    <linearGradient
       xlink:href="#linearGradient869"
       id="linearGradient2350"
       x1="0.68852460"
       y1="0.78625953"
       x2="0.37377051"
       y2="0.47328246"
       spreadMethod="reflect" />
    <linearGradient
       xlink:href="#linearGradient839"
       id="linearGradient2348"
       x1="1.3267924e-17"
       y1="0.50000000"
       x2="1.0000000"
       y2="0.50000000" />
    <linearGradient
       id="linearGradient2338">
      <stop
         style="stop-color:#46a046;stop-opacity:1.0000000;"
         offset="0.0000000"
         id="stop2340" />
      <stop
         style="stop-color:#df421e;stop-opacity:1.0000000;"
         offset="0.39364964"
         id="stop2342" />
      <stop
         style="stop-color:#ada7c8;stop-opacity:1.0000000;"
         offset="0.72036445"
         id="stop2344" />
      <stop
         style="stop-color:#eed680;stop-opacity:1.0000000;"
         offset="1.0000000"
         id="stop2346" />
    </linearGradient>
    <linearGradient
       xlink:href="#linearGradient907"
       id="linearGradient2336"
       x1="0.35737705"
       y1="0.49346405"
       x2="0.17377049"
       y2="0.29411766"
       spreadMethod="reflect" />
    <linearGradient
       id="linearGradient2328">
      <stop
         style="stop-color:#ffff00;stop-opacity:1.0000000;"
         offset="0.0000000"
         id="stop2330" />
      <stop
         style="stop-color:#ffea00;stop-opacity:1.0000000;"
         offset="0.36908397"
         id="stop2332" />
      <stop
         style="stop-color:#ffd600;stop-opacity:1.0000000;"
         offset="1.0000000"
         id="stop2334" />
    </linearGradient>
    <linearGradient
       id="linearGradient2320">
      <stop
         style="stop-color:#7590ae;stop-opacity:1.0000000;"
         offset="0.0000000"
         id="stop2322" />
      <stop
         style="stop-color:#89a4c0;stop-opacity:1.0000000;"
         offset="0.87030536"
         id="stop2324" />
      <stop
         style="stop-color:#9db8d2;stop-opacity:1.0000000;"
         offset="1.0000000"
         id="stop2326" />
    </linearGradient>
    <linearGradient
       id="linearGradient2312">
      <stop
         style="stop-color:#eed680;stop-opacity:1.0000000;"
         offset="0.0000000"
         id="stop2314" />
      <stop
         style="stop-color:#dfb546;stop-opacity:1.0000000;"
         offset="0.29427481"
         id="stop2316" />
      <stop
         style="stop-color:#d1940c;stop-opacity:1.0000000;"
         offset="1.0000000"
         id="stop2318" />
    </linearGradient>
    <linearGradient
       inkscape:collect="always"
       xlink:href="#linearGradient907"
       id="linearGradient2372"
       gradientUnits="userSpaceOnUse"
       gradientTransform="matrix(0.999352,0.000000,0.000000,1.000649,-183.5227,0.741359)"
       spreadMethod="reflect"
       x1="52.724242"
       y1="81.199529"
       x2="47.145329"
       y2="75.142359" />
    <linearGradient
       inkscape:collect="always"
       xlink:href="#linearGradient869"
       id="linearGradient2375"
       gradientUnits="userSpaceOnUse"
       gradientTransform="matrix(1.080100,0.000000,0.000000,0.925840,-183.5227,0.741359)"
       spreadMethod="reflect"
       x1="95.121380"
       y1="73.521367"
       x2="76.569053"
       y2="55.073781" />
  </defs>
  <sodipodi:namedview
     inkscape:current-layer="svg1"
     inkscape:window-y="51"
     inkscape:window-x="0"
     gridspacingy="1.0000000mm"
     gridspacingx="1.0000000mm"
     snaptogrid="false"
     showgrid="true"
     inkscape:window-height="653"
     inkscape:window-width="782"
     inkscape:cy="80.000000"
     inkscape:cx="80.000000"
     inkscape:zoom="2.9500000"
     inkscape:pageshadow="2"
     inkscape:pageopacity="0.0"
     borderopacity="1.0"
     bordercolor="#666666"
     pagecolor="#ffffff"
     id="base"
     showguides="true"
     inkscape:guide-bbox="true" />
  <rect
     rx="22.892691"
     ry="22.892691"
     y="13.614116"
     x="20.782476"
     height="133.38696"
     width="117.75612"
     id="rect834"
     style="stroke-miterlimit:4.0000000;stroke-dasharray:none;stroke-opacity:0.49999997;stroke-linejoin:round;stroke-width:7.5000000;stroke:#000000;fill-rule:evenodd;fill:none" />
  <rect
     rx="22.892691"
     ry="22.892691"
     y="13.524447"
     x="20.643702"
     height="133.38696"
     width="117.75612"
     id="rect828"
     style="fill:#bab5ab;fill-opacity:1.0000000;fill-rule:evenodd;stroke:#000000;stroke-width:3.7500000;stroke-dasharray:none;stroke-miterlimit:4.0000000" />
  <path
     sodipodi:nodetypes="cccccc"
     id="path2838"
     d="M 117.38055,142.41910 L 41.662967,142.41910 C 30.018294,142.41910 24.316361,136.71717 24.316361,125.07250 C 24.316361,125.07250 51.936692,58.557014 134.72716,48.414718 L 134.72716,125.07250 C 134.72716,136.71717 129.02522,142.41910 117.38055,142.41910 z "
     style="stroke-width:6.2500000;stroke:none;fill-rule:evenodd;fill-opacity:0.27935222;fill:#ffffff" />
  <g
     id="g2160"
     transform="translate(140.0000,0.000000)">
    <path
       style="fill-rule:evenodd;stroke:#000000;stroke-width:0.72004113pt"
       d="M -81.317197,63.097780 L -76.328485,64.170081 L -78.286689,61.139573 L -81.317197,63.097780 z "
       id="path873"
       sodipodi:nodetypes="cccc" />
    <path
       id="path900"
       d="M -62.246200,51.016016 C -62.246200,51.016016 -60.572575,50.718565 -60.572575,50.718565 C -60.572575,50.718565 -59.202748,51.834488 -59.202748,51.834488 C -59.238682,51.169576 -59.546838,50.939043 -60.196908,50.635018 C -60.196908,50.635018 -60.129396,50.320931 -60.129396,50.320931 C -59.378062,50.153836 -59.207106,50.190583 -58.730172,49.635908 C -58.730172,49.635908 -60.574753,49.896612 -60.574753,49.896612 C -60.574753,49.896612 -61.807379,48.974475 -61.807379,48.974475 C -61.771445,49.639388 -61.600489,49.676135 -60.984176,50.137200 C -60.984176,50.137200 -62.246200,51.016016 -62.246200,51.016016 z M -61.501401,48.383055 C -61.501401,48.383055 -60.714132,48.880866 -60.714132,48.880866 C -59.211463,48.546669 -58.833617,49.285075 -58.358863,47.908450 C -58.358863,47.908450 -58.700774,47.834958 -58.700774,47.834958 C -59.211463,48.546669 -59.553375,48.473177 -60.408154,48.289445 C -60.408154,48.289445 -60.239377,47.504242 -60.239377,47.504242 C -60.239377,47.504242 -60.581290,47.430749 -60.581290,47.430749 C -60.581290,47.430749 -60.750067,48.215953 -60.750067,48.215953 C -60.750067,48.215953 -61.433890,48.068968 -61.433890,48.068968 C -61.433890,48.068968 -61.501401,48.383055 -61.501401,48.383055 z M -58.432908,45.756664 C -58.430729,46.578617 -58.464486,46.735664 -59.283332,47.216846 C -59.283332,47.216846 -58.945777,45.646425 -58.945777,45.646425 C -60.722846,45.593042 -60.480023,46.959622 -59.692753,47.457433 C -58.529818,47.871704 -57.542195,46.605308 -58.432908,45.756664 z M -60.007446,44.761034 C -60.007446,44.761034 -57.785019,45.238735 -57.785019,45.238735 C -57.785019,45.238735 -57.717507,44.924648 -57.717507,44.924648 C -58.743244,44.704171 -59.256111,44.593932 -59.395488,43.578186 C -59.395488,43.578186 -59.737401,43.504693 -59.737401,43.504693 C -59.737401,43.504693 -59.564267,44.363400 -59.564267,44.363400 C -59.564267,44.363400 -60.007446,44.761034 -60.007446,44.761034 z M -59.669891,43.190613 C -59.669891,43.190613 -57.447463,43.668315 -57.447463,43.668315 C -57.447463,43.668315 -57.379951,43.354228 -57.379951,43.354228 C -57.721864,43.280735 -59.602379,42.876526 -58.749779,42.238304 C -58.511310,41.960964 -57.485575,42.181441 -57.143663,42.254934 C -57.143663,42.254934 -57.076153,41.940854 -57.076153,41.940854 C -57.418065,41.867361 -59.127625,41.499898 -58.479735,40.981970 C -58.241267,40.704630 -57.215531,40.925107 -56.873619,40.998599 C -56.873619,40.998599 -56.772353,40.527473 -56.772353,40.527473 C -57.285221,40.417234 -58.140000,40.233502 -58.686623,40.280304 C -59.096047,40.520898 -59.399848,41.934279 -59.330157,42.442145 C -59.363913,42.599192 -59.192957,42.635939 -59.226712,42.792979 C -59.226712,42.792979 -59.669891,43.190613 -59.669891,43.190613 z M -59.355198,45.887013 C -59.355198,45.887013 -59.625243,47.143353 -59.625243,47.143353 C -60.036844,46.561988 -60.140289,46.211154 -59.355198,45.887013 z "
       style="fill:none;stroke:#000000;stroke-width:0.16759372" />
    <path
       style="fill:url(#linearGradient2167);fill-opacity:1.0000000;fill-rule:evenodd;stroke:#000000;stroke-width:3.6002057"
       d="M -90.412933,65.688043 C -75.104619,49.385236 -43.627200,17.342738 -32.017540,29.139154 C -21.748650,41.371321 -61.572464,66.781133 -78.400378,77.559753 L -90.412933,65.688043 z "
       id="path879"
       sodipodi:nodetypes="cccc" />
    <path
       style="fill:url(#linearGradient2169);fill-opacity:0.75000000;fill-rule:evenodd;stroke:#000000;stroke-width:2.7001543"
       d="M -80.266178,76.307212 C -80.266178,76.307212 -83.886954,83.283950 -82.131989,85.314942 C -80.303635,86.916702 -97.836559,92.218905 -100.68798,91.898047 C -100.68798,91.898055 -103.15674,97.307853 -106.74006,93.675094 C -110.32338,90.042343 -104.68149,87.418103 -104.68149,87.418103 C -104.67634,83.221775 -100.04858,67.151169 -98.256925,68.967546 C -96.465265,70.783921 -89.224475,67.225324 -89.224475,67.225324 C -89.224475,67.225324 -80.266178,76.307212 -80.266178,76.307212 z "
       id="path868"
       sodipodi:nodetypes="cccccccc" />
    <path
       style="fill:none;fill-opacity:0.75000000;fill-rule:evenodd;stroke:#000000;stroke-width:0.72004113pt;stroke-linecap:round;stroke-linejoin:round"
       d="M -105.52241,92.488546 C -105.52241,92.488546 -90.991393,78.155268 -90.991393,78.155268"
       id="path876"
       sodipodi:nodetypes="cc" />
  </g>
  <path
     style="font-size:40.000000;fill:#ffffff;fill-opacity:1.0000000;stroke-width:1.0000000pt;font-family:Trek"
     d="M 126.88110,103.39889 L 126.88110,125.63889 L 126.88110,126.19889 C 126.88110,126.99889 126.86777,127.55889 126.84110,127.87889 C 126.81444,128.19889 126.72110,128.55889 126.56110,128.95889 C 126.40110,129.54556 126.17444,130.09222 125.88110,130.59889 C 125.58777,131.13222 125.12110,131.71889 124.48110,132.35889 C 122.96110,133.79889 121.00110,134.51889 118.60110,134.51889 L 105.60110,134.51889 L 105.60110,130.07889 L 117.44110,130.07889 C 118.13444,130.07889 118.65444,130.01222 119.00110,129.87889 C 119.37444,129.79889 119.73444,129.53222 120.08110,129.07889 C 120.45444,128.67889 120.69444,128.25222 120.80110,127.79889 L 120.96110,126.03889 L 120.96110,125.63889 L 114.00110,125.63889 C 110.56110,125.63889 107.88110,124.67889 105.96110,122.75889 C 104.04110,120.83889 103.08110,118.09222 103.08110,114.51889 C 103.08110,112.65222 103.30777,111.07889 103.76110,109.79889 C 104.21444,108.49222 104.94777,107.33222 105.96110,106.31889 C 107.85444,104.37222 110.53444,103.39889 114.00110,103.39889 L 126.88110,103.39889 z M 120.96110,108.07889 L 114.88110,108.07889 C 113.22777,108.07889 111.89444,108.65222 110.88110,109.79889 C 109.86777,110.94556 109.36110,112.51889 109.36110,114.51889 C 109.36110,116.49222 109.85444,118.06556 110.84110,119.23889 C 111.82777,120.38556 113.17444,120.95889 114.88110,120.95889 L 120.96110,120.95889 L 120.96110,108.07889 z M 76.601089,114.51889 C 76.601089,110.83889 77.654429,107.99889 79.761093,105.99889 C 81.894427,103.97222 84.867760,102.95889 88.681093,102.95889 C 92.414427,102.95889 95.361093,103.95889 97.521089,105.95889 C 99.681097,107.93222 100.76110,110.78556 100.76110,114.51889 C 100.76110,118.19889 99.707767,121.05222 97.601089,123.07889 C 95.521093,125.07889 92.547760,126.07889 88.681093,126.07889 C 84.814427,126.07889 81.827760,125.09222 79.721093,123.11889 C 77.641089,121.14556 76.601089,118.27889 76.601089,114.51889 z M 88.681093,107.63889 C 86.601093,107.63889 85.067760,108.29222 84.081093,109.59889 C 83.281093,110.71889 82.881093,112.35889 82.881093,114.51889 C 82.881093,116.67889 83.267760,118.30556 84.041093,119.39889 C 84.974427,120.73222 86.521093,121.39889 88.681093,121.39889 C 90.761093,121.39889 92.294427,120.74556 93.281093,119.43889 C 94.081093,118.31889 94.481093,116.67889 94.481093,114.51889 C 94.481093,112.35889 94.094427,110.73222 93.321093,109.63889 C 92.387760,108.30556 90.841093,107.63889 88.681093,107.63889 z M 73.401089,125.63889 L 67.561089,125.63889 L 67.561089,94.518882 L 73.401089,94.518882 L 73.401089,125.63889 z M 59.361089,125.63889 L 59.361089,120.31889 L 64.761089,120.31889 L 64.761089,125.63889 L 59.361089,125.63889 z "
     id="path2381" />
  <path
     style="font-size:40.000000;stroke-width:1.0000000pt;font-family:Trek"
     d="M 127.55906,104.07685 L 127.55906,126.31685 L 127.55906,126.87685 C 127.55906,127.67685 127.54573,128.23685 127.51906,128.55685 C 127.49240,128.87685 127.39906,129.23685 127.23906,129.63685 C 127.07906,130.22352 126.85240,130.77018 126.55906,131.27685 C 126.26573,131.81018 125.79906,132.39685 125.15906,133.03685 C 123.63906,134.47685 121.67906,135.19685 119.27906,135.19685 L 106.27906,135.19685 L 106.27906,130.75685 L 118.11906,130.75685 C 118.81240,130.75685 119.33240,130.69018 119.67906,130.55685 C 120.05240,130.47685 120.41240,130.21018 120.75906,129.75685 C 121.13240,129.35685 121.37240,128.93018 121.47906,128.47685 L 121.63906,126.71685 L 121.63906,126.31685 L 114.67906,126.31685 C 111.23906,126.31685 108.55906,125.35685 106.63906,123.43685 C 104.71906,121.51685 103.75906,118.77018 103.75906,115.19685 C 103.75906,113.33018 103.98573,111.75685 104.43906,110.47685 C 104.89240,109.17018 105.62573,108.01018 106.63906,106.99685 C 108.53240,105.05018 111.21240,104.07685 114.67906,104.07685 L 127.55906,104.07685 z M 121.63906,108.75685 L 115.55906,108.75685 C 113.90573,108.75685 112.57240,109.33018 111.55906,110.47685 C 110.54573,111.62352 110.03906,113.19685 110.03906,115.19685 C 110.03906,117.17018 110.53240,118.74352 111.51906,119.91685 C 112.50573,121.06352 113.85240,121.63685 115.55906,121.63685 L 121.63906,121.63685 L 121.63906,108.75685 z M 77.279055,115.19685 C 77.279055,111.51685 78.332395,108.67685 80.439059,106.67685 C 82.572393,104.65018 85.545726,103.63685 89.359059,103.63685 C 93.092393,103.63685 96.039059,104.63685 98.199055,106.63685 C 100.35906,108.61018 101.43906,111.46352 101.43906,115.19685 C 101.43906,118.87685 100.38573,121.73018 98.279055,123.75685 C 96.199059,125.75685 93.225726,126.75685 89.359059,126.75685 C 85.492393,126.75685 82.505726,125.77018 80.399059,123.79685 C 78.319055,121.82352 77.279055,118.95685 77.279055,115.19685 z M 89.359059,108.31685 C 87.279059,108.31685 85.745726,108.97018 84.759059,110.27685 C 83.959059,111.39685 83.559059,113.03685 83.559059,115.19685 C 83.559059,117.35685 83.945726,118.98352 84.719059,120.07685 C 85.652393,121.41018 87.199059,122.07685 89.359059,122.07685 C 91.439059,122.07685 92.972393,121.42352 93.959059,120.11685 C 94.759059,118.99685 95.159059,117.35685 95.159059,115.19685 C 95.159059,113.03685 94.772393,111.41018 93.999059,110.31685 C 93.065726,108.98352 91.519059,108.31685 89.359059,108.31685 z M 74.079055,126.31685 L 68.239055,126.31685 L 68.239055,95.196848 L 74.079055,95.196848 L 74.079055,126.31685 z M 60.039055,126.31685 L 60.039055,120.99685 L 65.439055,120.99685 L 65.439055,126.31685 L 60.039055,126.31685 z "
     id="path855" />
  <path
     sodipodi:nodetypes="cccccc"
     id="rect2063"
     d="M 41.662967,17.197108 L 117.38055,17.197108 C 129.02522,17.197108 134.72716,22.899041 134.72716,34.543716 C 134.72716,34.543716 55.440598,35.449314 24.316361,125.89213 L 24.316361,34.543716 C 24.316361,24.254973 31.374226,17.197108 41.662967,17.197108 z "
     style="fill:url(#linearGradient2830);fill-opacity:1.0000000;fill-rule:evenodd;stroke:none;stroke-width:6.2500000" />
</svg>
