<?xml version="1.0" encoding="UTF-8" standalone="no"?>
<!-- Created with Sodipodi ("http://www.sodipodi.com/") -->
<svg
   xmlns:dc="http://purl.org/dc/elements/1.1/"
   xmlns:cc="http://web.resource.org/cc/"
   xmlns:rdf="http://www.w3.org/1999/02/22-rdf-syntax-ns#"
   xmlns:svg="http://www.w3.org/2000/svg"
   xmlns="http://www.w3.org/2000/svg"
   xmlns:xlink="http://www.w3.org/1999/xlink"
   xmlns:sodipodi="http://inkscape.sourceforge.net/DTD/sodipodi-0.dtd"
   xmlns:inkscape="http://www.inkscape.org/namespaces/inkscape"
   id="svg559"
   sodipodi:version="0.32"
   width="128pt"
   height="128pt"
   sodipodi:docname="xfce-edit.svg"
   sodipodi:docbase="/home/francois/Rodent/scalable/apps"
   inkscape:version="0.41">
  <metadata
     id="metadata22">
    <rdf:RDF
       id="RDF23">
      <cc:Work
         rdf:about=""
         id="Work24">
        <dc:format
           id="format25">image/svg+xml</dc:format>
        <dc:type
           id="type27"
           rdf:resource="http://purl.org/dc/dcmitype/StillImage" />
      </cc:Work>
    </rdf:RDF>
  </metadata>
  <defs
     id="defs561">
    <linearGradient
       id="linearGradient2851">
      <stop
         id="stop2853"
         offset="0.0000000"
         style="stop-color:#b7b795;stop-opacity:0.87804878;" />
      <stop
         id="stop2855"
         offset="1"
         style="stop-color:#ffffff;stop-opacity:0;" />
    </linearGradient>
    <linearGradient
       id="linearGradient3628"
       inkscape:collect="always">
      <stop
         id="stop3630"
         offset="0"
         style="stop-color:#ffffff;stop-opacity:1;" />
      <stop
         id="stop3632"
         offset="1"
         style="stop-color:#ffffff;stop-opacity:0;" />
    </linearGradient>
    <linearGradient
       id="linearGradient2850"
       inkscape:collect="always">
      <stop
         id="stop2852"
         offset="0"
         style="stop-color:#ffffff;stop-opacity:1;" />
      <stop
         id="stop2854"
         offset="1"
         style="stop-color:#ffffff;stop-opacity:0;" />
    </linearGradient>
    <linearGradient
       gradientUnits="userSpaceOnUse"
       y2="23.211439"
       x2="27.688238"
       y1="15.172702"
       x1="21.266949"
       gradientTransform="matrix(1.467658,0.000000,0.000000,0.681358,1.991632,0.669456)"
       id="linearGradient2856"
       xlink:href="#linearGradient2850"
       inkscape:collect="always" />
    <linearGradient
       y2="23.211439"
       x2="27.688238"
       y1="15.172702"
       x1="21.266949"
       gradientTransform="matrix(1.467658,0.000000,0.000000,0.681358,22.99581,0.669456)"
       gradientUnits="userSpaceOnUse"
       id="linearGradient2860"
       xlink:href="#linearGradient2850"
       inkscape:collect="always" />
    <linearGradient
       y2="23.211439"
       x2="27.688238"
       y1="15.172702"
       x1="21.266949"
       gradientTransform="matrix(1.467658,0.000000,0.000000,0.681358,44.00000,0.669456)"
       gradientUnits="userSpaceOnUse"
       id="linearGradient2864"
       xlink:href="#linearGradient2850"
       inkscape:collect="always" />
    <linearGradient
       y2="23.211439"
       x2="27.688238"
       y1="15.172702"
       x1="21.266949"
       gradientTransform="matrix(1.467658,0.000000,0.000000,0.681358,65.33054,0.669456)"
       gradientUnits="userSpaceOnUse"
       id="linearGradient2868"
       xlink:href="#linearGradient2850"
       inkscape:collect="always" />
    <linearGradient
       gradientUnits="userSpaceOnUse"
       y2="95.138435"
       x2="41.652451"
       y1="91.293839"
       x1="44.619724"
       gradientTransform="matrix(0.458581,-1.354414,0.662391,0.224274,-42.95944,167.7544)"
       id="linearGradient3634"
       xlink:href="#linearGradient3628"
       inkscape:collect="always" />
    <linearGradient
       y2="23.211439"
       x2="27.688238"
       y1="15.172702"
       x1="21.266949"
       gradientTransform="matrix(1.467658,0.000000,0.000000,0.681358,85.33054,0.669456)"
       gradientUnits="userSpaceOnUse"
       id="linearGradient3642"
       xlink:href="#linearGradient2850"
       inkscape:collect="always" />
    <linearGradient
       gradientUnits="userSpaceOnUse"
       y2="28.904657"
       x2="33.074848"
       y1="139.06479"
       x1="94.974739"
       gradientTransform="scale(0.949956,1.052680)"
       id="linearGradient2857"
       xlink:href="#linearGradient2851"
       inkscape:collect="always" />
  </defs>
  <sodipodi:namedview
     id="base"
     showgrid="true"
     snaptogrid="false"
     gridspacingx="1mm"
     gridspacingy="1mm"
     inkscape:zoom="2.9875000"
     inkscape:cx="80.000010"
     inkscape:cy="80.000010"
     inkscape:window-width="1242"
     inkscape:window-height="653"
     inkscape:window-x="20"
     inkscape:window-y="52"
     showguides="true"
     snaptoguides="true"
     inkscape:current-layer="svg559"
     gridempspacing="5">
    <sodipodi:guide
       orientation="horizontal"
       position="98.515862"
       id="guide886" />
    <sodipodi:guide
       orientation="horizontal"
       position="87.922759"
       id="guide887" />
  </sodipodi:namedview>
  <rect
     style="stroke-linejoin:round;stroke-linecap:round;stroke-width:3.8989379;stroke:none;fill-rule:evenodd;fill-opacity:0.46153846;fill:#000000;font-size:12.000000"
     id="rect574"
     width="116.84874"
     height="129.58746"
     x="23.781046"
     y="22.480480" />
  <rect
     style="font-size:12.000000;fill:#ffffff;fill-rule:evenodd;stroke:#000000;stroke-width:3.7500000;stroke-linecap:round;stroke-linejoin:round;stroke-miterlimit:4.0000000;stroke-opacity:1.0000000"
     id="rect562"
     width="112.90594"
     height="125.52065"
     x="22.862015"
     y="21.846649" />
  <rect
     style="font-size:12.000000;fill:url(#linearGradient2857);fill-rule:evenodd;stroke:#000000;stroke-width:3.7500000;stroke-linecap:round;stroke-linejoin:round;stroke-miterlimit:4.0000000;stroke-opacity:1.0000000;fill-opacity:1.0"
     id="rect2091"
     width="112.90594"
     height="125.52065"
     x="22.862015"
     y="21.846649" />
  <path
     style="font-size:12.000000;fill:#000000;fill-opacity:0.35980001;fill-rule:evenodd;stroke:none;stroke-width:2.5000000;stroke-opacity:1.0000000"
     d="M 59.438608,134.98781 L 127.89963,115.93515 L 123.40531,99.786612 L 50.944208,121.16567 L 30.883872,137.36192 L 59.438608,134.98781 z "
     id="path578"
     sodipodi:nodetypes="cccccc" />
  <path
     style="font-size:12.000000;fill:none;fill-rule:evenodd;stroke:#000000;stroke-width:5.8898816;stroke-linecap:round"
     d="M 34.904630,32.976167 C 25.311089,29.489479 28.508950,12.056044 38.102482,12.056044 C 44.498168,12.056044 47.696020,19.029416 44.498168,22.516104"
     id="path567"
     sodipodi:nodetypes="ccc" />
  <path
     style="font-size:12.000000;fill:none;fill-rule:evenodd;stroke:#000000;stroke-width:5.8898816;stroke-linecap:round"
     d="M 55.884246,32.976167 C 46.290707,29.489479 49.488568,12.056044 59.082099,12.056044 C 65.477786,12.056044 68.675638,19.029416 65.477786,22.516104"
     id="path568"
     sodipodi:nodetypes="ccc" />
  <path
     style="font-size:12.000000;fill:none;fill-rule:evenodd;stroke:#000000;stroke-width:5.8898816;stroke-linecap:round"
     d="M 76.815651,32.976167 C 67.222111,29.489479 70.419972,12.056044 80.013545,12.056044 C 86.409223,12.056044 89.607103,19.029416 86.409223,22.516104"
     id="path569"
     sodipodi:nodetypes="ccc" />
  <path
     style="font-size:12.000000;fill:none;fill-rule:evenodd;stroke:#000000;stroke-width:5.8898816;stroke-linecap:round"
     d="M 98.398452,32.976167 C 88.804801,29.489479 92.002772,12.056044 101.59626,12.056044 C 107.99193,12.056044 111.18982,19.029416 107.99193,22.516104"
     id="path570"
     sodipodi:nodetypes="ccc" />
  <path
     style="font-size:12.000000;fill:#a20000;fill-opacity:1.0000000;fill-rule:evenodd;stroke:#000000;stroke-width:2.2351236"
     d="M 55.354091,127.96384 L 114.57052,79.559593 L 104.88666,66.776736 L 45.670092,115.18081 L 34.362191,134.77347 L 55.354091,127.96384 z "
     id="path572"
     sodipodi:nodetypes="cccccc" />
  <path
     style="font-size:12.000000;fill-rule:evenodd;stroke:#000000;stroke-width:2.2351236"
     d="M 49.027860,129.02747 L 49.027860,129.02747 L 43.217454,121.35768 L 43.217454,121.35768 L 34.010220,135.09340 L 49.027860,129.02747 z "
     id="path573"
     sodipodi:nodetypes="cccccc" />
  <path
     sodipodi:nodetypes="ccccc"
     style="fill:#ffffff;fill-opacity:0.69230771;fill-rule:evenodd;stroke:none;stroke-width:1.0000000pt;stroke-linecap:butt;stroke-linejoin:miter;stroke-opacity:1.0000000"
     d="M 46.648253,116.19495 L 104.25874,69.281536 L 107.12230,72.686566 L 47.673253,121.54032 L 46.648253,116.19495 z "
     id="path837" />
  <path
     sodipodi:nodetypes="ccccc"
     style="fill:#2e0000;fill-opacity:0.60323888;fill-rule:evenodd;stroke:none;stroke-width:1.0000000pt;stroke-linecap:butt;stroke-linejoin:miter;stroke-opacity:1.0000000"
     d="M 49.666678,124.28862 L 109.70306,75.883212 L 113.28867,79.186375 L 55.651650,126.37994 L 49.666678,124.28862 z "
     id="path838" />
  <path
     id="path871"
     d="M 34.223951,41.546869 C 35.132839,43.441166 35.587282,43.020211 35.587282,45.335463 C 35.587282,45.335463 36.041725,45.335463 36.041725,45.335463 C 36.041725,43.020211 36.496168,43.441166 37.405056,41.546869 C 36.496168,41.967824 36.496168,42.178301 36.041725,43.020211 C 35.360059,42.388778 35.132839,41.757346 34.223951,41.546869 z M 58.536680,41.546869 C 58.536680,41.546869 58.536680,45.335463 58.536680,45.335463 C 58.536680,45.335463 58.991124,45.335463 58.991124,45.335463 C 58.991124,45.335463 58.991124,41.546869 58.991124,41.546869 C 58.991124,41.546869 58.536680,41.546869 58.536680,41.546869 z M 68.079992,41.757346 C 68.079992,41.757346 67.625549,42.809733 67.625549,42.809733 C 68.534435,44.493553 67.625549,45.124985 69.670549,45.335463 C 69.670549,45.335463 69.670549,44.914508 69.670549,44.914508 C 68.534435,44.493553 68.534435,44.072598 68.534435,43.020211 C 68.534435,43.020211 69.670549,43.020211 69.670549,43.020211 C 69.670549,43.020211 69.670549,42.599256 69.670549,42.599256 C 69.670549,42.599256 68.534435,42.599256 68.534435,42.599256 C 68.534435,42.599256 68.534435,41.757346 68.534435,41.757346 C 68.534435,41.757346 68.079992,41.757346 68.079992,41.757346 z M 37.859499,42.809733 C 36.268948,44.072598 37.859499,45.756417 39.222830,45.124985 C 40.358939,44.493553 40.131717,42.178301 37.859499,42.809733 z M 40.813382,42.599256 C 40.813382,43.651644 40.586161,46.177372 42.631157,44.914508 C 42.631157,44.914508 43.312822,45.335463 43.312822,45.335463 C 43.312822,45.335463 43.312822,42.599256 43.312822,42.599256 C 43.312822,42.599256 42.858379,42.599256 42.858379,42.599256 C 42.858379,43.020211 42.858379,45.335463 41.722270,44.493553 C 41.267826,44.283075 41.267826,43.020211 41.267826,42.599256 C 41.267826,42.599256 40.813382,42.599256 40.813382,42.599256 z M 44.221709,42.599256 C 44.221709,42.599256 44.221709,45.335463 44.221709,45.335463 C 44.221709,45.335463 44.676152,45.335463 44.676152,45.335463 C 44.676152,44.072598 44.676152,43.441166 46.039483,43.020211 C 46.039483,43.020211 46.039483,42.599256 46.039483,42.599256 C 46.039483,42.599256 44.903375,43.020211 44.903375,43.020211 C 44.903375,43.020211 44.221709,42.599256 44.221709,42.599256 z M 48.538922,43.230688 C 49.447810,43.020211 49.675031,43.020211 50.356697,43.651644 C 49.902253,43.651644 49.220588,43.651644 48.766144,43.862121 C 47.857257,44.493553 48.766144,45.966894 50.129475,44.914508 C 50.129475,44.914508 50.811140,45.335463 50.811140,45.335463 C 50.811140,44.914508 50.811140,43.651644 50.583919,43.230688 C 50.129475,42.388778 48.993366,42.388778 48.538922,43.230688 z M 51.720027,42.599256 C 51.720027,42.599256 51.720027,46.387850 51.720027,46.387850 C 51.720027,46.387850 52.174471,46.387850 52.174471,46.387850 C 52.174471,46.387850 52.174471,44.914508 52.174471,44.914508 C 52.401693,45.124985 52.628915,45.124985 53.083358,45.335463 C 55.128354,45.335463 54.446688,41.546869 52.401693,43.020211 C 52.401693,43.020211 51.720027,42.599256 51.720027,42.599256 z M 55.128354,42.599256 C 55.128354,42.599256 55.128354,46.387850 55.128354,46.387850 C 55.128354,46.387850 55.582797,46.387850 55.582797,46.387850 C 55.582797,46.387850 55.582797,44.914508 55.582797,44.914508 C 55.810019,45.124985 56.037241,45.124985 56.491684,45.335463 C 58.536680,45.335463 57.855015,41.546869 55.810019,43.020211 C 55.810019,43.020211 55.128354,42.599256 55.128354,42.599256 z M 60.127233,42.599256 C 60.127233,42.599256 60.127233,45.335463 60.127233,45.335463 C 60.127233,45.335463 60.581676,45.335463 60.581676,45.335463 C 60.581676,45.335463 60.581676,42.599256 60.581676,42.599256 C 60.581676,42.599256 60.127233,42.599256 60.127233,42.599256 z M 63.762781,45.335463 C 63.762781,45.335463 63.762781,44.914508 63.762781,44.914508 C 61.717785,44.704030 61.717785,43.230688 63.762781,43.020211 C 63.762781,43.020211 63.762781,42.599256 63.762781,42.599256 C 63.081115,42.599256 62.626672,42.599256 61.945006,43.020211 C 61.263342,43.441166 61.490563,44.704030 62.172229,45.124985 C 62.626672,45.335463 63.308338,45.335463 63.762781,45.335463 z M 64.898889,43.230688 C 65.807777,43.020211 66.034998,43.020211 66.716664,43.651644 C 66.262220,43.651644 65.580555,43.651644 65.126111,43.862121 C 64.217224,44.493553 65.126111,45.966894 66.489442,44.914508 C 66.489442,44.914508 67.171106,45.335463 67.171106,45.335463 C 67.171106,44.914508 67.171106,43.651644 66.943885,43.230688 C 66.489442,42.388778 65.353333,42.388778 64.898889,43.230688 z M 70.124992,42.599256 C 70.124992,42.599256 70.124992,45.335463 70.124992,45.335463 C 70.124992,45.335463 70.579435,45.335463 70.579435,45.335463 C 70.579435,45.335463 70.579435,42.599256 70.579435,42.599256 C 70.579435,42.599256 70.124992,42.599256 70.124992,42.599256 z M 72.169986,42.809733 C 70.579435,44.072598 72.169986,45.756417 73.533315,45.124985 C 74.669428,44.493553 74.442207,42.178301 72.169986,42.809733 z M 75.123871,42.599256 C 75.123871,42.599256 75.123871,45.335463 75.123871,45.335463 C 75.123871,45.335463 75.578315,45.335463 75.578315,45.335463 C 75.578315,44.914508 75.578315,42.599256 76.714422,43.441166 C 77.168865,43.651644 77.168865,44.914508 77.168865,45.335463 C 77.168865,45.335463 77.623308,45.335463 77.623308,45.335463 C 77.623308,44.283075 77.850530,41.757346 75.805535,43.020211 C 75.805535,43.020211 75.123871,42.599256 75.123871,42.599256 z M 38.313944,43.230688 C 39.677273,43.230688 39.450052,44.493553 38.768387,44.704030 C 38.086721,44.914508 37.177835,43.862121 38.313944,43.230688 z M 52.856135,43.230688 C 54.219466,43.230688 53.992245,44.493553 53.310579,44.704030 C 52.628915,44.914508 51.720027,43.862121 52.856135,43.230688 z M 56.264462,43.230688 C 57.627793,43.230688 57.400571,44.493553 56.718906,44.704030 C 56.037241,44.914508 55.128354,43.862121 56.264462,43.230688 z M 72.624429,43.230688 C 73.987757,43.230688 73.760536,44.493553 73.078871,44.704030 C 72.397207,44.914508 71.488321,43.862121 72.624429,43.230688 z M 50.356697,44.072598 C 49.902253,44.914508 49.675031,44.914508 48.766144,44.704030 C 48.766144,44.704030 48.766144,44.283075 48.766144,44.283075 C 48.766144,44.283075 50.356697,44.072598 50.356697,44.072598 z M 66.716664,44.072598 C 66.262220,44.914508 66.034998,44.914508 65.126111,44.704030 C 65.126111,44.704030 65.126111,44.283075 65.126111,44.283075 C 65.126111,44.283075 66.716664,44.072598 66.716664,44.072598 z "
     style="fill:#000000;fill-opacity:1.0000000;stroke:#000000;stroke-width:0.21868941" />
  <path
     id="path878"
     d="M 83.062822,41.514708 C 83.062822,41.514708 83.062822,45.374550 83.062822,45.374550 C 83.062822,45.374550 83.549795,45.374550 83.549795,45.374550 C 83.549795,45.374550 83.549795,42.372451 83.549795,42.372451 C 83.549795,42.372451 84.767224,44.731243 84.767224,44.731243 C 84.767224,44.731243 85.254197,44.731243 85.254197,44.731243 C 85.254197,44.731243 86.228140,42.372451 86.228140,42.372451 C 86.228140,42.372451 86.471626,45.374550 86.471626,45.374550 C 86.471626,45.374550 86.958599,45.374550 86.958599,45.374550 C 86.958599,45.374550 86.958599,41.514708 86.958599,41.514708 C 86.958599,41.514708 85.984654,41.514708 85.984654,41.514708 C 85.984654,41.514708 85.010710,43.873501 85.010710,43.873501 C 85.010710,43.873501 84.036767,41.514708 84.036767,41.514708 C 84.036767,41.514708 83.062822,41.514708 83.062822,41.514708 z M 96.211064,41.514708 C 96.211064,41.514708 96.211064,45.374550 96.211064,45.374550 C 96.211064,45.374550 96.698037,45.374550 96.698037,45.374550 C 96.698037,45.374550 96.698037,41.514708 96.698037,41.514708 C 96.698037,41.514708 96.211064,41.514708 96.211064,41.514708 z M 97.915466,41.514708 C 97.915466,41.514708 97.915466,45.374550 97.915466,45.374550 C 97.915466,45.374550 98.402438,45.374550 98.402438,45.374550 C 98.402438,45.374550 98.402438,41.514708 98.402438,41.514708 C 98.402438,41.514708 97.915466,41.514708 97.915466,41.514708 z M 88.419514,42.801322 C 86.715112,44.087936 88.419514,45.803420 89.880430,45.160114 C 91.097860,44.516808 90.854373,42.158015 88.419514,42.801322 z M 91.341346,42.586886 C 91.341346,42.586886 91.341346,43.015757 91.341346,43.015757 C 91.341346,43.015757 93.045747,43.015757 93.045747,43.015757 C 93.045747,43.015757 91.341346,45.374550 91.341346,45.374550 C 91.341346,45.374550 93.776205,45.374550 93.776205,45.374550 C 93.776205,45.374550 93.776205,44.945678 93.776205,44.945678 C 93.776205,44.945678 92.071803,44.945678 92.071803,44.945678 C 92.071803,44.945678 93.776205,42.586886 93.776205,42.586886 C 93.776205,42.586886 91.341346,42.586886 91.341346,42.586886 z M 94.506663,42.586886 C 94.506663,42.586886 94.506663,45.374550 94.506663,45.374550 C 94.506663,45.374550 94.993635,45.374550 94.993635,45.374550 C 94.993635,45.374550 94.993635,42.586886 94.993635,42.586886 C 94.993635,42.586886 94.506663,42.586886 94.506663,42.586886 z M 99.863352,43.230194 C 100.83729,43.015757 101.08078,43.015757 101.81124,43.659064 C 101.32426,43.659064 100.59381,43.659064 100.10683,43.873501 C 99.132896,44.516808 100.10683,46.017857 101.56775,44.945678 C 101.56775,44.945678 102.29821,45.374550 102.29821,45.374550 C 102.29821,44.945678 102.29821,43.659064 102.05472,43.230194 C 101.56775,42.372451 100.35032,42.372451 99.863352,43.230194 z M 88.906486,43.230194 C 90.367402,43.230194 90.123915,44.516808 89.393458,44.731243 C 88.663000,44.945678 87.689056,43.873501 88.906486,43.230194 z M 101.81124,44.087936 C 101.32426,44.945678 101.08078,44.945678 100.10683,44.731243 C 100.10683,44.731243 100.10683,44.302371 100.10683,44.302371 C 100.10683,44.302371 101.81124,44.087936 101.81124,44.087936 z "
     style="fill:#000000;fill-opacity:1.0000000;stroke:#000000;stroke-width:0.22849961" />
  <path
     id="path883"
     d="M 108.25847,41.509778 C 108.25847,41.509778 109.09668,43.562856 109.09668,43.562856 C 109.09668,43.562856 108.04891,45.615935 108.04891,45.615935 C 108.88713,45.387815 109.09668,44.931576 109.30623,44.019096 C 109.30623,44.019096 109.72534,44.019096 109.72534,44.019096 C 110.14445,44.931576 110.14445,45.159696 110.98266,45.615935 C 110.98266,45.615935 110.14445,43.334737 110.14445,43.334737 C 110.14445,43.334737 110.98266,41.509778 110.98266,41.509778 C 110.14445,41.737897 110.14445,41.966017 109.72534,42.878496 C 109.72534,42.878496 108.25847,41.509778 108.25847,41.509778 z M 111.82088,41.737897 C 111.82088,41.737897 111.40177,42.878496 111.40177,42.878496 C 112.23998,44.703456 111.40177,45.387815 113.28775,45.615935 C 113.28775,45.615935 113.28775,45.159696 113.28775,45.159696 C 112.23998,44.703456 112.23998,44.247215 112.23998,43.106617 C 112.23998,43.106617 113.28775,43.106617 113.28775,43.106617 C 113.28775,43.106617 113.28775,42.650377 113.28775,42.650377 C 113.28775,42.650377 112.23998,42.650377 112.23998,42.650377 C 112.23998,42.650377 112.23998,41.737897 112.23998,41.737897 C 112.23998,41.737897 111.82088,41.737897 111.82088,41.737897 z M 116.01194,44.931576 C 114.96418,45.159696 114.75463,45.159696 113.91640,44.247215 C 113.91640,44.247215 116.01194,44.247215 116.01194,44.247215 C 115.59284,41.966017 113.91640,42.650377 113.49730,43.790977 C 113.28775,45.387815 115.17373,46.300295 116.01194,44.931576 z M 116.85015,42.650377 C 116.85015,42.650377 116.85015,45.615935 116.85015,45.615935 C 116.85015,45.615935 117.26926,45.615935 117.26926,45.615935 C 117.26926,44.247215 117.26926,43.562856 118.52659,43.106617 C 118.52659,43.106617 118.52659,42.650377 118.52659,42.650377 C 118.52659,42.650377 117.47881,43.106617 117.47881,43.106617 C 117.47881,43.106617 116.85015,42.650377 116.85015,42.650377 z M 118.94569,42.650377 C 118.94569,42.650377 118.94569,45.615935 118.94569,45.615935 C 118.94569,45.615935 119.36480,45.615935 119.36480,45.615935 C 119.36480,45.159696 119.36480,42.650377 120.41256,43.562856 C 120.83167,43.790977 120.83167,45.159696 120.83167,45.615935 C 120.83167,45.615935 121.25077,45.615935 121.25077,45.615935 C 121.25077,45.159696 121.25077,42.878496 122.08899,43.562856 C 122.50810,43.790977 122.50810,45.159696 122.50810,45.615935 C 122.50810,45.615935 123.13676,45.615935 123.13676,45.615935 C 123.13676,44.931576 123.13676,43.790977 122.92721,43.106617 C 122.50810,42.650377 120.62212,42.650377 119.99346,42.878496 C 119.78390,42.878496 119.78390,43.106617 119.57435,43.106617 C 119.57435,43.106617 118.94569,42.650377 118.94569,42.650377 z M 115.59284,43.790977 C 115.59284,43.790977 113.91640,43.790977 113.91640,43.790977 C 114.54507,43.106617 114.96418,42.878496 115.59284,43.790977 z "
     style="fill:#000000;fill-opacity:1.0000000;stroke:#000000;stroke-width:0.21863964" />
  <path
     id="path899"
     d="M 60.137122,53.985185 C 61.046009,55.879482 61.500453,55.458527 61.500453,57.773779 C 61.500453,57.773779 61.954892,57.773779 61.954892,57.773779 C 61.954892,55.458527 62.409341,55.879482 63.318230,53.985185 C 62.409341,54.406140 62.409341,54.616617 61.954892,55.458527 C 61.273230,54.827095 61.046009,54.195662 60.137122,53.985185 z M 84.449851,53.985185 C 84.449851,53.985185 84.449851,57.773779 84.449851,57.773779 C 84.449851,57.773779 84.904291,57.773779 84.904291,57.773779 C 84.904291,57.773779 84.904291,53.985185 84.904291,53.985185 C 84.904291,53.985185 84.449851,53.985185 84.449851,53.985185 z M 93.993163,54.195662 C 93.993163,54.195662 93.538723,55.248049 93.538723,55.248049 C 94.447602,56.931869 93.538723,57.563301 95.583721,57.773779 C 95.583721,57.773779 95.583721,57.352824 95.583721,57.352824 C 94.447602,56.931869 94.447602,56.510915 94.447602,55.458527 C 94.447602,55.458527 95.583721,55.458527 95.583721,55.458527 C 95.583721,55.458527 95.583721,55.037572 95.583721,55.037572 C 95.583721,55.037572 94.447602,55.037572 94.447602,55.037572 C 94.447602,55.037572 94.447602,54.195662 94.447602,54.195662 C 94.447602,54.195662 93.993163,54.195662 93.993163,54.195662 z M 63.772670,55.248049 C 62.182121,56.510915 63.772670,58.194733 65.135999,57.563301 C 66.272108,56.931869 66.044888,54.616617 63.772670,55.248049 z M 66.726557,55.037572 C 66.726557,56.089960 66.499328,58.615688 68.544326,57.352824 C 68.544326,57.352824 69.225995,57.773779 69.225995,57.773779 C 69.225995,57.773779 69.225995,55.037572 69.225995,55.037572 C 69.225995,55.037572 68.771546,55.037572 68.771546,55.037572 C 68.771546,55.458527 68.771546,57.773779 67.635437,56.931869 C 67.180997,56.721391 67.180997,55.458527 67.180997,55.037572 C 67.180997,55.037572 66.726557,55.037572 66.726557,55.037572 z M 70.134884,55.037572 C 70.134884,55.037572 70.134884,57.773779 70.134884,57.773779 C 70.134884,57.773779 70.589324,57.773779 70.589324,57.773779 C 70.589324,56.510915 70.589324,55.879482 71.952653,55.458527 C 71.952653,55.458527 71.952653,55.037572 71.952653,55.037572 C 71.952653,55.037572 70.816544,55.458527 70.816544,55.458527 C 70.816544,55.458527 70.134884,55.037572 70.134884,55.037572 z M 74.452090,55.669004 C 75.360979,55.458527 75.588199,55.458527 76.269869,56.089960 C 75.815419,56.089960 75.133760,56.089960 74.679310,56.300437 C 73.770431,56.931869 74.679310,58.405210 76.042649,57.352824 C 76.042649,57.352824 76.724308,57.773779 76.724308,57.773779 C 76.724308,57.352824 76.724308,56.089960 76.497088,55.669004 C 76.042649,54.827095 74.906540,54.827095 74.452090,55.669004 z M 77.633197,55.037572 C 77.633197,55.037572 77.633197,58.826166 77.633197,58.826166 C 77.633197,58.826166 78.087637,58.826166 78.087637,58.826166 C 78.087637,58.826166 78.087637,57.352824 78.087637,57.352824 C 78.314867,57.563301 78.542086,57.563301 78.996526,57.773779 C 81.041524,57.773779 80.359855,53.985185 78.314867,55.458527 C 78.314867,55.458527 77.633197,55.037572 77.633197,55.037572 z M 81.041524,55.037572 C 81.041524,55.037572 81.041524,58.826166 81.041524,58.826166 C 81.041524,58.826166 81.495964,58.826166 81.495964,58.826166 C 81.495964,58.826166 81.495964,57.352824 81.495964,57.352824 C 81.723193,57.563301 81.950413,57.563301 82.404853,57.773779 C 84.449851,57.773779 83.768182,53.985185 81.723193,55.458527 C 81.723193,55.458527 81.041524,55.037572 81.041524,55.037572 z M 86.040400,55.037572 C 86.040400,55.037572 86.040400,57.773779 86.040400,57.773779 C 86.040400,57.773779 86.494849,57.773779 86.494849,57.773779 C 86.494849,57.773779 86.494849,55.037572 86.494849,55.037572 C 86.494849,55.037572 86.040400,55.037572 86.040400,55.037572 z M 89.675956,57.773779 C 89.675956,57.773779 89.675956,57.352824 89.675956,57.352824 C 87.630958,57.142346 87.630958,55.669004 89.675956,55.458527 C 89.675956,55.458527 89.675956,55.037572 89.675956,55.037572 C 88.994287,55.037572 88.539838,55.037572 87.858178,55.458527 C 87.176509,55.879482 87.403729,57.142346 88.085398,57.563301 C 88.539838,57.773779 89.221507,57.773779 89.675956,57.773779 z M 90.812056,55.669004 C 91.720945,55.458527 91.948165,55.458527 92.629834,56.089960 C 92.175394,56.089960 91.493725,56.089960 91.039285,56.300437 C 90.130396,56.931869 91.039285,58.405210 92.402614,57.352824 C 92.402614,57.352824 93.084274,57.773779 93.084274,57.773779 C 93.084274,57.352824 93.084274,56.089960 92.857054,55.669004 C 92.402614,54.827095 91.266505,54.827095 90.812056,55.669004 z M 96.038161,55.037572 C 96.038161,55.037572 96.038161,57.773779 96.038161,57.773779 C 96.038161,57.773779 96.492610,57.773779 96.492610,57.773779 C 96.492610,57.773779 96.492610,55.037572 96.492610,55.037572 C 96.492610,55.037572 96.038161,55.037572 96.038161,55.037572 z M 98.083156,55.248049 C 96.492610,56.510915 98.083156,58.194733 99.446484,57.563301 C 100.58259,56.931869 100.35537,54.616617 98.083156,55.248049 z M 101.03704,55.037572 C 101.03704,55.037572 101.03704,57.773779 101.03704,57.773779 C 101.03704,57.773779 101.49148,57.773779 101.49148,57.773779 C 101.49148,57.352824 101.49148,55.037572 102.62759,55.879482 C 103.08203,56.089960 103.08203,57.352824 103.08203,57.773779 C 103.08203,57.773779 103.53647,57.773779 103.53647,57.773779 C 103.53647,56.721391 103.76370,54.195662 101.71870,55.458527 C 101.71870,55.458527 101.03704,55.037572 101.03704,55.037572 z M 64.227110,55.669004 C 65.590448,55.669004 65.363219,56.931869 64.681559,57.142346 C 63.999890,57.352824 63.091001,56.300437 64.227110,55.669004 z M 78.769306,55.669004 C 80.132635,55.669004 79.905415,56.931869 79.223746,57.142346 C 78.542086,57.352824 77.633197,56.300437 78.769306,55.669004 z M 82.177633,55.669004 C 83.540962,55.669004 83.313742,56.931869 82.632073,57.142346 C 81.950413,57.352824 81.041524,56.300437 82.177633,55.669004 z M 98.537596,55.669004 C 99.900922,55.669004 99.673702,56.931869 98.992035,57.142346 C 98.310376,57.352824 97.401487,56.300437 98.537596,55.669004 z M 76.269869,56.510915 C 75.815419,57.352824 75.588199,57.352824 74.679310,57.142346 C 74.679310,57.142346 74.679310,56.721391 74.679310,56.721391 C 74.679310,56.721391 76.269869,56.510915 76.269869,56.510915 z M 92.629834,56.510915 C 92.175394,57.352824 91.948165,57.352824 91.039285,57.142346 C 91.039285,57.142346 91.039285,56.721391 91.039285,56.721391 C 91.039285,56.721391 92.629834,56.510915 92.629834,56.510915 z "
     style="fill:#000000;fill-opacity:1.0000000;stroke:#000000;stroke-width:0.21868941" />
  <path
     id="path884"
     d="M 34.493288,53.990091 C 34.493288,53.990091 34.493288,57.849933 34.493288,57.849933 C 34.493288,57.849933 34.980261,57.849933 34.980261,57.849933 C 34.980261,57.849933 34.980261,54.847835 34.980261,54.847835 C 34.980261,54.847835 36.197690,57.206626 36.197690,57.206626 C 36.197690,57.206626 36.684663,57.206626 36.684663,57.206626 C 36.684663,57.206626 37.658606,54.847835 37.658606,54.847835 C 37.658606,54.847835 37.902092,57.849933 37.902092,57.849933 C 37.902092,57.849933 38.389065,57.849933 38.389065,57.849933 C 38.389065,57.849933 38.389065,53.990091 38.389065,53.990091 C 38.389065,53.990091 37.415120,53.990091 37.415120,53.990091 C 37.415120,53.990091 36.441176,56.348884 36.441176,56.348884 C 36.441176,56.348884 35.467233,53.990091 35.467233,53.990091 C 35.467233,53.990091 34.493288,53.990091 34.493288,53.990091 z M 47.641530,53.990091 C 47.641530,53.990091 47.641530,57.849933 47.641530,57.849933 C 47.641530,57.849933 48.128503,57.849933 48.128503,57.849933 C 48.128503,57.849933 48.128503,53.990091 48.128503,53.990091 C 48.128503,53.990091 47.641530,53.990091 47.641530,53.990091 z M 49.345932,53.990091 C 49.345932,53.990091 49.345932,57.849933 49.345932,57.849933 C 49.345932,57.849933 49.832904,57.849933 49.832904,57.849933 C 49.832904,57.849933 49.832904,53.990091 49.832904,53.990091 C 49.832904,53.990091 49.345932,53.990091 49.345932,53.990091 z M 39.849980,55.276705 C 38.145578,56.563319 39.849980,58.278804 41.310895,57.635497 C 42.528326,56.992191 42.284839,54.633398 39.849980,55.276705 z M 42.771812,55.062269 C 42.771812,55.062269 42.771812,55.491141 42.771812,55.491141 C 42.771812,55.491141 44.476213,55.491141 44.476213,55.491141 C 44.476213,55.491141 42.771812,57.849933 42.771812,57.849933 C 42.771812,57.849933 45.206671,57.849933 45.206671,57.849933 C 45.206671,57.849933 45.206671,57.421061 45.206671,57.421061 C 45.206671,57.421061 43.502269,57.421061 43.502269,57.421061 C 43.502269,57.421061 45.206671,55.062269 45.206671,55.062269 C 45.206671,55.062269 42.771812,55.062269 42.771812,55.062269 z M 45.937129,55.062269 C 45.937129,55.062269 45.937129,57.849933 45.937129,57.849933 C 45.937129,57.849933 46.424100,57.849933 46.424100,57.849933 C 46.424100,57.849933 46.424100,55.062269 46.424100,55.062269 C 46.424100,55.062269 45.937129,55.062269 45.937129,55.062269 z M 51.293820,55.705577 C 52.267763,55.491141 52.511249,55.491141 53.241708,56.134447 C 52.754734,56.134447 52.024278,56.134447 51.537306,56.348884 C 50.563362,56.992191 51.537306,58.493240 52.998221,57.421061 C 52.998221,57.421061 53.728680,57.849933 53.728680,57.849933 C 53.728680,57.421061 53.728680,56.134447 53.485194,55.705577 C 52.998221,54.847835 51.780792,54.847835 51.293820,55.705577 z M 40.336951,55.705577 C 41.797868,55.705577 41.554381,56.992191 40.823924,57.206626 C 40.093466,57.421061 39.119522,56.348884 40.336951,55.705577 z M 53.241708,56.563319 C 52.754734,57.421061 52.511249,57.421061 51.537306,57.206626 C 51.537306,57.206626 51.537306,56.777754 51.537306,56.777754 C 51.537306,56.777754 53.241708,56.563319 53.241708,56.563319 z "
     style="fill:#000000;fill-opacity:1.0000000;stroke:#000000;stroke-width:0.22849961" />
  <path
     style="fill:url(#linearGradient2856);fill-opacity:1.0000000;fill-rule:evenodd;stroke:none;stroke-width:0.25000000pt;stroke-linecap:butt;stroke-linejoin:miter;stroke-opacity:1.0000000"
     d="M 27.664297,18.841245 C 27.664297,18.841245 34.298067,3.0860405 46.321776,14.073223 C 38.444173,12.622085 36.163815,11.792864 27.664297,18.841245 z "
     id="path1700"
     sodipodi:nodetypes="ccc" />
  <path
     style="font-size:12.000000;fill:url(#linearGradient3634);fill-opacity:1.0000000;fill-rule:evenodd;stroke:none;stroke-width:3.5011077"
     d="M 45.813856,125.07763 L 42.452983,120.76530 L 42.452983,120.76530 L 34.567334,134.54035 L 45.813856,125.07763 z "
     id="path2947"
     sodipodi:nodetypes="ccccc" />
  <rect
     style="fill:#ffffff;fill-opacity:1.0000000;stroke:none;stroke-width:1.2303725;stroke-linecap:round;stroke-miterlimit:4.0000000;stroke-opacity:1.0000000"
     id="rect5860"
     width="6.7707620"
     height="5.2283468"
     x="40.156998"
     y="23.738472" />
  <rect
     style="fill:#ffffff;fill-opacity:1.0000000;stroke:none;stroke-width:1.2303725;stroke-linecap:round;stroke-miterlimit:4.0000000;stroke-opacity:1.0000000"
     id="rect6620"
     width="6.7707620"
     height="5.2283468"
     x="61.209011"
     y="23.738472" />
  <rect
     style="fill:#ffffff;fill-opacity:1.0000000;stroke:none;stroke-width:1.2303725;stroke-linecap:round;stroke-miterlimit:4.0000000;stroke-opacity:1.0000000"
     id="rect6622"
     width="6.7707620"
     height="5.2283468"
     x="82.942955"
     y="23.738472" />
  <rect
     style="fill:#ffffff;fill-opacity:1.0000000;stroke:none;stroke-width:1.2303725;stroke-linecap:round;stroke-miterlimit:4.0000000;stroke-opacity:1.0000000"
     id="rect6624"
     width="6.7707620"
     height="5.2283468"
     x="104.30154"
     y="23.738472" />
  <path
     style="fill:url(#linearGradient2860);fill-opacity:1.0000000;fill-rule:evenodd;stroke:none;stroke-width:0.25000000pt;stroke-linecap:butt;stroke-linejoin:miter;stroke-opacity:1.0000000"
     d="M 48.668481,18.841245 C 48.668481,18.841245 55.302251,3.0860405 67.325960,14.073223 C 59.448357,12.622085 57.167999,11.792864 48.668481,18.841245 z "
     id="path2858"
     sodipodi:nodetypes="ccc" />
  <path
     style="fill:url(#linearGradient2864);fill-opacity:1.0000000;fill-rule:evenodd;stroke:none;stroke-width:0.25000000pt;stroke-linecap:butt;stroke-linejoin:miter;stroke-opacity:1.0000000"
     d="M 69.672665,18.841245 C 69.672665,18.841245 76.306435,3.0860405 88.330144,14.073223 C 80.452541,12.622085 78.172183,11.792864 69.672665,18.841245 z "
     id="path2862"
     sodipodi:nodetypes="ccc" />
  <path
     style="fill:url(#linearGradient2868);fill-opacity:1.0000000;fill-rule:evenodd;stroke:none;stroke-width:0.25000000pt;stroke-linecap:butt;stroke-linejoin:miter;stroke-opacity:1.0000000"
     d="M 91.003202,18.841245 C 91.003202,18.841245 97.636972,3.0860405 109.66067,14.073223 C 101.78308,12.622085 99.502724,11.792864 91.003202,18.841245 z "
     id="path2866"
     sodipodi:nodetypes="ccc" />
  <path
     style="font-size:12.000000;fill:none;fill-rule:evenodd;stroke:#000000;stroke-width:5.8898816;stroke-linecap:round"
     d="M 118.39844,32.976167 C 108.80479,29.489479 112.00276,12.056044 121.59625,12.056044 C 127.99193,12.056044 131.18982,19.029416 127.99193,22.516104"
     id="path3636"
     sodipodi:nodetypes="ccc" />
  <rect
     style="fill:#ffffff;fill-opacity:1.0000000;stroke:none;stroke-width:1.2303725;stroke-linecap:round;stroke-miterlimit:4.0000000;stroke-opacity:1.0000000"
     id="rect3638"
     width="6.7707620"
     height="5.2283468"
     x="125.30572"
     y="23.738472" />
  <path
     style="fill:url(#linearGradient3642);fill-opacity:1.0000000;fill-rule:evenodd;stroke:none;stroke-width:0.25000000pt;stroke-linecap:butt;stroke-linejoin:miter;stroke-opacity:1.0000000"
     d="M 111.00319,18.841245 C 111.00319,18.841245 117.63696,3.0860405 129.66067,14.073223 C 121.78307,12.622085 119.50271,11.792864 111.00319,18.841245 z "
     id="path3640"
     sodipodi:nodetypes="ccc" />
</svg>
