<?xml version="1.0" encoding="UTF-8" standalone="no"?>
<!-- Created with Sodipodi ("http://www.sodipodi.com/") -->

<svg
   xmlns:dc="http://purl.org/dc/elements/1.1/"
   xmlns:cc="http://creativecommons.org/ns#"
   xmlns:rdf="http://www.w3.org/1999/02/22-rdf-syntax-ns#"
   xmlns:svg="http://www.w3.org/2000/svg"
   xmlns="http://www.w3.org/2000/svg"
   xmlns:xlink="http://www.w3.org/1999/xlink"
   xmlns:sodipodi="http://sodipodi.sourceforge.net/DTD/sodipodi-0.dtd"
   xmlns:inkscape="http://www.inkscape.org/namespaces/inkscape"
   id="svg559"
   sodipodi:version="0.32"
   width="128pt"
   height="128pt"
   sodipodi:docname="emblem-nfs.svg"
   inkscape:version="0.48.4 r9939"
   version="1.1">
  <defs
     id="defs561">
    <linearGradient
       id="linearGradient3604"
       inkscape:collect="always">
      <stop
         id="stop3606"
         offset="0"
         style="stop-color:#ffffff;stop-opacity:1;" />
      <stop
         id="stop3608"
         offset="1"
         style="stop-color:#ffffff;stop-opacity:0;" />
    </linearGradient>
    <linearGradient
       gradientUnits="userSpaceOnUse"
       y2="134.59288"
       x2="95.575752"
       y1="47.474380"
       x1="21.389479"
       gradientTransform="matrix(1.120256,0.000000,0.000000,0.892653,-1.409934,-20.69000)"
       id="linearGradient3610"
       xlink:href="#linearGradient3604"
       inkscape:collect="always" />
    <linearGradient
       id="linearGradient872">
      <stop
         style="stop-color:#ffffff;stop-opacity:1.0000000;"
         offset="0.0000000"
         id="stop873" />
      <stop
         style="stop-color:#9f9f9f;stop-opacity:1.0000000;"
         offset="0.50000000"
         id="stop879" />
      <stop
         style="stop-color:#3f3f3f;stop-opacity:1.0000000;"
         offset="1.0000000"
         id="stop875" />
    </linearGradient>
    <linearGradient
       id="linearGradient866">
      <stop
         style="stop-color:#ffffff;stop-opacity:1.0000000;"
         offset="0.0000000"
         id="stop867" />
      <stop
         style="stop-color:#bfbeb9;stop-opacity:1.0000000;"
         offset="0.21029197"
         id="stop870" />
      <stop
         style="stop-color:#7f7d73;stop-opacity:1.0000000;"
         offset="1.0000000"
         id="stop869" />
    </linearGradient>
    <linearGradient
       id="linearGradient566">
      <stop
         style="stop-color:#ffffff;stop-opacity:1.0000000;"
         offset="0.0000000"
         id="stop567" />
      <stop
         style="stop-color:#bfbfbf;stop-opacity:1.0000000;"
         offset="0.24229629"
         id="stop853" />
      <stop
         style="stop-color:#7f7f7f;stop-opacity:1.0000000;"
         offset="1.0000000"
         id="stop568" />
    </linearGradient>
    <linearGradient
       gradientUnits="userSpaceOnUse"
       gradientTransform="scale(1.112724,0.898695)"
       xlink:href="#linearGradient566"
       id="linearGradient569"
       x1="114.37098"
       y1="133.93361"
       x2="41.230580"
       y2="10.028411" />
    <linearGradient
       xlink:href="#linearGradient866"
       id="linearGradient589"
       x1="64.476504"
       y1="13.678895"
       x2="64.573074"
       y2="86.989457"
       spreadMethod="pad"
       gradientTransform="matrix(1.1149125,0,0,0.8969314,1.2105347,-0.86120564)"
       gradientUnits="userSpaceOnUse" />
    <linearGradient
       xlink:href="#linearGradient872"
       id="linearGradient871"
       x1="0.49481866"
       y1="0.72897196"
       x2="0.49481866"
       y2="0.97196263"
       spreadMethod="reflect" />
    <linearGradient
       spreadMethod="reflect"
       y2="0.97196263"
       x2="0.49481866"
       y1="0.72897196"
       x1="0.49481866"
       id="linearGradient1386"
       xlink:href="#linearGradient872" />
    <linearGradient
       spreadMethod="pad"
       y2="0.57812500"
       x2="0.44374999"
       y1="0.012698413"
       x1="0.44300517"
       id="linearGradient1384"
       xlink:href="#linearGradient866" />
    <linearGradient
       y2="-7.812555e-3"
       x2="0.265193"
       y1="0.937499"
       x1="0.823204"
       id="linearGradient1382"
       xlink:href="#linearGradient566" />
    <linearGradient
       id="linearGradient1374">
      <stop
         id="stop1376"
         offset="0.0000000"
         style="stop-color:#ffffff;stop-opacity:1.0000000;" />
      <stop
         id="stop1378"
         offset="0.24229629"
         style="stop-color:#bfbfbf;stop-opacity:1.0000000;" />
      <stop
         id="stop1380"
         offset="1.0000000"
         style="stop-color:#7f7f7f;stop-opacity:1.0000000;" />
    </linearGradient>
    <linearGradient
       id="linearGradient1366">
      <stop
         id="stop1368"
         offset="0.0000000"
         style="stop-color:#ffffff;stop-opacity:1.0000000;" />
      <stop
         id="stop1370"
         offset="0.21029197"
         style="stop-color:#bfbeb9;stop-opacity:1.0000000;" />
      <stop
         id="stop1372"
         offset="1.0000000"
         style="stop-color:#7f7d73;stop-opacity:1.0000000;" />
    </linearGradient>
    <linearGradient
       id="linearGradient1358">
      <stop
         id="stop1360"
         offset="0.0000000"
         style="stop-color:#ffffff;stop-opacity:1.0000000;" />
      <stop
         id="stop1362"
         offset="0.50000000"
         style="stop-color:#9f9f9f;stop-opacity:1.0000000;" />
      <stop
         id="stop1364"
         offset="1.0000000"
         style="stop-color:#3f3f3f;stop-opacity:1.0000000;" />
    </linearGradient>
    <linearGradient
       gradientUnits="userSpaceOnUse"
       gradientTransform="scale(1.906299,0.524577)"
       y2="289.43639"
       x2="42.037541"
       y1="266.85476"
       x1="42.037541"
       spreadMethod="reflect"
       id="linearGradient1413"
       xlink:href="#linearGradient872"
       inkscape:collect="always" />
    <linearGradient
       gradientUnits="userSpaceOnUse"
       gradientTransform="scale(1.113753,0.897865)"
       y2="87.007741"
       x2="64.577178"
       y1="12.986251"
       x1="64.479671"
       spreadMethod="pad"
       id="linearGradient1415"
       xlink:href="#linearGradient866"
       inkscape:collect="always" />
    <linearGradient
       y2="87.007741"
       x2="64.577178"
       y1="12.986251"
       x1="64.479671"
       spreadMethod="pad"
       gradientTransform="matrix(1.113753,0.000000,0.000000,0.897865,-175.0540,3.347710)"
       gradientUnits="userSpaceOnUse"
       id="linearGradient1424"
       xlink:href="#linearGradient866"
       inkscape:collect="always" />
    <linearGradient
       y2="10.028411"
       x2="41.230580"
       y1="133.93361"
       x1="114.37098"
       gradientTransform="matrix(1.112724,0.000000,0.000000,0.898695,-175.0540,3.347710)"
       gradientUnits="userSpaceOnUse"
       id="linearGradient1430"
       xlink:href="#linearGradient566"
       inkscape:collect="always" />
    <linearGradient
       y2="289.43639"
       x2="42.037541"
       y1="266.85476"
       x1="42.037541"
       spreadMethod="reflect"
       gradientTransform="matrix(1.906299,0.000000,0.000000,0.524577,-175.0540,3.347710)"
       gradientUnits="userSpaceOnUse"
       id="linearGradient1437"
       xlink:href="#linearGradient872"
       inkscape:collect="always" />
  </defs>
  <sodipodi:namedview
     id="base"
     showgrid="true"
     snaptogrid="false"
     inkscape:zoom="2.95"
     inkscape:cx="14.40678"
     inkscape:cy="80.169492"
     inkscape:window-width="782"
     inkscape:window-height="800"
     inkscape:window-x="133"
     inkscape:window-y="42"
     inkscape:current-layer="svg559"
     inkscape:window-maximized="0">
    <inkscape:grid
       id="GridFromPre046Settings"
       type="xygrid"
       originx="0px"
       originy="0px"
       spacingx="1.0000000mm"
       spacingy="1.0000000mm"
       color="#3f3fff"
       empcolor="#3f3fff"
       opacity="0.15"
       empopacity="0.38"
       empspacing="5" />
  </sodipodi:namedview>
  <path
     style="font-size:12.000;fill:#000002;fill-rule:evenodd;stroke:none;stroke-width:3.8000;stroke-linecap:round;stroke-linejoin:round;fill-opacity:0.2011;stroke-dasharray:none;"
     d="M 15.861841,69.484931 L 63.213311,16.284581"
     id="path607"
     sodipodi:nodetypes="cc" />
  <path
     style="font-size:12.000;fill:#000002;fill-rule:evenodd;stroke:none;stroke-width:3.8000;stroke-linecap:round;stroke-linejoin:round;fill-opacity:0.2011;stroke-dasharray:none;"
     d="M 110.56467,16.284581 L 157.91617,69.484931"
     id="path608"
     sodipodi:nodetypes="cc" />
  <path
     style="font-size:12.000;fill:#000002;fill-rule:evenodd;stroke:none;stroke-width:3.8000;stroke-linecap:round;stroke-linejoin:round;fill-opacity:0.2011;stroke-dasharray:none;"
     d="M 15.861841,69.484931 L 63.213311,16.284581"
     id="path613"
     sodipodi:nodetypes="cc" />
  <path
     style="font-size:12.000;fill:#000002;fill-rule:evenodd;stroke:none;stroke-width:3.8000;stroke-linecap:round;stroke-linejoin:round;fill-opacity:0.2011;stroke-dasharray:none;"
     d="M 110.56467,16.284581 L 157.91617,69.484931"
     id="path614"
     sodipodi:nodetypes="cc" />
  <metadata
     id="metadata37">
    <rdf:RDF>
      <cc:Work
         rdf:about="">
        <dc:format>image/svg+xml</dc:format>
        <dc:type
           rdf:resource="http://purl.org/dc/dcmitype/StillImage" />
      </cc:Work>
    </rdf:RDF>
  </metadata>
  <rect
     rx="10.5755"
     y="20.402504"
     x="12.787889"
     ry="13.848405"
     height="87.881119"
     width="136.03101"
     id="rect853"
     style="fill:#05e711;fill-rule:evenodd;stroke:#000000;stroke-width:5.67983007000000040;fill-opacity:1" />
  <path
     id="path874"
     d="m 135.77975,39.10485 0,8.616821 -21.11602,0 c -1.34225,0 -2.55356,0.514437 -3.63391,1.543312 -0.91666,1.071748 -1.375,2.550756 -1.375,4.43702 0,2.057747 0.50744,3.601059 1.52232,4.629935 0.88393,0.900264 2.09523,1.350397 3.63391,1.350397 l 11.8839,0 c 2.65178,0 5.04166,0.986014 7.16963,2.958012 2.68452,2.615061 4.02676,6.537644 4.02676,11.767749 0,4.972903 -1.34224,8.87404 -4.02676,11.703446 -2.09524,2.014889 -4.48511,3.022316 -7.16963,3.022316 l -25.2901,0 0,-8.552517 21.60707,0 c 1.24405,0 2.38988,-0.57874 3.43749,-1.736224 1.04762,-1.157484 1.57143,-2.63649 1.57143,-4.437021 0,-1.843389 -0.52381,-3.322395 -1.57143,-4.43702 -0.98214,-1.157483 -2.17706,-1.736225 -3.58481,-1.736225 l -11.98211,0 c -2.65177,0 -5.0089,-0.96457 -7.07139,-2.893709 -2.68452,-2.615044 -4.026777,-6.494768 -4.026777,-11.639139 0,-5.14437 1.342257,-9.02408 4.026777,-11.63914 1.99703,-1.971999 4.35415,-2.958013 7.07139,-2.958013 l 24.89726,0 z m -39.923988,8.616821 -12.276751,0 c -1.898806,0 -3.421122,0.278665 -4.566952,0.835962 -0.556546,0.214358 -1.047616,0.471577 -1.47321,0.771655 -0.425594,0.300092 -0.834819,0.728795 -1.227675,1.286092 -1.080354,1.286093 -1.866067,2.87228 -2.357136,4.758543 l -0.294641,1.543312 -0.09821,1.736226 0,1.350396 22.294581,0 0,8.230994 -22.294581,0 0,20.899007 -8.249976,0 0,-25.014504 c 0,-2.186358 0.04911,-4.094052 0.14732,-5.723113 0.09821,-1.67192 0.2619,-3.12948 0.49107,-4.372715 0.687499,-4.115497 2.127967,-7.480768 4.321417,-10.095827 1.374997,-1.671922 3.044634,-2.89371 5.008913,-3.665366 1.964281,-0.771655 4.45237,-1.157483 7.464265,-1.157483 l 13.111572,0 0,8.616821 z m -62.660538,41.412187 -8.249977,0 0,-50.029008 10.410685,0 15.665135,36.653643 0.196428,0 0,-36.653643 8.249977,0 0,50.029008 -10.410686,0 -15.665134,-36.589339 -0.196428,0 0,36.589339 z"
     style="font-size:40px;stroke-width:1pt;font-family:Trek"
     inkscape:connector-curvature="0" />
</svg>
