<?xml version="1.0" encoding="UTF-8" standalone="no"?>
<!DOCTYPE svg PUBLIC "-//W3C//DTD SVG 20010904//EN"
"http://www.w3.org/TR/2001/REC-SVG-20010904/DTD/svg10.dtd">
<!-- Created with Inkscape (http://www.inkscape.org/) -->
<svg
   sodipodi:docname="paste.svg"
   sodipodi:docbase="/home/francois"
   height="128.00000pt"
   width="128.00000pt"
   inkscape:version="0.40"
   sodipodi:version="0.32"
   id="svg1"
   xmlns="http://www.w3.org/2000/svg"
   xmlns:cc="http://web.resource.org/cc/"
   xmlns:inkscape="http://www.inkscape.org/namespaces/inkscape"
   xmlns:sodipodi="http://sodipodi.sourceforge.net/DTD/sodipodi-0.dtd"
   xmlns:rdf="http://www.w3.org/1999/02/22-rdf-syntax-ns#"
   xmlns:dc="http://purl.org/dc/elements/1.1/"
   xmlns:xlink="http://www.w3.org/1999/xlink">
  <metadata
     id="metadata37">
    <rdf:RDF
       id="RDF39">
      <cc:Work
         id="Work41"
         rdf:about="">
        <dc:format
           id="format43">image/svg+xml</dc:format>
        <dc:type
           rdf:resource="http://purl.org/dc/dcmitype/StillImage"
           id="type45" />
      </cc:Work>
    </rdf:RDF>
  </metadata>
  <defs
     id="defs3">
    <linearGradient
       id="linearGradient828">
      <stop
         id="stop829"
         offset="0"
         style="stop-color:#000;stop-opacity:1;" />
      <stop
         id="stop830"
         offset="1"
         style="stop-color:#fff;stop-opacity:1;" />
    </linearGradient>
    <linearGradient
       gradientUnits="userSpaceOnUse"
       gradientTransform="matrix(1.541928,0.000000,0.000000,0.561212,4.039973,6.786943)"
       y2="31.373242"
       x2="39.968490"
       y1="60.120761"
       x1="40.682816"
       id="linearGradient831"
       xlink:href="#linearGradient828" />
    <linearGradient
       id="linearGradient832"
       xlink:href="#linearGradient828" />
  </defs>
  <sodipodi:namedview
     inkscape:current-layer="svg1"
     inkscape:window-y="60"
     inkscape:window-x="20"
     gridspacingy="1.0000000mm"
     gridspacingx="1.0000000mm"
     snaptogrid="false"
     showgrid="true"
     inkscape:window-height="1024"
     inkscape:window-width="1552"
     inkscape:cy="63.999983"
     inkscape:cx="64.000035"
     inkscape:zoom="0.58626334"
     inkscape:pageshadow="2"
     inkscape:pageopacity="0.0"
     borderopacity="1.0"
     bordercolor="#666666"
     pagecolor="#ffffff"
     id="base" />
  <rect
     rx="20.139711"
     y="44.829353"
     x="48.807907"
     ry="20.139711"
     height="107.86674"
     width="100.96260"
     id="rect858"
     style="fill-opacity:0.40000001;fill-rule:evenodd;stroke-width:4.8680182" />
  <rect
     rx="12.565603"
     ry="12.565602"
     y="11.222974"
     x="13.139993"
     height="125.85271"
     width="112.53283"
     id="rect854"
     style="fill-opacity:0.40000001;fill-rule:evenodd;stroke-width:6.0850229" />
  <rect
     rx="1.1445138"
     y="16.677387"
     x="66.023735"
     ry="1.1445138"
     height="18.956635"
     width="16.142796"
     id="rect855"
     style="fill:#000000;fill-opacity:0.40000001;fill-rule:evenodd;stroke:none;stroke-width:1.0029674pt" />
  <rect
     y="29.209173"
     x="50.108299"
     ry="0.0000000"
     height="16.062124"
     width="48.087357"
     id="rect856"
     style="fill:#000000;fill-opacity:0.40000001;fill-rule:evenodd;stroke:none;stroke-width:2.4340091" />
  <rect
     rx="8.5034266"
     y="13.695913"
     x="12.069911"
     ry="8.5034266"
     height="117.87612"
     width="108.29646"
     id="rect857"
     style="stroke-miterlimit:4.0000000;stroke-width:5.0711861;stroke:#000000;fill-rule:evenodd;fill-opacity:1.0000000;fill:#ada7c8" />
  <rect
     style="fill:#000000;fill-opacity:0.30175439;stroke:none;stroke-width:3.7500000;stroke-linejoin:miter;stroke-miterlimit:4.0000000;stroke-opacity:1.0000000"
     id="rect1708"
     width="92.720848"
     height="9.6113071"
     x="19.649588"
     y="119.16227" />
  <rect
     style="fill:#ffffff;fill-opacity:0.54736841;stroke:none;stroke-width:3.7500000;stroke-linejoin:miter;stroke-miterlimit:4.0000000;stroke-opacity:1.0000000;"
     id="rect1085"
     width="92.720848"
     height="9.6113071"
     x="19.649588"
     y="16.395756" />
  <path
     transform="matrix(0.904755,0.000000,0.000000,0.906618,-47.80653,-2.322157)"
     d="M 138.18898 25.354330 A 3.5433071 3.5433071 0 1 1  131.10237,25.354330 A 3.5433071 3.5433071 0 1 1  138.18898 25.354330 z"
     sodipodi:ry="3.5433071"
     sodipodi:rx="3.5433071"
     sodipodi:cy="25.354330"
     sodipodi:cx="134.64568"
     id="path857"
     style="fill:#000000;fill-opacity:0.40000001;fill-rule:evenodd;stroke:none;stroke-width:1.0000000pt"
     sodipodi:type="arc" />
  <path
     id="path859"
     d="M 62.819468,75.685806 L 140.13317,75.803363"
     style="fill:none;fill-opacity:1.0000000;fill-rule:evenodd;stroke:#000000;stroke-width:3.8033895;stroke-linecap:round;stroke-miterlimit:4.0000000;stroke-opacity:1.0000000" />
  <path
     id="path860"
     d="M 62.999518,85.608984 L 117.69240,85.440639"
     style="fill:#000000;fill-opacity:0.40000001;fill-rule:evenodd;stroke:none;stroke-width:2.4340091;stroke-linecap:round" />
  <path
     id="path861"
     d="M 63.179569,95.171320 L 127.30988,95.077913"
     style="fill:#000000;fill-opacity:0.40000001;fill-rule:evenodd;stroke:none;stroke-width:2.4340091;stroke-linecap:round" />
  <path
     id="path864"
     d="M 63.359619,124.21917 L 98.457453,123.98974"
     style="fill:#000000;fill-opacity:0.40000001;fill-rule:evenodd;stroke:none;stroke-width:2.4340091;stroke-linecap:round" />
  <path
     id="path865"
     d="M 64.145029,125.22339 L 128.09529,125.24931"
     style="fill:#000000;fill-opacity:0.40000001;fill-rule:evenodd;stroke:none;stroke-width:2.4340091;stroke-linecap:round" />
  <rect
     rx="1.1445138"
     y="8.8233013"
     x="58.169651"
     ry="1.1445138"
     height="18.956635"
     width="16.142796"
     id="rect826"
     style="fill-rule:evenodd;stroke:#000000;stroke-width:0.93300104pt" />
  <rect
     y="19.260668"
     x="42.254211"
     ry="0.0000000"
     height="16.062124"
     width="48.087357"
     id="rect827"
     style="fill:url(#linearGradient831);fill-rule:evenodd;stroke:#000000;stroke-width:2.2642143" />
  <path
     transform="matrix(0.904755,0.000000,0.000000,0.906618,-55.39880,-9.129032)"
     d="M 138.18898 25.354330 A 3.5433071 3.5433071 0 1 1  131.10237,25.354330 A 3.5433071 3.5433071 0 1 1  138.18898 25.354330 z"
     sodipodi:ry="3.5433071"
     sodipodi:rx="3.5433071"
     sodipodi:cy="25.354330"
     sodipodi:cx="134.64568"
     id="path833"
     style="fill:#ffffff;fill-opacity:1.0000000;fill-rule:evenodd;stroke:#000000;stroke-width:1.0000000pt"
     sodipodi:type="arc" />
  <rect
     rx="17.177746"
     y="47.821285"
     x="43.840401"
     ry="17.177746"
     height="99.629715"
     width="100.51948"
     id="rect849"
     style="fill:#ffffff;fill-rule:evenodd;stroke:#000000;stroke-width:5.0711861;stroke-miterlimit:4.0000000" />
  <path
     id="path895"
     d="M 65.830816,87.369207 L 115.73685,87.189287"
     style="fill:#000000;fill-opacity:0.40000001;fill-rule:evenodd;stroke:none;stroke-width:2.4340091;stroke-linecap:round" />
  <path
     id="path898"
     d="M 65.995114,118.22157 L 124.51256,118.08910"
     style="fill:#000000;fill-opacity:0.40000001;fill-rule:evenodd;stroke:none;stroke-width:2.4340091;stroke-linecap:round" />
  <path
     id="path899"
     d="M 66.159404,128.63426 L 98.185386,128.38905"
     style="fill:#000000;fill-opacity:0.40000001;fill-rule:evenodd;stroke:none;stroke-width:2.4340091;stroke-linecap:round" />
  <path
     id="path900"
     d="M 66.876072,129.70752 L 125.22924,129.73523"
     style="fill:#000000;fill-opacity:0.40000001;fill-rule:evenodd;stroke:none;stroke-width:2.4340091;stroke-linecap:round" />
  <path
     id="text3615"
     d="M 68.683817,64.170246 L 68.683817,65.025506 C 68.374787,64.882967 68.063781,64.776889 67.750799,64.707270 C 67.441769,64.634346 67.128781,64.597881 66.811837,64.597876 C 66.102660,64.597881 65.551962,64.786834 65.159741,65.164735 C 64.767513,65.539330 64.571401,66.066409 64.571404,66.745972 C 64.571401,67.425542 64.767513,67.954278 65.159741,68.332183 C 65.551962,68.706774 66.102660,68.894069 66.811837,68.894068 C 67.128781,68.894069 67.441769,68.859262 67.750799,68.789647 C 68.063781,68.716719 68.374787,68.608982 68.683817,68.466439 L 68.683817,69.311754 C 68.378749,69.431092 68.061800,69.520597 67.732971,69.580266 C 67.408093,69.639935 67.061430,69.669770 66.692981,69.669770 C 65.690627,69.669770 64.894294,69.406231 64.303978,68.879151 C 63.713659,68.352074 63.418501,67.641015 63.418501,66.745972 C 63.418501,65.837676 63.715641,65.123303 64.309921,64.602848 C 64.908160,64.082405 65.726283,63.822180 66.764295,63.822175 C 67.101048,63.822180 67.429883,63.852015 67.750799,63.911679 C 68.071704,63.968039 68.382710,64.054227 68.683817,64.170246 M 73.152799,64.597876 C 72.566440,64.597881 72.102902,64.790149 71.762185,65.174679 C 71.421462,65.555904 71.251103,66.079668 71.251104,66.745972 C 71.251103,67.412282 71.419482,67.937703 71.756242,68.322237 C 72.096960,68.703459 72.562479,68.894069 73.152799,68.894068 C 73.735189,68.894069 74.196745,68.701801 74.537470,68.317264 C 74.878185,67.932730 75.048544,67.408967 75.048550,66.745972 C 75.048544,66.086299 74.878185,65.564192 74.537470,65.179652 C 74.196745,64.791806 73.735189,64.597881 73.152799,64.597876 M 73.152799,63.822175 C 74.103641,63.822180 74.850452,64.080747 75.393232,64.597876 C 75.936001,65.115015 76.207389,65.831046 76.207396,66.745972 C 76.207389,67.657589 75.936001,68.373620 75.393232,68.894068 C 74.850452,69.411203 74.103641,69.669770 73.152799,69.669770 C 72.197987,69.669770 71.449195,69.411203 70.906423,68.894068 C 70.367608,68.373620 70.098202,67.657589 70.098203,66.745972 C 70.098202,65.831046 70.367608,65.115015 70.906423,64.597876 C 71.449195,64.080747 72.197987,63.822180 73.152799,63.822175 M 79.071822,68.690198 L 79.071822,71.643831 L 77.972406,71.643831 L 77.972406,63.956431 L 79.071822,63.956431 L 79.071822,64.801747 C 79.301608,64.470255 79.590823,64.224948 79.939470,64.065824 C 80.292073,63.903397 80.712030,63.822180 81.199343,63.822175 C 82.007557,63.822180 82.663246,64.090692 83.166408,64.627711 C 83.673519,65.164740 83.927078,65.870826 83.927085,66.745972 C 83.927078,67.621125 83.673519,68.327211 83.166408,68.864234 C 82.663246,69.401258 82.007557,69.669770 81.199343,69.669770 C 80.712030,69.669770 80.292073,69.590211 79.939470,69.431092 C 79.590823,69.268660 79.301608,69.021695 79.071822,68.690198 M 82.792012,66.745972 C 82.792005,66.073038 82.625608,65.545960 82.292817,65.164735 C 81.963977,64.780204 81.510344,64.587937 80.931917,64.587931 C 80.353481,64.587937 79.897868,64.780204 79.565074,65.164735 C 79.236237,65.545960 79.071820,66.073038 79.071822,66.745972 C 79.071820,67.418912 79.236237,67.947648 79.565074,68.332183 C 79.897868,68.713404 80.353481,68.904014 80.931917,68.904014 C 81.510344,68.904014 81.963977,68.713404 82.292817,68.332183 C 82.625608,67.947648 82.792005,67.418912 82.792012,66.745972 M 88.508980,70.042703 C 88.199951,70.705695 87.898850,71.138297 87.605675,71.340512 C 87.312495,71.542722 86.920271,71.643828 86.429002,71.643831 L 85.555411,71.643831 L 85.555411,70.878074 L 86.197233,70.878074 C 86.498333,70.878073 86.732083,70.818403 86.898482,70.699066 C 87.064879,70.579726 87.249105,70.297954 87.451163,69.853750 L 87.647275,69.436065 L 84.955189,63.956431 L 86.114033,63.956431 L 88.194012,68.312293 L 90.273990,63.956431 L 91.432835,63.956431 L 88.508980,70.042703 M 99.396184,64.597876 C 98.809821,64.597881 98.346284,64.790149 98.005565,65.174679 C 97.664844,65.555904 97.494483,66.079668 97.494486,66.745972 C 97.494483,67.412282 97.662862,67.937703 97.999623,68.322237 C 98.340341,68.703459 98.805859,68.894069 99.396184,68.894068 C 99.978577,68.894069 100.44013,68.701801 100.78086,68.317264 C 101.12157,67.932730 101.29193,67.408967 101.29194,66.745972 C 101.29193,66.086299 101.12157,65.564192 100.78086,65.179652 C 100.44013,64.791806 99.978577,64.597881 99.396184,64.597876 M 99.396184,63.822175 C 100.34703,63.822180 101.09384,64.080747 101.63662,64.597876 C 102.17939,65.115015 102.45078,65.831046 102.45079,66.745972 C 102.45078,67.657589 102.17939,68.373620 101.63662,68.894068 C 101.09384,69.411203 100.34703,69.669770 99.396184,69.669770 C 98.441368,69.669770 97.692577,69.411203 97.149803,68.894068 C 96.610989,68.373620 96.341583,67.657589 96.341583,66.745972 C 96.341583,65.831046 96.610989,65.115015 97.149803,64.597876 C 97.692577,64.080747 98.441368,63.822180 99.396184,63.822175 M 108.11427,64.811691 C 107.99145,64.752027 107.85674,64.708932 107.71016,64.682408 C 107.56753,64.652578 107.40905,64.637661 107.23473,64.637655 C 106.61668,64.637661 106.14126,64.806723 105.80846,65.144845 C 105.47963,65.479660 105.31521,65.961987 105.31521,66.591826 L 105.31521,69.525569 L 104.21579,69.525569 L 104.21579,63.956431 L 105.31521,63.956431 L 105.31521,64.821636 C 105.54500,64.483515 105.84412,64.233236 106.21257,64.070797 C 106.58102,63.905054 107.02871,63.822180 107.55565,63.822175 C 107.63092,63.822180 107.71412,63.827153 107.80524,63.837092 C 107.89636,63.843727 107.99739,63.855330 108.10833,63.871899 L 108.11427,64.811691 M 64.951742,89.057331 L 64.951742,92.010963 L 63.852326,92.010963 L 63.852326,84.323563 L 64.951742,84.323563 L 64.951742,85.168879 C 65.181528,84.837387 65.470743,84.592080 65.819391,84.432957 C 66.171993,84.270529 66.591950,84.189312 67.079263,84.189307 C 67.887478,84.189312 68.543166,84.457824 69.046328,84.994843 C 69.553439,85.531871 69.806999,86.237958 69.807005,87.113104 C 69.806999,87.988256 69.553439,88.694343 69.046328,89.231366 C 68.543166,89.768390 67.887478,90.036902 67.079263,90.036902 C 66.591950,90.036902 66.171993,89.957343 65.819391,89.798224 C 65.470743,89.635792 65.181528,89.388827 64.951742,89.057331 M 68.671932,87.113104 C 68.671925,86.440170 68.505528,85.913091 68.172737,85.531867 C 67.843898,85.147336 67.390264,84.955068 66.811837,84.955064 C 66.233401,84.955068 65.777788,85.147336 65.444994,85.531867 C 65.116157,85.913091 64.951740,86.440170 64.951742,87.113104 C 64.951740,87.786044 65.116157,88.314780 65.444994,88.699314 C 65.777788,89.080536 66.233401,89.271146 66.811837,89.271146 C 67.390264,89.271146 67.843898,89.080536 68.172737,88.699314 C 68.505528,88.314780 68.671925,87.786044 68.671932,87.113104 M 74.644440,87.093214 C 73.760941,87.093217 73.148834,87.177749 72.808117,87.346809 C 72.467394,87.515875 72.297035,87.804276 72.297036,88.212015 C 72.297035,88.536883 72.423814,88.795449 72.677375,88.987716 C 72.934894,89.176669 73.283538,89.271146 73.723307,89.271146 C 74.329469,89.271146 74.814796,89.092138 75.179292,88.734122 C 75.547740,88.372792 75.731967,87.893780 75.731971,87.297085 L 75.731971,87.093214 L 74.644440,87.093214 M 76.825446,86.715309 L 76.825446,89.892701 L 75.731971,89.892701 L 75.731971,89.047385 C 75.482369,89.385513 75.171363,89.635792 74.798953,89.798224 C 74.426533,89.957343 73.970920,90.036902 73.432110,90.036902 C 72.750667,90.036902 72.207893,89.877784 71.803785,89.559548 C 71.403635,89.237996 71.203561,88.808709 71.203563,88.271684 C 71.203561,87.645158 71.453158,87.172777 71.952354,86.854538 C 72.455509,86.536304 73.204300,86.377186 74.198731,86.377183 L 75.731971,86.377183 L 75.731971,86.287678 C 75.731967,85.866682 75.565568,85.541816 75.232777,85.313079 C 74.903938,85.081037 74.440400,84.965013 73.842163,84.965008 C 73.461822,84.965013 73.091388,85.003135 72.730861,85.079374 C 72.370329,85.155623 72.023667,85.269990 71.690872,85.422473 L 71.690872,84.577157 C 72.091018,84.447880 72.479280,84.351746 72.855660,84.288756 C 73.232033,84.222462 73.598506,84.189312 73.955076,84.189307 C 74.917805,84.189312 75.636881,84.398155 76.112310,84.815835 C 76.587728,85.233525 76.825439,85.866682 76.825446,86.715309 M 83.326863,84.487653 L 83.326863,85.352859 C 83.017833,85.220266 82.696922,85.120817 82.364130,85.054513 C 82.031330,84.988218 81.686648,84.955068 81.330085,84.955064 C 80.787306,84.955068 80.379235,85.024683 80.105869,85.163906 C 79.836460,85.303139 79.701757,85.511981 79.701759,85.790434 C 79.701757,86.002596 79.798822,86.170001 79.992955,86.292651 C 80.187085,86.411993 80.577327,86.526359 81.163686,86.635750 L 81.538082,86.705363 C 82.314603,86.844595 82.865301,87.041836 83.190179,87.297085 C 83.519008,87.549024 83.683425,87.902068 83.683430,88.356215 C 83.683425,88.873351 83.437790,89.282748 82.946524,89.584409 C 82.459210,89.886071 81.787675,90.036902 80.931917,90.036902 C 80.575347,90.036902 80.202932,90.007067 79.814672,89.947398 C 79.430370,89.891043 79.024278,89.804855 78.596399,89.688831 L 78.596399,88.744066 C 79.000508,88.919760 79.398674,89.052359 79.790900,89.141861 C 80.183123,89.228052 80.571385,89.271146 80.955688,89.271146 C 81.470727,89.271146 81.866913,89.198217 82.144247,89.052358 C 82.421574,88.903186 82.560238,88.694343 82.560242,88.425830 C 82.560238,88.177210 82.459210,87.986599 82.257160,87.853999 C 82.059063,87.721402 81.621278,87.593776 80.943803,87.471120 L 80.563464,87.396533 C 79.885983,87.277197 79.396694,87.094875 79.095594,86.849565 C 78.794491,86.600946 78.643941,86.261162 78.643941,85.830214 C 78.643941,85.306454 78.865804,84.902029 79.309534,84.616937 C 79.753261,84.331856 80.383197,84.189312 81.199343,84.189307 C 81.603449,84.189312 81.983787,84.214175 82.340359,84.263894 C 82.696922,84.313624 83.025756,84.388210 83.326863,84.487653 M 86.512202,82.742325 L 86.512202,84.323563 L 88.764521,84.323563 L 88.764521,85.034623 L 86.512202,85.034623 L 86.512202,88.057869 C 86.512199,88.512020 86.585494,88.803737 86.732085,88.933019 C 86.882633,89.062303 87.185715,89.126945 87.641332,89.126944 L 88.764521,89.126944 L 88.764521,89.892701 L 87.641332,89.892701 C 86.797453,89.892701 86.215060,89.761760 85.894150,89.499878 C 85.573238,89.234681 85.412783,88.754012 85.412784,88.057869 L 85.412784,85.034623 L 84.610507,85.034623 L 84.610507,84.323563 L 85.412784,84.323563 L 85.412784,82.742325 L 86.512202,82.742325 M 95.901816,86.879399 L 95.901816,87.326919 L 90.874212,87.326919 C 90.921752,87.956764 91.147579,88.437434 91.551691,88.768929 C 91.959760,89.097111 92.526306,89.261201 93.251330,89.261200 C 93.671283,89.261201 94.077373,89.218106 94.469603,89.131917 C 94.865784,89.045728 95.258008,88.916445 95.646276,88.744066 L 95.646276,89.609272 C 95.254046,89.748501 94.851917,89.854579 94.439889,89.927508 C 94.027850,90.000438 93.609874,90.036902 93.185959,90.036902 C 92.124177,90.036902 91.282281,89.778335 90.660272,89.261200 C 90.042220,88.744067 89.733195,88.044610 89.733195,87.162829 C 89.733195,86.251218 90.026372,85.528556 90.612729,84.994843 C 91.203045,84.457824 91.997398,84.189312 92.995790,84.189307 C 93.891166,84.189312 94.598358,84.431305 95.117367,84.915284 C 95.640327,85.395958 95.901810,86.050662 95.901816,86.879399 M 94.808343,86.610887 C 94.800413,86.110332 94.632034,85.710879 94.303205,85.412528 C 93.978327,85.114186 93.546485,84.965013 93.007675,84.965008 C 92.397545,84.965013 91.908255,85.109214 91.539805,85.397611 C 91.175312,85.686017 90.965333,86.092099 90.909869,86.615860 L 94.808343,86.610887 M 68.137080,104.85479 L 68.137080,105.72000 C 67.828050,105.58740 67.507140,105.48796 67.174347,105.42165 C 66.841547,105.35536 66.496866,105.32221 66.140302,105.32220 C 65.597524,105.32221 65.189452,105.39182 64.916086,105.53104 C 64.646677,105.67028 64.511974,105.87913 64.511976,106.15757 C 64.511974,106.36974 64.609039,106.53714 64.803172,106.65979 C 64.997302,106.77913 65.387545,106.89349 65.973903,107.00289 L 66.348299,107.07250 C 67.124820,107.21173 67.675519,107.40898 68.000396,107.66422 C 68.329225,107.91617 68.493642,108.26920 68.493648,108.72335 C 68.493642,109.24049 68.248007,109.64988 67.756741,109.95155 C 67.269428,110.25321 66.597893,110.40404 65.742134,110.40404 C 65.385564,110.40404 65.013149,110.37420 64.624888,110.31454 C 64.240587,110.25818 63.834496,110.17199 63.406616,110.05597 L 63.406616,109.11121 C 63.810725,109.28690 64.208892,109.41950 64.601117,109.50900 C 64.993340,109.59519 65.381602,109.63829 65.765905,109.63829 C 66.280944,109.63829 66.677130,109.56536 66.954464,109.41950 C 67.231790,109.27032 67.370455,109.06148 67.370460,108.79297 C 67.370455,108.54434 67.269428,108.35374 67.067378,108.22114 C 66.869280,108.08854 66.431495,107.96091 65.754020,107.83826 L 65.373681,107.76367 C 64.696200,107.64434 64.206911,107.46202 63.905810,107.21670 C 63.604708,106.96809 63.454158,106.62830 63.454159,106.19735 C 63.454158,105.67359 63.676021,105.26917 64.119751,104.98407 C 64.563478,104.69900 65.193413,104.55646 66.009559,104.55645 C 66.413666,104.55646 66.794005,104.58131 67.150577,104.63103 C 67.507140,104.68076 67.835973,104.75535 68.137080,104.85479 M 75.934026,107.24654 L 75.934026,107.69406 L 70.906423,107.69406 C 70.953964,108.32390 71.179789,108.80457 71.583901,109.13607 C 71.991970,109.46425 72.558516,109.62834 73.283540,109.62834 C 73.703493,109.62834 74.109584,109.58525 74.501814,109.49905 C 74.897994,109.41286 75.290218,109.28358 75.678487,109.11121 L 75.678487,109.97641 C 75.286256,110.11564 74.884127,110.22172 74.472099,110.29465 C 74.060060,110.36758 73.642085,110.40404 73.218169,110.40404 C 72.156387,110.40404 71.314493,110.14548 70.692482,109.62834 C 70.074430,109.11121 69.765406,108.41175 69.765406,107.52997 C 69.765406,106.61835 70.058583,105.89569 70.644940,105.36198 C 71.235255,104.82496 72.029608,104.55646 73.028000,104.55645 C 73.923376,104.55646 74.630568,104.79844 75.149578,105.28243 C 75.672537,105.76310 75.934020,106.41780 75.934026,107.24654 M 74.840553,106.97802 C 74.832623,106.47748 74.664244,106.07802 74.335415,105.77967 C 74.010537,105.48133 73.578695,105.33215 73.039885,105.33214 C 72.429755,105.33215 71.940467,105.47635 71.572015,105.76475 C 71.207522,106.05315 70.997544,106.45924 70.942080,106.98299 L 74.840553,106.97802 M 77.728751,102.52272 L 78.822224,102.52272 L 78.822224,110.25984 L 77.728751,110.25984 L 77.728751,102.52272 M 86.797455,107.24654 L 86.797455,107.69406 L 81.769851,107.69406 C 81.817392,108.32390 82.043217,108.80457 82.447330,109.13607 C 82.855398,109.46425 83.421944,109.62834 84.146968,109.62834 C 84.566922,109.62834 84.973013,109.58525 85.365242,109.49905 C 85.761422,109.41286 86.153646,109.28358 86.541915,109.11121 L 86.541915,109.97641 C 86.149684,110.11564 85.747556,110.22172 85.335528,110.29465 C 84.923490,110.36758 84.505513,110.40404 84.081599,110.40404 C 83.019815,110.40404 82.177921,110.14548 81.555910,109.62834 C 80.937859,109.11121 80.628834,108.41175 80.628835,107.52997 C 80.628834,106.61835 80.922012,105.89569 81.508368,105.36198 C 82.098683,104.82496 82.893036,104.55646 83.891429,104.55645 C 84.786805,104.55646 85.493997,104.79844 86.013006,105.28243 C 86.535966,105.76310 86.797448,106.41780 86.797455,107.24654 M 85.703981,106.97802 C 85.696051,106.47748 85.527672,106.07802 85.198843,105.77967 C 84.873965,105.48133 84.442123,105.33215 83.903315,105.33214 C 83.293185,105.33215 82.803895,105.47635 82.435444,105.76475 C 82.070950,106.05315 81.860972,106.45924 81.805508,106.98299 L 85.703981,106.97802 M 93.382072,104.90452 L 93.382072,105.75978 C 93.073041,105.61724 92.762035,105.51116 92.449053,105.44154 C 92.140023,105.36861 91.827036,105.33215 91.510092,105.33214 C 90.800914,105.33215 90.250216,105.52111 89.857994,105.89901 C 89.465768,106.27360 89.269656,106.80068 89.269657,107.48025 C 89.269656,108.15981 89.465768,108.68854 89.857994,109.06645 C 90.250216,109.44105 90.800914,109.62834 91.510092,109.62834 C 91.827036,109.62834 92.140023,109.59353 92.449053,109.52392 C 92.762035,109.45099 93.073041,109.34326 93.382072,109.20071 L 93.382072,110.04602 C 93.077002,110.16537 92.760053,110.25487 92.431225,110.31454 C 92.106348,110.37420 91.759684,110.40404 91.391236,110.40404 C 90.388882,110.40404 89.592547,110.14050 89.002232,109.61342 C 88.411914,109.08634 88.116755,108.37528 88.116756,107.48025 C 88.116755,106.57195 88.413894,105.85757 89.008174,105.33712 C 89.606414,104.81668 90.424538,104.55646 91.462549,104.55645 C 91.799303,104.55646 92.128138,104.58628 92.449053,104.64595 C 92.769958,104.70231 93.080964,104.78849 93.382072,104.90452 M 96.353469,103.10947 L 96.353469,104.69070 L 98.605789,104.69070 L 98.605789,105.40176 L 96.353469,105.40176 L 96.353469,108.42501 C 96.353467,108.87916 96.426761,109.17088 96.573353,109.30016 C 96.723901,109.42944 97.026983,109.49409 97.482599,109.49409 L 98.605789,109.49409 L 98.605789,110.25984 L 97.482599,110.25984 C 96.638720,110.25984 96.056328,110.12890 95.735418,109.86701 C 95.414506,109.60182 95.254050,109.12115 95.254051,108.42501 L 95.254051,105.40176 L 94.451774,105.40176 L 94.451774,104.69070 L 95.254051,104.69070 L 95.254051,103.10947 L 96.353469,103.10947 M 105.74309,107.24654 L 105.74309,107.69406 L 100.71549,107.69406 C 100.76303,108.32390 100.98886,108.80457 101.39297,109.13607 C 101.80104,109.46425 102.36758,109.62834 103.09261,109.62834 C 103.51256,109.62834 103.91865,109.58525 104.31088,109.49905 C 104.70706,109.41286 105.09928,109.28358 105.48755,109.11121 L 105.48755,109.97641 C 105.09532,110.11564 104.69319,110.22172 104.28117,110.29465 C 103.86913,110.36758 103.45115,110.40404 103.02724,110.40404 C 101.96545,110.40404 101.12356,110.14548 100.50155,109.62834 C 99.883497,109.11121 99.574464,108.41175 99.574464,107.52997 C 99.574464,106.61835 99.867647,105.89569 100.45401,105.36198 C 101.04432,104.82496 101.83867,104.55646 102.83707,104.55645 C 103.73244,104.55646 104.43963,104.79844 104.95864,105.28243 C 105.48160,105.76310 105.74309,106.41780 105.74309,107.24654 M 104.64962,106.97802 C 104.64169,106.47748 104.47331,106.07802 104.14448,105.77967 C 103.81960,105.48133 103.38776,105.33215 102.84895,105.33214 C 102.23882,105.33215 101.74953,105.47635 101.38108,105.76475 C 101.01659,106.05315 100.80661,106.45924 100.75115,106.98299 L 104.64962,106.97802 M 111.91766,105.53602 L 111.91766,102.52272 L 113.01114,102.52272 L 113.01114,110.25984 L 111.91766,110.25984 L 111.91766,109.42447 C 111.68786,109.75596 111.39667,110.00293 111.04406,110.16537 C 110.69541,110.32449 110.27546,110.40404 109.78420,110.40404 C 108.97993,110.40404 108.32425,110.13553 107.81713,109.59851 C 107.31397,109.06148 107.06239,108.35540 107.06239,107.48025 C 107.06239,106.60510 107.31397,105.89901 107.81713,105.36198 C 108.32425,104.82496 108.97993,104.55646 109.78420,104.55645 C 110.27546,104.55646 110.69541,104.63767 111.04406,104.80009 C 111.39667,104.95922 111.68786,105.20452 111.91766,105.53602 M 108.19152,107.48025 C 108.19152,108.15318 108.35594,108.68192 108.68478,109.06645 C 109.01757,109.44767 109.47318,109.63829 110.05162,109.63829 C 110.63005,109.63829 111.08566,109.44767 111.41847,109.06645 C 111.75125,108.68192 111.91766,108.15318 111.91766,107.48025 C 111.91766,106.80731 111.75125,106.28023 111.41847,105.89901 C 111.08566,105.51447 110.63005,105.32221 110.05162,105.32220 C 109.47318,105.32221 109.01757,105.51447 108.68478,105.89901 C 108.35594,106.28023 108.19152,106.80731 108.19152,107.48025 M 64.975514,123.47659 L 64.975514,125.05783 L 67.227833,125.05783 L 67.227833,125.76889 L 64.975514,125.76889 L 64.975514,128.79214 C 64.975512,129.24629 65.048806,129.53800 65.195397,129.66729 C 65.345946,129.79657 65.649027,129.86120 66.104645,129.86120 L 67.227833,129.86120 L 67.227833,130.62697 L 66.104645,130.62697 C 65.260765,130.62697 64.678372,130.49602 64.357463,130.23414 C 64.036550,129.96894 63.876096,129.48828 63.876097,128.79214 L 63.876097,125.76889 L 63.073820,125.76889 L 63.073820,125.05783 L 63.876097,125.05783 L 63.876097,123.47659 L 64.975514,123.47659 M 74.365129,127.61367 L 74.365129,128.06118 L 69.337525,128.06118 C 69.385066,128.69103 69.610891,129.17169 70.015003,129.50320 C 70.423072,129.83138 70.989618,129.99547 71.714642,129.99547 C 72.134596,129.99547 72.540686,129.95237 72.932916,129.86618 C 73.329096,129.77999 73.721320,129.65071 74.109589,129.47833 L 74.109589,130.34354 C 73.717358,130.48277 73.315229,130.58885 72.903201,130.66178 C 72.491163,130.73471 72.073187,130.77117 71.649272,130.77117 C 70.587489,130.77117 69.745595,130.51260 69.123584,129.99547 C 68.505532,129.47833 68.196508,128.77888 68.196508,127.89709 C 68.196508,126.98548 68.489686,126.26282 69.076042,125.72911 C 69.666357,125.19209 70.460710,124.92357 71.459102,124.92357 C 72.354478,124.92357 73.061671,125.16557 73.580680,125.64954 C 74.103639,126.13022 74.365122,126.78493 74.365129,127.61367 M 73.271655,127.34515 C 73.263725,126.84459 73.095346,126.44514 72.766517,126.14679 C 72.441639,125.84845 72.009797,125.69928 71.470988,125.69927 C 70.860857,125.69928 70.371569,125.84348 70.003118,126.13188 C 69.638624,126.42028 69.428646,126.82636 69.373182,127.35012 L 73.271655,127.34515 M 81.478654,125.05783 L 79.071822,127.76781 L 81.603453,130.62697 L 80.313866,130.62697 L 78.376516,128.43909 L 76.439164,130.62697 L 75.149578,130.62697 L 77.734694,127.71311 L 75.369461,125.05783 L 76.659048,125.05783 L 78.424057,127.04183 L 80.189067,125.05783 L 81.478654,125.05783 M 84.230168,123.47659 L 84.230168,125.05783 L 86.482487,125.05783 L 86.482487,125.76889 L 84.230168,125.76889 L 84.230168,128.79214 C 84.230166,129.24629 84.303460,129.53800 84.450051,129.66729 C 84.600599,129.79657 84.903682,129.86120 85.359299,129.86120 L 86.482487,129.86120 L 86.482487,130.62697 L 85.359299,130.62697 C 84.515420,130.62697 83.933026,130.49602 83.612117,130.23414 C 83.291205,129.96894 83.130750,129.48828 83.130751,128.79214 L 83.130751,125.76889 L 82.328474,125.76889 L 82.328474,125.05783 L 83.130751,125.05783 L 83.130751,123.47659 L 84.230168,123.47659"
     style="font-size:10.976674;font-style:normal;font-weight:normal;fill:#000000;fill-opacity:1.0000000;stroke:none;stroke-width:1.0000000pt;stroke-linecap:butt;stroke-linejoin:miter;stroke-opacity:1.0000000;font-family:Bitstream Vera Sans" />
  <rect
     style="fill:#ffffff;fill-opacity:0.54736841;stroke:none;stroke-width:3.7500000;stroke-linejoin:miter;stroke-miterlimit:4.0000000;stroke-opacity:1.0000000"
     id="rect1707"
     width="103.65135"
     height="9.6113071"
     x="21.012951"
     y="-24.266785"
     transform="matrix(0.000000,1.000000,-1.000000,0.000000,0.000000,0.000000)" />
</svg>
