<?xml version="1.0" encoding="UTF-8" standalone="no"?>
<!DOCTYPE svg PUBLIC "-//W3C//DTD SVG 20010904//EN"
"http://www.w3.org/TR/2001/REC-SVG-20010904/DTD/svg10.dtd">
<!-- Created with Inkscape (http://www.inkscape.org/) -->
<svg
   id="svg1"
   sodipodi:version="0.32"
   inkscape:version="0.38.1"
   width="128.00000pt"
   height="128.00000pt"
   sodipodi:docbase="/usr/share/icons/Rodent/scalable/stock"
   sodipodi:docname="stock_volume-min.svg"
   xmlns="http://www.w3.org/2000/svg"
   xmlns:inkscape="http://www.inkscape.org/namespaces/inkscape"
   xmlns:sodipodi="http://sodipodi.sourceforge.net/DTD/sodipodi-0.dtd"
   xmlns:xlink="http://www.w3.org/1999/xlink">
  <defs
     id="defs3">
    <linearGradient
       id="linearGradient850">
      <stop
         style="stop-color:#eed680;stop-opacity:1.0000000;"
         offset="0.0000000"
         id="stop852" />
      <stop
         style="stop-color:#dfb546;stop-opacity:1.0000000;"
         offset="0.68035328"
         id="stop858" />
      <stop
         style="stop-color:#d8a429;stop-opacity:1.0000000;"
         offset="0.77277374"
         id="stop859" />
      <stop
         style="stop-color:#d1940c;stop-opacity:1.0000000;"
         offset="1.0000000"
         id="stop857" />
    </linearGradient>
    <linearGradient
       xlink:href="#linearGradient850"
       id="linearGradient569"
       x1="0.11875000"
       y1="0.12612613"
       x2="0.59375000"
       y2="0.66066068"
       spreadMethod="pad" />
    <linearGradient
       id="linearGradient839">
      <stop
         style="stop-color:#46a046;stop-opacity:1.0000000;"
         offset="0.0000000"
         id="stop840" />
      <stop
         style="stop-color:#df421e;stop-opacity:1.0000000;"
         offset="0.39364964"
         id="stop841" />
      <stop
         style="stop-color:#ada7c8;stop-opacity:1.0000000;"
         offset="0.72036445"
         id="stop842" />
      <stop
         style="stop-color:#eed680;stop-opacity:1.0000000;"
         offset="1.0000000"
         id="stop843" />
    </linearGradient>
    <linearGradient
       xlink:href="#linearGradient839"
       id="linearGradient836"
       x1="1.3267924e-17"
       y1="0.50000000"
       x2="1.0000000"
       y2="0.50000000" />
  </defs>
  <sodipodi:namedview
     id="base"
     pagecolor="#ffffff"
     bordercolor="#666666"
     borderopacity="1.0"
     inkscape:pageopacity="0.0"
     inkscape:pageshadow="2"
     inkscape:zoom="3.5521067"
     inkscape:cx="71.808260"
     inkscape:cy="33.913943"
     inkscape:window-width="751"
     inkscape:window-height="909"
     showgrid="true"
     snaptogrid="true"
     gridspacingx="1.0000000mm"
     gridspacingy="1.0000000mm"
     inkscape:window-x="142"
     inkscape:window-y="31" />
  <path
     style="fill:none;fill-rule:evenodd;stroke:#000000;stroke-opacity:0.50000000;stroke-width:12.500000;stroke-linejoin:miter;stroke-linecap:round;fill-opacity:0.75;stroke-dasharray:none;"
     d="M 92.550711,25.572732 C 92.550711,25.572732 134.64567,71.417323 102.75591,124.56693"
     id="path902"
     sodipodi:nodetypes="cc" />
  <path
     style="fill:none;fill-rule:evenodd;stroke:#000000;stroke-width:5.0000000;stroke-linejoin:round;stroke-linecap:round;stroke-dasharray:none;stroke-opacity:0.50000000;"
     d="M 57.734066 24.879831 C 49.821791 24.084578 42.586355 28.859049 38.313996 35.209606 C 28.735268 47.183014 19.156542 59.156422 9.5778151 71.129829 C 4.1399947 79.256788 5.1012394 91.403187 12.543975 97.944101 C 16.785251 101.37789 21.465146 104.05809 26.414785 106.32432 C 38.635796 112.42616 50.856806 118.52799 63.077816 124.62983 C 66.524218 125.05723 73.051306 127.11714 77.628670 125.12551 C 89.672954 121.33950 95.404202 108.24595 97.062365 96.666840 C 99.877584 75.193830 93.414344 52.153999 78.676533 36.095096 C 73.134382 30.321894 65.928119 25.451813 57.734066 24.879831 z "
     id="path853" />
  <g
     id="g838"
     transform="matrix(-1.474779,0.000000,0.000000,1.474779,172.9941,-14.34704)">
    <path
       style="fill:#4b6983;fill-rule:evenodd;stroke:#000000;stroke-width:1.5059674;stroke-linejoin:round;"
       d="M 89.725711,30.433362 L 74.778985,94.455805 L 104.65881,79.520341 C 107.41966,77.077142 110.92444,76.441725 112.63525,70.717991 C 114.25030,65.314633 113.28001,62.195194 111.06214,58.175920 L 111.06214,58.175920 L 89.725711,30.433362 z "
       id="path831"
       sodipodi:nodetypes="ccccccc" />
    <path
       sodipodi:type="arc"
       style="fill-rule:evenodd;stroke:#000000;stroke-width:5.0000000;fill:#9db8d2;fill-opacity:1.0000000;stroke-dasharray:none;"
       id="path825"
       sodipodi:cx="100.98425"
       sodipodi:cy="78.503937"
       sodipodi:rx="44.291340"
       sodipodi:ry="70.866142"
       d="M 145.27559 78.503937 A 44.291340 70.866142 0 1 0 56.692913,78.503937 A 44.291340 70.866142 0 1 0 145.27559 78.503937 z"
       transform="matrix(0.477735,0.122682,-0.122682,0.477735,35.52938,11.17656)" />
    <path
       sodipodi:type="arc"
       style="fill-rule:evenodd;stroke:#000000;stroke-width:2.2747321;stroke-dasharray:none;fill:#7590ae;fill-opacity:1.0000000;"
       id="path826"
       sodipodi:cx="102.75591"
       sodipodi:cy="85.590553"
       sodipodi:rx="28.346457"
       sodipodi:ry="56.692913"
       d="M 131.10237 85.590553 A 28.346457 56.692913 0 1 0 74.409456,85.590553 A 28.346457 56.692913 0 1 0 131.10237 85.590553 z"
       transform="matrix(0.575251,0.147724,-0.135083,0.526023,24.05911,0.197551)" />
    <path
       sodipodi:type="arc"
       style="fill-rule:evenodd;stroke:#000000;stroke-width:1.0000000pt;fill:#314e6c;fill-opacity:1.0000000;"
       id="path827"
       sodipodi:cx="33.661419"
       sodipodi:cy="51.929134"
       sodipodi:rx="12.401575"
       sodipodi:ry="19.488190"
       d="M 46.062994 51.929134 A 12.401575 19.488190 0 1 0 21.259844,51.929134 A 12.401575 19.488190 0 1 0 46.062994 51.929134 z"
       transform="matrix(0.477735,0.122682,-0.140577,0.547423,70.71934,29.45280)" />
  </g>
  <path
     style="fill:none;fill-rule:evenodd;stroke:black;stroke-opacity:1;stroke-width:10.000000;stroke-linejoin:miter;stroke-linecap:round;fill-opacity:0.75;stroke-dasharray:none;"
     d="M 92.550711,25.572732 C 92.550711,25.572732 134.64567,71.417323 102.75591,124.56693"
     id="path843"
     sodipodi:nodetypes="cc" />
</svg>
