<?xml version="1.0" encoding="UTF-8" standalone="no"?>
<!-- Created with Sodipodi ("http://www.sodipodi.com/") -->

<svg
   xmlns:dc="http://purl.org/dc/elements/1.1/"
   xmlns:cc="http://creativecommons.org/ns#"
   xmlns:rdf="http://www.w3.org/1999/02/22-rdf-syntax-ns#"
   xmlns:svg="http://www.w3.org/2000/svg"
   xmlns="http://www.w3.org/2000/svg"
   xmlns:xlink="http://www.w3.org/1999/xlink"
   xmlns:sodipodi="http://sodipodi.sourceforge.net/DTD/sodipodi-0.dtd"
   xmlns:inkscape="http://www.inkscape.org/namespaces/inkscape"
   id="svg750"
   sodipodi:version="0.32"
   width="128pt"
   height="128pt"
   sodipodi:docname="gnome-dev-mouse-ball.svg"
   inkscape:version="0.47pre4 r22446"
   inkscape:export-filename="/home/francois/Images/Rodent/Rodent/xfce4-mouse.png"
   inkscape:export-xdpi="27.000000"
   inkscape:export-ydpi="27.000000"
   version="1.1">
  <defs
     id="defs752">
    <inkscape:perspective
       sodipodi:type="inkscape:persp3d"
       inkscape:vp_x="0 : 80 : 1"
       inkscape:vp_y="0 : 1000 : 0"
       inkscape:vp_z="160 : 80 : 1"
       inkscape:persp3d-origin="80 : 53.333333 : 1"
       id="perspective61" />
    <linearGradient
       id="linearGradient2094">
      <stop
         style="stop-color:#efe0cd;stop-opacity:1.0000000;"
         offset="0.0000000"
         id="stop2096" />
      <stop
         style="stop-color:#f7efe6;stop-opacity:1.0000000;"
         offset="0.84285712"
         id="stop2102" />
      <stop
         style="stop-color:#ffffff;stop-opacity:1.0000000;"
         offset="1.0000000"
         id="stop2100" />
    </linearGradient>
    <linearGradient
       id="linearGradient2091">
      <stop
         style="stop-color:#887fa3;stop-opacity:1.0000000;"
         offset="0.0000000"
         id="stop2093" />
      <stop
         style="stop-color:#c3bfd1;stop-opacity:1.0000000;"
         offset="0.27142859"
         id="stop2095" />
      <stop
         style="stop-color:#ffffff;stop-opacity:1.0000000;"
         offset="1.0000000"
         id="stop2097" />
    </linearGradient>
    <linearGradient
       id="linearGradient2850">
      <stop
         style="stop-color:#887fa3;stop-opacity:0.0000000;"
         offset="0.0000000"
         id="stop2852" />
      <stop
         style="stop-color:#443f51;stop-opacity:0.10588235;"
         offset="0.87142855"
         id="stop2091" />
      <stop
         style="stop-color:#000000;stop-opacity:0.21138212;"
         offset="1.0000000"
         id="stop2856" />
    </linearGradient>
    <linearGradient
       id="linearGradient855">
      <stop
         style="stop-color:#826647;stop-opacity:1.0000000;"
         offset="0.0000000"
         id="stop856" />
      <stop
         style="stop-color:#c0b2a3;stop-opacity:1.0000000;"
         offset="0.48571429"
         id="stop2094" />
      <stop
         style="stop-color:#ffffff;stop-opacity:1.0000000;"
         offset="1.0000000"
         id="stop858" />
    </linearGradient>
    <linearGradient
       id="linearGradient851">
      <stop
         style="stop-color:#7a7f97;stop-opacity:1.0000000;"
         offset="0.0000000"
         id="stop853" />
      <stop
         style="stop-color:#bcbfcb;stop-opacity:1.0000000;"
         offset="0.63091606"
         id="stop854" />
      <stop
         style="stop-color:#ffffff;stop-opacity:1.0000000;"
         offset="1.0000000"
         id="stop855" />
    </linearGradient>
    <linearGradient
       id="linearGradient847">
      <stop
         style="stop-color:#f3f3f8;stop-opacity:1.0000000;"
         offset="0.0000000"
         id="stop849" />
      <stop
         style="stop-color:#79bce6;stop-opacity:1.0000000;"
         offset="0.50000000"
         id="stop850" />
      <stop
         style="stop-color:#0086d4;stop-opacity:1.0000000;"
         offset="1.0000000"
         id="stop851" />
    </linearGradient>
    <linearGradient
       id="linearGradient844">
      <stop
         style="stop-color:#7a7f97;stop-opacity:1.0000000;"
         offset="0.0000000"
         id="stop845" />
      <stop
         style="stop-color:#bcbfcb;stop-opacity:1.0000000;"
         offset="0.63091606"
         id="stop852" />
      <stop
         style="stop-color:#ffffff;stop-opacity:1.0000000;"
         offset="1.0000000"
         id="stop847" />
    </linearGradient>
    <linearGradient
       id="linearGradient839">
      <stop
         style="stop-color:#ffffff;stop-opacity:1.0000000;"
         offset="0.0000000"
         id="stop840" />
      <stop
         style="stop-color:#ffffff;stop-opacity:0.0000000;"
         offset="1.0000000"
         id="stop842" />
    </linearGradient>
    <linearGradient
       id="linearGradient835">
      <stop
         style="stop-color:#e6e2e2;stop-opacity:1.0000;"
         offset="0"
         id="stop836" />
      <stop
         style="stop-color:#979595;stop-opacity:1.0000;"
         offset="1"
         id="stop837" />
    </linearGradient>
    <linearGradient
       id="linearGradient768">
      <stop
         style="stop-color:#f3f3f8;stop-opacity:1.0000000;"
         offset="0.0000000"
         id="stop769" />
      <stop
         style="stop-color:#79bcd4;stop-opacity:1.0000000;"
         offset="0.24938931"
         id="stop843" />
      <stop
         style="stop-color:#0086b1;stop-opacity:1.0000000;"
         offset="1.0000000"
         id="stop770" />
    </linearGradient>
    <linearGradient
       xlink:href="#linearGradient855"
       id="linearGradient771"
       x1="0.86250001"
       y1="0.19825707"
       x2="-0.087499999"
       y2="0.41394335" />
    <linearGradient
       xlink:href="#linearGradient768"
       id="linearGradient787" />
    <linearGradient
       inkscape:collect="always"
       xlink:href="#linearGradient2094"
       id="linearGradient2088"
       x1="69.561905"
       y1="74.707329"
       x2="53.959995"
       y2="23.656837"
       gradientTransform="matrix(0.779718,0,0,1.203681,-25.056989,4.078954)"
       gradientUnits="userSpaceOnUse" />
    <linearGradient
       inkscape:collect="always"
       xlink:href="#linearGradient839"
       id="linearGradient8936"
       gradientTransform="matrix(0.685029,0,0,0.919196,-25.056989,16.94803)"
       x1="111.03352"
       y1="30.955641"
       x2="115.48492"
       y2="42.699501"
       gradientUnits="userSpaceOnUse" />
    <linearGradient
       xlink:href="#linearGradient842"
       id="linearGradient841"
       x1="43.866187"
       y1="19.008079"
       x2="43.866187"
       y2="71.026825"
       gradientTransform="scale(1.7724554,0.56418909)"
       gradientUnits="userSpaceOnUse" />
    <linearGradient
       gradientUnits="userSpaceOnUse"
       gradientTransform="matrix(1.567254,0,0,0.638059,0,2.033898)"
       xlink:href="#linearGradient836"
       id="linearGradient835-6"
       x1="50.918196"
       y1="227.68853"
       x2="50.982090"
       y2="208.96047" />
    <linearGradient
       xlink:href="#linearGradient838"
       id="linearGradient833"
       x1="62.954167"
       y1="88.511283"
       x2="38.779572"
       y2="37.969598"
       spreadMethod="reflect"
       gradientTransform="scale(1.174635,0.851328)"
       gradientUnits="userSpaceOnUse" />
    <linearGradient
       id="linearGradient830">
      <stop
         style="stop-color:#8a8a8a;stop-opacity:1.0000000;"
         offset="0.0000000"
         id="stop831" />
      <stop
         style="stop-color:#fff;stop-opacity:1;"
         offset="1"
         id="stop832" />
    </linearGradient>
    <linearGradient
       id="linearGradient836">
      <stop
         style="stop-color:#d1940c;stop-opacity:1.0000000;"
         offset="0.0000000"
         id="stop837-2" />
      <stop
         style="stop-color:#eed680;stop-opacity:1.0000000;"
         offset="1.0000000"
         id="stop838" />
    </linearGradient>
    <linearGradient
       id="linearGradient838">
      <stop
         style="stop-color:#ffffff;stop-opacity:1.0000000;"
         offset="0.0000000"
         id="stop839" />
      <stop
         style="stop-color:#c5c5c5;stop-opacity:1.0000000;"
         offset="1.0000000"
         id="stop840-2" />
    </linearGradient>
    <linearGradient
       id="linearGradient842">
      <stop
         style="stop-color:#bfbfbf;stop-opacity:1.0000000;"
         offset="0.0000000"
         id="stop843-7" />
      <stop
         style="stop-color:#8c8c8c;stop-opacity:1.0000000;"
         offset="1.0000000"
         id="stop844" />
    </linearGradient>
    <inkscape:perspective
       id="perspective2894"
       inkscape:persp3d-origin="80 : 53.333333 : 1"
       inkscape:vp_z="160 : 80 : 1"
       inkscape:vp_y="0 : 1000 : 0"
       inkscape:vp_x="0 : 80 : 1"
       sodipodi:type="inkscape:persp3d" />
  </defs>
  <sodipodi:namedview
     id="base"
     showgrid="false"
     snaptogrid="false"
     inkscape:zoom="1.475"
     inkscape:cx="80"
     inkscape:cy="80"
     inkscape:window-width="1234"
     inkscape:window-height="653"
     inkscape:window-x="40"
     inkscape:window-y="64"
     inkscape:current-layer="svg750"
     inkscape:window-maximized="0">
    <inkscape:grid
       id="GridFromPre046Settings"
       type="xygrid"
       originx="0px"
       originy="0px"
       spacingx="1mm"
       spacingy="1mm"
       color="#0000ff"
       empcolor="#0000ff"
       opacity="0.2"
       empopacity="0.4"
       empspacing="5" />
  </sodipodi:namedview>
  <g
     id="g2912"
     transform="translate(13.754237,3.3278185)">
    <path
       id="path847"
       d="m 34.75,46.625 -9.9375,77.9375 3.53125,21.25 106.3125,0 3.53125,-21.25 -13.5,-77.9375 -89.9375,0 z"
       style="fill:none;stroke:#000000;stroke-width:6.25;stroke-linejoin:round;stroke-miterlimit:4;stroke-opacity:0.5;stroke-dasharray:none" />
    <path
       style="fill:#d9d9d9;fill-rule:evenodd;stroke:#000000;stroke-width:2.5;stroke-linejoin:round;stroke-miterlimit:4;stroke-dasharray:none"
       d="m 35.433071,46.614173 -10.629921,77.952757 113.38583,0 -14.17323,-77.952757 -88.582679,0 z"
       id="path826"
       sodipodi:nodetypes="ccccc" />
    <path
       style="fill:#8c8c8c;fill-opacity:1;fill-rule:evenodd;stroke:#000000;stroke-width:2.5;stroke-linejoin:round;stroke-miterlimit:4;stroke-dasharray:none"
       d="m 24.80315,124.56693 3.543307,21.25984 106.299213,0 3.54331,-21.25984 -113.38583,0 z"
       id="path827"
       sodipodi:nodetypes="ccccc" />
    <path
       style="fill:none;stroke:#000000;stroke-width:3.125;stroke-linejoin:round;stroke-miterlimit:4;stroke-opacity:0.5;stroke-dasharray:none"
       d="m 40.891439,53.047988 -4.466865,65.272872 90.536116,0 -7.70031,-65.272872 -78.368941,0 z"
       id="path848"
       sodipodi:nodetypes="ccccc" />
    <path
       style="fill:url(#linearGradient833);fill-rule:evenodd;stroke:#000000;stroke-width:1.25;stroke-linejoin:round;stroke-miterlimit:4"
       d="m 42.891439,53.047988 -6.466865,65.272872 90.536116,0 -9.70031,-65.272872 -74.368941,0 z"
       id="path828"
       sodipodi:nodetypes="ccccc" />
    <path
       style="fill:#000000;fill-opacity:1;fill-rule:evenodd;stroke:#000000;stroke-width:3.75;stroke-linejoin:round;stroke-miterlimit:4;stroke-dasharray:none"
       d="M 35.433071,46.614173 C 32.740365,35.101086 28.346457,21.811024 28.346457,14.724409 c 3.543307,-3.543307 23.622047,-3.543307 35.433071,-3.543307 7.972441,-2.3622044 7.086614,-3.5433067 14.173228,-3.5433067 7.086614,0 5.019685,1.1811023 14.173228,3.5433067 12.992126,0 35.433076,0 38.976376,3.543307 0,7.086615 -4.62824,20.376677 -7.08661,31.889764 l -88.582679,0 z"
       id="path829"
       sodipodi:nodetypes="cccccccc" />
    <path
       style="fill:url(#linearGradient835-6);fill-rule:evenodd;stroke:#000000;stroke-width:2.41597939"
       d="m 65.628529,146.65266 28.346456,0 c 0,0 5.227369,-10.62992 -14.173228,-10.62992 -19.400596,0 -14.173228,10.62992 -14.173228,10.62992 z"
       id="path834"
       sodipodi:nodetypes="cccc" />
    <path
       style="fill:url(#linearGradient841);fill-rule:evenodd;stroke:#000000;stroke-width:2.5;stroke-linejoin:round;stroke-miterlimit:4;stroke-dasharray:none"
       d="M 35.433071,46.614173 C 32.740365,35.101086 28.346457,25.354332 28.346457,18.267717 c 3.543307,-3.543307 99.212603,-3.543307 102.755903,0 0,7.086615 -4.62824,16.833369 -7.08661,28.346456 l -88.582679,0 z"
       id="path845"
       sodipodi:nodetypes="ccccc" />
  </g>
  <path
     style="fill:none;stroke:#000000;stroke-width:7.26583242;stroke-linecap:round;stroke-linejoin:round;stroke-miterlimit:4;stroke-opacity:0.49318177"
     d="m 50.255275,31.368159 c 0.522941,-2.406445 -1.471397,-4.111672 -3.385604,-5.092451 -1.657734,-1.056107 -3.677029,-1.979118 -4.465273,-3.890089 -1.10038,-1.878711 -2.219742,-4.361301 -0.830691,-6.392915 0.909103,-1.445124 1.438806,-3.451639 3.128329,-4.115512 1.799366,-1.089585 3.759694,-1.829619 5.901355,-1.659293 2.886545,-0.2277211 5.734039,0.266907 8.532472,0.922601 2.076682,0.37836 4.184576,0.512302 6.192724,1.219856 4.239029,1.081137 8.214171,2.965756 12.409771,4.166963 0,0.09161 0.18322,0.274834 0.27484,0.274833"
     id="path942" />
  <path
     style="font-size:12px;fill:none;stroke:#000000;stroke-width:5.96068382;stroke-linecap:round;stroke-linejoin:round;stroke-miterlimit:4;stroke-opacity:0.38056683"
     d="m 89.550488,40.374459 c 0,16.019155 -0.5484,32.038311 -0.5484,48.057476 0,27.461405 -15.24442,61.788105 -38.531494,61.788105 -23.287081,0 -38.531527,-34.3267 -38.531527,-61.788115 0,-16.019165 -0.548392,-32.038311 -0.548392,-48.057466 26.613798,-10.298029 51.546039,-10.298029 78.159813,0 z"
     id="path859"
     sodipodi:nodetypes="cccccc" />
  <path
     style="font-size:12px;fill:url(#linearGradient2088);fill-opacity:1;fill-rule:evenodd;stroke:#000000;stroke-width:1.81645811;stroke-linecap:round;stroke-linejoin:round;stroke-miterlimit:4"
     d="m 88.672468,39.43027 c 0,16.019155 -0.44245,32.038311 -0.44245,48.057476 0,27.461414 -13.73067,61.788114 -37.759423,61.788114 -24.028748,0 -37.759447,-34.3267 -37.759447,-61.788124 0,-16.019165 -0.442441,-32.038311 -0.442441,-48.057466 27.461418,-10.29803 48.942358,-10.29803 76.403761,0 z"
     id="path1328"
     sodipodi:nodetypes="cccccc" />
  <path
     sodipodi:nodetypes="ccccc"
     id="path2864"
     d="m 18.291707,39.546067 c 0,0 -3.42104,61.739053 8.141456,86.697393 C 23.546095,95.373933 19.567809,87.492352 30.522638,84.865159 43.447863,82.237965 41.93645,42.17326 32.741272,36.918873 24.859692,32.978083 22.232497,57.936424 18.291707,39.546067 z"
     style="fill:#ffffff;fill-opacity:0.63562754;fill-rule:evenodd;stroke:none" />
  <path
     style="font-size:12px;fill:none;stroke:#000000;stroke-width:3.63291621;stroke-linecap:butt;stroke-linejoin:miter;stroke-miterlimit:4;stroke-opacity:0.35222671"
     d="m 79.954718,35.997542 c 0.80549,15.552416 -0.44243,24.028738 -3.87511,34.326767 C 69.21427,84.055018 60.853815,84.055018 50.555757,84.055018 m 0,-51.490146 0,51.490146"
     id="path2102"
     sodipodi:nodetypes="ccccc" />
  <path
     style="font-size:12px;fill:none;stroke:#000000;stroke-width:3.63291621;stroke-linecap:butt;stroke-linejoin:miter;stroke-miterlimit:4;stroke-opacity:0.35222671"
     d="m 21.071622,35.997542 c -0.805487,15.552416 0.442431,24.028738 3.87511,34.326767 6.86535,13.730709 15.225804,13.730709 25.523863,13.730709 m 0,-51.490146 0,51.490146"
     id="path1342"
     sodipodi:nodetypes="ccccc" />
  <path
     style="font-size:12px;fill:none;stroke:#000000;stroke-width:1.81645811;stroke-linecap:butt;stroke-linejoin:miter;stroke-miterlimit:4"
     d="m 21.071622,35.997542 c -0.805487,15.552416 0.442431,24.028738 3.87511,34.326767 6.86535,13.730709 15.225804,13.730709 25.523863,13.730709 m 0,-51.490146 0,51.490146"
     id="path783"
     sodipodi:nodetypes="ccccc" />
  <path
     style="font-size:12px;fill:none;stroke:#000000;stroke-width:1.81645811;stroke-linecap:butt;stroke-linejoin:miter;stroke-miterlimit:4"
     d="m 79.954718,35.997542 c 0.80549,15.552416 -0.44243,24.028738 -3.87511,34.326767 C 69.21427,84.055018 60.853815,84.055018 50.555757,84.055018 m 0,-51.490146 0,51.490146"
     id="path1337"
     sodipodi:nodetypes="ccccc" />
  <rect
     rx="6.8085098"
     style="font-size:12px;fill:#eed680;fill-opacity:1;fill-rule:evenodd;stroke:#000000;stroke-width:2.42194414;stroke-opacity:1"
     id="rect784"
     width="13.730699"
     height="27.461409"
     x="43.605225"
     y="42.862904"
     ry="6.8085098" />
  <path
     style="fill:none;stroke:#000000;stroke-width:3.63291621;stroke-linecap:round;stroke-linejoin:round;stroke-opacity:1"
     d="m 50.255275,31.368159 c 0.522941,-2.406445 -1.471397,-4.111672 -3.385604,-5.092451 -1.657734,-1.056107 -3.677029,-1.979118 -4.465273,-3.890089 -1.10038,-1.878711 -2.219742,-4.361301 -0.830691,-6.392915 0.909103,-1.445124 1.438806,-3.451639 3.128329,-4.115512 1.799366,-1.089585 3.759694,-1.829619 5.901355,-1.659293 2.886545,-0.2277211 5.734039,0.266907 8.532472,0.922601 2.076682,0.37836 4.184576,0.512302 6.192724,1.219856 4.239029,1.081137 8.214171,2.965756 12.409771,4.166963 0,0.09161 0.18322,0.274834 0.27484,0.274833"
     id="path860" />
  <metadata
     id="metadata38">
    <rdf:RDF>
      <cc:Work
         rdf:about="">
        <dc:format>image/svg+xml</dc:format>
        <dc:type
           rdf:resource="http://purl.org/dc/dcmitype/StillImage" />
        <dc:title></dc:title>
      </cc:Work>
    </rdf:RDF>
  </metadata>
  <rect
     style="font-size:12px;fill:url(#linearGradient8936);fill-opacity:1;fill-rule:evenodd;stroke:none"
     id="rect8170"
     width="10.520232"
     height="14.116416"
     x="45.210472"
     y="44.468151"
     ry="6.8085098"
     rx="6.8085098" />
  <path
     sodipodi:nodetypes="cccscc"
     id="path2104"
     d="m 38.652458,143.64862 c 0,0 6.567985,-30.93805 26.928736,-33.49672 20.360744,-2.55868 21.017544,-55.17107 21.017544,-55.17107 0,0 -0.10829,25.480354 -0.98343,39.944627 -0.87514,14.464273 -3.17393,17.912473 -8.21175,31.646403 -6.13486,13.01832 -19.963821,27.58554 -38.7511,17.07676 z"
     style="fill:#000000;fill-opacity:0.19028338;fill-rule:evenodd;stroke:none" />
  <path
     style="font-size:12px;fill:none;stroke:#000000;stroke-width:3.52998924;stroke-linecap:round;stroke-linejoin:round;stroke-miterlimit:4;stroke-opacity:0.37246961"
     d="m 87.408708,40.769141 c 0,15.565303 -0.4299,31.130607 -0.4299,46.69592 0,26.683389 -13.34167,60.037549 -36.689648,60.037549 -23.347969,0 -36.689653,-33.35416 -36.689653,-60.037559 0,-15.565312 -0.429905,-31.130607 -0.429905,-46.69591 26.683385,-10.006268 47.555731,-10.006268 74.239106,0 z"
     id="path1341"
     sodipodi:nodetypes="cccccc" />
</svg>
