<?xml version="1.0" encoding="UTF-8" standalone="no"?>
<!-- Created with Inkscape (http://www.inkscape.org/) -->

<svg
   xmlns:dc="http://purl.org/dc/elements/1.1/"
   xmlns:cc="http://creativecommons.org/ns#"
   xmlns:rdf="http://www.w3.org/1999/02/22-rdf-syntax-ns#"
   xmlns:svg="http://www.w3.org/2000/svg"
   xmlns="http://www.w3.org/2000/svg"
   xmlns:xlink="http://www.w3.org/1999/xlink"
   xmlns:sodipodi="http://sodipodi.sourceforge.net/DTD/sodipodi-0.dtd"
   xmlns:inkscape="http://www.inkscape.org/namespaces/inkscape"
   sodipodi:docname="dialog-warning.svg"
   height="128.00000pt"
   width="128.00000pt"
   inkscape:version="0.47 r22583"
   sodipodi:version="0.32"
   id="svg1"
   version="1.1">
  <metadata
     id="metadata37">
    <rdf:RDF>
      <cc:Work
         rdf:about="">
        <dc:format>image/svg+xml</dc:format>
        <dc:type
           rdf:resource="http://purl.org/dc/dcmitype/StillImage" />
        <dc:title></dc:title>
      </cc:Work>
    </rdf:RDF>
  </metadata>
  <defs
     id="defs3">
    <inkscape:perspective
       sodipodi:type="inkscape:persp3d"
       inkscape:vp_x="0 : 80 : 1"
       inkscape:vp_y="0 : 1000 : 0"
       inkscape:vp_z="160 : 80 : 1"
       inkscape:persp3d-origin="80 : 53.333333 : 1"
       id="perspective38" />
    <linearGradient
       id="linearGradient854">
      <stop
         id="stop856"
         offset="0.0000000"
         style="stop-color:#eae8e3;stop-opacity:1.0000000;" />
      <stop
         id="stop857"
         offset="1.0000000"
         style="stop-color:#c5d2c8;stop-opacity:1.0000000;" />
    </linearGradient>
    <linearGradient
       id="linearGradient851">
      <stop
         id="stop852"
         offset="0.0000000"
         style="stop-color:#efeff3;stop-opacity:1.0000000;" />
      <stop
         id="stop855"
         offset="1.0000000"
         style="stop-color:#d4dae1;stop-opacity:1.0000000;" />
    </linearGradient>
    <linearGradient
       id="linearGradient566">
      <stop
         id="stop567"
         offset="0.0000000"
         style="stop-color:#ffff00;stop-opacity:1.0000000;" />
      <stop
         id="stop854"
         offset="0.43829629"
         style="stop-color:#ffd800;stop-opacity:1.0000000;" />
      <stop
         id="stop568"
         offset="1.0000000"
         style="stop-color:#ffb200;stop-opacity:1.0000000;" />
    </linearGradient>
    <linearGradient
       id="linearGradient860">
      <stop
         id="stop861"
         offset="0.0000000"
         style="stop-color:#ffffff;stop-opacity:1.0000000;" />
      <stop
         id="stop862"
         offset="0.25000000"
         style="stop-color:#ffea7d;stop-opacity:1.0000000;" />
      <stop
         id="stop863"
         offset="1"
         style="stop-color:#ffbf00;stop-opacity:1.0000;" />
    </linearGradient>
    <linearGradient
       spreadMethod="pad"
       y2="0.18734178"
       x2="0.76943004"
       y1="0.20506330"
       x1="0.24352331"
       id="linearGradient569"
       xlink:href="#linearGradient851" />
    <linearGradient
       spreadMethod="reflect"
       y2="0.57812500"
       x2="0.44374999"
       y1="0.046875000"
       x1="0.44374999"
       id="linearGradient589"
       xlink:href="#linearGradient566" />
    <linearGradient
       id="linearGradient849">
      <stop
         id="stop850"
         offset="0.0000000"
         style="stop-color:#ffc900;stop-opacity:1.0000000;" />
      <stop
         id="stop851"
         offset="1.0000000"
         style="stop-color:#5d5d5c;stop-opacity:1.0000000;" />
    </linearGradient>
    <linearGradient
       id="linearGradient843">
      <stop
         id="stop844"
         offset="0.0000000"
         style="stop-color:#ffffff;stop-opacity:1.0000000;" />
      <stop
         id="stop845"
         offset="1.0000000"
         style="stop-color:#5c5d5c;stop-opacity:1.0000000;" />
    </linearGradient>
    <linearGradient
       id="linearGradient838">
      <stop
         id="stop839"
         offset="0.0000000"
         style="stop-color:#ffd000;stop-opacity:1.0000000;" />
      <stop
         id="stop840"
         offset="1.0000000"
         style="stop-color:#5c5d5c;stop-opacity:1.0000000;" />
    </linearGradient>
    <linearGradient
       y2="0.049549550"
       x2="0.47999999"
       y1="0.35135135"
       x1="0.35333332"
       id="linearGradient841"
       xlink:href="#linearGradient838" />
    <linearGradient
       y2="0.72522521"
       x2="0.43801653"
       y1="0.15765765"
       x1="0.80165291"
       id="linearGradient842"
       xlink:href="#linearGradient843" />
    <linearGradient
       y2="0.24324325"
       x2="0.33208954"
       y1="0.50450450"
       x1="0.53358209"
       id="linearGradient847"
       xlink:href="#linearGradient849" />
    <radialGradient
       gradientUnits="userSpaceOnUse"
       gradientTransform="matrix(0.929407,0.000000,0.000000,0.947896,4.588457,5.483979)"
       fy="42.510056"
       fx="46.326217"
       r="75.480526"
       cy="41.536931"
       cx="45.927889"
       id="radialGradient853"
       xlink:href="#linearGradient854" />
    <inkscape:perspective
       sodipodi:type="inkscape:persp3d"
       inkscape:vp_x="0 : 80 : 1"
       inkscape:vp_y="0 : 1000 : 0"
       inkscape:vp_z="160 : 80 : 1"
       inkscape:persp3d-origin="80 : 53.333333 : 1"
       id="perspective2908" />
    <linearGradient
       id="linearGradient2107">
      <stop
         id="stop2109"
         offset="0.0000000"
         style="stop-color:#ffffff;stop-opacity:1.0000000;" />
      <stop
         id="stop2111"
         offset="1.0000000"
         style="stop-color:#ffffff;stop-opacity:0.0000000;" />
    </linearGradient>
    <linearGradient
       id="linearGradient865">
      <stop
         id="stop866"
         offset="0.0000000"
         style="stop-color:#d8d4d6;stop-opacity:1.0000000;" />
      <stop
         id="stop870"
         offset="1.0000000"
         style="stop-color:#3f3f3f;stop-opacity:1.0000000;" />
    </linearGradient>
    <linearGradient
       id="linearGradient831">
      <stop
         id="stop832"
         offset="0.0000000"
         style="stop-color:#ffcb00;stop-opacity:1.0000000;" />
      <stop
         id="stop835"
         offset="0.50000000"
         style="stop-color:#ffffff;stop-opacity:1.0000000;" />
      <stop
         id="stop836"
         offset="0.75000000"
         style="stop-color:#ffffff;stop-opacity:1.0000000;" />
      <stop
         id="stop837"
         offset="0.87500000"
         style="stop-color:#ffffff;stop-opacity:1.0000000;" />
      <stop
         id="stop833"
         offset="1.0000000"
         style="stop-color:#ffffff;stop-opacity:1.0000000;" />
    </linearGradient>
    <linearGradient
       gradientUnits="userSpaceOnUse"
       gradientTransform="matrix(1.920222,0.000000,0.000000,0.467538,3.536869,4.204727)"
       spreadMethod="pad"
       y2="304.42125"
       x2="27.758486"
       y1="289.98730"
       x1="27.484379"
       id="linearGradient834"
       xlink:href="#linearGradient865" />
    <radialGradient
       xlink:href="#linearGradient566-4"
       id="radialGradient853-8"
       cx="0.32499999"
       cy="0.33021805"
       r="0.54695481"
       fx="0.32187498"
       fy="0.33021802" />
    <linearGradient
       xlink:href="#linearGradient849-5"
       id="linearGradient847-4"
       x1="0.53358209"
       y1="0.50450450"
       x2="0.33208954"
       y2="0.24324325" />
    <linearGradient
       xlink:href="#linearGradient843-6"
       id="linearGradient842-5"
       x1="0.80165291"
       y1="0.15765765"
       x2="0.43801653"
       y2="0.72522521" />
    <linearGradient
       xlink:href="#linearGradient838-2"
       id="linearGradient841-7"
       x1="0.35333332"
       y1="0.35135135"
       x2="0.47999999"
       y2="0.049549550" />
    <linearGradient
       id="linearGradient838-2">
      <stop
         style="stop-color:#ffd000;stop-opacity:1.0000000;"
         offset="0.0000000"
         id="stop839-4" />
      <stop
         style="stop-color:#5c5d5c;stop-opacity:1.0000000;"
         offset="1.0000000"
         id="stop840-7" />
    </linearGradient>
    <linearGradient
       id="linearGradient843-6">
      <stop
         style="stop-color:#ffffff;stop-opacity:1.0000000;"
         offset="0.0000000"
         id="stop844-9" />
      <stop
         style="stop-color:#5c5d5c;stop-opacity:1.0000000;"
         offset="1.0000000"
         id="stop845-2" />
    </linearGradient>
    <linearGradient
       id="linearGradient849-5">
      <stop
         style="stop-color:#ffc900;stop-opacity:1.0000000;"
         offset="0.0000000"
         id="stop850-9" />
      <stop
         style="stop-color:#5d5d5c;stop-opacity:1.0000000;"
         offset="1.0000000"
         id="stop851-4" />
    </linearGradient>
    <linearGradient
       xlink:href="#linearGradient566-4"
       id="linearGradient589-0"
       x1="0.44374999"
       y1="0.046875000"
       x2="0.44374999"
       y2="0.57812500"
       spreadMethod="reflect" />
    <linearGradient
       xlink:href="#linearGradient566-4"
       id="linearGradient569-4"
       x1="0.48750001"
       y1="0.48387095"
       x2="0.96249998"
       y2="0.48387095"
       spreadMethod="reflect" />
    <linearGradient
       id="linearGradient860-0">
      <stop
         style="stop-color:#ffffff;stop-opacity:1.0000000;"
         offset="0.0000000"
         id="stop861-9" />
      <stop
         style="stop-color:#ffea7d;stop-opacity:1.0000000;"
         offset="0.25000000"
         id="stop862-2" />
      <stop
         style="stop-color:#ffbf00;stop-opacity:1.0000;"
         offset="1"
         id="stop863-5" />
    </linearGradient>
    <linearGradient
       id="linearGradient566-4">
      <stop
         style="stop-color:#ffff00;stop-opacity:1.0000000;"
         offset="0.0000000"
         id="stop567-3" />
      <stop
         style="stop-color:#ffd800;stop-opacity:1.0000000;"
         offset="0.43829629"
         id="stop854-0" />
      <stop
         style="stop-color:#ffb200;stop-opacity:1.0000000;"
         offset="1.0000000"
         id="stop568-3" />
    </linearGradient>
    <linearGradient
       id="linearGradient3604">
      <stop
         style="stop-color:#ffffff;stop-opacity:1;"
         offset="0"
         id="stop3606" />
      <stop
         style="stop-color:#dedede;stop-opacity:1.0000000;"
         offset="1.0000000"
         id="stop3608" />
    </linearGradient>
    <inkscape:perspective
       id="perspective44"
       inkscape:persp3d-origin="80 : 53.333333 : 1"
       inkscape:vp_z="160 : 80 : 1"
       inkscape:vp_y="0 : 1000 : 0"
       inkscape:vp_x="0 : 80 : 1"
       sodipodi:type="inkscape:persp3d" />
    <linearGradient
       inkscape:collect="always"
       xlink:href="#linearGradient2107"
       id="linearGradient3067"
       gradientUnits="userSpaceOnUse"
       gradientTransform="matrix(0.990985,0,0,0.817563,7.691595,7.746514)"
       x1="34.318741"
       y1="135.96350"
       x2="43.458122"
       y2="142.75951" />
    <linearGradient
       inkscape:collect="always"
       xlink:href="#linearGradient2107"
       id="linearGradient3069"
       gradientUnits="userSpaceOnUse"
       gradientTransform="matrix(1.233518,0,0,0.656814,7.691595,7.746514)"
       x1="25.130928"
       y1="75.508278"
       x2="44.307011"
       y2="85.430367" />
  </defs>
  <sodipodi:namedview
     inkscape:current-layer="svg1"
     inkscape:window-y="37"
     inkscape:window-x="335"
     snaptogrid="true"
     showgrid="false"
     inkscape:window-height="653"
     inkscape:window-width="752"
     inkscape:cy="80"
     inkscape:cx="80"
     inkscape:zoom="2.60625"
     inkscape:pageshadow="2"
     inkscape:pageopacity="0.0"
     borderopacity="1.0"
     bordercolor="#666666"
     pagecolor="#ffffff"
     id="base"
     inkscape:snap-grids="false"
     inkscape:window-maximized="0">
    <inkscape:grid
       id="GridFromPre046Settings"
       type="xygrid"
       originx="0px"
       originy="0px"
       spacingx="1.0000000mm"
       spacingy="1.0000000mm"
       color="#0000ff"
       empcolor="#0000ff"
       opacity="0.2"
       empopacity="0.4"
       empspacing="5" />
  </sodipodi:namedview>
  <rect
     rx="23.300505"
     y="12.652861"
     x="13.095487"
     ry="23.300505"
     height="136.35654"
     width="133.51364"
     id="rect849"
     style="fill:url(#radialGradient853);fill-rule:evenodd;stroke:#000000;stroke-width:9.3860598" />
  <g
     id="g2926"
     transform="matrix(0.58873141,0,0,0.58873141,18.265636,54.01458)">
    <g
       id="g882"
       transform="matrix(0.906984,0.00714405,-0.323566,0.528256,35.41526,66.16082)"
       style="fill:#cccaca;fill-opacity:0.66153846;stroke:none">
      <path
         style="fill-rule:evenodd"
         d="m 49.391304,51.942029 59.594206,-0.231884 c 0,0 -4.30104,13.214425 -19.141621,22.026019 -5.101449,3.478261 -6.365628,2.553691 -8.220701,6.727604 -0.257218,22.388002 -0.231884,28.521742 -0.231884,31.768122 2.782609,15.53623 28.057976,24.57971 28.057976,24.57971 l -65.855077,-0.46377 c 0,0 25.043479,-16.46377 33.391304,-28.28985 0,-6.72465 0.463768,-11.826095 -0.231884,-28.057979 -1.700483,-3.78744 -7.806763,-5.951691 -9.507246,-6.724639 -5.487923,-4.79227 -12.36715,-8.42512 -17.855073,-21.333333 z"
         id="path866"
         sodipodi:nodetypes="ccccccccccc" />
      <path
         style="fill-rule:evenodd"
         d="m 40.23759,20.354674 c 10.629921,60.23622 35.433071,49.606299 35.433071,60.23622 0,10.629921 -24.80315,0 -35.433071,60.236226 35.433071,0 42.519685,0 77.95276,0 C 107.56042,80.590894 82.757275,91.220815 82.757275,80.590894 c 0,-10.629921 24.803145,0 35.433075,-60.23622 -28.346461,-7.086615 -49.606304,-7.086615 -77.95276,0 z"
         id="path867"
         sodipodi:nodetypes="czcczcc" />
      <rect
         style="fill-rule:evenodd"
         id="rect868"
         width="85.130417"
         height="17.890718"
         x="36.603233"
         y="6.0072618" />
      <rect
         style="fill-rule:evenodd"
         id="rect869"
         width="85.130417"
         height="17.890718"
         x="36.603233"
         y="137.28381" />
      <rect
         style="fill-rule:evenodd"
         id="rect870"
         width="73.507248"
         height="3.2463768"
         x="39.652176"
         y="9.043478" />
      <rect
         style="fill-rule:evenodd"
         id="rect871"
         width="73.507248"
         height="3.2463768"
         x="38.956524"
         y="140.52174" />
      <path
         style="fill-rule:evenodd"
         d="m 54.956522,54.028986 c 0,0 6.724637,11.594203 13.913043,15.536232 7.188406,3.942029 6.724638,-15.768116 6.724638,-15.768116 l -20.637681,0.231884 z"
         id="path872" />
      <path
         style="fill-rule:evenodd"
         d="m 48,122.49227 c 0.927537,-2.78261 7.652175,-25.739127 23.652174,-33.159417 5.10145,-1.391307 3.246377,18.318847 3.246377,18.318847 L 48,122.49227 z"
         id="path873"
         sodipodi:nodetypes="cccc" />
      <path
         style="fill-rule:evenodd"
         d="m 49.391304,51.942029 59.594206,-0.231884 c 0,0 -4.30104,13.214425 -19.141621,22.026019 -5.101449,3.478261 -6.365628,2.553691 -8.220701,6.727604 -0.257218,22.388002 -0.231884,28.521742 -0.231884,31.768122 2.782609,15.53623 28.057976,24.57971 28.057976,24.57971 l -65.855077,-0.46377 c 0,0 25.043479,-16.46377 33.391304,-28.28985 0,-6.72465 0.463768,-11.826095 -0.231884,-28.057979 -1.700483,-3.78744 -7.806763,-5.951691 -9.507246,-6.724639 -5.487923,-4.79227 -12.36715,-8.42512 -17.855073,-21.333333 z"
         id="path874"
         sodipodi:nodetypes="ccccccccccc" />
      <path
         style="fill-rule:evenodd"
         d="m 40.23759,20.354674 c 10.629921,60.23622 35.433071,49.606299 35.433071,60.23622 0,10.629921 -24.80315,0 -35.433071,60.236226 35.433071,0 42.519685,0 77.95276,0 C 107.56042,80.590894 82.757275,91.220815 82.757275,80.590894 c 0,-10.629921 24.803145,0 35.433075,-60.23622 -28.346461,-7.086615 -49.606304,-7.086615 -77.95276,0 z"
         id="path875"
         sodipodi:nodetypes="czcczcc" />
      <rect
         style="fill-rule:evenodd"
         id="rect876"
         width="85.130417"
         height="17.890718"
         x="36.603233"
         y="6.0072618" />
      <rect
         style="fill-rule:evenodd"
         id="rect877"
         width="85.130417"
         height="17.890718"
         x="36.603233"
         y="137.28381" />
      <rect
         style="fill-rule:evenodd"
         id="rect878"
         width="73.507248"
         height="3.2463768"
         x="39.652176"
         y="9.043478" />
      <rect
         style="fill-rule:evenodd"
         id="rect879"
         width="73.507248"
         height="3.2463768"
         x="38.956524"
         y="140.52174" />
      <path
         style="fill-rule:evenodd"
         d="m 54.956522,54.028986 c 0,0 6.724637,11.594203 13.913043,15.536232 7.188406,3.942029 6.724638,-15.768116 6.724638,-15.768116 l -20.637681,0.231884 z"
         id="path880" />
      <path
         style="fill-rule:evenodd"
         d="m 48,122.49227 c 0.927537,-2.78261 7.652175,-25.739127 23.652174,-33.159417 5.10145,-1.391307 3.246377,18.318847 3.246377,18.318847 L 48,122.49227 z"
         id="path881"
         sodipodi:nodetypes="cccc" />
    </g>
    <path
       style="fill:#dae0e0;fill-opacity:0.19230766;fill-rule:evenodd;stroke:#000000;stroke-width:5.93730879;stroke-linecap:butt;stroke-linejoin:miter;stroke-miterlimit:4;stroke-opacity:0.42105258"
       d="m 21.785356,25.859166 c 9.568062,54.219018 31.89354,44.650956 31.89354,54.219018 0,9.568062 -22.325478,0 -31.89354,54.219016 31.89354,0 38.272248,0 70.165788,0 -9.568063,-54.219016 -31.89354,-44.650954 -31.89354,-54.219016 0,-9.568062 22.325477,0 31.89354,-54.219018 -25.514832,-6.378709 -44.650957,-6.378709 -70.165788,0 z"
       id="path9730"
       sodipodi:nodetypes="czcczcc" />
    <path
       style="fill:#dae0e0;fill-opacity:0.19230766;fill-rule:evenodd;stroke:#000000;stroke-width:2.37492347;stroke-linecap:butt;stroke-linejoin:miter;stroke-miterlimit:4;stroke-opacity:1"
       d="m 21.785356,25.859166 c 9.568062,54.219018 31.89354,44.650956 31.89354,54.219018 0,9.568062 -22.325478,0 -31.89354,54.219016 31.89354,0 38.272248,0 70.165788,0 -9.568063,-54.219016 -31.89354,-44.650954 -31.89354,-54.219016 0,-9.568062 22.325477,0 31.89354,-54.219018 -25.514832,-6.378709 -44.650957,-6.378709 -70.165788,0 z"
       id="path847"
       sodipodi:nodetypes="czcczcc" />
    <path
       style="fill:#ffce00;fill-opacity:1;fill-rule:evenodd;stroke:#000000;stroke-width:1.12513328;stroke-linecap:round;stroke-linejoin:round;stroke-opacity:1"
       d="m 30.024673,54.291152 53.641134,-0.20872 c 0,0 -3.871391,11.89439 -17.229495,19.825764 -4.591848,3.130806 -5.729744,2.298595 -7.399507,6.055561 -0.231524,20.151583 -0.20872,25.672603 -0.20872,28.594683 2.504644,13.98427 25.255164,22.12437 25.255164,22.12437 l -59.276584,-0.41745 c 0,0 22.5418,-14.81914 30.055733,-25.46388 0,-6.052886 0.41744,-10.644737 -0.208721,-25.255162 -1.530616,-3.4091 -7.026918,-5.357157 -8.557535,-6.052893 C 41.156427,69.179871 34.964389,65.90992 30.024673,54.291152 z"
       id="path839"
       sodipodi:nodetypes="ccccccccccc" />
    <rect
       style="fill:#b9b7b9;fill-opacity:1;fill-rule:evenodd;stroke:#000000;stroke-width:2.37492347;stroke-miterlimit:4"
       id="rect825"
       width="76.62645"
       height="16.103554"
       x="18.51405"
       y="12.944966" />
    <rect
       style="fill:#b8b8b8;fill-opacity:1;fill-rule:evenodd;stroke:#000000;stroke-width:3.37539959"
       id="rect829"
       width="76.62645"
       height="16.103554"
       x="18.514051"
       y="131.10785" />
    <rect
       style="fill:#ffffff;fill-opacity:1;fill-rule:evenodd;stroke:none"
       id="rect840"
       width="66.16436"
       height="2.922085"
       x="21.258419"
       y="15.677885" />
    <rect
       style="fill:#ffffff;fill-opacity:1;fill-rule:evenodd;stroke:none"
       id="rect841"
       width="66.16436"
       height="2.922085"
       x="20.632259"
       y="134.34032" />
    <path
       style="fill:#ffffff;fill-opacity:1;fill-rule:evenodd;stroke:none"
       d="m 35.033963,56.169636 c 0,0 6.05289,10.436019 12.523222,13.984265 6.470331,3.548246 6.052891,-14.192985 6.052891,-14.192985 l -18.576113,0.20872 z"
       id="path842" />
    <path
       style="fill:#ffffff;fill-opacity:1;fill-rule:evenodd;stroke:none"
       d="m 28.772352,117.79388 c 0.834882,-2.50465 6.887773,-23.16795 21.289478,-29.847001 4.591848,-1.252324 2.922085,16.488911 2.922085,16.488911 l -24.211563,13.35809 z"
       id="path845"
       sodipodi:nodetypes="cccc" />
    <path
       style="fill:#d1940c;fill-opacity:1;fill-rule:evenodd;stroke:#000000;stroke-width:1.12513328;stroke-linecap:round;stroke-linejoin:round;stroke-opacity:1"
       d="m 30.024673,54.291152 53.641134,-0.20872 c 0,0 -3.871391,11.89439 -17.229495,19.825764 -4.591848,3.130806 -5.729744,2.298595 -7.399507,6.055561 -0.231524,20.151583 -0.20872,25.672603 -0.20872,28.594683 2.504644,13.98427 25.255164,22.12437 25.255164,22.12437 l -59.276584,-0.41745 c 0,0 22.5418,-14.81914 30.055733,-25.46388 0,-6.052886 0.41744,-10.644737 -0.208721,-25.255162 -1.530616,-3.4091 -7.026918,-5.357157 -8.557535,-6.052893 C 41.156427,69.179871 34.964389,65.90992 30.024673,54.291152 z"
       id="path846"
       sodipodi:nodetypes="ccccccccccc" />
    <path
       style="fill:#dae0e0;fill-opacity:0.19230766;fill-rule:evenodd;stroke:#000000;stroke-width:3.37539959;stroke-linecap:butt;stroke-linejoin:miter;stroke-opacity:1"
       d="m 21.785356,25.859166 c 9.568062,54.219018 31.89354,44.650956 31.89354,54.219018 0,9.568062 -22.325478,0 -31.89354,54.219016 31.89354,0 38.272248,0 70.165788,0 -9.568063,-54.219016 -31.89354,-44.650954 -31.89354,-54.219016 0,-9.568062 22.325477,0 31.89354,-54.219018 -25.514832,-6.378709 -44.650957,-6.378709 -70.165788,0 z"
       id="path828"
       sodipodi:nodetypes="czcczcc" />
    <rect
       style="fill:#826647;fill-opacity:1;fill-rule:evenodd;stroke:#000000;stroke-width:2.37492347;stroke-miterlimit:4"
       id="rect848"
       width="76.62645"
       height="16.103554"
       x="18.51405"
       y="12.944966" />
    <rect
       style="fill:#b8b8b8;fill-opacity:1;fill-rule:evenodd;stroke:#000000;stroke-width:2.37492347;stroke-miterlimit:4"
       id="rect849-6"
       width="76.62645"
       height="16.103554"
       x="18.514051"
       y="131.10785" />
    <rect
       style="fill:#ffffff;fill-opacity:1;fill-rule:evenodd;stroke:none"
       id="rect850"
       width="71.888023"
       height="2.922085"
       x="20.622456"
       y="15.359903" />
    <rect
       style="fill:#826647;fill-opacity:1;fill-rule:evenodd;stroke:#000000;stroke-width:2.37492347;stroke-miterlimit:4"
       id="rect872"
       width="76.62645"
       height="16.103554"
       x="18.51405"
       y="131.08069" />
    <path
       style="fill:#ffffff;fill-opacity:1;fill-rule:evenodd;stroke:none"
       d="m 28.772352,117.79388 c 0.834882,-2.50465 6.887773,-23.16795 21.289478,-29.847001 4.591848,-1.252324 2.922085,16.488911 2.922085,16.488911 l -24.211563,13.35809 z"
       id="path853"
       sodipodi:nodetypes="cccc" />
    <path
       style="fill:url(#linearGradient3067);fill-opacity:1;fill-rule:evenodd;stroke:none"
       d="m 29.38454,128.56416 43.009277,-0.30129 c -7.504655,-6.52796 -10.798769,-11.24066 -17.098259,-21.38412 -8.637006,8.43614 -16.67143,15.05701 -25.911018,21.68541 z"
       id="path1338"
       sodipodi:nodetypes="cccc" />
    <path
       style="fill:url(#linearGradient3069);fill-opacity:1;fill-rule:evenodd;stroke:none"
       d="m 70.088942,55.358006 -36.185038,0.293759 c 0,0 6.130558,14.755722 22.039073,18.973795 9.280116,-0.602581 14.145965,-16.254644 14.145965,-19.267554 z"
       id="path2113"
       sodipodi:nodetypes="cccc" />
    <rect
       style="fill:#000000;fill-opacity:0.25910932;fill-rule:evenodd;stroke:none"
       id="rect4405"
       width="71.888023"
       height="2.922085"
       x="20.622456"
       y="24.223635" />
    <rect
       style="fill:#ffffff;fill-opacity:1;fill-rule:evenodd;stroke:none"
       id="rect5934"
       width="66.16436"
       height="2.922085"
       x="21.258419"
       y="133.79207" />
    <rect
       style="fill:#ffffff;fill-opacity:1;fill-rule:evenodd;stroke:none"
       id="rect5936"
       width="71.888023"
       height="2.922085"
       x="20.622456"
       y="133.47409" />
    <rect
       style="fill:#000000;fill-opacity:0.25910932;fill-rule:evenodd;stroke:none"
       id="rect5938"
       width="71.888023"
       height="2.922085"
       x="20.622456"
       y="142.33781" />
  </g>
  <path
     transform="matrix(0.84099,0,0,0.735028,40.06521,80.336265)"
     d="m 88.582675,34.212597 a 14.173228,15.944881 0 1 1 -28.346457,0 14.173228,15.944881 0 1 1 28.346457,0 z"
     sodipodi:ry="15.944881"
     sodipodi:rx="14.173228"
     sodipodi:cy="34.212597"
     sodipodi:cx="74.409447"
     id="path897"
     style="fill:#000000;fill-opacity:1;fill-rule:evenodd;stroke:none"
     sodipodi:type="arc" />
  <path
     sodipodi:nodetypes="ccccc"
     id="path898"
     d="m 87.472464,22.246337 6.501564,62.848463 15.170322,0 8.66875,-62.848463 -30.340636,0 z"
     style="fill-rule:evenodd;stroke:#000000;stroke-width:0.61162868pt;stroke-linejoin:round" />
</svg>
