<?xml version="1.0" encoding="UTF-8" standalone="no"?>
<!-- Created with Inkscape (http://www.inkscape.org/) -->
<svg
   xmlns:dc="http://purl.org/dc/elements/1.1/"
   xmlns:cc="http://web.resource.org/cc/"
   xmlns:rdf="http://www.w3.org/1999/02/22-rdf-syntax-ns#"
   xmlns:svg="http://www.w3.org/2000/svg"
   xmlns="http://www.w3.org/2000/svg"
   xmlns:xlink="http://www.w3.org/1999/xlink"
   xmlns:sodipodi="http://inkscape.sourceforge.net/DTD/sodipodi-0.dtd"
   xmlns:inkscape="http://www.inkscape.org/namespaces/inkscape"
   id="svg1"
   sodipodi:version="0.32"
   inkscape:version="0.41"
   width="128.00000pt"
   height="128.00000pt"
   sodipodi:docbase="/home/francois/Rodent/scalable/mimetypes"
   sodipodi:docname="gnome-mime-application-msword.svg">
  <metadata
     id="metadata15">
    <rdf:RDF
       id="RDF17">
      <cc:Work
         rdf:about=""
         id="Work19">
        <dc:format
           id="format21">image/svg+xml</dc:format>
        <dc:type
           id="type23"
           rdf:resource="http://purl.org/dc/dcmitype/StillImage" />
      </cc:Work>
    </rdf:RDF>
  </metadata>
  <defs
     id="defs3">
    <linearGradient
       id="linearGradient3587">
      <stop
         id="stop3589"
         offset="0.0000000"
         style="stop-color:#efe0cd;stop-opacity:0.56097561;" />
      <stop
         id="stop3591"
         offset="1.0000000"
         style="stop-color:#cececd;stop-opacity:0.21951219;" />
    </linearGradient>
    <linearGradient
       id="linearGradient2832">
      <stop
         style="stop-color:#ffffff;stop-opacity:1.0000000;"
         offset="0.0000000"
         id="stop2834" />
      <stop
         style="stop-color:#ffffff;stop-opacity:0.0000000;"
         offset="1.0000000"
         id="stop2836" />
    </linearGradient>
    <linearGradient
       id="linearGradient839">
      <stop
         style="stop-color:#46a046;stop-opacity:1.0000000;"
         offset="0.0000000"
         id="stop840" />
      <stop
         style="stop-color:#df421e;stop-opacity:1.0000000;"
         offset="0.39364964"
         id="stop841" />
      <stop
         style="stop-color:#ada7c8;stop-opacity:1.0000000;"
         offset="0.72036445"
         id="stop842" />
      <stop
         style="stop-color:#eed680;stop-opacity:1.0000000;"
         offset="1.0000000"
         id="stop843" />
    </linearGradient>
    <linearGradient
       xlink:href="#linearGradient839"
       id="linearGradient836"
       x1="1.3267924e-17"
       y1="0.50000000"
       x2="1.0000000"
       y2="0.50000000" />
    <linearGradient
       inkscape:collect="always"
       xlink:href="#linearGradient2832"
       id="linearGradient2830"
       gradientTransform="matrix(0.939922,0.000000,0.000000,0.896911,4.950743,6.511692)"
       x1="23.983805"
       y1="16.369013"
       x2="72.999245"
       y2="73.398720"
       gradientUnits="userSpaceOnUse" />
    <linearGradient
       gradientUnits="userSpaceOnUse"
       gradientTransform="scale(1.080100,0.925840)"
       spreadMethod="reflect"
       y2="55.073781"
       x2="76.569053"
       y1="73.521367"
       x1="95.121380"
       id="linearGradient674"
       xlink:href="#linearGradient869" />
    <linearGradient
       y2="0.50000000"
       x2="1.0000000"
       y1="0.50000000"
       x1="1.3267924e-17"
       id="linearGradient1373"
       xlink:href="#linearGradient839" />
    <linearGradient
       id="linearGradient1363">
      <stop
         id="stop1365"
         offset="0.0000000"
         style="stop-color:#46a046;stop-opacity:1.0000000;" />
      <stop
         id="stop1367"
         offset="0.39364964"
         style="stop-color:#df421e;stop-opacity:1.0000000;" />
      <stop
         id="stop1369"
         offset="0.72036445"
         style="stop-color:#ada7c8;stop-opacity:1.0000000;" />
      <stop
         id="stop1371"
         offset="1.0000000"
         style="stop-color:#eed680;stop-opacity:1.0000000;" />
    </linearGradient>
    <linearGradient
       gradientUnits="userSpaceOnUse"
       gradientTransform="scale(0.999352,1.000649)"
       spreadMethod="reflect"
       y2="75.142359"
       x2="47.145329"
       y1="81.199529"
       x1="52.724242"
       id="linearGradient904"
       xlink:href="#linearGradient907" />
    <linearGradient
       id="linearGradient866">
      <stop
         id="stop867"
         offset="0.0000000"
         style="stop-color:#ffff00;stop-opacity:1.0000000;" />
      <stop
         id="stop901"
         offset="0.36908397"
         style="stop-color:#ffea00;stop-opacity:1.0000000;" />
      <stop
         id="stop868"
         offset="1.0000000"
         style="stop-color:#ffd600;stop-opacity:1.0000000;" />
    </linearGradient>
    <linearGradient
       id="linearGradient869">
      <stop
         id="stop870"
         offset="0.0000000"
         style="stop-color:#990000;stop-opacity:1.0000000;" />
      <stop
         id="stop871"
         offset="1.0000000"
         style="stop-color:#ffffff;stop-opacity:1.0000000;" />
    </linearGradient>
    <linearGradient
       id="linearGradient907">
      <stop
         id="stop908"
         offset="0.0000000"
         style="stop-color:#eed680;stop-opacity:1.0000000;" />
      <stop
         id="stop911"
         offset="0.29427481"
         style="stop-color:#dfb546;stop-opacity:1.0000000;" />
      <stop
         id="stop910"
         offset="1.0000000"
         style="stop-color:#d1940c;stop-opacity:1.0000000;" />
    </linearGradient>
    <linearGradient
       y2="49.744450"
       x2="-66.468513"
       y1="63.613220"
       x1="-54.605907"
       spreadMethod="reflect"
       gradientTransform="scale(1.080100,0.925840)"
       gradientUnits="userSpaceOnUse"
       id="linearGradient2167"
       xlink:href="#linearGradient869"
       inkscape:collect="always" />
    <linearGradient
       y2="75.142359"
       x2="47.145329"
       y1="81.199529"
       x1="52.724242"
       spreadMethod="reflect"
       gradientTransform="matrix(0.999352,0.000000,0.000000,1.000649,-151.1197,-0.373250)"
       gradientUnits="userSpaceOnUse"
       id="linearGradient2169"
       xlink:href="#linearGradient907"
       inkscape:collect="always" />
  </defs>
  <sodipodi:namedview
     inkscape:guide-bbox="true"
     showguides="true"
     id="base"
     pagecolor="#ffffff"
     bordercolor="#666666"
     borderopacity="1.0"
     inkscape:pageopacity="0.0"
     inkscape:pageshadow="2"
     inkscape:zoom="2.9500000"
     inkscape:cx="80.000000"
     inkscape:cy="79.237319"
     inkscape:window-width="782"
     inkscape:window-height="653"
     showgrid="true"
     snaptogrid="false"
     gridspacingx="1.0000000mm"
     gridspacingy="1.0000000mm"
     inkscape:window-x="0"
     inkscape:window-y="51"
     inkscape:current-layer="svg1" />
  <rect
     style="stroke-miterlimit:4.0000000;stroke-dasharray:none;stroke-opacity:0.49999997;stroke-linejoin:round;stroke-width:7.5000000;stroke:#000000;fill-rule:evenodd;fill:none"
     id="rect834"
     width="117.75612"
     height="133.38696"
     x="20.782476"
     y="13.614116"
     ry="22.892691"
     rx="22.892691" />
  <rect
     style="fill:#bab5ab;fill-opacity:1.0000000;fill-rule:evenodd;stroke:#000000;stroke-width:3.7500000;stroke-dasharray:none;stroke-miterlimit:4.0000000"
     id="rect828"
     width="117.75612"
     height="133.38696"
     x="20.643702"
     y="13.524447"
     ry="22.892691"
     rx="22.892691" />
  <path
     style="stroke-width:6.2500000;stroke:none;fill-rule:evenodd;fill-opacity:0.27935222;fill:#ffffff"
     d="M 117.38055,142.41910 L 41.662967,142.41910 C 30.018294,142.41910 24.316361,136.71717 24.316361,125.07250 C 24.316361,125.07250 51.936692,58.557014 134.72716,48.414718 L 134.72716,125.07250 C 134.72716,136.71717 129.02522,142.41910 117.38055,142.41910 z "
     id="path2838"
     sodipodi:nodetypes="cccccc" />
  <path
     id="path2171"
     d="M 126.49254,102.67793 L 126.49254,108.03793 L 114.97254,108.03793 C 112.41254,108.03793 110.49254,108.89126 109.21254,110.59793 C 107.93254,112.30459 107.29254,114.85126 107.29254,118.23793 C 107.29254,121.65126 107.89254,124.21126 109.09254,125.91793 C 110.29254,127.62459 112.25254,128.47793 114.97254,128.47793 L 126.49254,128.47793 L 126.49254,133.79793 L 112.97254,133.79793 C 108.75921,133.79793 105.51921,132.46459 103.25254,129.79793 C 101.01254,127.10459 99.892537,123.25126 99.892537,118.23793 C 99.892537,113.17126 101.01254,109.31793 103.25254,106.67793 C 105.49254,104.01126 108.73254,102.67793 112.97254,102.67793 L 126.49254,102.67793 z M 65.092536,118.23793 C 65.092536,115.65126 65.345870,113.46459 65.852536,111.67793 C 66.385870,109.86459 67.212536,108.27793 68.332536,106.91793 C 70.865870,103.79793 75.052536,102.23793 80.892536,102.23793 C 86.572536,102.23793 90.759203,103.78459 93.452536,106.87793 C 93.905870,107.43793 94.359203,108.15793 94.812536,109.03793 C 94.865870,109.14459 94.999203,109.45126 95.212536,109.95793 C 95.425870,110.46459 95.639203,111.03793 95.852536,111.67793 C 96.412536,113.57126 96.692536,115.75793 96.692536,118.23793 C 96.692536,123.14459 95.625870,126.91793 93.492536,129.55793 C 90.879203,132.67793 86.679203,134.23793 80.892536,134.23793 C 75.052536,134.23793 70.865870,132.69126 68.332536,129.59793 C 66.172536,127.03793 65.092536,123.25126 65.092536,118.23793 z M 80.892536,107.35793 C 78.172536,107.35793 76.079203,108.01126 74.612536,109.31793 C 72.932536,110.91793 72.092536,113.89126 72.092536,118.23793 C 72.092536,121.65126 72.559203,124.15793 73.492536,125.75793 C 74.772536,127.99793 77.239203,129.11793 80.892536,129.11793 C 84.385870,129.11793 86.852536,127.99793 88.292536,125.75793 C 89.252536,124.15793 89.732536,121.65126 89.732536,118.23793 C 89.732536,114.77126 89.265870,112.26459 88.332536,110.71793 C 86.972536,108.47793 84.492536,107.35793 80.892536,107.35793 z M 32.532534,102.67793 L 49.052534,102.67793 C 53.239203,102.67793 56.425870,104.01126 58.612536,106.67793 C 60.799203,109.34459 61.892536,113.19793 61.892536,118.23793 C 61.892536,123.22459 60.799203,127.06459 58.612536,129.75793 C 56.452536,132.45126 53.265870,133.79793 49.052534,133.79793 L 32.532534,133.79793 L 32.532534,102.67793 z M 39.012534,128.47793 L 46.892534,128.47793 C 49.505870,128.47793 51.439203,127.63793 52.692536,125.95793 C 53.945870,124.25126 54.572536,121.67793 54.572536,118.23793 C 54.572536,114.79793 53.972536,112.23793 52.772536,110.55793 C 51.599203,108.87793 49.639203,108.03793 46.892534,108.03793 L 39.012534,108.03793 L 39.012534,128.47793 z "
     style="font-size:40.000000;fill:#ffffff;fill-opacity:1.0000000;stroke-width:1.0000000pt;font-family:Trek" />
  <path
     id="path905"
     d="M 127.17050,103.35589 L 127.17050,108.71589 L 115.65050,108.71589 C 113.09050,108.71589 111.17050,109.56922 109.89050,111.27589 C 108.61050,112.98255 107.97050,115.52922 107.97050,118.91589 C 107.97050,122.32922 108.57050,124.88922 109.77050,126.59589 C 110.97050,128.30255 112.93050,129.15589 115.65050,129.15589 L 127.17050,129.15589 L 127.17050,134.47589 L 113.65050,134.47589 C 109.43717,134.47589 106.19717,133.14255 103.93050,130.47589 C 101.69050,127.78255 100.57050,123.92922 100.57050,118.91589 C 100.57050,113.84922 101.69050,109.99589 103.93050,107.35589 C 106.17050,104.68922 109.41050,103.35589 113.65050,103.35589 L 127.17050,103.35589 z M 65.770502,118.91589 C 65.770502,116.32922 66.023836,114.14255 66.530502,112.35589 C 67.063836,110.54255 67.890502,108.95589 69.010502,107.59589 C 71.543836,104.47589 75.730502,102.91589 81.570502,102.91589 C 87.250502,102.91589 91.437169,104.46255 94.130502,107.55589 C 94.583836,108.11589 95.037169,108.83589 95.490502,109.71589 C 95.543836,109.82255 95.677169,110.12922 95.890502,110.63589 C 96.103836,111.14255 96.317169,111.71589 96.530502,112.35589 C 97.090502,114.24922 97.370502,116.43589 97.370502,118.91589 C 97.370502,123.82255 96.303836,127.59589 94.170502,130.23589 C 91.557169,133.35589 87.357169,134.91589 81.570502,134.91589 C 75.730502,134.91589 71.543836,133.36922 69.010502,130.27589 C 66.850502,127.71589 65.770502,123.92922 65.770502,118.91589 z M 81.570502,108.03589 C 78.850502,108.03589 76.757169,108.68922 75.290502,109.99589 C 73.610502,111.59589 72.770502,114.56922 72.770502,118.91589 C 72.770502,122.32922 73.237169,124.83589 74.170502,126.43589 C 75.450502,128.67589 77.917169,129.79589 81.570502,129.79589 C 85.063836,129.79589 87.530502,128.67589 88.970502,126.43589 C 89.930502,124.83589 90.410502,122.32922 90.410502,118.91589 C 90.410502,115.44922 89.943836,112.94255 89.010502,111.39589 C 87.650502,109.15589 85.170502,108.03589 81.570502,108.03589 z M 33.210500,103.35589 L 49.730500,103.35589 C 53.917169,103.35589 57.103836,104.68922 59.290502,107.35589 C 61.477169,110.02255 62.570502,113.87589 62.570502,118.91589 C 62.570502,123.90255 61.477169,127.74255 59.290502,130.43589 C 57.130502,133.12922 53.943836,134.47589 49.730500,134.47589 L 33.210500,134.47589 L 33.210500,103.35589 z M 39.690500,129.15589 L 47.570500,129.15589 C 50.183836,129.15589 52.117169,128.31589 53.370502,126.63589 C 54.623836,124.92922 55.250502,122.35589 55.250502,118.91589 C 55.250502,115.47589 54.650502,112.91589 53.450502,111.23589 C 52.277169,109.55589 50.317169,108.71589 47.570500,108.71589 L 39.690500,108.71589 L 39.690500,129.15589 z "
     style="font-size:40.000000;stroke-width:1.0000000pt;font-family:Trek" />
  <g
     transform="translate(148.0000,0.000000)"
     id="g2160">
    <path
       sodipodi:nodetypes="cccc"
       id="path873"
       d="M -81.317197,63.097780 L -76.328485,64.170081 L -78.286689,61.139573 L -81.317197,63.097780 z "
       style="fill-rule:evenodd;stroke:#000000;stroke-width:0.72004113pt" />
    <path
       style="fill:none;stroke:#000000;stroke-width:0.16759372"
       d="M -62.246200,51.016016 C -62.246200,51.016016 -60.572575,50.718565 -60.572575,50.718565 C -60.572575,50.718565 -59.202748,51.834488 -59.202748,51.834488 C -59.238682,51.169576 -59.546838,50.939043 -60.196908,50.635018 C -60.196908,50.635018 -60.129396,50.320931 -60.129396,50.320931 C -59.378062,50.153836 -59.207106,50.190583 -58.730172,49.635908 C -58.730172,49.635908 -60.574753,49.896612 -60.574753,49.896612 C -60.574753,49.896612 -61.807379,48.974475 -61.807379,48.974475 C -61.771445,49.639388 -61.600489,49.676135 -60.984176,50.137200 C -60.984176,50.137200 -62.246200,51.016016 -62.246200,51.016016 z M -61.501401,48.383055 C -61.501401,48.383055 -60.714132,48.880866 -60.714132,48.880866 C -59.211463,48.546669 -58.833617,49.285075 -58.358863,47.908450 C -58.358863,47.908450 -58.700774,47.834958 -58.700774,47.834958 C -59.211463,48.546669 -59.553375,48.473177 -60.408154,48.289445 C -60.408154,48.289445 -60.239377,47.504242 -60.239377,47.504242 C -60.239377,47.504242 -60.581290,47.430749 -60.581290,47.430749 C -60.581290,47.430749 -60.750067,48.215953 -60.750067,48.215953 C -60.750067,48.215953 -61.433890,48.068968 -61.433890,48.068968 C -61.433890,48.068968 -61.501401,48.383055 -61.501401,48.383055 z M -58.432908,45.756664 C -58.430729,46.578617 -58.464486,46.735664 -59.283332,47.216846 C -59.283332,47.216846 -58.945777,45.646425 -58.945777,45.646425 C -60.722846,45.593042 -60.480023,46.959622 -59.692753,47.457433 C -58.529818,47.871704 -57.542195,46.605308 -58.432908,45.756664 z M -60.007446,44.761034 C -60.007446,44.761034 -57.785019,45.238735 -57.785019,45.238735 C -57.785019,45.238735 -57.717507,44.924648 -57.717507,44.924648 C -58.743244,44.704171 -59.256111,44.593932 -59.395488,43.578186 C -59.395488,43.578186 -59.737401,43.504693 -59.737401,43.504693 C -59.737401,43.504693 -59.564267,44.363400 -59.564267,44.363400 C -59.564267,44.363400 -60.007446,44.761034 -60.007446,44.761034 z M -59.669891,43.190613 C -59.669891,43.190613 -57.447463,43.668315 -57.447463,43.668315 C -57.447463,43.668315 -57.379951,43.354228 -57.379951,43.354228 C -57.721864,43.280735 -59.602379,42.876526 -58.749779,42.238304 C -58.511310,41.960964 -57.485575,42.181441 -57.143663,42.254934 C -57.143663,42.254934 -57.076153,41.940854 -57.076153,41.940854 C -57.418065,41.867361 -59.127625,41.499898 -58.479735,40.981970 C -58.241267,40.704630 -57.215531,40.925107 -56.873619,40.998599 C -56.873619,40.998599 -56.772353,40.527473 -56.772353,40.527473 C -57.285221,40.417234 -58.140000,40.233502 -58.686623,40.280304 C -59.096047,40.520898 -59.399848,41.934279 -59.330157,42.442145 C -59.363913,42.599192 -59.192957,42.635939 -59.226712,42.792979 C -59.226712,42.792979 -59.669891,43.190613 -59.669891,43.190613 z M -59.355198,45.887013 C -59.355198,45.887013 -59.625243,47.143353 -59.625243,47.143353 C -60.036844,46.561988 -60.140289,46.211154 -59.355198,45.887013 z "
       id="path900" />
    <path
       sodipodi:nodetypes="cccc"
       id="path879"
       d="M -90.412933,65.688043 C -75.104619,49.385236 -43.627200,17.342738 -32.017540,29.139154 C -21.748650,41.371321 -61.572464,66.781133 -78.400378,77.559753 L -90.412933,65.688043 z "
       style="fill:url(#linearGradient2167);fill-opacity:1.0000000;fill-rule:evenodd;stroke:#000000;stroke-width:3.6002057" />
    <path
       sodipodi:nodetypes="cccccccc"
       id="path868"
       d="M -80.266178,76.307212 C -80.266178,76.307212 -83.886954,83.283950 -82.131989,85.314942 C -80.303635,86.916702 -97.836559,92.218905 -100.68798,91.898047 C -100.68798,91.898055 -103.15674,97.307853 -106.74006,93.675094 C -110.32338,90.042343 -104.68149,87.418103 -104.68149,87.418103 C -104.67634,83.221775 -100.04858,67.151169 -98.256925,68.967546 C -96.465265,70.783921 -89.224475,67.225324 -89.224475,67.225324 C -89.224475,67.225324 -80.266178,76.307212 -80.266178,76.307212 z "
       style="fill:url(#linearGradient2169);fill-opacity:0.75000000;fill-rule:evenodd;stroke:#000000;stroke-width:2.7001543" />
    <path
       sodipodi:nodetypes="cc"
       id="path876"
       d="M -105.52241,92.488546 C -105.52241,92.488546 -90.991393,78.155268 -90.991393,78.155268"
       style="fill:none;fill-opacity:0.75000000;fill-rule:evenodd;stroke:#000000;stroke-width:0.72004113pt;stroke-linecap:round;stroke-linejoin:round" />
  </g>
  <path
     style="fill:url(#linearGradient2830);fill-opacity:1.0000000;fill-rule:evenodd;stroke:none;stroke-width:6.2500000"
     d="M 41.662967,17.197108 L 117.38055,17.197108 C 129.02522,17.197108 134.72716,22.899041 134.72716,34.543716 C 134.72716,34.543716 55.440598,35.449314 24.316361,125.89213 L 24.316361,34.543716 C 24.316361,24.254973 31.374226,17.197108 41.662967,17.197108 z "
     id="rect2063"
     sodipodi:nodetypes="cccccc" />
</svg>
