<?xml version="1.0" encoding="UTF-8" standalone="no"?>
<!-- Created with Inkscape (http://www.inkscape.org/) -->
<svg
   xmlns:dc="http://purl.org/dc/elements/1.1/"
   xmlns:cc="http://web.resource.org/cc/"
   xmlns:rdf="http://www.w3.org/1999/02/22-rdf-syntax-ns#"
   xmlns:svg="http://www.w3.org/2000/svg"
   xmlns="http://www.w3.org/2000/svg"
   xmlns:xlink="http://www.w3.org/1999/xlink"
   xmlns:sodipodi="http://inkscape.sourceforge.net/DTD/sodipodi-0.dtd"
   xmlns:inkscape="http://www.inkscape.org/namespaces/inkscape"
   sodipodi:docname="gnome-mime-application-qif.svg"
   sodipodi:docbase="/home/francois/Rodent/scalable/mimetypes"
   height="128.00000pt"
   width="128.00000pt"
   inkscape:version="0.41"
   sodipodi:version="0.32"
   id="svg1">
  <metadata
     id="metadata15">
    <rdf:RDF
       id="RDF17">
      <cc:Work
         id="Work19"
         rdf:about="">
        <dc:format
           id="format21">image/svg+xml</dc:format>
        <dc:type
           rdf:resource="http://purl.org/dc/dcmitype/StillImage"
           id="type23" />
      </cc:Work>
    </rdf:RDF>
  </metadata>
  <defs
     id="defs3">
    <linearGradient
       id="linearGradient3587">
      <stop
         style="stop-color:#efe0cd;stop-opacity:0.56097561;"
         offset="0.0000000"
         id="stop3589" />
      <stop
         style="stop-color:#cececd;stop-opacity:0.21951219;"
         offset="1.0000000"
         id="stop3591" />
    </linearGradient>
    <linearGradient
       id="linearGradient2832">
      <stop
         id="stop2834"
         offset="0.0000000"
         style="stop-color:#ffffff;stop-opacity:1.0000000;" />
      <stop
         id="stop2836"
         offset="1.0000000"
         style="stop-color:#ffffff;stop-opacity:0.0000000;" />
    </linearGradient>
    <linearGradient
       id="linearGradient839">
      <stop
         id="stop840"
         offset="0.0000000"
         style="stop-color:#46a046;stop-opacity:1.0000000;" />
      <stop
         id="stop841"
         offset="0.39364964"
         style="stop-color:#df421e;stop-opacity:1.0000000;" />
      <stop
         id="stop842"
         offset="0.72036445"
         style="stop-color:#ada7c8;stop-opacity:1.0000000;" />
      <stop
         id="stop843"
         offset="1.0000000"
         style="stop-color:#eed680;stop-opacity:1.0000000;" />
    </linearGradient>
    <linearGradient
       y2="0.50000000"
       x2="1.0000000"
       y1="0.50000000"
       x1="1.3267924e-17"
       id="linearGradient836"
       xlink:href="#linearGradient839" />
    <linearGradient
       gradientUnits="userSpaceOnUse"
       y2="73.398720"
       x2="72.999245"
       y1="16.369013"
       x1="23.983805"
       gradientTransform="matrix(0.939922,0.000000,0.000000,0.896911,4.950743,6.511692)"
       id="linearGradient2830"
       xlink:href="#linearGradient2832"
       inkscape:collect="always" />
    <linearGradient
       inkscape:collect="always"
       xlink:href="#linearGradient1700"
       id="linearGradient1407"
       gradientUnits="userSpaceOnUse"
       gradientTransform="matrix(0.777129,0.000000,0.000000,0.894628,-162.4688,12.76856)"
       x1="111.32588"
       y1="124.28045"
       x2="107.31592"
       y2="93.732185" />
    <linearGradient
       inkscape:collect="always"
       xlink:href="#linearGradient1700"
       id="linearGradient1390"
       gradientUnits="userSpaceOnUse"
       gradientTransform="matrix(0.777129,0.000000,0.000000,0.894628,-2.922179,10.43077)"
       x1="111.32588"
       y1="124.28045"
       x2="107.31592"
       y2="93.732185" />
    <linearGradient
       id="linearGradient1350">
      <stop
         id="stop1352"
         offset="0.0000000"
         style="stop-color:#46a046;stop-opacity:1.0000000;" />
      <stop
         id="stop1354"
         offset="0.39364964"
         style="stop-color:#df421e;stop-opacity:1.0000000;" />
      <stop
         id="stop1356"
         offset="0.72036445"
         style="stop-color:#ada7c8;stop-opacity:1.0000000;" />
      <stop
         id="stop1358"
         offset="1.0000000"
         style="stop-color:#eed680;stop-opacity:1.0000000;" />
    </linearGradient>
    <linearGradient
       y2="0.50000000"
       x2="1.0000000"
       y1="0.50000000"
       x1="1.3267924e-17"
       id="linearGradient1360"
       xlink:href="#linearGradient839" />
    <linearGradient
       gradientUnits="userSpaceOnUse"
       y2="87.980263"
       x2="128.66997"
       y1="121.73159"
       x1="123.50353"
       gradientTransform="matrix(0.870364,0.000000,0.000000,1.001961,4.612015,4.886798)"
       id="linearGradient1362"
       xlink:href="#linearGradient1700"
       inkscape:collect="always" />
    <linearGradient
       y2="0.50000000"
       x2="1.0000000"
       y1="0.50000000"
       x1="1.3267924e-17"
       id="linearGradient1363"
       xlink:href="#linearGradient839" />
    <linearGradient
       id="linearGradient1353">
      <stop
         id="stop1355"
         offset="0.0000000"
         style="stop-color:#46a046;stop-opacity:1.0000000;" />
      <stop
         id="stop1357"
         offset="0.39364964"
         style="stop-color:#df421e;stop-opacity:1.0000000;" />
      <stop
         id="stop1359"
         offset="0.72036445"
         style="stop-color:#ada7c8;stop-opacity:1.0000000;" />
      <stop
         id="stop1361"
         offset="1.0000000"
         style="stop-color:#eed680;stop-opacity:1.0000000;" />
    </linearGradient>
    <linearGradient
       id="linearGradient1700">
      <stop
         id="stop1701"
         offset="0.0000000"
         style="stop-color:#000000;stop-opacity:0.69918698;" />
      <stop
         id="stop1702"
         offset="1"
         style="stop-color:#000000;stop-opacity:0;" />
    </linearGradient>
    <linearGradient
       xlink:href="#linearGradient839"
       id="linearGradient1427"
       x1="1.3267924e-17"
       y1="0.50000000"
       x2="1.0000000"
       y2="0.50000000" />
    <linearGradient
       id="linearGradient1417">
      <stop
         style="stop-color:#46a046;stop-opacity:1.0000000;"
         offset="0.0000000"
         id="stop1419" />
      <stop
         style="stop-color:#df421e;stop-opacity:1.0000000;"
         offset="0.39364964"
         id="stop1421" />
      <stop
         style="stop-color:#ada7c8;stop-opacity:1.0000000;"
         offset="0.72036445"
         id="stop1423" />
      <stop
         style="stop-color:#eed680;stop-opacity:1.0000000;"
         offset="1.0000000"
         id="stop1425" />
    </linearGradient>
    <linearGradient
       y2="0.50000000"
       x2="1.0000000"
       y1="0.50000000"
       x1="1.3267924e-17"
       id="linearGradient1381"
       xlink:href="#linearGradient839" />
    <linearGradient
       id="linearGradient1371">
      <stop
         id="stop1373"
         offset="0.0000000"
         style="stop-color:#46a046;stop-opacity:1.0000000;" />
      <stop
         id="stop1375"
         offset="0.39364964"
         style="stop-color:#df421e;stop-opacity:1.0000000;" />
      <stop
         id="stop1377"
         offset="0.72036445"
         style="stop-color:#ada7c8;stop-opacity:1.0000000;" />
      <stop
         id="stop1379"
         offset="1.0000000"
         style="stop-color:#eed680;stop-opacity:1.0000000;" />
    </linearGradient>
    <linearGradient
       xlink:href="#linearGradient839"
       id="linearGradient1374"
       x1="1.3267924e-17"
       y1="0.50000000"
       x2="1.0000000"
       y2="0.50000000" />
    <linearGradient
       id="linearGradient1364">
      <stop
         style="stop-color:#46a046;stop-opacity:1.0000000;"
         offset="0.0000000"
         id="stop1366" />
      <stop
         style="stop-color:#df421e;stop-opacity:1.0000000;"
         offset="0.39364964"
         id="stop1368" />
      <stop
         style="stop-color:#ada7c8;stop-opacity:1.0000000;"
         offset="0.72036445"
         id="stop1370" />
      <stop
         style="stop-color:#eed680;stop-opacity:1.0000000;"
         offset="1.0000000"
         id="stop1372" />
    </linearGradient>
    <linearGradient
       y2="0.50000000"
       x2="1.0000000"
       y1="0.50000000"
       x1="1.3267924e-17"
       id="linearGradient1389"
       xlink:href="#linearGradient839" />
    <linearGradient
       id="linearGradient833">
      <stop
         id="stop834"
         offset="0.0000000"
         style="stop-color:#00ff00;stop-opacity:1.0000000;" />
      <stop
         id="stop837"
         offset="0.30839416"
         style="stop-color:#ff0000;stop-opacity:1.0000000;" />
      <stop
         id="stop838"
         offset="0.75000000"
         style="stop-color:#7f8cff;stop-opacity:1.0000000;" />
      <stop
         id="stop835"
         offset="1.0000000"
         style="stop-color:#ffff00;stop-opacity:1.0000000;" />
    </linearGradient>
    <linearGradient
       id="linearGradient1373">
      <stop
         id="stop1376"
         offset="0.0000000"
         style="stop-color:#46a046;stop-opacity:1.0000000;" />
      <stop
         id="stop1378"
         offset="0.39364964"
         style="stop-color:#df421e;stop-opacity:1.0000000;" />
      <stop
         id="stop1380"
         offset="0.72036445"
         style="stop-color:#ada7c8;stop-opacity:1.0000000;" />
      <stop
         id="stop1382"
         offset="1.0000000"
         style="stop-color:#eed680;stop-opacity:1.0000000;" />
    </linearGradient>
  </defs>
  <sodipodi:namedview
     inkscape:current-layer="svg1"
     inkscape:window-y="34"
     inkscape:window-x="0"
     gridspacingy="1.0000000mm"
     gridspacingx="1.0000000mm"
     snaptogrid="false"
     showgrid="true"
     inkscape:window-height="653"
     inkscape:window-width="756"
     inkscape:cy="80.000000"
     inkscape:cx="80.000000"
     inkscape:zoom="2.9500000"
     inkscape:pageshadow="2"
     inkscape:pageopacity="0.0"
     borderopacity="1.0"
     bordercolor="#666666"
     pagecolor="#ffffff"
     id="base" />
  <rect
     rx="22.892691"
     ry="22.892691"
     y="13.614116"
     x="20.782476"
     height="133.38696"
     width="117.75612"
     id="rect834"
     style="stroke-miterlimit:4.0000000;stroke-dasharray:none;stroke-opacity:0.49999997;stroke-linejoin:round;stroke-width:7.5000000;stroke:#000000;fill-rule:evenodd;fill:none" />
  <rect
     rx="22.892691"
     ry="22.892691"
     y="13.524447"
     x="20.643702"
     height="133.38696"
     width="117.75612"
     id="rect828"
     style="stroke-width:3.7500000;stroke:#000000;fill-rule:evenodd;fill-opacity:1.0000000;fill:#bab5ab;stroke-dasharray:none;stroke-miterlimit:4.0000000" />
  <path
     sodipodi:nodetypes="cccccc"
     id="path2838"
     d="M 117.38055,142.41910 L 41.662967,142.41910 C 30.018294,142.41910 24.316361,136.71717 24.316361,125.07250 C 24.316361,125.07250 51.936692,58.557014 134.72716,48.414718 L 134.72716,125.07250 C 134.72716,136.71717 129.02522,142.41910 117.38055,142.41910 z "
     style="stroke-width:6.2500000;stroke:none;fill-rule:evenodd;fill-opacity:0.27935222;fill:#ffffff" />
  <path
     id="path1403"
     d="M 114.43232,110.03794 L 104.43232,110.03794 C 102.88565,110.03794 101.64565,110.21127 100.71232,110.55794 C 100.25899,110.69127 99.858987,110.85127 99.512314,111.03794 C 99.165644,111.22461 98.832314,111.49127 98.512314,111.83794 C 97.632313,112.63794 96.992313,113.62461 96.592313,114.79794 L 96.352313,115.75794 L 96.272313,116.83794 L 96.272313,117.67794 L 114.43232,117.67794 L 114.43232,122.79794 L 96.272313,122.79794 L 96.272313,135.79794 L 89.552313,135.79794 L 89.552313,120.23794 C 89.552313,118.87794 89.592313,117.69127 89.672313,116.67794 C 89.752313,115.63794 89.885647,114.73127 90.072313,113.95794 C 90.632313,111.39794 91.805647,109.30461 93.592313,107.67794 C 94.712313,106.63794 96.072313,105.87794 97.672313,105.39794 C 99.272314,104.91794 101.29899,104.67794 103.75232,104.67794 L 114.43232,104.67794 L 114.43232,110.03794 z M 84.872313,135.79794 L 78.152313,135.79794 L 78.152313,104.67794 L 84.872313,104.67794 L 84.872313,135.79794 z M 42.992313,120.23794 C 42.992313,117.65127 43.245647,115.46461 43.752313,113.67794 C 44.285647,111.86461 45.112313,110.27794 46.232313,108.91794 C 48.765647,105.79794 52.952313,104.23794 58.792313,104.23794 C 64.472313,104.23794 68.658980,105.78461 71.352313,108.87794 C 71.805647,109.43794 72.258980,110.15794 72.712313,111.03794 C 72.765647,111.14461 72.898980,111.45127 73.112313,111.95794 C 73.325647,112.46461 73.538980,113.03794 73.752313,113.67794 C 74.312313,115.57127 74.592313,117.75794 74.592313,120.23794 C 74.592313,122.71794 74.325647,124.82461 73.792313,126.55794 C 73.285647,128.29127 72.525647,129.71794 71.512313,130.83794 L 71.432313,130.91794 L 74.992313,130.91794 L 74.992313,135.79794 L 58.792313,135.79794 C 53.058980,135.79794 48.872313,134.31794 46.232313,131.35794 C 44.072313,128.87794 42.992313,125.17127 42.992313,120.23794 z M 58.792313,109.35794 C 56.072313,109.35794 53.978980,110.01127 52.512313,111.31794 C 50.832313,112.91794 49.992313,115.89127 49.992313,120.23794 C 49.992313,123.70461 50.458980,126.14461 51.392313,127.55794 C 52.672313,129.63794 55.138980,130.67794 58.792313,130.67794 C 62.285647,130.67794 64.752313,129.63794 66.192313,127.55794 C 67.152313,126.03794 67.632313,123.59794 67.632313,120.23794 C 67.632313,116.77127 67.165647,114.26461 66.232313,112.71794 C 64.872313,110.47794 62.392313,109.35794 58.792313,109.35794 z "
     style="font-size:40.000000;fill:#ffffff;fill-opacity:1.0000000;stroke-width:1.0000000pt;font-family:Trek" />
  <path
     id="path842"
     d="M 115.11028,110.71590 L 105.11028,110.71590 C 103.56361,110.71590 102.32361,110.88923 101.39028,111.23590 C 100.93695,111.36923 100.53695,111.52923 100.19028,111.71590 C 99.843610,111.90257 99.510280,112.16923 99.190280,112.51590 C 98.310279,113.31590 97.670279,114.30257 97.270279,115.47590 L 97.030279,116.43590 L 96.950279,117.51590 L 96.950279,118.35590 L 115.11028,118.35590 L 115.11028,123.47590 L 96.950279,123.47590 L 96.950279,136.47590 L 90.230279,136.47590 L 90.230279,120.91590 C 90.230279,119.55590 90.270279,118.36923 90.350279,117.35590 C 90.430279,116.31590 90.563613,115.40923 90.750279,114.63590 C 91.310279,112.07590 92.483613,109.98257 94.270279,108.35590 C 95.390279,107.31590 96.750279,106.55590 98.350279,106.07590 C 99.950280,105.59590 101.97695,105.35590 104.43028,105.35590 L 115.11028,105.35590 L 115.11028,110.71590 z M 85.550279,136.47590 L 78.830279,136.47590 L 78.830279,105.35590 L 85.550279,105.35590 L 85.550279,136.47590 z M 43.670279,120.91590 C 43.670279,118.32923 43.923613,116.14257 44.430279,114.35590 C 44.963613,112.54257 45.790279,110.95590 46.910279,109.59590 C 49.443613,106.47590 53.630279,104.91590 59.470279,104.91590 C 65.150279,104.91590 69.336946,106.46257 72.030279,109.55590 C 72.483613,110.11590 72.936946,110.83590 73.390279,111.71590 C 73.443613,111.82257 73.576946,112.12923 73.790279,112.63590 C 74.003613,113.14257 74.216946,113.71590 74.430279,114.35590 C 74.990279,116.24923 75.270279,118.43590 75.270279,120.91590 C 75.270279,123.39590 75.003613,125.50257 74.470279,127.23590 C 73.963613,128.96923 73.203613,130.39590 72.190279,131.51590 L 72.110279,131.59590 L 75.670279,131.59590 L 75.670279,136.47590 L 59.470279,136.47590 C 53.736946,136.47590 49.550279,134.99590 46.910279,132.03590 C 44.750279,129.55590 43.670279,125.84923 43.670279,120.91590 z M 59.470279,110.03590 C 56.750279,110.03590 54.656946,110.68923 53.190279,111.99590 C 51.510279,113.59590 50.670279,116.56923 50.670279,120.91590 C 50.670279,124.38257 51.136946,126.82257 52.070279,128.23590 C 53.350279,130.31590 55.816946,131.35590 59.470279,131.35590 C 62.963613,131.35590 65.430279,130.31590 66.870279,128.23590 C 67.830279,126.71590 68.310279,124.27590 68.310279,120.91590 C 68.310279,117.44923 67.843613,114.94257 66.910279,113.39590 C 65.550279,111.15590 63.070279,110.03590 59.470279,110.03590 z "
     style="font-size:40.000000;stroke-width:1.0000000pt;font-family:Trek" />
  <path
     id="path2166"
     d="M 84.470597,24.525714 C 73.353059,26.235673 62.708332,32.803889 57.566077,43.032021 C 56.094308,45.300463 55.417073,48.089973 54.146307,50.348467 C 51.595837,50.947430 48.618505,49.753024 46.341322,51.127803 C 44.780402,53.294647 43.901716,55.856923 42.654019,58.211612 C 46.112562,58.211612 49.571105,58.211612 53.029648,58.211612 C 53.172093,60.644888 53.541915,63.310366 50.261263,62.247872 C 48.073353,62.038383 45.624881,62.616422 45.068916,65.040567 C 44.808118,66.466441 42.411574,69.818396 44.456958,69.727164 C 47.696202,69.855792 50.984790,69.457990 54.192835,69.948170 C 57.052164,77.734529 61.467429,85.379745 68.635474,89.932684 C 75.349717,94.498396 83.636118,96.679510 91.723464,95.638051 C 96.945627,95.159949 102.16472,94.007012 106.63741,91.134989 C 108.84876,89.993201 111.78076,88.566882 111.35160,85.581760 C 111.38243,83.019170 111.35373,80.455654 111.36349,77.892738 C 105.74059,83.603515 98.421280,88.190907 90.195603,88.362284 C 78.100869,89.177233 66.105305,81.144939 62.079244,69.727164 C 74.812142,69.757210 87.546045,69.666403 100.27831,69.773692 C 101.09802,67.487514 103.02627,65.431394 102.90712,62.910888 C 100.97994,61.621002 98.226369,62.667170 95.962888,62.329295 C 84.117763,62.329295 72.272642,62.329295 60.427518,62.329295 C 60.388055,60.048759 59.707120,57.126747 63.033057,58.211612 C 76.357748,58.171420 89.694275,58.291095 103.01180,58.153453 C 106.26801,57.750442 106.51404,53.570007 107.72457,51.151170 C 107.50348,49.688871 103.44730,50.891542 101.68577,50.499682 C 88.510735,50.499682 75.335699,50.499682 62.160666,50.499682 C 63.935835,46.397474 65.988164,42.312792 69.636608,39.514897 C 74.768950,34.476542 81.973880,32.222466 89.006383,31.782595 C 95.516096,31.787129 101.78839,34.568455 106.80379,38.577014 C 108.14148,40.007426 109.58481,41.345946 111.35185,42.229422 C 113.13092,40.561939 113.37582,37.890082 114.60878,35.843524 C 107.25503,27.430171 95.519597,23.198069 84.470597,24.525714 z "
     style="fill:#ffffff;fill-opacity:1.0000000;stroke:#ffffff;stroke-width:2.8465135;stroke-opacity:1.0000000" />
  <path
     id="path831"
     d="M 85.148563,25.203680 C 74.031025,26.913639 63.386298,33.481855 58.244043,43.709987 C 56.772274,45.978429 56.095039,48.767939 54.824273,51.026433 C 52.273803,51.625396 49.296471,50.430990 47.019288,51.805769 C 45.458368,53.972613 44.579682,56.534889 43.331985,58.889578 C 46.790528,58.889578 50.249071,58.889578 53.707614,58.889578 C 53.850059,61.322854 54.219881,63.988332 50.939229,62.925838 C 48.751319,62.716349 46.302847,63.294388 45.746882,65.718533 C 45.486084,67.144407 43.089540,70.496362 45.134924,70.405130 C 48.374168,70.533758 51.662756,70.135956 54.870801,70.626136 C 57.730130,78.412495 62.145395,86.057711 69.313440,90.610650 C 76.027683,95.176362 84.314084,97.357476 92.401430,96.316017 C 97.623593,95.837915 102.84268,94.684978 107.31537,91.812955 C 109.52672,90.671167 112.45872,89.244848 112.02956,86.259726 C 112.06039,83.697136 112.03169,81.133620 112.04145,78.570704 C 106.41855,84.281481 99.099246,88.868873 90.873569,89.040250 C 78.778835,89.855199 66.783271,81.822905 62.757210,70.405130 C 75.490108,70.435176 88.224011,70.344369 100.95627,70.451658 C 101.77598,68.165480 103.70423,66.109360 103.58508,63.588854 C 101.65790,62.298968 98.904335,63.345136 96.640854,63.007261 C 84.795729,63.007261 72.950608,63.007261 61.105484,63.007261 C 61.066021,60.726725 60.385086,57.804713 63.711023,58.889578 C 77.035714,58.849386 90.372241,58.969061 103.68976,58.831419 C 106.94597,58.428408 107.19200,54.247973 108.40253,51.829136 C 108.18144,50.366837 104.12526,51.569508 102.36373,51.177648 C 89.188701,51.177648 76.013665,51.177648 62.838632,51.177648 C 64.613801,47.075440 66.666130,42.990758 70.314574,40.192863 C 75.446916,35.154508 82.651846,32.900432 89.684349,32.460561 C 96.194062,32.465095 102.46635,35.246421 107.48175,39.254980 C 108.81944,40.685392 110.26277,42.023912 112.02981,42.907388 C 113.80888,41.239905 114.05378,38.568048 115.28674,36.521490 C 107.93299,28.108137 96.197563,23.876035 85.148563,25.203680 z "
     style="stroke:#000000;stroke-width:2.8465135" />
  <path
     sodipodi:nodetypes="cccccc"
     id="rect2063"
     d="M 41.662967,17.197108 L 117.38055,17.197108 C 129.02522,17.197108 134.72716,22.899041 134.72716,34.543716 C 134.72716,34.543716 55.440598,35.449314 24.316361,125.89213 L 24.316361,34.543716 C 24.316361,24.254973 31.374226,17.197108 41.662967,17.197108 z "
     style="fill:url(#linearGradient2830);fill-opacity:1.0000000;fill-rule:evenodd;stroke:none;stroke-width:6.2500000" />
</svg>
