<?xml version="1.0" encoding="UTF-8" standalone="no"?>
<!-- Created with Inkscape (http://www.inkscape.org/) -->
<svg
   xmlns:dc="http://purl.org/dc/elements/1.1/"
   xmlns:cc="http://web.resource.org/cc/"
   xmlns:rdf="http://www.w3.org/1999/02/22-rdf-syntax-ns#"
   xmlns:svg="http://www.w3.org/2000/svg"
   xmlns="http://www.w3.org/2000/svg"
   xmlns:xlink="http://www.w3.org/1999/xlink"
   xmlns:sodipodi="http://inkscape.sourceforge.net/DTD/sodipodi-0.dtd"
   xmlns:inkscape="http://www.inkscape.org/namespaces/inkscape"
   sodipodi:docname="gnome-mime-application-x-glade.svg"
   sodipodi:docbase="/home/francois/Rodent/scalable/mimetypes"
   height="128.00000pt"
   width="128.00000pt"
   inkscape:version="0.41"
   sodipodi:version="0.32"
   id="svg1">
  <metadata
     id="metadata15">
    <rdf:RDF
       id="RDF17">
      <cc:Work
         id="Work19"
         rdf:about="">
        <dc:format
           id="format21">image/svg+xml</dc:format>
        <dc:type
           rdf:resource="http://purl.org/dc/dcmitype/StillImage"
           id="type23" />
      </cc:Work>
    </rdf:RDF>
  </metadata>
  <defs
     id="defs3">
    <linearGradient
       id="linearGradient3587">
      <stop
         style="stop-color:#efe0cd;stop-opacity:0.56097561;"
         offset="0.0000000"
         id="stop3589" />
      <stop
         style="stop-color:#cececd;stop-opacity:0.21951219;"
         offset="1.0000000"
         id="stop3591" />
    </linearGradient>
    <linearGradient
       id="linearGradient2832">
      <stop
         id="stop2834"
         offset="0.0000000"
         style="stop-color:#ffffff;stop-opacity:1.0000000;" />
      <stop
         id="stop2836"
         offset="1.0000000"
         style="stop-color:#ffffff;stop-opacity:0.0000000;" />
    </linearGradient>
    <linearGradient
       id="linearGradient839">
      <stop
         id="stop840"
         offset="0.0000000"
         style="stop-color:#46a046;stop-opacity:1.0000000;" />
      <stop
         id="stop841"
         offset="0.39364964"
         style="stop-color:#df421e;stop-opacity:1.0000000;" />
      <stop
         id="stop842"
         offset="0.72036445"
         style="stop-color:#ada7c8;stop-opacity:1.0000000;" />
      <stop
         id="stop843"
         offset="1.0000000"
         style="stop-color:#eed680;stop-opacity:1.0000000;" />
    </linearGradient>
    <linearGradient
       y2="0.50000000"
       x2="1.0000000"
       y1="0.50000000"
       x1="1.3267924e-17"
       id="linearGradient836"
       xlink:href="#linearGradient839" />
    <linearGradient
       gradientUnits="userSpaceOnUse"
       y2="73.398720"
       x2="72.999245"
       y1="16.369013"
       x1="23.983805"
       gradientTransform="matrix(0.939922,0.000000,0.000000,0.896911,4.950743,6.511692)"
       id="linearGradient2830"
       xlink:href="#linearGradient2832"
       inkscape:collect="always" />
    <linearGradient
       inkscape:collect="always"
       xlink:href="#linearGradient1700"
       id="linearGradient1407"
       gradientUnits="userSpaceOnUse"
       gradientTransform="matrix(0.777129,0.000000,0.000000,0.894628,-162.4688,12.76856)"
       x1="111.32588"
       y1="124.28045"
       x2="107.31592"
       y2="93.732185" />
    <linearGradient
       inkscape:collect="always"
       xlink:href="#linearGradient1700"
       id="linearGradient1390"
       gradientUnits="userSpaceOnUse"
       gradientTransform="matrix(0.777129,0.000000,0.000000,0.894628,-2.922179,10.43077)"
       x1="111.32588"
       y1="124.28045"
       x2="107.31592"
       y2="93.732185" />
    <linearGradient
       id="linearGradient1350">
      <stop
         id="stop1352"
         offset="0.0000000"
         style="stop-color:#46a046;stop-opacity:1.0000000;" />
      <stop
         id="stop1354"
         offset="0.39364964"
         style="stop-color:#df421e;stop-opacity:1.0000000;" />
      <stop
         id="stop1356"
         offset="0.72036445"
         style="stop-color:#ada7c8;stop-opacity:1.0000000;" />
      <stop
         id="stop1358"
         offset="1.0000000"
         style="stop-color:#eed680;stop-opacity:1.0000000;" />
    </linearGradient>
    <linearGradient
       y2="0.50000000"
       x2="1.0000000"
       y1="0.50000000"
       x1="1.3267924e-17"
       id="linearGradient1360"
       xlink:href="#linearGradient839" />
    <linearGradient
       gradientUnits="userSpaceOnUse"
       y2="87.980263"
       x2="128.66997"
       y1="121.73159"
       x1="123.50353"
       gradientTransform="matrix(0.870364,0.000000,0.000000,1.001961,4.612015,4.886798)"
       id="linearGradient1362"
       xlink:href="#linearGradient1700"
       inkscape:collect="always" />
    <linearGradient
       y2="0.50000000"
       x2="1.0000000"
       y1="0.50000000"
       x1="1.3267924e-17"
       id="linearGradient1363"
       xlink:href="#linearGradient839" />
    <linearGradient
       id="linearGradient1353">
      <stop
         id="stop1355"
         offset="0.0000000"
         style="stop-color:#46a046;stop-opacity:1.0000000;" />
      <stop
         id="stop1357"
         offset="0.39364964"
         style="stop-color:#df421e;stop-opacity:1.0000000;" />
      <stop
         id="stop1359"
         offset="0.72036445"
         style="stop-color:#ada7c8;stop-opacity:1.0000000;" />
      <stop
         id="stop1361"
         offset="1.0000000"
         style="stop-color:#eed680;stop-opacity:1.0000000;" />
    </linearGradient>
    <linearGradient
       id="linearGradient1700">
      <stop
         id="stop1701"
         offset="0.0000000"
         style="stop-color:#000000;stop-opacity:0.69918698;" />
      <stop
         id="stop1702"
         offset="1"
         style="stop-color:#000000;stop-opacity:0;" />
    </linearGradient>
    <linearGradient
       xlink:href="#linearGradient839"
       id="linearGradient1427"
       x1="1.3267924e-17"
       y1="0.50000000"
       x2="1.0000000"
       y2="0.50000000" />
    <linearGradient
       id="linearGradient1417">
      <stop
         style="stop-color:#46a046;stop-opacity:1.0000000;"
         offset="0.0000000"
         id="stop1419" />
      <stop
         style="stop-color:#df421e;stop-opacity:1.0000000;"
         offset="0.39364964"
         id="stop1421" />
      <stop
         style="stop-color:#ada7c8;stop-opacity:1.0000000;"
         offset="0.72036445"
         id="stop1423" />
      <stop
         style="stop-color:#eed680;stop-opacity:1.0000000;"
         offset="1.0000000"
         id="stop1425" />
    </linearGradient>
    <linearGradient
       y2="0.50000000"
       x2="1.0000000"
       y1="0.50000000"
       x1="1.3267924e-17"
       id="linearGradient1381"
       xlink:href="#linearGradient839" />
    <linearGradient
       id="linearGradient1371">
      <stop
         id="stop1373"
         offset="0.0000000"
         style="stop-color:#46a046;stop-opacity:1.0000000;" />
      <stop
         id="stop1375"
         offset="0.39364964"
         style="stop-color:#df421e;stop-opacity:1.0000000;" />
      <stop
         id="stop1377"
         offset="0.72036445"
         style="stop-color:#ada7c8;stop-opacity:1.0000000;" />
      <stop
         id="stop1379"
         offset="1.0000000"
         style="stop-color:#eed680;stop-opacity:1.0000000;" />
    </linearGradient>
    <linearGradient
       xlink:href="#linearGradient839"
       id="linearGradient1374"
       x1="1.3267924e-17"
       y1="0.50000000"
       x2="1.0000000"
       y2="0.50000000" />
    <linearGradient
       id="linearGradient1364">
      <stop
         style="stop-color:#46a046;stop-opacity:1.0000000;"
         offset="0.0000000"
         id="stop1366" />
      <stop
         style="stop-color:#df421e;stop-opacity:1.0000000;"
         offset="0.39364964"
         id="stop1368" />
      <stop
         style="stop-color:#ada7c8;stop-opacity:1.0000000;"
         offset="0.72036445"
         id="stop1370" />
      <stop
         style="stop-color:#eed680;stop-opacity:1.0000000;"
         offset="1.0000000"
         id="stop1372" />
    </linearGradient>
    <linearGradient
       inkscape:collect="always"
       xlink:href="#linearGradient2832"
       id="linearGradient2840"
       gradientTransform="scale(0.998875,1.001127)"
       x1="41.381039"
       y1="46.285152"
       x2="78.810638"
       y2="85.785439"
       gradientUnits="userSpaceOnUse" />
    <linearGradient
       inkscape:collect="always"
       xlink:href="#linearGradient2851"
       id="linearGradient2857"
       gradientTransform="scale(0.998853,1.001148)"
       x1="44.246502"
       y1="51.416485"
       x2="79.162498"
       y2="86.589195"
       gradientUnits="userSpaceOnUse" />
    <linearGradient
       xlink:href="#linearGradient870"
       id="linearGradient1391"
       x1="0.44607842"
       y1="0.46766168"
       x2="0.55882353"
       y2="0.58706468"
       spreadMethod="reflect" />
    <linearGradient
       id="linearGradient832">
      <stop
         style="stop-color:#ffffff;stop-opacity:1.0000000;"
         offset="0.0000000"
         id="stop833" />
      <stop
         style="stop-color:#00b8df;stop-opacity:1.0000000;"
         offset="0.50000000"
         id="stop835" />
      <stop
         style="stop-color:#0058a9;stop-opacity:1.0000000;"
         offset="1.0000000"
         id="stop834" />
    </linearGradient>
    <linearGradient
       id="linearGradient870">
      <stop
         style="stop-color:#ffffff;stop-opacity:1.0000000;"
         offset="0.0000000"
         id="stop871" />
      <stop
         style="stop-color:#ff7f7f;stop-opacity:1.0000000;"
         offset="0.50000000"
         id="stop875" />
      <stop
         style="stop-color:#ff0000;stop-opacity:1.0000000;"
         offset="1.0000000"
         id="stop873" />
    </linearGradient>
    <linearGradient
       id="linearGradient2851">
      <stop
         style="stop-color:#ffffff;stop-opacity:1.0000000;"
         offset="0.0000000"
         id="stop2853" />
      <stop
         style="stop-color:#ffffff;stop-opacity:0.0000000;"
         offset="1.0000000"
         id="stop2855" />
    </linearGradient>
    <linearGradient
       id="linearGradient1375">
      <stop
         style="stop-color:#ffffff;stop-opacity:1.0000000;"
         offset="0.0000000"
         id="stop2832" />
      <stop
         style="stop-color:#ffffff;stop-opacity:0.0000000;"
         offset="1.0000000"
         id="stop1378" />
    </linearGradient>
    <linearGradient
       xlink:href="#linearGradient869"
       id="linearGradient674"
       x1="0.68852460"
       y1="0.78625953"
       x2="0.37377051"
       y2="0.47328246"
       spreadMethod="reflect" />
    <linearGradient
       xlink:href="#linearGradient839"
       id="linearGradient1432"
       x1="1.3267924e-17"
       y1="0.50000000"
       x2="1.0000000"
       y2="0.50000000" />
    <linearGradient
       id="linearGradient1422">
      <stop
         style="stop-color:#46a046;stop-opacity:1.0000000;"
         offset="0.0000000"
         id="stop1424" />
      <stop
         style="stop-color:#df421e;stop-opacity:1.0000000;"
         offset="0.39364964"
         id="stop1426" />
      <stop
         style="stop-color:#ada7c8;stop-opacity:1.0000000;"
         offset="0.72036445"
         id="stop1428" />
      <stop
         style="stop-color:#eed680;stop-opacity:1.0000000;"
         offset="1.0000000"
         id="stop1430" />
    </linearGradient>
    <linearGradient
       xlink:href="#linearGradient907"
       id="linearGradient904"
       x1="0.35737705"
       y1="0.49346405"
       x2="0.17377049"
       y2="0.29411766"
       spreadMethod="reflect" />
    <linearGradient
       id="linearGradient866">
      <stop
         style="stop-color:#ffff00;stop-opacity:1.0000000;"
         offset="0.0000000"
         id="stop867" />
      <stop
         style="stop-color:#ffea00;stop-opacity:1.0000000;"
         offset="0.36908397"
         id="stop901" />
      <stop
         style="stop-color:#ffd600;stop-opacity:1.0000000;"
         offset="1.0000000"
         id="stop868" />
    </linearGradient>
    <linearGradient
       id="linearGradient869">
      <stop
         style="stop-color:#7590ae;stop-opacity:1.0000000;"
         offset="0.0000000"
         id="stop870" />
      <stop
         style="stop-color:#89a4c0;stop-opacity:1.0000000;"
         offset="0.87030536"
         id="stop912" />
      <stop
         style="stop-color:#9db8d2;stop-opacity:1.0000000;"
         offset="1.0000000"
         id="stop1415" />
    </linearGradient>
    <linearGradient
       id="linearGradient907">
      <stop
         style="stop-color:#eed680;stop-opacity:1.0000000;"
         offset="0.0000000"
         id="stop908" />
      <stop
         style="stop-color:#dfb546;stop-opacity:1.0000000;"
         offset="0.29427481"
         id="stop911" />
      <stop
         style="stop-color:#d1940c;stop-opacity:1.0000000;"
         offset="1.0000000"
         id="stop910" />
    </linearGradient>
  </defs>
  <sodipodi:namedview
     inkscape:current-layer="svg1"
     inkscape:window-y="34"
     inkscape:window-x="0"
     gridspacingy="1.0000000mm"
     gridspacingx="1.0000000mm"
     snaptogrid="false"
     showgrid="true"
     inkscape:window-height="653"
     inkscape:window-width="756"
     inkscape:cy="79.885750"
     inkscape:cx="64.406780"
     inkscape:zoom="2.9500000"
     inkscape:pageshadow="2"
     inkscape:pageopacity="0.0"
     borderopacity="1.0"
     bordercolor="#666666"
     pagecolor="#ffffff"
     id="base" />
  <rect
     rx="22.892691"
     ry="22.892691"
     y="13.614116"
     x="20.782476"
     height="133.38696"
     width="117.75612"
     id="rect834"
     style="stroke-miterlimit:4.0000000;stroke-dasharray:none;stroke-opacity:0.49999997;stroke-linejoin:round;stroke-width:7.5000000;stroke:#000000;fill-rule:evenodd;fill:none" />
  <rect
     rx="22.892691"
     ry="22.892691"
     y="13.524447"
     x="20.643702"
     height="133.38696"
     width="117.75612"
     id="rect828"
     style="fill:#bab5ab;fill-opacity:1.0000000;fill-rule:evenodd;stroke:#000000;stroke-width:3.7500000;stroke-dasharray:none;stroke-miterlimit:4.0000000" />
  <path
     sodipodi:nodetypes="cccccc"
     id="path2838"
     d="M 117.38055,142.41910 L 41.662967,142.41910 C 30.018294,142.41910 24.316361,136.71717 24.316361,125.07250 C 24.316361,125.07250 51.936692,58.557014 134.72716,48.414718 L 134.72716,125.07250 C 134.72716,136.71717 129.02522,142.41910 117.38055,142.41910 z "
     style="stroke-width:6.2500000;stroke:none;fill-rule:evenodd;fill-opacity:0.27935222;fill:#ffffff" />
  <g
     transform="matrix(0.507928,0.000000,0.000000,0.507928,25.90004,19.30683)"
     id="g1395">
    <path
       style="fill:#b39169;fill-opacity:1.0000000;fill-rule:evenodd;stroke:#000000;stroke-width:3.7500000;stroke-linecap:butt;stroke-miterlimit:4.0000000;stroke-dashoffset:0.0000000;stroke-opacity:0.44129553"
       d="M 94.062500,9.9375000 L 83.312500,25.531250 L 80.562500,19.875000 L 76.906250,27.125000 L 64.812500,10.375000 L 59.062500,29.593750 L 41.250000,20.343750 L 44.625000,39.562500 L 38.156250,37.343750 L 40.562500,44.531250 L 20.750000,41.250000 L 30.375000,59.312500 L 10.812500,65.593750 L 26.750000,76.656250 L 20.750000,79.687500 L 27.625000,83.031250 L 11.250000,94.875000 L 30.437500,100.59375 L 21.187500,118.46875 L 40.875000,115.00000 L 38.562500,121.90625 L 44.531250,119.81250 L 41.250000,138.53125 L 59.968750,128.84375 L 66.437500,148.87500 L 77.500000,132.90625 L 80.562500,138.96875 L 83.562500,132.78125 L 94.812500,148.75000 L 100.81250,129.56250 L 118.46875,138.96875 L 115.12500,118.59375 L 122.78125,121.09375 L 120.43750,114.40625 L 139.81250,117.62500 L 130.46875,100.06250 L 149.43750,94.156250 L 133.03125,82.531250 L 139.81250,79.156250 L 132.96875,75.812500 L 149.31250,64.000000 L 130.09375,58.218750 L 139.37500,40.375000 L 119.65625,43.875000 L 121.93750,36.937500 L 115.25000,39.250000 L 118.46875,19.875000 L 100.37500,29.531250 L 94.062500,9.9375000 z M 79.250000,50.218750 C 96.090675,50.218749 109.75000,63.878072 109.75000,80.718750 C 109.75000,97.559425 96.090678,111.21875 79.250000,111.21875 C 62.409319,111.21875 48.750000,97.559428 48.750000,80.718750 C 48.749999,63.878069 62.409322,50.218750 79.250000,50.218750 z "
       id="path1306" />
    <path
       style="fill:#b39169;fill-opacity:1.0000000;fill-rule:evenodd;stroke:#000000;stroke-width:2.3157709;stroke-linecap:butt;stroke-miterlimit:4.0000000;stroke-dashoffset:0.0000000;stroke-opacity:1.0000000"
       d="M 94.062500,9.9375000 L 83.312500,25.531250 L 80.562500,19.875000 L 76.906250,27.125000 L 64.812500,10.375000 L 59.062500,29.593750 L 41.250000,20.343750 L 44.625000,39.562500 L 38.156250,37.343750 L 40.562500,44.531250 L 20.750000,41.250000 L 30.375000,59.312500 L 10.812500,65.593750 L 26.750000,76.656250 L 20.750000,79.687500 L 27.625000,83.031250 L 11.250000,94.875000 L 30.437500,100.59375 L 21.187500,118.46875 L 40.875000,115.00000 L 38.562500,121.90625 L 44.531250,119.81250 L 41.250000,138.53125 L 59.968750,128.84375 L 66.437500,148.87500 L 77.500000,132.90625 L 80.562500,138.96875 L 83.562500,132.78125 L 94.812500,148.75000 L 100.81250,129.56250 L 118.46875,138.96875 L 115.12500,118.59375 L 122.78125,121.09375 L 120.43750,114.40625 L 139.81250,117.62500 L 130.46875,100.06250 L 149.43750,94.156250 L 133.03125,82.531250 L 139.81250,79.156250 L 132.96875,75.812500 L 149.31250,64.000000 L 130.09375,58.218750 L 139.37500,40.375000 L 119.65625,43.875000 L 121.93750,36.937500 L 115.25000,39.250000 L 118.46875,19.875000 L 100.37500,29.531250 L 94.062500,9.9375000 z M 79.250000,50.218750 C 96.090675,50.218749 109.75000,63.878072 109.75000,80.718750 C 109.75000,97.559425 96.090678,111.21875 79.250000,111.21875 C 62.409319,111.21875 48.750000,97.559428 48.750000,80.718750 C 48.749999,63.878069 62.409322,50.218750 79.250000,50.218750 z "
       id="path1308" />
    <path
       style="fill:url(#linearGradient2840);fill-opacity:1.0000000;fill-rule:evenodd;stroke:none;stroke-width:2.0372825;stroke-linecap:butt;stroke-miterlimit:4.0000000;stroke-dashoffset:0.0000000;stroke-opacity:1.0000000"
       d="M 92.318617,18.476222 L 82.861382,32.194710 L 80.442090,27.218666 L 77.225531,33.596800 L 66.586142,18.861109 L 61.527622,35.768665 L 45.857204,27.631044 L 48.826336,44.538601 L 43.135500,42.586671 L 45.252381,48.909822 L 27.822479,46.023166 L 36.290002,61.913519 L 19.080035,67.439403 L 33.100934,77.171557 L 27.822479,79.838277 L 33.870709,82.779917 L 19.464922,93.199369 L 36.344986,98.230399 L 28.207366,113.95579 L 45.527301,110.90419 L 43.492896,116.97991 L 48.743860,115.13795 L 45.857204,131.60563 L 62.324889,123.08313 L 68.015724,140.70547 L 77.747878,126.65708 L 80.442090,131.99052 L 83.081319,126.54711 L 92.978424,140.59551 L 98.256879,123.71544 L 113.78980,131.99052 L 110.84816,114.06576 L 117.58369,116.26512 L 115.52179,110.38184 L 132.56681,113.21351 L 124.34671,97.763036 L 141.03433,92.567054 L 126.60105,82.340046 L 132.56681,79.370914 L 126.54607,76.429274 L 140.92436,66.037313 L 124.01681,60.951301 L 132.18192,45.253391 L 114.83449,48.332491 L 116.84141,42.229276 L 110.95812,44.263681 L 113.78980,27.218666 L 97.871992,35.713681 L 92.318617,18.476222 z M 79.287427,53.913359 C 94.102889,53.913358 106.11954,65.930048 106.11954,80.745512 C 106.11954,95.560973 94.102892,107.57766 79.287427,107.57766 C 64.471961,107.57766 52.455274,95.560976 52.455274,80.745512 C 52.455273,65.930045 64.471964,53.913359 79.287427,53.913359 z "
       id="path2070" />
    <path
       style="fill:#ffffff;fill-opacity:0.35222670;fill-rule:evenodd;stroke:none;stroke-width:2.0372825;stroke-linecap:butt;stroke-miterlimit:4.0000000;stroke-dashoffset:0.0000000;stroke-opacity:1.0000000"
       d="M 45.857204,131.60563 L 62.324889,123.08313 L 68.015724,140.70547 L 77.747878,126.65708 L 80.442090,131.99052 L 83.081319,126.54711 L 92.978424,140.59551 L 98.256879,123.71544 L 113.78980,131.99052 L 110.84816,114.06576 L 117.58369,116.26512 L 115.52179,110.38184 L 132.56681,113.21351 L 124.34671,97.763036 L 141.03433,92.567054 L 126.60105,82.340046 L 132.56681,79.370914 L 126.54607,76.429274 L 140.92436,66.037313 L 124.01681,60.951301 L 132.18192,45.253391 L 45.857204,131.60563 z M 106.11954,80.745512 C 106.11954,95.560973 94.102892,107.57766 79.287427,107.57766 C 64.471961,107.57766 106.11954,65.930048 106.11954,80.745512 z "
       id="path2842"
       sodipodi:nodetypes="ccccccccccccccccccccccccc" />
  </g>
  <g
     id="g894"
     transform="matrix(0.705225,0.000000,0.000000,0.705225,37.56308,41.03148)">
    <path
       style="font-size:12.000000;fill:#a20000;fill-rule:evenodd;stroke:#000000;stroke-width:2.3794308"
       d="M 68.425631,79.003240 L 137.45003,122.18780 L 147.03332,108.05910 L 78.009046,64.874350 L 54.392526,60.161220 L 68.425631,79.003240 z "
       id="path572"
       sodipodi:nodetypes="cccccc"
       transform="translate(-18.95784,-35.73654)" />
    <path
       style="font-size:12.000000;fill-rule:evenodd;stroke:#000000;stroke-width:2.3794308"
       d="M 65.193339,72.987410 L 65.193339,72.987410 L 70.943353,64.510080 L 70.943353,64.510080 L 53.949764,59.915540 L 65.193339,72.987410 z "
       id="path573"
       sodipodi:nodetypes="cccccc"
       transform="translate(-18.95784,-35.73654)" />
    <path
       style="fill:#ffffff;fill-opacity:0.69230771;fill-rule:evenodd;stroke-width:1.0000000pt"
       d="M 76.964061,66.206896 L 144.29327,108.28111 L 141.83749,112.33103 L 75.122229,70.481817 L 76.964061,66.206896 z "
       id="path837"
       transform="translate(-18.95784,-35.73654)" />
    <path
       style="fill:#4e4e4a;fill-opacity:0.31538460;fill-rule:evenodd;stroke-width:1.0000000pt"
       d="M 71.971478,74.151724 L 139.49528,116.02463 L 137.03240,120.05517 L 70.124321,78.406190 L 71.971478,74.151724 z "
       id="path838"
       transform="translate(-18.95784,-35.73654)" />
  </g>
  <path
     style="font-size:40.000000;fill:#ffffff;fill-opacity:1.0000000;stroke-width:1.0000000pt;font-family:Trek"
     d="M 130.42440,120.20997 L 117.71280,120.20997 L 117.71280,120.34906 L 118.04658,122.04579 C 118.32474,122.93587 118.79759,123.73325 119.46517,124.43791 C 119.61351,124.54917 119.75258,124.64189 119.88239,124.71606 C 120.12345,124.86441 120.45724,125.04057 120.88374,125.24455 L 121.77383,125.46707 L 122.96989,125.55052 L 130.42440,125.55052 L 130.42440,129.24996 L 121.66258,129.24996 C 118.73269,129.24996 116.47965,128.32279 114.90345,126.46843 C 113.34579,124.59553 112.56696,121.91599 112.56696,118.42980 C 112.56696,114.90652 113.34579,112.22697 114.90345,110.39116 C 116.46111,108.53681 118.71415,107.60962 121.66258,107.60962 L 130.42440,107.60962 L 130.42440,111.33688 L 122.96989,111.33688 L 122.44141,111.33688 L 121.91292,111.39251 C 121.54203,111.39251 121.15262,111.48523 120.74467,111.67067 C 120.35526,111.85609 119.92875,112.11572 119.46517,112.44950 C 119.02012,112.89454 118.63071,113.47866 118.29693,114.20186 C 118.09294,114.68400 117.89823,115.45355 117.71280,116.51054 L 117.71280,116.64961 L 130.42440,116.64961 L 130.42440,120.20997 z M 89.925265,107.60962 L 101.41301,107.60962 C 104.32434,107.60962 106.54030,108.53681 108.06087,110.39116 C 109.58145,112.24551 110.34173,114.92507 110.34173,118.42980 C 110.34173,121.89744 109.58145,124.56772 108.06087,126.44060 C 106.55884,128.31351 104.34288,129.24996 101.41301,129.24996 L 89.925265,129.24996 L 89.925265,107.60962 z M 94.431351,125.55052 L 99.910977,125.55052 C 101.72824,125.55052 103.07265,124.96639 103.94421,123.79815 C 104.81575,122.61137 105.25152,120.82191 105.25152,118.42980 C 105.25152,116.03767 104.83429,114.25749 103.99984,113.08924 C 103.18391,111.92100 101.82096,111.33688 99.910977,111.33688 L 94.431351,111.33688 L 94.431351,125.55052 z M 65.336503,129.24996 L 74.599012,107.60962 L 79.355435,107.60962 L 88.617944,129.24996 L 83.666813,129.24996 L 81.525032,123.99286 L 72.485046,123.99286 L 70.315448,129.24996 L 65.336503,129.24996 z M 76.991132,112.89454 L 73.820182,120.59939 L 80.134265,120.59939 L 76.991132,112.89454 z M 56.574670,129.24996 C 55.480601,129.24996 54.479247,129.10162 53.570613,128.80492 C 52.661978,128.48968 51.883149,128.04463 51.234125,127.46978 C 50.900341,127.17309 50.575828,126.80221 50.260587,126.35717 C 50.112238,126.15319 49.991701,125.96775 49.898985,125.80086 C 49.806269,125.61542 49.685736,125.32800 49.537386,124.93858 C 49.166521,123.91869 48.981080,122.74117 48.981080,121.40603 L 48.981080,107.60962 L 53.654059,107.60962 L 53.654059,121.10007 C 53.654059,121.82327 53.737505,122.43520 53.904397,122.93587 C 54.089834,123.43655 54.405073,123.91869 54.850118,124.38227 C 55.276620,124.77169 55.768025,125.06838 56.324332,125.27237 C 56.880638,125.45780 57.483304,125.55052 58.132329,125.55052 L 64.196073,125.55052 L 64.196073,129.24996 L 56.574670,129.24996 z M 35.101226,129.24996 C 32.171344,129.24996 29.918302,128.32279 28.342099,126.46843 C 26.784437,124.59553 26.005606,121.91599 26.005606,118.42980 C 26.005606,114.90652 26.784437,112.22697 28.342099,110.39116 C 29.899761,108.53681 32.152803,107.60962 35.101226,107.60962 L 46.755854,107.60962 L 46.755854,111.33688 L 36.491998,111.33688 C 34.711811,111.33688 33.376674,111.93028 32.486585,113.11707 C 31.596497,114.30385 31.151448,116.07477 31.151448,118.42980 C 31.151448,120.80337 31.568680,122.58356 32.403134,123.77034 C 33.237599,124.95713 34.600554,125.55052 36.491998,125.55052 L 42.138512,125.55052 L 42.138512,120.20997 L 36.046949,120.20997 L 36.046949,116.64961 L 46.755854,116.64961 L 46.755854,129.24996 L 35.101226,129.24996 z "
     id="path1461" />
  <path
     style="font-size:40.000000;stroke-width:1.0000000pt;font-family:Trek"
     d="M 131.10236,120.88793 L 118.39076,120.88793 L 118.39076,121.02702 L 118.72454,122.72375 C 119.00270,123.61383 119.47555,124.41121 120.14313,125.11587 C 120.29147,125.22713 120.43054,125.31985 120.56035,125.39402 C 120.80141,125.54237 121.13520,125.71853 121.56170,125.92251 L 122.45179,126.14503 L 123.64785,126.22848 L 131.10236,126.22848 L 131.10236,129.92792 L 122.34054,129.92792 C 119.41065,129.92792 117.15761,129.00075 115.58141,127.14639 C 114.02375,125.27349 113.24492,122.59395 113.24492,119.10776 C 113.24492,115.58448 114.02375,112.90493 115.58141,111.06912 C 117.13907,109.21477 119.39211,108.28758 122.34054,108.28758 L 131.10236,108.28758 L 131.10236,112.01484 L 123.64785,112.01484 L 123.11937,112.01484 L 122.59088,112.07047 C 122.21999,112.07047 121.83058,112.16319 121.42263,112.34863 C 121.03322,112.53405 120.60671,112.79368 120.14313,113.12746 C 119.69808,113.57250 119.30867,114.15662 118.97489,114.87982 C 118.77090,115.36196 118.57619,116.13151 118.39076,117.18850 L 118.39076,117.32757 L 131.10236,117.32757 L 131.10236,120.88793 z M 90.603231,108.28758 L 102.09097,108.28758 C 105.00230,108.28758 107.21826,109.21477 108.73883,111.06912 C 110.25941,112.92347 111.01969,115.60303 111.01969,119.10776 C 111.01969,122.57540 110.25941,125.24568 108.73883,127.11856 C 107.23680,128.99147 105.02084,129.92792 102.09097,129.92792 L 90.603231,129.92792 L 90.603231,108.28758 z M 95.109317,126.22848 L 100.58894,126.22848 C 102.40620,126.22848 103.75061,125.64435 104.62217,124.47611 C 105.49371,123.28933 105.92948,121.49987 105.92948,119.10776 C 105.92948,116.71563 105.51225,114.93545 104.67780,113.76720 C 103.86187,112.59896 102.49892,112.01484 100.58894,112.01484 L 95.109317,112.01484 L 95.109317,126.22848 z M 66.014469,129.92792 L 75.276978,108.28758 L 80.033401,108.28758 L 89.295910,129.92792 L 84.344779,129.92792 L 82.202998,124.67082 L 73.163012,124.67082 L 70.993414,129.92792 L 66.014469,129.92792 z M 77.669098,113.57250 L 74.498148,121.27735 L 80.812231,121.27735 L 77.669098,113.57250 z M 57.252636,129.92792 C 56.158567,129.92792 55.157213,129.77958 54.248579,129.48288 C 53.339944,129.16764 52.561115,128.72259 51.912091,128.14774 C 51.578307,127.85105 51.253794,127.48017 50.938553,127.03513 C 50.790204,126.83115 50.669667,126.64571 50.576951,126.47882 C 50.484235,126.29338 50.363702,126.00596 50.215352,125.61654 C 49.844487,124.59665 49.659046,123.41913 49.659046,122.08399 L 49.659046,108.28758 L 54.332025,108.28758 L 54.332025,121.77803 C 54.332025,122.50123 54.415471,123.11316 54.582363,123.61383 C 54.767800,124.11451 55.083039,124.59665 55.528084,125.06023 C 55.954586,125.44965 56.445991,125.74634 57.002298,125.95033 C 57.558604,126.13576 58.161270,126.22848 58.810295,126.22848 L 64.874039,126.22848 L 64.874039,129.92792 L 57.252636,129.92792 z M 35.779192,129.92792 C 32.849310,129.92792 30.596268,129.00075 29.020065,127.14639 C 27.462403,125.27349 26.683572,122.59395 26.683572,119.10776 C 26.683572,115.58448 27.462403,112.90493 29.020065,111.06912 C 30.577727,109.21477 32.830769,108.28758 35.779192,108.28758 L 47.433820,108.28758 L 47.433820,112.01484 L 37.169964,112.01484 C 35.389777,112.01484 34.054640,112.60824 33.164551,113.79503 C 32.274463,114.98181 31.829414,116.75273 31.829414,119.10776 C 31.829414,121.48133 32.246646,123.26152 33.081100,124.44830 C 33.915565,125.63509 35.278520,126.22848 37.169964,126.22848 L 42.816478,126.22848 L 42.816478,120.88793 L 36.724915,120.88793 L 36.724915,117.32757 L 47.433820,117.32757 L 47.433820,129.92792 L 35.779192,129.92792 z "
     id="path902" />
  <path
     sodipodi:nodetypes="cccccc"
     id="rect2063"
     d="M 41.662967,17.197108 L 117.38055,17.197108 C 129.02522,17.197108 134.72716,22.899041 134.72716,34.543716 C 134.72716,34.543716 55.440598,35.449314 24.316361,125.89213 L 24.316361,34.543716 C 24.316361,24.254973 31.374226,17.197108 41.662967,17.197108 z "
     style="fill:url(#linearGradient2830);fill-opacity:1.0000000;fill-rule:evenodd;stroke:none;stroke-width:6.2500000" />
</svg>
