<?xml version="1.0" encoding="UTF-8" standalone="no"?>
<!-- Created with Inkscape (http://www.inkscape.org/) -->
<svg
   xmlns:dc="http://purl.org/dc/elements/1.1/"
   xmlns:cc="http://web.resource.org/cc/"
   xmlns:rdf="http://www.w3.org/1999/02/22-rdf-syntax-ns#"
   xmlns:svg="http://www.w3.org/2000/svg"
   xmlns="http://www.w3.org/2000/svg"
   xmlns:xlink="http://www.w3.org/1999/xlink"
   xmlns:sodipodi="http://inkscape.sourceforge.net/DTD/sodipodi-0.dtd"
   xmlns:inkscape="http://www.inkscape.org/namespaces/inkscape"
   sodipodi:docname="gnome-mime-application-vnd.ms-powerpoint.svg"
   sodipodi:docbase="/home/francois/Rodent/scalable/mimetypes"
   height="128.00000pt"
   width="128.00000pt"
   inkscape:version="0.41"
   sodipodi:version="0.32"
   id="svg1">
  <metadata
     id="metadata15">
    <rdf:RDF
       id="RDF17">
      <cc:Work
         id="Work19"
         rdf:about="">
        <dc:format
           id="format21">image/svg+xml</dc:format>
        <dc:type
           rdf:resource="http://purl.org/dc/dcmitype/StillImage"
           id="type23" />
      </cc:Work>
    </rdf:RDF>
  </metadata>
  <defs
     id="defs3">
    <linearGradient
       id="linearGradient3587">
      <stop
         style="stop-color:#efe0cd;stop-opacity:0.56097561;"
         offset="0.0000000"
         id="stop3589" />
      <stop
         style="stop-color:#cececd;stop-opacity:0.21951219;"
         offset="1.0000000"
         id="stop3591" />
    </linearGradient>
    <linearGradient
       id="linearGradient2832">
      <stop
         id="stop2834"
         offset="0.0000000"
         style="stop-color:#ffffff;stop-opacity:1.0000000;" />
      <stop
         id="stop2836"
         offset="1.0000000"
         style="stop-color:#ffffff;stop-opacity:0.0000000;" />
    </linearGradient>
    <linearGradient
       id="linearGradient839">
      <stop
         id="stop840"
         offset="0.0000000"
         style="stop-color:#46a046;stop-opacity:1.0000000;" />
      <stop
         id="stop841"
         offset="0.39364964"
         style="stop-color:#df421e;stop-opacity:1.0000000;" />
      <stop
         id="stop842"
         offset="0.72036445"
         style="stop-color:#ada7c8;stop-opacity:1.0000000;" />
      <stop
         id="stop843"
         offset="1.0000000"
         style="stop-color:#eed680;stop-opacity:1.0000000;" />
    </linearGradient>
    <linearGradient
       y2="0.50000000"
       x2="1.0000000"
       y1="0.50000000"
       x1="1.3267924e-17"
       id="linearGradient836"
       xlink:href="#linearGradient839" />
    <linearGradient
       gradientUnits="userSpaceOnUse"
       y2="73.398720"
       x2="72.999245"
       y1="16.369013"
       x1="23.983805"
       gradientTransform="matrix(0.939922,0.000000,0.000000,0.896911,4.950743,6.511692)"
       id="linearGradient2830"
       xlink:href="#linearGradient2832"
       inkscape:collect="always" />
    <linearGradient
       inkscape:collect="always"
       xlink:href="#linearGradient1700"
       id="linearGradient1407"
       gradientUnits="userSpaceOnUse"
       gradientTransform="matrix(0.777129,0.000000,0.000000,0.894628,-162.4688,12.76856)"
       x1="111.32588"
       y1="124.28045"
       x2="107.31592"
       y2="93.732185" />
    <linearGradient
       inkscape:collect="always"
       xlink:href="#linearGradient1700"
       id="linearGradient1390"
       gradientUnits="userSpaceOnUse"
       gradientTransform="matrix(0.777129,0.000000,0.000000,0.894628,-2.922179,10.43077)"
       x1="111.32588"
       y1="124.28045"
       x2="107.31592"
       y2="93.732185" />
    <linearGradient
       id="linearGradient1350">
      <stop
         id="stop1352"
         offset="0.0000000"
         style="stop-color:#46a046;stop-opacity:1.0000000;" />
      <stop
         id="stop1354"
         offset="0.39364964"
         style="stop-color:#df421e;stop-opacity:1.0000000;" />
      <stop
         id="stop1356"
         offset="0.72036445"
         style="stop-color:#ada7c8;stop-opacity:1.0000000;" />
      <stop
         id="stop1358"
         offset="1.0000000"
         style="stop-color:#eed680;stop-opacity:1.0000000;" />
    </linearGradient>
    <linearGradient
       y2="0.50000000"
       x2="1.0000000"
       y1="0.50000000"
       x1="1.3267924e-17"
       id="linearGradient1360"
       xlink:href="#linearGradient839" />
    <linearGradient
       gradientUnits="userSpaceOnUse"
       y2="87.980263"
       x2="128.66997"
       y1="121.73159"
       x1="123.50353"
       gradientTransform="matrix(0.870364,0.000000,0.000000,1.001961,4.612015,4.886798)"
       id="linearGradient1362"
       xlink:href="#linearGradient1700"
       inkscape:collect="always" />
    <linearGradient
       y2="0.50000000"
       x2="1.0000000"
       y1="0.50000000"
       x1="1.3267924e-17"
       id="linearGradient1363"
       xlink:href="#linearGradient839" />
    <linearGradient
       id="linearGradient1353">
      <stop
         id="stop1355"
         offset="0.0000000"
         style="stop-color:#46a046;stop-opacity:1.0000000;" />
      <stop
         id="stop1357"
         offset="0.39364964"
         style="stop-color:#df421e;stop-opacity:1.0000000;" />
      <stop
         id="stop1359"
         offset="0.72036445"
         style="stop-color:#ada7c8;stop-opacity:1.0000000;" />
      <stop
         id="stop1361"
         offset="1.0000000"
         style="stop-color:#eed680;stop-opacity:1.0000000;" />
    </linearGradient>
    <linearGradient
       id="linearGradient1700">
      <stop
         id="stop1701"
         offset="0.0000000"
         style="stop-color:#000000;stop-opacity:0.69918698;" />
      <stop
         id="stop1702"
         offset="1"
         style="stop-color:#000000;stop-opacity:0;" />
    </linearGradient>
    <linearGradient
       xlink:href="#linearGradient839"
       id="linearGradient1427"
       x1="1.3267924e-17"
       y1="0.50000000"
       x2="1.0000000"
       y2="0.50000000" />
    <linearGradient
       id="linearGradient1417">
      <stop
         style="stop-color:#46a046;stop-opacity:1.0000000;"
         offset="0.0000000"
         id="stop1419" />
      <stop
         style="stop-color:#df421e;stop-opacity:1.0000000;"
         offset="0.39364964"
         id="stop1421" />
      <stop
         style="stop-color:#ada7c8;stop-opacity:1.0000000;"
         offset="0.72036445"
         id="stop1423" />
      <stop
         style="stop-color:#eed680;stop-opacity:1.0000000;"
         offset="1.0000000"
         id="stop1425" />
    </linearGradient>
    <linearGradient
       y2="0.50000000"
       x2="1.0000000"
       y1="0.50000000"
       x1="1.3267924e-17"
       id="linearGradient1381"
       xlink:href="#linearGradient839" />
    <linearGradient
       id="linearGradient1371">
      <stop
         id="stop1373"
         offset="0.0000000"
         style="stop-color:#46a046;stop-opacity:1.0000000;" />
      <stop
         id="stop1375"
         offset="0.39364964"
         style="stop-color:#df421e;stop-opacity:1.0000000;" />
      <stop
         id="stop1377"
         offset="0.72036445"
         style="stop-color:#ada7c8;stop-opacity:1.0000000;" />
      <stop
         id="stop1379"
         offset="1.0000000"
         style="stop-color:#eed680;stop-opacity:1.0000000;" />
    </linearGradient>
    <linearGradient
       xlink:href="#linearGradient839"
       id="linearGradient1374"
       x1="1.3267924e-17"
       y1="0.50000000"
       x2="1.0000000"
       y2="0.50000000" />
    <linearGradient
       id="linearGradient1364">
      <stop
         style="stop-color:#46a046;stop-opacity:1.0000000;"
         offset="0.0000000"
         id="stop1366" />
      <stop
         style="stop-color:#df421e;stop-opacity:1.0000000;"
         offset="0.39364964"
         id="stop1368" />
      <stop
         style="stop-color:#ada7c8;stop-opacity:1.0000000;"
         offset="0.72036445"
         id="stop1370" />
      <stop
         style="stop-color:#eed680;stop-opacity:1.0000000;"
         offset="1.0000000"
         id="stop1372" />
    </linearGradient>
    <linearGradient
       y2="0.50000000"
       x2="1.0000000"
       y1="0.50000000"
       x1="1.3267924e-17"
       id="linearGradient1395"
       xlink:href="#linearGradient839" />
    <linearGradient
       id="linearGradient833">
      <stop
         id="stop834"
         offset="0.0000000"
         style="stop-color:#00ff00;stop-opacity:1.0000000;" />
      <stop
         id="stop837"
         offset="0.30839416"
         style="stop-color:#ff0000;stop-opacity:1.0000000;" />
      <stop
         id="stop838"
         offset="0.75000000"
         style="stop-color:#7f8cff;stop-opacity:1.0000000;" />
      <stop
         id="stop835"
         offset="1.0000000"
         style="stop-color:#ffff00;stop-opacity:1.0000000;" />
    </linearGradient>
    <linearGradient
       id="linearGradient1380">
      <stop
         id="stop1382"
         offset="0.0000000"
         style="stop-color:#46a046;stop-opacity:1.0000000;" />
      <stop
         id="stop1384"
         offset="0.39364964"
         style="stop-color:#df421e;stop-opacity:1.0000000;" />
      <stop
         id="stop1386"
         offset="0.72036445"
         style="stop-color:#ada7c8;stop-opacity:1.0000000;" />
      <stop
         id="stop1388"
         offset="1.0000000"
         style="stop-color:#eed680;stop-opacity:1.0000000;" />
    </linearGradient>
  </defs>
  <sodipodi:namedview
     inkscape:current-layer="svg1"
     inkscape:window-y="34"
     inkscape:window-x="0"
     gridspacingy="1.0000000mm"
     gridspacingx="1.0000000mm"
     snaptogrid="false"
     showgrid="true"
     inkscape:window-height="653"
     inkscape:window-width="756"
     inkscape:cy="72.542373"
     inkscape:cx="66.882490"
     inkscape:zoom="2.9500000"
     inkscape:pageshadow="2"
     inkscape:pageopacity="0.0"
     borderopacity="1.0"
     bordercolor="#666666"
     pagecolor="#ffffff"
     id="base" />
  <rect
     rx="22.892691"
     ry="22.892691"
     y="13.614116"
     x="20.782476"
     height="133.38696"
     width="117.75612"
     id="rect834"
     style="stroke-miterlimit:4.0000000;stroke-dasharray:none;stroke-opacity:0.49999997;stroke-linejoin:round;stroke-width:7.5000000;stroke:#000000;fill-rule:evenodd;fill:none" />
  <rect
     rx="22.892691"
     ry="22.892691"
     y="13.524447"
     x="20.643702"
     height="133.38696"
     width="117.75612"
     id="rect828"
     style="fill:#bab5ab;fill-opacity:1.0000000;fill-rule:evenodd;stroke:#000000;stroke-width:3.7500000;stroke-dasharray:none;stroke-miterlimit:4.0000000" />
  <path
     sodipodi:nodetypes="cccccc"
     id="path2838"
     d="M 117.38055,142.41910 L 41.662967,142.41910 C 30.018294,142.41910 24.316361,136.71717 24.316361,125.07250 C 24.316361,125.07250 51.936692,58.557014 134.72716,48.414718 L 134.72716,125.07250 C 134.72716,136.71717 129.02522,142.41910 117.38055,142.41910 z "
     style="stroke-width:6.2500000;stroke:none;fill-rule:evenodd;fill-opacity:0.27935222;fill:#ffffff" />
  <path
     id="path1424"
     d="M 96.706907,101.96608 L 124.70690,101.96608 L 124.70690,107.32608 L 114.02690,107.32608 L 114.02690,133.08608 L 107.38690,133.08608 L 107.38690,107.32608 L 96.706907,107.32608 L 96.706907,101.96608 z M 72.186906,121.96608 L 72.186906,133.08608 L 65.466906,133.08608 L 65.466906,101.96608 L 84.146907,101.96608 C 87.026907,101.96608 89.306907,102.81941 90.986907,104.52608 C 92.666907,106.20608 93.506907,108.68608 93.506907,111.96608 C 93.506907,115.21941 92.666907,117.69941 90.986907,119.40608 C 89.306907,121.11275 87.026907,121.96608 84.146907,121.96608 L 72.186906,121.96608 z M 72.186906,107.32608 L 72.186906,116.64608 L 81.106907,116.64608 C 82.573573,116.64608 83.773573,116.27275 84.706907,115.52608 C 85.640240,114.75275 86.106907,113.56608 86.106907,111.96608 C 86.106907,110.39275 85.640240,109.23275 84.706907,108.48608 C 83.800240,107.71275 82.600240,107.32608 81.106907,107.32608 L 72.186906,107.32608 z M 40.946906,121.96608 L 40.946906,133.08608 L 34.226906,133.08608 L 34.226906,101.96608 L 52.906906,101.96608 C 55.786906,101.96608 58.066906,102.81941 59.746906,104.52608 C 61.426906,106.20608 62.266906,108.68608 62.266906,111.96608 C 62.266906,115.21941 61.426906,117.69941 59.746906,119.40608 C 58.066906,121.11275 55.786906,121.96608 52.906906,121.96608 L 40.946906,121.96608 z M 40.946906,107.32608 L 40.946906,116.64608 L 49.866906,116.64608 C 51.333576,116.64608 52.533576,116.27275 53.466906,115.52608 C 54.400236,114.75275 54.866906,113.56608 54.866906,111.96608 C 54.866906,110.39275 54.400236,109.23275 53.466906,108.48608 C 52.560236,107.71275 51.360236,107.32608 49.866906,107.32608 L 40.946906,107.32608 z "
     style="font-size:40.000000;fill:#ffffff;fill-opacity:1.0000000;stroke-width:1.0000000pt;font-family:Trek" />
  <path
     id="path931"
     d="M 97.384873,102.64404 L 125.38486,102.64404 L 125.38486,108.00404 L 114.70486,108.00404 L 114.70486,133.76404 L 108.06486,133.76404 L 108.06486,108.00404 L 97.384873,108.00404 L 97.384873,102.64404 z M 72.864872,122.64404 L 72.864872,133.76404 L 66.144872,133.76404 L 66.144872,102.64404 L 84.824873,102.64404 C 87.704873,102.64404 89.984873,103.49737 91.664873,105.20404 C 93.344873,106.88404 94.184873,109.36404 94.184873,112.64404 C 94.184873,115.89737 93.344873,118.37737 91.664873,120.08404 C 89.984873,121.79071 87.704873,122.64404 84.824873,122.64404 L 72.864872,122.64404 z M 72.864872,108.00404 L 72.864872,117.32404 L 81.784873,117.32404 C 83.251539,117.32404 84.451539,116.95071 85.384873,116.20404 C 86.318206,115.43071 86.784873,114.24404 86.784873,112.64404 C 86.784873,111.07071 86.318206,109.91071 85.384873,109.16404 C 84.478206,108.39071 83.278206,108.00404 81.784873,108.00404 L 72.864872,108.00404 z M 41.624872,122.64404 L 41.624872,133.76404 L 34.904872,133.76404 L 34.904872,102.64404 L 53.584872,102.64404 C 56.464872,102.64404 58.744872,103.49737 60.424872,105.20404 C 62.104872,106.88404 62.944872,109.36404 62.944872,112.64404 C 62.944872,115.89737 62.104872,118.37737 60.424872,120.08404 C 58.744872,121.79071 56.464872,122.64404 53.584872,122.64404 L 41.624872,122.64404 z M 41.624872,108.00404 L 41.624872,117.32404 L 50.544872,117.32404 C 52.011542,117.32404 53.211542,116.95071 54.144872,116.20404 C 55.078202,115.43071 55.544872,114.24404 55.544872,112.64404 C 55.544872,111.07071 55.078202,109.91071 54.144872,109.16404 C 53.238202,108.39071 52.038202,108.00404 50.544872,108.00404 L 41.624872,108.00404 z "
     style="font-size:40.000000;stroke-width:1.0000000pt;font-family:Trek" />
  <rect
     rx="1.0595667"
     y="26.932076"
     x="31.753050"
     ry="1.0595667"
     height="55.185986"
     width="69.533470"
     id="rect832"
     style="fill:#ffffff;fill-rule:evenodd;stroke:#000000;stroke-width:4.0196528;stroke-linejoin:round" />
  <rect
     rx="1.0595667"
     y="37.674385"
     x="42.495338"
     ry="1.0595667"
     height="55.185986"
     width="69.533470"
     id="rect838"
     style="fill:#ffffff;fill-rule:evenodd;stroke:#000000;stroke-width:4.0196528;stroke-linejoin:round" />
  <g
     transform="matrix(0.410918,0.000000,0.000000,0.410918,71.52674,27.94032)"
     id="g926">
    <path
       sodipodi:nodetypes="ccccccc"
       id="path1406"
       d="M 21.924700,25.980724 L 21.924700,139.05883 C 45.782025,120.21248 57.486998,124.92408 78.463757,139.05883 C 99.891292,153.19360 121.39975,153.19360 139.71441,129.63566 L 139.71441,11.845960 C 120.86806,35.403900 106.73329,49.538665 79.860986,26.645457 C 55.869935,7.7991038 45.782025,7.1343714 21.924700,25.980724 z "
       style="fill-rule:evenodd;stroke:#000000;stroke-width:1.3297149;stroke-linejoin:round" />
    <path
       sodipodi:nodetypes="ccccccc"
       id="path855"
       d="M 26.636288,30.692312 L 26.636288,77.808194 C 31.347876,68.385018 40.771052,63.673430 50.194228,63.673430 C 59.617405,63.673430 69.040581,68.385018 78.463757,77.808194 L 78.463757,30.692312 C 69.040581,21.269136 59.617405,16.557548 50.194228,16.557548 C 40.771052,16.557548 31.347876,21.269136 26.636288,30.692312 z "
       style="fill:#df421e;fill-rule:evenodd;stroke:#000000;stroke-width:1.3297149pt" />
    <path
       sodipodi:nodetypes="ccccccc"
       id="path856"
       d="M 26.636288,82.519782 L 26.636288,129.63566 C 35.228392,124.09300 40.771052,120.21249 50.194228,120.21249 C 59.617405,120.21249 72.921097,128.80458 78.463757,134.34724 L 78.463757,82.519782 C 69.040581,73.096606 59.617405,68.385018 50.194228,68.385018 C 40.771052,68.385018 31.347876,73.096606 26.636288,82.519782 z "
       style="fill:#7590ae;fill-rule:evenodd;stroke:#000000;stroke-width:1.3297149pt" />
    <path
       sodipodi:nodetypes="ccccccc"
       id="path858"
       d="M 83.175345,82.519782 L 83.175345,35.403900 C 91.767450,40.946564 97.310109,44.827077 106.73329,44.827077 C 120.86805,44.827077 129.46015,31.523388 135.00281,25.980724 L 135.00281,77.808194 C 125.57964,87.231365 116.15646,91.942958 106.73329,91.942958 C 102.02170,91.942958 92.598521,91.942958 83.175345,82.519782 z "
       style="fill:#46a046;fill-rule:evenodd;stroke:#000000;stroke-width:1.3297149pt" />
    <path
       sodipodi:nodetypes="ccccccc"
       id="path859"
       d="M 83.175345,134.34724 L 83.175345,87.231370 C 91.767450,92.774034 97.310109,96.654546 106.73329,96.654546 C 120.03699,95.823470 129.46015,88.062446 135.00281,82.519782 L 135.00281,129.63566 C 125.57964,139.05883 116.15647,143.77042 106.73329,143.77042 C 102.02170,143.77042 92.598521,143.77042 83.175345,134.34724 z "
       style="fill:#eed680;fill-rule:evenodd;stroke:#000000;stroke-width:1.3297149pt" />
  </g>
  <path
     sodipodi:nodetypes="cccccc"
     id="rect2063"
     d="M 41.662967,17.197108 L 117.38055,17.197108 C 129.02522,17.197108 134.72716,22.899041 134.72716,34.543716 C 134.72716,34.543716 55.440598,35.449314 24.316361,125.89213 L 24.316361,34.543716 C 24.316361,24.254973 31.374226,17.197108 41.662967,17.197108 z "
     style="fill:url(#linearGradient2830);fill-opacity:1.0000000;fill-rule:evenodd;stroke:none;stroke-width:6.2500000" />
</svg>
