<?xml version="1.0" encoding="UTF-8" standalone="no"?>
<!-- Created with Inkscape (http://www.inkscape.org/) -->
<svg
   xmlns:dc="http://purl.org/dc/elements/1.1/"
   xmlns:cc="http://web.resource.org/cc/"
   xmlns:rdf="http://www.w3.org/1999/02/22-rdf-syntax-ns#"
   xmlns:svg="http://www.w3.org/2000/svg"
   xmlns="http://www.w3.org/2000/svg"
   xmlns:xlink="http://www.w3.org/1999/xlink"
   xmlns:sodipodi="http://inkscape.sourceforge.net/DTD/sodipodi-0.dtd"
   xmlns:inkscape="http://www.inkscape.org/namespaces/inkscape"
   sodipodi:docname="gnome-mime-application-x-blender.svg"
   sodipodi:docbase="/home/francois/Rodent/scalable/mimetypes"
   height="128.00000pt"
   width="128.00000pt"
   inkscape:version="0.41"
   sodipodi:version="0.32"
   id="svg1">
  <metadata
     id="metadata15">
    <rdf:RDF
       id="RDF17">
      <cc:Work
         id="Work19"
         rdf:about="">
        <dc:format
           id="format21">image/svg+xml</dc:format>
        <dc:type
           rdf:resource="http://purl.org/dc/dcmitype/StillImage"
           id="type23" />
      </cc:Work>
    </rdf:RDF>
  </metadata>
  <defs
     id="defs3">
    <linearGradient
       id="linearGradient5154">
      <stop
         style="stop-color:#eed680;stop-opacity:1.0000000;"
         offset="0.0000000"
         id="stop5156" />
      <stop
         style="stop-color:#d1940c;stop-opacity:1.0000000;"
         offset="1.0000000"
         id="stop5160" />
    </linearGradient>
    <linearGradient
       id="linearGradient2832">
      <stop
         style="stop-color:#ffffff;stop-opacity:1.0000000;"
         offset="0.0000000"
         id="stop2834" />
      <stop
         style="stop-color:#ffffff;stop-opacity:0.0000000;"
         offset="1.0000000"
         id="stop2836" />
    </linearGradient>
    <linearGradient
       inkscape:collect="always"
       xlink:href="#linearGradient2832"
       id="linearGradient2830"
       gradientTransform="matrix(0.939922,0.000000,0.000000,0.896911,6.581525,6.695884)"
       x1="23.983805"
       y1="16.369013"
       x2="72.999245"
       y2="73.398720"
       gradientUnits="userSpaceOnUse" />
    <linearGradient
       id="linearGradient839">
      <stop
         id="stop840"
         offset="0.0000000"
         style="stop-color:#46a046;stop-opacity:1.0000000;" />
      <stop
         id="stop841"
         offset="0.39364964"
         style="stop-color:#df421e;stop-opacity:1.0000000;" />
      <stop
         id="stop842"
         offset="0.72036445"
         style="stop-color:#ada7c8;stop-opacity:1.0000000;" />
      <stop
         id="stop843"
         offset="1.0000000"
         style="stop-color:#eed680;stop-opacity:1.0000000;" />
    </linearGradient>
    <linearGradient
       y2="0.50000000"
       x2="1.0000000"
       y1="0.50000000"
       x1="1.3267924e-17"
       id="linearGradient836"
       xlink:href="#linearGradient839" />
    <radialGradient
       xlink:href="#linearGradient5154"
       id="radialGradient835"
       cx="54.636345"
       cy="49.787235"
       r="42.888760"
       fx="54.636349"
       fy="48.872196"
       gradientUnits="userSpaceOnUse" />
    <linearGradient
       xlink:href="#linearGradient839"
       id="linearGradient1347"
       x1="1.3267924e-17"
       y1="0.50000000"
       x2="1.0000000"
       y2="0.50000000" />
    <linearGradient
       id="linearGradient1337">
      <stop
         style="stop-color:#46a046;stop-opacity:1.0000000;"
         offset="0.0000000"
         id="stop1339" />
      <stop
         style="stop-color:#df421e;stop-opacity:1.0000000;"
         offset="0.39364964"
         id="stop1341" />
      <stop
         style="stop-color:#ada7c8;stop-opacity:1.0000000;"
         offset="0.72036445"
         id="stop1343" />
      <stop
         style="stop-color:#eed680;stop-opacity:1.0000000;"
         offset="1.0000000"
         id="stop1345" />
    </linearGradient>
    <linearGradient
       id="linearGradient837">
      <stop
         style="stop-color:#eed680;stop-opacity:1.0000000;"
         offset="0.0000000"
         id="stop838" />
      <stop
         style="stop-color:#dfb546;stop-opacity:1.0000000;"
         offset="0.72068703"
         id="stop846" />
      <stop
         style="stop-color:#d1940c;stop-opacity:1.0000000;"
         offset="1.0000000"
         id="stop845" />
    </linearGradient>
  </defs>
  <sodipodi:namedview
     inkscape:current-layer="svg1"
     inkscape:window-y="34"
     inkscape:window-x="0"
     gridspacingy="1.0000000mm"
     gridspacingx="1.0000000mm"
     snaptogrid="false"
     showgrid="true"
     inkscape:window-height="653"
     inkscape:window-width="751"
     inkscape:cy="90.169492"
     inkscape:cx="75.254237"
     inkscape:zoom="2.9500000"
     inkscape:pageshadow="2"
     inkscape:pageopacity="0.0"
     borderopacity="1.0"
     bordercolor="#666666"
     pagecolor="#ffffff"
     id="base" />
  <rect
     rx="22.892691"
     ry="22.892691"
     y="13.822820"
     x="21.615664"
     height="132.54453"
     width="117.01241"
     id="rect834"
     style="stroke-miterlimit:4.0000000;stroke-dasharray:none;stroke-opacity:0.49999997;stroke-linejoin:round;stroke-width:7.5000000;stroke:#000000;fill-rule:evenodd;fill:none" />
  <rect
     rx="22.892691"
     ry="22.892691"
     y="13.822820"
     x="21.615664"
     height="132.54453"
     width="117.01241"
     id="rect828"
     style="stroke-miterlimit:4.0000000;stroke-dasharray:none;fill:#df421e;fill-rule:evenodd;stroke:#000000;stroke-width:3.7500000;fill-opacity:1.0000000" />
  <path
     style="stroke-width:6.2500000;stroke:none;fill-rule:evenodd;fill-opacity:0.27125505;fill:#ffffff"
     d="M 117.55369,142.69710 L 41.836122,142.69710 C 30.191452,142.69710 24.489512,136.99517 24.489512,125.35050 C 24.489512,125.35050 52.109842,58.835020 134.90030,48.692724 L 134.90030,125.35050 C 134.90030,136.99517 129.19836,142.69710 117.55369,142.69710 z "
     id="path2838"
     sodipodi:nodetypes="cccccc" />
  <path
     sodipodi:type="arc"
     style="fill:url(#radialGradient835);fill-opacity:1.0;fill-rule:evenodd;stroke:#000000;stroke-width:4.0029163"
     id="path834"
     sodipodi:cx="76.516327"
     sodipodi:cy="66.562988"
     sodipodi:rx="44.665630"
     sodipodi:ry="44.665630"
     d="M 121.18196 66.562988 A 44.665630 44.665630 0 1 1  31.850697,66.562988 A 44.665630 44.665630 0 1 1  121.18196 66.562988 z"
     transform="matrix(0.936817,0.000000,0.000000,0.936817,8.228000,3.661050)" />
  <path
     style="font-size:40.000000;stroke-width:1.0000000pt;font-family:Trek"
     d="M 110.18609,113.69147 L 121.21119,113.69147 C 124.00527,113.69147 126.13199,114.58130 127.59132,116.36098 C 129.05066,118.14066 129.78032,120.71229 129.78032,124.07588 C 129.78032,127.40387 129.05066,129.96661 127.59132,131.76408 C 126.14979,133.56155 124.02307,134.46030 121.21119,134.46030 L 110.18609,134.46030 L 110.18609,113.69147 z M 114.51070,130.90984 L 119.76964,130.90984 C 121.51373,130.90984 122.80399,130.34924 123.64045,129.22804 C 124.47689,128.08905 124.89511,126.37166 124.89511,124.07588 C 124.89511,121.78009 124.49469,120.07161 123.69384,118.95041 C 122.91077,117.82922 121.60271,117.26862 119.76964,117.26862 L 114.51070,117.26862 L 114.51070,130.90984 z M 92.567295,134.46030 L 88.082509,134.46030 L 88.082509,113.69147 L 93.741880,113.69147 L 102.25763,128.90770 L 102.36441,128.90770 L 102.36441,113.69147 L 106.84920,113.69147 L 106.84920,134.46030 L 101.18982,134.46030 L 92.674075,119.27075 L 92.567295,119.27075 L 92.567295,134.46030 z M 85.946897,125.78437 L 73.747210,125.78437 L 73.747210,125.91785 L 74.067553,127.54625 C 74.334504,128.40049 74.788324,129.16575 75.429008,129.84204 C 75.571380,129.94882 75.704856,130.03780 75.829435,130.10899 C 76.060789,130.25136 76.381131,130.42042 76.790460,130.61619 L 77.644706,130.82975 L 78.792597,130.90984 L 85.946897,130.90984 L 85.946897,134.46030 L 77.537925,134.46030 C 74.726032,134.46030 72.563726,133.57045 71.051000,131.79078 C 69.556072,129.99330 68.808608,127.42167 68.808608,124.07588 C 68.808608,120.69449 69.556072,118.12286 71.051000,116.36098 C 72.545928,114.58130 74.708236,113.69147 77.537925,113.69147 L 85.946897,113.69147 L 85.946897,117.26862 L 78.792597,117.26862 L 78.285390,117.26862 L 77.778181,117.32201 C 77.422242,117.32201 77.048510,117.41099 76.656985,117.58896 C 76.283253,117.76693 75.873923,118.01608 75.429008,118.33642 C 75.001886,118.76355 74.628150,119.32414 74.307809,120.01822 C 74.112045,120.48093 73.925178,121.21950 73.747210,122.23392 L 73.747210,122.36740 L 85.946897,122.36740 L 85.946897,125.78437 z M 60.399634,134.46030 C 59.349629,134.46030 58.388605,134.31792 57.516562,134.03317 C 56.644518,133.73062 55.897055,133.30350 55.274163,132.75181 C 54.953822,132.46706 54.642380,132.11113 54.339839,131.68399 C 54.197459,131.48823 54.081787,131.31026 53.992798,131.15009 C 53.903817,130.97212 53.788137,130.69628 53.645766,130.32255 C 53.289825,129.34372 53.111863,128.21363 53.111863,126.93226 L 53.111863,113.69147 L 57.596642,113.69147 L 57.596642,126.63861 C 57.596642,127.33269 57.676732,127.91998 57.836903,128.40049 C 58.014873,128.88101 58.317415,129.34372 58.744537,129.78865 C 59.153859,130.16238 59.625480,130.44712 60.159382,130.64289 C 60.693285,130.82085 61.271677,130.90984 61.894560,130.90984 L 67.714107,130.90984 L 67.714107,134.46030 L 60.399634,134.46030 z M 31.595566,134.46030 L 31.595566,113.69147 L 44.462629,113.69147 C 46.171125,113.69147 47.603761,114.12748 48.760546,114.99953 C 50.077511,115.96056 50.735994,117.24192 50.735994,118.84363 C 50.735994,120.01822 50.460143,121.07712 49.908441,122.02035 C 49.641490,122.44748 49.321148,122.82121 48.947417,123.14155 C 48.573685,123.44409 48.075373,123.75554 47.452490,124.07588 C 48.520295,124.46741 49.374539,125.09920 50.015221,125.97124 C 50.655904,126.84327 50.976245,127.84879 50.976245,128.98779 C 50.976245,130.96323 50.308872,132.40477 48.974116,133.31240 C 47.888512,134.07765 46.384686,134.46030 44.462629,134.46030 L 31.595566,134.46030 z M 43.074483,122.36740 C 44.053307,122.36740 44.800770,122.13603 45.316872,121.67331 C 45.832984,121.21060 46.091035,120.56991 46.091035,119.75127 C 46.091035,117.98939 45.085521,117.10844 43.074483,117.10844 L 36.080354,117.10844 L 36.080354,122.36740 L 43.074483,122.36740 z M 43.074483,131.04331 C 44.053307,131.04331 44.800770,130.81195 45.316872,130.34924 C 45.832984,129.88652 46.091035,129.24583 46.091035,128.42719 C 46.091035,126.66531 45.085521,125.78437 43.074483,125.78437 L 36.080354,125.78437 L 36.080354,131.04331 L 43.074483,131.04331 z "
     id="path850" />
  <path
     style="font-size:40.000000;fill:#ffffff;fill-opacity:1.0000000;stroke-width:1.0000000pt;font-family:Trek"
     d="M 109.50813,113.01351 L 120.53323,113.01351 C 123.32731,113.01351 125.45403,113.90334 126.91336,115.68302 C 128.37270,117.46270 129.10236,120.03433 129.10236,123.39792 C 129.10236,126.72591 128.37270,129.28865 126.91336,131.08612 C 125.47183,132.88359 123.34511,133.78234 120.53323,133.78234 L 109.50813,133.78234 L 109.50813,113.01351 z M 113.83274,130.23188 L 119.09168,130.23188 C 120.83577,130.23188 122.12603,129.67128 122.96249,128.55008 C 123.79893,127.41109 124.21715,125.69370 124.21715,123.39792 C 124.21715,121.10213 123.81673,119.39365 123.01588,118.27245 C 122.23281,117.15126 120.92475,116.59066 119.09168,116.59066 L 113.83274,116.59066 L 113.83274,130.23188 z M 91.889329,133.78234 L 87.404543,133.78234 L 87.404543,113.01351 L 93.063914,113.01351 L 101.57967,128.22974 L 101.68645,128.22974 L 101.68645,113.01351 L 106.17124,113.01351 L 106.17124,133.78234 L 100.51186,133.78234 L 91.996109,118.59279 L 91.889329,118.59279 L 91.889329,133.78234 z M 85.268931,125.10641 L 73.069244,125.10641 L 73.069244,125.23989 L 73.389587,126.86829 C 73.656538,127.72253 74.110358,128.48779 74.751042,129.16408 C 74.893414,129.27086 75.026890,129.35984 75.151469,129.43103 C 75.382823,129.57340 75.703165,129.74246 76.112494,129.93823 L 76.966740,130.15179 L 78.114631,130.23188 L 85.268931,130.23188 L 85.268931,133.78234 L 76.859959,133.78234 C 74.048066,133.78234 71.885760,132.89249 70.373034,131.11282 C 68.878106,129.31534 68.130642,126.74371 68.130642,123.39792 C 68.130642,120.01653 68.878106,117.44490 70.373034,115.68302 C 71.867962,113.90334 74.030270,113.01351 76.859959,113.01351 L 85.268931,113.01351 L 85.268931,116.59066 L 78.114631,116.59066 L 77.607424,116.59066 L 77.100215,116.64405 C 76.744276,116.64405 76.370544,116.73303 75.979019,116.91100 C 75.605287,117.08897 75.195957,117.33812 74.751042,117.65846 C 74.323920,118.08559 73.950184,118.64618 73.629843,119.34026 C 73.434079,119.80297 73.247212,120.54154 73.069244,121.55596 L 73.069244,121.68944 L 85.268931,121.68944 L 85.268931,125.10641 z M 59.721668,133.78234 C 58.671663,133.78234 57.710639,133.63996 56.838596,133.35521 C 55.966552,133.05266 55.219089,132.62554 54.596197,132.07385 C 54.275856,131.78910 53.964414,131.43317 53.661873,131.00603 C 53.519493,130.81027 53.403821,130.63230 53.314832,130.47213 C 53.225851,130.29416 53.110171,130.01832 52.967800,129.64459 C 52.611859,128.66576 52.433897,127.53567 52.433897,126.25430 L 52.433897,113.01351 L 56.918676,113.01351 L 56.918676,125.96065 C 56.918676,126.65473 56.998766,127.24202 57.158937,127.72253 C 57.336907,128.20305 57.639449,128.66576 58.066571,129.11069 C 58.475893,129.48442 58.947514,129.76916 59.481416,129.96493 C 60.015319,130.14289 60.593711,130.23188 61.216594,130.23188 L 67.036141,130.23188 L 67.036141,133.78234 L 59.721668,133.78234 z M 30.917600,133.78234 L 30.917600,113.01351 L 43.784663,113.01351 C 45.493159,113.01351 46.925795,113.44952 48.082580,114.32157 C 49.399545,115.28260 50.058028,116.56396 50.058028,118.16567 C 50.058028,119.34026 49.782177,120.39916 49.230475,121.34239 C 48.963524,121.76952 48.643182,122.14325 48.269451,122.46359 C 47.895719,122.76613 47.397407,123.07758 46.774524,123.39792 C 47.842329,123.78945 48.696573,124.42124 49.337255,125.29328 C 49.977938,126.16531 50.298279,127.17083 50.298279,128.30983 C 50.298279,130.28527 49.630906,131.72681 48.296150,132.63444 C 47.210546,133.39969 45.706720,133.78234 43.784663,133.78234 L 30.917600,133.78234 z M 42.396517,121.68944 C 43.375341,121.68944 44.122804,121.45807 44.638906,120.99535 C 45.155018,120.53264 45.413069,119.89195 45.413069,119.07331 C 45.413069,117.31143 44.407555,116.43048 42.396517,116.43048 L 35.402388,116.43048 L 35.402388,121.68944 L 42.396517,121.68944 z M 42.396517,130.36535 C 43.375341,130.36535 44.122804,130.13399 44.638906,129.67128 C 45.155018,129.20856 45.413069,128.56787 45.413069,127.74923 C 45.413069,125.98735 44.407555,125.10641 42.396517,125.10641 L 35.402388,125.10641 L 35.402388,130.36535 L 42.396517,130.36535 z "
     id="path2120" />
  <path
     style="fill:url(#linearGradient2830);fill-opacity:1.0000000;fill-rule:evenodd;stroke:none;stroke-width:6.2500000"
     d="M 43.293749,17.381303 L 119.01134,17.381303 C 130.65601,17.381303 136.35795,23.083236 136.35795,34.727911 C 136.35795,34.727911 57.071380,35.633509 25.947143,126.07633 L 25.947143,34.727911 C 25.947143,24.439168 33.005008,17.381303 43.293749,17.381303 z "
     id="rect2063"
     sodipodi:nodetypes="cccccc" />
</svg>
