<?xml version="1.0" encoding="UTF-8" standalone="no"?>
<!-- Created with Inkscape (http://www.inkscape.org/) -->

<svg
   xmlns:dc="http://purl.org/dc/elements/1.1/"
   xmlns:cc="http://creativecommons.org/ns#"
   xmlns:rdf="http://www.w3.org/1999/02/22-rdf-syntax-ns#"
   xmlns:svg="http://www.w3.org/2000/svg"
   xmlns="http://www.w3.org/2000/svg"
   xmlns:xlink="http://www.w3.org/1999/xlink"
   xmlns:sodipodi="http://sodipodi.sourceforge.net/DTD/sodipodi-0.dtd"
   xmlns:inkscape="http://www.inkscape.org/namespaces/inkscape"
   sodipodi:docname="ooo-calc.svg"
   height="128.00000pt"
   width="128.00000pt"
   inkscape:version="0.48.0 r9654"
   sodipodi:version="0.32"
   id="svg1"
   version="1.1">
  <metadata
     id="metadata74">
    <rdf:RDF>
      <cc:Work
         rdf:about="">
        <dc:format>image/svg+xml</dc:format>
        <dc:type
           rdf:resource="http://purl.org/dc/dcmitype/StillImage" />
        <dc:title></dc:title>
      </cc:Work>
    </rdf:RDF>
  </metadata>
  <defs
     id="defs3">
    <inkscape:perspective
       sodipodi:type="inkscape:persp3d"
       inkscape:vp_x="0 : 80 : 1"
       inkscape:vp_y="0 : 1000 : 0"
       inkscape:vp_z="160 : 80 : 1"
       inkscape:persp3d-origin="80 : 53.333333 : 1"
       id="perspective75" />
    <linearGradient
       id="linearGradient837">
      <stop
         id="stop838"
         offset="0.0000000"
         style="stop-color:#eed680;stop-opacity:1.0000000;" />
      <stop
         id="stop846"
         offset="0.72068703"
         style="stop-color:#dfb546;stop-opacity:1.0000000;" />
      <stop
         id="stop845"
         offset="1.0000000"
         style="stop-color:#d1940c;stop-opacity:1.0000000;" />
    </linearGradient>
    <linearGradient
       id="linearGradient839">
      <stop
         id="stop840"
         offset="0.0000000"
         style="stop-color:#46a046;stop-opacity:1.0000000;" />
      <stop
         id="stop841"
         offset="0.39364964"
         style="stop-color:#df421e;stop-opacity:1.0000000;" />
      <stop
         id="stop842"
         offset="0.72036445"
         style="stop-color:#ada7c8;stop-opacity:1.0000000;" />
      <stop
         id="stop843"
         offset="1.0000000"
         style="stop-color:#eed680;stop-opacity:1.0000000;" />
    </linearGradient>
    <linearGradient
       y2="0.50000000"
       x2="1.0000000"
       y1="0.50000000"
       x1="-2.8189256e-17"
       id="linearGradient836"
       xlink:href="#linearGradient839" />
    <radialGradient
       id="radialGradient835"
       xlink:href="#linearGradient837" />
    <linearGradient
       y2="0.50000000"
       x2="1.0000000"
       y1="0.50000000"
       x1="5.7842186e-17"
       id="linearGradient842"
       xlink:href="#linearGradient839" />
    <radialGradient
       gradientUnits="userSpaceOnUse"
       gradientTransform="matrix(0.871633,0.000000,0.000000,0.981650,2.854848,6.150947)"
       fy="86.535705"
       fx="88.482272"
       r="49.040481"
       cy="86.535705"
       cx="89.179460"
       id="radialGradient843"
       xlink:href="#linearGradient837" />
    <linearGradient
       y2="0.50000000"
       x2="1.0000000"
       y1="0.50000000"
       x1="1.8073650e-16"
       id="linearGradient882"
       xlink:href="#linearGradient839" />
    <linearGradient
       y2="0.76744187"
       x2="0.48124999"
       y1="-0.10852713"
       x1="0.48124999"
       id="linearGradient841"
       xlink:href="#linearGradient842-4" />
    <linearGradient
       id="linearGradient835"
       xlink:href="#linearGradient836-2" />
    <linearGradient
       y2="0.50000000"
       x2="1.0000000"
       y1="0.50000000"
       x1="-2.6000523e-17"
       id="linearGradient833"
       xlink:href="#linearGradient838" />
    <linearGradient
       id="linearGradient830">
      <stop
         id="stop831"
         offset="0.0000000"
         style="stop-color:#8a8a8a;stop-opacity:1.0000000;" />
      <stop
         id="stop832"
         offset="1"
         style="stop-color:#fff;stop-opacity:1;" />
    </linearGradient>
    <linearGradient
       id="linearGradient836-2">
      <stop
         id="stop837"
         offset="0.0000000"
         style="stop-color:#ffb600;stop-opacity:1.0000000;" />
      <stop
         id="stop838-8"
         offset="1.0000000"
         style="stop-color:#ffff00;stop-opacity:1.0000000;" />
    </linearGradient>
    <linearGradient
       id="linearGradient838">
      <stop
         id="stop839"
         offset="0.0000000"
         style="stop-color:#00afff;stop-opacity:1.0000000;" />
      <stop
         id="stop840-1"
         offset="1.0000000"
         style="stop-color:#ffffff;stop-opacity:1.0000000;" />
    </linearGradient>
    <linearGradient
       id="linearGradient842-4">
      <stop
         id="stop843-8"
         offset="0.0000000"
         style="stop-color:#bfbfbf;stop-opacity:1.0000000;" />
      <stop
         id="stop844"
         offset="1.0000000"
         style="stop-color:#8c8c8c;stop-opacity:1.0000000;" />
    </linearGradient>
    <inkscape:perspective
       id="perspective2910"
       inkscape:persp3d-origin="80 : 53.333333 : 1"
       inkscape:vp_z="160 : 80 : 1"
       inkscape:vp_y="0 : 1000 : 0"
       inkscape:vp_x="0 : 80 : 1"
       sodipodi:type="inkscape:persp3d" />
    <linearGradient
       gradientUnits="userSpaceOnUse"
       y2="98.393227"
       x2="60.293903"
       y1="60.652702"
       x1="60.293888"
       gradientTransform="matrix(1.377888,0,0,0.961487,0,-18.62071)"
       id="linearGradient2086"
       xlink:href="#linearGradient2088"
       inkscape:collect="always" />
    <linearGradient
       inkscape:collect="always"
       xlink:href="#linearGradient2073"
       id="linearGradient2083"
       gradientUnits="userSpaceOnUse"
       gradientTransform="matrix(0.5547,0,0,1.802777,94.99581,-8.00001)"
       x1="57.516644"
       y1="55.247383"
       x2="57.516644"
       y2="65.404350" />
    <linearGradient
       inkscape:collect="always"
       xlink:href="#linearGradient2073"
       id="linearGradient2079"
       gradientTransform="matrix(0.5547,0,0,1.802777,-0.334728,-8.00001)"
       x1="57.516644"
       y1="55.247383"
       x2="57.516644"
       y2="65.404350"
       gradientUnits="userSpaceOnUse" />
    <linearGradient
       xlink:href="#linearGradient2825"
       id="linearGradient834"
       x1="51.868069"
       y1="168.57509"
       x2="51.868069"
       y2="135.89389"
       spreadMethod="reflect"
       gradientTransform="matrix(1.602200,0.000000,0.000000,0.624142,0.000000,0.644068)"
       gradientUnits="userSpaceOnUse" />
    <linearGradient
       xlink:href="#linearGradient2094"
       id="linearGradient830-3"
       x1="55.779026"
       y1="136.75911"
       x2="55.779011"
       y2="105.12363"
       gradientTransform="matrix(1.425413,0,0,0.597987,0,12.30033)"
       gradientUnits="userSpaceOnUse" />
    <linearGradient
       id="linearGradient827">
      <stop
         style="stop-color:#826647;stop-opacity:1.0000000;"
         offset="0.0000000"
         id="stop828" />
      <stop
         style="stop-color:#c0b2a3;stop-opacity:1.0000000;"
         offset="0.85714287"
         id="stop2088" />
      <stop
         style="stop-color:#fff;stop-opacity:1;"
         offset="1"
         id="stop829" />
    </linearGradient>
    <linearGradient
       id="linearGradient835-6">
      <stop
         style="stop-color:#221d19;stop-opacity:1.0000000;"
         offset="0.0000000"
         id="stop836" />
      <stop
         style="stop-color:#bdbdbc;stop-opacity:1.0000000;"
         offset="0.84151512"
         id="stop837-5" />
      <stop
         style="stop-color:#fff;stop-opacity:1;"
         offset="1"
         id="stop838-6" />
    </linearGradient>
    <linearGradient
       id="linearGradient2825">
      <stop
         style="stop-color:#7b7b79;stop-opacity:0.60162604;"
         offset="0.0000000"
         id="stop2827" />
      <stop
         style="stop-color:#bdbdbc;stop-opacity:1.0000000;"
         offset="0.45714286"
         id="stop2829" />
      <stop
         style="stop-color:#fff;stop-opacity:1;"
         offset="1"
         id="stop2831" />
    </linearGradient>
    <linearGradient
       inkscape:collect="always"
       id="linearGradient2073">
      <stop
         style="stop-color:#ffffff;stop-opacity:1;"
         offset="0"
         id="stop2075" />
      <stop
         style="stop-color:#ffffff;stop-opacity:0;"
         offset="1"
         id="stop2077" />
    </linearGradient>
    <linearGradient
       id="linearGradient2088">
      <stop
         id="stop2090"
         offset="0.0000000"
         style="stop-color:#e9e9e9;stop-opacity:1.0000000;" />
      <stop
         id="stop2094"
         offset="0.41428572"
         style="stop-color:#f4f4f4;stop-opacity:1.0000000;" />
      <stop
         id="stop2092"
         offset="1.0000000"
         style="stop-color:#ffffff;stop-opacity:1.0000000;" />
    </linearGradient>
    <linearGradient
       id="linearGradient2097">
      <stop
         id="stop2099"
         offset="0.0000000"
         style="stop-color:#c5d2c8;stop-opacity:1.0000000;" />
      <stop
         id="stop2103"
         offset="1.0000000"
         style="stop-color:#ffffff;stop-opacity:1.0000000;" />
    </linearGradient>
    <linearGradient
       id="linearGradient2089">
      <stop
         style="stop-color:#314e6c;stop-opacity:1.0000000;"
         offset="0.0000000"
         id="stop2091" />
      <stop
         style="stop-color:#98a6b5;stop-opacity:1.0000000;"
         offset="0.81428570"
         id="stop2097" />
      <stop
         style="stop-color:#fff;stop-opacity:1;"
         offset="1"
         id="stop2095" />
    </linearGradient>
    <linearGradient
       id="linearGradient2094">
      <stop
         style="stop-color:#727272;stop-opacity:1.0000000;"
         offset="0.0000000"
         id="stop2096" />
      <stop
         style="stop-color:#b8b8b8;stop-opacity:1.0000000;"
         offset="0.69999999"
         id="stop2102" />
      <stop
         style="stop-color:#fff;stop-opacity:1;"
         offset="1"
         id="stop2100" />
    </linearGradient>
  </defs>
  <sodipodi:namedview
     inkscape:current-layer="svg1"
     inkscape:window-y="34"
     inkscape:window-x="32"
     snaptogrid="true"
     showgrid="false"
     inkscape:window-height="653"
     inkscape:window-width="751"
     inkscape:cy="80"
     inkscape:cx="80"
     inkscape:zoom="2.0948038"
     inkscape:pageshadow="2"
     inkscape:pageopacity="0.0"
     borderopacity="1.0"
     bordercolor="#666666"
     pagecolor="#ffffff"
     id="base"
     inkscape:snap-grids="false"
     inkscape:window-maximized="0">
    <inkscape:grid
       id="GridFromPre046Settings"
       type="xygrid"
       originx="0px"
       originy="0px"
       spacingx="1.0000000mm"
       spacingy="1.0000000mm"
       color="#0000ff"
       empcolor="#0000ff"
       opacity="0.2"
       empopacity="0.4"
       empspacing="5" />
  </sodipodi:namedview>
  <g
     id="g2928"
     transform="matrix(0.57387475,0,0,0.57387475,2.6030763,2.0286667)">
    <path
       transform="matrix(-0.495962,0,0,0.549915,122.5543,122.928)"
       d="m 35.433071,-8.3070869 c 0,28.3752599 -18.243515,51.3779529 -40.7480315,51.3779529 -22.5045165,0 -40.7480315,-23.002693 -40.7480315,-51.3779529 0,-28.3752601 18.243515,-51.3779531 40.7480315,-51.3779531 22.5045165,0 40.7480315,23.002693 40.7480315,51.3779531 z"
       sodipodi:ry="51.377953"
       sodipodi:rx="40.748032"
       sodipodi:cy="-8.3070869"
       sodipodi:cx="-5.3149605"
       id="path1329"
       style="fill:none;stroke:#000000;stroke-width:26.51739883;stroke-opacity:0.63157893"
       sodipodi:type="arc" />
    <path
       transform="matrix(0.495962,0,0,0.549915,123.7114,118.8131)"
       d="m 35.433071,-8.3070869 c 0,28.3752599 -18.243515,51.3779529 -40.7480315,51.3779529 -22.5045165,0 -40.7480315,-23.002693 -40.7480315,-51.3779529 0,-28.3752601 18.243515,-51.3779531 40.7480315,-51.3779531 22.5045165,0 40.7480315,23.002693 40.7480315,51.3779531 z"
       sodipodi:ry="51.377953"
       sodipodi:rx="40.748032"
       sodipodi:cy="-8.3070869"
       sodipodi:cx="-5.3149605"
       id="path844"
       style="fill:none;stroke:#9db8d2;stroke-width:26.51739883;stroke-opacity:1"
       sodipodi:type="arc" />
    <path
       transform="matrix(-0.495962,0,0,0.549915,118.4394,118.8131)"
       d="m 35.433071,-8.3070869 c 0,28.3752599 -18.243515,51.3779529 -40.7480315,51.3779529 -22.5045165,0 -40.7480315,-23.002693 -40.7480315,-51.3779529 0,-28.3752601 18.243515,-51.3779531 40.7480315,-51.3779531 22.5045165,0 40.7480315,23.002693 40.7480315,51.3779531 z"
       sodipodi:ry="51.377953"
       sodipodi:rx="40.748032"
       sodipodi:cy="-8.3070869"
       sodipodi:cx="-5.3149605"
       id="path1321"
       style="fill:none;stroke:#9db8d2;stroke-width:26.51739883;stroke-opacity:1"
       sodipodi:type="arc" />
    <path
       transform="matrix(0.783674,0,0,0.923233,91.46136,73.24098)"
       d="m 35.433071,-8.3070869 c 0,28.3752599 -18.243515,51.3779529 -40.7480315,51.3779529 -22.5045165,0 -40.7480315,-23.002693 -40.7480315,-51.3779529 0,-28.3752601 18.243515,-51.3779531 40.7480315,-51.3779531 22.5045165,0 40.7480315,23.002693 40.7480315,51.3779531 z"
       sodipodi:ry="51.377953"
       sodipodi:rx="40.748032"
       sodipodi:cy="-8.3070869"
       sodipodi:cx="-5.3149605"
       id="path1325"
       style="fill:none;stroke:#000000;stroke-width:16.28092575;stroke-opacity:0.63157893"
       sodipodi:type="arc" />
    <path
       transform="matrix(0.783674,0,0,0.923233,87.3465,69.12612)"
       d="m 35.433071,-8.3070869 c 0,28.3752599 -18.243515,51.3779529 -40.7480315,51.3779529 -22.5045165,0 -40.7480315,-23.002693 -40.7480315,-51.3779529 0,-28.3752601 18.243515,-51.3779531 40.7480315,-51.3779531 22.5045165,0 40.7480315,23.002693 40.7480315,51.3779531 z"
       sodipodi:ry="51.377953"
       sodipodi:rx="40.748032"
       sodipodi:cy="-8.3070869"
       sodipodi:cx="-5.3149605"
       id="path843"
       style="fill:none;stroke:#9db8d2;stroke-width:16.28092575;stroke-opacity:1"
       sodipodi:type="arc" />
    <path
       transform="matrix(0.783674,0,0,0.923233,54.6808,105.1906)"
       d="m 35.433071,-8.3070869 c 0,28.3752599 -18.243515,51.3779529 -40.7480315,51.3779529 -22.5045165,0 -40.7480315,-23.002693 -40.7480315,-51.3779529 0,-28.3752601 18.243515,-51.3779531 40.7480315,-51.3779531 22.5045165,0 40.7480315,23.002693 40.7480315,51.3779531 z"
       sodipodi:ry="51.377953"
       sodipodi:rx="40.748032"
       sodipodi:cy="-8.3070869"
       sodipodi:cx="-5.3149605"
       id="path1327"
       style="fill:none;stroke:#000000;stroke-width:16.28092575;stroke-opacity:0.63157893"
       sodipodi:type="arc" />
    <path
       transform="matrix(0.783674,0,0,0.923233,50.56594,101.0758)"
       d="m 35.433071,-8.3070869 c 0,28.3752599 -18.243515,51.3779529 -40.7480315,51.3779529 -22.5045165,0 -40.7480315,-23.002693 -40.7480315,-51.3779529 0,-28.3752601 18.243515,-51.3779531 40.7480315,-51.3779531 22.5045165,0 40.7480315,23.002693 40.7480315,51.3779531 z"
       sodipodi:ry="51.377953"
       sodipodi:rx="40.748032"
       sodipodi:cy="-8.3070869"
       sodipodi:cx="-5.3149605"
       id="path842"
       style="fill:none;stroke:#9db8d2;stroke-width:16.28092575;stroke-opacity:1"
       sodipodi:type="arc" />
    <g
       transform="matrix(0.923233,0,0,0.923233,4.908878,2.623668)"
       id="g1314">
      <path
         sodipodi:nodetypes="ccccc"
         id="path847"
         d="m 4.4137105,145.71516 c 0,0 20.6444655,-53.801125 63.8366335,-45.08353 10.515228,-41.850876 72.611536,-38.901695 72.611536,-38.901695 0,0 -60.843785,19.853974 -63.096338,56.607425 C 46.96739,101.97363 4.5277352,145.83751 4.4137105,145.71516 z"
         style="fill-rule:evenodd;stroke:#000000;stroke-width:1.74080634" />
      <path
         sodipodi:nodetypes="ccccc"
         id="path848"
         d="m 53.753101,72.043887 c 0,0 15.355192,-38.372589 47.481179,-32.154929 7.82114,-29.849323 54.00788,-27.745879 54.00788,-27.745879 0,0 -45.25513,14.160463 -46.93056,40.374142 C 85.404193,40.846104 53.83791,72.131156 53.753101,72.043887 z"
         style="fill-rule:evenodd;stroke:#000000;stroke-width:1.26791799" />
    </g>
    <g
       style="fill:#000000;fill-opacity:0.46153846;stroke:none"
       transform="matrix(0.923233,0,0,0.923233,6.868243,3.927179)"
       id="g2091">
      <path
         sodipodi:nodetypes="ccccc"
         id="path2093"
         d="m 4.4137105,145.71516 c 0,0 20.6444655,-53.801125 63.8366335,-45.08353 10.515228,-41.850876 72.611536,-38.901695 72.611536,-38.901695 0,0 -60.843785,19.853974 -63.096338,56.607425 C 46.96739,101.97363 4.5277352,145.83751 4.4137105,145.71516 z"
         style="fill-rule:evenodd" />
      <path
         sodipodi:nodetypes="ccccc"
         id="path2095"
         d="m 53.753101,72.043887 c 0,0 15.355192,-38.372589 47.481179,-32.154929 7.82114,-29.849323 54.00788,-27.745879 54.00788,-27.745879 0,0 -45.25513,14.160463 -46.93056,40.374142 C 85.404193,40.846104 53.83791,72.131156 53.753101,72.043887 z"
         style="fill-rule:evenodd" />
    </g>
  </g>
  <g
     id="g3167"
     transform="matrix(0.75215106,0,0,0.75215106,36.910691,48.11555)">
    <rect
       style="fill:#000000;fill-opacity:0.44615383;fill-rule:evenodd;stroke:none"
       id="rect844-4"
       width="78.726639"
       height="56.452953"
       ry="0.20035878"
       x="45.084717"
       y="27.811024"
       rx="0.20035878" />
    <rect
       style="fill:url(#linearGradient2086);fill-opacity:1;fill-rule:evenodd;stroke:#000000;stroke-width:1.06146431;stroke-linecap:round;stroke-linejoin:round;stroke-miterlimit:4"
       id="rect843-8"
       width="78.726639"
       height="54.858154"
       ry="0.19569927"
       x="40.150894"
       y="26.286991"
       rx="0.19569927" />
    <path
       style="fill:url(#linearGradient830-3);fill-opacity:1;fill-rule:evenodd;stroke:#000000;stroke-width:1.12330759;stroke-miterlimit:4"
       d="m 20.861315,73.92172 c -6.536242,0 -11.7982695,4.485243 -11.7982695,10.056599 0,0 0,42.859331 0,48.738871 l 141.4050545,0 0,-48.738871 c 0,-5.571356 -5.26202,-10.056599 -11.79827,-10.056599 l -117.808515,0 z"
       id="path826"
       sodipodi:nodetypes="ccccccc"
       inkscape:connector-curvature="0" />
    <path
       style="fill:#eed680;fill-opacity:1;fill-rule:evenodd;stroke:#000000;stroke-width:1.2166965;stroke-miterlimit:4"
       d="m 31.988674,87.433001 c -3.821385,0 -6.897807,3.133301 -6.897807,7.025351 0,0 0,34.361508 0,37.810418 3.821385,0 10.346711,0 13.795614,0 l 0,-37.810418 c 0,-3.89205 -3.076422,-7.025351 -6.897807,-7.025351 z"
       id="path833"
       sodipodi:nodetypes="cccccc"
       inkscape:connector-curvature="0" />
    <path
       style="fill:#eed680;fill-opacity:1;fill-rule:evenodd;stroke:#000000;stroke-width:1.2166965;stroke-miterlimit:4"
       d="m 127.11345,87.647514 c -3.82139,0 -6.89781,3.133298 -6.89781,7.025328 0,0 0,34.361518 0,37.810428 3.82139,0 10.34671,0 13.79561,0 l 0,-37.810428 c 0,-3.89203 -3.07642,-7.025328 -6.8978,-7.025328 z"
       id="path839"
       sodipodi:nodetypes="cccccc"
       inkscape:connector-curvature="0" />
    <rect
       style="fill:#eed680;fill-opacity:1;fill-rule:evenodd;stroke:#000000;stroke-width:1.0342381;stroke-miterlimit:4;stroke-opacity:1"
       id="rect840-1"
       width="79.324783"
       height="9.4441328"
       ry="0"
       x="40.10318"
       y="123.04142" />
    <rect
       style="fill-rule:evenodd;stroke:#000000;stroke-width:1.05549402pt"
       id="rect841-2"
       width="79.324783"
       height="12.166603"
       x="40.10318"
       y="99.660355" />
    <rect
       style="fill:#ffffff;fill-opacity:1;fill-rule:evenodd;stroke:#000000;stroke-width:1.53322563pt"
       id="rect842-9"
       width="79.324783"
       height="17.11507"
       x="40.10318"
       y="104.32811" />
    <path
       style="fill:url(#linearGradient2079);fill-opacity:1;fill-rule:evenodd;stroke:none"
       d="m 31.67335,89.895369 c -2.467983,0 -4.454843,2.023593 -4.454843,4.537233 0,0 0,22.191848 0,24.419278 2.467983,0 6.682264,0 8.909685,0 l 0,-24.419278 c 0,-2.51364 -1.98686,-4.537233 -4.454842,-4.537233 z"
       id="path1313"
       sodipodi:nodetypes="cccccc"
       inkscape:connector-curvature="0" />
    <path
       style="fill:url(#linearGradient2083);fill-opacity:1;fill-rule:evenodd;stroke:none"
       d="m 127.00389,89.895369 c -2.46798,0 -4.45484,2.023593 -4.45484,4.537233 0,0 0,22.191848 0,24.419278 2.46798,0 6.68226,0 8.90968,0 l 0,-24.419278 c 0,-2.51364 -1.98686,-4.537233 -4.45484,-4.537233 z"
       id="path2081"
       sodipodi:nodetypes="cccccc"
       inkscape:connector-curvature="0" />
    <rect
       style="fill:#ffffff;fill-opacity:0.43724694;fill-rule:evenodd;stroke:none"
       id="rect2085"
       width="78.431702"
       height="2.4317646"
       ry="0"
       x="40.365597"
       y="123.55702" />
    <rect
       style="fill:#000000;fill-opacity:0.21052629;fill-rule:evenodd;stroke:none"
       id="rect2845"
       width="77.753738"
       height="2.4317646"
       ry="0"
       x="41.03931"
       y="129.51804" />
    <path
       style="fill:#ffffff;fill-opacity:0.38866398;fill-rule:evenodd;stroke:none"
       d="m 14.861315,79.140844 c -3.824378,4.063242 -5.1203034,-1.212302 -5.1203034,4.383917 0,0 0,42.179899 0,48.085679 l 4.7270884,0 0.393215,-52.469596 z"
       id="path1335"
       sodipodi:nodetypes="ccccc"
       inkscape:connector-curvature="0" />
    <path
       style="fill:#000000;fill-opacity:0.12955466;fill-rule:evenodd;stroke:none"
       d="m 144.75795,79.208641 c 3.82438,3.809352 5.12031,2.074187 5.12031,7.320729 0,0 0,39.54431 0,45.08107 l -4.72709,0 -0.39322,-52.401799 z"
       id="path2869"
       sodipodi:nodetypes="ccccc"
       inkscape:connector-curvature="0" />
  </g>
</svg>
