<?xml version="1.0" encoding="UTF-8" standalone="no"?>
<!-- Created with Inkscape (http://www.inkscape.org/) -->

<svg
   xmlns:dc="http://purl.org/dc/elements/1.1/"
   xmlns:cc="http://creativecommons.org/ns#"
   xmlns:rdf="http://www.w3.org/1999/02/22-rdf-syntax-ns#"
   xmlns:svg="http://www.w3.org/2000/svg"
   xmlns="http://www.w3.org/2000/svg"
   xmlns:xlink="http://www.w3.org/1999/xlink"
   xmlns:sodipodi="http://sodipodi.sourceforge.net/DTD/sodipodi-0.dtd"
   xmlns:inkscape="http://www.inkscape.org/namespaces/inkscape"
   sodipodi:docname="ooo-calc.svg"
   height="128.00000pt"
   width="128.00000pt"
   inkscape:version="0.47 r22583"
   sodipodi:version="0.32"
   id="svg1"
   version="1.1">
  <metadata
     id="metadata74">
    <rdf:RDF>
      <cc:Work
         rdf:about="">
        <dc:format>image/svg+xml</dc:format>
        <dc:type
           rdf:resource="http://purl.org/dc/dcmitype/StillImage" />
        <dc:title />
      </cc:Work>
    </rdf:RDF>
  </metadata>
  <defs
     id="defs3">
    <inkscape:perspective
       sodipodi:type="inkscape:persp3d"
       inkscape:vp_x="0 : 80 : 1"
       inkscape:vp_y="0 : 1000 : 0"
       inkscape:vp_z="160 : 80 : 1"
       inkscape:persp3d-origin="80 : 53.333333 : 1"
       id="perspective75" />
    <linearGradient
       id="linearGradient837">
      <stop
         id="stop838"
         offset="0.0000000"
         style="stop-color:#eed680;stop-opacity:1.0000000;" />
      <stop
         id="stop846"
         offset="0.72068703"
         style="stop-color:#dfb546;stop-opacity:1.0000000;" />
      <stop
         id="stop845"
         offset="1.0000000"
         style="stop-color:#d1940c;stop-opacity:1.0000000;" />
    </linearGradient>
    <linearGradient
       id="linearGradient839">
      <stop
         id="stop840"
         offset="0.0000000"
         style="stop-color:#46a046;stop-opacity:1.0000000;" />
      <stop
         id="stop841"
         offset="0.39364964"
         style="stop-color:#df421e;stop-opacity:1.0000000;" />
      <stop
         id="stop842"
         offset="0.72036445"
         style="stop-color:#ada7c8;stop-opacity:1.0000000;" />
      <stop
         id="stop843"
         offset="1.0000000"
         style="stop-color:#eed680;stop-opacity:1.0000000;" />
    </linearGradient>
    <linearGradient
       y2="0.50000000"
       x2="1.0000000"
       y1="0.50000000"
       x1="-2.8189256e-17"
       id="linearGradient836"
       xlink:href="#linearGradient839" />
    <radialGradient
       id="radialGradient835"
       xlink:href="#linearGradient837" />
    <linearGradient
       y2="0.50000000"
       x2="1.0000000"
       y1="0.50000000"
       x1="5.7842186e-17"
       id="linearGradient842"
       xlink:href="#linearGradient839" />
    <radialGradient
       gradientUnits="userSpaceOnUse"
       gradientTransform="matrix(0.871633,0.000000,0.000000,0.981650,2.854848,6.150947)"
       fy="86.535705"
       fx="88.482272"
       r="49.040481"
       cy="86.535705"
       cx="89.179460"
       id="radialGradient843"
       xlink:href="#linearGradient837" />
    <linearGradient
       y2="0.50000000"
       x2="1.0000000"
       y1="0.50000000"
       x1="1.8073650e-16"
       id="linearGradient882"
       xlink:href="#linearGradient839" />
    <linearGradient
       y2="0.76744187"
       x2="0.48124999"
       y1="-0.10852713"
       x1="0.48124999"
       id="linearGradient841"
       xlink:href="#linearGradient842-4" />
    <linearGradient
       id="linearGradient835"
       xlink:href="#linearGradient836-2" />
    <linearGradient
       y2="0.50000000"
       x2="1.0000000"
       y1="0.50000000"
       x1="-2.6000523e-17"
       id="linearGradient833"
       xlink:href="#linearGradient838" />
    <linearGradient
       id="linearGradient830">
      <stop
         id="stop831"
         offset="0.0000000"
         style="stop-color:#8a8a8a;stop-opacity:1.0000000;" />
      <stop
         id="stop832"
         offset="1"
         style="stop-color:#fff;stop-opacity:1;" />
    </linearGradient>
    <linearGradient
       id="linearGradient836-2">
      <stop
         id="stop837"
         offset="0.0000000"
         style="stop-color:#ffb600;stop-opacity:1.0000000;" />
      <stop
         id="stop838-8"
         offset="1.0000000"
         style="stop-color:#ffff00;stop-opacity:1.0000000;" />
    </linearGradient>
    <linearGradient
       id="linearGradient838">
      <stop
         id="stop839"
         offset="0.0000000"
         style="stop-color:#00afff;stop-opacity:1.0000000;" />
      <stop
         id="stop840-1"
         offset="1.0000000"
         style="stop-color:#ffffff;stop-opacity:1.0000000;" />
    </linearGradient>
    <linearGradient
       id="linearGradient842-4">
      <stop
         id="stop843-8"
         offset="0.0000000"
         style="stop-color:#bfbfbf;stop-opacity:1.0000000;" />
      <stop
         id="stop844"
         offset="1.0000000"
         style="stop-color:#8c8c8c;stop-opacity:1.0000000;" />
    </linearGradient>
    <inkscape:perspective
       id="perspective2910"
       inkscape:persp3d-origin="80 : 53.333333 : 1"
       inkscape:vp_z="160 : 80 : 1"
       inkscape:vp_y="0 : 1000 : 0"
       inkscape:vp_x="0 : 80 : 1"
       sodipodi:type="inkscape:persp3d" />
  </defs>
  <sodipodi:namedview
     inkscape:current-layer="svg1"
     inkscape:window-y="34"
     inkscape:window-x="32"
     snaptogrid="true"
     showgrid="true"
     inkscape:window-height="653"
     inkscape:window-width="751"
     inkscape:cy="80"
     inkscape:cx="80"
     inkscape:zoom="2.0948038"
     inkscape:pageshadow="2"
     inkscape:pageopacity="0.0"
     borderopacity="1.0"
     bordercolor="#666666"
     pagecolor="#ffffff"
     id="base"
     inkscape:snap-grids="false"
     inkscape:window-maximized="0">
    <inkscape:grid
       id="GridFromPre046Settings"
       type="xygrid"
       originx="0px"
       originy="0px"
       spacingx="1.0000000mm"
       spacingy="1.0000000mm"
       color="#0000ff"
       empcolor="#0000ff"
       opacity="0.2"
       empopacity="0.4"
       empspacing="5" />
  </sodipodi:namedview>
  <g
     id="g2928"
     transform="matrix(0.57387475,0,0,0.57387475,2.6030763,2.0286667)">
    <path
       transform="matrix(-0.495962,0,0,0.549915,122.5543,122.928)"
       d="m 35.433071,-8.3070869 c 0,28.3752599 -18.243515,51.3779529 -40.7480315,51.3779529 -22.5045165,0 -40.7480315,-23.002693 -40.7480315,-51.3779529 0,-28.3752601 18.243515,-51.3779531 40.7480315,-51.3779531 22.5045165,0 40.7480315,23.002693 40.7480315,51.3779531 z"
       sodipodi:ry="51.377953"
       sodipodi:rx="40.748032"
       sodipodi:cy="-8.3070869"
       sodipodi:cx="-5.3149605"
       id="path1329"
       style="fill:none;stroke:#000000;stroke-width:26.51739883;stroke-opacity:0.63157893"
       sodipodi:type="arc" />
    <path
       transform="matrix(0.495962,0,0,0.549915,123.7114,118.8131)"
       d="m 35.433071,-8.3070869 c 0,28.3752599 -18.243515,51.3779529 -40.7480315,51.3779529 -22.5045165,0 -40.7480315,-23.002693 -40.7480315,-51.3779529 0,-28.3752601 18.243515,-51.3779531 40.7480315,-51.3779531 22.5045165,0 40.7480315,23.002693 40.7480315,51.3779531 z"
       sodipodi:ry="51.377953"
       sodipodi:rx="40.748032"
       sodipodi:cy="-8.3070869"
       sodipodi:cx="-5.3149605"
       id="path844"
       style="fill:none;stroke:#9db8d2;stroke-width:26.51739883;stroke-opacity:1"
       sodipodi:type="arc" />
    <path
       transform="matrix(-0.495962,0,0,0.549915,118.4394,118.8131)"
       d="m 35.433071,-8.3070869 c 0,28.3752599 -18.243515,51.3779529 -40.7480315,51.3779529 -22.5045165,0 -40.7480315,-23.002693 -40.7480315,-51.3779529 0,-28.3752601 18.243515,-51.3779531 40.7480315,-51.3779531 22.5045165,0 40.7480315,23.002693 40.7480315,51.3779531 z"
       sodipodi:ry="51.377953"
       sodipodi:rx="40.748032"
       sodipodi:cy="-8.3070869"
       sodipodi:cx="-5.3149605"
       id="path1321"
       style="fill:none;stroke:#9db8d2;stroke-width:26.51739883;stroke-opacity:1"
       sodipodi:type="arc" />
    <path
       transform="matrix(0.783674,0,0,0.923233,91.46136,73.24098)"
       d="m 35.433071,-8.3070869 c 0,28.3752599 -18.243515,51.3779529 -40.7480315,51.3779529 -22.5045165,0 -40.7480315,-23.002693 -40.7480315,-51.3779529 0,-28.3752601 18.243515,-51.3779531 40.7480315,-51.3779531 22.5045165,0 40.7480315,23.002693 40.7480315,51.3779531 z"
       sodipodi:ry="51.377953"
       sodipodi:rx="40.748032"
       sodipodi:cy="-8.3070869"
       sodipodi:cx="-5.3149605"
       id="path1325"
       style="fill:none;stroke:#000000;stroke-width:16.28092575;stroke-opacity:0.63157893"
       sodipodi:type="arc" />
    <path
       transform="matrix(0.783674,0,0,0.923233,87.3465,69.12612)"
       d="m 35.433071,-8.3070869 c 0,28.3752599 -18.243515,51.3779529 -40.7480315,51.3779529 -22.5045165,0 -40.7480315,-23.002693 -40.7480315,-51.3779529 0,-28.3752601 18.243515,-51.3779531 40.7480315,-51.3779531 22.5045165,0 40.7480315,23.002693 40.7480315,51.3779531 z"
       sodipodi:ry="51.377953"
       sodipodi:rx="40.748032"
       sodipodi:cy="-8.3070869"
       sodipodi:cx="-5.3149605"
       id="path843"
       style="fill:none;stroke:#9db8d2;stroke-width:16.28092575;stroke-opacity:1"
       sodipodi:type="arc" />
    <path
       transform="matrix(0.783674,0,0,0.923233,54.6808,105.1906)"
       d="m 35.433071,-8.3070869 c 0,28.3752599 -18.243515,51.3779529 -40.7480315,51.3779529 -22.5045165,0 -40.7480315,-23.002693 -40.7480315,-51.3779529 0,-28.3752601 18.243515,-51.3779531 40.7480315,-51.3779531 22.5045165,0 40.7480315,23.002693 40.7480315,51.3779531 z"
       sodipodi:ry="51.377953"
       sodipodi:rx="40.748032"
       sodipodi:cy="-8.3070869"
       sodipodi:cx="-5.3149605"
       id="path1327"
       style="fill:none;stroke:#000000;stroke-width:16.28092575;stroke-opacity:0.63157893"
       sodipodi:type="arc" />
    <path
       transform="matrix(0.783674,0,0,0.923233,50.56594,101.0758)"
       d="m 35.433071,-8.3070869 c 0,28.3752599 -18.243515,51.3779529 -40.7480315,51.3779529 -22.5045165,0 -40.7480315,-23.002693 -40.7480315,-51.3779529 0,-28.3752601 18.243515,-51.3779531 40.7480315,-51.3779531 22.5045165,0 40.7480315,23.002693 40.7480315,51.3779531 z"
       sodipodi:ry="51.377953"
       sodipodi:rx="40.748032"
       sodipodi:cy="-8.3070869"
       sodipodi:cx="-5.3149605"
       id="path842"
       style="fill:none;stroke:#9db8d2;stroke-width:16.28092575;stroke-opacity:1"
       sodipodi:type="arc" />
    <g
       transform="matrix(0.923233,0,0,0.923233,4.908878,2.623668)"
       id="g1314">
      <path
         sodipodi:nodetypes="ccccc"
         id="path847"
         d="m 4.4137105,145.71516 c 0,0 20.6444655,-53.801125 63.8366335,-45.08353 10.515228,-41.850876 72.611536,-38.901695 72.611536,-38.901695 0,0 -60.843785,19.853974 -63.096338,56.607425 C 46.96739,101.97363 4.5277352,145.83751 4.4137105,145.71516 z"
         style="fill-rule:evenodd;stroke:#000000;stroke-width:1.74080634" />
      <path
         sodipodi:nodetypes="ccccc"
         id="path848"
         d="m 53.753101,72.043887 c 0,0 15.355192,-38.372589 47.481179,-32.154929 7.82114,-29.849323 54.00788,-27.745879 54.00788,-27.745879 0,0 -45.25513,14.160463 -46.93056,40.374142 C 85.404193,40.846104 53.83791,72.131156 53.753101,72.043887 z"
         style="fill-rule:evenodd;stroke:#000000;stroke-width:1.26791799" />
    </g>
    <g
       style="fill:#000000;fill-opacity:0.46153846;stroke:none"
       transform="matrix(0.923233,0,0,0.923233,6.868243,3.927179)"
       id="g2091">
      <path
         sodipodi:nodetypes="ccccc"
         id="path2093"
         d="m 4.4137105,145.71516 c 0,0 20.6444655,-53.801125 63.8366335,-45.08353 10.515228,-41.850876 72.611536,-38.901695 72.611536,-38.901695 0,0 -60.843785,19.853974 -63.096338,56.607425 C 46.96739,101.97363 4.5277352,145.83751 4.4137105,145.71516 z"
         style="fill-rule:evenodd" />
      <path
         sodipodi:nodetypes="ccccc"
         id="path2095"
         d="m 53.753101,72.043887 c 0,0 15.355192,-38.372589 47.481179,-32.154929 7.82114,-29.849323 54.00788,-27.745879 54.00788,-27.745879 0,0 -45.25513,14.160463 -46.93056,40.374142 C 85.404193,40.846104 53.83791,72.131156 53.753101,72.043887 z"
         style="fill-rule:evenodd" />
    </g>
  </g>
  <g
     transform="matrix(1.14445,0,0,1.14445,7.717223,42.616662)"
     id="g938">
    <rect
       y="23.673359"
       x="41.156162"
       height="70.600235"
       width="79.987961"
       id="rect830"
       style="fill:#ffffff;fill-rule:evenodd;stroke:#000000;stroke-width:3.49224687" />
    <rect
       y="24.866571"
       x="42.489933"
       height="11.28526"
       width="25.79488"
       id="rect831"
       style="fill:#b8baba;fill-rule:evenodd;stroke:#717373;stroke-width:0.45499301pt" />
    <rect
       y="25.173307"
       x="42.898914"
       height="0.89646012"
       width="25.110155"
       id="rect837"
       style="fill:#ffffff;fill-rule:evenodd;stroke-width:1pt" />
    <rect
       transform="matrix(0,1,-1,0,0,0)"
       y="-43.734993"
       x="25.642673"
       height="0.89646012"
       width="10.182296"
       id="rect838"
       style="fill:#ffffff;fill-rule:evenodd;stroke-width:1pt" />
    <rect
       y="34.886642"
       x="43.716877"
       height="0.89646012"
       width="24.292191"
       id="rect839"
       style="fill:#333333;fill-rule:evenodd;stroke-width:1pt" />
    <rect
       transform="matrix(0,1,-1,0,0,0)"
       y="-67.967209"
       x="26.153902"
       height="0.89646012"
       width="8.8531008"
       id="rect840"
       style="fill:#333333;fill-rule:evenodd;stroke-width:1pt" />
    <rect
       y="24.866571"
       x="68.284813"
       height="11.28526"
       width="25.79488"
       id="rect841"
       style="fill:#b8baba;fill-rule:evenodd;stroke:#717373;stroke-width:0.45499301pt" />
    <rect
       y="25.173307"
       x="68.693794"
       height="0.89646012"
       width="25.110155"
       id="rect842"
       style="fill:#ffffff;fill-rule:evenodd;stroke-width:1pt" />
    <rect
       transform="matrix(0,1,-1,0,0,0)"
       y="-69.529869"
       x="25.642673"
       height="0.89646012"
       width="10.182296"
       id="rect843"
       style="fill:#ffffff;fill-rule:evenodd;stroke-width:1pt" />
    <rect
       y="34.886642"
       x="69.511757"
       height="0.89646012"
       width="24.292191"
       id="rect844"
       style="fill:#333333;fill-rule:evenodd;stroke-width:1pt" />
    <rect
       transform="matrix(0,1,-1,0,0,0)"
       y="-93.762085"
       x="26.153902"
       height="0.89646012"
       width="8.8531008"
       id="rect845"
       style="fill:#333333;fill-rule:evenodd;stroke-width:1pt" />
    <rect
       y="24.866571"
       x="94.079689"
       height="11.28526"
       width="25.79488"
       id="rect846"
       style="fill:#b8baba;fill-rule:evenodd;stroke:#717373;stroke-width:0.45499301pt" />
    <rect
       y="25.173309"
       x="94.48867"
       height="0.89646012"
       width="25.110155"
       id="rect847"
       style="fill:#ffffff;fill-rule:evenodd;stroke-width:1pt" />
    <rect
       transform="matrix(0,1,-1,0,0,0)"
       y="-95.324745"
       x="25.642673"
       height="0.89646012"
       width="10.182296"
       id="rect848"
       style="fill:#ffffff;fill-rule:evenodd;stroke-width:1pt" />
    <rect
       y="34.886646"
       x="95.306633"
       height="0.89646012"
       width="24.292191"
       id="rect849"
       style="fill:#333333;fill-rule:evenodd;stroke-width:1pt" />
    <rect
       transform="matrix(0,1,-1,0,0,0)"
       y="-119.55696"
       x="26.153902"
       height="0.89646012"
       width="8.8531008"
       id="rect850"
       style="fill:#333333;fill-rule:evenodd;stroke-width:1pt" />
    <rect
       y="58.722347"
       x="42.489929"
       height="11.28526"
       width="25.79488"
       id="rect851"
       style="fill:#b8baba;fill-rule:evenodd;stroke:#717373;stroke-width:0.45499301pt" />
    <rect
       y="59.029091"
       x="42.898914"
       height="0.89646012"
       width="25.110155"
       id="rect852"
       style="fill:#ffffff;fill-rule:evenodd;stroke-width:1pt" />
    <rect
       transform="matrix(0,1,-1,0,0,0)"
       y="-43.734982"
       x="59.498455"
       height="0.89646012"
       width="10.182296"
       id="rect853"
       style="fill:#ffffff;fill-rule:evenodd;stroke-width:1pt" />
    <rect
       y="68.742424"
       x="43.716869"
       height="0.89646012"
       width="24.292191"
       id="rect854"
       style="fill:#333333;fill-rule:evenodd;stroke-width:1pt" />
    <rect
       transform="matrix(0,1,-1,0,0,0)"
       y="-67.967201"
       x="60.009682"
       height="0.89646012"
       width="8.8531008"
       id="rect855"
       style="fill:#333333;fill-rule:evenodd;stroke-width:1pt" />
    <rect
       y="36.151833"
       x="42.489933"
       height="11.28526"
       width="25.79488"
       id="rect856"
       style="fill:#b8baba;fill-rule:evenodd;stroke:#717373;stroke-width:0.45499301pt" />
    <rect
       y="36.458569"
       x="42.898914"
       height="0.89646012"
       width="25.110155"
       id="rect857"
       style="fill:#ffffff;fill-rule:evenodd;stroke-width:1pt" />
    <rect
       transform="matrix(0,1,-1,0,0,0)"
       y="-43.734993"
       x="36.927933"
       height="0.89646012"
       width="10.182296"
       id="rect858"
       style="fill:#ffffff;fill-rule:evenodd;stroke-width:1pt" />
    <rect
       y="46.171906"
       x="43.716877"
       height="0.89646012"
       width="24.292191"
       id="rect859"
       style="fill:#333333;fill-rule:evenodd;stroke-width:1pt" />
    <rect
       transform="matrix(0,1,-1,0,0,0)"
       y="-67.967209"
       x="37.439163"
       height="0.89646012"
       width="8.8531008"
       id="rect860"
       style="fill:#333333;fill-rule:evenodd;stroke-width:1pt" />
    <rect
       y="47.437092"
       x="42.489933"
       height="11.28526"
       width="25.79488"
       id="rect861"
       style="fill:#b8baba;fill-rule:evenodd;stroke:#717373;stroke-width:0.45499301pt" />
    <rect
       y="47.743828"
       x="42.898914"
       height="0.89646012"
       width="25.110155"
       id="rect862"
       style="fill:#ffffff;fill-rule:evenodd;stroke-width:1pt" />
    <rect
       transform="matrix(0,1,-1,0,0,0)"
       y="-43.734989"
       x="48.213192"
       height="0.89646012"
       width="10.182296"
       id="rect863"
       style="fill:#ffffff;fill-rule:evenodd;stroke-width:1pt" />
    <rect
       y="57.457165"
       x="43.716877"
       height="0.89646012"
       width="24.292191"
       id="rect864"
       style="fill:#333333;fill-rule:evenodd;stroke-width:1pt" />
    <rect
       transform="matrix(0,1,-1,0,0,0)"
       y="-67.967209"
       x="48.724422"
       height="0.89646012"
       width="8.8531008"
       id="rect865"
       style="fill:#333333;fill-rule:evenodd;stroke-width:1pt" />
    <rect
       y="70.007614"
       x="42.489933"
       height="11.28526"
       width="25.79488"
       id="rect866"
       style="fill:#b8baba;fill-rule:evenodd;stroke:#717373;stroke-width:0.45499301pt" />
    <rect
       y="70.314354"
       x="42.898918"
       height="0.89646012"
       width="25.110155"
       id="rect867"
       style="fill:#ffffff;fill-rule:evenodd;stroke-width:1pt" />
    <rect
       transform="matrix(0,1,-1,0,0,0)"
       y="-43.734982"
       x="70.783714"
       height="0.89646012"
       width="10.182296"
       id="rect868"
       style="fill:#ffffff;fill-rule:evenodd;stroke-width:1pt" />
    <rect
       y="80.027679"
       x="43.716869"
       height="0.89646012"
       width="24.292191"
       id="rect869"
       style="fill:#333333;fill-rule:evenodd;stroke-width:1pt" />
    <rect
       transform="matrix(0,1,-1,0,0,0)"
       y="-67.967201"
       x="71.294945"
       height="0.89646012"
       width="8.8531008"
       id="rect870"
       style="fill:#333333;fill-rule:evenodd;stroke-width:1pt" />
    <rect
       y="81.29287"
       x="42.489933"
       height="11.28526"
       width="25.79488"
       id="rect871"
       style="fill:#b8baba;fill-rule:evenodd;stroke:#717373;stroke-width:0.45499301pt" />
    <rect
       y="81.599609"
       x="42.898918"
       height="0.89646012"
       width="25.110155"
       id="rect872"
       style="fill:#ffffff;fill-rule:evenodd;stroke-width:1pt" />
    <rect
       transform="matrix(0,1,-1,0,0,0)"
       y="-43.734982"
       x="82.06897"
       height="0.89646012"
       width="10.182296"
       id="rect873"
       style="fill:#ffffff;fill-rule:evenodd;stroke-width:1pt" />
    <rect
       y="91.312935"
       x="43.716869"
       height="0.89646012"
       width="24.292191"
       id="rect874"
       style="fill:#333333;fill-rule:evenodd;stroke-width:1pt" />
    <rect
       transform="matrix(0,1,-1,0,0,0)"
       y="-67.967201"
       x="82.580193"
       height="0.89646012"
       width="8.8531008"
       id="rect875"
       style="fill:#333333;fill-rule:evenodd;stroke-width:1pt" />
    <rect
       y="36.436203"
       x="68.000443"
       height="11.28526"
       width="25.79488"
       id="rect876"
       style="fill:#ffffff;fill-rule:evenodd;stroke:#717373;stroke-width:0.45499301pt" />
    <rect
       y="36.436203"
       x="93.795319"
       height="11.28526"
       width="25.79488"
       id="rect877"
       style="fill:#ffffff;fill-rule:evenodd;stroke:#717373;stroke-width:0.45499301pt" />
    <rect
       y="47.721462"
       x="68.000443"
       height="11.28526"
       width="25.79488"
       id="rect878"
       style="fill:#ffffff;fill-rule:evenodd;stroke:#717373;stroke-width:0.45499301pt" />
    <rect
       y="47.721462"
       x="93.795319"
       height="11.28526"
       width="25.79488"
       id="rect879"
       style="fill:#ffffff;fill-rule:evenodd;stroke:#717373;stroke-width:0.45499301pt" />
    <rect
       y="59.006721"
       x="68.000443"
       height="11.28526"
       width="25.79488"
       id="rect880"
       style="fill:#ffffff;fill-rule:evenodd;stroke:#717373;stroke-width:0.45499301pt" />
    <rect
       y="59.006721"
       x="93.795319"
       height="11.28526"
       width="25.79488"
       id="rect881"
       style="fill:#ffffff;fill-rule:evenodd;stroke:#717373;stroke-width:0.45499301pt" />
    <rect
       y="70.291977"
       x="68.000443"
       height="11.28526"
       width="25.79488"
       id="rect882"
       style="fill:#ffffff;fill-rule:evenodd;stroke:#717373;stroke-width:0.45499301pt" />
    <rect
       y="70.291977"
       x="93.795319"
       height="11.28526"
       width="25.79488"
       id="rect883"
       style="fill:#ffffff;fill-rule:evenodd;stroke:#717373;stroke-width:0.45499301pt" />
    <rect
       y="81.57724"
       x="68.000443"
       height="11.28526"
       width="25.79488"
       id="rect884"
       style="fill:#ffffff;fill-rule:evenodd;stroke:#717373;stroke-width:0.45499301pt" />
    <rect
       y="81.57724"
       x="93.795319"
       height="11.28526"
       width="25.79488"
       id="rect885"
       style="fill:#ffffff;fill-rule:evenodd;stroke:#717373;stroke-width:0.45499301pt" />
  </g>
</svg>
