<?xml version="1.0" encoding="UTF-8" standalone="no"?>
<!-- Created with Inkscape (http://www.inkscape.org/) -->
<svg
   xmlns:dc="http://purl.org/dc/elements/1.1/"
   xmlns:cc="http://web.resource.org/cc/"
   xmlns:rdf="http://www.w3.org/1999/02/22-rdf-syntax-ns#"
   xmlns:svg="http://www.w3.org/2000/svg"
   xmlns="http://www.w3.org/2000/svg"
   xmlns:xlink="http://www.w3.org/1999/xlink"
   xmlns:sodipodi="http://inkscape.sourceforge.net/DTD/sodipodi-0.dtd"
   xmlns:inkscape="http://www.inkscape.org/namespaces/inkscape"
   id="svg1"
   sodipodi:version="0.32"
   inkscape:version="0.41"
   width="128.00000pt"
   height="128.00000pt"
   sodipodi:docbase="/home/francois/Rodent/scalable/mimetypes"
   sodipodi:docname="gnome-mime-text-css.svg">
  <metadata
     id="metadata15">
    <rdf:RDF
       id="RDF17">
      <cc:Work
         rdf:about=""
         id="Work19">
        <dc:format
           id="format21">image/svg+xml</dc:format>
        <dc:type
           id="type23"
           rdf:resource="http://purl.org/dc/dcmitype/StillImage" />
      </cc:Work>
    </rdf:RDF>
  </metadata>
  <defs
     id="defs3">
    <linearGradient
       id="linearGradient3587">
      <stop
         id="stop3589"
         offset="0.0000000"
         style="stop-color:#efe0cd;stop-opacity:0.56097561;" />
      <stop
         id="stop3591"
         offset="1.0000000"
         style="stop-color:#cececd;stop-opacity:0.21951219;" />
    </linearGradient>
    <linearGradient
       id="linearGradient2832">
      <stop
         style="stop-color:#ffffff;stop-opacity:1.0000000;"
         offset="0.0000000"
         id="stop2834" />
      <stop
         style="stop-color:#ffffff;stop-opacity:0.0000000;"
         offset="1.0000000"
         id="stop2836" />
    </linearGradient>
    <linearGradient
       id="linearGradient839">
      <stop
         style="stop-color:#46a046;stop-opacity:1.0000000;"
         offset="0.0000000"
         id="stop840" />
      <stop
         style="stop-color:#df421e;stop-opacity:1.0000000;"
         offset="0.39364964"
         id="stop841" />
      <stop
         style="stop-color:#ada7c8;stop-opacity:1.0000000;"
         offset="0.72036445"
         id="stop842" />
      <stop
         style="stop-color:#eed680;stop-opacity:1.0000000;"
         offset="1.0000000"
         id="stop843" />
    </linearGradient>
    <linearGradient
       xlink:href="#linearGradient839"
       id="linearGradient836"
       x1="1.3267924e-17"
       y1="0.50000000"
       x2="1.0000000"
       y2="0.50000000" />
    <linearGradient
       inkscape:collect="always"
       xlink:href="#linearGradient2832"
       id="linearGradient2830"
       gradientTransform="matrix(0.939922,0.000000,0.000000,0.896911,4.950743,6.511692)"
       x1="23.983805"
       y1="16.369013"
       x2="72.999245"
       y2="73.398720"
       gradientUnits="userSpaceOnUse" />
    <linearGradient
       gradientUnits="userSpaceOnUse"
       gradientTransform="scale(1.080100,0.925840)"
       spreadMethod="reflect"
       y2="55.073781"
       x2="76.569053"
       y1="73.521367"
       x1="95.121380"
       id="linearGradient674"
       xlink:href="#linearGradient869" />
    <linearGradient
       y2="0.50000000"
       x2="1.0000000"
       y1="0.50000000"
       x1="1.3267924e-17"
       id="linearGradient1373"
       xlink:href="#linearGradient839" />
    <linearGradient
       id="linearGradient1363">
      <stop
         id="stop1365"
         offset="0.0000000"
         style="stop-color:#46a046;stop-opacity:1.0000000;" />
      <stop
         id="stop1367"
         offset="0.39364964"
         style="stop-color:#df421e;stop-opacity:1.0000000;" />
      <stop
         id="stop1369"
         offset="0.72036445"
         style="stop-color:#ada7c8;stop-opacity:1.0000000;" />
      <stop
         id="stop1371"
         offset="1.0000000"
         style="stop-color:#eed680;stop-opacity:1.0000000;" />
    </linearGradient>
    <linearGradient
       gradientUnits="userSpaceOnUse"
       gradientTransform="scale(0.999352,1.000649)"
       spreadMethod="reflect"
       y2="75.142359"
       x2="47.145329"
       y1="81.199529"
       x1="52.724242"
       id="linearGradient904"
       xlink:href="#linearGradient907" />
    <linearGradient
       id="linearGradient866">
      <stop
         id="stop867"
         offset="0.0000000"
         style="stop-color:#ffff00;stop-opacity:1.0000000;" />
      <stop
         id="stop901"
         offset="0.36908397"
         style="stop-color:#ffea00;stop-opacity:1.0000000;" />
      <stop
         id="stop868"
         offset="1.0000000"
         style="stop-color:#ffd600;stop-opacity:1.0000000;" />
    </linearGradient>
    <linearGradient
       id="linearGradient869">
      <stop
         id="stop870"
         offset="0.0000000"
         style="stop-color:#990000;stop-opacity:1.0000000;" />
      <stop
         id="stop871"
         offset="1.0000000"
         style="stop-color:#ffffff;stop-opacity:1.0000000;" />
    </linearGradient>
    <linearGradient
       id="linearGradient907">
      <stop
         id="stop908"
         offset="0.0000000"
         style="stop-color:#eed680;stop-opacity:1.0000000;" />
      <stop
         id="stop911"
         offset="0.29427481"
         style="stop-color:#dfb546;stop-opacity:1.0000000;" />
      <stop
         id="stop910"
         offset="1.0000000"
         style="stop-color:#d1940c;stop-opacity:1.0000000;" />
    </linearGradient>
    <linearGradient
       y2="49.744450"
       x2="-66.468513"
       y1="63.613220"
       x1="-54.605907"
       spreadMethod="reflect"
       gradientTransform="scale(1.080100,0.925840)"
       gradientUnits="userSpaceOnUse"
       id="linearGradient2167"
       xlink:href="#linearGradient869"
       inkscape:collect="always" />
    <linearGradient
       y2="75.142359"
       x2="47.145329"
       y1="81.199529"
       x1="52.724242"
       spreadMethod="reflect"
       gradientTransform="matrix(0.999352,0.000000,0.000000,1.000649,-151.1197,-0.373250)"
       gradientUnits="userSpaceOnUse"
       id="linearGradient2169"
       xlink:href="#linearGradient907"
       inkscape:collect="always" />
    <linearGradient
       xlink:href="#linearGradient869"
       id="linearGradient1413"
       x1="0.68852460"
       y1="0.78625953"
       x2="0.37377051"
       y2="0.47328246"
       spreadMethod="reflect" />
    <linearGradient
       xlink:href="#linearGradient839"
       id="linearGradient1411"
       x1="1.3267924e-17"
       y1="0.50000000"
       x2="1.0000000"
       y2="0.50000000" />
    <linearGradient
       id="linearGradient1401">
      <stop
         style="stop-color:#46a046;stop-opacity:1.0000000;"
         offset="0.0000000"
         id="stop1403" />
      <stop
         style="stop-color:#df421e;stop-opacity:1.0000000;"
         offset="0.39364964"
         id="stop1405" />
      <stop
         style="stop-color:#ada7c8;stop-opacity:1.0000000;"
         offset="0.72036445"
         id="stop1407" />
      <stop
         style="stop-color:#eed680;stop-opacity:1.0000000;"
         offset="1.0000000"
         id="stop1409" />
    </linearGradient>
    <linearGradient
       xlink:href="#linearGradient907"
       id="linearGradient1399"
       x1="0.35737705"
       y1="0.49346405"
       x2="0.17377049"
       y2="0.29411766"
       spreadMethod="reflect" />
    <linearGradient
       id="linearGradient1391">
      <stop
         style="stop-color:#ffff00;stop-opacity:1.0000000;"
         offset="0.0000000"
         id="stop1393" />
      <stop
         style="stop-color:#ffea00;stop-opacity:1.0000000;"
         offset="0.36908397"
         id="stop1395" />
      <stop
         style="stop-color:#ffd600;stop-opacity:1.0000000;"
         offset="1.0000000"
         id="stop1397" />
    </linearGradient>
    <linearGradient
       id="linearGradient1384">
      <stop
         style="stop-color:#7590ae;stop-opacity:1.0000000;"
         offset="0.0000000"
         id="stop1386" />
      <stop
         style="stop-color:#89a4c0;stop-opacity:1.0000000;"
         offset="0.87030536"
         id="stop912" />
      <stop
         style="stop-color:#9db8d2;stop-opacity:1.0000000;"
         offset="1.0000000"
         id="stop1389" />
    </linearGradient>
    <linearGradient
       id="linearGradient1376">
      <stop
         style="stop-color:#eed680;stop-opacity:1.0000000;"
         offset="0.0000000"
         id="stop1378" />
      <stop
         style="stop-color:#dfb546;stop-opacity:1.0000000;"
         offset="0.29427481"
         id="stop1380" />
      <stop
         style="stop-color:#d1940c;stop-opacity:1.0000000;"
         offset="1.0000000"
         id="stop1382" />
    </linearGradient>
    <linearGradient
       xlink:href="#linearGradient869"
       id="linearGradient1436"
       x1="0.68852460"
       y1="0.78625953"
       x2="0.37377051"
       y2="0.47328246"
       spreadMethod="reflect" />
    <linearGradient
       xlink:href="#linearGradient839"
       id="linearGradient1434"
       x1="1.3267924e-17"
       y1="0.50000000"
       x2="1.0000000"
       y2="0.50000000" />
    <linearGradient
       id="linearGradient1424">
      <stop
         style="stop-color:#46a046;stop-opacity:1.0000000;"
         offset="0.0000000"
         id="stop1426" />
      <stop
         style="stop-color:#df421e;stop-opacity:1.0000000;"
         offset="0.39364964"
         id="stop1428" />
      <stop
         style="stop-color:#ada7c8;stop-opacity:1.0000000;"
         offset="0.72036445"
         id="stop1430" />
      <stop
         style="stop-color:#eed680;stop-opacity:1.0000000;"
         offset="1.0000000"
         id="stop1432" />
    </linearGradient>
    <linearGradient
       xlink:href="#linearGradient907"
       id="linearGradient1422"
       x1="0.35737705"
       y1="0.49346405"
       x2="0.17377049"
       y2="0.29411766"
       spreadMethod="reflect" />
    <linearGradient
       id="linearGradient1414">
      <stop
         style="stop-color:#ffff00;stop-opacity:1.0000000;"
         offset="0.0000000"
         id="stop1416" />
      <stop
         style="stop-color:#ffea00;stop-opacity:1.0000000;"
         offset="0.36908397"
         id="stop1418" />
      <stop
         style="stop-color:#ffd600;stop-opacity:1.0000000;"
         offset="1.0000000"
         id="stop1420" />
    </linearGradient>
    <linearGradient
       id="linearGradient1406">
      <stop
         style="stop-color:#7590ae;stop-opacity:1.0000000;"
         offset="0.0000000"
         id="stop1408" />
      <stop
         style="stop-color:#89a4c0;stop-opacity:1.0000000;"
         offset="0.87030536"
         id="stop1410" />
      <stop
         style="stop-color:#9db8d2;stop-opacity:1.0000000;"
         offset="1.0000000"
         id="stop1412" />
    </linearGradient>
    <linearGradient
       id="linearGradient1397">
      <stop
         style="stop-color:#eed680;stop-opacity:1.0000000;"
         offset="0.0000000"
         id="stop1399" />
      <stop
         style="stop-color:#dfb546;stop-opacity:1.0000000;"
         offset="0.29427481"
         id="stop1401" />
      <stop
         style="stop-color:#d1940c;stop-opacity:1.0000000;"
         offset="1.0000000"
         id="stop1404" />
    </linearGradient>
    <linearGradient
       inkscape:collect="always"
       xlink:href="#linearGradient907"
       id="linearGradient1458"
       gradientUnits="userSpaceOnUse"
       gradientTransform="matrix(0.999352,0.000000,0.000000,1.000649,-178.7769,-4.004405)"
       spreadMethod="reflect"
       x1="52.724242"
       y1="81.199529"
       x2="47.145329"
       y2="75.142359" />
    <linearGradient
       inkscape:collect="always"
       xlink:href="#linearGradient869"
       id="linearGradient1461"
       gradientUnits="userSpaceOnUse"
       gradientTransform="matrix(1.080100,0.000000,0.000000,0.925840,-178.7769,-4.004405)"
       spreadMethod="reflect"
       x1="95.121380"
       y1="73.521367"
       x2="76.569053"
       y2="55.073781" />
  </defs>
  <sodipodi:namedview
     inkscape:guide-bbox="true"
     showguides="true"
     id="base"
     pagecolor="#ffffff"
     bordercolor="#666666"
     borderopacity="1.0"
     inkscape:pageopacity="0.0"
     inkscape:pageshadow="2"
     inkscape:zoom="2.9500000"
     inkscape:cx="80.000000"
     inkscape:cy="80.000000"
     inkscape:window-width="714"
     inkscape:window-height="653"
     showgrid="true"
     snaptogrid="false"
     gridspacingx="1.0000000mm"
     gridspacingy="1.0000000mm"
     inkscape:window-x="0"
     inkscape:window-y="51"
     inkscape:current-layer="svg1" />
  <rect
     style="stroke-miterlimit:4.0000000;stroke-dasharray:none;stroke-opacity:0.49999997;stroke-linejoin:round;stroke-width:7.5000000;stroke:#000000;fill-rule:evenodd;fill:none"
     id="rect834"
     width="117.75612"
     height="133.38696"
     x="20.782476"
     y="13.614116"
     ry="22.892691"
     rx="22.892691" />
  <rect
     style="fill:#bab5ab;fill-opacity:1.0000000;fill-rule:evenodd;stroke:#000000;stroke-width:3.7500000;stroke-dasharray:none;stroke-miterlimit:4.0000000"
     id="rect828"
     width="117.75612"
     height="133.38696"
     x="20.643702"
     y="13.524447"
     ry="22.892691"
     rx="22.892691" />
  <path
     style="stroke-width:6.2500000;stroke:none;fill-rule:evenodd;fill-opacity:0.27935222;fill:#ffffff"
     d="M 117.38055,142.41910 L 41.662967,142.41910 C 30.018294,142.41910 24.316361,136.71717 24.316361,125.07250 C 24.316361,125.07250 51.936692,58.557014 134.72716,48.414718 L 134.72716,125.07250 C 134.72716,136.71717 129.02522,142.41910 117.38055,142.41910 z "
     id="path2838"
     sodipodi:nodetypes="cccccc" />
  <g
     transform="translate(148.0000,0.000000)"
     id="g2160">
    <path
       sodipodi:nodetypes="cccc"
       id="path873"
       d="M -81.317197,63.097780 L -76.328485,64.170081 L -78.286689,61.139573 L -81.317197,63.097780 z "
       style="fill-rule:evenodd;stroke:#000000;stroke-width:0.72004113pt" />
    <path
       style="fill:none;stroke:#000000;stroke-width:0.16759372"
       d="M -62.246200,51.016016 C -62.246200,51.016016 -60.572575,50.718565 -60.572575,50.718565 C -60.572575,50.718565 -59.202748,51.834488 -59.202748,51.834488 C -59.238682,51.169576 -59.546838,50.939043 -60.196908,50.635018 C -60.196908,50.635018 -60.129396,50.320931 -60.129396,50.320931 C -59.378062,50.153836 -59.207106,50.190583 -58.730172,49.635908 C -58.730172,49.635908 -60.574753,49.896612 -60.574753,49.896612 C -60.574753,49.896612 -61.807379,48.974475 -61.807379,48.974475 C -61.771445,49.639388 -61.600489,49.676135 -60.984176,50.137200 C -60.984176,50.137200 -62.246200,51.016016 -62.246200,51.016016 z M -61.501401,48.383055 C -61.501401,48.383055 -60.714132,48.880866 -60.714132,48.880866 C -59.211463,48.546669 -58.833617,49.285075 -58.358863,47.908450 C -58.358863,47.908450 -58.700774,47.834958 -58.700774,47.834958 C -59.211463,48.546669 -59.553375,48.473177 -60.408154,48.289445 C -60.408154,48.289445 -60.239377,47.504242 -60.239377,47.504242 C -60.239377,47.504242 -60.581290,47.430749 -60.581290,47.430749 C -60.581290,47.430749 -60.750067,48.215953 -60.750067,48.215953 C -60.750067,48.215953 -61.433890,48.068968 -61.433890,48.068968 C -61.433890,48.068968 -61.501401,48.383055 -61.501401,48.383055 z M -58.432908,45.756664 C -58.430729,46.578617 -58.464486,46.735664 -59.283332,47.216846 C -59.283332,47.216846 -58.945777,45.646425 -58.945777,45.646425 C -60.722846,45.593042 -60.480023,46.959622 -59.692753,47.457433 C -58.529818,47.871704 -57.542195,46.605308 -58.432908,45.756664 z M -60.007446,44.761034 C -60.007446,44.761034 -57.785019,45.238735 -57.785019,45.238735 C -57.785019,45.238735 -57.717507,44.924648 -57.717507,44.924648 C -58.743244,44.704171 -59.256111,44.593932 -59.395488,43.578186 C -59.395488,43.578186 -59.737401,43.504693 -59.737401,43.504693 C -59.737401,43.504693 -59.564267,44.363400 -59.564267,44.363400 C -59.564267,44.363400 -60.007446,44.761034 -60.007446,44.761034 z M -59.669891,43.190613 C -59.669891,43.190613 -57.447463,43.668315 -57.447463,43.668315 C -57.447463,43.668315 -57.379951,43.354228 -57.379951,43.354228 C -57.721864,43.280735 -59.602379,42.876526 -58.749779,42.238304 C -58.511310,41.960964 -57.485575,42.181441 -57.143663,42.254934 C -57.143663,42.254934 -57.076153,41.940854 -57.076153,41.940854 C -57.418065,41.867361 -59.127625,41.499898 -58.479735,40.981970 C -58.241267,40.704630 -57.215531,40.925107 -56.873619,40.998599 C -56.873619,40.998599 -56.772353,40.527473 -56.772353,40.527473 C -57.285221,40.417234 -58.140000,40.233502 -58.686623,40.280304 C -59.096047,40.520898 -59.399848,41.934279 -59.330157,42.442145 C -59.363913,42.599192 -59.192957,42.635939 -59.226712,42.792979 C -59.226712,42.792979 -59.669891,43.190613 -59.669891,43.190613 z M -59.355198,45.887013 C -59.355198,45.887013 -59.625243,47.143353 -59.625243,47.143353 C -60.036844,46.561988 -60.140289,46.211154 -59.355198,45.887013 z "
       id="path900" />
    <path
       sodipodi:nodetypes="cccc"
       id="path879"
       d="M -90.412933,65.688043 C -75.104619,49.385236 -43.627200,17.342738 -32.017540,29.139154 C -21.748650,41.371321 -61.572464,66.781133 -78.400378,77.559753 L -90.412933,65.688043 z "
       style="fill:url(#linearGradient2167);fill-opacity:1.0000000;fill-rule:evenodd;stroke:#000000;stroke-width:3.6002057" />
    <path
       sodipodi:nodetypes="cccccccc"
       id="path868"
       d="M -80.266178,76.307212 C -80.266178,76.307212 -83.886954,83.283950 -82.131989,85.314942 C -80.303635,86.916702 -97.836559,92.218905 -100.68798,91.898047 C -100.68798,91.898055 -103.15674,97.307853 -106.74006,93.675094 C -110.32338,90.042343 -104.68149,87.418103 -104.68149,87.418103 C -104.67634,83.221775 -100.04858,67.151169 -98.256925,68.967546 C -96.465265,70.783921 -89.224475,67.225324 -89.224475,67.225324 C -89.224475,67.225324 -80.266178,76.307212 -80.266178,76.307212 z "
       style="fill:url(#linearGradient2169);fill-opacity:0.75000000;fill-rule:evenodd;stroke:#000000;stroke-width:2.7001543" />
    <path
       sodipodi:nodetypes="cc"
       id="path876"
       d="M -105.52241,92.488546 C -105.52241,92.488546 -90.991393,78.155268 -90.991393,78.155268"
       style="fill:none;fill-opacity:0.75000000;fill-rule:evenodd;stroke:#000000;stroke-width:0.72004113pt;stroke-linecap:round;stroke-linejoin:round" />
  </g>
  <path
     style="font-size:40.000000;fill:#ffffff;fill-opacity:1.0000000;stroke-width:1.0000000pt;font-family:Trek"
     d="M 124.37180,103.39888 L 124.37180,108.75888 L 107.17180,108.75888 C 106.07846,108.75888 105.09180,109.07888 104.21180,109.71889 C 103.46513,110.38555 103.09180,111.30554 103.09180,112.47888 C 103.09180,113.75888 103.50513,114.71889 104.33180,115.35889 C 105.05180,115.91889 106.03846,116.19888 107.29180,116.19888 L 116.97180,116.19888 C 119.13180,116.19888 121.07846,116.81221 122.81180,118.03888 C 124.99846,119.66555 126.09180,122.10554 126.09180,125.35889 C 126.09180,128.45222 124.99846,130.87889 122.81180,132.63888 C 121.10513,133.89222 119.15846,134.51889 116.97180,134.51889 L 96.371798,134.51889 L 96.371798,129.19888 L 113.97180,129.19888 C 114.98513,129.19888 115.91846,128.83889 116.77180,128.11889 C 117.62513,127.39888 118.05180,126.47889 118.05180,125.35889 C 118.05180,124.21222 117.62513,123.29221 116.77180,122.59888 C 115.97180,121.87889 114.99846,121.51889 113.85180,121.51889 L 104.09180,121.51889 C 101.93180,121.51889 100.01180,120.91889 98.331798,119.71889 C 96.145128,118.09221 95.051795,115.67888 95.051795,112.47888 C 95.051795,109.27888 96.145128,106.86555 98.331798,105.23889 C 99.958457,104.01222 101.87846,103.39888 104.09180,103.39888 L 124.37180,103.39888 z M 90.211795,103.39888 L 90.211795,108.75888 L 73.011798,108.75888 C 71.918458,108.75888 70.931798,109.07888 70.051798,109.71889 C 69.305128,110.38555 68.931798,111.30554 68.931798,112.47888 C 68.931798,113.75888 69.345128,114.71889 70.171798,115.35889 C 70.891798,115.91889 71.878458,116.19888 73.131798,116.19888 L 82.811795,116.19888 C 84.971795,116.19888 86.918462,116.81221 88.651795,118.03888 C 90.838462,119.66555 91.931795,122.10554 91.931795,125.35889 C 91.931795,128.45222 90.838462,130.87889 88.651795,132.63888 C 86.945128,133.89222 84.998462,134.51889 82.811795,134.51889 L 62.211798,134.51889 L 62.211798,129.19888 L 79.811795,129.19888 C 80.825128,129.19888 81.758462,128.83889 82.611795,128.11889 C 83.465128,127.39888 83.891795,126.47889 83.891795,125.35889 C 83.891795,124.21222 83.465128,123.29221 82.611795,122.59888 C 81.811795,121.87889 80.838462,121.51889 79.691795,121.51889 L 69.931798,121.51889 C 67.771798,121.51889 65.851798,120.91889 64.171798,119.71889 C 61.985128,118.09221 60.891798,115.67888 60.891798,112.47888 C 60.891798,109.27888 61.985128,106.86555 64.171798,105.23889 C 65.798458,104.01222 67.718458,103.39888 69.931798,103.39888 L 90.211795,103.39888 z M 57.811798,103.39888 L 57.811798,108.75888 L 46.291798,108.75888 C 43.731798,108.75888 41.811798,109.61221 40.531798,111.31888 C 39.251798,113.02554 38.611798,115.57221 38.611798,118.95888 C 38.611798,122.37222 39.211798,124.93222 40.411798,126.63888 C 41.611798,128.34555 43.571798,129.19888 46.291798,129.19888 L 57.811798,129.19888 L 57.811798,134.51889 L 44.291798,134.51889 C 40.078458,134.51889 36.838458,133.18554 34.571798,130.51889 C 32.331798,127.82555 31.211798,123.97222 31.211798,118.95888 C 31.211798,113.89221 32.331798,110.03888 34.571798,107.39888 C 36.811798,104.73222 40.051798,103.39888 44.291798,103.39888 L 57.811798,103.39888 z "
     id="path1467" />
  <path
     style="font-size:40.000000;stroke-width:1.0000000pt;font-family:Trek"
     d="M 125.04976,104.07684 L 125.04976,109.43684 L 107.84976,109.43684 C 106.75642,109.43684 105.76976,109.75684 104.88976,110.39685 C 104.14309,111.06351 103.76976,111.98350 103.76976,113.15684 C 103.76976,114.43684 104.18309,115.39685 105.00976,116.03685 C 105.72976,116.59685 106.71642,116.87684 107.96976,116.87684 L 117.64976,116.87684 C 119.80976,116.87684 121.75642,117.49017 123.48976,118.71684 C 125.67642,120.34351 126.76976,122.78350 126.76976,126.03685 C 126.76976,129.13018 125.67642,131.55685 123.48976,133.31684 C 121.78309,134.57018 119.83642,135.19685 117.64976,135.19685 L 97.049764,135.19685 L 97.049764,129.87684 L 114.64976,129.87684 C 115.66309,129.87684 116.59642,129.51685 117.44976,128.79685 C 118.30309,128.07684 118.72976,127.15685 118.72976,126.03685 C 118.72976,124.89018 118.30309,123.97017 117.44976,123.27684 C 116.64976,122.55685 115.67642,122.19685 114.52976,122.19685 L 104.76976,122.19685 C 102.60976,122.19685 100.68976,121.59685 99.009764,120.39685 C 96.823094,118.77017 95.729761,116.35684 95.729761,113.15684 C 95.729761,109.95684 96.823094,107.54351 99.009764,105.91685 C 100.63642,104.69018 102.55642,104.07684 104.76976,104.07684 L 125.04976,104.07684 z M 90.889761,104.07684 L 90.889761,109.43684 L 73.689764,109.43684 C 72.596424,109.43684 71.609764,109.75684 70.729764,110.39685 C 69.983094,111.06351 69.609764,111.98350 69.609764,113.15684 C 69.609764,114.43684 70.023094,115.39685 70.849764,116.03685 C 71.569764,116.59685 72.556424,116.87684 73.809764,116.87684 L 83.489761,116.87684 C 85.649761,116.87684 87.596428,117.49017 89.329761,118.71684 C 91.516428,120.34351 92.609761,122.78350 92.609761,126.03685 C 92.609761,129.13018 91.516428,131.55685 89.329761,133.31684 C 87.623094,134.57018 85.676428,135.19685 83.489761,135.19685 L 62.889764,135.19685 L 62.889764,129.87684 L 80.489761,129.87684 C 81.503094,129.87684 82.436428,129.51685 83.289761,128.79685 C 84.143094,128.07684 84.569761,127.15685 84.569761,126.03685 C 84.569761,124.89018 84.143094,123.97017 83.289761,123.27684 C 82.489761,122.55685 81.516428,122.19685 80.369761,122.19685 L 70.609764,122.19685 C 68.449764,122.19685 66.529764,121.59685 64.849764,120.39685 C 62.663094,118.77017 61.569764,116.35684 61.569764,113.15684 C 61.569764,109.95684 62.663094,107.54351 64.849764,105.91685 C 66.476424,104.69018 68.396424,104.07684 70.609764,104.07684 L 90.889761,104.07684 z M 58.489764,104.07684 L 58.489764,109.43684 L 46.969764,109.43684 C 44.409764,109.43684 42.489764,110.29017 41.209764,111.99684 C 39.929764,113.70350 39.289764,116.25017 39.289764,119.63684 C 39.289764,123.05018 39.889764,125.61018 41.089764,127.31684 C 42.289764,129.02351 44.249764,129.87684 46.969764,129.87684 L 58.489764,129.87684 L 58.489764,135.19685 L 44.969764,135.19685 C 40.756424,135.19685 37.516424,133.86350 35.249764,131.19685 C 33.009764,128.50351 31.889764,124.65018 31.889764,119.63684 C 31.889764,114.57017 33.009764,110.71684 35.249764,108.07684 C 37.489764,105.41018 40.729764,104.07684 44.969764,104.07684 L 58.489764,104.07684 z "
     id="path855" />
  <path
     style="fill:url(#linearGradient2830);fill-opacity:1.0000000;fill-rule:evenodd;stroke:none;stroke-width:6.2500000"
     d="M 41.662967,17.197108 L 117.38055,17.197108 C 129.02522,17.197108 134.72716,22.899041 134.72716,34.543716 C 134.72716,34.543716 55.440598,35.449314 24.316361,125.89213 L 24.316361,34.543716 C 24.316361,24.254973 31.374226,17.197108 41.662967,17.197108 z "
     id="rect2063"
     sodipodi:nodetypes="cccccc" />
</svg>
