<?xml version="1.0" encoding="UTF-8" standalone="no"?>
<!-- Created with Inkscape (http://www.inkscape.org/) -->

<svg
   xmlns:dc="http://purl.org/dc/elements/1.1/"
   xmlns:cc="http://creativecommons.org/ns#"
   xmlns:rdf="http://www.w3.org/1999/02/22-rdf-syntax-ns#"
   xmlns:svg="http://www.w3.org/2000/svg"
   xmlns="http://www.w3.org/2000/svg"
   xmlns:xlink="http://www.w3.org/1999/xlink"
   xmlns:sodipodi="http://sodipodi.sourceforge.net/DTD/sodipodi-0.dtd"
   xmlns:inkscape="http://www.inkscape.org/namespaces/inkscape"
   sodipodi:docname="ooo-writer2.svg"
   height="128.00000pt"
   width="128.00000pt"
   inkscape:version="0.47 r22583"
   sodipodi:version="0.32"
   id="svg1"
   version="1.1">
  <metadata
     id="metadata15">
    <rdf:RDF>
      <cc:Work
         rdf:about="">
        <dc:format>image/svg+xml</dc:format>
        <dc:type
           rdf:resource="http://purl.org/dc/dcmitype/StillImage" />
        <dc:title />
      </cc:Work>
    </rdf:RDF>
  </metadata>
  <defs
     id="defs3">
    <inkscape:perspective
       sodipodi:type="inkscape:persp3d"
       inkscape:vp_x="0 : 80 : 1"
       inkscape:vp_y="0 : 1000 : 0"
       inkscape:vp_z="160 : 80 : 1"
       inkscape:persp3d-origin="80 : 53.333333 : 1"
       id="perspective114" />
    <linearGradient
       id="linearGradient3587">
      <stop
         style="stop-color:#efe0cd;stop-opacity:0.56097561;"
         offset="0.0000000"
         id="stop3589" />
      <stop
         style="stop-color:#cececd;stop-opacity:0.21951219;"
         offset="1.0000000"
         id="stop3591" />
    </linearGradient>
    <linearGradient
       id="linearGradient2832">
      <stop
         id="stop2834"
         offset="0.0000000"
         style="stop-color:#ffffff;stop-opacity:1.0000000;" />
      <stop
         id="stop2836"
         offset="1.0000000"
         style="stop-color:#ffffff;stop-opacity:0.0000000;" />
    </linearGradient>
    <linearGradient
       id="linearGradient839">
      <stop
         id="stop840"
         offset="0.0000000"
         style="stop-color:#46a046;stop-opacity:1.0000000;" />
      <stop
         id="stop841"
         offset="0.39364964"
         style="stop-color:#df421e;stop-opacity:1.0000000;" />
      <stop
         id="stop842"
         offset="0.72036445"
         style="stop-color:#ada7c8;stop-opacity:1.0000000;" />
      <stop
         id="stop843"
         offset="1.0000000"
         style="stop-color:#eed680;stop-opacity:1.0000000;" />
    </linearGradient>
    <linearGradient
       y2="0.50000000"
       x2="1.0000000"
       y1="0.50000000"
       x1="1.3267924e-17"
       id="linearGradient836"
       xlink:href="#linearGradient839" />
    <linearGradient
       gradientUnits="userSpaceOnUse"
       y2="73.398720"
       x2="72.999245"
       y1="16.369013"
       x1="23.983805"
       gradientTransform="matrix(0.939922,0.000000,0.000000,0.896911,4.950743,6.511692)"
       id="linearGradient2830"
       xlink:href="#linearGradient2832"
       inkscape:collect="always" />
    <linearGradient
       xlink:href="#linearGradient869"
       id="linearGradient674"
       x1="95.121380"
       y1="73.521367"
       x2="76.569053"
       y2="55.073781"
       spreadMethod="reflect"
       gradientTransform="scale(1.080100,0.925840)"
       gradientUnits="userSpaceOnUse" />
    <linearGradient
       xlink:href="#linearGradient839"
       id="linearGradient1373"
       x1="1.3267924e-17"
       y1="0.50000000"
       x2="1.0000000"
       y2="0.50000000" />
    <linearGradient
       id="linearGradient1363">
      <stop
         style="stop-color:#46a046;stop-opacity:1.0000000;"
         offset="0.0000000"
         id="stop1365" />
      <stop
         style="stop-color:#df421e;stop-opacity:1.0000000;"
         offset="0.39364964"
         id="stop1367" />
      <stop
         style="stop-color:#ada7c8;stop-opacity:1.0000000;"
         offset="0.72036445"
         id="stop1369" />
      <stop
         style="stop-color:#eed680;stop-opacity:1.0000000;"
         offset="1.0000000"
         id="stop1371" />
    </linearGradient>
    <linearGradient
       xlink:href="#linearGradient907"
       id="linearGradient904"
       x1="52.724242"
       y1="81.199529"
       x2="47.145329"
       y2="75.142359"
       spreadMethod="reflect"
       gradientTransform="scale(0.999352,1.000649)"
       gradientUnits="userSpaceOnUse" />
    <linearGradient
       id="linearGradient866">
      <stop
         style="stop-color:#ffff00;stop-opacity:1.0000000;"
         offset="0.0000000"
         id="stop867" />
      <stop
         style="stop-color:#ffea00;stop-opacity:1.0000000;"
         offset="0.36908397"
         id="stop901" />
      <stop
         style="stop-color:#ffd600;stop-opacity:1.0000000;"
         offset="1.0000000"
         id="stop868" />
    </linearGradient>
    <linearGradient
       id="linearGradient869">
      <stop
         style="stop-color:#990000;stop-opacity:1.0000000;"
         offset="0.0000000"
         id="stop870" />
      <stop
         style="stop-color:#ffffff;stop-opacity:1.0000000;"
         offset="1.0000000"
         id="stop871" />
    </linearGradient>
    <linearGradient
       id="linearGradient907">
      <stop
         style="stop-color:#eed680;stop-opacity:1.0000000;"
         offset="0.0000000"
         id="stop908" />
      <stop
         style="stop-color:#dfb546;stop-opacity:1.0000000;"
         offset="0.29427481"
         id="stop911" />
      <stop
         style="stop-color:#d1940c;stop-opacity:1.0000000;"
         offset="1.0000000"
         id="stop910" />
    </linearGradient>
    <linearGradient
       inkscape:collect="always"
       xlink:href="#linearGradient869"
       id="linearGradient2167"
       gradientUnits="userSpaceOnUse"
       gradientTransform="scale(1.0801,0.92584)"
       spreadMethod="reflect"
       x1="-54.605907"
       y1="63.613220"
       x2="-66.468513"
       y2="49.744450" />
    <linearGradient
       inkscape:collect="always"
       xlink:href="#linearGradient907"
       id="linearGradient2169"
       gradientUnits="userSpaceOnUse"
       gradientTransform="matrix(0.999352,0,0,1.000649,-151.1197,-0.37325)"
       spreadMethod="reflect"
       x1="52.724242"
       y1="81.199529"
       x2="47.145329"
       y2="75.142359" />
    <linearGradient
       spreadMethod="reflect"
       y2="0.47328246"
       x2="0.37377051"
       y1="0.78625953"
       x1="0.68852460"
       id="linearGradient1413"
       xlink:href="#linearGradient869" />
    <linearGradient
       y2="0.50000000"
       x2="1.0000000"
       y1="0.50000000"
       x1="1.3267924e-17"
       id="linearGradient1411"
       xlink:href="#linearGradient839" />
    <linearGradient
       id="linearGradient1401">
      <stop
         id="stop1403"
         offset="0.0000000"
         style="stop-color:#46a046;stop-opacity:1.0000000;" />
      <stop
         id="stop1405"
         offset="0.39364964"
         style="stop-color:#df421e;stop-opacity:1.0000000;" />
      <stop
         id="stop1407"
         offset="0.72036445"
         style="stop-color:#ada7c8;stop-opacity:1.0000000;" />
      <stop
         id="stop1409"
         offset="1.0000000"
         style="stop-color:#eed680;stop-opacity:1.0000000;" />
    </linearGradient>
    <linearGradient
       spreadMethod="reflect"
       y2="0.29411766"
       x2="0.17377049"
       y1="0.49346405"
       x1="0.35737705"
       id="linearGradient1399"
       xlink:href="#linearGradient907" />
    <linearGradient
       id="linearGradient1391">
      <stop
         id="stop1393"
         offset="0.0000000"
         style="stop-color:#ffff00;stop-opacity:1.0000000;" />
      <stop
         id="stop1395"
         offset="0.36908397"
         style="stop-color:#ffea00;stop-opacity:1.0000000;" />
      <stop
         id="stop1397"
         offset="1.0000000"
         style="stop-color:#ffd600;stop-opacity:1.0000000;" />
    </linearGradient>
    <linearGradient
       id="linearGradient1384">
      <stop
         id="stop1386"
         offset="0.0000000"
         style="stop-color:#7590ae;stop-opacity:1.0000000;" />
      <stop
         id="stop912"
         offset="0.87030536"
         style="stop-color:#89a4c0;stop-opacity:1.0000000;" />
      <stop
         id="stop1389"
         offset="1.0000000"
         style="stop-color:#9db8d2;stop-opacity:1.0000000;" />
    </linearGradient>
    <linearGradient
       id="linearGradient1376">
      <stop
         id="stop1378"
         offset="0.0000000"
         style="stop-color:#eed680;stop-opacity:1.0000000;" />
      <stop
         id="stop1380"
         offset="0.29427481"
         style="stop-color:#dfb546;stop-opacity:1.0000000;" />
      <stop
         id="stop1382"
         offset="1.0000000"
         style="stop-color:#d1940c;stop-opacity:1.0000000;" />
    </linearGradient>
    <linearGradient
       spreadMethod="reflect"
       y2="0.47328246"
       x2="0.37377051"
       y1="0.78625953"
       x1="0.68852460"
       id="linearGradient1436"
       xlink:href="#linearGradient869" />
    <linearGradient
       y2="0.50000000"
       x2="1.0000000"
       y1="0.50000000"
       x1="1.3267924e-17"
       id="linearGradient1434"
       xlink:href="#linearGradient839" />
    <linearGradient
       id="linearGradient1424">
      <stop
         id="stop1426"
         offset="0.0000000"
         style="stop-color:#46a046;stop-opacity:1.0000000;" />
      <stop
         id="stop1428"
         offset="0.39364964"
         style="stop-color:#df421e;stop-opacity:1.0000000;" />
      <stop
         id="stop1430"
         offset="0.72036445"
         style="stop-color:#ada7c8;stop-opacity:1.0000000;" />
      <stop
         id="stop1432"
         offset="1.0000000"
         style="stop-color:#eed680;stop-opacity:1.0000000;" />
    </linearGradient>
    <linearGradient
       spreadMethod="reflect"
       y2="0.29411766"
       x2="0.17377049"
       y1="0.49346405"
       x1="0.35737705"
       id="linearGradient1422"
       xlink:href="#linearGradient907" />
    <linearGradient
       id="linearGradient1414">
      <stop
         id="stop1416"
         offset="0.0000000"
         style="stop-color:#ffff00;stop-opacity:1.0000000;" />
      <stop
         id="stop1418"
         offset="0.36908397"
         style="stop-color:#ffea00;stop-opacity:1.0000000;" />
      <stop
         id="stop1420"
         offset="1.0000000"
         style="stop-color:#ffd600;stop-opacity:1.0000000;" />
    </linearGradient>
    <linearGradient
       id="linearGradient1406">
      <stop
         id="stop1408"
         offset="0.0000000"
         style="stop-color:#7590ae;stop-opacity:1.0000000;" />
      <stop
         id="stop1410"
         offset="0.87030536"
         style="stop-color:#89a4c0;stop-opacity:1.0000000;" />
      <stop
         id="stop1412"
         offset="1.0000000"
         style="stop-color:#9db8d2;stop-opacity:1.0000000;" />
    </linearGradient>
    <linearGradient
       id="linearGradient1397">
      <stop
         id="stop1399"
         offset="0.0000000"
         style="stop-color:#eed680;stop-opacity:1.0000000;" />
      <stop
         id="stop1401"
         offset="0.29427481"
         style="stop-color:#dfb546;stop-opacity:1.0000000;" />
      <stop
         id="stop1404"
         offset="1.0000000"
         style="stop-color:#d1940c;stop-opacity:1.0000000;" />
    </linearGradient>
    <linearGradient
       y2="75.142359"
       x2="47.145329"
       y1="81.199529"
       x1="52.724242"
       spreadMethod="reflect"
       gradientTransform="matrix(0.999352,0.000000,0.000000,1.000649,-178.7769,-4.004405)"
       gradientUnits="userSpaceOnUse"
       id="linearGradient1458"
       xlink:href="#linearGradient907"
       inkscape:collect="always" />
    <linearGradient
       y2="55.073781"
       x2="76.569053"
       y1="73.521367"
       x1="95.121380"
       spreadMethod="reflect"
       gradientTransform="matrix(1.080100,0.000000,0.000000,0.925840,-178.7769,-4.004405)"
       gradientUnits="userSpaceOnUse"
       id="linearGradient1461"
       xlink:href="#linearGradient869"
       inkscape:collect="always" />
    <linearGradient
       xlink:href="#linearGradient869"
       id="linearGradient1457"
       x1="0.68852460"
       y1="0.78625953"
       x2="0.37377051"
       y2="0.47328246"
       spreadMethod="reflect" />
    <linearGradient
       xlink:href="#linearGradient839"
       id="linearGradient1455"
       x1="1.3267924e-17"
       y1="0.50000000"
       x2="1.0000000"
       y2="0.50000000" />
    <linearGradient
       id="linearGradient1445">
      <stop
         style="stop-color:#46a046;stop-opacity:1.0000000;"
         offset="0.0000000"
         id="stop1447" />
      <stop
         style="stop-color:#df421e;stop-opacity:1.0000000;"
         offset="0.39364964"
         id="stop1449" />
      <stop
         style="stop-color:#ada7c8;stop-opacity:1.0000000;"
         offset="0.72036445"
         id="stop1451" />
      <stop
         style="stop-color:#eed680;stop-opacity:1.0000000;"
         offset="1.0000000"
         id="stop1453" />
    </linearGradient>
    <linearGradient
       xlink:href="#linearGradient907"
       id="linearGradient1443"
       x1="0.35737705"
       y1="0.49346405"
       x2="0.17377049"
       y2="0.29411766"
       spreadMethod="reflect" />
    <linearGradient
       id="linearGradient1435">
      <stop
         style="stop-color:#ffff00;stop-opacity:1.0000000;"
         offset="0.0000000"
         id="stop1437" />
      <stop
         style="stop-color:#ffea00;stop-opacity:1.0000000;"
         offset="0.36908397"
         id="stop1439" />
      <stop
         style="stop-color:#ffd600;stop-opacity:1.0000000;"
         offset="1.0000000"
         id="stop1441" />
    </linearGradient>
    <linearGradient
       id="linearGradient1427">
      <stop
         style="stop-color:#7590ae;stop-opacity:1.0000000;"
         offset="0.0000000"
         id="stop1429" />
      <stop
         style="stop-color:#89a4c0;stop-opacity:1.0000000;"
         offset="0.87030536"
         id="stop1431" />
      <stop
         style="stop-color:#9db8d2;stop-opacity:1.0000000;"
         offset="1.0000000"
         id="stop1433" />
    </linearGradient>
    <linearGradient
       id="linearGradient1418">
      <stop
         style="stop-color:#eed680;stop-opacity:1.0000000;"
         offset="0.0000000"
         id="stop1421" />
      <stop
         style="stop-color:#dfb546;stop-opacity:1.0000000;"
         offset="0.29427481"
         id="stop1423" />
      <stop
         style="stop-color:#d1940c;stop-opacity:1.0000000;"
         offset="1.0000000"
         id="stop1425" />
    </linearGradient>
    <linearGradient
       inkscape:collect="always"
       xlink:href="#linearGradient907"
       id="linearGradient1481"
       gradientUnits="userSpaceOnUse"
       gradientTransform="matrix(0.999352,0.000000,0.000000,1.000649,-166.5735,-13.49593)"
       spreadMethod="reflect"
       x1="52.724242"
       y1="81.199529"
       x2="47.145329"
       y2="75.142359" />
    <linearGradient
       inkscape:collect="always"
       xlink:href="#linearGradient869"
       id="linearGradient1484"
       gradientUnits="userSpaceOnUse"
       gradientTransform="matrix(1.080100,0.000000,0.000000,0.925840,-166.5735,-13.49593)"
       spreadMethod="reflect"
       x1="95.121380"
       y1="73.521367"
       x2="76.569053"
       y2="55.073781" />
    <linearGradient
       y2="0.76744187"
       x2="0.48124999"
       y1="-0.10852713"
       x1="0.48124999"
       id="linearGradient841"
       xlink:href="#linearGradient842" />
    <linearGradient
       id="linearGradient835"
       xlink:href="#linearGradient836-7" />
    <linearGradient
       y2="0.50000000"
       x2="1.0000000"
       y1="0.50000000"
       x1="-2.6000523e-17"
       id="linearGradient833"
       xlink:href="#linearGradient838" />
    <linearGradient
       id="linearGradient830">
      <stop
         id="stop831"
         offset="0.0000000"
         style="stop-color:#8a8a8a;stop-opacity:1.0000000;" />
      <stop
         id="stop832"
         offset="1"
         style="stop-color:#fff;stop-opacity:1;" />
    </linearGradient>
    <linearGradient
       id="linearGradient836-7">
      <stop
         id="stop837"
         offset="0.0000000"
         style="stop-color:#ffb600;stop-opacity:1.0000000;" />
      <stop
         id="stop838"
         offset="1.0000000"
         style="stop-color:#ffff00;stop-opacity:1.0000000;" />
    </linearGradient>
    <linearGradient
       id="linearGradient838">
      <stop
         id="stop839"
         offset="0.0000000"
         style="stop-color:#00afff;stop-opacity:1.0000000;" />
      <stop
         id="stop840-4"
         offset="1.0000000"
         style="stop-color:#ffffff;stop-opacity:1.0000000;" />
    </linearGradient>
    <linearGradient
       id="linearGradient842">
      <stop
         id="stop843-2"
         offset="0.0000000"
         style="stop-color:#bfbfbf;stop-opacity:1.0000000;" />
      <stop
         id="stop844"
         offset="1.0000000"
         style="stop-color:#8c8c8c;stop-opacity:1.0000000;" />
    </linearGradient>
    <inkscape:perspective
       id="perspective2949"
       inkscape:persp3d-origin="80 : 53.333333 : 1"
       inkscape:vp_z="160 : 80 : 1"
       inkscape:vp_y="0 : 1000 : 0"
       inkscape:vp_x="0 : 80 : 1"
       sodipodi:type="inkscape:persp3d" />
  </defs>
  <sodipodi:namedview
     inkscape:current-layer="svg1"
     inkscape:window-y="71"
     inkscape:window-x="318"
     snaptogrid="false"
     showgrid="false"
     inkscape:window-height="653"
     inkscape:window-width="714"
     inkscape:cy="86.702719"
     inkscape:cx="79.250971"
     inkscape:zoom="1.0970399"
     inkscape:pageshadow="2"
     inkscape:pageopacity="0.0"
     borderopacity="1.0"
     bordercolor="#666666"
     pagecolor="#ffffff"
     id="base"
     showguides="true"
     inkscape:guide-bbox="true"
     inkscape:snap-grids="false"
     inkscape:window-maximized="0">
    <inkscape:grid
       id="GridFromPre046Settings"
       type="xygrid"
       originx="0px"
       originy="0px"
       spacingx="1.0000000mm"
       spacingy="1.0000000mm"
       color="#0000ff"
       empcolor="#0000ff"
       opacity="0.2"
       empopacity="0.4"
       empspacing="5" />
  </sodipodi:namedview>
  <g
     id="g2967"
     transform="matrix(0.57387475,0,0,0.5738776,2.6030763,2.028239)">
    <path
       transform="matrix(-0.495962,0,0,0.549915,122.5543,122.928)"
       d="m 35.433071,-8.3070869 c 0,28.3752599 -18.243515,51.3779529 -40.7480315,51.3779529 -22.5045165,0 -40.7480315,-23.002693 -40.7480315,-51.3779529 0,-28.3752601 18.243515,-51.3779531 40.7480315,-51.3779531 22.5045165,0 40.7480315,23.002693 40.7480315,51.3779531 z"
       sodipodi:ry="51.377953"
       sodipodi:rx="40.748032"
       sodipodi:cy="-8.3070869"
       sodipodi:cx="-5.3149605"
       id="path1329"
       style="fill:none;stroke:#000000;stroke-width:26.51739883;stroke-opacity:0.63157893"
       sodipodi:type="arc" />
    <path
       transform="matrix(0.495962,0,0,0.549915,123.7114,118.8131)"
       d="m 35.433071,-8.3070869 c 0,28.3752599 -18.243515,51.3779529 -40.7480315,51.3779529 -22.5045165,0 -40.7480315,-23.002693 -40.7480315,-51.3779529 0,-28.3752601 18.243515,-51.3779531 40.7480315,-51.3779531 22.5045165,0 40.7480315,23.002693 40.7480315,51.3779531 z"
       sodipodi:ry="51.377953"
       sodipodi:rx="40.748032"
       sodipodi:cy="-8.3070869"
       sodipodi:cx="-5.3149605"
       id="path844"
       style="fill:none;stroke:#9db8d2;stroke-width:26.51739883;stroke-opacity:1"
       sodipodi:type="arc" />
    <path
       transform="matrix(-0.495962,0,0,0.549915,118.4394,118.8131)"
       d="m 35.433071,-8.3070869 c 0,28.3752599 -18.243515,51.3779529 -40.7480315,51.3779529 -22.5045165,0 -40.7480315,-23.002693 -40.7480315,-51.3779529 0,-28.3752601 18.243515,-51.3779531 40.7480315,-51.3779531 22.5045165,0 40.7480315,23.002693 40.7480315,51.3779531 z"
       sodipodi:ry="51.377953"
       sodipodi:rx="40.748032"
       sodipodi:cy="-8.3070869"
       sodipodi:cx="-5.3149605"
       id="path1321"
       style="fill:none;stroke:#9db8d2;stroke-width:26.51739883;stroke-opacity:1"
       sodipodi:type="arc" />
    <path
       transform="matrix(0.783674,0,0,0.923233,91.46136,73.24098)"
       d="m 35.433071,-8.3070869 c 0,28.3752599 -18.243515,51.3779529 -40.7480315,51.3779529 -22.5045165,0 -40.7480315,-23.002693 -40.7480315,-51.3779529 0,-28.3752601 18.243515,-51.3779531 40.7480315,-51.3779531 22.5045165,0 40.7480315,23.002693 40.7480315,51.3779531 z"
       sodipodi:ry="51.377953"
       sodipodi:rx="40.748032"
       sodipodi:cy="-8.3070869"
       sodipodi:cx="-5.3149605"
       id="path1325"
       style="fill:none;stroke:#000000;stroke-width:16.28092575;stroke-opacity:0.63157893"
       sodipodi:type="arc" />
    <path
       transform="matrix(0.783674,0,0,0.923233,87.3465,69.12612)"
       d="m 35.433071,-8.3070869 c 0,28.3752599 -18.243515,51.3779529 -40.7480315,51.3779529 -22.5045165,0 -40.7480315,-23.002693 -40.7480315,-51.3779529 0,-28.3752601 18.243515,-51.3779531 40.7480315,-51.3779531 22.5045165,0 40.7480315,23.002693 40.7480315,51.3779531 z"
       sodipodi:ry="51.377953"
       sodipodi:rx="40.748032"
       sodipodi:cy="-8.3070869"
       sodipodi:cx="-5.3149605"
       id="path843"
       style="fill:none;stroke:#9db8d2;stroke-width:16.28092575;stroke-opacity:1"
       sodipodi:type="arc" />
    <path
       transform="matrix(0.783674,0,0,0.923233,54.6808,105.1906)"
       d="m 35.433071,-8.3070869 c 0,28.3752599 -18.243515,51.3779529 -40.7480315,51.3779529 -22.5045165,0 -40.7480315,-23.002693 -40.7480315,-51.3779529 0,-28.3752601 18.243515,-51.3779531 40.7480315,-51.3779531 22.5045165,0 40.7480315,23.002693 40.7480315,51.3779531 z"
       sodipodi:ry="51.377953"
       sodipodi:rx="40.748032"
       sodipodi:cy="-8.3070869"
       sodipodi:cx="-5.3149605"
       id="path1327"
       style="fill:none;stroke:#000000;stroke-width:16.28092575;stroke-opacity:0.63157893"
       sodipodi:type="arc" />
    <path
       transform="matrix(0.783674,0,0,0.923233,50.56594,101.0758)"
       d="m 35.433071,-8.3070869 c 0,28.3752599 -18.243515,51.3779529 -40.7480315,51.3779529 -22.5045165,0 -40.7480315,-23.002693 -40.7480315,-51.3779529 0,-28.3752601 18.243515,-51.3779531 40.7480315,-51.3779531 22.5045165,0 40.7480315,23.002693 40.7480315,51.3779531 z"
       sodipodi:ry="51.377953"
       sodipodi:rx="40.748032"
       sodipodi:cy="-8.3070869"
       sodipodi:cx="-5.3149605"
       id="path842"
       style="fill:none;stroke:#9db8d2;stroke-width:16.28092575;stroke-opacity:1"
       sodipodi:type="arc" />
    <g
       transform="matrix(0.923233,0,0,0.923233,4.908878,2.623668)"
       id="g1314">
      <path
         sodipodi:nodetypes="ccccc"
         id="path847"
         d="m 4.4137105,145.71516 c 0,0 20.6444655,-53.801125 63.8366335,-45.08353 10.515228,-41.850876 72.611536,-38.901695 72.611536,-38.901695 0,0 -60.843785,19.853974 -63.096338,56.607425 C 46.96739,101.97363 4.5277352,145.83751 4.4137105,145.71516 z"
         style="fill-rule:evenodd;stroke:#000000;stroke-width:1.74080634" />
      <path
         sodipodi:nodetypes="ccccc"
         id="path848"
         d="m 53.753101,72.043887 c 0,0 15.355192,-38.372589 47.481179,-32.154929 7.82114,-29.849323 54.00788,-27.745879 54.00788,-27.745879 0,0 -45.25513,14.160463 -46.93056,40.374142 C 85.404193,40.846104 53.83791,72.131156 53.753101,72.043887 z"
         style="fill-rule:evenodd;stroke:#000000;stroke-width:1.26791799" />
    </g>
    <g
       style="fill:#000000;fill-opacity:0.46153846;stroke:none"
       transform="matrix(0.923233,0,0,0.923233,6.868243,3.927179)"
       id="g2091">
      <path
         sodipodi:nodetypes="ccccc"
         id="path2093"
         d="m 4.4137105,145.71516 c 0,0 20.6444655,-53.801125 63.8366335,-45.08353 10.515228,-41.850876 72.611536,-38.901695 72.611536,-38.901695 0,0 -60.843785,19.853974 -63.096338,56.607425 C 46.96739,101.97363 4.5277352,145.83751 4.4137105,145.71516 z"
         style="fill-rule:evenodd" />
      <path
         sodipodi:nodetypes="ccccc"
         id="path2095"
         d="m 53.753101,72.043887 c 0,0 15.355192,-38.372589 47.481179,-32.154929 7.82114,-29.849323 54.00788,-27.745879 54.00788,-27.745879 0,0 -45.25513,14.160463 -46.93056,40.374142 C 85.404193,40.846104 53.83791,72.131156 53.753101,72.043887 z"
         style="fill-rule:evenodd" />
    </g>
  </g>
  <g
     id="g2160"
     transform="matrix(1.6031724,0,0,1.6031724,197.33968,-1.8610724)">
    <path
       style="fill-rule:evenodd;stroke:#000000;stroke-width:0.72004113pt"
       d="m -81.317197,63.09778 4.988712,1.072301 -1.958204,-3.030508 -3.030508,1.958207 z"
       id="path873"
       sodipodi:nodetypes="cccc" />
    <path
       id="path900"
       d="m -62.2462,51.016016 c 0,0 1.673625,-0.297451 1.673625,-0.297451 0,0 1.369827,1.115923 1.369827,1.115923 -0.03593,-0.664912 -0.34409,-0.895445 -0.99416,-1.19947 0,0 0.06751,-0.314087 0.06751,-0.314087 0.751334,-0.167095 0.92229,-0.130348 1.399224,-0.685023 0,0 -1.844581,0.260704 -1.844581,0.260704 0,0 -1.232626,-0.922137 -1.232626,-0.922137 0.03593,0.664913 0.20689,0.70166 0.823203,1.162725 0,0 -1.262024,0.878816 -1.262024,0.878816 z m 0.744799,-2.632961 c 0,0 0.787269,0.497811 0.787269,0.497811 1.502669,-0.334197 1.880515,0.404209 2.355269,-0.972416 0,0 -0.341911,-0.07349 -0.341911,-0.07349 -0.510689,0.711711 -0.852601,0.638219 -1.70738,0.454487 0,0 0.168777,-0.785203 0.168777,-0.785203 0,0 -0.341913,-0.07349 -0.341913,-0.07349 0,0 -0.168777,0.785204 -0.168777,0.785204 0,0 -0.683823,-0.146985 -0.683823,-0.146985 0,0 -0.06751,0.314087 -0.06751,0.314087 z m 3.068493,-2.626391 c 0.0022,0.821953 -0.03158,0.979 -0.850424,1.460182 0,0 0.337555,-1.570421 0.337555,-1.570421 -1.777069,-0.05338 -1.534246,1.313197 -0.746976,1.811008 1.162935,0.414271 2.150558,-0.852125 1.259845,-1.700769 z m -1.574538,-0.99563 c 0,0 2.222427,0.477701 2.222427,0.477701 0,0 0.06751,-0.314087 0.06751,-0.314087 -1.025737,-0.220477 -1.538604,-0.330716 -1.677981,-1.346462 0,0 -0.341913,-0.07349 -0.341913,-0.07349 0,0 0.173134,0.858707 0.173134,0.858707 0,0 -0.443179,0.397634 -0.443179,0.397634 z m 0.337555,-1.570421 c 0,0 2.222428,0.477702 2.222428,0.477702 0,0 0.06751,-0.314087 0.06751,-0.314087 -0.341913,-0.07349 -2.222428,-0.477702 -1.369828,-1.115924 0.238469,-0.27734 1.264204,-0.05686 1.606116,0.01663 0,0 0.06751,-0.31408 0.06751,-0.31408 -0.341912,-0.07349 -2.051472,-0.440956 -1.403582,-0.958884 0.238468,-0.27734 1.264204,-0.05686 1.606116,0.01663 0,0 0.101266,-0.471126 0.101266,-0.471126 -0.512868,-0.110239 -1.367647,-0.293971 -1.91427,-0.247169 -0.409424,0.240594 -0.713225,1.653975 -0.643534,2.161841 -0.03376,0.157047 0.1372,0.193794 0.103445,0.350834 0,0 -0.443179,0.397634 -0.443179,0.397634 z m 0.314693,2.6964 c 0,0 -0.270045,1.25634 -0.270045,1.25634 -0.411601,-0.581365 -0.515046,-0.932199 0.270045,-1.25634 z"
       style="fill:none;stroke:#000000;stroke-width:0.16759372" />
    <path
       style="fill:url(#linearGradient2167);fill-opacity:1;fill-rule:evenodd;stroke:#000000;stroke-width:3.60020566"
       d="M -90.412933,65.688043 C -75.104619,49.385236 -43.6272,17.342738 -32.01754,29.139154 -21.74865,41.371321 -61.572464,66.781133 -78.400378,77.559753 l -12.012555,-11.87171 z"
       id="path879"
       sodipodi:nodetypes="cccc" />
    <path
       style="fill:url(#linearGradient2169);fill-opacity:0.75;fill-rule:evenodd;stroke:#000000;stroke-width:2.7001543"
       d="m -80.266178,76.307212 c 0,0 -3.620776,6.976738 -1.865811,9.00773 1.828354,1.60176 -15.70457,6.903963 -18.555991,6.583105 0,8e-6 -2.46876,5.409806 -6.05208,1.777047 -3.58332,-3.632751 2.05857,-6.256991 2.05857,-6.256991 0.005,-4.196328 4.63291,-20.266934 6.424565,-18.450557 1.79166,1.816375 9.03245,-1.742222 9.03245,-1.742222 0,0 8.958297,9.081888 8.958297,9.081888 z"
       id="path868"
       sodipodi:nodetypes="cccccccc" />
    <path
       style="fill:none;stroke:#000000;stroke-width:0.72004113pt;stroke-linecap:round;stroke-linejoin:round"
       d="m -105.52241,92.488546 c 0,0 14.531017,-14.333278 14.531017,-14.333278"
       id="path876"
       sodipodi:nodetypes="cc" />
  </g>
</svg>
