<?xml version="1.0" encoding="UTF-8" standalone="no"?>
<!-- Created with Inkscape (http://www.inkscape.org/) -->
<svg
   xmlns:dc="http://purl.org/dc/elements/1.1/"
   xmlns:cc="http://web.resource.org/cc/"
   xmlns:rdf="http://www.w3.org/1999/02/22-rdf-syntax-ns#"
   xmlns:svg="http://www.w3.org/2000/svg"
   xmlns="http://www.w3.org/2000/svg"
   xmlns:xlink="http://www.w3.org/1999/xlink"
   xmlns:sodipodi="http://inkscape.sourceforge.net/DTD/sodipodi-0.dtd"
   xmlns:inkscape="http://www.inkscape.org/namespaces/inkscape"
   width="128pt"
   height="128pt"
   id="svg2"
   sodipodi:version="0.32"
   inkscape:version="0.43"
   version="1.0"
   sodipodi:docbase="/usr/share/icons/Rongeur/scalable/weather"
   sodipodi:docname="20.svg">
  <defs
     id="defs4">
    <linearGradient
       id="linearGradient3154">
      <stop
         style="stop-color:#ebebeb;stop-opacity:1;"
         offset="0"
         id="stop3156" />
      <stop
         style="stop-color:#ffffff;stop-opacity:0;"
         offset="1"
         id="stop3158" />
    </linearGradient>
    <linearGradient
       id="linearGradient2489">
      <stop
         style="stop-color:#494949;stop-opacity:1;"
         offset="0"
         id="stop2491" />
      <stop
         style="stop-color:#696969;stop-opacity:0;"
         offset="1"
         id="stop2493" />
    </linearGradient>
    <radialGradient
       inkscape:collect="always"
       xlink:href="#linearGradient2489"
       id="radialGradient3370"
       cx="79.59079"
       cy="150.38364"
       fx="79.59079"
       fy="150.38364"
       r="46.035805"
       gradientTransform="matrix(1,0,0,5.777778e-2,-8.557607e-16,141.6948)"
       gradientUnits="userSpaceOnUse" />
    <linearGradient
       inkscape:collect="always"
       xlink:href="#linearGradient3154"
       id="linearGradient3160"
       x1="62.387573"
       y1="92.70607"
       x2="62.976471"
       y2="69.307304"
       gradientUnits="userSpaceOnUse" />
    <linearGradient
       inkscape:collect="always"
       xlink:href="#linearGradient3154"
       id="linearGradient5791"
       gradientUnits="userSpaceOnUse"
       x1="62.387573"
       y1="92.70607"
       x2="62.976471"
       y2="69.307304"
       gradientTransform="matrix(0.725689,0,0,1.073034,49.39424,-33.44899)" />
  </defs>
  <sodipodi:namedview
     id="base"
     pagecolor="#ffffff"
     bordercolor="#666666"
     borderopacity="1.0"
     inkscape:pageopacity="0.0"
     inkscape:pageshadow="2"
     inkscape:zoom="2.1677242"
     inkscape:cx="54.697529"
     inkscape:cy="59.363277"
     inkscape:document-units="px"
     inkscape:current-layer="layer1"
     showgrid="true"
     inkscape:window-width="948"
     inkscape:window-height="542"
     inkscape:window-x="92"
     inkscape:window-y="58" />
  <metadata
     id="metadata7">
    <rdf:RDF>
      <cc:Work
         rdf:about="">
        <dc:format>image/svg+xml</dc:format>
        <dc:type
           rdf:resource="http://purl.org/dc/dcmitype/StillImage" />
        <cc:license
           rdf:resource="http://creativecommons.org/licenses/GPL/2.0/" />
      </cc:Work>
      <cc:License
         rdf:about="http://creativecommons.org/licenses/GPL/2.0/">
        <cc:permits
           rdf:resource="http://web.resource.org/cc/Reproduction" />
        <cc:permits
           rdf:resource="http://web.resource.org/cc/Distribution" />
        <cc:requires
           rdf:resource="http://web.resource.org/cc/Notice" />
        <cc:permits
           rdf:resource="http://web.resource.org/cc/DerivativeWorks" />
        <cc:requires
           rdf:resource="http://web.resource.org/cc/ShareAlike" />
        <cc:requires
           rdf:resource="http://web.resource.org/cc/SourceCode" />
      </cc:License>
    </rdf:RDF>
  </metadata>
  <g
     inkscape:label="Calque 1"
     inkscape:groupmode="layer"
     id="layer1">
    <path
       sodipodi:type="arc"
       style="opacity:1;color:#000000;fill:url(#radialGradient3370);fill-opacity:1;fill-rule:evenodd;stroke:none;stroke-width:2.5999999;stroke-linecap:butt;stroke-linejoin:miter;marker:none;marker-start:none;marker-mid:none;marker-end:none;stroke-miterlimit:4;stroke-dasharray:none;stroke-dashoffset:0;stroke-opacity:0.49803922;visibility:visible;display:inline;overflow:visible"
       id="path1614"
       sodipodi:cx="79.59079"
       sodipodi:cy="150.38364"
       sodipodi:rx="46.035805"
       sodipodi:ry="2.6598465"
       d="M 125.62659 150.38364 A 46.035805 2.6598465 0 1 1  33.554985,150.38364 A 46.035805 2.6598465 0 1 1  125.62659 150.38364 z"
       transform="matrix(1.031806,0,0,1.423077,-4.622235,-59.21395)" />
    <path
       sodipodi:nodetypes="cssssssc"
       id="path5789"
       d="M 66.81079,42.205483 C 66.81079,42.205483 68.987858,32.006062 101.64388,33.079096 C 134.29989,34.152129 155.34488,29.859995 156.79626,47.028533 C 158.24764,64.197071 151.71644,65.270105 144.45954,68.489206 C 137.20265,71.708307 129.4955,75.663638 112.07896,73.517566 C 94.662419,71.371499 87.517531,67.868955 83.87557,72.153266 C 78.100867,78.946477 72.074993,77.215963 68.157305,75.674626 C 43.216357,65.862096 65.797983,43.195493 66.81079,42.205483 z "
       style="fill:url(#linearGradient5791);fill-opacity:1;fill-rule:evenodd;stroke:none;stroke-width:1px;stroke-linecap:butt;stroke-linejoin:miter;stroke-opacity:1" />
    <g
       id="g4912"
       transform="translate(-120,0)">
      <path
         style="fill:none;fill-opacity:1;stroke:#000000;stroke-width:5;stroke-miterlimit:4;stroke-dasharray:none;stroke-opacity:0.49803922"
         d="M 200.11667,91.479167 L 200.11667,82.541667 L 209.05417,82.541667 L 217.99167,82.541667 L 217.99167,78.966667 L 217.99167,75.391667 L 208.98565,75.391667 L 200.11667,75.391667 L 200.11667,70.327083 L 200.11667,65.265846 L 211.13958,65.265846 L 221.56667,65.265846 L 221.56667,61.045272 L 221.56667,57.516667 L 205.03238,57.516667 L 189.39167,57.516667 L 189.39167,72.710417 C 189.53805,81.066979 189.29232,90.719479 189.39167,94.160417 L 189.39167,100.41667 L 194.75417,100.41667 L 200.11667,100.41667 L 200.11667,91.479167 z "
         id="path4037"
         sodipodi:nodetypes="cccccccccccccccccccccc" />
      <path
         sodipodi:nodetypes="cccccccccccccccccccccc"
         id="path3162"
         d="M 200.11667,91.479167 L 200.11667,82.541667 L 209.05417,82.541667 L 217.99167,82.541667 L 217.99167,78.966667 L 217.99167,75.391667 L 208.98565,75.391667 L 200.11667,75.391667 L 200.11667,70.327083 L 200.11667,65.265846 L 211.13958,65.265846 L 221.56667,65.265846 L 221.56667,61.045272 L 221.56667,57.516667 L 205.03238,57.516667 L 189.39167,57.516667 L 189.39167,72.710417 C 189.53805,81.066979 189.29232,90.719479 189.39167,94.160417 L 189.39167,100.41667 L 194.75417,100.41667 L 200.11667,100.41667 L 200.11667,91.479167 z "
         style="fill:#e0e0e0;fill-opacity:1;stroke:#000000;stroke-width:2;stroke-miterlimit:4;stroke-dasharray:none;stroke-opacity:1" />
    </g>
    <path
       style="fill:url(#linearGradient3160);fill-opacity:1.0;fill-rule:evenodd;stroke:none;stroke-width:1px;stroke-linecap:butt;stroke-linejoin:miter;stroke-opacity:1"
       d="M 24,70.50522 C 24,70.50522 27,61 72,62 C 117,63 146,59 148,75 C 150,91 141,92 131,95 C 121,98 110.37955,101.68612 86.379549,99.686116 C 62.379549,97.686116 52.533892,94.421965 47.515269,98.414674 C 39.557728,104.74552 31.254073,103.13279 25.855498,101.69636 C -8.5131314,92.551698 22.604352,71.427847 24,70.50522 z "
       id="path2279"
       sodipodi:nodetypes="cssssssc" />
  </g>
</svg>
