<?xml version="1.0" encoding="UTF-8" standalone="no"?>
<!-- Created with Inkscape (http://www.inkscape.org/) -->

<svg
   xmlns:dc="http://purl.org/dc/elements/1.1/"
   xmlns:cc="http://creativecommons.org/ns#"
   xmlns:rdf="http://www.w3.org/1999/02/22-rdf-syntax-ns#"
   xmlns:svg="http://www.w3.org/2000/svg"
   xmlns="http://www.w3.org/2000/svg"
   xmlns:xlink="http://www.w3.org/1999/xlink"
   xmlns:sodipodi="http://sodipodi.sourceforge.net/DTD/sodipodi-0.dtd"
   xmlns:inkscape="http://www.inkscape.org/namespaces/inkscape"
   id="svg1"
   sodipodi:version="0.32"
   inkscape:version="0.48.1 r9760"
   width="128.00000pt"
   height="128.00000pt"
   sodipodi:docname="start-here-opensuse.svg"
   version="1.1">
  <metadata
     id="metadata35">
    <rdf:RDF>
      <cc:Work
         rdf:about="">
        <dc:format>image/svg+xml</dc:format>
        <dc:type
           rdf:resource="http://purl.org/dc/dcmitype/StillImage" />
        <dc:title></dc:title>
      </cc:Work>
    </rdf:RDF>
  </metadata>
  <defs
     id="defs3">
    <linearGradient
       id="linearGradient3843">
      <stop
         style="stop-color:#ffffff;stop-opacity:1;"
         offset="0"
         id="stop3845" />
      <stop
         style="stop-color:#ffffff;stop-opacity:0;"
         offset="1"
         id="stop3847" />
    </linearGradient>
    <inkscape:perspective
       sodipodi:type="inkscape:persp3d"
       inkscape:vp_x="0 : 80 : 1"
       inkscape:vp_y="0 : 1000 : 0"
       inkscape:vp_z="160 : 80 : 1"
       inkscape:persp3d-origin="80 : 53.333333 : 1"
       id="perspective37" />
    <linearGradient
       id="linearGradient566">
      <stop
         style="stop-color:#ffff00;stop-opacity:1.0000000;"
         offset="0.0000000"
         id="stop567" />
      <stop
         style="stop-color:#ffd800;stop-opacity:1.0000000;"
         offset="0.43829629"
         id="stop854" />
      <stop
         style="stop-color:#ffb200;stop-opacity:1.0000000;"
         offset="1.0000000"
         id="stop568" />
    </linearGradient>
    <linearGradient
       id="linearGradient860">
      <stop
         style="stop-color:#ffffff;stop-opacity:1.0000000;"
         offset="0.0000000"
         id="stop861" />
      <stop
         style="stop-color:#ffea7d;stop-opacity:1.0000000;"
         offset="0.25000000"
         id="stop862" />
      <stop
         style="stop-color:#ffbf00;stop-opacity:1.0000;"
         offset="1"
         id="stop863" />
    </linearGradient>
    <linearGradient
       xlink:href="#linearGradient566"
       id="linearGradient569"
       x1="0.48750001"
       y1="0.48387095"
       x2="0.96249998"
       y2="0.48387095"
       spreadMethod="reflect" />
    <linearGradient
       xlink:href="#linearGradient566"
       id="linearGradient589"
       x1="0.44374999"
       y1="0.046875000"
       x2="0.44374999"
       y2="0.57812500"
       spreadMethod="reflect" />
    <linearGradient
       id="linearGradient849">
      <stop
         style="stop-color:#ffc900;stop-opacity:1.0000000;"
         offset="0.0000000"
         id="stop850" />
      <stop
         style="stop-color:#5d5d5c;stop-opacity:1.0000000;"
         offset="1.0000000"
         id="stop851" />
    </linearGradient>
    <linearGradient
       id="linearGradient843">
      <stop
         style="stop-color:#ffffff;stop-opacity:1.0000000;"
         offset="0.0000000"
         id="stop844" />
      <stop
         style="stop-color:#5c5d5c;stop-opacity:1.0000000;"
         offset="1.0000000"
         id="stop845" />
    </linearGradient>
    <linearGradient
       id="linearGradient838">
      <stop
         style="stop-color:#ffd000;stop-opacity:1.0000000;"
         offset="0.0000000"
         id="stop839" />
      <stop
         style="stop-color:#5c5d5c;stop-opacity:1.0000000;"
         offset="1.0000000"
         id="stop840" />
    </linearGradient>
    <linearGradient
       xlink:href="#linearGradient838"
       id="linearGradient841"
       x1="0.35333332"
       y1="0.35135135"
       x2="0.47999999"
       y2="0.049549550" />
    <linearGradient
       xlink:href="#linearGradient843"
       id="linearGradient842"
       x1="0.80165291"
       y1="0.15765765"
       x2="0.43801653"
       y2="0.72522521" />
    <linearGradient
       xlink:href="#linearGradient849"
       id="linearGradient847"
       x1="0.53358209"
       y1="0.50450450"
       x2="0.33208954"
       y2="0.24324325" />
    <radialGradient
       xlink:href="#linearGradient566"
       id="radialGradient853"
       cx="0.32499999"
       cy="0.33021805"
       r="0.54695481"
       fx="0.32187498"
       fy="0.33021802" />
    <radialGradient
       xlink:href="#linearGradient566-2"
       id="radialGradient853-7"
       cx="0.32499999"
       cy="0.33021805"
       r="0.54695481"
       fx="0.32187498"
       fy="0.33021802" />
    <linearGradient
       xlink:href="#linearGradient849-0"
       id="linearGradient847-6"
       x1="0.53358209"
       y1="0.50450450"
       x2="0.33208954"
       y2="0.24324325" />
    <linearGradient
       xlink:href="#linearGradient843-7"
       id="linearGradient842-7"
       x1="0.80165291"
       y1="0.15765765"
       x2="0.43801653"
       y2="0.72522521" />
    <linearGradient
       xlink:href="#linearGradient838-1"
       id="linearGradient841-7"
       x1="0.35333332"
       y1="0.35135135"
       x2="0.47999999"
       y2="0.049549550" />
    <linearGradient
       id="linearGradient838-1">
      <stop
         style="stop-color:#ffd000;stop-opacity:1.0000000;"
         offset="0.0000000"
         id="stop839-5" />
      <stop
         style="stop-color:#5c5d5c;stop-opacity:1.0000000;"
         offset="1.0000000"
         id="stop840-9" />
    </linearGradient>
    <linearGradient
       id="linearGradient843-7">
      <stop
         style="stop-color:#ffffff;stop-opacity:1.0000000;"
         offset="0.0000000"
         id="stop844-7" />
      <stop
         style="stop-color:#5c5d5c;stop-opacity:1.0000000;"
         offset="1.0000000"
         id="stop845-1" />
    </linearGradient>
    <linearGradient
       id="linearGradient849-0">
      <stop
         style="stop-color:#ffc900;stop-opacity:1.0000000;"
         offset="0.0000000"
         id="stop850-9" />
      <stop
         style="stop-color:#5d5d5c;stop-opacity:1.0000000;"
         offset="1.0000000"
         id="stop851-1" />
    </linearGradient>
    <linearGradient
       xlink:href="#linearGradient566-2"
       id="linearGradient589-9"
       x1="0.44374999"
       y1="0.046875000"
       x2="0.44374999"
       y2="0.57812500"
       spreadMethod="reflect" />
    <linearGradient
       xlink:href="#linearGradient566-2"
       id="linearGradient569-4"
       x1="0.48750001"
       y1="0.48387095"
       x2="0.96249998"
       y2="0.48387095"
       spreadMethod="reflect" />
    <linearGradient
       id="linearGradient860-6">
      <stop
         style="stop-color:#ffffff;stop-opacity:1.0000000;"
         offset="0.0000000"
         id="stop861-1" />
      <stop
         style="stop-color:#ffea7d;stop-opacity:1.0000000;"
         offset="0.25000000"
         id="stop862-5" />
      <stop
         style="stop-color:#ffbf00;stop-opacity:1.0000;"
         offset="1"
         id="stop863-9" />
    </linearGradient>
    <linearGradient
       id="linearGradient566-2">
      <stop
         style="stop-color:#ffff00;stop-opacity:1.0000000;"
         offset="0.0000000"
         id="stop567-6" />
      <stop
         style="stop-color:#ffd800;stop-opacity:1.0000000;"
         offset="0.43829629"
         id="stop854-1" />
      <stop
         style="stop-color:#ffb200;stop-opacity:1.0000000;"
         offset="1.0000000"
         id="stop568-0" />
    </linearGradient>
    <inkscape:perspective
       id="perspective2872"
       inkscape:persp3d-origin="80 : 53.333333 : 1"
       inkscape:vp_z="160 : 80 : 1"
       inkscape:vp_y="0 : 1000 : 0"
       inkscape:vp_x="0 : 80 : 1"
       sodipodi:type="inkscape:persp3d" />
    <linearGradient
       inkscape:collect="always"
       xlink:href="#linearGradient3843"
       id="linearGradient3892"
       gradientUnits="userSpaceOnUse"
       gradientTransform="matrix(1.5581969,0,0,1.5581969,9.320967,6.92602)"
       x1="-11.933134"
       y1="-33.006435"
       x2="89.274567"
       y2="81.822845" />
    <filter
       id="filter3478">
      <feGaussianBlur
         inkscape:collect="always"
         stdDeviation="3.4723602"
         id="feGaussianBlur3480" />
    </filter>
    <filter
       id="filter3442">
      <feGaussianBlur
         inkscape:collect="always"
         stdDeviation="2.3432203"
         id="feGaussianBlur3444" />
    </filter>
    <linearGradient
       gradientTransform="translate(-322.85714,-811.42857)"
       gradientUnits="userSpaceOnUse"
       xlink:href="#linearGradient3374"
       id="linearGradient3380"
       y2="910.63495"
       x2="413.88904"
       y1="883.36084"
       x1="447.5928" />
    <linearGradient
       id="linearGradient3374">
      <stop
         offset="0"
         style="stop-color:#ffffff;stop-opacity:0.43727598"
         id="stop3376" />
      <stop
         offset="1"
         style="stop-color:#ffffff;stop-opacity:0"
         id="stop3378" />
    </linearGradient>
    <linearGradient
       inkscape:collect="always"
       xlink:href="#linearGradient3843"
       id="linearGradient3870"
       x1="208.10587"
       y1="172.25334"
       x2="3.8832328"
       y2="2.8384519"
       gradientUnits="userSpaceOnUse"
       gradientTransform="translate(0,2.5173795)" />
  </defs>
  <sodipodi:namedview
     id="base"
     pagecolor="#ffffff"
     bordercolor="#666666"
     borderopacity="1.0"
     inkscape:pageopacity="0.0"
     inkscape:pageshadow="2"
     inkscape:zoom="2.3219184"
     inkscape:cx="65.230014"
     inkscape:cy="80.000006"
     inkscape:window-width="1280"
     inkscape:window-height="751"
     showgrid="false"
     snaptogrid="true"
     inkscape:window-x="0"
     inkscape:window-y="25"
     inkscape:window-maximized="1"
     inkscape:current-layer="svg1">
    <inkscape:grid
       id="GridFromPre046Settings"
       type="xygrid"
       originx="0px"
       originy="0px"
       spacingx="1.0000000mm"
       spacingy="1.0000000mm"
       color="#0000ff"
       empcolor="#0000ff"
       opacity="0.2"
       empopacity="0.4"
       empspacing="5" />
  </sodipodi:namedview>
  <path
     inkscape:connector-curvature="0"
     d="M 33.026654,23.068743 C 17.730847,30.248897 16.994728,53.517399 49.853438,69.801597 34.763394,66.311945 23.507143,67.527413 16.068223,71.282304 0.2552781,79.264091 1.6817305,98.573787 20.283689,107.74593 c -6.864887,29.71129 26.703142,44.55846 48.106121,1.14307 -10.740716,46.97252 24.540926,56.63923 38.00567,29.33144 29.5934,6.83765 44.43017,-26.43888 1.64524,-47.856063 C 154.86607,100.98083 164.479,65.747259 137.20429,52.298836 144.04938,22.67319 110.68942,7.8356505 89.274845,50.793004 99.781135,4.0983647 64.61182,-5.4615062 51.177897,21.783809 44.077827,20.143316 37.838353,20.810026 33.026654,23.068743 z"
     id="path3305"
     style="fill:none;stroke:#ff0000;stroke-width:1.00824332px;stroke-linecap:butt;stroke-linejoin:miter;stroke-opacity:1" />
  <path
     inkscape:connector-curvature="0"
     d="M 31.956565,20.786524 C 23.37465,24.815051 18.692922,33.812382 20.93953,43.586102 22.624486,50.916383 27.927282,58.57524 37.59342,65.468186 28.281114,64.835938 20.652705,66.144144 14.941199,69.027084 6.2775656,73.400168 1.9563962,81.318658 2.7645738,89.30793 c 0.7588141,7.501199 5.966552,14.78823 14.7825912,19.70086 -2.678671,14.95824 4.455448,26.98483 15.726467,29.19148 9.557483,1.87118 21.015451,-3.38168 30.888734,-17.36826 -1.139376,16.97523 4.405962,28.23946 12.973531,32.79848 10.110008,5.37982 23.184643,0.55846 30.565603,-12.68178 14.88756,2.65862 26.8578,-4.36573 29.13162,-15.5586 1.932,-9.51027 -3.2118,-20.96629 -17.03105,-30.839427 17.01447,1.146394 28.29451,-4.433014 32.84194,-13.028994 5.34905,-10.1113 0.52871,-23.151707 -12.69677,-30.523639 2.66043,-14.9036 -4.38719,-26.892118 -15.60056,-29.146578 C 114.8138,19.934873 103.35586,25.142235 93.475844,39.036888 94.580122,22.084839 88.990289,10.84197 80.401949,6.3208658 70.29809,1.001959 57.243154,5.8173692 49.8783,19.017633 43.077992,17.79181 36.895364,18.468151 31.956565,20.786524 z"
     id="path3328"
     style="fill:none;stroke:none" />
  <path
     inkscape:connector-curvature="0"
     d="m 32.361587,21.640587 c -8.229969,3.863317 -12.673417,12.336775 -10.515465,21.724809 1.787536,7.776531 8.00513,16.078668 19.539504,23.407941 -10.990912,-1.348726 -19.737543,-0.07227 -26.010943,3.094309 -8.37832,4.229068 -12.418906,11.727634 -11.649515,19.33345 0.739395,7.309209 5.892778,14.517624 14.875329,19.308174 -2.968541,14.91313 3.948775,26.6473 14.833084,28.77825 9.68341,1.89583 21.740186,-3.78565 31.867819,-19.71561 -2.16743,18.6418 3.59164,30.60164 12.27473,35.22214 9.75848,5.19275 22.50873,0.50514 29.63936,-12.87021 14.83097,2.93376 26.49691,-3.91998 28.69136,-14.72215 1.95788,-9.63761 -3.58247,-21.67175 -19.33641,-31.80354 18.67679,2.174268 30.62968,-3.607262 35.23711,-12.3167 5.16313,-9.759836 0.4748,-22.475398 -12.88518,-29.597375 2.93907,-14.849629 -3.94046,-26.530239 -14.76411,-28.706341 -9.65861,-1.941886 -21.69871,3.659974 -31.83495,19.490785 C 94.45246,23.654139 88.63653,11.752434 79.93324,7.1708149 70.17832,2.0356 57.492202,6.7286398 50.377825,20.070964 43.470502,18.697344 37.258956,19.341652 32.361587,21.640587 z"
     id="path3331"
     style="fill:#000000;fill-opacity:0.50196078;fill-rule:evenodd;stroke:#000000;stroke-width:2.4000001;stroke-linejoin:round;stroke-miterlimit:4;stroke-opacity:0.50196078;stroke-dasharray:none" />
  <path
     inkscape:connector-curvature="0"
     d="M 33.026654,23.068743 C 17.730847,30.248897 16.994728,53.517399 49.853438,69.801597 34.763394,66.311945 23.507143,67.527413 16.068223,71.282304 0.2552781,79.264091 1.6817305,98.573787 20.283689,107.74593 c -6.864887,29.71129 26.703142,44.55846 48.106121,1.14307 -10.740716,46.97252 24.540926,56.63923 38.00567,29.33144 29.5934,6.83765 44.43017,-26.43888 1.64524,-47.856063 C 154.86607,100.98083 164.479,65.747259 137.20429,52.298836 144.04938,22.67319 110.68942,7.8356505 89.274845,50.793004 99.781135,4.0983647 64.61182,-5.4615062 51.177897,21.783809 44.077827,20.143316 37.838353,20.810026 33.026654,23.068743 z"
     id="path3326"
     style="fill:#60ca00;fill-opacity:1;fill-rule:evenodd;stroke:#000000;stroke-width:1.90799999;stroke-linecap:butt;stroke-linejoin:round;stroke-miterlimit:4;stroke-opacity:1;stroke-dasharray:none" />
  <path
     style="fill:url(#linearGradient3870);fill-opacity:1;fill-rule:evenodd;stroke:none"
     d="m 20.09375,108.95488 c 1.416755,0.0499 2.815739,0.15625 4.25,0.15625 2.921182,0 5.811294,-0.10812 8.65625,-0.3125 2.844956,-0.20438 5.620451,-0.50753 8.375,-0.90625 2.754549,-0.39872 5.475037,-0.88571 8.125,-1.46875 2.649963,-0.58304 5.250053,-1.24268 7.78125,-2 2.531197,-0.75732 5.007998,-1.60967 7.40625,-2.53125 2.398252,-0.92158 4.717623,-1.924196 6.96875,-3.000001 2.251127,-1.075805 4.410177,-2.217501 6.5,-3.4375 2.089823,-1.219999 4.116911,-2.520837 6.03125,-3.875 1.914339,-1.354163 3.712825,-2.771703 5.4375,-4.25 1.724675,-1.478297 3.354168,-3.0326 4.875,-4.625 1.520832,-1.5924 2.947191,-3.209776 4.25,-4.90625 1.30281,-1.696474 2.49189,-3.459484 3.5625,-5.25 1.07061,-1.790516 2.01953,-3.625471 2.84375,-5.5 0.82422,-1.874529 1.53009,-3.801489 2.09375,-5.75 0.56366,-1.948511 0.99233,-3.925038 1.28125,-5.9375 0.28892,-2.012462 0.4375,-4.058617 0.4375,-6.125 0,-2.066383 -0.14858,-4.081288 -0.4375,-6.09375 -0.28892,-2.012462 -0.71759,-4.020239 -1.28125,-5.96875 -0.56366,-1.948511 -1.26953,-3.844221 -2.09375,-5.71875 -0.14512,-0.330049 -0.34706,-0.641177 -0.5,-0.96875 -5.331345,4.312653 -10.646973,10.828141 -15.375,20.3125 10.50629,-46.6946393 -24.659827,-56.2453152 -38.09375,-29 -7.10007,-1.640493 -13.344551,-0.977467 -18.15625,1.28125 -15.295807,7.180154 -16.04621,30.434552 16.8125,46.71875 -15.090044,-3.489652 -26.34233,-2.286141 -33.78125,1.46875 -15.8129449,7.981787 -14.3832085,27.296608 4.21875,36.468751 -0.09677,0.41884 -0.106649,0.80594 -0.1875,1.21875 z"
     id="path3851"
     inkscape:connector-curvature="0" />
  <path
     style="fill:none;stroke:#000000;stroke-width:1.90799999;stroke-linecap:butt;stroke-linejoin:round;stroke-miterlimit:4;stroke-opacity:1;stroke-dasharray:none"
     id="path3872"
     d="M 33.026654,23.068743 C 17.730847,30.248897 16.994728,53.517399 49.853438,69.801597 34.763394,66.311945 23.507143,67.527413 16.068223,71.282304 0.2552781,79.264091 1.6817305,98.573787 20.283689,107.74593 c -6.864887,29.71129 26.703142,44.55846 48.106121,1.14307 -10.740716,46.97252 24.540926,56.63923 38.00567,29.33144 29.5934,6.83765 44.43017,-26.43888 1.64524,-47.856063 C 154.86607,100.98083 164.479,65.747259 137.20429,52.298836 144.04938,22.67319 110.68942,7.8356505 89.274845,50.793004 99.781135,4.0983647 64.61182,-5.4615062 51.177897,21.783809 44.077827,20.143316 37.838353,20.810026 33.026654,23.068743 z"
     inkscape:connector-curvature="0" />
</svg>
