<?xml version="1.0" encoding="UTF-8" standalone="no"?>
<!-- Created with Sodipodi ("http://www.sodipodi.com/") -->
<svg
   xmlns:dc="http://purl.org/dc/elements/1.1/"
   xmlns:cc="http://web.resource.org/cc/"
   xmlns:rdf="http://www.w3.org/1999/02/22-rdf-syntax-ns#"
   xmlns:svg="http://www.w3.org/2000/svg"
   xmlns="http://www.w3.org/2000/svg"
   xmlns:xlink="http://www.w3.org/1999/xlink"
   xmlns:sodipodi="http://inkscape.sourceforge.net/DTD/sodipodi-0.dtd"
   xmlns:inkscape="http://www.inkscape.org/namespaces/inkscape"
   id="svg559"
   sodipodi:version="0.32"
   width="128pt"
   height="128pt"
   sodipodi:docbase="/home/francois/Rodent/scalable/apps"
   sodipodi:docname="gnome-devel.svg"
   inkscape:version="0.41">
  <metadata
     id="metadata17">
    <rdf:RDF
       id="RDF19">
      <cc:Work
         rdf:about=""
         id="Work21">
        <dc:format
           id="format23">image/svg+xml</dc:format>
        <dc:type
           id="type25"
           rdf:resource="http://purl.org/dc/dcmitype/StillImage" />
      </cc:Work>
    </rdf:RDF>
  </metadata>
  <defs
     id="defs561">
    <linearGradient
       id="linearGradient2830">
      <stop
         style="stop-color:#ffffff;stop-opacity:1.0000000;"
         offset="0.0000000"
         id="stop2832" />
      <stop
         style="stop-color:#ffffff;stop-opacity:0.0000000;"
         offset="1.0000000"
         id="stop2834" />
    </linearGradient>
    <linearGradient
       id="linearGradient2851">
      <stop
         style="stop-color:#ffffff;stop-opacity:1.0000000;"
         offset="0.0000000"
         id="stop2853" />
      <stop
         style="stop-color:#ffffff;stop-opacity:0.0000000;"
         offset="1.0000000"
         id="stop2855" />
    </linearGradient>
    <linearGradient
       id="linearGradient870">
      <stop
         style="stop-color:#ffffff;stop-opacity:1.0000000;"
         offset="0.0000000"
         id="stop871" />
      <stop
         style="stop-color:#ff7f7f;stop-opacity:1.0000000;"
         offset="0.50000000"
         id="stop875" />
      <stop
         style="stop-color:#ff0000;stop-opacity:1.0000000;"
         offset="1.0000000"
         id="stop873" />
    </linearGradient>
    <linearGradient
       id="linearGradient832">
      <stop
         style="stop-color:#ffffff;stop-opacity:1.0000000;"
         offset="0.0000000"
         id="stop833" />
      <stop
         style="stop-color:#00b8df;stop-opacity:1.0000000;"
         offset="0.50000000"
         id="stop835" />
      <stop
         style="stop-color:#0058a9;stop-opacity:1.0000000;"
         offset="1.0000000"
         id="stop834" />
    </linearGradient>
    <linearGradient
       xlink:href="#linearGradient870"
       id="linearGradient839"
       x1="0.44607842"
       y1="0.46766168"
       x2="0.55882353"
       y2="0.58706468"
       spreadMethod="reflect" />
    <linearGradient
       inkscape:collect="always"
       xlink:href="#linearGradient2851"
       id="linearGradient2857"
       gradientTransform="scale(0.998853,1.001148)"
       x1="44.246502"
       y1="51.416485"
       x2="79.162498"
       y2="86.589195"
       gradientUnits="userSpaceOnUse" />
    <linearGradient
       inkscape:collect="always"
       xlink:href="#linearGradient2830"
       id="linearGradient2840"
       gradientTransform="matrix(0.728350,0.000000,0.000000,0.729992,2.420544,2.183568)"
       x1="41.381039"
       y1="46.285152"
       x2="78.810638"
       y2="85.785439"
       gradientUnits="userSpaceOnUse" />
    <linearGradient
       y2="85.785439"
       x2="78.810638"
       y1="46.285152"
       x1="41.381039"
       gradientTransform="matrix(0.728350,0.000000,0.000000,0.729992,42.02969,41.96322)"
       gradientUnits="userSpaceOnUse"
       id="linearGradient1318"
       xlink:href="#linearGradient2830"
       inkscape:collect="always" />
  </defs>
  <sodipodi:namedview
     id="base"
     showgrid="true"
     snaptogrid="true"
     gridspacingx="1mm"
     gridspacingy="1mm"
     inkscape:zoom="2.9500000"
     inkscape:cx="80.000000"
     inkscape:cy="82.604484"
     inkscape:window-width="812"
     inkscape:window-height="653"
     inkscape:window-x="0"
     inkscape:window-y="34"
     inkscape:current-layer="svg559" />
  <path
     style="fill:#b39169;fill-opacity:1.0000000;fill-rule:evenodd;stroke:#000000;stroke-width:2.7343872;stroke-linecap:butt;stroke-miterlimit:4.0000000;stroke-dashoffset:0.0000000;stroke-opacity:0.44129553"
     d="M 71.008089,9.4296936 L 63.169512,20.800187 L 61.164295,16.675820 L 58.498268,21.962301 L 49.679869,9.7487054 L 45.487142,23.762440 L 32.498803,17.017618 L 34.959751,31.031352 L 30.242933,29.413507 L 31.997499,34.654415 L 17.550820,32.261827 L 24.569080,45.432458 L 10.304694,50.012557 L 21.925839,58.078999 L 17.550820,60.289295 L 22.563863,62.727457 L 10.623705,71.363563 L 24.614653,75.533504 L 17.869831,88.567416 L 32.225364,86.038108 L 30.539159,91.073937 L 34.891392,89.547238 L 32.498803,103.19639 L 46.147952,96.132554 L 50.864770,110.73874 L 58.931212,99.094807 L 61.164295,103.51540 L 63.351805,99.003660 L 71.554966,110.64759 L 75.929986,96.656645 L 88.804392,103.51540 L 86.366230,88.658562 L 91.948937,90.481487 L 90.239945,85.605163 L 104.36761,87.952179 L 97.554431,75.146132 L 111.38587,70.839472 L 99.422929,62.362872 L 104.36761,59.901924 L 99.377356,57.463762 L 111.29473,48.850442 L 97.280992,44.634929 L 104.04860,31.623803 L 89.670281,34.175898 L 91.333700,29.117281 L 86.457377,30.803487 L 88.804392,16.675820 L 75.610974,23.716867 L 71.008089,9.4296936 z M 60.207260,38.801569 C 72.486973,38.801568 82.446942,48.761536 82.446942,61.041252 C 82.446942,73.320965 72.486975,83.280934 60.207260,83.280934 C 47.927542,83.280934 37.967577,73.320967 37.967577,61.041252 C 37.967576,48.761534 47.927544,38.801569 60.207260,38.801569 z "
     id="path1306" />
  <path
     style="fill:#b39169;fill-opacity:1.0000000;fill-rule:evenodd;stroke:#000000;stroke-width:1.6885904;stroke-linecap:butt;stroke-miterlimit:4.0000000;stroke-dashoffset:0.0000000;stroke-opacity:1.0000000"
     d="M 71.008089,9.4296936 L 63.169512,20.800187 L 61.164295,16.675820 L 58.498268,21.962301 L 49.679869,9.7487054 L 45.487142,23.762440 L 32.498803,17.017618 L 34.959751,31.031352 L 30.242933,29.413507 L 31.997499,34.654415 L 17.550820,32.261827 L 24.569080,45.432458 L 10.304694,50.012557 L 21.925839,58.078999 L 17.550820,60.289295 L 22.563863,62.727457 L 10.623705,71.363563 L 24.614653,75.533504 L 17.869831,88.567416 L 32.225364,86.038108 L 30.539159,91.073937 L 34.891392,89.547238 L 32.498803,103.19639 L 46.147952,96.132554 L 50.864770,110.73874 L 58.931212,99.094807 L 61.164295,103.51540 L 63.351805,99.003660 L 71.554966,110.64759 L 75.929986,96.656645 L 88.804392,103.51540 L 86.366230,88.658562 L 91.948937,90.481487 L 90.239945,85.605163 L 104.36761,87.952179 L 97.554431,75.146132 L 111.38587,70.839472 L 99.422929,62.362872 L 104.36761,59.901924 L 99.377356,57.463762 L 111.29473,48.850442 L 97.280992,44.634929 L 104.04860,31.623803 L 89.670281,34.175898 L 91.333700,29.117281 L 86.457377,30.803487 L 88.804392,16.675820 L 75.610974,23.716867 L 71.008089,9.4296936 z M 60.207260,38.801569 C 72.486973,38.801568 82.446942,48.761536 82.446942,61.041252 C 82.446942,73.320965 72.486975,83.280934 60.207260,83.280934 C 47.927542,83.280934 37.967577,73.320967 37.967577,61.041252 C 37.967576,48.761534 47.927544,38.801569 60.207260,38.801569 z "
     id="path1308" />
  <path
     style="fill:url(#linearGradient2840);fill-opacity:1.0000000;fill-rule:evenodd;stroke:none;stroke-width:2.0372825;stroke-linecap:butt;stroke-miterlimit:4.0000000;stroke-dashoffset:0.0000000;stroke-opacity:1.0000000"
     d="M 69.736502,15.655873 L 62.840571,25.658982 L 61.076496,22.030600 L 58.731078,26.681343 L 50.973155,15.936521 L 47.284635,28.265002 L 35.858237,22.331294 L 38.023239,34.659775 L 33.873653,33.236487 L 35.417219,37.847138 L 22.707859,35.742276 L 28.882122,47.329043 L 16.333131,51.358351 L 26.556749,58.454745 L 22.707859,60.399237 L 27.118046,62.544193 L 16.613779,70.141744 L 28.922214,73.810219 L 22.988507,85.276701 L 35.617682,83.051566 L 34.134255,87.481799 L 37.963100,86.138697 L 35.858237,98.146434 L 47.865978,91.932083 L 52.015564,104.78176 L 59.111957,94.538100 L 61.076496,98.427084 L 63.000942,94.457913 L 70.217613,104.70158 L 74.066504,92.393144 L 85.392643,98.427084 L 83.247687,85.356888 L 88.159033,86.960595 L 86.655558,82.670684 L 99.084273,84.735453 L 93.090424,73.469432 L 105.25853,69.680678 L 94.734221,62.223452 L 99.084273,60.058450 L 94.694131,57.913495 L 105.17835,50.335989 L 92.849871,46.627423 L 98.803623,35.180979 L 86.154399,37.426166 L 87.617785,32.975885 L 83.327867,34.459312 L 85.392643,22.030600 L 73.785856,28.224909 L 69.736502,15.655873 z M 60.234550,41.495567 C 71.037539,41.495566 79.799720,50.257775 79.799720,61.060766 C 79.799720,71.863754 71.037542,80.625961 60.234550,80.625961 C 49.431558,80.625961 40.669352,71.863756 40.669352,61.060766 C 40.669351,50.257773 49.431560,41.495567 60.234550,41.495567 z "
     id="path2070" />
  <path
     style="fill:#ffffff;fill-opacity:0.35222670;fill-rule:evenodd;stroke:none;stroke-width:2.0372825;stroke-linecap:butt;stroke-miterlimit:4.0000000;stroke-dashoffset:0.0000000;stroke-opacity:1.0000000"
     d="M 35.858237,98.146434 L 47.865978,91.932083 L 52.015564,104.78176 L 59.111957,94.538100 L 61.076496,98.427084 L 63.000942,94.457913 L 70.217613,104.70158 L 74.066504,92.393144 L 85.392643,98.427084 L 83.247687,85.356888 L 88.159033,86.960595 L 86.655558,82.670684 L 99.084273,84.735453 L 93.090424,73.469432 L 105.25853,69.680678 L 94.734221,62.223452 L 99.084273,60.058450 L 94.694131,57.913495 L 105.17835,50.335989 L 92.849871,46.627423 L 98.803623,35.180979 L 35.858237,98.146434 z M 79.799720,61.060766 C 79.799720,71.863754 71.037542,80.625961 60.234550,80.625961 C 49.431558,80.625961 79.799720,50.257775 79.799720,61.060766 z "
     id="path2842"
     sodipodi:nodetypes="ccccccccccccccccccccccccc" />
  <path
     style="fill:#b39169;fill-opacity:1.0000000;fill-rule:evenodd;stroke:#000000;stroke-width:2.7343872;stroke-linecap:butt;stroke-miterlimit:4.0000000;stroke-dashoffset:0.0000000;stroke-opacity:0.44129553"
     d="M 110.61723,49.209345 L 102.77865,60.579838 L 100.77344,56.455471 L 98.107409,61.741952 L 89.289010,49.528356 L 85.096283,63.542091 L 72.107944,56.797269 L 74.568892,70.811003 L 69.852074,69.193158 L 71.606640,74.434066 L 57.159961,72.041478 L 64.178221,85.212109 L 49.913835,89.792208 L 61.534980,97.858650 L 57.159961,100.06895 L 62.173004,102.50711 L 50.232846,111.14321 L 64.223794,115.31315 L 57.478972,128.34707 L 71.834505,125.81776 L 70.148300,130.85359 L 74.500533,129.32689 L 72.107944,142.97604 L 85.757093,135.91220 L 90.473911,150.51839 L 98.540353,138.87446 L 100.77344,143.29505 L 102.96095,138.78331 L 111.16411,150.42724 L 115.53913,136.43630 L 128.41353,143.29505 L 125.97537,128.43821 L 131.55808,130.26114 L 129.84909,125.38481 L 143.97675,127.73183 L 137.16357,114.92578 L 150.99501,110.61912 L 139.03207,102.14252 L 143.97675,99.681575 L 138.98650,97.243413 L 150.90387,88.630093 L 136.89013,84.414580 L 143.65774,71.403454 L 129.27942,73.955549 L 130.94284,68.896932 L 126.06652,70.583138 L 128.41353,56.455471 L 115.22012,63.496518 L 110.61723,49.209345 z M 99.816401,78.581220 C 112.09611,78.581219 122.05608,88.541187 122.05608,100.82090 C 122.05608,113.10062 112.09612,123.06058 99.816401,123.06058 C 87.536683,123.06058 77.576718,113.10062 77.576718,100.82090 C 77.576717,88.541185 87.536685,78.581220 99.816401,78.581220 z "
     id="path1310" />
  <path
     style="fill:#b39169;fill-opacity:1.0000000;fill-rule:evenodd;stroke:#000000;stroke-width:1.6885904;stroke-linecap:butt;stroke-miterlimit:4.0000000;stroke-dashoffset:0.0000000;stroke-opacity:1.0000000"
     d="M 110.61723,49.209345 L 102.77865,60.579838 L 100.77344,56.455471 L 98.107409,61.741952 L 89.289010,49.528356 L 85.096283,63.542091 L 72.107944,56.797269 L 74.568892,70.811003 L 69.852074,69.193158 L 71.606640,74.434066 L 57.159961,72.041478 L 64.178221,85.212109 L 49.913835,89.792208 L 61.534980,97.858650 L 57.159961,100.06895 L 62.173004,102.50711 L 50.232846,111.14321 L 64.223794,115.31315 L 57.478972,128.34707 L 71.834505,125.81776 L 70.148300,130.85359 L 74.500533,129.32689 L 72.107944,142.97604 L 85.757093,135.91220 L 90.473911,150.51839 L 98.540353,138.87446 L 100.77344,143.29505 L 102.96095,138.78331 L 111.16411,150.42724 L 115.53913,136.43630 L 128.41353,143.29505 L 125.97537,128.43821 L 131.55808,130.26114 L 129.84909,125.38481 L 143.97675,127.73183 L 137.16357,114.92578 L 150.99501,110.61912 L 139.03207,102.14252 L 143.97675,99.681575 L 138.98650,97.243413 L 150.90387,88.630093 L 136.89013,84.414580 L 143.65774,71.403454 L 129.27942,73.955549 L 130.94284,68.896932 L 126.06652,70.583138 L 128.41353,56.455471 L 115.22012,63.496518 L 110.61723,49.209345 z M 99.816401,78.581220 C 112.09611,78.581219 122.05608,88.541187 122.05608,100.82090 C 122.05608,113.10062 112.09612,123.06058 99.816401,123.06058 C 87.536683,123.06058 77.576718,113.10062 77.576718,100.82090 C 77.576717,88.541185 87.536685,78.581220 99.816401,78.581220 z "
     id="path1312" />
  <path
     style="fill:url(#linearGradient1318);fill-opacity:1.0000000;fill-rule:evenodd;stroke:none;stroke-width:2.0372825;stroke-linecap:butt;stroke-miterlimit:4.0000000;stroke-dashoffset:0.0000000;stroke-opacity:1.0000000"
     d="M 109.34564,55.435524 L 102.44971,65.438633 L 100.68564,61.810251 L 98.340219,66.460994 L 90.582296,55.716172 L 86.893776,68.044653 L 75.467378,62.110945 L 77.632380,74.439426 L 73.482794,73.016138 L 75.026360,77.626789 L 62.317000,75.521927 L 68.491263,87.108694 L 55.942272,91.138002 L 66.165890,98.234396 L 62.317000,100.17889 L 66.727187,102.32384 L 56.222920,109.92139 L 68.531355,113.58987 L 62.597648,125.05635 L 75.226823,122.83122 L 73.743396,127.26145 L 77.572241,125.91835 L 75.467378,137.92608 L 87.475119,131.71173 L 91.624705,144.56141 L 98.721098,134.31775 L 100.68564,138.20673 L 102.61008,134.23756 L 109.82675,144.48123 L 113.67565,132.17279 L 125.00178,138.20673 L 122.85683,125.13654 L 127.76817,126.74025 L 126.26470,122.45033 L 138.69341,124.51510 L 132.69957,113.24908 L 144.86767,109.46033 L 134.34336,102.00310 L 138.69341,99.838101 L 134.30327,97.693146 L 144.78749,90.115640 L 132.45901,86.407074 L 138.41276,74.960630 L 125.76354,77.205817 L 127.22693,72.755536 L 122.93701,74.238963 L 125.00178,61.810251 L 113.39500,68.004560 L 109.34564,55.435524 z M 99.843691,81.275218 C 110.64668,81.275217 119.40886,90.037426 119.40886,100.84042 C 119.40886,111.64340 110.64668,120.40561 99.843691,120.40561 C 89.040699,120.40561 80.278493,111.64341 80.278493,100.84042 C 80.278492,90.037424 89.040701,81.275218 99.843691,81.275218 z "
     id="path1314" />
  <path
     style="fill:#ffffff;fill-opacity:0.35222670;fill-rule:evenodd;stroke:none;stroke-width:2.0372825;stroke-linecap:butt;stroke-miterlimit:4.0000000;stroke-dashoffset:0.0000000;stroke-opacity:1.0000000"
     d="M 75.467378,137.92608 L 87.475119,131.71173 L 91.624705,144.56141 L 98.721098,134.31775 L 100.68564,138.20673 L 102.61008,134.23756 L 109.82675,144.48123 L 113.67565,132.17279 L 125.00178,138.20673 L 122.85683,125.13654 L 127.76817,126.74025 L 126.26470,122.45033 L 138.69341,124.51510 L 132.69957,113.24908 L 144.86767,109.46033 L 134.34336,102.00310 L 138.69341,99.838101 L 134.30327,97.693146 L 144.78749,90.115640 L 132.45901,86.407074 L 138.41276,74.960630 L 75.467378,137.92608 z M 119.40886,100.84042 C 119.40886,111.64340 110.64668,120.40561 99.843691,120.40561 C 89.040699,120.40561 119.40886,90.037426 119.40886,100.84042 z "
     id="path1316"
     sodipodi:nodetypes="ccccccccccccccccccccccccc" />
</svg>
