<?xml version="1.0" encoding="UTF-8" standalone="no"?>
<!-- Created with Sodipodi ("http://www.sodipodi.com/") -->

<svg
   xmlns:dc="http://purl.org/dc/elements/1.1/"
   xmlns:cc="http://creativecommons.org/ns#"
   xmlns:rdf="http://www.w3.org/1999/02/22-rdf-syntax-ns#"
   xmlns:svg="http://www.w3.org/2000/svg"
   xmlns="http://www.w3.org/2000/svg"
   xmlns:xlink="http://www.w3.org/1999/xlink"
   xmlns:sodipodi="http://sodipodi.sourceforge.net/DTD/sodipodi-0.dtd"
   xmlns:inkscape="http://www.inkscape.org/namespaces/inkscape"
   inkscape:version="0.48.1 r9760"
   sodipodi:docname="xfce4-panel.svg"
   height="128pt"
   width="128pt"
   sodipodi:version="0.32"
   id="svg562"
   version="1.1">
  <metadata
     id="metadata33">
    <rdf:RDF>
      <cc:Work
         rdf:about="">
        <dc:format>image/svg+xml</dc:format>
        <dc:type
           rdf:resource="http://purl.org/dc/dcmitype/StillImage" />
        <dc:title></dc:title>
      </cc:Work>
    </rdf:RDF>
  </metadata>
  <defs
     id="defs564">
    <linearGradient
       id="linearGradient3878">
      <stop
         style="stop-color:#e76c50;stop-opacity:1;"
         offset="0"
         id="stop3880" />
      <stop
         id="stop3886"
         offset="0.5"
         style="stop-color:#c1391a;stop-opacity:1;" />
      <stop
         style="stop-color:#a43116;stop-opacity:1;"
         offset="1"
         id="stop3882" />
    </linearGradient>
    <radialGradient
       xlink:href="#linearGradient866"
       id="radialGradient865"
       cx="0.15841584"
       cy="0.17910448"
       r="0.53908408"
       fx="0.15841584"
       fy="0.17910448" />
    <linearGradient
       xlink:href="#linearGradient858"
       id="linearGradient861"
       x1="0.50746274"
       y1="0.50495046"
       x2="0.68159211"
       y2="0.32673267" />
    <linearGradient
       xlink:href="#linearGradient858"
       id="linearGradient830" />
    <linearGradient
       id="linearGradient827">
      <stop
         style="stop-color:#000000;stop-opacity:0.66949153;"
         offset="0.0000000"
         id="stop828" />
      <stop
         style="stop-color:#ffffff;stop-opacity:0.0000000;"
         offset="1.0000000"
         id="stop829" />
    </linearGradient>
    <linearGradient
       id="linearGradient858">
      <stop
         style="stop-color:#000000;stop-opacity:0.0000000;"
         offset="0.0000000"
         id="stop859" />
      <stop
         style="stop-color:#ffffff;stop-opacity:1.0000000;"
         offset="1.0000000"
         id="stop860" />
    </linearGradient>
    <linearGradient
       id="linearGradient866">
      <stop
         style="stop-color:#ffffff;stop-opacity:0.29411766;"
         offset="0.0000000"
         id="stop867" />
      <stop
         style="stop-color:#000000;stop-opacity:0.32156864;"
         offset="1.0000000"
         id="stop868" />
    </linearGradient>
    <linearGradient
       inkscape:collect="always"
       xlink:href="#linearGradient3878"
       id="linearGradient3884"
       x1="80.191307"
       y1="6.9894085"
       x2="80.191307"
       y2="153.849"
       gradientUnits="userSpaceOnUse" />
  </defs>
  <sodipodi:namedview
     inkscape:current-layer="svg562"
     inkscape:window-y="49"
     inkscape:window-x="15"
     inkscape:window-height="653"
     inkscape:window-width="1242"
     inkscape:cy="79.322034"
     inkscape:cx="55.932203"
     inkscape:zoom="0.7375"
     showgrid="false"
     snaptogrid="false"
     id="base"
     inkscape:window-maximized="0">
    <inkscape:grid
       id="GridFromPre046Settings"
       type="xygrid"
       originx="0px"
       originy="0px"
       spacingx="1mm"
       spacingy="1mm"
       color="#0000ff"
       empcolor="#0000ff"
       opacity="0.2"
       empopacity="0.4"
       empspacing="5" />
  </sodipodi:namedview>
  <path
     inkscape:connector-curvature="0"
     id="path848"
     d="m 12.14739,80.209735 c 0,37.833795 30.71142,68.545225 68.54519,68.545225 37.83379,0 68.54521,-30.71143 68.54522,-68.545225 0,-37.833768 -30.71143,-68.545183 -68.54522,-68.545192 -37.83377,0 -68.54519,30.711424 -68.54519,68.545192 z"
     style="fill:url(#linearGradient3884);fill-opacity:1;stroke:#000000;stroke-width:8.99690818999999919;stroke-opacity:0.50000000000000000"
     sodipodi:nodetypes="sssss" />
  <path
     style="fill:#020202;fill-opacity:1;fill-rule:evenodd;stroke:#000002;stroke-width:0.56451912pt;stroke-linecap:butt;stroke-linejoin:miter;stroke-opacity:1"
     d="M 27.375 65.34375 C 26.851046 65.62257 31.56227 68.598851 40.375 72.125 C 49.188302 75.651149 61.360819 84.588734 60.40625 86.03125 C 57.543688 89.949749 55.865954 94.628921 57.03125 102.65625 C 57.241404 104.06927 52.702562 106.5242 53.03125 108.65625 C 53.306111 110.27853 58.102764 107.04972 58.625 107.6875 C 58.944526 108.83227 56.05689 114.61719 57.21875 115.03125 C 58.068529 115.27668 65.534699 108.16215 65.96875 108.28125 C 78.288248 111.9009 94.314636 109.17714 94.625 109.0625 C 94.595796 108.99961 106.18254 114.32639 107.1875 113.6875 C 109.72252 111.01952 102.37005 107.25207 103.59375 105.75 C 104.1303 104.96363 112.52349 108.70817 112.9375 107.6875 C 113.53991 105.92053 109.05242 102.22414 108.375 101.125 C 107.78577 100.11157 107.64509 98.461507 109.15625 97.4375 C 110.66799 96.413492 126.14821 90.665393 125.5 86.21875 C 124.37937 78.139106 105.89209 77.617575 105.59375 76.9375 C 105.45346 76.618054 106.39243 65.393464 101 67.46875 C 97.679911 68.669733 100.37901 75.824498 100.59375 76.75 C 100.79188 77.602042 99.128017 77.498985 98.8125 77.125 C 98.108168 76.289098 95.774133 68.855177 93.03125 70.1875 C 89.184342 72.248872 92.82982 78.666302 92.0625 78.875 C 90.637231 79.649127 90.704891 81.553286 89.5625 83.09375 C 87.678557 85.71777 73.588216 81.861996 69.03125 81.59375 C 65.695125 81.402305 62.488702 84.057117 62.1875 83.71875 C 58.125284 79.765189 49.73852 72.880515 40.53125 70.59375 C 35.367873 69.23193 27.683073 65.29366 27.375 65.34375 z M 107.9375 80.4375 C 108.81891 80.4375 109.53125 81.243435 109.53125 82.21875 C 109.53125 83.194065 108.81891 83.96875 107.9375 83.96875 C 107.05609 83.96875 106.34375 83.194065 106.34375 82.21875 C 106.34375 81.243435 107.05609 80.4375 107.9375 80.4375 z M 104.34375 81.53125 C 105.02174 84.375654 106.10546 85.27821 109.28125 85.1875 C 105.23908 88.789893 102.757 82.621484 104.34375 81.53125 z M 112.90625 88.96875 C 113.15783 88.948919 113.35816 88.990515 113.46875 89.09375 C 115.06122 89.654728 106.61861 92.604338 106.5625 92.1875 C 106.4778 91.900194 111.14518 89.107564 112.90625 88.96875 z M 113.9375 90.84375 C 114.02466 90.837178 114.12315 90.842756 114.1875 90.875 C 115.69065 92.326419 109.42956 95.550475 109.5 95.4375 C 108.99537 95.14115 112.63005 90.942337 113.9375 90.84375 z "
     id="path14" />
  <path
     inkscape:connector-curvature="0"
     style="fill:#020202;fill-opacity:1;fill-rule:evenodd;stroke:#000000;stroke-width:0.33871145pt;stroke-linecap:butt;stroke-linejoin:miter;stroke-opacity:1"
     id="path13"
     d="m 126.03224,73.437144 c -0.51021,-0.410159 -4.51116,5.724983 -3.62645,6.361649 0.53197,0.386786 3.85435,-6.142934 3.62645,-6.361649 z" />
  <path
     inkscape:connector-curvature="0"
     style="fill:#020202;fill-opacity:1;fill-rule:evenodd;stroke:#000000;stroke-width:0.33871145pt;stroke-linecap:butt;stroke-linejoin:miter;stroke-opacity:1"
     id="path18"
     d="m 121.43284,72.577514 c -0.25253,-0.284941 -1.59248,6.326588 -0.97289,6.619321 0.53197,0.386785 1.45848,-6.275388 0.97289,-6.619321 z" />
  <path
     style="fill:#ffffff;fill-opacity:0.19724773;stroke:none"
     d="m 80.6875,11.65625 c -37.83377,0 -68.53125,30.728732 -68.53125,68.5625 0,21.46547 9.879907,40.61557 25.34375,53.1875 -1.277169,-1.57096 -2.488593,-3.19343 -3.625,-4.875 -1.232272,-1.82343 -2.381811,-3.71383 -3.4375,-5.65625 -1.055689,-1.94242 -2.038663,-3.95011 -2.90625,-6 -0.867587,-2.04989 -1.644533,-4.1354 -2.3125,-6.28125 -0.667967,-2.14585 -1.23067,-4.33221 -1.6875,-6.5625 -0.45683,-2.23029 -0.797076,-4.50929 -1.03125,-6.8125 -0.234174,-2.30321 -0.34375,-4.635388 -0.34375,-7 0,-2.36461 0.109576,-4.696792 0.34375,-7 0.234174,-2.303208 0.57442,-4.582212 1.03125,-6.8125 0.45683,-2.230288 1.019533,-4.416651 1.6875,-6.5625 0.667967,-2.145849 1.444913,-4.262608 2.3125,-6.3125 0.867587,-2.049892 1.850561,-4.026332 2.90625,-5.96875 1.055689,-1.942418 2.205228,-3.832825 3.4375,-5.65625 1.232272,-1.823425 2.540163,-3.588336 3.9375,-5.28125 1.397337,-1.692914 2.855365,-3.324115 4.40625,-4.875 1.550885,-1.550885 3.182086,-3.040163 4.875,-4.4375 1.692914,-1.397337 3.457825,-2.705228 5.28125,-3.9375 1.823425,-1.232272 3.713832,-2.381811 5.65625,-3.4375 1.942418,-1.055689 3.950108,-2.007413 6,-2.875 2.049892,-0.867587 4.135401,-1.644532 6.28125,-2.3125 2.145849,-0.667968 4.332212,-1.23067 6.5625,-1.6875 2.230288,-0.45683 4.509292,-0.797076 6.8125,-1.03125 2.303208,-0.234174 4.635389,-0.375 7,-0.375 2.364612,1e-6 4.696791,0.140826 7,0.375 2.30321,0.234174 4.58221,0.57442 6.8125,1.03125 2.23029,0.45683 4.41665,1.019532 6.5625,1.6875 2.14585,0.667968 4.26261,1.444913 6.3125,2.3125 2.04989,0.867587 4.02633,1.819311 5.96875,2.875 1.94242,1.055689 3.83282,2.205228 5.65625,3.4375 1.66253,1.12354 3.25804,2.332567 4.8125,3.59375 -12.57282,-15.424377 -31.69137,-25.312495 -53.125,-25.3125 z"
     id="path3096"
     inkscape:connector-curvature="0" />
  <path
     style="fill:#000000;fill-opacity:0.17431192;stroke:none;stroke-width:8.99690818999999919;stroke-opacity:0.50000000000000000"
     d="M 27.71875 123.6875 C 40.293803 138.99302 59.349918 148.75 80.6875 148.75 C 118.52129 148.75 149.24999 118.05254 149.25 80.21875 C 149.25 58.255229 138.83514 38.735328 122.75 26.1875 C 124.1311 27.864148 125.46809 29.57061 126.6875 31.375 C 127.91977 33.198425 129.06931 35.088833 130.125 37.03125 C 131.18069 38.973667 132.13241 40.981358 133 43.03125 C 133.86759 45.081142 134.64453 47.166651 135.3125 49.3125 C 135.98047 51.458349 136.54317 53.675962 137 55.90625 C 137.45683 58.136538 137.79708 60.384292 138.03125 62.6875 C 138.26542 64.990708 138.375 67.32289 138.375 69.6875 C 138.375 72.052112 138.26542 74.41554 138.03125 76.71875 C 137.79708 79.02196 137.45683 81.269711 137 83.5 C 136.54317 85.730289 135.98047 87.916649 135.3125 90.0625 C 134.64453 92.208351 133.86759 94.325106 133 96.375 C 132.13241 98.424894 131.18069 100.43258 130.125 102.375 C 129.06931 104.31742 127.91977 106.17657 126.6875 108 C 125.45523 109.82343 124.11609 111.58834 122.71875 113.28125 C 121.32141 114.97416 119.86338 116.60536 118.3125 118.15625 C 116.76162 119.70714 115.13041 121.19641 113.4375 122.59375 C 111.74459 123.99109 109.97968 125.29898 108.15625 126.53125 C 106.33282 127.76352 104.44242 128.91306 102.5 129.96875 C 100.55758 131.02444 98.581143 131.97616 96.53125 132.84375 C 94.481357 133.71134 92.3646 134.48828 90.21875 135.15625 C 88.0729 135.82422 85.886539 136.38692 83.65625 136.84375 C 81.425961 137.30058 79.146959 137.67208 76.84375 137.90625 C 74.540541 138.14042 72.208362 138.25 69.84375 138.25 C 67.479139 138.25 65.146958 138.14042 62.84375 137.90625 C 60.540542 137.67208 58.261538 137.30058 56.03125 136.84375 C 53.800962 136.38692 51.614599 135.82422 49.46875 135.15625 C 47.322901 134.48828 45.237392 133.71134 43.1875 132.84375 C 41.137608 131.97616 39.129918 131.02444 37.1875 129.96875 C 35.245082 128.91306 33.354675 127.76352 31.53125 126.53125 C 30.214717 125.64154 28.968082 124.6641 27.71875 123.6875 z "
     id="path3876" />
  <path
     inkscape:connector-curvature="0"
     id="path847"
     d="m 12.14739,80.209735 c 0,37.833795 30.71142,68.545225 68.54519,68.545225 37.83379,0 68.54521,-30.71143 68.54522,-68.545225 0,-37.833768 -30.71143,-68.545183 -68.54522,-68.545192 -37.83377,0 -68.54519,30.711424 -68.54519,68.545192 z"
     style="fill:#ffffff;fill-opacity:0;fill-rule:evenodd;stroke:#000000;stroke-width:4.49845409"
     sodipodi:nodetypes="sssss" />
</svg>
