<?xml version="1.0" encoding="UTF-8" standalone="no"?>
<!-- Created with Sodipodi ("http://www.sodipodi.com/") -->

<svg
   xmlns:dc="http://purl.org/dc/elements/1.1/"
   xmlns:cc="http://creativecommons.org/ns#"
   xmlns:rdf="http://www.w3.org/1999/02/22-rdf-syntax-ns#"
   xmlns:svg="http://www.w3.org/2000/svg"
   xmlns="http://www.w3.org/2000/svg"
   xmlns:xlink="http://www.w3.org/1999/xlink"
   xmlns:sodipodi="http://sodipodi.sourceforge.net/DTD/sodipodi-0.dtd"
   xmlns:inkscape="http://www.inkscape.org/namespaces/inkscape"
   id="svg559"
   sodipodi:version="0.32"
   width="128pt"
   height="128pt"
   sodipodi:docname="gnome-searchtool.svg"
   inkscape:version="0.48.0 r9654"
   version="1.1">
  <metadata
     id="metadata23">
    <rdf:RDF>
      <cc:Work
         rdf:about="">
        <dc:format>image/svg+xml</dc:format>
        <dc:type
           rdf:resource="http://purl.org/dc/dcmitype/StillImage" />
      </cc:Work>
    </rdf:RDF>
  </metadata>
  <defs
     id="defs561">
    <inkscape:perspective
       sodipodi:type="inkscape:persp3d"
       inkscape:vp_x="0 : 80 : 1"
       inkscape:vp_y="0 : 1000 : 0"
       inkscape:vp_z="160 : 80 : 1"
       inkscape:persp3d-origin="80 : 53.333333 : 1"
       id="perspective25" />
    <linearGradient
       id="linearGradient870">
      <stop
         style="stop-color:#ffffff;stop-opacity:1.0000000;"
         offset="0.0000000"
         id="stop871" />
      <stop
         style="stop-color:#efa08e;stop-opacity:1.0000000;"
         offset="0.27931297"
         id="stop843" />
      <stop
         style="stop-color:#df421e;stop-opacity:1.0000000;"
         offset="1.0000000"
         id="stop873" />
    </linearGradient>
    <linearGradient
       id="linearGradient832">
      <stop
         style="stop-color:#ffffff;stop-opacity:1.0000000;"
         offset="0.0000000"
         id="stop833" />
      <stop
         style="stop-color:#00b8df;stop-opacity:1.0000000;"
         offset="0.50000000"
         id="stop835" />
      <stop
         style="stop-color:#0058a9;stop-opacity:1.0000000;"
         offset="1.0000000"
         id="stop834" />
    </linearGradient>
    <linearGradient
       xlink:href="#linearGradient870"
       id="linearGradient839"
       x1="0.44607842"
       y1="0.46766168"
       x2="0.55882353"
       y2="0.58706468"
       spreadMethod="reflect" />
    <linearGradient
       inkscape:collect="always"
       xlink:href="#linearGradient2830"
       id="linearGradient2840"
       gradientTransform="scale(0.998875,1.001127)"
       x1="41.381039"
       y1="46.285152"
       x2="78.810638"
       y2="85.785439"
       gradientUnits="userSpaceOnUse" />
    <linearGradient
       inkscape:collect="always"
       xlink:href="#linearGradient2851"
       id="linearGradient2857"
       gradientTransform="scale(0.998853,1.001148)"
       x1="44.246502"
       y1="51.416485"
       x2="79.162498"
       y2="86.589195"
       gradientUnits="userSpaceOnUse" />
    <linearGradient
       xlink:href="#linearGradient870-2"
       id="linearGradient839-5"
       x1="0.44607842"
       y1="0.46766168"
       x2="0.55882353"
       y2="0.58706468"
       spreadMethod="reflect" />
    <linearGradient
       id="linearGradient832-9">
      <stop
         style="stop-color:#ffffff;stop-opacity:1.0000000;"
         offset="0.0000000"
         id="stop833-0" />
      <stop
         style="stop-color:#00b8df;stop-opacity:1.0000000;"
         offset="0.50000000"
         id="stop835-8" />
      <stop
         style="stop-color:#0058a9;stop-opacity:1.0000000;"
         offset="1.0000000"
         id="stop834-8" />
    </linearGradient>
    <linearGradient
       id="linearGradient870-2">
      <stop
         style="stop-color:#ffffff;stop-opacity:1.0000000;"
         offset="0.0000000"
         id="stop871-9" />
      <stop
         style="stop-color:#ff7f7f;stop-opacity:1.0000000;"
         offset="0.50000000"
         id="stop875" />
      <stop
         style="stop-color:#ff0000;stop-opacity:1.0000000;"
         offset="1.0000000"
         id="stop873-3" />
    </linearGradient>
    <linearGradient
       id="linearGradient2851">
      <stop
         style="stop-color:#ffffff;stop-opacity:1.0000000;"
         offset="0.0000000"
         id="stop2853" />
      <stop
         style="stop-color:#ffffff;stop-opacity:0.0000000;"
         offset="1.0000000"
         id="stop2855" />
    </linearGradient>
    <linearGradient
       id="linearGradient2830">
      <stop
         style="stop-color:#ffffff;stop-opacity:1.0000000;"
         offset="0.0000000"
         id="stop2832" />
      <stop
         style="stop-color:#ffffff;stop-opacity:0.0000000;"
         offset="1.0000000"
         id="stop2834" />
    </linearGradient>
  </defs>
  <sodipodi:namedview
     id="base"
     showgrid="false"
     snaptogrid="false"
     inkscape:zoom="0.5977262"
     inkscape:cx="103.3134"
     inkscape:cy="92.248196"
     inkscape:window-width="913"
     inkscape:window-height="747"
     inkscape:window-x="200"
     inkscape:window-y="28"
     pagecolor="#ffffff"
     inkscape:pageopacity="0"
     inkscape:window-maximized="0"
     inkscape:current-layer="svg559"
     inkscape:snap-grids="false">
    <inkscape:grid
       id="GridFromPre046Settings"
       type="xygrid"
       originx="0px"
       originy="0px"
       spacingx="1mm"
       spacingy="1mm"
       color="#0000ff"
       empcolor="#0000ff"
       opacity="0.2"
       empopacity="0.4"
       empspacing="5"
       units="mm"
       visible="true"
       enabled="true"
       snapvisiblegridlinesonly="true" />
  </sodipodi:namedview>
  <g
     id="g3041"
     transform="translate(-2.3145713,0.23861302)">
    <path
       style="fill:#b39169;fill-opacity:1;fill-rule:evenodd;stroke:#000000;stroke-width:3.75;stroke-linecap:butt;stroke-miterlimit:4;stroke-opacity:0.44129555;stroke-dasharray:none;stroke-dashoffset:0"
       d="m 94.0625,9.9375 -10.75,15.59375 -2.75,-5.65625 -3.65625,7.25 -12.09375,-16.75 -5.75,19.21875 -17.8125,-9.25 3.375,19.21875 -6.46875,-2.21875 2.40625,7.1875 L 20.75,41.25 l 9.625,18.0625 -19.5625,6.28125 15.9375,11.0625 -6,3.03125 6.875,3.34375 -16.375,11.84375 19.1875,5.71875 -9.25,17.875 L 40.875,115 38.5625,121.90625 44.53125,119.8125 41.25,138.53125 59.96875,128.84375 66.4375,148.875 77.5,132.90625 l 3.0625,6.0625 3,-6.1875 11.25,15.96875 6,-19.1875 17.65625,9.40625 -3.34375,-20.375 7.65625,2.5 -2.34375,-6.6875 19.375,3.21875 -9.34375,-17.5625 18.96875,-5.90625 -16.40625,-11.625 6.78125,-3.375 L 132.96875,75.8125 149.3125,64 130.09375,58.21875 139.375,40.375 119.65625,43.875 121.9375,36.9375 115.25,39.25 118.46875,19.875 100.375,29.53125 94.0625,9.9375 z M 79.25,50.21875 c 16.840675,-10e-7 30.5,13.659322 30.5,30.5 0,16.840675 -13.659322,30.5 -30.5,30.5 -16.840681,0 -30.5,-13.659322 -30.5,-30.5 -10e-7,-16.840681 13.659322,-30.5 30.5,-30.5 z"
       id="path1306"
       inkscape:connector-curvature="0" />
    <path
       style="fill:#b39169;fill-opacity:1;fill-rule:evenodd;stroke:#000000;stroke-width:2.31577086;stroke-linecap:butt;stroke-miterlimit:4;stroke-opacity:1;stroke-dashoffset:0"
       d="m 94.0625,9.9375 -10.75,15.59375 -2.75,-5.65625 -3.65625,7.25 -12.09375,-16.75 -5.75,19.21875 -17.8125,-9.25 3.375,19.21875 -6.46875,-2.21875 2.40625,7.1875 L 20.75,41.25 l 9.625,18.0625 -19.5625,6.28125 15.9375,11.0625 -6,3.03125 6.875,3.34375 -16.375,11.84375 19.1875,5.71875 -9.25,17.875 L 40.875,115 38.5625,121.90625 44.53125,119.8125 41.25,138.53125 59.96875,128.84375 66.4375,148.875 77.5,132.90625 l 3.0625,6.0625 3,-6.1875 11.25,15.96875 6,-19.1875 17.65625,9.40625 -3.34375,-20.375 7.65625,2.5 -2.34375,-6.6875 19.375,3.21875 -9.34375,-17.5625 18.96875,-5.90625 -16.40625,-11.625 6.78125,-3.375 L 132.96875,75.8125 149.3125,64 130.09375,58.21875 139.375,40.375 119.65625,43.875 121.9375,36.9375 115.25,39.25 118.46875,19.875 100.375,29.53125 94.0625,9.9375 z M 79.25,50.21875 c 16.840675,-10e-7 30.5,13.659322 30.5,30.5 0,16.840675 -13.659322,30.5 -30.5,30.5 -16.840681,0 -30.5,-13.659322 -30.5,-30.5 -10e-7,-16.840681 13.659322,-30.5 30.5,-30.5 z"
       id="path1308"
       inkscape:connector-curvature="0" />
    <path
       style="fill:url(#linearGradient2840);fill-opacity:1;fill-rule:evenodd;stroke:none"
       d="M 92.318617,18.476222 82.861382,32.19471 80.44209,27.218666 77.225531,33.5968 66.586142,18.861109 l -5.05852,16.907556 -15.670418,-8.137621 2.969132,16.907557 -5.690836,-1.95193 2.116881,6.323151 -17.429902,-2.886656 8.467523,15.890353 -17.209967,5.525884 14.020899,9.732154 -5.278455,2.66672 6.04823,2.94164 -14.405787,10.419452 16.880064,5.03103 -8.13762,15.725391 17.319935,-3.0516 -2.034405,6.07572 5.250964,-1.84196 -2.886656,16.46768 16.467685,-8.5225 5.690835,17.62234 9.732154,-14.04839 2.694212,5.33344 2.639229,-5.44341 9.897105,14.0484 5.278455,-16.88007 15.532921,8.27508 -2.94164,-17.92476 6.73553,2.19936 -2.0619,-5.88328 17.04502,2.83167 -8.2201,-15.450474 16.68762,-5.195982 -14.43328,-10.227008 5.96576,-2.969132 -6.02074,-2.94164 14.37829,-10.391961 -16.90755,-5.086012 8.16511,-15.69791 -17.34743,3.0791 2.00692,-6.103215 -5.88329,2.034405 2.83168,-17.045015 -15.917808,8.495015 -5.553375,-17.237459 z m -13.03119,35.437137 c 14.815462,-10e-7 26.832113,12.016689 26.832113,26.832153 0,14.815461 -12.016648,26.832148 -26.832113,26.832148 -14.815466,0 -26.832153,-12.016684 -26.832153,-26.832148 -1e-6,-14.815467 12.01669,-26.832153 26.832153,-26.832153 z"
       id="path2070"
       inkscape:connector-curvature="0" />
    <path
       style="fill:#ffffff;fill-opacity:0.35222671;fill-rule:evenodd;stroke:none"
       d="m 45.857204,131.60563 16.467685,-8.5225 5.690835,17.62234 9.732154,-14.04839 2.694212,5.33344 2.639229,-5.44341 9.897105,14.0484 5.278455,-16.88007 15.532921,8.27508 -2.94164,-17.92476 6.73553,2.19936 -2.0619,-5.88328 17.04502,2.83167 -8.2201,-15.450474 16.68762,-5.195982 -14.43328,-10.227008 5.96576,-2.969132 -6.02074,-2.94164 14.37829,-10.391961 -16.90755,-5.086012 8.16511,-15.69791 -86.324716,86.352239 z M 106.11954,80.745512 c 0,14.815461 -12.016648,26.832148 -26.832113,26.832148 -14.815466,0 26.832113,-41.647612 26.832113,-26.832148 z"
       id="path2842"
       sodipodi:nodetypes="ccccccccccccccccccccccccc"
       inkscape:connector-curvature="0" />
  </g>
  <path
     sodipodi:type="arc"
     style="fill-rule:evenodd;stroke:#000000;stroke-width:7.3654919;stroke-dasharray:none;fill:none;fill-opacity:0.0000000;stroke-opacity:0.50331128;"
     id="path848"
     sodipodi:cx="115.99770"
     sodipodi:cy="47.864128"
     sodipodi:rx="41.621861"
     sodipodi:ry="43.481258"
     d="M 157.61956 47.864128 A 41.621861 43.481258 0 1 0 74.375843,47.864128 A 41.621861 43.481258 0 1 0 157.61956 47.864128 z"
     transform="matrix(0.996963,0.000000,0.000000,0.992957,-5.978828,6.201832)" />
  <path
     style="fill-opacity:0.36774191;fill-rule:evenodd;stroke:#000000;stroke-width:3.7229362;stroke-opacity:0.47096774;"
     d="M 92.237206,95.454273 L 30.200626,155.76267 C 24.678788,153.73345 18.392572,155.75446 12.492755,150.00259 C 6.5929492,144.25073 7.8366594,137.60678 6.6013719,132.75521 L 68.637956,72.446815 C 74.537769,78.198681 86.337393,89.702408 92.237206,95.454273 z "
     id="path837"
     sodipodi:nodetypes="cccccc" />
  <path
     sodipodi:type="arc"
     style="fill-rule:evenodd;stroke:#000000;stroke-width:7.3654919;stroke-dasharray:none;fill:#000000;fill-opacity:0.0000000;"
     id="path840"
     sodipodi:cx="115.99770"
     sodipodi:cy="47.864128"
     sodipodi:rx="41.621861"
     sodipodi:ry="43.481258"
     d="M 157.61956 47.864128 A 41.621861 43.481258 0 1 0 74.375843,47.864128 A 41.621861 43.481258 0 1 0 157.61956 47.864128 z"
     transform="matrix(0.996963,0.000000,0.000000,0.992957,-8.214957,3.406660)" />
  <path
     style="fill:url(#linearGradient839);fill-rule:evenodd;stroke:#000000;stroke-width:3.6641786;stroke-linejoin:round;"
     d="M 89.136633,92.367711 L 28.458051,152.09493 C 25.572720,149.24671 16.908482,152.08680 11.137821,146.39036 C 5.3671496,140.69393 8.2607270,132.15741 5.3753964,129.30920 L 66.053979,69.581964 C 71.824643,75.278401 83.365970,86.671272 89.136633,92.367711 z "
     id="path866"
     sodipodi:nodetypes="cccccc" />
  <path
     sodipodi:type="arc"
     style="fill-rule:evenodd;stroke:none;stroke-width:1.0000000pt;fill:#ffffff;fill-opacity:1.0000000;"
     id="path849"
     sodipodi:cx="12.729710"
     sodipodi:cy="16.969549"
     sodipodi:rx="13.873954"
     sodipodi:ry="17.449715"
     d="M 26.603663 16.969549 A 13.873954 17.449715 0 1 0 -1.1442442,16.969549 A 13.873954 17.449715 0 1 0 26.603663 16.969549 z"
     transform="matrix(0.735196,0.643613,-0.643613,0.735196,103.3228,15.31530)" />
</svg>
