<?xml version="1.0" encoding="UTF-8" standalone="no"?>
<!-- Created with Inkscape (http://www.inkscape.org/) -->
<svg
   xmlns:dc="http://purl.org/dc/elements/1.1/"
   xmlns:cc="http://web.resource.org/cc/"
   xmlns:rdf="http://www.w3.org/1999/02/22-rdf-syntax-ns#"
   xmlns:svg="http://www.w3.org/2000/svg"
   xmlns="http://www.w3.org/2000/svg"
   xmlns:xlink="http://www.w3.org/1999/xlink"
   xmlns:sodipodi="http://inkscape.sourceforge.net/DTD/sodipodi-0.dtd"
   xmlns:inkscape="http://www.inkscape.org/namespaces/inkscape"
   sodipodi:docname="gnome-mime-application-x-reject.svg"
   sodipodi:docbase="/home/francois/Rodent/scalable/mimetypes"
   height="128.00000pt"
   width="128.00000pt"
   inkscape:version="0.41"
   sodipodi:version="0.32"
   id="svg1">
  <metadata
     id="metadata15">
    <rdf:RDF
       id="RDF17">
      <cc:Work
         id="Work19"
         rdf:about="">
        <dc:format
           id="format21">image/svg+xml</dc:format>
        <dc:type
           rdf:resource="http://purl.org/dc/dcmitype/StillImage"
           id="type23" />
      </cc:Work>
    </rdf:RDF>
  </metadata>
  <defs
     id="defs3">
    <linearGradient
       id="linearGradient839">
      <stop
         id="stop840"
         offset="0.0000000"
         style="stop-color:#46a046;stop-opacity:1.0000000;" />
      <stop
         id="stop841"
         offset="0.39364964"
         style="stop-color:#df421e;stop-opacity:1.0000000;" />
      <stop
         id="stop842"
         offset="0.72036445"
         style="stop-color:#ada7c8;stop-opacity:1.0000000;" />
      <stop
         id="stop843"
         offset="1.0000000"
         style="stop-color:#eed680;stop-opacity:1.0000000;" />
    </linearGradient>
    <linearGradient
       y2="0.50000000"
       x2="1.0000000"
       y1="0.50000000"
       x1="1.3267924e-17"
       id="linearGradient836"
       xlink:href="#linearGradient839" />
  </defs>
  <sodipodi:namedview
     inkscape:current-layer="svg1"
     inkscape:window-y="34"
     inkscape:window-x="0"
     gridspacingy="1.0000000mm"
     gridspacingx="1.0000000mm"
     snaptogrid="true"
     showgrid="true"
     inkscape:window-height="653"
     inkscape:window-width="751"
     inkscape:cy="80.000000"
     inkscape:cx="80.000000"
     inkscape:zoom="2.9625000"
     inkscape:pageshadow="2"
     inkscape:pageopacity="0.0"
     borderopacity="1.0"
     bordercolor="#666666"
     pagecolor="#ffffff"
     id="base" />
  <rect
     rx="22.892691"
     ry="22.892691"
     y="13.268111"
     x="19.671268"
     height="135.72780"
     width="119.82265"
     id="rect834"
     style="stroke-miterlimit:4.0000000;stroke-dasharray:none;stroke-opacity:0.49999997;stroke-linejoin:round;stroke-width:7.5000000;stroke:#000000;fill-rule:evenodd;fill:none" />
  <rect
     rx="22.892691"
     ry="22.892691"
     y="13.268110"
     x="19.734472"
     height="135.72780"
     width="119.82265"
     id="rect828"
     style="stroke-miterlimit:4.0000000;stroke-dasharray:none;stroke-width:3.7500000;stroke:#000000;fill-rule:evenodd;fill:#ffffff" />
  <path
     id="path1304"
     d="M 110.44286,38.767143 C 110.39426,36.607213 109.52639,34.484031 107.86590,32.914658 C 104.54494,29.775911 99.317419,30.060256 96.145412,33.541710 L 80.016158,51.243871 L 63.607465,33.429162 C 60.416863,29.965989 55.273595,29.805036 52.073256,33.075441 C 48.872922,36.345844 48.867131,41.767429 52.057732,45.230603 L 68.870045,63.479424 L 51.964590,82.033738 C 48.792585,85.515189 48.907532,90.841124 52.228494,93.979868 C 55.549463,97.118622 60.776986,96.850353 63.948990,93.368899 L 80.093778,75.650664 L 96.502465,93.465370 C 99.693069,96.928543 104.83633,97.089500 108.03667,93.819097 C 111.23701,90.548687 111.24280,85.127100 108.05219,81.663936 L 91.239887,63.415111 L 108.14533,44.876881 C 109.73134,43.136154 110.49147,40.927073 110.44286,38.767143 z "
     style="fill:#000000;fill-opacity:1.0000000;fill-rule:evenodd;stroke:#000000;stroke-width:5.0555563;stroke-opacity:1.0000000" />
  <path
     id="path855"
     d="M 108.57430,36.898587 C 108.52570,34.738657 107.65783,32.615475 105.99735,31.046102 C 102.67638,27.907354 97.448861,28.191700 94.276859,31.673154 L 78.147602,49.375315 L 61.738909,31.560606 C 58.548307,28.097432 53.405039,27.936480 50.204700,31.206885 C 47.004366,34.477288 46.998574,39.898873 50.189176,43.362047 L 67.001488,61.610867 L 50.096034,80.165181 C 46.924029,83.646633 47.038976,88.972568 50.359938,92.111312 C 53.680907,95.250066 58.908429,94.981797 62.080433,91.500343 L 78.225222,73.782108 L 94.633905,91.596814 C 97.824515,95.059987 102.96777,95.220944 106.16811,91.950541 C 109.36846,88.680130 109.37424,83.258543 106.18363,79.795380 L 89.371331,61.546554 L 106.27677,43.008325 C 107.86278,41.267598 108.62291,39.058517 108.57430,36.898587 z "
     style="fill:#df421e;fill-rule:evenodd;stroke:#df421e;stroke-width:5.0555563" />
  <path
     id="path1300"
     d="M 97.457316,134.99014 L 97.457316,130.01978 L 105.60421,130.01978 C 106.57586,130.01978 107.38556,129.89520 108.03334,129.64607 C 108.35721,129.54641 108.68110,129.39692 109.00498,129.19761 L 109.52818,128.82390 L 110.05138,128.33808 L 110.79880,127.47854 L 111.32199,126.46952 C 111.42164,126.09581 111.50885,125.69718 111.58359,125.27364 C 111.65833,124.85010 111.69571,124.43902 111.69571,124.04040 L 111.69571,105.91540 L 117.89931,105.91540 L 117.89931,124.45148 C 117.89931,126.22038 117.66262,127.80242 117.18926,129.19761 C 116.71589,130.56788 115.98092,131.67656 114.98436,132.52364 C 114.11237,133.29597 113.06597,133.91883 111.84519,134.39220 L 109.93926,134.84065 L 107.77174,134.99014 L 97.457316,134.99014 z M 94.467616,122.84452 L 77.389012,122.84452 L 77.389012,123.03138 L 77.837465,125.31102 C 78.211177,126.50689 78.846486,127.57819 79.743393,128.52493 C 79.942706,128.67442 80.129562,128.79898 80.303960,128.89864 C 80.627843,129.09795 81.076297,129.33463 81.649320,129.60869 L 82.845196,129.90766 L 84.452154,130.01978 L 94.467616,130.01978 L 94.467616,134.99014 L 82.695712,134.99014 C 78.759287,134.99014 75.732226,133.74443 73.614528,131.25302 C 71.521745,128.73670 70.475354,125.13661 70.475354,120.45277 C 70.475354,115.71909 71.521745,112.11901 73.614528,109.65251 C 75.707311,107.16110 78.734372,105.91540 82.695712,105.91540 L 94.467616,105.91540 L 94.467616,110.92313 L 84.452154,110.92313 L 83.742103,110.92313 L 83.032052,110.99787 C 82.533770,110.99787 82.010575,111.12244 81.462465,111.37159 C 80.939269,111.62072 80.366245,111.96952 79.743393,112.41798 C 79.145455,113.01592 78.622259,113.80071 78.173806,114.77236 C 77.899751,115.42012 77.638153,116.45406 77.389012,117.87416 L 77.389012,118.06102 L 94.467616,118.06102 L 94.467616,122.84452 z M 53.994688,123.55457 L 47.305257,123.55457 L 47.305257,134.99014 L 41.026908,134.99014 L 41.026908,105.91540 L 57.881285,105.91540 C 60.671663,105.91540 62.801817,106.60054 64.271747,107.97081 C 65.891163,109.46566 66.700870,111.72038 66.700870,114.73499 C 66.700870,115.90595 66.601215,116.92742 66.401901,117.79942 C 66.202589,118.64649 65.866249,119.43129 65.392881,120.15380 C 64.545803,121.47424 63.175528,122.47081 61.282057,123.14349 L 61.132573,123.18086 L 67.485664,134.99014 L 60.086181,134.99014 L 53.994688,123.55457 z M 47.305257,110.92313 L 47.305257,118.99530 L 54.629997,118.99530 C 56.075014,118.99530 57.158777,118.72123 57.881285,118.17313 C 58.803106,117.55028 59.264017,116.47897 59.264017,114.95921 C 59.264017,113.53911 58.828021,112.51763 57.956027,111.89478 C 57.108949,111.24701 56.000272,110.92313 54.629997,110.92313 L 47.305257,110.92313 z "
     style="font-size:40.000000;fill:#ffffff;fill-opacity:1.0000000;stroke-width:1.0000000pt;font-family:Trek" />
  <path
     id="path872"
     d="M 98.090719,135.62354 L 98.090719,130.65318 L 106.23762,130.65318 C 107.20926,130.65318 108.01897,130.52860 108.66674,130.27947 C 108.99062,130.17981 109.31450,130.03032 109.63839,129.83102 L 110.16158,129.45730 L 110.68478,128.97148 L 111.43220,128.11194 L 111.95540,127.10292 C 112.05505,126.72921 112.14225,126.33058 112.21700,125.90705 C 112.29174,125.48350 112.32911,125.07242 112.32911,124.67380 L 112.32911,106.54880 L 118.53272,106.54880 L 118.53272,125.08488 C 118.53272,126.85378 118.29603,128.43582 117.82266,129.83102 C 117.34929,131.20128 116.61432,132.30996 115.61777,133.15705 C 114.74577,133.92938 113.69938,134.55223 112.47859,135.02560 L 110.57267,135.47406 L 108.40514,135.62354 L 98.090719,135.62354 z M 95.101025,123.47792 L 78.022421,123.47792 L 78.022421,123.66478 L 78.470874,125.94442 C 78.844585,127.14029 79.479895,128.21159 80.376802,129.15834 C 80.576115,129.30782 80.762970,129.43239 80.937368,129.53205 C 81.261252,129.73136 81.709705,129.96804 82.282729,130.24210 L 83.478605,130.54107 L 85.085563,130.65318 L 95.101025,130.65318 L 95.101025,135.62354 L 83.329120,135.62354 C 79.392696,135.62354 76.365635,134.37783 74.247937,131.88643 C 72.155154,129.37010 71.108763,125.77002 71.108763,121.08617 C 71.108763,116.35249 72.155154,112.75241 74.247937,110.28592 C 76.340720,107.79451 79.367781,106.54880 83.329120,106.54880 L 95.101025,106.54880 L 95.101025,111.55654 L 85.085563,111.55654 L 84.375512,111.55654 L 83.665461,111.63128 C 83.167179,111.63128 82.643983,111.75584 82.095873,112.00499 C 81.572678,112.25412 80.999654,112.60293 80.376802,113.05138 C 79.778864,113.64932 79.255668,114.43411 78.807214,115.40576 C 78.533160,116.05352 78.271562,117.08746 78.022421,118.50756 L 78.022421,118.69442 L 95.101025,118.69442 L 95.101025,123.47792 z M 54.628097,124.18798 L 47.938665,124.18798 L 47.938665,135.62354 L 41.660317,135.62354 L 41.660317,106.54880 L 58.514694,106.54880 C 61.305071,106.54880 63.435225,107.23394 64.905156,108.60422 C 66.524572,110.09906 67.334279,112.35378 67.334279,115.36839 C 67.334279,116.53935 67.234623,117.56082 67.035310,118.43282 C 66.835998,119.27989 66.499658,120.06469 66.026290,120.78720 C 65.179212,122.10765 63.808937,123.10421 61.915466,123.77689 L 61.765982,123.81426 L 68.119073,135.62354 L 60.719590,135.62354 L 54.628097,124.18798 z M 47.938665,111.55654 L 47.938665,119.62870 L 55.263406,119.62870 C 56.708423,119.62870 57.792186,119.35464 58.514694,118.80653 C 59.436515,118.18368 59.897425,117.11237 59.897425,115.59262 C 59.897425,114.17251 59.461430,113.15103 58.589436,112.52818 C 57.742358,111.88041 56.633681,111.55654 55.263406,111.55654 L 47.938665,111.55654 z "
     style="font-size:40.000000;stroke-width:1.0000000pt;font-family:Trek" />
</svg>
