<?xml version="1.0" encoding="UTF-8" standalone="no"?>
<!-- Created with Inkscape (http://www.inkscape.org/) -->
<svg
   xmlns:dc="http://purl.org/dc/elements/1.1/"
   xmlns:cc="http://web.resource.org/cc/"
   xmlns:rdf="http://www.w3.org/1999/02/22-rdf-syntax-ns#"
   xmlns:svg="http://www.w3.org/2000/svg"
   xmlns="http://www.w3.org/2000/svg"
   xmlns:xlink="http://www.w3.org/1999/xlink"
   xmlns:sodipodi="http://inkscape.sourceforge.net/DTD/sodipodi-0.dtd"
   xmlns:inkscape="http://www.inkscape.org/namespaces/inkscape"
   sodipodi:docname="gnome-mime-application-x-gnucash.svg"
   sodipodi:docbase="/home/francois/Rodent/scalable/mimetypes"
   height="128.00000pt"
   width="128.00000pt"
   inkscape:version="0.41"
   sodipodi:version="0.32"
   id="svg1">
  <metadata
     id="metadata15">
    <rdf:RDF
       id="RDF17">
      <cc:Work
         id="Work19"
         rdf:about="">
        <dc:format
           id="format21">image/svg+xml</dc:format>
        <dc:type
           rdf:resource="http://purl.org/dc/dcmitype/StillImage"
           id="type23" />
      </cc:Work>
    </rdf:RDF>
  </metadata>
  <defs
     id="defs3">
    <linearGradient
       id="linearGradient3587">
      <stop
         style="stop-color:#efe0cd;stop-opacity:0.56097561;"
         offset="0.0000000"
         id="stop3589" />
      <stop
         style="stop-color:#cececd;stop-opacity:0.21951219;"
         offset="1.0000000"
         id="stop3591" />
    </linearGradient>
    <linearGradient
       id="linearGradient2832">
      <stop
         id="stop2834"
         offset="0.0000000"
         style="stop-color:#ffffff;stop-opacity:1.0000000;" />
      <stop
         id="stop2836"
         offset="1.0000000"
         style="stop-color:#ffffff;stop-opacity:0.0000000;" />
    </linearGradient>
    <linearGradient
       id="linearGradient839">
      <stop
         id="stop840"
         offset="0.0000000"
         style="stop-color:#46a046;stop-opacity:1.0000000;" />
      <stop
         id="stop841"
         offset="0.39364964"
         style="stop-color:#df421e;stop-opacity:1.0000000;" />
      <stop
         id="stop842"
         offset="0.72036445"
         style="stop-color:#ada7c8;stop-opacity:1.0000000;" />
      <stop
         id="stop843"
         offset="1.0000000"
         style="stop-color:#eed680;stop-opacity:1.0000000;" />
    </linearGradient>
    <linearGradient
       y2="0.50000000"
       x2="1.0000000"
       y1="0.50000000"
       x1="1.3267924e-17"
       id="linearGradient836"
       xlink:href="#linearGradient839" />
    <linearGradient
       gradientUnits="userSpaceOnUse"
       y2="73.398720"
       x2="72.999245"
       y1="16.369013"
       x1="23.983805"
       gradientTransform="matrix(0.939922,0.000000,0.000000,0.896911,4.950743,6.511692)"
       id="linearGradient2830"
       xlink:href="#linearGradient2832"
       inkscape:collect="always" />
    <linearGradient
       inkscape:collect="always"
       xlink:href="#linearGradient1700"
       id="linearGradient1407"
       gradientUnits="userSpaceOnUse"
       gradientTransform="matrix(0.777129,0.000000,0.000000,0.894628,-162.4688,12.76856)"
       x1="111.32588"
       y1="124.28045"
       x2="107.31592"
       y2="93.732185" />
    <linearGradient
       inkscape:collect="always"
       xlink:href="#linearGradient1700"
       id="linearGradient1390"
       gradientUnits="userSpaceOnUse"
       gradientTransform="matrix(0.777129,0.000000,0.000000,0.894628,-2.922179,10.43077)"
       x1="111.32588"
       y1="124.28045"
       x2="107.31592"
       y2="93.732185" />
    <linearGradient
       id="linearGradient1350">
      <stop
         id="stop1352"
         offset="0.0000000"
         style="stop-color:#46a046;stop-opacity:1.0000000;" />
      <stop
         id="stop1354"
         offset="0.39364964"
         style="stop-color:#df421e;stop-opacity:1.0000000;" />
      <stop
         id="stop1356"
         offset="0.72036445"
         style="stop-color:#ada7c8;stop-opacity:1.0000000;" />
      <stop
         id="stop1358"
         offset="1.0000000"
         style="stop-color:#eed680;stop-opacity:1.0000000;" />
    </linearGradient>
    <linearGradient
       y2="0.50000000"
       x2="1.0000000"
       y1="0.50000000"
       x1="1.3267924e-17"
       id="linearGradient1360"
       xlink:href="#linearGradient839" />
    <linearGradient
       gradientUnits="userSpaceOnUse"
       y2="87.980263"
       x2="128.66997"
       y1="121.73159"
       x1="123.50353"
       gradientTransform="matrix(0.870364,0.000000,0.000000,1.001961,4.612015,4.886798)"
       id="linearGradient1362"
       xlink:href="#linearGradient1700"
       inkscape:collect="always" />
    <linearGradient
       y2="0.50000000"
       x2="1.0000000"
       y1="0.50000000"
       x1="1.3267924e-17"
       id="linearGradient1363"
       xlink:href="#linearGradient839" />
    <linearGradient
       id="linearGradient1353">
      <stop
         id="stop1355"
         offset="0.0000000"
         style="stop-color:#46a046;stop-opacity:1.0000000;" />
      <stop
         id="stop1357"
         offset="0.39364964"
         style="stop-color:#df421e;stop-opacity:1.0000000;" />
      <stop
         id="stop1359"
         offset="0.72036445"
         style="stop-color:#ada7c8;stop-opacity:1.0000000;" />
      <stop
         id="stop1361"
         offset="1.0000000"
         style="stop-color:#eed680;stop-opacity:1.0000000;" />
    </linearGradient>
    <linearGradient
       id="linearGradient1700">
      <stop
         id="stop1701"
         offset="0.0000000"
         style="stop-color:#000000;stop-opacity:0.69918698;" />
      <stop
         id="stop1702"
         offset="1"
         style="stop-color:#000000;stop-opacity:0;" />
    </linearGradient>
    <linearGradient
       xlink:href="#linearGradient839"
       id="linearGradient1427"
       x1="1.3267924e-17"
       y1="0.50000000"
       x2="1.0000000"
       y2="0.50000000" />
    <linearGradient
       id="linearGradient1417">
      <stop
         style="stop-color:#46a046;stop-opacity:1.0000000;"
         offset="0.0000000"
         id="stop1419" />
      <stop
         style="stop-color:#df421e;stop-opacity:1.0000000;"
         offset="0.39364964"
         id="stop1421" />
      <stop
         style="stop-color:#ada7c8;stop-opacity:1.0000000;"
         offset="0.72036445"
         id="stop1423" />
      <stop
         style="stop-color:#eed680;stop-opacity:1.0000000;"
         offset="1.0000000"
         id="stop1425" />
    </linearGradient>
    <linearGradient
       y2="0.50000000"
       x2="1.0000000"
       y1="0.50000000"
       x1="1.3267924e-17"
       id="linearGradient1381"
       xlink:href="#linearGradient839" />
    <linearGradient
       id="linearGradient1371">
      <stop
         id="stop1373"
         offset="0.0000000"
         style="stop-color:#46a046;stop-opacity:1.0000000;" />
      <stop
         id="stop1375"
         offset="0.39364964"
         style="stop-color:#df421e;stop-opacity:1.0000000;" />
      <stop
         id="stop1377"
         offset="0.72036445"
         style="stop-color:#ada7c8;stop-opacity:1.0000000;" />
      <stop
         id="stop1379"
         offset="1.0000000"
         style="stop-color:#eed680;stop-opacity:1.0000000;" />
    </linearGradient>
    <linearGradient
       xlink:href="#linearGradient839"
       id="linearGradient1374"
       x1="1.3267924e-17"
       y1="0.50000000"
       x2="1.0000000"
       y2="0.50000000" />
    <linearGradient
       id="linearGradient1364">
      <stop
         style="stop-color:#46a046;stop-opacity:1.0000000;"
         offset="0.0000000"
         id="stop1366" />
      <stop
         style="stop-color:#df421e;stop-opacity:1.0000000;"
         offset="0.39364964"
         id="stop1368" />
      <stop
         style="stop-color:#ada7c8;stop-opacity:1.0000000;"
         offset="0.72036445"
         id="stop1370" />
      <stop
         style="stop-color:#eed680;stop-opacity:1.0000000;"
         offset="1.0000000"
         id="stop1372" />
    </linearGradient>
    <linearGradient
       xlink:href="#linearGradient839"
       id="linearGradient1389"
       x1="1.3267924e-17"
       y1="0.50000000"
       x2="1.0000000"
       y2="0.50000000" />
    <linearGradient
       id="linearGradient833">
      <stop
         style="stop-color:#00ff00;stop-opacity:1.0000000;"
         offset="0.0000000"
         id="stop834" />
      <stop
         style="stop-color:#ff0000;stop-opacity:1.0000000;"
         offset="0.30839416"
         id="stop837" />
      <stop
         style="stop-color:#7f8cff;stop-opacity:1.0000000;"
         offset="0.75000000"
         id="stop838" />
      <stop
         style="stop-color:#ffff00;stop-opacity:1.0000000;"
         offset="1.0000000"
         id="stop835" />
    </linearGradient>
    <linearGradient
       id="linearGradient1373">
      <stop
         style="stop-color:#46a046;stop-opacity:1.0000000;"
         offset="0.0000000"
         id="stop1376" />
      <stop
         style="stop-color:#df421e;stop-opacity:1.0000000;"
         offset="0.39364964"
         id="stop1378" />
      <stop
         style="stop-color:#ada7c8;stop-opacity:1.0000000;"
         offset="0.72036445"
         id="stop1380" />
      <stop
         style="stop-color:#eed680;stop-opacity:1.0000000;"
         offset="1.0000000"
         id="stop1382" />
    </linearGradient>
  </defs>
  <sodipodi:namedview
     inkscape:current-layer="svg1"
     inkscape:window-y="34"
     inkscape:window-x="0"
     gridspacingy="1.0000000mm"
     gridspacingx="1.0000000mm"
     snaptogrid="false"
     showgrid="true"
     inkscape:window-height="653"
     inkscape:window-width="756"
     inkscape:cy="75.932203"
     inkscape:cx="60.338983"
     inkscape:zoom="2.9500000"
     inkscape:pageshadow="2"
     inkscape:pageopacity="0.0"
     borderopacity="1.0"
     bordercolor="#666666"
     pagecolor="#ffffff"
     id="base" />
  <rect
     rx="22.892691"
     ry="22.892691"
     y="13.614116"
     x="20.782476"
     height="133.38696"
     width="117.75612"
     id="rect834"
     style="stroke-miterlimit:4.0000000;stroke-dasharray:none;stroke-opacity:0.49999997;stroke-linejoin:round;stroke-width:7.5000000;stroke:#000000;fill-rule:evenodd;fill:none" />
  <rect
     rx="22.892691"
     ry="22.892691"
     y="13.524447"
     x="20.643702"
     height="133.38696"
     width="117.75612"
     id="rect828"
     style="fill:#bab5ab;fill-opacity:1.0000000;fill-rule:evenodd;stroke:#000000;stroke-width:3.7500000;stroke-dasharray:none;stroke-miterlimit:4.0000000" />
  <path
     sodipodi:nodetypes="cccccc"
     id="path2838"
     d="M 117.38055,142.41910 L 41.662967,142.41910 C 30.018294,142.41910 24.316361,136.71717 24.316361,125.07250 C 24.316361,125.07250 51.936692,58.557014 134.72716,48.414718 L 134.72716,125.07250 C 134.72716,136.71717 129.02522,142.41910 117.38055,142.41910 z "
     style="stroke-width:6.2500000;stroke:none;fill-rule:evenodd;fill-opacity:0.27935222;fill:#ffffff" />
  <path
     style="stroke:#000000;stroke-width:2.8465135"
     d="M 85.367694,25.335238 C 74.250156,27.045197 63.605427,33.613413 58.463177,43.841545 C 56.991407,46.109987 56.314167,48.899497 55.043407,51.157991 C 52.492937,51.756954 49.515597,50.562548 47.238417,51.937327 C 45.677497,54.104171 44.798817,56.666447 43.551117,59.021136 C 47.009657,59.021136 50.468197,59.021136 53.926747,59.021136 C 54.069187,61.454412 54.439007,64.119890 51.158357,63.057396 C 48.970447,62.847907 46.521977,63.425946 45.966017,65.850091 C 45.705217,67.275965 43.308667,70.627920 45.354057,70.536688 C 48.593297,70.665316 51.881887,70.267514 55.089927,70.757694 C 57.949257,78.544053 62.364527,86.189269 69.532571,90.742208 C 76.246814,95.307920 84.533215,97.489034 92.620561,96.447575 C 97.842724,95.969473 103.06182,94.816536 107.53451,91.944513 C 109.74586,90.802725 112.67786,89.376406 112.24870,86.391284 C 112.27953,83.828694 112.25083,81.265178 112.26059,78.702262 C 106.63769,84.413039 99.318377,89.000431 91.092700,89.171808 C 78.997966,89.986757 67.002402,81.954463 62.976337,70.536688 C 75.709239,70.566734 88.443142,70.475927 101.17541,70.583216 C 101.99512,68.297038 103.92337,66.240918 103.80422,63.720412 C 101.87704,62.430526 99.123466,63.476694 96.859985,63.138819 C 85.014860,63.138819 73.169739,63.138819 61.324617,63.138819 C 61.285147,60.858283 60.604217,57.936271 63.930157,59.021136 C 77.254845,58.980944 90.591372,59.100619 103.90890,58.962977 C 107.16511,58.559966 107.41114,54.379531 108.62167,51.960694 C 108.40058,50.498395 104.34440,51.701066 102.58287,51.309206 C 89.407832,51.309206 76.232796,51.309206 63.057767,51.309206 C 64.832932,47.206998 66.885261,43.122316 70.533705,40.324421 C 75.666047,35.286066 82.870977,33.031990 89.903480,32.592119 C 96.413193,32.596653 102.68549,35.377979 107.70089,39.386538 C 109.03858,40.816950 110.48191,42.155470 112.24895,43.038946 C 114.02802,41.371463 114.27292,38.699606 115.50588,36.653048 C 108.15213,28.239695 96.416694,24.007593 85.367694,25.335238 z "
     id="path831" />
  <path
     style="font-size:40.000000;fill:#ffffff;fill-opacity:1.0000000;stroke-width:1.0000000pt;font-family:Trek"
     d="M 124.82184,103.39889 L 124.82184,108.75889 L 113.30184,108.75889 C 110.74184,108.75889 108.82184,109.61222 107.54184,111.31889 C 106.26184,113.02555 105.62184,115.57222 105.62184,118.95889 C 105.62184,122.37222 106.22184,124.93222 107.42184,126.63889 C 108.62184,128.34555 110.58184,129.19889 113.30184,129.19889 L 124.82184,129.19889 L 124.82184,134.51889 L 111.30184,134.51889 C 107.08850,134.51889 103.84850,133.18555 101.58184,130.51889 C 99.341834,127.82555 98.221838,123.97222 98.221838,118.95889 C 98.221838,113.89222 99.341834,110.03889 101.58184,107.39889 C 103.82184,104.73222 107.06184,103.39889 111.30184,103.39889 L 124.82184,103.39889 z M 63.101835,134.51889 L 76.421835,103.39889 L 83.261835,103.39889 L 96.581835,134.51889 L 89.461835,134.51889 L 86.381835,126.95889 L 73.381835,126.95889 L 70.261835,134.51889 L 63.101835,134.51889 z M 79.861835,110.99889 L 75.301835,122.07889 L 84.381835,122.07889 L 79.861835,110.99889 z M 31.901838,103.39889 L 39.821838,103.39889 L 46.741838,114.11889 L 53.541838,103.39889 L 61.461838,103.39889 L 50.061838,118.95889 L 61.461838,134.51889 L 53.541838,134.51889 L 46.741838,123.79889 L 39.821838,134.51889 L 31.901838,134.51889 L 43.301838,118.95889 L 31.901838,103.39889 z "
     id="path1403" />
  <path
     style="font-size:40.000000;stroke-width:1.0000000pt;font-family:Trek"
     d="M 125.49980,104.07685 L 125.49980,109.43685 L 113.97980,109.43685 C 111.41980,109.43685 109.49980,110.29018 108.21980,111.99685 C 106.93980,113.70351 106.29980,116.25018 106.29980,119.63685 C 106.29980,123.05018 106.89980,125.61018 108.09980,127.31685 C 109.29980,129.02351 111.25980,129.87685 113.97980,129.87685 L 125.49980,129.87685 L 125.49980,135.19685 L 111.97980,135.19685 C 107.76646,135.19685 104.52646,133.86351 102.25980,131.19685 C 100.01980,128.50351 98.899804,124.65018 98.899804,119.63685 C 98.899804,114.57018 100.01980,110.71685 102.25980,108.07685 C 104.49980,105.41018 107.73980,104.07685 111.97980,104.07685 L 125.49980,104.07685 z M 63.779801,135.19685 L 77.099801,104.07685 L 83.939801,104.07685 L 97.259801,135.19685 L 90.139801,135.19685 L 87.059801,127.63685 L 74.059801,127.63685 L 70.939801,135.19685 L 63.779801,135.19685 z M 80.539801,111.67685 L 75.979801,122.75685 L 85.059801,122.75685 L 80.539801,111.67685 z M 32.579804,104.07685 L 40.499804,104.07685 L 47.419804,114.79685 L 54.219804,104.07685 L 62.139804,104.07685 L 50.739804,119.63685 L 62.139804,135.19685 L 54.219804,135.19685 L 47.419804,124.47685 L 40.499804,135.19685 L 32.579804,135.19685 L 43.979804,119.63685 L 32.579804,104.07685 z "
     id="path842" />
  <path
     sodipodi:nodetypes="cccccc"
     id="rect2063"
     d="M 41.662967,17.197108 L 117.38055,17.197108 C 129.02522,17.197108 134.72716,22.899041 134.72716,34.543716 C 134.72716,34.543716 55.440598,35.449314 24.316361,125.89213 L 24.316361,34.543716 C 24.316361,24.254973 31.374226,17.197108 41.662967,17.197108 z "
     style="fill:url(#linearGradient2830);fill-opacity:1.0000000;fill-rule:evenodd;stroke:none;stroke-width:6.2500000" />
</svg>
