<?xml version="1.0" encoding="UTF-8" standalone="no"?>
<!-- Created with Inkscape (http://www.inkscape.org/) -->
<svg
   xmlns:dc="http://purl.org/dc/elements/1.1/"
   xmlns:cc="http://web.resource.org/cc/"
   xmlns:rdf="http://www.w3.org/1999/02/22-rdf-syntax-ns#"
   xmlns:svg="http://www.w3.org/2000/svg"
   xmlns="http://www.w3.org/2000/svg"
   xmlns:xlink="http://www.w3.org/1999/xlink"
   xmlns:sodipodi="http://inkscape.sourceforge.net/DTD/sodipodi-0.dtd"
   xmlns:inkscape="http://www.inkscape.org/namespaces/inkscape"
   sodipodi:docname="gnome-mime-application-x-bzip-compressed-tar.svg"
   sodipodi:docbase="/home/francois/Rodent/scalable/mimetypes"
   height="128.00000pt"
   width="128.00000pt"
   inkscape:version="0.41"
   sodipodi:version="0.32"
   id="svg1">
  <metadata
     id="metadata33">
    <rdf:RDF
       id="RDF35">
      <cc:Work
         id="Work37"
         rdf:about="">
        <dc:format
           id="format39">image/svg+xml</dc:format>
        <dc:type
           rdf:resource="http://purl.org/dc/dcmitype/StillImage"
           id="type41" />
      </cc:Work>
    </rdf:RDF>
  </metadata>
  <defs
     id="defs3">
    <linearGradient
       id="linearGradient850">
      <stop
         id="stop851"
         offset="0.0000000"
         style="stop-color:#fbffff;stop-opacity:0.0000000;" />
      <stop
         id="stop852"
         offset="1.0000000"
         style="stop-color:#ffffff;stop-opacity:1.0000000;" />
    </linearGradient>
    <linearGradient
       gradientUnits="userSpaceOnUse"
       gradientTransform="matrix(0.793450,0.000000,0.000000,1.071523,6.458460,6.147121)"
       y2="11.502785"
       x2="22.394284"
       y1="74.459422"
       x1="78.702638"
       id="linearGradient859"
       xlink:href="#linearGradient850" />
    <linearGradient
       id="linearGradient839">
      <stop
         id="stop840"
         offset="0.0000000"
         style="stop-color:#46a046;stop-opacity:1.0000000;" />
      <stop
         id="stop841"
         offset="0.39364964"
         style="stop-color:#df421e;stop-opacity:1.0000000;" />
      <stop
         id="stop842"
         offset="0.72036445"
         style="stop-color:#ada7c8;stop-opacity:1.0000000;" />
      <stop
         id="stop843"
         offset="1.0000000"
         style="stop-color:#eed680;stop-opacity:1.0000000;" />
    </linearGradient>
    <linearGradient
       id="linearGradient833">
      <stop
         id="stop834"
         offset="0.0000000"
         style="stop-color:#00ff00;stop-opacity:1.0000000;" />
      <stop
         id="stop837"
         offset="0.30839416"
         style="stop-color:#ff0000;stop-opacity:1.0000000;" />
      <stop
         id="stop838"
         offset="0.75000000"
         style="stop-color:#7f8cff;stop-opacity:1.0000000;" />
      <stop
         id="stop835"
         offset="1.0000000"
         style="stop-color:#ffff00;stop-opacity:1.0000000;" />
    </linearGradient>
    <linearGradient
       gradientUnits="userSpaceOnUse"
       gradientTransform="matrix(0.673480,0.000000,0.000000,1.262399,6.458460,6.147121)"
       y2="16.549269"
       x2="110.16822"
       y1="79.337825"
       x1="157.21490"
       id="linearGradient836"
       xlink:href="#linearGradient850" />
    <linearGradient
       y2="0.019354839"
       x2="0.029508196"
       y1="0.66881722"
       x1="0.61967212"
       id="linearGradient855"
       xlink:href="#linearGradient850" />
    <linearGradient
       y2="0.29203540"
       x2="0.67540985"
       y1="0.92035401"
       x1="0.39344263"
       id="linearGradient853"
       xlink:href="#linearGradient850" />
  </defs>
  <sodipodi:namedview
     inkscape:current-layer="svg1"
     inkscape:window-y="34"
     inkscape:window-x="0"
     gridspacingy="1.0000000mm"
     gridspacingx="1.0000000mm"
     snaptogrid="false"
     showgrid="true"
     inkscape:window-height="653"
     inkscape:window-width="751"
     inkscape:cy="52.881356"
     inkscape:cx="80.000000"
     inkscape:zoom="2.9500000"
     inkscape:pageshadow="2"
     inkscape:pageopacity="0.0"
     borderopacity="1.0"
     bordercolor="#666666"
     pagecolor="#ffffff"
     id="base" />
  <path
     id="path874"
     d="M 82.328591,13.650591 L 13.634882,31.054530 L 13.778954,121.93543 L 13.807769,121.93543 L 13.807769,122.10832 L 14.067099,122.05069 L 82.155704,147.32098 L 146.12382,120.89811 L 146.12382,115.62506 L 146.12382,31.054530 L 82.328591,13.650591 z "
     style="font-size:40.000000;fill:none;stroke:#000000;stroke-width:11.525789;stroke-linejoin:round;stroke-opacity:0.49999997;font-family:Trek" />
  <path
     sodipodi:nodetypes="ccccc"
     id="path633"
     d="M 146.04185,31.073238 L 146.04185,115.63580 L 84.307349,102.05486 L 82.239336,13.682790 L 146.04185,31.073238 z "
     style="font-size:12.000000;fill:#515151;fill-rule:evenodd;stroke:#000000;stroke-width:6.9344954;stroke-linecap:round;stroke-linejoin:round" />
  <path
     sodipodi:nodetypes="ccccc"
     id="path631"
     d="M 13.532279,31.073238 L 82.239336,13.682790 L 86.641012,105.06549 L 13.712469,122.11835 L 13.532279,31.073238 z "
     style="font-size:12.000000;fill:#4a494d;fill-rule:evenodd;stroke:#000000;stroke-width:6.9344954;stroke-linecap:round;stroke-linejoin:round" />
  <path
     sodipodi:nodetypes="ccccc"
     id="path640"
     d="M 82.071717,52.213872 L 146.04185,31.073238 L 82.239336,13.682790 L 13.532279,31.073238 L 82.071717,52.213872 z "
     style="font-size:12.000000;fill:#9db8d2;fill-rule:evenodd;stroke:#000000;stroke-width:6.9344954;stroke-linecap:round;stroke-linejoin:round" />
  <path
     sodipodi:nodetypes="ccccc"
     id="path627"
     d="M 146.04185,31.073238 L 146.04185,120.92096 L 82.071717,147.34674 L 82.071717,52.213872 L 146.04185,31.073238 z "
     style="font-size:12.000000;fill:#4b6983;fill-rule:evenodd;stroke:#000000;stroke-width:6.9344954;stroke-linecap:round;stroke-linejoin:round" />
  <path
     sodipodi:nodetypes="ccccc"
     id="path629"
     d="M 82.071717,52.213872 L 82.071717,147.34674 L 13.673747,121.94427 L 13.532279,31.073238 L 82.071717,52.213872 z "
     style="font-size:12.000000;fill:#7590ae;fill-rule:evenodd;stroke:#000000;stroke-width:6.9344954;stroke-linecap:round;stroke-linejoin:round" />
  <path
     sodipodi:nodetypes="ccccc"
     id="path892"
     d="M 81.985909,17.291503 L 17.282461,33.814516 L 17.282461,118.33555 C 84.628342,144.75662 95.844591,162.09057 78.630620,49.769939 C 139.62695,27.296630 81.985909,17.291503 81.985909,17.291503 z "
     style="fill:url(#linearGradient859);fill-opacity:1.0000000;fill-rule:evenodd;stroke:none;stroke-width:1.0000000pt;stroke-linecap:butt;stroke-linejoin:miter;stroke-opacity:1.0000000" />
  <path
     sodipodi:nodetypes="cccccc"
     id="path849"
     d="M 85.657481,54.886620 L 85.657481,141.30524 C 85.910909,141.30524 112.77416,131.16816 125.19208,118.49681 C 137.86342,108.10630 142.17169,87.071844 142.17169,87.071844 L 142.17169,35.372743 L 85.657481,54.886620 z "
     style="fill:url(#linearGradient836);fill-opacity:0.75000000;fill-rule:evenodd;stroke:none;stroke-width:1.0000000pt;stroke-linecap:butt;stroke-linejoin:miter;stroke-opacity:1.0000000" />
  <path
     sodipodi:nodetypes="ccccc"
     id="path852"
     d="M 82.071717,52.213872 L 82.071717,147.34674 L 13.673747,121.94427 L 13.532279,31.073238 L 82.071717,52.213872 z "
     style="font-size:12.000000;fill:none;fill-rule:evenodd;stroke:#000000;stroke-width:6.9344954;stroke-linecap:round;stroke-linejoin:round" />
  <rect
     rx="7.4109697"
     y="74.061447"
     x="29.483648"
     ry="7.4109697"
     height="43.364216"
     width="102.16805"
     id="rect853"
     style="fill:#ffffff;fill-rule:evenodd;stroke:#000000;stroke-width:3.4577370" />
  <path
     id="path862"
     d="M 122.48784,105.17822 L 122.48784,110.08359 L 96.264370,110.08359 L 96.264370,105.17822 L 113.78357,86.478756 L 113.78357,86.331226 L 96.264370,86.331226 L 96.264370,81.388967 L 122.48784,81.388967 L 122.48784,86.331226 L 104.96864,104.95692 L 104.96864,105.17822 L 122.48784,105.17822 z M 66.573940,110.08359 L 66.573940,81.388967 L 84.351318,81.388967 C 86.711799,81.388967 88.691162,81.991382 90.289404,83.196211 C 92.108943,84.523982 93.018711,86.294343 93.018711,88.507295 C 93.018711,90.130126 92.637592,91.593133 91.875353,92.896317 C 91.506528,93.486438 91.063937,94.002793 90.547582,94.445383 C 90.031227,94.863382 89.342753,95.293682 88.482160,95.736272 C 89.957462,96.277219 91.137702,97.150108 92.022883,98.354950 C 92.908064,99.559782 93.350650,100.94903 93.350650,102.52268 C 93.350650,105.25198 92.428591,107.24364 90.584464,108.49764 C 89.084576,109.55495 87.006859,110.08359 84.351318,110.08359 L 66.573940,110.08359 z M 82.433426,93.375790 C 83.785786,93.375790 84.818496,93.056139 85.531558,92.416843 C 86.244621,91.777546 86.601152,90.892365 86.601152,89.761301 C 86.601152,87.327054 85.211910,86.109931 82.433426,86.109931 L 72.770204,86.109931 L 72.770204,93.375790 L 82.433426,93.375790 z M 82.433426,105.36263 C 83.785786,105.36263 84.818496,105.04299 85.531558,104.40368 C 86.244621,103.76439 86.601152,102.87921 86.601152,101.74814 C 86.601152,99.313895 85.211910,98.096763 82.433426,98.096763 L 72.770204,98.096763 L 72.770204,105.36263 L 82.433426,105.36263 z M 38.580102,81.388967 L 64.397871,81.388967 L 64.397871,86.331226 L 54.550236,86.331226 L 54.550236,110.08359 L 48.427737,110.08359 L 48.427737,86.331226 L 38.580102,86.331226 L 38.580102,81.388967 z "
     style="font-size:40.000000;stroke-width:1.0000000pt;font-family:Trek" />
</svg>
