<?xml version="1.0" encoding="UTF-8" standalone="no"?>
<!-- Created with Inkscape (http://www.inkscape.org/) -->
<svg
   xmlns:dc="http://purl.org/dc/elements/1.1/"
   xmlns:cc="http://web.resource.org/cc/"
   xmlns:rdf="http://www.w3.org/1999/02/22-rdf-syntax-ns#"
   xmlns:svg="http://www.w3.org/2000/svg"
   xmlns="http://www.w3.org/2000/svg"
   xmlns:xlink="http://www.w3.org/1999/xlink"
   xmlns:sodipodi="http://inkscape.sourceforge.net/DTD/sodipodi-0.dtd"
   xmlns:inkscape="http://www.inkscape.org/namespaces/inkscape"
   sodipodi:docname="gnome-mime-application-x-font-bdf.svg"
   sodipodi:docbase="/home/francois/Rodent/scalable/mimetypes"
   height="128.00000pt"
   width="128.00000pt"
   inkscape:version="0.41"
   sodipodi:version="0.32"
   id="svg1">
  <metadata
     id="metadata15">
    <rdf:RDF
       id="RDF17">
      <cc:Work
         id="Work19"
         rdf:about="">
        <dc:format
           id="format21">image/svg+xml</dc:format>
        <dc:type
           rdf:resource="http://purl.org/dc/dcmitype/StillImage"
           id="type23" />
      </cc:Work>
    </rdf:RDF>
  </metadata>
  <defs
     id="defs3">
    <linearGradient
       id="linearGradient3587">
      <stop
         style="stop-color:#efe0cd;stop-opacity:0.56097561;"
         offset="0.0000000"
         id="stop3589" />
      <stop
         style="stop-color:#cececd;stop-opacity:0.21951219;"
         offset="1.0000000"
         id="stop3591" />
    </linearGradient>
    <linearGradient
       id="linearGradient2832">
      <stop
         id="stop2834"
         offset="0.0000000"
         style="stop-color:#ffffff;stop-opacity:1.0000000;" />
      <stop
         id="stop2836"
         offset="1.0000000"
         style="stop-color:#ffffff;stop-opacity:0.0000000;" />
    </linearGradient>
    <linearGradient
       id="linearGradient839">
      <stop
         id="stop840"
         offset="0.0000000"
         style="stop-color:#46a046;stop-opacity:1.0000000;" />
      <stop
         id="stop841"
         offset="0.39364964"
         style="stop-color:#df421e;stop-opacity:1.0000000;" />
      <stop
         id="stop842"
         offset="0.72036445"
         style="stop-color:#ada7c8;stop-opacity:1.0000000;" />
      <stop
         id="stop843"
         offset="1.0000000"
         style="stop-color:#eed680;stop-opacity:1.0000000;" />
    </linearGradient>
    <linearGradient
       y2="0.50000000"
       x2="1.0000000"
       y1="0.50000000"
       x1="1.3267924e-17"
       id="linearGradient836"
       xlink:href="#linearGradient839" />
    <linearGradient
       gradientUnits="userSpaceOnUse"
       y2="73.398720"
       x2="72.999245"
       y1="16.369013"
       x1="23.983805"
       gradientTransform="matrix(0.939922,0.000000,0.000000,0.896911,4.950743,6.511692)"
       id="linearGradient2830"
       xlink:href="#linearGradient2832"
       inkscape:collect="always" />
    <linearGradient
       inkscape:collect="always"
       xlink:href="#linearGradient1700"
       id="linearGradient1407"
       gradientUnits="userSpaceOnUse"
       gradientTransform="matrix(0.777129,0.000000,0.000000,0.894628,-162.4688,12.76856)"
       x1="111.32588"
       y1="124.28045"
       x2="107.31592"
       y2="93.732185" />
    <linearGradient
       inkscape:collect="always"
       xlink:href="#linearGradient1700"
       id="linearGradient1390"
       gradientUnits="userSpaceOnUse"
       gradientTransform="matrix(0.777129,0.000000,0.000000,0.894628,-2.922179,10.43077)"
       x1="111.32588"
       y1="124.28045"
       x2="107.31592"
       y2="93.732185" />
    <linearGradient
       id="linearGradient1350">
      <stop
         id="stop1352"
         offset="0.0000000"
         style="stop-color:#46a046;stop-opacity:1.0000000;" />
      <stop
         id="stop1354"
         offset="0.39364964"
         style="stop-color:#df421e;stop-opacity:1.0000000;" />
      <stop
         id="stop1356"
         offset="0.72036445"
         style="stop-color:#ada7c8;stop-opacity:1.0000000;" />
      <stop
         id="stop1358"
         offset="1.0000000"
         style="stop-color:#eed680;stop-opacity:1.0000000;" />
    </linearGradient>
    <linearGradient
       y2="0.50000000"
       x2="1.0000000"
       y1="0.50000000"
       x1="1.3267924e-17"
       id="linearGradient1360"
       xlink:href="#linearGradient839" />
    <linearGradient
       gradientUnits="userSpaceOnUse"
       y2="87.980263"
       x2="128.66997"
       y1="121.73159"
       x1="123.50353"
       gradientTransform="matrix(0.870364,0.000000,0.000000,1.001961,4.612015,4.886798)"
       id="linearGradient1362"
       xlink:href="#linearGradient1700"
       inkscape:collect="always" />
    <linearGradient
       y2="0.50000000"
       x2="1.0000000"
       y1="0.50000000"
       x1="1.3267924e-17"
       id="linearGradient1363"
       xlink:href="#linearGradient839" />
    <linearGradient
       id="linearGradient1353">
      <stop
         id="stop1355"
         offset="0.0000000"
         style="stop-color:#46a046;stop-opacity:1.0000000;" />
      <stop
         id="stop1357"
         offset="0.39364964"
         style="stop-color:#df421e;stop-opacity:1.0000000;" />
      <stop
         id="stop1359"
         offset="0.72036445"
         style="stop-color:#ada7c8;stop-opacity:1.0000000;" />
      <stop
         id="stop1361"
         offset="1.0000000"
         style="stop-color:#eed680;stop-opacity:1.0000000;" />
    </linearGradient>
    <linearGradient
       id="linearGradient1700">
      <stop
         id="stop1701"
         offset="0.0000000"
         style="stop-color:#000000;stop-opacity:0.69918698;" />
      <stop
         id="stop1702"
         offset="1"
         style="stop-color:#000000;stop-opacity:0;" />
    </linearGradient>
    <linearGradient
       xlink:href="#linearGradient839"
       id="linearGradient1427"
       x1="1.3267924e-17"
       y1="0.50000000"
       x2="1.0000000"
       y2="0.50000000" />
    <linearGradient
       id="linearGradient1417">
      <stop
         style="stop-color:#46a046;stop-opacity:1.0000000;"
         offset="0.0000000"
         id="stop1419" />
      <stop
         style="stop-color:#df421e;stop-opacity:1.0000000;"
         offset="0.39364964"
         id="stop1421" />
      <stop
         style="stop-color:#ada7c8;stop-opacity:1.0000000;"
         offset="0.72036445"
         id="stop1423" />
      <stop
         style="stop-color:#eed680;stop-opacity:1.0000000;"
         offset="1.0000000"
         id="stop1425" />
    </linearGradient>
    <linearGradient
       y2="0.50000000"
       x2="1.0000000"
       y1="0.50000000"
       x1="1.3267924e-17"
       id="linearGradient1381"
       xlink:href="#linearGradient839" />
    <linearGradient
       id="linearGradient1371">
      <stop
         id="stop1373"
         offset="0.0000000"
         style="stop-color:#46a046;stop-opacity:1.0000000;" />
      <stop
         id="stop1375"
         offset="0.39364964"
         style="stop-color:#df421e;stop-opacity:1.0000000;" />
      <stop
         id="stop1377"
         offset="0.72036445"
         style="stop-color:#ada7c8;stop-opacity:1.0000000;" />
      <stop
         id="stop1379"
         offset="1.0000000"
         style="stop-color:#eed680;stop-opacity:1.0000000;" />
    </linearGradient>
    <linearGradient
       xlink:href="#linearGradient839"
       id="linearGradient1374"
       x1="1.3267924e-17"
       y1="0.50000000"
       x2="1.0000000"
       y2="0.50000000" />
    <linearGradient
       id="linearGradient1364">
      <stop
         style="stop-color:#46a046;stop-opacity:1.0000000;"
         offset="0.0000000"
         id="stop1366" />
      <stop
         style="stop-color:#df421e;stop-opacity:1.0000000;"
         offset="0.39364964"
         id="stop1368" />
      <stop
         style="stop-color:#ada7c8;stop-opacity:1.0000000;"
         offset="0.72036445"
         id="stop1370" />
      <stop
         style="stop-color:#eed680;stop-opacity:1.0000000;"
         offset="1.0000000"
         id="stop1372" />
    </linearGradient>
    <linearGradient
       xlink:href="#linearGradient839"
       id="linearGradient1382"
       x1="1.3267924e-17"
       y1="0.50000000"
       x2="1.0000000"
       y2="0.50000000" />
    <linearGradient
       id="linearGradient1372">
      <stop
         style="stop-color:#46a046;stop-opacity:1.0000000;"
         offset="0.0000000"
         id="stop1374" />
      <stop
         style="stop-color:#df421e;stop-opacity:1.0000000;"
         offset="0.39364964"
         id="stop1376" />
      <stop
         style="stop-color:#ada7c8;stop-opacity:1.0000000;"
         offset="0.72036445"
         id="stop1378" />
      <stop
         style="stop-color:#eed680;stop-opacity:1.0000000;"
         offset="1.0000000"
         id="stop1380" />
    </linearGradient>
  </defs>
  <sodipodi:namedview
     inkscape:current-layer="svg1"
     inkscape:window-y="34"
     inkscape:window-x="0"
     gridspacingy="1.0000000mm"
     gridspacingx="1.0000000mm"
     snaptogrid="false"
     showgrid="true"
     inkscape:window-height="653"
     inkscape:window-width="756"
     inkscape:cy="92.881356"
     inkscape:cx="38.644068"
     inkscape:zoom="2.9500000"
     inkscape:pageshadow="2"
     inkscape:pageopacity="0.0"
     borderopacity="1.0"
     bordercolor="#666666"
     pagecolor="#ffffff"
     id="base" />
  <rect
     rx="22.892691"
     ry="22.892691"
     y="13.614116"
     x="20.782476"
     height="133.38696"
     width="117.75612"
     id="rect834"
     style="stroke-miterlimit:4.0000000;stroke-dasharray:none;stroke-opacity:0.49999997;stroke-linejoin:round;stroke-width:7.5000000;stroke:#000000;fill-rule:evenodd;fill:none" />
  <rect
     rx="22.892691"
     ry="22.892691"
     y="13.524447"
     x="20.643702"
     height="133.38696"
     width="117.75612"
     id="rect828"
     style="fill:#bab5ab;fill-opacity:1.0000000;fill-rule:evenodd;stroke:#000000;stroke-width:3.7500000;stroke-dasharray:none;stroke-miterlimit:4.0000000" />
  <path
     sodipodi:nodetypes="cccccc"
     id="path2838"
     d="M 117.38055,142.41910 L 41.662967,142.41910 C 30.018294,142.41910 24.316361,136.71717 24.316361,125.07250 C 24.316361,125.07250 51.936692,58.557014 134.72716,48.414718 L 134.72716,125.07250 C 134.72716,136.71717 129.02522,142.41910 117.38055,142.41910 z "
     style="stroke-width:6.2500000;stroke:none;fill-rule:evenodd;fill-opacity:0.27935222;fill:#ffffff" />
  <g
     id="g1402"
     transform="translate(143.0508,24.40678)">
    <rect
       style="fill:#ffffff;fill-rule:evenodd;stroke:#000000;stroke-width:5.5853095"
       id="rect849"
       width="92.758514"
       height="69.498535"
       ry="11.146752"
       x="-109.87270"
       y="1.2099923"
       rx="11.146752" />
    <path
       style="font-size:40.000000;stroke-width:1.0000000pt;font-family:Trek"
       d="M -98.188051,39.981182 L -85.986209,11.473575 L -79.720398,11.473575 L -67.518556,39.981182 L -74.040862,39.981182 L -76.862309,33.055812 L -88.771014,33.055812 L -91.629103,39.981182 L -98.188051,39.981182 z M -82.834982,18.435587 L -87.012190,28.585468 L -78.694417,28.585468 L -82.834982,18.435587 z "
       id="path896" />
    <path
       style="font-size:40.000000;stroke-width:1.0000000pt;font-family:Trek"
       d="M -65.591916,61.408014 L -65.591916,32.900407 L -60.242160,32.900407 L -60.242160,41.034969 L -53.756498,41.034969 C -50.678546,41.034969 -48.235740,41.914381 -46.428054,43.673205 C -45.621926,44.503761 -44.986800,45.578597 -44.522660,46.897716 C -44.034100,48.192406 -43.789820,49.633664 -43.789820,51.221491 C -43.789820,54.543715 -44.644810,57.072025 -46.354770,58.806420 C -48.040309,60.540817 -50.507556,61.408014 -53.756498,61.408014 L -65.591916,61.408014 z M -60.242160,57.120880 L -54.599268,57.120880 C -53.084719,57.120880 -51.863316,56.595676 -50.935042,55.545267 C -49.982345,54.494859 -49.505997,53.053600 -49.505997,51.221491 C -49.505997,49.413811 -49.957923,47.984767 -50.861757,46.934358 C -51.741169,45.859521 -52.987012,45.322102 -54.599268,45.322102 L -60.242160,45.322102 L -60.242160,57.120880 z "
       id="path897" />
    <path
       style="font-size:40.000000;stroke-width:1.0000000pt;font-family:Trek"
       d="M -33.018840,11.245630 L -33.018840,16.155681 L -43.571780,16.155681 C -45.916877,16.155681 -47.675702,16.937380 -48.848255,18.500780 C -50.020804,20.064178 -50.607079,22.397063 -50.607079,25.499434 C -50.607079,28.626232 -50.057446,30.971331 -48.958181,32.534730 C -47.858912,34.098129 -46.063446,34.879829 -43.571780,34.879829 L -33.018840,34.879829 L -33.018840,39.753237 L -45.403887,39.753237 C -49.263532,39.753237 -52.231548,38.531831 -54.307938,36.089021 C -56.359899,33.621781 -57.385880,30.091919 -57.385880,25.499434 C -57.385880,20.858092 -56.359899,17.328230 -54.307938,14.909847 C -52.255976,12.467036 -49.287961,11.245630 -45.403887,11.245630 L -33.018840,11.245630 z "
       id="path843" />
  </g>
  <path
     style="font-size:40.000000;fill:#ffffff;fill-opacity:1.0000000;stroke-width:1.0000000pt;font-family:Trek"
     d="M 123.33779,109.60404 L 113.33779,109.60404 C 111.79112,109.60404 110.55112,109.77737 109.61779,110.12404 C 109.16445,110.25737 108.76445,110.41737 108.41779,110.60404 C 108.07112,110.79070 107.73779,111.05737 107.41779,111.40404 C 106.53779,112.20404 105.89779,113.19070 105.49779,114.36404 L 105.25779,115.32404 L 105.17779,116.40404 L 105.17779,117.24404 L 123.33779,117.24404 L 123.33779,122.36404 L 105.17779,122.36404 L 105.17779,135.36404 L 98.457782,135.36404 L 98.457782,119.80404 C 98.457782,118.44404 98.497782,117.25737 98.577782,116.24404 C 98.657782,115.20404 98.791112,114.29737 98.977782,113.52404 C 99.537784,110.96404 100.71112,108.87070 102.49779,107.24404 C 103.61779,106.20404 104.97779,105.44404 106.57779,104.96404 C 108.17779,104.48404 110.20445,104.24404 112.65779,104.24404 L 123.33779,104.24404 L 123.33779,109.60404 z M 65.897779,104.24404 L 82.417779,104.24404 C 86.604446,104.24404 89.791112,105.57737 91.977779,108.24404 C 94.164446,110.91070 95.257779,114.76404 95.257779,119.80404 C 95.257779,124.79070 94.164446,128.63070 91.977779,131.32404 C 89.817779,134.01737 86.631112,135.36404 82.417779,135.36404 L 65.897779,135.36404 L 65.897779,104.24404 z M 72.377779,130.04404 L 80.257779,130.04404 C 82.871112,130.04404 84.804446,129.20404 86.057779,127.52404 C 87.311112,125.81737 87.937779,123.24404 87.937779,119.80404 C 87.937779,116.36404 87.337779,113.80404 86.137779,112.12404 C 84.964446,110.44404 83.004446,109.60404 80.257779,109.60404 L 72.377779,109.60404 L 72.377779,130.04404 z M 33.457782,135.36404 L 33.457782,104.24404 L 52.737779,104.24404 C 55.297779,104.24404 57.444446,104.89737 59.177779,106.20404 C 61.151112,107.64404 62.137779,109.56404 62.137779,111.96404 C 62.137779,113.72404 61.724446,115.31070 60.897779,116.72404 C 60.497779,117.36404 60.017779,117.92404 59.457779,118.40404 C 58.897779,118.85737 58.151112,119.32404 57.217779,119.80404 C 58.817779,120.39070 60.097779,121.33737 61.057779,122.64404 C 62.017779,123.95070 62.497779,125.45737 62.497779,127.16404 C 62.497779,130.12404 61.497779,132.28404 59.497779,133.64404 C 57.871112,134.79070 55.617779,135.36404 52.737779,135.36404 L 33.457782,135.36404 z M 50.657779,117.24404 C 52.124446,117.24404 53.244446,116.89737 54.017779,116.20404 C 54.791112,115.51070 55.177779,114.55070 55.177779,113.32404 C 55.177779,110.68404 53.671112,109.36404 50.657779,109.36404 L 40.177782,109.36404 L 40.177782,117.24404 L 50.657779,117.24404 z M 50.657779,130.24404 C 52.124446,130.24404 53.244446,129.89737 54.017779,129.20404 C 54.791112,128.51070 55.177779,127.55070 55.177779,126.32404 C 55.177779,123.68404 53.671112,122.36404 50.657779,122.36404 L 40.177782,122.36404 L 40.177782,130.24404 L 50.657779,130.24404 z "
     id="path1408" />
  <path
     style="font-size:40.000000;stroke-width:1.0000000pt;font-family:Trek"
     d="M 124.01575,110.28200 L 114.01575,110.28200 C 112.46908,110.28200 111.22908,110.45533 110.29575,110.80200 C 109.84241,110.93533 109.44241,111.09533 109.09575,111.28200 C 108.74908,111.46866 108.41575,111.73533 108.09575,112.08200 C 107.21575,112.88200 106.57575,113.86866 106.17575,115.04200 L 105.93575,116.00200 L 105.85575,117.08200 L 105.85575,117.92200 L 124.01575,117.92200 L 124.01575,123.04200 L 105.85575,123.04200 L 105.85575,136.04200 L 99.135748,136.04200 L 99.135748,120.48200 C 99.135748,119.12200 99.175748,117.93533 99.255748,116.92200 C 99.335748,115.88200 99.469078,114.97533 99.655748,114.20200 C 100.21575,111.64200 101.38908,109.54866 103.17575,107.92200 C 104.29575,106.88200 105.65575,106.12200 107.25575,105.64200 C 108.85575,105.16200 110.88241,104.92200 113.33575,104.92200 L 124.01575,104.92200 L 124.01575,110.28200 z M 66.575745,104.92200 L 83.095745,104.92200 C 87.282412,104.92200 90.469078,106.25533 92.655745,108.92200 C 94.842412,111.58866 95.935745,115.44200 95.935745,120.48200 C 95.935745,125.46866 94.842412,129.30866 92.655745,132.00200 C 90.495745,134.69533 87.309078,136.04200 83.095745,136.04200 L 66.575745,136.04200 L 66.575745,104.92200 z M 73.055745,130.72200 L 80.935745,130.72200 C 83.549078,130.72200 85.482412,129.88200 86.735745,128.20200 C 87.989078,126.49533 88.615745,123.92200 88.615745,120.48200 C 88.615745,117.04200 88.015745,114.48200 86.815745,112.80200 C 85.642412,111.12200 83.682412,110.28200 80.935745,110.28200 L 73.055745,110.28200 L 73.055745,130.72200 z M 34.135748,136.04200 L 34.135748,104.92200 L 53.415745,104.92200 C 55.975745,104.92200 58.122412,105.57533 59.855745,106.88200 C 61.829078,108.32200 62.815745,110.24200 62.815745,112.64200 C 62.815745,114.40200 62.402412,115.98866 61.575745,117.40200 C 61.175745,118.04200 60.695745,118.60200 60.135745,119.08200 C 59.575745,119.53533 58.829078,120.00200 57.895745,120.48200 C 59.495745,121.06866 60.775745,122.01533 61.735745,123.32200 C 62.695745,124.62866 63.175745,126.13533 63.175745,127.84200 C 63.175745,130.80200 62.175745,132.96200 60.175745,134.32200 C 58.549078,135.46866 56.295745,136.04200 53.415745,136.04200 L 34.135748,136.04200 z M 51.335745,117.92200 C 52.802412,117.92200 53.922412,117.57533 54.695745,116.88200 C 55.469078,116.18866 55.855745,115.22866 55.855745,114.00200 C 55.855745,111.36200 54.349078,110.04200 51.335745,110.04200 L 40.855748,110.04200 L 40.855748,117.92200 L 51.335745,117.92200 z M 51.335745,130.92200 C 52.802412,130.92200 53.922412,130.57533 54.695745,129.88200 C 55.469078,129.18866 55.855745,128.22866 55.855745,127.00200 C 55.855745,124.36200 54.349078,123.04200 51.335745,123.04200 L 40.855748,123.04200 L 40.855748,130.92200 L 51.335745,130.92200 z "
     id="path847" />
  <path
     sodipodi:nodetypes="cccccc"
     id="rect2063"
     d="M 41.662967,17.197108 L 117.38055,17.197108 C 129.02522,17.197108 134.72716,22.899041 134.72716,34.543716 C 134.72716,34.543716 55.440598,35.449314 24.316361,125.89213 L 24.316361,34.543716 C 24.316361,24.254973 31.374226,17.197108 41.662967,17.197108 z "
     style="fill:url(#linearGradient2830);fill-opacity:1.0000000;fill-rule:evenodd;stroke:none;stroke-width:6.2500000" />
</svg>
