<?xml version="1.0" encoding="UTF-8" standalone="no"?>
<!-- Created with Inkscape (http://www.inkscape.org/) -->
<svg
   xmlns:dc="http://purl.org/dc/elements/1.1/"
   xmlns:cc="http://web.resource.org/cc/"
   xmlns:rdf="http://www.w3.org/1999/02/22-rdf-syntax-ns#"
   xmlns:svg="http://www.w3.org/2000/svg"
   xmlns="http://www.w3.org/2000/svg"
   xmlns:xlink="http://www.w3.org/1999/xlink"
   xmlns:sodipodi="http://inkscape.sourceforge.net/DTD/sodipodi-0.dtd"
   xmlns:inkscape="http://www.inkscape.org/namespaces/inkscape"
   sodipodi:docname="gnome-mime-application-x-abiword.svg"
   sodipodi:docbase="/home/francois/Rodent/scalable/mimetypes"
   height="128.00000pt"
   width="128.00000pt"
   inkscape:version="0.41"
   sodipodi:version="0.32"
   id="svg1">
  <metadata
     id="metadata15">
    <rdf:RDF
       id="RDF17">
      <cc:Work
         id="Work19"
         rdf:about="">
        <dc:format
           id="format21">image/svg+xml</dc:format>
        <dc:type
           rdf:resource="http://purl.org/dc/dcmitype/StillImage"
           id="type23" />
      </cc:Work>
    </rdf:RDF>
  </metadata>
  <defs
     id="defs3">
    <linearGradient
       id="linearGradient3587">
      <stop
         style="stop-color:#efe0cd;stop-opacity:0.56097561;"
         offset="0.0000000"
         id="stop3589" />
      <stop
         style="stop-color:#cececd;stop-opacity:0.21951219;"
         offset="1.0000000"
         id="stop3591" />
    </linearGradient>
    <linearGradient
       id="linearGradient2832">
      <stop
         id="stop2834"
         offset="0.0000000"
         style="stop-color:#ffffff;stop-opacity:1.0000000;" />
      <stop
         id="stop2836"
         offset="1.0000000"
         style="stop-color:#ffffff;stop-opacity:0.0000000;" />
    </linearGradient>
    <linearGradient
       id="linearGradient839">
      <stop
         id="stop840"
         offset="0.0000000"
         style="stop-color:#46a046;stop-opacity:1.0000000;" />
      <stop
         id="stop841"
         offset="0.39364964"
         style="stop-color:#df421e;stop-opacity:1.0000000;" />
      <stop
         id="stop842"
         offset="0.72036445"
         style="stop-color:#ada7c8;stop-opacity:1.0000000;" />
      <stop
         id="stop843"
         offset="1.0000000"
         style="stop-color:#eed680;stop-opacity:1.0000000;" />
    </linearGradient>
    <linearGradient
       y2="0.50000000"
       x2="1.0000000"
       y1="0.50000000"
       x1="1.3267924e-17"
       id="linearGradient836"
       xlink:href="#linearGradient839" />
    <linearGradient
       gradientUnits="userSpaceOnUse"
       y2="73.398720"
       x2="72.999245"
       y1="16.369013"
       x1="23.983805"
       gradientTransform="matrix(0.939922,0.000000,0.000000,0.896911,4.950743,6.511692)"
       id="linearGradient2830"
       xlink:href="#linearGradient2832"
       inkscape:collect="always" />
    <linearGradient
       xlink:href="#linearGradient869"
       id="linearGradient674"
       x1="95.121380"
       y1="73.521367"
       x2="76.569053"
       y2="55.073781"
       spreadMethod="reflect"
       gradientTransform="scale(1.080100,0.925840)"
       gradientUnits="userSpaceOnUse" />
    <linearGradient
       xlink:href="#linearGradient839"
       id="linearGradient1373"
       x1="1.3267924e-17"
       y1="0.50000000"
       x2="1.0000000"
       y2="0.50000000" />
    <linearGradient
       id="linearGradient1363">
      <stop
         style="stop-color:#46a046;stop-opacity:1.0000000;"
         offset="0.0000000"
         id="stop1365" />
      <stop
         style="stop-color:#df421e;stop-opacity:1.0000000;"
         offset="0.39364964"
         id="stop1367" />
      <stop
         style="stop-color:#ada7c8;stop-opacity:1.0000000;"
         offset="0.72036445"
         id="stop1369" />
      <stop
         style="stop-color:#eed680;stop-opacity:1.0000000;"
         offset="1.0000000"
         id="stop1371" />
    </linearGradient>
    <linearGradient
       xlink:href="#linearGradient907"
       id="linearGradient904"
       x1="52.724242"
       y1="81.199529"
       x2="47.145329"
       y2="75.142359"
       spreadMethod="reflect"
       gradientTransform="scale(0.999352,1.000649)"
       gradientUnits="userSpaceOnUse" />
    <linearGradient
       id="linearGradient866">
      <stop
         style="stop-color:#ffff00;stop-opacity:1.0000000;"
         offset="0.0000000"
         id="stop867" />
      <stop
         style="stop-color:#ffea00;stop-opacity:1.0000000;"
         offset="0.36908397"
         id="stop901" />
      <stop
         style="stop-color:#ffd600;stop-opacity:1.0000000;"
         offset="1.0000000"
         id="stop868" />
    </linearGradient>
    <linearGradient
       id="linearGradient869">
      <stop
         style="stop-color:#990000;stop-opacity:1.0000000;"
         offset="0.0000000"
         id="stop870" />
      <stop
         style="stop-color:#ffffff;stop-opacity:1.0000000;"
         offset="1.0000000"
         id="stop871" />
    </linearGradient>
    <linearGradient
       id="linearGradient907">
      <stop
         style="stop-color:#eed680;stop-opacity:1.0000000;"
         offset="0.0000000"
         id="stop908" />
      <stop
         style="stop-color:#dfb546;stop-opacity:1.0000000;"
         offset="0.29427481"
         id="stop911" />
      <stop
         style="stop-color:#d1940c;stop-opacity:1.0000000;"
         offset="1.0000000"
         id="stop910" />
    </linearGradient>
    <linearGradient
       inkscape:collect="always"
       xlink:href="#linearGradient869"
       id="linearGradient2167"
       gradientUnits="userSpaceOnUse"
       gradientTransform="scale(1.080100,0.925840)"
       spreadMethod="reflect"
       x1="-54.605907"
       y1="63.613220"
       x2="-66.468513"
       y2="49.744450" />
    <linearGradient
       inkscape:collect="always"
       xlink:href="#linearGradient907"
       id="linearGradient2169"
       gradientUnits="userSpaceOnUse"
       gradientTransform="matrix(0.999352,0.000000,0.000000,1.000649,-151.1197,-0.373250)"
       spreadMethod="reflect"
       x1="52.724242"
       y1="81.199529"
       x2="47.145329"
       y2="75.142359" />
    <linearGradient
       spreadMethod="reflect"
       y2="0.47328246"
       x2="0.37377051"
       y1="0.78625953"
       x1="0.68852460"
       id="linearGradient1414"
       xlink:href="#linearGradient869" />
    <linearGradient
       y2="0.50000000"
       x2="1.0000000"
       y1="0.50000000"
       x1="1.3267924e-17"
       id="linearGradient1412"
       xlink:href="#linearGradient839" />
    <linearGradient
       id="linearGradient1402">
      <stop
         id="stop1404"
         offset="0.0000000"
         style="stop-color:#46a046;stop-opacity:1.0000000;" />
      <stop
         id="stop1406"
         offset="0.39364964"
         style="stop-color:#df421e;stop-opacity:1.0000000;" />
      <stop
         id="stop1408"
         offset="0.72036445"
         style="stop-color:#ada7c8;stop-opacity:1.0000000;" />
      <stop
         id="stop1410"
         offset="1.0000000"
         style="stop-color:#eed680;stop-opacity:1.0000000;" />
    </linearGradient>
    <linearGradient
       spreadMethod="reflect"
       y2="0.29411766"
       x2="0.17377049"
       y1="0.49346405"
       x1="0.35737705"
       id="linearGradient1400"
       xlink:href="#linearGradient907" />
    <linearGradient
       id="linearGradient1392">
      <stop
         id="stop1394"
         offset="0.0000000"
         style="stop-color:#ffff00;stop-opacity:1.0000000;" />
      <stop
         id="stop1396"
         offset="0.36908397"
         style="stop-color:#ffea00;stop-opacity:1.0000000;" />
      <stop
         id="stop1398"
         offset="1.0000000"
         style="stop-color:#ffd600;stop-opacity:1.0000000;" />
    </linearGradient>
    <linearGradient
       id="linearGradient1385">
      <stop
         id="stop1387"
         offset="0.0000000"
         style="stop-color:#7590ae;stop-opacity:1.0000000;" />
      <stop
         id="stop912"
         offset="0.87030536"
         style="stop-color:#89a4c0;stop-opacity:1.0000000;" />
      <stop
         id="stop1390"
         offset="1.0000000"
         style="stop-color:#9db8d2;stop-opacity:1.0000000;" />
    </linearGradient>
    <linearGradient
       id="linearGradient1377">
      <stop
         id="stop1379"
         offset="0.0000000"
         style="stop-color:#eed680;stop-opacity:1.0000000;" />
      <stop
         id="stop1381"
         offset="0.29427481"
         style="stop-color:#dfb546;stop-opacity:1.0000000;" />
      <stop
         id="stop1383"
         offset="1.0000000"
         style="stop-color:#d1940c;stop-opacity:1.0000000;" />
    </linearGradient>
  </defs>
  <sodipodi:namedview
     inkscape:current-layer="svg1"
     inkscape:window-y="51"
     inkscape:window-x="0"
     gridspacingy="1.0000000mm"
     gridspacingx="1.0000000mm"
     snaptogrid="false"
     showgrid="true"
     inkscape:window-height="653"
     inkscape:window-width="756"
     inkscape:cy="80.000000"
     inkscape:cx="80.000000"
     inkscape:zoom="2.9500000"
     inkscape:pageshadow="2"
     inkscape:pageopacity="0.0"
     borderopacity="1.0"
     bordercolor="#666666"
     pagecolor="#ffffff"
     id="base"
     showguides="true"
     inkscape:guide-bbox="true" />
  <rect
     rx="22.892691"
     ry="22.892691"
     y="13.614116"
     x="20.782476"
     height="133.38696"
     width="117.75612"
     id="rect834"
     style="stroke-miterlimit:4.0000000;stroke-dasharray:none;stroke-opacity:0.49999997;stroke-linejoin:round;stroke-width:7.5000000;stroke:#000000;fill-rule:evenodd;fill:none" />
  <rect
     rx="22.892691"
     ry="22.892691"
     y="13.524447"
     x="20.643702"
     height="133.38696"
     width="117.75612"
     id="rect828"
     style="fill:#bab5ab;fill-opacity:1.0000000;fill-rule:evenodd;stroke:#000000;stroke-width:3.7500000;stroke-dasharray:none;stroke-miterlimit:4.0000000" />
  <path
     id="path1443"
     d="M 89.681992,102.92676 L 96.390025,102.92676 L 100.59175,124.19344 L 100.73918,124.19344 L 106.93121,102.92676 L 114.26582,102.92676 L 120.38414,124.19344 L 120.53157,124.19344 L 124.73330,102.92676 L 131.44134,102.92676 L 124.14358,131.60177 L 116.80898,131.60177 L 110.69066,110.37194 L 110.54323,110.37194 L 104.31435,131.60177 L 96.979743,131.60177 L 89.681992,102.92676 z M 60.011836,131.60177 L 60.011836,102.92676 L 77.777072,102.92676 C 80.135942,102.92676 82.113951,103.52876 83.711103,104.73277 C 85.529399,106.05964 86.438547,107.82879 86.438547,110.04022 C 86.438547,111.66195 86.057687,113.12395 85.295969,114.42624 C 84.927396,115.01596 84.485108,115.53197 83.969104,115.97426 C 83.453102,116.39197 82.765098,116.82197 81.905094,117.26426 C 83.379387,117.80483 84.558823,118.67712 85.443398,119.88114 C 86.327974,121.08513 86.770263,122.47344 86.770263,124.04601 C 86.770263,126.77346 85.848829,128.76376 84.005962,130.01690 C 82.507097,131.07347 80.430800,131.60177 77.777072,131.60177 L 60.011836,131.60177 z M 75.860490,114.90540 C 77.211926,114.90540 78.243931,114.58596 78.956507,113.94710 C 79.669082,113.30823 80.025370,112.42367 80.025370,111.29338 C 80.025370,108.86079 78.637077,107.64450 75.860490,107.64450 L 66.203868,107.64450 L 66.203868,114.90540 L 75.860490,114.90540 z M 75.860490,126.88403 C 77.211926,126.88403 78.243931,126.56460 78.956507,125.92574 C 79.669082,125.28687 80.025370,124.40229 80.025370,123.27201 C 80.025370,120.83943 78.637077,119.62313 75.860490,119.62313 L 66.203868,119.62313 L 66.203868,126.88403 L 75.860490,126.88403 z M 27.651092,131.60177 L 39.924585,102.92676 L 46.227192,102.92676 L 58.500684,131.60177 L 51.940079,131.60177 L 49.102064,124.63573 L 37.123428,124.63573 L 34.248556,131.60177 L 27.651092,131.60177 z M 43.094318,109.92966 L 38.892580,120.13913 L 47.259197,120.13913 L 43.094318,109.92966 z "
     style="font-size:40.000000;fill:#ffffff;fill-opacity:1.0000000;stroke-width:1.0000000pt;font-family:Trek" />
  <path
     sodipodi:nodetypes="cccccc"
     id="path2838"
     d="M 117.38055,142.41910 L 41.662967,142.41910 C 30.018294,142.41910 24.316361,136.71717 24.316361,125.07250 C 24.316361,125.07250 51.936692,58.557014 134.72716,48.414718 L 134.72716,125.07250 C 134.72716,136.71717 129.02522,142.41910 117.38055,142.41910 z "
     style="stroke-width:6.2500000;stroke:none;fill-rule:evenodd;fill-opacity:0.27935222;fill:#ffffff" />
  <path
     id="path861"
     d="M 90.359958,103.60472 L 97.067991,103.60472 L 101.26971,124.87140 L 101.41714,124.87140 L 107.60917,103.60472 L 114.94378,103.60472 L 121.06210,124.87140 L 121.20953,124.87140 L 125.41126,103.60472 L 132.11930,103.60472 L 124.82154,132.27973 L 117.48694,132.27973 L 111.36862,111.04990 L 111.22119,111.04990 L 104.99231,132.27973 L 97.657709,132.27973 L 90.359958,103.60472 z M 60.689802,132.27973 L 60.689802,103.60472 L 78.455038,103.60472 C 80.813908,103.60472 82.791917,104.20672 84.389069,105.41073 C 86.207365,106.73760 87.116513,108.50675 87.116513,110.71818 C 87.116513,112.33991 86.735653,113.80191 85.973935,115.10420 C 85.605362,115.69392 85.163074,116.20993 84.647070,116.65222 C 84.131068,117.06993 83.443064,117.49993 82.583060,117.94222 C 84.057353,118.48279 85.236789,119.35508 86.121364,120.55910 C 87.005940,121.76309 87.448229,123.15140 87.448229,124.72397 C 87.448229,127.45142 86.526795,129.44172 84.683928,130.69486 C 83.185063,131.75143 81.108766,132.27973 78.455038,132.27973 L 60.689802,132.27973 z M 76.538456,115.58336 C 77.889892,115.58336 78.921897,115.26392 79.634473,114.62506 C 80.347048,113.98619 80.703336,113.10163 80.703336,111.97134 C 80.703336,109.53875 79.315043,108.32246 76.538456,108.32246 L 66.881834,108.32246 L 66.881834,115.58336 L 76.538456,115.58336 z M 76.538456,127.56199 C 77.889892,127.56199 78.921897,127.24256 79.634473,126.60370 C 80.347048,125.96483 80.703336,125.08025 80.703336,123.94997 C 80.703336,121.51739 79.315043,120.30109 76.538456,120.30109 L 66.881834,120.30109 L 66.881834,127.56199 L 76.538456,127.56199 z M 28.329058,132.27973 L 40.602551,103.60472 L 46.905158,103.60472 L 59.178650,132.27973 L 52.618045,132.27973 L 49.780030,125.31369 L 37.801394,125.31369 L 34.926522,132.27973 L 28.329058,132.27973 z M 43.772284,110.60762 L 39.570546,120.81709 L 47.937163,120.81709 L 43.772284,110.60762 z "
     style="font-size:40.000000;stroke-width:1.0000000pt;font-family:Trek" />
  <g
     id="g2160"
     transform="translate(148.0000,0.000000)">
    <path
       style="fill-rule:evenodd;stroke:#000000;stroke-width:0.72004113pt"
       d="M -81.317197,63.097780 L -76.328485,64.170081 L -78.286689,61.139573 L -81.317197,63.097780 z "
       id="path873"
       sodipodi:nodetypes="cccc" />
    <path
       id="path900"
       d="M -62.246200,51.016016 C -62.246200,51.016016 -60.572575,50.718565 -60.572575,50.718565 C -60.572575,50.718565 -59.202748,51.834488 -59.202748,51.834488 C -59.238682,51.169576 -59.546838,50.939043 -60.196908,50.635018 C -60.196908,50.635018 -60.129396,50.320931 -60.129396,50.320931 C -59.378062,50.153836 -59.207106,50.190583 -58.730172,49.635908 C -58.730172,49.635908 -60.574753,49.896612 -60.574753,49.896612 C -60.574753,49.896612 -61.807379,48.974475 -61.807379,48.974475 C -61.771445,49.639388 -61.600489,49.676135 -60.984176,50.137200 C -60.984176,50.137200 -62.246200,51.016016 -62.246200,51.016016 z M -61.501401,48.383055 C -61.501401,48.383055 -60.714132,48.880866 -60.714132,48.880866 C -59.211463,48.546669 -58.833617,49.285075 -58.358863,47.908450 C -58.358863,47.908450 -58.700774,47.834958 -58.700774,47.834958 C -59.211463,48.546669 -59.553375,48.473177 -60.408154,48.289445 C -60.408154,48.289445 -60.239377,47.504242 -60.239377,47.504242 C -60.239377,47.504242 -60.581290,47.430749 -60.581290,47.430749 C -60.581290,47.430749 -60.750067,48.215953 -60.750067,48.215953 C -60.750067,48.215953 -61.433890,48.068968 -61.433890,48.068968 C -61.433890,48.068968 -61.501401,48.383055 -61.501401,48.383055 z M -58.432908,45.756664 C -58.430729,46.578617 -58.464486,46.735664 -59.283332,47.216846 C -59.283332,47.216846 -58.945777,45.646425 -58.945777,45.646425 C -60.722846,45.593042 -60.480023,46.959622 -59.692753,47.457433 C -58.529818,47.871704 -57.542195,46.605308 -58.432908,45.756664 z M -60.007446,44.761034 C -60.007446,44.761034 -57.785019,45.238735 -57.785019,45.238735 C -57.785019,45.238735 -57.717507,44.924648 -57.717507,44.924648 C -58.743244,44.704171 -59.256111,44.593932 -59.395488,43.578186 C -59.395488,43.578186 -59.737401,43.504693 -59.737401,43.504693 C -59.737401,43.504693 -59.564267,44.363400 -59.564267,44.363400 C -59.564267,44.363400 -60.007446,44.761034 -60.007446,44.761034 z M -59.669891,43.190613 C -59.669891,43.190613 -57.447463,43.668315 -57.447463,43.668315 C -57.447463,43.668315 -57.379951,43.354228 -57.379951,43.354228 C -57.721864,43.280735 -59.602379,42.876526 -58.749779,42.238304 C -58.511310,41.960964 -57.485575,42.181441 -57.143663,42.254934 C -57.143663,42.254934 -57.076153,41.940854 -57.076153,41.940854 C -57.418065,41.867361 -59.127625,41.499898 -58.479735,40.981970 C -58.241267,40.704630 -57.215531,40.925107 -56.873619,40.998599 C -56.873619,40.998599 -56.772353,40.527473 -56.772353,40.527473 C -57.285221,40.417234 -58.140000,40.233502 -58.686623,40.280304 C -59.096047,40.520898 -59.399848,41.934279 -59.330157,42.442145 C -59.363913,42.599192 -59.192957,42.635939 -59.226712,42.792979 C -59.226712,42.792979 -59.669891,43.190613 -59.669891,43.190613 z M -59.355198,45.887013 C -59.355198,45.887013 -59.625243,47.143353 -59.625243,47.143353 C -60.036844,46.561988 -60.140289,46.211154 -59.355198,45.887013 z "
       style="fill:none;stroke:#000000;stroke-width:0.16759372" />
    <path
       style="fill:url(#linearGradient2167);fill-opacity:1.0000000;fill-rule:evenodd;stroke:#000000;stroke-width:3.6002057"
       d="M -90.412933,65.688043 C -75.104619,49.385236 -43.627200,17.342738 -32.017540,29.139154 C -21.748650,41.371321 -61.572464,66.781133 -78.400378,77.559753 L -90.412933,65.688043 z "
       id="path879"
       sodipodi:nodetypes="cccc" />
    <path
       style="fill:url(#linearGradient2169);fill-opacity:0.75000000;fill-rule:evenodd;stroke:#000000;stroke-width:2.7001543"
       d="M -80.266178,76.307212 C -80.266178,76.307212 -83.886954,83.283950 -82.131989,85.314942 C -80.303635,86.916702 -97.836559,92.218905 -100.68798,91.898047 C -100.68798,91.898055 -103.15674,97.307853 -106.74006,93.675094 C -110.32338,90.042343 -104.68149,87.418103 -104.68149,87.418103 C -104.67634,83.221775 -100.04858,67.151169 -98.256925,68.967546 C -96.465265,70.783921 -89.224475,67.225324 -89.224475,67.225324 C -89.224475,67.225324 -80.266178,76.307212 -80.266178,76.307212 z "
       id="path868"
       sodipodi:nodetypes="cccccccc" />
    <path
       style="fill:none;fill-opacity:0.75000000;fill-rule:evenodd;stroke:#000000;stroke-width:0.72004113pt;stroke-linecap:round;stroke-linejoin:round"
       d="M -105.52241,92.488546 C -105.52241,92.488546 -90.991393,78.155268 -90.991393,78.155268"
       id="path876"
       sodipodi:nodetypes="cc" />
  </g>
  <path
     sodipodi:nodetypes="cccccc"
     id="rect2063"
     d="M 41.662967,17.197108 L 117.38055,17.197108 C 129.02522,17.197108 134.72716,22.899041 134.72716,34.543716 C 134.72716,34.543716 55.440598,35.449314 24.316361,125.89213 L 24.316361,34.543716 C 24.316361,24.254973 31.374226,17.197108 41.662967,17.197108 z "
     style="fill:url(#linearGradient2830);fill-opacity:1.0000000;fill-rule:evenodd;stroke:none;stroke-width:6.2500000" />
</svg>
