<?xml version="1.0" encoding="UTF-8" standalone="no"?>
<!-- Created with Inkscape (http://www.inkscape.org/) -->
<svg
   xmlns:dc="http://purl.org/dc/elements/1.1/"
   xmlns:cc="http://web.resource.org/cc/"
   xmlns:rdf="http://www.w3.org/1999/02/22-rdf-syntax-ns#"
   xmlns:svg="http://www.w3.org/2000/svg"
   xmlns="http://www.w3.org/2000/svg"
   xmlns:xlink="http://www.w3.org/1999/xlink"
   xmlns:sodipodi="http://inkscape.sourceforge.net/DTD/sodipodi-0.dtd"
   xmlns:inkscape="http://www.inkscape.org/namespaces/inkscape"
   sodipodi:docname="gnome-mime-application-ogg.svg"
   sodipodi:docbase="/home/francois/Rodent/scalable/mimetypes"
   height="128.00000pt"
   width="128.00000pt"
   inkscape:version="0.41"
   sodipodi:version="0.32"
   id="svg1">
  <metadata
     id="metadata15">
    <rdf:RDF
       id="RDF17">
      <cc:Work
         id="Work19"
         rdf:about="">
        <dc:format
           id="format21">image/svg+xml</dc:format>
        <dc:type
           rdf:resource="http://purl.org/dc/dcmitype/StillImage"
           id="type23" />
      </cc:Work>
    </rdf:RDF>
  </metadata>
  <defs
     id="defs3">
    <linearGradient
       id="linearGradient3587">
      <stop
         style="stop-color:#efe0cd;stop-opacity:0.56097561;"
         offset="0.0000000"
         id="stop3589" />
      <stop
         style="stop-color:#cececd;stop-opacity:0.21951219;"
         offset="1.0000000"
         id="stop3591" />
    </linearGradient>
    <linearGradient
       id="linearGradient2832">
      <stop
         id="stop2834"
         offset="0.0000000"
         style="stop-color:#ffffff;stop-opacity:1.0000000;" />
      <stop
         id="stop2836"
         offset="1.0000000"
         style="stop-color:#ffffff;stop-opacity:0.0000000;" />
    </linearGradient>
    <linearGradient
       id="linearGradient839">
      <stop
         id="stop840"
         offset="0.0000000"
         style="stop-color:#46a046;stop-opacity:1.0000000;" />
      <stop
         id="stop841"
         offset="0.39364964"
         style="stop-color:#df421e;stop-opacity:1.0000000;" />
      <stop
         id="stop842"
         offset="0.72036445"
         style="stop-color:#ada7c8;stop-opacity:1.0000000;" />
      <stop
         id="stop843"
         offset="1.0000000"
         style="stop-color:#eed680;stop-opacity:1.0000000;" />
    </linearGradient>
    <linearGradient
       y2="0.50000000"
       x2="1.0000000"
       y1="0.50000000"
       x1="1.3267924e-17"
       id="linearGradient836"
       xlink:href="#linearGradient839" />
    <linearGradient
       gradientUnits="userSpaceOnUse"
       y2="73.398720"
       x2="72.999245"
       y1="16.369013"
       x1="23.983805"
       gradientTransform="matrix(0.939922,0.000000,0.000000,0.896911,4.950743,6.511692)"
       id="linearGradient2830"
       xlink:href="#linearGradient2832"
       inkscape:collect="always" />
    <linearGradient
       inkscape:collect="always"
       xlink:href="#linearGradient1700"
       id="linearGradient1407"
       gradientUnits="userSpaceOnUse"
       gradientTransform="matrix(0.777129,0.000000,0.000000,0.894628,-162.4688,12.76856)"
       x1="111.32588"
       y1="124.28045"
       x2="107.31592"
       y2="93.732185" />
    <linearGradient
       inkscape:collect="always"
       xlink:href="#linearGradient1700"
       id="linearGradient1390"
       gradientUnits="userSpaceOnUse"
       gradientTransform="matrix(0.777129,0.000000,0.000000,0.894628,-2.922179,10.43077)"
       x1="111.32588"
       y1="124.28045"
       x2="107.31592"
       y2="93.732185" />
    <linearGradient
       id="linearGradient1350">
      <stop
         id="stop1352"
         offset="0.0000000"
         style="stop-color:#46a046;stop-opacity:1.0000000;" />
      <stop
         id="stop1354"
         offset="0.39364964"
         style="stop-color:#df421e;stop-opacity:1.0000000;" />
      <stop
         id="stop1356"
         offset="0.72036445"
         style="stop-color:#ada7c8;stop-opacity:1.0000000;" />
      <stop
         id="stop1358"
         offset="1.0000000"
         style="stop-color:#eed680;stop-opacity:1.0000000;" />
    </linearGradient>
    <linearGradient
       y2="0.50000000"
       x2="1.0000000"
       y1="0.50000000"
       x1="1.3267924e-17"
       id="linearGradient1360"
       xlink:href="#linearGradient839" />
    <linearGradient
       gradientUnits="userSpaceOnUse"
       y2="87.980263"
       x2="128.66997"
       y1="121.73159"
       x1="123.50353"
       gradientTransform="matrix(0.870364,0.000000,0.000000,1.001961,4.612015,4.886798)"
       id="linearGradient1362"
       xlink:href="#linearGradient1700"
       inkscape:collect="always" />
    <linearGradient
       gradientUnits="userSpaceOnUse"
       y2="93.732185"
       x2="107.31592"
       y1="124.28045"
       x1="111.32588"
       gradientTransform="matrix(0.919657,0.000000,0.000000,1.058706,1.338192,1.084837)"
       id="linearGradient1703"
       xlink:href="#linearGradient1700"
       inkscape:collect="always" />
    <linearGradient
       y2="0.50000000"
       x2="1.0000000"
       y1="0.50000000"
       x1="1.3267924e-17"
       id="linearGradient1363"
       xlink:href="#linearGradient839" />
    <linearGradient
       id="linearGradient1353">
      <stop
         id="stop1355"
         offset="0.0000000"
         style="stop-color:#46a046;stop-opacity:1.0000000;" />
      <stop
         id="stop1357"
         offset="0.39364964"
         style="stop-color:#df421e;stop-opacity:1.0000000;" />
      <stop
         id="stop1359"
         offset="0.72036445"
         style="stop-color:#ada7c8;stop-opacity:1.0000000;" />
      <stop
         id="stop1361"
         offset="1.0000000"
         style="stop-color:#eed680;stop-opacity:1.0000000;" />
    </linearGradient>
    <linearGradient
       id="linearGradient1700">
      <stop
         id="stop1701"
         offset="0.0000000"
         style="stop-color:#000000;stop-opacity:0.69918698;" />
      <stop
         id="stop1702"
         offset="1"
         style="stop-color:#000000;stop-opacity:0;" />
    </linearGradient>
    <linearGradient
       xlink:href="#linearGradient839"
       id="linearGradient1427"
       x1="1.3267924e-17"
       y1="0.50000000"
       x2="1.0000000"
       y2="0.50000000" />
    <linearGradient
       id="linearGradient1417">
      <stop
         style="stop-color:#46a046;stop-opacity:1.0000000;"
         offset="0.0000000"
         id="stop1419" />
      <stop
         style="stop-color:#df421e;stop-opacity:1.0000000;"
         offset="0.39364964"
         id="stop1421" />
      <stop
         style="stop-color:#ada7c8;stop-opacity:1.0000000;"
         offset="0.72036445"
         id="stop1423" />
      <stop
         style="stop-color:#eed680;stop-opacity:1.0000000;"
         offset="1.0000000"
         id="stop1425" />
    </linearGradient>
  </defs>
  <sodipodi:namedview
     inkscape:current-layer="svg1"
     inkscape:window-y="34"
     inkscape:window-x="0"
     gridspacingy="1.0000000mm"
     gridspacingx="1.0000000mm"
     snaptogrid="false"
     showgrid="true"
     inkscape:window-height="653"
     inkscape:window-width="756"
     inkscape:cy="80.000000"
     inkscape:cx="80.000000"
     inkscape:zoom="2.9500000"
     inkscape:pageshadow="2"
     inkscape:pageopacity="0.0"
     borderopacity="1.0"
     bordercolor="#666666"
     pagecolor="#ffffff"
     id="base" />
  <rect
     rx="22.892691"
     ry="22.892691"
     y="13.614116"
     x="20.782476"
     height="133.38696"
     width="117.75612"
     id="rect834"
     style="stroke-miterlimit:4.0000000;stroke-dasharray:none;stroke-opacity:0.49999997;stroke-linejoin:round;stroke-width:7.5000000;stroke:#000000;fill-rule:evenodd;fill:none" />
  <rect
     rx="22.892691"
     ry="22.892691"
     y="13.524447"
     x="20.643702"
     height="133.38696"
     width="117.75612"
     id="rect828"
     style="stroke-miterlimit:4.0000000;stroke-dasharray:none;stroke-width:3.7500000;stroke:#000000;fill-rule:evenodd;fill-opacity:0.94117647;fill:#83a67f" />
  <path
     sodipodi:nodetypes="cccccc"
     id="path2838"
     d="M 117.38055,142.41910 L 41.662967,142.41910 C 30.018294,142.41910 24.316361,136.71717 24.316361,125.07250 C 24.316361,125.07250 51.936692,58.557014 134.72716,48.414718 L 134.72716,125.07250 C 134.72716,136.71717 129.02522,142.41910 117.38055,142.41910 z "
     style="stroke-width:6.2500000;stroke:none;fill-rule:evenodd;fill-opacity:0.27935222;fill:#ffffff" />
  <path
     style="fill-opacity:1.0000000;fill:#ffffff;font-family:Trek;stroke-width:1.0000000pt;font-size:40.000000"
     d="M 110.01847,135.63926 C 105.80514,135.63926 102.56514,134.30592 100.29847,131.63926 C 98.058467,128.94592 96.938467,125.09259 96.938467,120.07926 C 96.938467,115.01259 98.058467,111.15926 100.29847,108.51926 C 102.53847,105.85259 105.77847,104.51926 110.01847,104.51926 L 126.77847,104.51926 L 126.77847,109.87926 L 112.01847,109.87926 C 109.45847,109.87926 107.53847,110.73259 106.25847,112.43926 C 104.97847,114.14592 104.33847,116.69259 104.33847,120.07926 C 104.33847,123.49259 104.93847,126.05259 106.13847,127.75926 C 107.33847,129.46592 109.29847,130.31926 112.01847,130.31926 L 120.13847,130.31926 L 120.13847,122.63926 L 111.37847,122.63926 L 111.37847,117.51926 L 126.77847,117.51926 L 126.77847,135.63926 L 110.01847,135.63926 z M 77.018467,135.63926 C 72.805137,135.63926 69.565137,134.30592 67.298467,131.63926 C 65.058467,128.94592 63.938467,125.09259 63.938467,120.07926 C 63.938467,115.01259 65.058467,111.15926 67.298467,108.51926 C 69.538467,105.85259 72.778467,104.51926 77.018467,104.51926 L 93.778467,104.51926 L 93.778467,109.87926 L 79.018467,109.87926 C 76.458467,109.87926 74.538467,110.73259 73.258467,112.43926 C 71.978467,114.14592 71.338467,116.69259 71.338467,120.07926 C 71.338467,123.49259 71.938467,126.05259 73.138467,127.75926 C 74.338467,129.46592 76.298467,130.31926 79.018467,130.31926 L 87.138467,130.31926 L 87.138467,122.63926 L 78.378467,122.63926 L 78.378467,117.51926 L 93.778467,117.51926 L 93.778467,135.63926 L 77.018467,135.63926 z M 29.138467,120.07926 C 29.138467,117.49259 29.391797,115.30592 29.898467,113.51926 C 30.431797,111.70592 31.258467,110.11926 32.378467,108.75926 C 34.911797,105.63926 39.098467,104.07926 44.938467,104.07926 C 50.618467,104.07926 54.805137,105.62592 57.498467,108.71926 C 57.951797,109.27926 58.405137,109.99926 58.858467,110.87926 C 58.911797,110.98592 59.045137,111.29259 59.258467,111.79926 C 59.471797,112.30592 59.685137,112.87926 59.898467,113.51926 C 60.458467,115.41259 60.738467,117.59926 60.738467,120.07926 C 60.738467,124.98592 59.671797,128.75926 57.538467,131.39926 C 54.925137,134.51926 50.725137,136.07926 44.938467,136.07926 C 39.098467,136.07926 34.911797,134.53259 32.378467,131.43926 C 30.218467,128.87926 29.138467,125.09259 29.138467,120.07926 z M 44.938467,109.19926 C 42.218467,109.19926 40.125137,109.85259 38.658467,111.15926 C 36.978467,112.75926 36.138467,115.73259 36.138467,120.07926 C 36.138467,123.49259 36.605137,125.99926 37.538467,127.59926 C 38.818467,129.83926 41.285137,130.95926 44.938467,130.95926 C 48.431797,130.95926 50.898467,129.83926 52.338467,127.59926 C 53.298467,125.99926 53.778467,123.49259 53.778467,120.07926 C 53.778467,116.61259 53.311797,114.10592 52.378467,112.55926 C 51.018467,110.31926 48.538467,109.19926 44.938467,109.19926 z "
     id="path1451" />
  <path
     style="font-size:40.000000;stroke-width:1.0000000pt;font-family:Trek"
     d="M 110.35745,135.97824 C 106.14412,135.97824 102.90412,134.64490 100.63745,131.97824 C 98.397450,129.28490 97.277450,125.43157 97.277450,120.41824 C 97.277450,115.35157 98.397450,111.49824 100.63745,108.85824 C 102.87745,106.19157 106.11745,104.85824 110.35745,104.85824 L 127.11745,104.85824 L 127.11745,110.21824 L 112.35745,110.21824 C 109.79745,110.21824 107.87745,111.07157 106.59745,112.77824 C 105.31745,114.48490 104.67745,117.03157 104.67745,120.41824 C 104.67745,123.83157 105.27745,126.39157 106.47745,128.09824 C 107.67745,129.80490 109.63745,130.65824 112.35745,130.65824 L 120.47745,130.65824 L 120.47745,122.97824 L 111.71745,122.97824 L 111.71745,117.85824 L 127.11745,117.85824 L 127.11745,135.97824 L 110.35745,135.97824 z M 77.357450,135.97824 C 73.144120,135.97824 69.904120,134.64490 67.637450,131.97824 C 65.397450,129.28490 64.277450,125.43157 64.277450,120.41824 C 64.277450,115.35157 65.397450,111.49824 67.637450,108.85824 C 69.877450,106.19157 73.117450,104.85824 77.357450,104.85824 L 94.117450,104.85824 L 94.117450,110.21824 L 79.357450,110.21824 C 76.797450,110.21824 74.877450,111.07157 73.597450,112.77824 C 72.317450,114.48490 71.677450,117.03157 71.677450,120.41824 C 71.677450,123.83157 72.277450,126.39157 73.477450,128.09824 C 74.677450,129.80490 76.637450,130.65824 79.357450,130.65824 L 87.477450,130.65824 L 87.477450,122.97824 L 78.717450,122.97824 L 78.717450,117.85824 L 94.117450,117.85824 L 94.117450,135.97824 L 77.357450,135.97824 z M 29.477450,120.41824 C 29.477450,117.83157 29.730780,115.64490 30.237450,113.85824 C 30.770780,112.04490 31.597450,110.45824 32.717450,109.09824 C 35.250780,105.97824 39.437450,104.41824 45.277450,104.41824 C 50.957450,104.41824 55.144120,105.96490 57.837450,109.05824 C 58.290780,109.61824 58.744120,110.33824 59.197450,111.21824 C 59.250780,111.32490 59.384120,111.63157 59.597450,112.13824 C 59.810780,112.64490 60.024120,113.21824 60.237450,113.85824 C 60.797450,115.75157 61.077450,117.93824 61.077450,120.41824 C 61.077450,125.32490 60.010780,129.09824 57.877450,131.73824 C 55.264120,134.85824 51.064120,136.41824 45.277450,136.41824 C 39.437450,136.41824 35.250780,134.87157 32.717450,131.77824 C 30.557450,129.21824 29.477450,125.43157 29.477450,120.41824 z M 45.277450,109.53824 C 42.557450,109.53824 40.464120,110.19157 38.997450,111.49824 C 37.317450,113.09824 36.477450,116.07157 36.477450,120.41824 C 36.477450,123.83157 36.944120,126.33824 37.877450,127.93824 C 39.157450,130.17824 41.624120,131.29824 45.277450,131.29824 C 48.770780,131.29824 51.237450,130.17824 52.677450,127.93824 C 53.637450,126.33824 54.117450,123.83157 54.117450,120.41824 C 54.117450,116.95157 53.650780,114.44490 52.717450,112.89824 C 51.357450,110.65824 48.877450,109.53824 45.277450,109.53824 z "
     id="path840" />
  <g
     id="g1375"
     transform="matrix(0.529753,0.000000,0.000000,0.529753,37.55307,20.31400)">
    <path
       style="fill:#4b6983;fill-rule:evenodd;stroke:#000000;stroke-width:3.7500000;stroke-linejoin:round;stroke-miterlimit:4.0000000;stroke-opacity:0.47727272"
       d="M 71.062832,10.924845 C 49.872305,12.300807 28.066026,36.057179 19.551099,68.986837 C 9.8197500,106.62075 21.145800,142.05850 44.830005,148.09870 C 51.073848,149.69108 57.536772,149.02305 63.876628,146.57244 L 124.32344,117.06447 C 129.92174,112.14439 137.13629,110.55715 140.50830,99.353324 C 143.88032,88.149535 141.79406,82.200175 137.29677,74.106214 L 93.702558,19.700919 C 89.797307,15.854514 85.238849,13.071963 80.061487,11.751576 C 77.100963,10.996552 74.090051,10.728279 71.062832,10.924845 z "
       id="path1539"
       sodipodi:nodetypes="cccccccccc"
       inkscape:export-xdpi="27.000000"
       inkscape:export-ydpi="27.000000" />
    <path
       sodipodi:nodetypes="ccczcc"
       id="path831"
       d="M 92.945351,20.564156 L 65.265280,144.56473 L 124.02111,116.42450 C 130.80597,111.65325 136.43603,110.09957 139.70602,99.234682 C 142.97602,88.369815 140.97387,82.590786 136.61265,74.741679 L 92.945351,20.564156 z "
       style="fill:#7590ae;fill-opacity:1.0000000;fill-rule:evenodd;stroke:#000000;stroke-width:2.5240839;stroke-linejoin:round;stroke-miterlimit:4.0000000" />
    <path
       transform="matrix(0.939421,0.239581,-0.241243,0.932955,-13.93465,-17.04180)"
       d="M 145.27559 78.503937 A 44.291340 70.866142 0 1 1  56.692913,78.503937 A 44.291340 70.866142 0 1 1  145.27559 78.503937 z"
       sodipodi:ry="70.866142"
       sodipodi:rx="44.291340"
       sodipodi:cy="78.503937"
       sodipodi:cx="100.98425"
       id="path825"
       style="fill:#9db8d2;fill-opacity:1.0000000;fill-rule:evenodd;stroke:#000000;stroke-width:2.6114149;stroke-miterlimit:4.0000000"
       sodipodi:type="arc" />
    <path
       transform="matrix(1.131177,0.288486,-0.265628,1.027252,-33.13970,-37.83387)"
       d="M 131.10237 85.590553 A 28.346457 56.692913 0 1 1  74.409456,85.590553 A 28.346457 56.692913 0 1 1  131.10237 85.590553 z"
       sodipodi:ry="56.692913"
       sodipodi:rx="28.346457"
       sodipodi:cy="85.590553"
       sodipodi:cx="102.75591"
       id="path4029"
       style="fill:#7590ae;fill-opacity:1.0000000;fill-rule:evenodd;stroke:#000000;stroke-width:3.4019165;stroke-miterlimit:4.0000000;stroke-opacity:0.45909092"
       sodipodi:type="arc" />
    <path
       transform="matrix(1.131177,0.288486,-0.265628,1.027252,-33.13970,-37.83387)"
       d="M 131.10237 85.590553 A 28.346457 56.692913 0 1 1  74.409456,85.590553 A 28.346457 56.692913 0 1 1  131.10237 85.590553 z"
       sodipodi:ry="56.692913"
       sodipodi:rx="28.346457"
       sodipodi:cy="85.590553"
       sodipodi:cx="102.75591"
       id="path826"
       style="fill:#7590ae;fill-opacity:1.0000000;fill-rule:evenodd;stroke:#000000;stroke-width:2.2747321"
       sodipodi:type="arc" />
    <path
       sodipodi:nodetypes="cccccc"
       id="path2788"
       d="M 61.978897,23.522409 C 61.978897,23.522409 66.585421,42.766795 67.558215,66.383703 C 68.531007,90.000612 62.466930,96.330881 60.197074,100.73940 C 57.927228,105.14789 52.414723,119.56451 37.822802,133.10486 C 49.496334,142.80628 80.398453,138.66284 93.335626,77.310778 C 98.199603,38.264152 82.407585,15.080632 61.978897,23.522409 z "
       style="fill:#ffffff;fill-opacity:0.46558705;fill-rule:evenodd;stroke:none;stroke-width:1.0000000pt;stroke-linecap:butt;stroke-linejoin:miter;stroke-opacity:1.0000000" />
    <path
       transform="matrix(0.939421,0.239581,-0.276433,1.069045,58.67646,19.94617)"
       d="M 46.062994 51.929134 A 12.401575 19.488190 0 1 1  21.259844,51.929134 A 12.401575 19.488190 0 1 1  46.062994 51.929134 z"
       sodipodi:ry="19.488190"
       sodipodi:rx="12.401575"
       sodipodi:cy="51.929134"
       sodipodi:cx="33.661419"
       id="path5272"
       style="fill:#314e6c;fill-opacity:1.0000000;fill-rule:evenodd;stroke:#000000;stroke-width:4.4529762;stroke-miterlimit:4.0000000;stroke-opacity:0.49999997"
       sodipodi:type="arc" />
    <path
       transform="matrix(0.939421,0.239581,-0.276433,1.069045,58.67646,19.94617)"
       d="M 46.062994 51.929134 A 12.401575 19.488190 0 1 1  21.259844,51.929134 A 12.401575 19.488190 0 1 1  46.062994 51.929134 z"
       sodipodi:ry="19.488190"
       sodipodi:rx="12.401575"
       sodipodi:cy="51.929134"
       sodipodi:cx="33.661419"
       id="path827"
       style="fill:#314e6c;fill-opacity:1.0000000;fill-rule:evenodd;stroke:#000000;stroke-width:1.0000000pt"
       sodipodi:type="arc" />
    <path
       transform="matrix(0.939421,0.239581,-0.241243,0.932955,-13.93465,-17.04180)"
       d="M 145.27559 78.503937 A 44.291340 70.866142 0 1 1  56.692913,78.503937 A 44.291340 70.866142 0 1 1  145.27559 78.503937 z"
       sodipodi:ry="70.866142"
       sodipodi:rx="44.291340"
       sodipodi:cy="78.503937"
       sodipodi:cx="100.98425"
       id="path922"
       style="fill:none;fill-opacity:1.0000000;fill-rule:evenodd;stroke:#000000;stroke-width:3.9171224;stroke-miterlimit:4.0000000;stroke-opacity:0.46136364"
       sodipodi:type="arc" />
    <path
       sodipodi:nodetypes="ccc"
       id="path923"
       d="M 60.788258,21.071240 C 39.711047,18.152862 -3.1855065,95.157365 35.077744,136.33900 C 5.6030673,100.97744 31.774916,29.706046 60.788258,21.071240 z "
       style="fill:#ffffff;fill-opacity:1.0000000;fill-rule:evenodd;stroke:none;stroke-width:1.0000000pt;stroke-linecap:butt;stroke-linejoin:miter;stroke-opacity:1.0000000" />
    <path
       sodipodi:nodetypes="ccc"
       id="path1545"
       d="M 70.561920,102.75483 C 56.942809,90.432770 70.886184,63.843067 79.317068,64.491599 C 64.400897,81.353360 78.020010,97.566586 70.561920,102.75483 z "
       style="fill:#ffffff;fill-opacity:1.0000000;fill-rule:evenodd;stroke:none;stroke-width:1.0000000pt;stroke-linecap:butt;stroke-linejoin:miter;stroke-opacity:1.0000000" />
    <path
       sodipodi:nodetypes="csccc"
       id="path1078"
       d="M 98.304479,109.56442 L 80.794182,134.85705 C 77.825266,139.14548 129.43388,118.64381 137.86477,101.78206 C 142.40449,84.920279 109.32947,72.598220 109.32947,72.598220 L 98.304479,109.56442 z "
       style="fill:url(#linearGradient1703);fill-opacity:1.0000000;fill-rule:evenodd;stroke:none;stroke-width:0.25000000pt;stroke-linecap:butt;stroke-linejoin:miter;stroke-opacity:1.0000000" />
    <path
       sodipodi:nodetypes="ccc"
       id="path2074"
       d="M 65.528724,141.38887 C 86.605935,144.42988 130.70594,65.025282 92.442699,22.113005 C 118.70814,60.632688 93.739758,128.21106 65.528724,141.38887 z "
       style="fill:#000000;fill-opacity:0.29959515;fill-rule:evenodd;stroke:none;stroke-width:1.0000000pt;stroke-linecap:butt;stroke-linejoin:miter;stroke-opacity:1.0000000" />
    <path
       sodipodi:nodetypes="ccc"
       id="path5112"
       d="M 63.753452,139.64816 C 84.830663,142.56654 127.72722,65.562063 89.463966,24.380428 C 118.93865,59.741988 92.766794,131.01335 63.753452,139.64816 z "
       style="fill:#000000;fill-opacity:0.33198377;fill-rule:evenodd;stroke:none;stroke-width:1.0000000pt;stroke-linecap:butt;stroke-linejoin:miter;stroke-opacity:1.0000000" />
  </g>
  <path
     sodipodi:nodetypes="cccccc"
     id="rect2063"
     d="M 41.662967,17.197108 L 117.38055,17.197108 C 129.02522,17.197108 134.72716,22.899041 134.72716,34.543716 C 134.72716,34.543716 55.440598,35.449314 24.316361,125.89213 L 24.316361,34.543716 C 24.316361,24.254973 31.374226,17.197108 41.662967,17.197108 z "
     style="fill:url(#linearGradient2830);fill-opacity:1.0000000;fill-rule:evenodd;stroke:none;stroke-width:6.2500000" />
</svg>
