<?xml version="1.0" encoding="UTF-8" standalone="no"?>
<!-- Created with Inkscape (http://www.inkscape.org/) -->
<svg
   xmlns:dc="http://purl.org/dc/elements/1.1/"
   xmlns:cc="http://web.resource.org/cc/"
   xmlns:rdf="http://www.w3.org/1999/02/22-rdf-syntax-ns#"
   xmlns:svg="http://www.w3.org/2000/svg"
   xmlns="http://www.w3.org/2000/svg"
   xmlns:xlink="http://www.w3.org/1999/xlink"
   xmlns:sodipodi="http://inkscape.sourceforge.net/DTD/sodipodi-0.dtd"
   xmlns:inkscape="http://www.inkscape.org/namespaces/inkscape"
   sodipodi:docname="gnome-mime-application-x-deb.svg"
   sodipodi:docbase="/home/francois/Rodent/scalable/mimetypes"
   height="128.00000pt"
   width="128.00000pt"
   inkscape:version="0.41"
   sodipodi:version="0.32"
   id="svg1">
  <defs
     id="defs3">
    <linearGradient
       id="linearGradient850">
      <stop
         id="stop851"
         offset="0.0000000"
         style="stop-color:#fbffff;stop-opacity:0.0000000;" />
      <stop
         id="stop852"
         offset="1.0000000"
         style="stop-color:#ffffff;stop-opacity:1.0000000;" />
    </linearGradient>
    <linearGradient
       gradientUnits="userSpaceOnUse"
       gradientTransform="matrix(0.792857,0.000000,0.000000,1.070722,6.518668,6.148423)"
       y2="11.502785"
       x2="22.394284"
       y1="74.459422"
       x1="78.702638"
       id="linearGradient859"
       xlink:href="#linearGradient850" />
    <linearGradient
       id="linearGradient839">
      <stop
         id="stop840"
         offset="0.0000000"
         style="stop-color:#46a046;stop-opacity:1.0000000;" />
      <stop
         id="stop841"
         offset="0.39364964"
         style="stop-color:#df421e;stop-opacity:1.0000000;" />
      <stop
         id="stop842"
         offset="0.72036445"
         style="stop-color:#ada7c8;stop-opacity:1.0000000;" />
      <stop
         id="stop843"
         offset="1.0000000"
         style="stop-color:#eed680;stop-opacity:1.0000000;" />
    </linearGradient>
    <linearGradient
       id="linearGradient833">
      <stop
         id="stop834"
         offset="0.0000000"
         style="stop-color:#00ff00;stop-opacity:1.0000000;" />
      <stop
         id="stop837"
         offset="0.30839416"
         style="stop-color:#ff0000;stop-opacity:1.0000000;" />
      <stop
         id="stop838"
         offset="0.75000000"
         style="stop-color:#7f8cff;stop-opacity:1.0000000;" />
      <stop
         id="stop835"
         offset="1.0000000"
         style="stop-color:#ffff00;stop-opacity:1.0000000;" />
    </linearGradient>
    <linearGradient
       gradientUnits="userSpaceOnUse"
       gradientTransform="matrix(0.672977,0.000000,0.000000,1.261455,6.518668,6.148423)"
       y2="16.549269"
       x2="110.16822"
       y1="79.337825"
       x1="157.21490"
       id="linearGradient836"
       xlink:href="#linearGradient850" />
    <linearGradient
       y2="0.019354839"
       x2="0.029508196"
       y1="0.66881722"
       x1="0.61967212"
       id="linearGradient855"
       xlink:href="#linearGradient850" />
    <linearGradient
       y2="0.29203540"
       x2="0.67540985"
       y1="0.92035401"
       x1="0.39344263"
       id="linearGradient853"
       xlink:href="#linearGradient850" />
  </defs>
  <sodipodi:namedview
     inkscape:current-layer="svg1"
     inkscape:window-y="34"
     inkscape:window-x="469"
     gridspacingy="1.0000000mm"
     gridspacingx="1.0000000mm"
     snaptogrid="false"
     showgrid="true"
     inkscape:window-height="653"
     inkscape:window-width="751"
     inkscape:cy="86.627696"
     inkscape:cx="65.758479"
     inkscape:zoom="2.5117188"
     inkscape:pageshadow="2"
     inkscape:pageopacity="0.0"
     borderopacity="1.0"
     bordercolor="#666666"
     pagecolor="#ffffff"
     id="base" />
  <path
     id="path874"
     d="M 82.332062,13.646281 L 13.689723,31.037209 L 13.833688,121.85014 L 13.862481,121.85014 L 13.862481,122.02290 L 14.121617,121.96532 L 82.159305,147.21671 L 146.07958,120.81360 L 146.07958,115.54449 L 146.07958,31.037209 L 82.332062,13.646281 z "
     style="font-size:40.000000;fill:none;stroke:#000000;stroke-width:11.517171;stroke-linejoin:round;stroke-opacity:0.49999997;font-family:Trek" />
  <path
     sodipodi:nodetypes="ccccc"
     id="path633"
     d="M 145.99768,31.055901 L 145.99768,115.55523 L 84.309344,101.98444 L 82.242877,13.678457 L 145.99768,31.055901 z "
     style="font-size:12.000000;fill:#515151;fill-rule:evenodd;stroke:#000000;stroke-width:6.9293098;stroke-linecap:round;stroke-linejoin:round" />
  <path
     sodipodi:nodetypes="ccccc"
     id="path631"
     d="M 13.587198,31.055901 L 82.242877,13.678457 L 86.641263,104.99282 L 13.767252,122.03293 L 13.587198,31.055901 z "
     style="font-size:12.000000;fill:#4a494d;fill-rule:evenodd;stroke:#000000;stroke-width:6.9293098;stroke-linecap:round;stroke-linejoin:round" />
  <path
     sodipodi:nodetypes="ccccc"
     id="path640"
     d="M 82.075384,52.180726 L 145.99768,31.055901 L 82.242877,13.678457 L 13.587198,31.055901 L 82.075384,52.180726 z "
     style="font-size:12.000000;fill:#9db8d2;fill-rule:evenodd;stroke:#000000;stroke-width:6.9293098;stroke-linecap:round;stroke-linejoin:round" />
  <path
     sodipodi:nodetypes="ccccc"
     id="path627"
     d="M 145.99768,31.055901 L 145.99768,120.83644 L 82.075384,147.24246 L 82.075384,52.180726 L 145.99768,31.055901 z "
     style="font-size:12.000000;fill:#4b6983;fill-rule:evenodd;stroke:#000000;stroke-width:6.9293098;stroke-linecap:round;stroke-linejoin:round" />
  <path
     sodipodi:nodetypes="ccccc"
     id="path629"
     d="M 82.075384,52.180726 L 82.075384,147.24246 L 13.728559,121.85898 L 13.587198,31.055901 L 82.075384,52.180726 z "
     style="font-size:12.000000;fill:#7590ae;fill-rule:evenodd;stroke:#000000;stroke-width:6.9293098;stroke-linecap:round;stroke-linejoin:round" />
  <path
     sodipodi:nodetypes="ccccc"
     id="path892"
     d="M 81.989640,17.284471 L 17.334575,33.795129 L 17.334575,118.25296 C 84.630097,144.65427 95.837960,161.97527 78.636860,49.738620 C 139.58758,27.282116 81.989640,17.284471 81.989640,17.284471 z "
     style="fill:url(#linearGradient859);fill-opacity:1.0000000;fill-rule:evenodd;stroke:none;stroke-width:1.0000000pt;stroke-linecap:butt;stroke-linejoin:miter;stroke-opacity:1.0000000" />
  <path
     sodipodi:nodetypes="cccccc"
     id="path849"
     d="M 85.658467,54.851476 L 85.658467,141.20548 C 85.911705,141.20548 112.75486,131.07598 125.16350,118.41410 C 137.82537,108.03136 142.13041,87.012633 142.13041,87.012633 L 142.13041,35.352191 L 85.658467,54.851476 z "
     style="fill:url(#linearGradient836);fill-opacity:0.75000000;fill-rule:evenodd;stroke:none;stroke-width:1.0000000pt;stroke-linecap:butt;stroke-linejoin:miter;stroke-opacity:1.0000000" />
  <path
     sodipodi:nodetypes="ccccc"
     id="path852"
     d="M 82.075384,52.180726 L 82.075384,147.24246 L 13.728559,121.85898 L 13.587198,31.055901 L 82.075384,52.180726 z "
     style="font-size:12.000000;fill:none;fill-rule:evenodd;stroke:#000000;stroke-width:6.9293098;stroke-linecap:round;stroke-linejoin:round" />
  <path
     id="selection_to_path"
     d="M 83.112507,18.838025 C 83.112507,18.838025 83.052860,18.898682 83.052860,18.898682 C 83.052860,18.898682 83.052860,18.838025 83.052860,18.838025 C 83.052860,18.838025 83.112507,18.838025 83.112507,18.838025 z M 81.912546,19.021005 C 81.612307,19.081656 81.432362,19.143322 81.132124,19.021005 C 81.132124,19.021005 81.912546,19.021005 81.912546,19.021005 z M 78.072078,19.447609 C 78.372323,19.386953 78.912148,19.264636 79.212392,19.386953 C 78.672561,19.630583 78.072078,19.935880 77.652546,20.301834 C 78.672561,19.996537 79.272033,20.118860 80.292049,20.241177 C 80.292049,20.241177 81.372721,20.362491 81.372721,20.362491 C 81.012835,20.424158 80.652950,20.545465 80.412346,20.789095 C 80.412346,20.789095 81.132124,20.850762 81.132124,20.850762 C 81.132124,20.850762 84.252821,20.484808 84.252821,20.484808 C 84.792653,20.484808 85.332475,20.607132 85.812657,20.789095 C 85.812657,20.789095 85.692358,20.118860 85.692358,20.118860 C 85.692358,20.118860 87.492793,20.667788 87.492793,20.667788 C 88.813045,21.094393 89.952339,21.399689 91.212955,21.948618 C 91.212955,21.948618 92.713159,22.680525 92.713159,22.680525 C 92.893095,22.801833 93.252972,22.984806 93.432925,23.046472 C 93.852455,23.107129 94.632886,22.741175 95.172719,22.680525 C 95.472957,22.680525 96.433324,22.863498 96.613268,23.107129 C 96.793203,23.290103 96.733572,23.533733 97.273404,24.022011 C 97.692934,24.387957 98.473365,24.875219 98.953539,25.180516 C 98.953539,25.180516 99.013188,25.119865 99.013188,25.119865 C 99.013188,25.119865 98.052813,23.960344 98.052813,23.960344 C 98.892885,24.326290 100.39309,25.424147 101.11286,26.034740 C 103.69373,28.046467 105.91370,30.608131 107.53319,33.474076 C 108.07302,34.388958 108.49356,35.365499 108.85345,36.341036 C 108.97375,36.645317 109.21333,37.255912 109.21333,37.560199 C 109.03339,37.194246 108.91310,37.072938 108.61385,36.828298 C 108.61385,37.377225 108.67350,37.743173 108.73314,38.292100 C 108.79381,38.535737 108.85345,38.780378 108.67350,38.963351 C 108.67350,38.963351 109.69352,42.134599 109.69352,42.134599 C 109.75316,42.438880 109.99376,43.049474 109.87345,43.353762 C 109.57322,42.012276 108.85345,40.182521 108.31362,38.901685 C 108.13367,38.353767 107.53319,37.133595 107.11365,36.767642 C 107.11365,36.889964 107.11365,37.011272 106.99337,37.133595 C 106.69312,37.499542 105.97334,36.889964 105.79341,37.499542 C 105.73376,37.804839 105.97334,38.718711 106.09364,39.024007 C 106.27359,39.389961 106.45353,39.572935 106.69312,39.146324 C 106.69312,39.146324 106.81341,39.146324 106.81341,39.146324 C 107.41390,40.121863 107.23396,40.061207 107.41390,41.097395 C 107.41390,41.097395 107.95373,43.476085 107.95373,43.476085 C 107.35324,43.110131 107.41390,42.378231 106.87306,42.378231 C 106.87306,42.378231 107.29361,43.842033 107.29361,43.842033 C 107.59385,44.512274 107.71313,44.634591 108.07302,45.183518 C 107.89308,45.244175 107.83343,45.244175 107.71313,45.427149 C 107.59385,45.732445 107.65349,46.830301 107.71313,47.135597 C 107.77379,47.317561 107.89308,47.683515 108.13367,47.805839 C 108.25396,47.805839 108.49356,47.745182 108.61385,47.683515 C 108.61385,47.683515 107.77379,50.428154 107.77379,50.428154 C 107.77379,50.428154 107.59385,51.586665 107.59385,51.586665 C 107.59385,51.586665 107.59385,52.197258 107.59385,52.197258 C 107.59385,52.197258 107.05301,50.854764 107.05301,50.854764 C 107.05301,50.854764 106.99337,52.197258 106.99337,52.197258 C 106.75377,52.135593 106.63348,52.197258 106.57383,52.440890 C 106.57383,52.440890 106.45353,53.965349 106.45353,53.965349 C 106.15329,55.368500 105.37388,56.587670 104.83302,57.868498 C 104.47315,58.661057 104.53380,59.209983 104.41350,59.453614 C 104.41350,59.453614 103.81302,58.478083 103.81302,58.478083 C 103.45313,58.905696 102.73336,60.064207 102.79301,60.613136 C 102.79301,60.613136 102.85365,61.039747 102.85365,61.039747 C 102.85365,61.405693 102.67372,61.832305 102.49377,62.076945 C 102.43311,61.405693 102.43311,61.649324 102.67372,61.039747 C 101.83364,61.588674 101.17352,62.381232 100.45273,63.113133 C 99.853266,63.722718 99.133492,64.271646 98.412701,64.820572 C 95.953140,66.589673 93.073042,67.687526 90.133295,67.991812 C 90.133295,67.991812 88.813045,68.114136 88.813045,68.114136 C 88.813045,68.114136 87.613093,68.114136 87.613093,68.114136 C 87.613093,68.114136 87.012610,68.052473 87.012610,68.052473 C 85.512419,67.931161 84.192164,67.748188 82.752622,67.321579 C 82.392736,67.199258 81.372721,66.955626 81.072476,66.772653 C 81.072476,66.772653 80.592293,66.223724 80.592293,66.223724 C 80.592293,66.223724 79.272033,65.186520 79.272033,65.186520 C 77.172361,63.418431 75.252629,61.649324 73.992017,59.088676 C 73.331887,57.624868 72.972002,56.100408 72.851703,54.514276 C 72.851703,54.514276 72.792063,53.782375 72.792063,53.782375 C 72.792063,53.782375 72.792063,52.501547 72.792063,52.501547 C 72.792063,52.501547 72.972002,50.245179 72.972002,50.245179 C 72.972002,50.245179 73.572490,49.086668 73.572490,49.086668 C 73.992017,47.988813 74.232620,46.890958 74.891734,45.915426 C 75.432575,45.000545 75.672163,45.061202 75.912759,44.756913 C 75.912759,44.756913 76.391934,43.964355 76.391934,43.964355 C 76.632530,43.536735 77.172361,42.927157 77.532247,42.561204 C 79.032446,41.159062 81.012835,40.182521 82.992209,39.878231 C 83.712990,39.816567 84.432760,39.816567 85.152537,39.816567 C 86.593083,39.816567 88.032619,40.365493 89.293222,41.036744 C 90.192940,41.463349 90.972355,42.072933 91.693143,42.804834 C 91.993377,43.110131 92.292615,43.353762 92.472562,43.719716 C 91.812428,43.232455 91.572838,42.987809 90.792414,42.561204 C 89.532811,41.829303 87.672738,41.280375 86.232189,41.280375 C 85.092891,41.280375 84.372110,41.280375 83.232806,41.585671 C 79.451979,42.561204 76.512231,45.305841 75.312277,49.086668 C 75.012032,50.062205 74.832093,51.037738 74.772445,52.014285 C 74.772445,52.014285 74.711788,52.746186 74.711788,52.746186 C 74.711788,52.746186 74.772445,53.538744 74.772445,53.538744 C 74.772445,53.538744 75.132331,53.172790 75.132331,53.172790 C 75.132331,57.929155 78.192378,62.441882 82.332079,64.576942 C 83.652339,65.308843 85.573069,65.979078 87.072250,65.979078 C 88.932333,65.979078 89.833049,65.857771 91.572838,65.125870 C 91.572838,65.125870 91.632487,65.308843 91.632487,65.308843 C 92.412913,65.125870 93.373276,64.759916 93.972758,64.271646 C 94.632886,63.784385 95.233373,63.052477 95.893500,62.686529 C 95.652892,62.990810 95.293013,63.235456 95.172719,63.662060 C 95.832846,63.601403 96.492973,62.990810 96.973156,62.624862 C 96.973156,62.624862 99.252782,60.613136 99.252782,60.613136 C 99.732966,60.185522 100.51338,59.636594 100.63369,58.966354 C 100.69333,58.661057 100.63369,58.539750 100.63369,58.295109 C 100.63369,57.868498 100.81362,57.258914 101.11286,57.014274 C 101.41310,56.831300 101.89329,56.709986 102.07322,56.404689 C 102.07322,56.404689 102.49377,55.306835 102.49377,55.306835 C 102.85365,54.453626 103.09324,53.721718 103.21354,52.806844 C 103.27319,52.440890 103.33283,52.135593 103.21354,51.769639 C 103.21354,51.769639 102.73336,52.746186 102.73336,52.746186 C 102.91330,51.769639 103.15289,50.916430 103.15289,49.940892 C 103.15289,49.940892 103.21354,48.903694 103.21354,48.903694 C 103.21354,48.903694 103.21354,48.049469 103.21354,48.049469 C 103.21354,48.049469 103.15289,47.439885 103.15289,47.439885 C 103.15289,47.439885 103.15289,45.000545 103.15289,45.000545 C 103.15289,44.207987 102.97295,44.634591 102.85365,44.025013 C 102.85365,44.025013 102.79301,43.049474 102.79301,43.049474 C 102.67372,42.317573 102.49377,41.585671 102.31282,40.853764 C 101.35346,37.682523 99.613676,34.937885 97.453340,32.498544 C 95.472957,30.242177 93.252972,28.534738 90.432529,27.497541 C 88.752385,26.887955 86.652728,26.461351 84.852294,26.339028 C 84.852294,26.339028 84.252821,26.278371 84.252821,26.278371 C 84.252821,26.278371 83.652339,26.278371 83.652339,26.278371 C 83.652339,26.278371 83.052860,26.217720 83.052860,26.217720 C 83.052860,26.217720 82.752622,26.217720 82.752622,26.217720 C 82.752622,26.217720 81.672959,26.278371 81.672959,26.278371 C 81.672959,26.278371 79.992821,26.461351 79.992821,26.461351 C 79.752224,26.522001 79.392332,26.644325 79.152744,26.583668 C 79.272033,26.278371 78.852507,26.400694 78.672561,26.400694 C 78.672561,26.400694 77.112720,26.704982 77.112720,26.704982 C 75.191978,27.131586 74.711788,27.925153 73.092307,28.595394 C 73.092307,28.595394 71.651748,29.144322 71.651748,29.144322 C 71.532459,29.205989 71.532459,29.266638 71.471802,29.388962 C 71.471802,29.388962 73.092307,29.083665 73.092307,29.083665 C 72.432177,29.876224 70.931978,29.693250 69.971604,29.936880 C 68.771649,30.242177 67.271450,31.462355 66.551672,32.437887 C 66.972215,32.377231 67.211802,32.194257 67.571687,32.011283 C 67.512046,32.254914 67.271450,32.620861 67.091503,32.742175 C 66.972215,32.803841 66.671971,32.803841 66.551672,32.803841 C 66.312085,32.803841 66.071488,32.925149 65.891549,32.986815 C 65.171772,33.230446 64.391343,33.779373 63.791870,34.205977 C 62.291671,35.303832 60.852129,36.767642 59.591517,38.170793 C 58.631143,39.206981 57.671785,40.365493 56.952014,41.585671 C 56.952014,41.585671 57.611128,41.706979 57.611128,41.706979 C 57.251243,42.683527 56.771059,43.659059 56.291884,44.573940 C 55.871342,45.305841 55.211212,46.586670 54.971624,47.379229 C 54.971624,47.379229 54.611738,50.671783 54.611738,50.671783 C 54.611738,50.671783 54.191202,55.123861 54.191202,55.123861 C 54.191202,55.123861 54.131555,55.734454 54.131555,55.734454 C 54.131555,55.734454 54.071914,57.502544 54.071914,57.502544 C 54.071914,57.502544 54.131555,58.295109 54.131555,58.295109 C 54.131555,59.088676 54.251854,60.002542 54.491440,60.734450 C 54.491440,60.734450 55.091929,62.015278 55.091929,62.015278 C 55.151570,62.441882 54.910974,63.539738 54.971624,63.967357 C 54.971624,63.967357 55.691401,65.552474 55.691401,65.552474 C 55.691401,65.552474 55.331516,65.552474 55.331516,65.552474 C 55.511456,66.467356 56.171585,68.297115 56.952014,68.784370 C 57.491838,69.150329 57.911372,68.784370 58.571502,69.455627 C 59.231632,70.126875 59.951403,71.651336 60.251640,72.566217 C 59.531869,72.383238 59.351930,72.017290 58.871740,71.529011 C 59.051685,72.504554 59.471219,73.298121 60.012053,74.151334 C 60.012053,74.151334 60.672183,75.188535 60.672183,75.188535 C 60.852129,75.554484 60.371945,75.675790 60.491227,76.041748 C 60.611532,76.590677 61.451602,77.139606 61.811487,77.566210 C 61.511243,77.444898 61.271656,77.444898 61.391954,77.871508 C 61.451602,78.115138 61.751846,78.542755 61.872145,78.786390 C 61.872145,78.786390 63.491632,81.103404 63.491632,81.103404 C 63.732229,81.469358 64.211404,82.079954 64.391343,82.445908 C 64.391343,82.445908 64.752243,81.957625 64.752243,81.957625 C 64.752243,81.957625 64.871534,82.506559 64.871534,82.506559 C 65.112130,83.299117 65.651961,84.031025 66.132146,84.702272 C 66.432383,85.128876 66.551672,85.494830 67.091503,85.494830 C 67.211802,85.494830 67.632344,85.494830 67.751633,85.555485 C 67.871932,85.617144 68.051871,85.860779 68.111518,85.982095 C 68.352115,86.287393 68.472413,86.409712 68.771649,86.713992 C 69.431772,87.385240 69.852314,87.690549 70.752032,88.056486 C 70.752032,88.056486 70.151549,88.909711 70.151549,88.909711 C 70.692390,89.032029 71.412162,89.336304 71.831688,89.641603 C 71.831688,89.641603 72.671764,90.251192 72.671764,90.251192 C 72.671764,90.251192 74.351902,91.044758 74.351902,91.044758 C 74.351902,91.044758 73.871719,90.068212 73.871719,90.068212 C 74.472208,90.495829 75.072689,91.288388 75.612521,91.837316 C 76.152346,92.386244 77.172361,93.178800 77.892132,93.484098 C 79.092094,94.033024 80.652950,94.276654 81.972193,94.520293 C 82.452378,94.581960 83.952576,94.886244 84.312463,95.069220 C 84.312463,95.069220 83.172149,95.008566 83.172149,95.008566 C 83.172149,95.008566 82.032851,95.008566 82.032851,95.008566 C 82.032851,95.008566 81.132124,94.946898 81.132124,94.946898 C 76.692178,94.886244 71.772048,92.752198 68.111518,90.251192 C 60.012053,84.762922 54.071914,76.224718 51.611341,66.650329 C 51.071509,64.516285 50.711624,62.381232 50.591325,60.185522 C 50.591325,60.185522 50.531684,59.453614 50.531684,59.453614 C 50.531684,59.453614 50.531684,58.478083 50.531684,58.478083 C 50.531684,58.478083 50.471027,57.685525 50.471027,57.685525 C 50.471027,57.685525 50.531684,55.368500 50.531684,55.368500 C 50.531684,55.368500 50.471027,54.636600 50.471027,54.636600 C 50.471027,54.636600 50.471027,53.721718 50.471027,53.721718 C 50.471027,53.721718 50.531684,52.806844 50.531684,52.806844 C 50.531684,52.806844 50.531684,51.403691 50.531684,51.403691 C 50.531684,51.403691 50.591325,50.428154 50.591325,50.428154 C 50.591325,50.428154 50.591325,48.903694 50.591325,48.903694 C 50.591325,48.903694 50.351738,47.196254 50.351738,47.196254 C 50.351738,47.013281 50.531684,46.586670 50.591325,46.403696 C 50.591325,46.403696 51.251455,44.329294 51.251455,44.329294 C 51.791286,42.438880 53.050883,39.146324 53.951616,37.499542 C 54.431799,37.621866 54.731028,37.255912 54.971624,36.889964 C 55.331516,36.401688 55.930989,34.877228 56.171585,34.205977 C 56.351525,33.901697 56.771059,32.925149 56.952014,32.681518 C 57.071303,32.498544 57.251243,32.559195 57.371541,32.377231 C 57.371541,32.377231 57.611128,31.828303 57.611128,31.828303 C 57.791074,31.462355 57.911372,31.217710 58.151968,30.913428 C 59.111328,29.632593 60.731831,28.168785 61.931786,27.070930 C 61.931786,27.070930 62.712213,26.339028 62.712213,26.339028 C 63.072099,25.973075 63.491632,25.485813 63.912168,25.180516 C 63.912168,25.180516 63.971817,25.790101 63.971817,25.790101 C 66.492030,23.595400 68.771649,22.558202 71.712405,21.216716 C 71.712405,21.216716 74.052674,20.179511 74.052674,20.179511 C 74.052674,20.179511 75.551863,19.569933 75.551863,19.569933 C 75.551863,19.569933 75.492216,19.875230 75.492216,19.875230 C 76.391934,19.875230 77.232009,19.630583 78.072078,19.447609 z M 82.992209,19.875230 C 82.752622,20.179511 82.452378,19.996537 82.152133,19.875230 C 82.152133,19.875230 81.612307,19.752907 81.612307,19.752907 C 81.612307,19.752907 82.992209,19.875230 82.992209,19.875230 z M 52.511058,35.243182 C 52.690997,35.913417 52.151172,36.645317 51.551699,36.889964 C 51.850928,36.218714 51.911585,36.096391 51.971226,35.303832 C 51.971226,35.303832 52.511058,35.243182 52.511058,35.243182 z M 50.351738,41.768646 C 50.351738,41.768646 49.931195,43.415428 49.931195,43.415428 C 49.931195,43.415428 49.871555,42.317573 49.871555,42.317573 C 49.931195,41.829303 50.170783,41.342042 50.471027,40.976087 C 50.471027,40.976087 50.351738,41.768646 50.351738,41.768646 z M 94.632886,50.611133 C 94.632886,50.488810 94.512582,50.305837 94.512582,50.184522 C 94.452941,49.879226 94.692535,49.513278 94.933134,49.330298 C 95.172719,49.818575 95.172719,50.671783 94.933134,51.160061 C 94.753180,50.977080 94.753180,50.854764 94.632886,50.611133 z M 106.99337,53.843032 C 106.99337,53.843032 106.99337,53.477078 106.99337,53.477078 C 106.99337,53.477078 106.99337,53.843032 106.99337,53.843032 z M 108.31362,54.270646 C 108.19332,54.757907 108.07302,55.855761 107.83343,56.221716 C 107.83343,56.221716 108.37326,53.477078 108.37326,53.477078 C 108.43392,53.721718 108.37326,54.026006 108.31362,54.270646 z M 93.972758,54.574933 C 93.972758,54.574933 93.913109,54.636600 93.913109,54.636600 C 93.913109,54.636600 93.913109,54.574933 93.913109,54.574933 C 93.913109,54.574933 93.972758,54.574933 93.972758,54.574933 z M 92.652498,55.429157 C 92.353276,55.917428 92.112668,56.221716 91.932732,56.770643 C 92.232972,56.831300 92.292615,56.770643 92.592866,56.648321 C 93.373276,56.221716 93.312631,55.672788 93.792814,55.063204 C 93.612870,55.795111 93.132687,56.648321 92.713159,57.258914 C 92.713159,57.258914 92.592866,57.258914 92.592866,57.258914 C 92.292615,56.892966 92.053026,57.014274 91.932732,56.770643 C 91.812428,56.527012 91.932732,56.282373 91.993377,56.100408 C 92.173324,55.734454 92.652498,55.063204 92.893095,54.757907 C 92.952738,55.002553 92.772802,55.246184 92.652498,55.429157 z M 93.913109,54.757907 C 93.913109,54.757907 93.852455,54.819573 93.852455,54.819573 C 93.852455,54.819573 93.852455,54.757907 93.852455,54.757907 C 93.852455,54.757907 93.913109,54.757907 93.913109,54.757907 z M 106.81341,54.819573 C 106.81341,54.819573 106.75377,54.880230 106.75377,54.880230 C 106.75377,54.880230 106.75377,54.819573 106.75377,54.819573 C 106.75377,54.819573 106.81341,54.819573 106.81341,54.819573 z M 107.29361,58.051472 C 107.29361,58.051472 107.23396,58.112129 107.23396,58.112129 C 107.23396,58.112129 107.23396,58.051472 107.23396,58.051472 C 107.23396,58.051472 107.29361,58.051472 107.29361,58.051472 z M 107.23396,58.234452 C 107.23396,58.234452 107.17330,58.295109 107.17330,58.295109 C 107.17330,58.295109 107.17330,58.234452 107.17330,58.234452 C 107.17330,58.234452 107.23396,58.234452 107.23396,58.234452 z M 107.11365,58.539750 C 107.11365,58.539750 107.05301,58.600400 107.05301,58.600400 C 107.05301,58.600400 107.05301,58.539750 107.05301,58.539750 C 107.05301,58.539750 107.11365,58.539750 107.11365,58.539750 z M 106.99337,58.844037 C 106.99337,58.844037 106.93372,58.905696 106.93372,58.905696 C 106.93372,58.905696 106.93372,58.844037 106.93372,58.844037 C 106.93372,58.844037 106.99337,58.844037 106.99337,58.844037 z M 86.593083,59.149334 C 86.593083,59.149334 87.253209,59.149334 87.253209,59.149334 C 87.253209,59.149334 88.273218,59.088676 88.273218,59.088676 C 88.512801,59.027011 88.692744,58.966354 88.932333,59.027011 C 88.633102,59.270640 88.152920,59.758912 87.852676,59.881234 C 87.613093,60.002542 87.372493,59.881234 87.132910,59.819568 C 86.593083,59.758912 85.992601,59.575938 85.512419,59.270640 C 85.512419,59.270640 85.512419,59.149334 85.512419,59.149334 C 85.992601,59.027011 86.112901,59.088676 86.593083,59.149334 z M 73.452192,59.332308 C 73.452192,59.332308 73.392545,59.392965 73.392545,59.392965 C 73.392545,59.392965 73.392545,59.332308 73.392545,59.332308 C 73.392545,59.332308 73.452192,59.332308 73.452192,59.332308 z M 73.871719,60.124865 C 74.112316,60.490819 74.592506,61.162063 74.531848,61.649324 C 74.232620,61.100397 73.572490,60.064207 73.452192,59.453614 C 73.452192,59.453614 73.871719,60.124865 73.871719,60.124865 z M 72.972002,62.015278 C 73.331887,62.624862 74.412560,64.333311 74.592506,64.820572 C 73.932376,64.333311 73.272246,63.356764 72.792063,62.624862 C 72.671764,62.441882 72.252231,61.893971 72.252231,61.710992 C 72.192588,61.528018 72.311879,61.100397 72.311879,60.917423 C 72.552476,61.100397 72.851703,61.710992 72.972002,62.015278 z M 75.612521,63.845034 C 76.512231,64.882239 77.232009,65.735448 78.431964,66.406699 C 78.431964,66.406699 77.591895,65.552474 77.591895,65.552474 C 77.232009,65.186520 76.512231,64.333311 76.272645,63.845034 C 76.632530,64.150331 76.932774,64.516285 77.292660,64.820572 C 78.072078,65.491817 78.852507,66.162058 79.752224,66.650329 C 80.112109,66.833303 80.471995,67.076940 80.832890,67.199258 C 80.832890,67.199258 80.832890,66.893960 80.832890,66.893960 C 81.132124,67.076940 81.192776,67.199258 81.432362,67.442889 C 81.792248,67.748188 82.452378,68.235442 82.872920,68.480090 C 83.652339,68.906700 85.272835,69.211992 86.172546,69.333304 C 86.172546,69.333304 88.813045,69.455627 88.813045,69.455627 C 89.172927,69.455627 89.892694,69.394972 90.192940,69.516283 C 88.512801,70.065212 86.773026,70.004551 85.092891,69.699258 C 82.332079,69.089673 79.692576,67.808842 77.411949,66.040744 C 76.272645,65.186520 74.592506,63.539738 73.992017,62.198252 C 74.531848,62.441882 75.191978,63.356764 75.612521,63.845034 z "
     style="fill:#de0551;fill-opacity:1.0000000;stroke:none;stroke-width:0.54859185;stroke-miterlimit:4.0000000" />
  <rect
     rx="7.4109688"
     y="74.011971"
     x="29.526640"
     ry="7.4109688"
     height="43.331787"
     width="102.09166"
     id="rect853"
     style="fill:#ffffff;fill-rule:evenodd;stroke:#000000;stroke-width:3.4551513" />
  <path
     id="path889"
     d="M 95.675890,110.46571 L 95.675890,81.792534 L 113.43997,81.792534 C 115.79869,81.792534 117.77656,82.394499 119.37362,83.598427 C 121.19179,84.925205 122.10088,86.694242 122.10088,88.905539 C 122.10088,90.527157 121.72004,91.989070 120.95838,93.291282 C 120.58983,93.880961 120.14757,94.396930 119.63160,94.839189 C 119.11563,95.256876 118.42767,95.686853 117.56772,96.129113 C 119.04192,96.669646 120.22128,97.541882 121.10580,98.745832 C 121.99032,99.949764 122.43258,101.33796 122.43258,102.91044 C 122.43258,105.63771 121.51120,107.62787 119.66846,108.88094 C 118.16969,109.93745 116.09353,110.46571 113.43997,110.46571 L 95.675890,110.46571 z M 111.52351,93.770396 C 112.87486,93.770396 113.90679,93.450983 114.61933,92.812167 C 115.33185,92.173345 115.68812,91.288826 115.68812,90.158607 C 115.68812,87.726181 114.29992,86.509968 111.52351,86.509968 L 101.86752,86.509968 L 101.86752,93.770396 L 111.52351,93.770396 z M 111.52351,105.74827 C 112.87486,105.74827 113.90679,105.42886 114.61933,104.79004 C 115.33185,104.15123 115.68812,103.26671 115.68812,102.13649 C 115.68812,99.704061 114.29992,98.487848 111.52351,98.487848 L 101.86752,98.487848 L 101.86752,105.74827 L 111.52351,105.74827 z M 92.727491,98.487848 L 75.884781,98.487848 L 75.884781,98.672122 L 76.327040,100.92027 C 76.695589,102.09963 77.322124,103.15614 78.206642,104.08980 C 78.403202,104.23722 78.587476,104.36007 78.759466,104.45835 C 79.078876,104.65491 79.521136,104.88833 80.086245,105.15859 L 81.265603,105.45343 L 82.850366,105.56400 L 92.727491,105.56400 L 92.727491,110.46571 L 81.118183,110.46571 C 77.236129,110.46571 74.250878,109.23721 72.162431,106.78021 C 70.098554,104.29865 69.066615,100.74828 69.066615,96.129113 C 69.066615,91.460816 70.098554,87.910456 72.162431,85.478029 C 74.226308,83.021033 77.211559,81.792534 81.118183,81.792534 L 92.727491,81.792534 L 92.727491,86.731097 L 82.850366,86.731097 L 82.150122,86.731097 L 81.449878,86.804807 C 80.958479,86.804807 80.442509,86.927658 79.901970,87.173357 C 79.386001,87.419057 78.820892,87.763036 78.206642,88.205295 C 77.616963,88.794974 77.100994,89.568928 76.658734,90.527157 C 76.388465,91.165977 76.130481,92.185630 75.884781,93.586121 L 75.884781,93.770396 L 92.727491,93.770396 L 92.727491,98.487848 z M 39.066688,81.792534 L 54.287782,81.792534 C 58.145266,81.792534 61.081377,83.021033 63.096114,85.478029 C 65.110851,87.935026 66.118220,91.485386 66.118220,96.129113 C 66.118220,100.72372 65.110851,104.26179 63.096114,106.74336 C 61.105947,109.22492 58.169836,110.46571 54.287782,110.46571 L 39.066688,110.46571 L 39.066688,81.792534 z M 45.037190,105.56400 L 52.297614,105.56400 C 54.705471,105.56400 56.486794,104.79004 57.641582,103.24214 C 58.796370,101.66965 59.373764,99.298656 59.373764,96.129113 C 59.373764,92.959587 58.820940,90.600867 57.715292,89.052959 C 56.634214,87.505051 54.828321,86.731097 52.297614,86.731097 L 45.037190,86.731097 L 45.037190,105.56400 z "
     style="font-size:40.000000;stroke-width:1.0000000pt;font-family:Trek" />
  <metadata
     id="metadata33">
    <rdf:RDF
       id="RDF34">
      <cc:Work
         id="Work35"
         rdf:about="">
        <dc:format
           id="format36">image/svg+xml</dc:format>
        <dc:type
           rdf:resource="http://purl.org/dc/dcmitype/StillImage"
           id="type38" />
      </cc:Work>
    </rdf:RDF>
  </metadata>
</svg>
