<?xml version="1.0" encoding="UTF-8" standalone="no"?>
<!-- Created with Inkscape (http://www.inkscape.org/) -->
<svg
   xmlns:dc="http://purl.org/dc/elements/1.1/"
   xmlns:cc="http://web.resource.org/cc/"
   xmlns:rdf="http://www.w3.org/1999/02/22-rdf-syntax-ns#"
   xmlns:svg="http://www.w3.org/2000/svg"
   xmlns="http://www.w3.org/2000/svg"
   xmlns:xlink="http://www.w3.org/1999/xlink"
   xmlns:sodipodi="http://inkscape.sourceforge.net/DTD/sodipodi-0.dtd"
   xmlns:inkscape="http://www.inkscape.org/namespaces/inkscape"
   sodipodi:docname="gnome-mime-image-jpeg.svg"
   sodipodi:docbase="/home/francois/Rodent/scalable/mimetypes"
   height="128.00000pt"
   width="128.00000pt"
   inkscape:version="0.41"
   sodipodi:version="0.32"
   id="svg1">
  <metadata
     id="metadata15">
    <rdf:RDF
       id="RDF17">
      <cc:Work
         id="Work19"
         rdf:about="">
        <dc:format
           id="format21">image/svg+xml</dc:format>
        <dc:type
           rdf:resource="http://purl.org/dc/dcmitype/StillImage"
           id="type23" />
      </cc:Work>
    </rdf:RDF>
  </metadata>
  <defs
     id="defs3">
    <linearGradient
       id="linearGradient3587">
      <stop
         style="stop-color:#efe0cd;stop-opacity:0.56097561;"
         offset="0.0000000"
         id="stop3589" />
      <stop
         style="stop-color:#cececd;stop-opacity:0.21951219;"
         offset="1.0000000"
         id="stop3591" />
    </linearGradient>
    <linearGradient
       id="linearGradient2832">
      <stop
         id="stop2834"
         offset="0.0000000"
         style="stop-color:#ffffff;stop-opacity:1.0000000;" />
      <stop
         id="stop2836"
         offset="1.0000000"
         style="stop-color:#ffffff;stop-opacity:0.0000000;" />
    </linearGradient>
    <linearGradient
       id="linearGradient839">
      <stop
         id="stop840"
         offset="0.0000000"
         style="stop-color:#46a046;stop-opacity:1.0000000;" />
      <stop
         id="stop841"
         offset="0.39364964"
         style="stop-color:#df421e;stop-opacity:1.0000000;" />
      <stop
         id="stop842"
         offset="0.72036445"
         style="stop-color:#ada7c8;stop-opacity:1.0000000;" />
      <stop
         id="stop843"
         offset="1.0000000"
         style="stop-color:#eed680;stop-opacity:1.0000000;" />
    </linearGradient>
    <linearGradient
       y2="84.034923"
       x2="107.81382"
       y1="84.034923"
       x1="12.230590"
       id="linearGradient836"
       xlink:href="#linearGradient839"
       gradientTransform="scale(1.353569,0.738788)"
       gradientUnits="userSpaceOnUse" />
    <linearGradient
       gradientUnits="userSpaceOnUse"
       y2="73.398720"
       x2="72.999245"
       y1="16.369013"
       x1="23.983805"
       gradientTransform="matrix(0.939922,0.000000,0.000000,0.896911,4.950743,6.511692)"
       id="linearGradient2830"
       xlink:href="#linearGradient2832"
       inkscape:collect="always" />
    <linearGradient
       inkscape:collect="always"
       xlink:href="#linearGradient1700"
       id="linearGradient1407"
       gradientUnits="userSpaceOnUse"
       gradientTransform="matrix(0.777129,0.000000,0.000000,0.894628,-162.4688,12.76856)"
       x1="111.32588"
       y1="124.28045"
       x2="107.31592"
       y2="93.732185" />
    <linearGradient
       inkscape:collect="always"
       xlink:href="#linearGradient1700"
       id="linearGradient1390"
       gradientUnits="userSpaceOnUse"
       gradientTransform="matrix(0.777129,0.000000,0.000000,0.894628,-2.922179,10.43077)"
       x1="111.32588"
       y1="124.28045"
       x2="107.31592"
       y2="93.732185" />
    <linearGradient
       id="linearGradient1350">
      <stop
         id="stop1352"
         offset="0.0000000"
         style="stop-color:#46a046;stop-opacity:1.0000000;" />
      <stop
         id="stop1354"
         offset="0.39364964"
         style="stop-color:#df421e;stop-opacity:1.0000000;" />
      <stop
         id="stop1356"
         offset="0.72036445"
         style="stop-color:#ada7c8;stop-opacity:1.0000000;" />
      <stop
         id="stop1358"
         offset="1.0000000"
         style="stop-color:#eed680;stop-opacity:1.0000000;" />
    </linearGradient>
    <linearGradient
       y2="0.50000000"
       x2="1.0000000"
       y1="0.50000000"
       x1="1.3267924e-17"
       id="linearGradient1360"
       xlink:href="#linearGradient839" />
    <linearGradient
       gradientUnits="userSpaceOnUse"
       y2="87.980263"
       x2="128.66997"
       y1="121.73159"
       x1="123.50353"
       gradientTransform="matrix(0.870364,0.000000,0.000000,1.001961,4.612015,4.886798)"
       id="linearGradient1362"
       xlink:href="#linearGradient1700"
       inkscape:collect="always" />
    <linearGradient
       y2="0.50000000"
       x2="1.0000000"
       y1="0.50000000"
       x1="1.3267924e-17"
       id="linearGradient1363"
       xlink:href="#linearGradient839" />
    <linearGradient
       id="linearGradient1353">
      <stop
         id="stop1355"
         offset="0.0000000"
         style="stop-color:#46a046;stop-opacity:1.0000000;" />
      <stop
         id="stop1357"
         offset="0.39364964"
         style="stop-color:#df421e;stop-opacity:1.0000000;" />
      <stop
         id="stop1359"
         offset="0.72036445"
         style="stop-color:#ada7c8;stop-opacity:1.0000000;" />
      <stop
         id="stop1361"
         offset="1.0000000"
         style="stop-color:#eed680;stop-opacity:1.0000000;" />
    </linearGradient>
    <linearGradient
       id="linearGradient1700">
      <stop
         id="stop1701"
         offset="0.0000000"
         style="stop-color:#000000;stop-opacity:0.69918698;" />
      <stop
         id="stop1702"
         offset="1"
         style="stop-color:#000000;stop-opacity:0;" />
    </linearGradient>
    <linearGradient
       xlink:href="#linearGradient839"
       id="linearGradient1427"
       x1="1.3267924e-17"
       y1="0.50000000"
       x2="1.0000000"
       y2="0.50000000" />
    <linearGradient
       id="linearGradient1417">
      <stop
         style="stop-color:#46a046;stop-opacity:1.0000000;"
         offset="0.0000000"
         id="stop1419" />
      <stop
         style="stop-color:#df421e;stop-opacity:1.0000000;"
         offset="0.39364964"
         id="stop1421" />
      <stop
         style="stop-color:#ada7c8;stop-opacity:1.0000000;"
         offset="0.72036445"
         id="stop1423" />
      <stop
         style="stop-color:#eed680;stop-opacity:1.0000000;"
         offset="1.0000000"
         id="stop1425" />
    </linearGradient>
    <linearGradient
       y2="0.50000000"
       x2="1.0000000"
       y1="0.50000000"
       x1="1.3267924e-17"
       id="linearGradient1381"
       xlink:href="#linearGradient839" />
    <linearGradient
       id="linearGradient1371">
      <stop
         id="stop1373"
         offset="0.0000000"
         style="stop-color:#46a046;stop-opacity:1.0000000;" />
      <stop
         id="stop1375"
         offset="0.39364964"
         style="stop-color:#df421e;stop-opacity:1.0000000;" />
      <stop
         id="stop1377"
         offset="0.72036445"
         style="stop-color:#ada7c8;stop-opacity:1.0000000;" />
      <stop
         id="stop1379"
         offset="1.0000000"
         style="stop-color:#eed680;stop-opacity:1.0000000;" />
    </linearGradient>
    <linearGradient
       xlink:href="#linearGradient839"
       id="linearGradient1374"
       x1="1.3267924e-17"
       y1="0.50000000"
       x2="1.0000000"
       y2="0.50000000" />
    <linearGradient
       id="linearGradient1364">
      <stop
         style="stop-color:#46a046;stop-opacity:1.0000000;"
         offset="0.0000000"
         id="stop1366" />
      <stop
         style="stop-color:#df421e;stop-opacity:1.0000000;"
         offset="0.39364964"
         id="stop1368" />
      <stop
         style="stop-color:#ada7c8;stop-opacity:1.0000000;"
         offset="0.72036445"
         id="stop1370" />
      <stop
         style="stop-color:#eed680;stop-opacity:1.0000000;"
         offset="1.0000000"
         id="stop1372" />
    </linearGradient>
    <linearGradient
       xlink:href="#linearGradient839"
       id="linearGradient1389"
       x1="1.3267924e-17"
       y1="0.50000000"
       x2="1.0000000"
       y2="0.50000000" />
    <linearGradient
       id="linearGradient833">
      <stop
         style="stop-color:#00ff00;stop-opacity:1.0000000;"
         offset="0.0000000"
         id="stop834" />
      <stop
         style="stop-color:#ff0000;stop-opacity:1.0000000;"
         offset="0.30839416"
         id="stop837" />
      <stop
         style="stop-color:#7f8cff;stop-opacity:1.0000000;"
         offset="0.75000000"
         id="stop838" />
      <stop
         style="stop-color:#ffff00;stop-opacity:1.0000000;"
         offset="1.0000000"
         id="stop835" />
    </linearGradient>
    <linearGradient
       id="linearGradient1373">
      <stop
         style="stop-color:#46a046;stop-opacity:1.0000000;"
         offset="0.0000000"
         id="stop1376" />
      <stop
         style="stop-color:#df421e;stop-opacity:1.0000000;"
         offset="0.39364964"
         id="stop1378" />
      <stop
         style="stop-color:#ada7c8;stop-opacity:1.0000000;"
         offset="0.72036445"
         id="stop1380" />
      <stop
         style="stop-color:#eed680;stop-opacity:1.0000000;"
         offset="1.0000000"
         id="stop1382" />
    </linearGradient>
    <linearGradient
       inkscape:collect="always"
       xlink:href="#linearGradient839"
       id="linearGradient1401"
       gradientUnits="userSpaceOnUse"
       gradientTransform="matrix(1.222575,0.000000,0.000000,0.738788,6.379309,2.121523)"
       x1="12.230590"
       y1="84.034923"
       x2="107.81382"
       y2="84.034923" />
    <linearGradient
       xlink:href="#linearGradient839"
       id="linearGradient2974"
       x1="1.3267924e-17"
       y1="0.50000000"
       x2="1.0000000"
       y2="0.50000000" />
    <linearGradient
       id="linearGradient2964">
      <stop
         style="stop-color:#00ff00;stop-opacity:1.0000000;"
         offset="0.0000000"
         id="stop2966" />
      <stop
         style="stop-color:#ff0000;stop-opacity:1.0000000;"
         offset="0.30839416"
         id="stop2968" />
      <stop
         style="stop-color:#7f8cff;stop-opacity:1.0000000;"
         offset="0.75000000"
         id="stop2970" />
      <stop
         style="stop-color:#ffff00;stop-opacity:1.0000000;"
         offset="1.0000000"
         id="stop2972" />
    </linearGradient>
    <linearGradient
       id="linearGradient2954">
      <stop
         style="stop-color:#46a046;stop-opacity:1.0000000;"
         offset="0.0000000"
         id="stop2956" />
      <stop
         style="stop-color:#df421e;stop-opacity:1.0000000;"
         offset="0.39364964"
         id="stop2958" />
      <stop
         style="stop-color:#ada7c8;stop-opacity:1.0000000;"
         offset="0.72036445"
         id="stop2960" />
      <stop
         style="stop-color:#eed680;stop-opacity:1.0000000;"
         offset="1.0000000"
         id="stop2962" />
    </linearGradient>
    <linearGradient
       inkscape:collect="always"
       xlink:href="#linearGradient839"
       id="linearGradient2987"
       gradientUnits="userSpaceOnUse"
       gradientTransform="matrix(1.353569,0.000000,0.000000,0.738788,-182.1667,-25.68190)"
       x1="12.230590"
       y1="84.034923"
       x2="107.81382"
       y2="84.034923" />
    <linearGradient
       y2="0.50000000"
       x2="1.0000000"
       y1="0.50000000"
       x1="1.3267924e-17"
       id="linearGradient1418"
       xlink:href="#linearGradient839" />
    <linearGradient
       id="linearGradient1408">
      <stop
         id="stop1410"
         offset="0.0000000"
         style="stop-color:#00ff00;stop-opacity:1.0000000;" />
      <stop
         id="stop1412"
         offset="0.30839416"
         style="stop-color:#ff0000;stop-opacity:1.0000000;" />
      <stop
         id="stop1414"
         offset="0.75000000"
         style="stop-color:#7f8cff;stop-opacity:1.0000000;" />
      <stop
         id="stop1416"
         offset="1.0000000"
         style="stop-color:#ffff00;stop-opacity:1.0000000;" />
    </linearGradient>
    <linearGradient
       id="linearGradient1397">
      <stop
         id="stop1399"
         offset="0.0000000"
         style="stop-color:#46a046;stop-opacity:1.0000000;" />
      <stop
         id="stop1401"
         offset="0.39364964"
         style="stop-color:#df421e;stop-opacity:1.0000000;" />
      <stop
         id="stop1403"
         offset="0.72036445"
         style="stop-color:#ada7c8;stop-opacity:1.0000000;" />
      <stop
         id="stop1405"
         offset="1.0000000"
         style="stop-color:#eed680;stop-opacity:1.0000000;" />
    </linearGradient>
    <linearGradient
       y2="84.034923"
       x2="107.81382"
       y1="84.034923"
       x1="12.230590"
       gradientTransform="matrix(1.353569,0.000000,0.000000,0.738788,-194.7091,-13.83491)"
       gradientUnits="userSpaceOnUse"
       id="linearGradient1431"
       xlink:href="#linearGradient839"
       inkscape:collect="always" />
    <linearGradient
       xlink:href="#linearGradient839"
       id="linearGradient1430"
       x1="1.3267924e-17"
       y1="0.50000000"
       x2="1.0000000"
       y2="0.50000000" />
    <linearGradient
       id="linearGradient1419">
      <stop
         style="stop-color:#00ff00;stop-opacity:1.0000000;"
         offset="0.0000000"
         id="stop1422" />
      <stop
         style="stop-color:#ff0000;stop-opacity:1.0000000;"
         offset="0.30839416"
         id="stop1424" />
      <stop
         style="stop-color:#7f8cff;stop-opacity:1.0000000;"
         offset="0.75000000"
         id="stop1426" />
      <stop
         style="stop-color:#ffff00;stop-opacity:1.0000000;"
         offset="1.0000000"
         id="stop1428" />
    </linearGradient>
    <linearGradient
       id="linearGradient1409">
      <stop
         style="stop-color:#46a046;stop-opacity:1.0000000;"
         offset="0.0000000"
         id="stop1411" />
      <stop
         style="stop-color:#df421e;stop-opacity:1.0000000;"
         offset="0.39364964"
         id="stop1413" />
      <stop
         style="stop-color:#ada7c8;stop-opacity:1.0000000;"
         offset="0.72036445"
         id="stop1415" />
      <stop
         style="stop-color:#eed680;stop-opacity:1.0000000;"
         offset="1.0000000"
         id="stop1417" />
    </linearGradient>
    <linearGradient
       inkscape:collect="always"
       xlink:href="#linearGradient839"
       id="linearGradient1443"
       gradientUnits="userSpaceOnUse"
       gradientTransform="matrix(1.353569,0.000000,0.000000,0.738788,-178.4379,0.402376)"
       x1="12.230590"
       y1="84.034923"
       x2="107.81382"
       y2="84.034923" />
  </defs>
  <sodipodi:namedview
     inkscape:current-layer="svg1"
     inkscape:window-y="34"
     inkscape:window-x="0"
     gridspacingy="1.0000000mm"
     gridspacingx="1.0000000mm"
     snaptogrid="false"
     showgrid="true"
     inkscape:window-height="653"
     inkscape:window-width="756"
     inkscape:cy="80.000000"
     inkscape:cx="80.000000"
     inkscape:zoom="2.9500000"
     inkscape:pageshadow="2"
     inkscape:pageopacity="0.0"
     borderopacity="1.0"
     bordercolor="#666666"
     pagecolor="#ffffff"
     id="base" />
  <rect
     rx="22.892691"
     ry="22.892691"
     y="13.614116"
     x="20.782476"
     height="133.38696"
     width="117.75612"
     id="rect834"
     style="stroke-miterlimit:4.0000000;stroke-dasharray:none;stroke-opacity:0.49999997;stroke-linejoin:round;stroke-width:7.5000000;stroke:#000000;fill-rule:evenodd;fill:none" />
  <rect
     rx="22.892691"
     ry="22.892691"
     y="13.524447"
     x="20.643702"
     height="133.38696"
     width="117.75612"
     id="rect828"
     style="stroke-miterlimit:4.0000000;stroke-dasharray:none;fill:#df421e;fill-opacity:1.0000000;fill-rule:evenodd;stroke:#000000;stroke-width:3.7500000" />
  <rect
     style="fill:url(#linearGradient1401);fill-rule:evenodd;stroke:#000000;stroke-width:3.2727857"
     id="rect832"
     width="113.74728"
     height="67.172066"
     ry="1.2896985"
     x="22.887306"
     y="30.619467"
     rx="1.2896985" />
  <path
     sodipodi:nodetypes="cccccc"
     id="path2838"
     d="M 117.38055,142.41910 L 41.662967,142.41910 C 30.018294,142.41910 24.316361,136.71717 24.316361,125.07250 C 24.316361,125.07250 51.936692,58.557014 134.72716,48.414718 L 134.72716,125.07250 C 134.72716,136.71717 129.02522,142.41910 117.38055,142.41910 z "
     style="stroke-width:6.2500000;stroke:none;fill-rule:evenodd;fill-opacity:0.27935222;fill:#ffffff" />
  <path
     sodipodi:nodetypes="cccccc"
     id="rect2063"
     d="M 41.662967,17.197108 L 117.38055,17.197108 C 129.02522,17.197108 134.72716,22.899041 134.72716,34.543716 C 134.72716,34.543716 55.440598,35.449314 24.316361,125.89213 L 24.316361,34.543716 C 24.316361,24.254973 31.374226,17.197108 41.662967,17.197108 z "
     style="fill:url(#linearGradient2830);fill-opacity:1.0000000;fill-rule:evenodd;stroke:none;stroke-width:6.2500000" />
  <path
     style="font-size:40.000000;stroke-width:1.0000000pt;font-family:Trek"
     d="M 106.47307,137.46646 C 102.25974,137.46646 99.019741,136.13312 96.753073,133.46646 C 94.513073,130.77312 93.393073,126.91979 93.393073,121.90646 C 93.393073,116.83979 94.513073,112.98646 96.753073,110.34646 C 98.993071,107.67979 102.23307,106.34646 106.47307,106.34646 L 123.23307,106.34646 L 123.23307,111.70646 L 108.47307,111.70646 C 105.91307,111.70646 103.99307,112.55979 102.71307,114.26646 C 101.43307,115.97312 100.79307,118.51979 100.79307,121.90646 C 100.79307,125.31979 101.39307,127.87979 102.59307,129.58646 C 103.79307,131.29312 105.75307,132.14646 108.47307,132.14646 L 116.59307,132.14646 L 116.59307,124.46646 L 107.83307,124.46646 L 107.83307,119.34646 L 123.23307,119.34646 L 123.23307,137.46646 L 106.47307,137.46646 z M 68.873071,126.34646 L 68.873071,137.46646 L 62.153071,137.46646 L 62.153071,106.34646 L 80.833073,106.34646 C 83.713073,106.34646 85.993073,107.19979 87.673073,108.90646 C 89.353073,110.58646 90.193073,113.06646 90.193073,116.34646 C 90.193073,119.59979 89.353073,122.07979 87.673073,123.78646 C 85.993073,125.49312 83.713073,126.34646 80.833073,126.34646 L 68.873071,126.34646 z M 68.873071,111.70646 L 68.873071,121.02646 L 77.793073,121.02646 C 79.259739,121.02646 80.459739,120.65312 81.393073,119.90646 C 82.326406,119.13312 82.793073,117.94646 82.793073,116.34646 C 82.793073,114.77312 82.326406,113.61312 81.393073,112.86646 C 80.486406,112.09312 79.286406,111.70646 77.793073,111.70646 L 68.873071,111.70646 z M 35.433071,137.46646 L 35.433071,132.14646 L 44.153071,132.14646 C 45.193071,132.14646 46.059741,132.01312 46.753071,131.74646 C 47.099741,131.63979 47.446401,131.47979 47.793071,131.26646 L 48.353071,130.86646 L 48.913071,130.34646 L 49.713071,129.42646 L 50.273071,128.34646 C 50.379741,127.94646 50.473071,127.51979 50.553071,127.06646 C 50.633071,126.61312 50.673071,126.17312 50.673071,125.74646 L 50.673071,106.34646 L 57.313071,106.34646 L 57.313071,126.18646 C 57.313071,128.07979 57.059741,129.77312 56.553071,131.26646 C 56.046401,132.73312 55.259741,133.91979 54.193071,134.82646 C 53.259741,135.65312 52.139741,136.31979 50.833071,136.82646 L 48.793071,137.30646 L 46.473071,137.46646 L 35.433071,137.46646 z "
     id="path853" />
  <path
     style="font-size:40.000000;fill:#ffffff;fill-opacity:1.0000000;stroke-width:1.0000000pt;font-family:Trek"
     d="M 105.79511,136.78850 C 101.58178,136.78850 98.341775,135.45516 96.075107,132.78850 C 93.835107,130.09516 92.715107,126.24183 92.715107,121.22850 C 92.715107,116.16183 93.835107,112.30850 96.075107,109.66850 C 98.315105,107.00183 101.55511,105.66850 105.79511,105.66850 L 122.55511,105.66850 L 122.55511,111.02850 L 107.79511,111.02850 C 105.23511,111.02850 103.31511,111.88183 102.03511,113.58850 C 100.75511,115.29516 100.11511,117.84183 100.11511,121.22850 C 100.11511,124.64183 100.71511,127.20183 101.91511,128.90850 C 103.11511,130.61516 105.07511,131.46850 107.79511,131.46850 L 115.91511,131.46850 L 115.91511,123.78850 L 107.15511,123.78850 L 107.15511,118.66850 L 122.55511,118.66850 L 122.55511,136.78850 L 105.79511,136.78850 z M 68.195105,125.66850 L 68.195105,136.78850 L 61.475105,136.78850 L 61.475105,105.66850 L 80.155107,105.66850 C 83.035107,105.66850 85.315107,106.52183 86.995107,108.22850 C 88.675107,109.90850 89.515107,112.38850 89.515107,115.66850 C 89.515107,118.92183 88.675107,121.40183 86.995107,123.10850 C 85.315107,124.81516 83.035107,125.66850 80.155107,125.66850 L 68.195105,125.66850 z M 68.195105,111.02850 L 68.195105,120.34850 L 77.115107,120.34850 C 78.581773,120.34850 79.781773,119.97516 80.715107,119.22850 C 81.648440,118.45516 82.115107,117.26850 82.115107,115.66850 C 82.115107,114.09516 81.648440,112.93516 80.715107,112.18850 C 79.808440,111.41516 78.608440,111.02850 77.115107,111.02850 L 68.195105,111.02850 z M 34.755105,136.78850 L 34.755105,131.46850 L 43.475105,131.46850 C 44.515105,131.46850 45.381775,131.33516 46.075105,131.06850 C 46.421775,130.96183 46.768435,130.80183 47.115105,130.58850 L 47.675105,130.18850 L 48.235105,129.66850 L 49.035105,128.74850 L 49.595105,127.66850 C 49.701775,127.26850 49.795105,126.84183 49.875105,126.38850 C 49.955105,125.93516 49.995105,125.49516 49.995105,125.06850 L 49.995105,105.66850 L 56.635105,105.66850 L 56.635105,125.50850 C 56.635105,127.40183 56.381775,129.09516 55.875105,130.58850 C 55.368435,132.05516 54.581775,133.24183 53.515105,134.14850 C 52.581775,134.97516 51.461775,135.64183 50.155105,136.14850 L 48.115105,136.62850 L 45.795105,136.78850 L 34.755105,136.78850 z "
     id="path1447" />
</svg>
