<?xml version="1.0" encoding="UTF-8" standalone="no"?>
<!-- Created with Inkscape (http://www.inkscape.org/) -->

<svg
   xmlns:dc="http://purl.org/dc/elements/1.1/"
   xmlns:cc="http://creativecommons.org/ns#"
   xmlns:rdf="http://www.w3.org/1999/02/22-rdf-syntax-ns#"
   xmlns:svg="http://www.w3.org/2000/svg"
   xmlns="http://www.w3.org/2000/svg"
   xmlns:xlink="http://www.w3.org/1999/xlink"
   xmlns:sodipodi="http://sodipodi.sourceforge.net/DTD/sodipodi-0.dtd"
   xmlns:inkscape="http://www.inkscape.org/namespaces/inkscape"
   inkscape:export-ydpi="27.000000"
   inkscape:export-xdpi="27.000000"
   inkscape:export-filename="/home/francois/Images/Rodent/Rodent/scalable/apps/xfce-sound.png"
   sodipodi:docname="xfce-sound.svg"
   height="128.00000pt"
   width="128.00000pt"
   inkscape:version="0.47pre4 r22446"
   sodipodi:version="0.32"
   id="svg1"
   version="1.1">
  <defs
     id="defs3">
    <inkscape:perspective
       sodipodi:type="inkscape:persp3d"
       inkscape:vp_x="0 : 80 : 1"
       inkscape:vp_y="0 : 1000 : 0"
       inkscape:vp_z="160 : 80 : 1"
       inkscape:persp3d-origin="80 : 53.333333 : 1"
       id="perspective39" />
    <linearGradient
       id="linearGradient1700">
      <stop
         id="stop1701"
         offset="0.0000000"
         style="stop-color:#000000;stop-opacity:0.69918698;" />
      <stop
         id="stop1702"
         offset="1"
         style="stop-color:#000000;stop-opacity:0;" />
    </linearGradient>
    <linearGradient
       id="linearGradient839">
      <stop
         id="stop840"
         offset="0.0000000"
         style="stop-color:#46a046;stop-opacity:1.0000000;" />
      <stop
         id="stop841"
         offset="0.39364964"
         style="stop-color:#df421e;stop-opacity:1.0000000;" />
      <stop
         id="stop842"
         offset="0.72036445"
         style="stop-color:#ada7c8;stop-opacity:1.0000000;" />
      <stop
         id="stop843"
         offset="1.0000000"
         style="stop-color:#eed680;stop-opacity:1.0000000;" />
    </linearGradient>
    <linearGradient
       y2="0.50000000"
       x2="1.0000000"
       y1="0.50000000"
       x1="1.3267924e-17"
       id="linearGradient836"
       xlink:href="#linearGradient839" />
    <linearGradient
       gradientUnits="userSpaceOnUse"
       y2="93.732185"
       x2="107.31592"
       y1="124.28045"
       x1="111.32588"
       gradientTransform="matrix(0.919657,0,0,1.058706,-6.3321188,-2.7503184)"
       id="linearGradient1703"
       xlink:href="#linearGradient1700"
       inkscape:collect="always" />
    <linearGradient
       gradientUnits="userSpaceOnUse"
       y2="87.980263"
       x2="128.66997"
       y1="121.73159"
       x1="123.50353"
       gradientTransform="matrix(0.870364,0.000000,0.000000,1.001961,4.612015,4.886798)"
       id="linearGradient1362"
       xlink:href="#linearGradient1700"
       inkscape:collect="always" />
    <linearGradient
       y2="0.50000000"
       x2="1.0000000"
       y1="0.50000000"
       x1="1.3267924e-17"
       id="linearGradient1360"
       xlink:href="#linearGradient839" />
    <linearGradient
       id="linearGradient1350">
      <stop
         id="stop1352"
         offset="0.0000000"
         style="stop-color:#46a046;stop-opacity:1.0000000;" />
      <stop
         id="stop1354"
         offset="0.39364964"
         style="stop-color:#df421e;stop-opacity:1.0000000;" />
      <stop
         id="stop1356"
         offset="0.72036445"
         style="stop-color:#ada7c8;stop-opacity:1.0000000;" />
      <stop
         id="stop1358"
         offset="1.0000000"
         style="stop-color:#eed680;stop-opacity:1.0000000;" />
    </linearGradient>
    <linearGradient
       inkscape:collect="always"
       xlink:href="#linearGradient1700"
       id="linearGradient1390"
       gradientUnits="userSpaceOnUse"
       gradientTransform="matrix(0.777129,0.000000,0.000000,0.894628,-2.922179,10.43077)"
       x1="111.32588"
       y1="124.28045"
       x2="107.31592"
       y2="93.732185" />
    <linearGradient
       inkscape:collect="always"
       xlink:href="#linearGradient1700"
       id="linearGradient1407"
       gradientUnits="userSpaceOnUse"
       gradientTransform="matrix(0.777129,0.000000,0.000000,0.894628,-162.4688,12.76856)"
       x1="111.32588"
       y1="124.28045"
       x2="107.31592"
       y2="93.732185" />
    <linearGradient
       xlink:href="#linearGradient826"
       id="linearGradient839-2"
       x1="43.048252"
       y1="108.43548"
       x2="52.922692"
       y2="118.89303"
       spreadMethod="reflect"
       gradientTransform="matrix(0.945763,0,0,0.932067,4.278885,4.248903)"
       gradientUnits="userSpaceOnUse" />
    <linearGradient
       xlink:href="#linearGradient832"
       id="linearGradient838"
       x1="76.588139"
       y1="55.388818"
       x2="160.80687"
       y2="129.71553"
       spreadMethod="reflect"
       gradientTransform="matrix(0.945884,0,0,0.931948,4.278885,4.248903)"
       gradientUnits="userSpaceOnUse" />
    <linearGradient
       xlink:href="#linearGradient832"
       id="linearGradient831"
       x1="6.8050215"
       y1="82.187533"
       x2="157.20624"
       y2="82.187533"
       gradientTransform="matrix(0.936241,0,0,0.941546,4.278885,4.248903)"
       gradientUnits="userSpaceOnUse" />
    <linearGradient
       xlink:href="#linearGradient826"
       id="linearGradient829"
       x1="0.025641026"
       y1="0.46766168"
       x2="0.43589744"
       y2="0.47761193" />
    <linearGradient
       id="linearGradient826">
      <stop
         style="stop-color:#eed680;stop-opacity:1.0000000;"
         offset="0.0000000"
         id="stop827" />
      <stop
         style="stop-color:#dfb546;stop-opacity:1.0000000;"
         offset="0.34620437"
         id="stop840-2" />
      <stop
         style="stop-color:#d1940c;stop-opacity:1.0000000;"
         offset="1.0000000"
         id="stop828" />
    </linearGradient>
    <linearGradient
       id="linearGradient832">
      <stop
         style="stop-color:#ffffff;stop-opacity:1.0000000;"
         offset="0.0000000"
         id="stop833" />
      <stop
         style="stop-color:#bdbcbc;stop-opacity:1.0000000;"
         offset="0.50000000"
         id="stop835" />
      <stop
         style="stop-color:#7b7979;stop-opacity:1.0000000;"
         offset="1.0000000"
         id="stop834" />
    </linearGradient>
    <inkscape:perspective
       id="perspective2865"
       inkscape:persp3d-origin="80 : 53.333333 : 1"
       inkscape:vp_z="160 : 80 : 1"
       inkscape:vp_y="0 : 1000 : 0"
       inkscape:vp_x="0 : 80 : 1"
       sodipodi:type="inkscape:persp3d" />
  </defs>
  <sodipodi:namedview
     inkscape:current-layer="svg1"
     inkscape:window-y="49"
     inkscape:window-x="40"
     snaptogrid="true"
     showgrid="false"
     inkscape:window-height="653"
     inkscape:window-width="1234"
     inkscape:cy="80"
     inkscape:cx="80"
     inkscape:zoom="1.0429825"
     inkscape:pageshadow="2"
     inkscape:pageopacity="0.0"
     borderopacity="1.0"
     bordercolor="#666666"
     pagecolor="#ffffff"
     id="base"
     inkscape:window-maximized="0">
    <inkscape:grid
       id="GridFromPre046Settings"
       type="xygrid"
       originx="0px"
       originy="0px"
       spacingx="1.0000000mm"
       spacingy="1.0000000mm"
       color="#0000ff"
       empcolor="#0000ff"
       opacity="0.2"
       empopacity="0.4"
       empspacing="5" />
  </sodipodi:namedview>
  <path
     style="fill:#4b6983;fill-rule:evenodd;stroke:#000000;stroke-width:3.75;stroke-linejoin:round;stroke-miterlimit:4;stroke-opacity:0.47727272;stroke-dasharray:none"
     d="M 63.392521,7.0896896 C 42.201994,8.4656516 20.395715,32.222024 11.880788,65.151682 c -9.7313488,37.633908 1.594701,73.071658 25.278906,79.111858 6.243843,1.59238 12.706767,0.92435 19.046623,-1.52626 l 60.446813,-29.50797 c 5.5983,-4.92008 12.81285,-6.50732 16.18486,-17.711141 3.37202,-11.203789 1.28576,-17.153149 -3.21153,-25.24711 L 86.032247,15.865764 C 82.126996,12.019359 77.568538,9.2368076 72.391176,7.9164206 69.430652,7.1613966 66.41974,6.8931236 63.392521,7.0896896 z"
     id="path1539"
     sodipodi:nodetypes="cccccccccc"
     inkscape:export-xdpi="27.000000"
     inkscape:export-ydpi="27.000000" />
  <path
     sodipodi:nodetypes="ccczcc"
     id="path831"
     d="M 85.27504,16.729001 57.594969,140.72957 116.3508,112.58934 c 6.78486,-4.77125 12.41492,-6.32493 15.68491,-17.189813 3.27,-10.864867 1.26785,-16.643896 -3.09337,-24.493003 L 85.27504,16.729001 z"
     style="fill:#7590ae;fill-opacity:1;fill-rule:evenodd;stroke:#000000;stroke-width:2.52408385;stroke-linejoin:round;stroke-miterlimit:4" />
  <path
     transform="matrix(0.939421,0.239581,-0.241243,0.932955,-21.604961,-20.876955)"
     d="m 145.27559,78.503937 a 44.29134,70.866142 0 1 1 -88.582677,0 44.29134,70.866142 0 1 1 88.582677,0 z"
     sodipodi:ry="70.866142"
     sodipodi:rx="44.29134"
     sodipodi:cy="78.503937"
     sodipodi:cx="100.98425"
     id="path825"
     style="fill:#9db8d2;fill-opacity:1;fill-rule:evenodd;stroke:#000000;stroke-width:2.61141491;stroke-miterlimit:4"
     sodipodi:type="arc" />
  <path
     transform="matrix(1.131177,0.288486,-0.265628,1.027252,-40.810011,-41.669025)"
     d="m 131.10237,85.590553 a 28.346457,56.692913 0 1 1 -56.692914,0 28.346457,56.692913 0 1 1 56.692914,0 z"
     sodipodi:ry="56.692913"
     sodipodi:rx="28.346457"
     sodipodi:cy="85.590553"
     sodipodi:cx="102.75591"
     id="path4029"
     style="fill:#7590ae;fill-opacity:1;fill-rule:evenodd;stroke:#000000;stroke-width:3.4019165;stroke-miterlimit:4;stroke-opacity:0.45909095"
     sodipodi:type="arc" />
  <path
     transform="matrix(1.131177,0.288486,-0.265628,1.027252,-40.810011,-41.669025)"
     d="m 131.10237,85.590553 a 28.346457,56.692913 0 1 1 -56.692914,0 28.346457,56.692913 0 1 1 56.692914,0 z"
     sodipodi:ry="56.692913"
     sodipodi:rx="28.346457"
     sodipodi:cy="85.590553"
     sodipodi:cx="102.75591"
     id="path826"
     style="fill:#7590ae;fill-opacity:1;fill-rule:evenodd;stroke:#000000;stroke-width:2.27473211"
     sodipodi:type="arc" />
  <path
     sodipodi:nodetypes="cccccc"
     id="path2788"
     d="m 54.308586,19.687254 c 0,0 4.606524,19.244386 5.579318,42.861294 0.972792,23.616909 -5.091285,29.947178 -7.361141,34.355697 -2.269846,4.408485 -7.782351,18.825105 -22.374272,32.365455 11.673532,9.70142 42.575651,5.55798 55.512824,-55.794077 C 90.529292,34.428997 74.737274,11.245477 54.308586,19.687254 z"
     style="fill:#ffffff;fill-opacity:0.46558706;fill-rule:evenodd;stroke:none" />
  <path
     transform="matrix(0.939421,0.239581,-0.276433,1.069045,51.006149,16.111015)"
     d="m 46.062994,51.929134 a 12.401575,19.48819 0 1 1 -24.80315,0 12.401575,19.48819 0 1 1 24.80315,0 z"
     sodipodi:ry="19.48819"
     sodipodi:rx="12.401575"
     sodipodi:cy="51.929134"
     sodipodi:cx="33.661419"
     id="path5272"
     style="fill:#314e6c;fill-opacity:1;fill-rule:evenodd;stroke:#000000;stroke-width:4.45297623;stroke-miterlimit:4;stroke-opacity:0.5"
     sodipodi:type="arc" />
  <path
     transform="matrix(0.939421,0.239581,-0.276433,1.069045,51.006149,16.111015)"
     d="m 46.062994,51.929134 a 12.401575,19.48819 0 1 1 -24.80315,0 12.401575,19.48819 0 1 1 24.80315,0 z"
     sodipodi:ry="19.48819"
     sodipodi:rx="12.401575"
     sodipodi:cy="51.929134"
     sodipodi:cx="33.661419"
     id="path827"
     style="fill:#314e6c;fill-opacity:1;fill-rule:evenodd;stroke:#000000;stroke-width:1pt"
     sodipodi:type="arc" />
  <metadata
     id="metadata17">
    <rdf:RDF>
      <cc:Work
         rdf:about="">
        <dc:format>image/svg+xml</dc:format>
        <dc:type
           rdf:resource="http://purl.org/dc/dcmitype/StillImage" />
        <dc:title></dc:title>
      </cc:Work>
    </rdf:RDF>
  </metadata>
  <path
     transform="matrix(0.939421,0.239581,-0.241243,0.932955,-21.604961,-20.876955)"
     d="m 145.27559,78.503937 a 44.29134,70.866142 0 1 1 -88.582677,0 44.29134,70.866142 0 1 1 88.582677,0 z"
     sodipodi:ry="70.866142"
     sodipodi:rx="44.29134"
     sodipodi:cy="78.503937"
     sodipodi:cx="100.98425"
     id="path922"
     style="fill:none;stroke:#000000;stroke-width:3.91712236;stroke-miterlimit:4;stroke-opacity:0.46136367"
     sodipodi:type="arc" />
  <path
     sodipodi:nodetypes="ccc"
     id="path923"
     d="M 53.117947,17.236085 C 32.040736,14.317707 -10.855817,91.32221 27.407433,132.50384 -2.0672435,97.142285 24.104605,25.870891 53.117947,17.236085 z"
     style="fill:#ffffff;fill-opacity:1;fill-rule:evenodd;stroke:none" />
  <path
     sodipodi:nodetypes="ccc"
     id="path1545"
     d="M 62.891609,98.919675 C 49.272498,86.597615 63.215873,60.007912 71.646757,60.656444 56.730586,77.518205 70.349699,93.731431 62.891609,98.919675 z"
     style="fill:#ffffff;fill-opacity:1;fill-rule:evenodd;stroke:none" />
  <path
     sodipodi:nodetypes="csccc"
     id="path1078"
     d="m 90.634168,105.72926 -17.510297,25.29263 c -2.968916,4.28843 48.639699,-16.21324 57.070589,-33.074985 4.53972,-16.861781 -28.5353,-29.18384 -28.5353,-29.18384 L 90.634168,105.72926 z"
     style="fill:url(#linearGradient1703);fill-opacity:1;fill-rule:evenodd;stroke:none" />
  <path
     sodipodi:nodetypes="ccc"
     id="path2074"
     d="M 57.858413,137.55371 C 78.935624,140.59472 123.03563,61.190127 84.772388,18.27785 111.03783,56.797533 86.069447,124.3759 57.858413,137.55371 z"
     style="fill:#000000;fill-opacity:0.29959513;fill-rule:evenodd;stroke:none" />
  <path
     sodipodi:nodetypes="ccc"
     id="path5112"
     d="M 56.083141,135.813 C 77.160352,138.73138 120.05691,61.726908 81.793655,20.545273 111.26834,55.906833 85.096483,127.17819 56.083141,135.813 z"
     style="fill:#000000;fill-opacity:0.3319838;fill-rule:evenodd;stroke:none" />
  <g
     id="g2880"
     transform="matrix(0.75145044,0,0,0.75145044,42.486259,39.598008)">
    <path
       style="fill:url(#linearGradient831);fill-rule:evenodd;stroke:#000000;stroke-width:3.54451346;stroke-opacity:0.47741933"
       d="m 120.99099,19.270522 -16.59521,16.682025 2.75008,19.478257 19.34529,2.796234 16.5952,-16.682023 c 0,0 16.57152,16.705866 -2.78956,36.168228 -22.12694,22.242708 -35.93259,2.756494 -44.226247,5.532857 l -66.380825,66.7281 c -5.52779,-0.004 -8.293653,2.77637 -13.817494,-2.79227 -5.52384,-5.56861 -2.757978,-8.34894 -2.754028,-13.91361 L 79.499036,66.540231 C 82.268852,58.195243 62.931461,44.269714 85.058407,22.027015 104.41948,2.5646547 120.99099,19.270522 120.99099,19.270522 z"
       id="path836"
       sodipodi:nodetypes="ccccccccccccc" />
    <path
       style="fill-opacity:0.3677419;fill-rule:evenodd;stroke:#000000;stroke-width:3.57729673;stroke-opacity:0.47096773"
       d="m 92.680282,93.175591 -59.60974,57.949149 c -5.305824,-1.94984 -11.346129,-0.008 -17.015144,-5.53475 -5.669015,-5.52685 -4.473951,-11.91089 -5.660915,-16.57267 l 59.60974,-57.949147 c 5.669015,5.526855 17.007044,16.580563 22.676059,22.107418 z"
       id="path837"
       sodipodi:nodetypes="cccccc" />
    <path
       style="fill:url(#linearGradient838);fill-rule:evenodd;stroke:#000000;stroke-width:3.52083778"
       d="m 120.27333,16.390472 -16.65853,16.397344 2.76057,19.145859 19.4191,2.748518 16.65853,-16.397345 c 0,0 16.63476,16.42078 -2.8002,35.551015 -22.21138,21.863122 -36.06971,2.709454 -44.394989,5.438438 L 28.623679,144.86368 c -5.548884,-0.004 -8.3253,2.72899 -13.870219,-2.74461 -5.5449178,-5.47359 -2.768501,-8.20649 -2.764537,-13.67617 L 78.623054,62.853518 C 81.40344,54.650941 61.992263,40.96305 84.20364,19.099925 c 19.43493,-19.1302349 36.06969,-2.709453 36.06969,-2.709453 z"
       id="path834"
       sodipodi:nodetypes="ccccccccccccc" />
    <path
       style="fill:url(#linearGradient839-2);fill-rule:evenodd;stroke:#000000;stroke-width:2.34722519"
       d="M 89.701003,90.209774 31.396137,147.60048 c -2.772458,-2.7368 -11.097758,-0.008 -16.642677,-5.48141 C 9.2085422,136.64548 11.988923,128.4429 9.2164642,125.70611 L 67.521329,68.315393 c 5.544919,5.473595 16.634756,16.420783 22.179674,21.894381 z"
       id="path830"
       sodipodi:nodetypes="cccccc" />
  </g>
</svg>
