<?xml version="1.0" encoding="UTF-8" standalone="no"?>
<svg
   height="16px"
   viewBox="0 0 16 16"
   width="16px"
   version="1.1"
   id="svg1"
   sodipodi:docname="xf-go-previous.svg"
   inkscape:version="1.3.2 (091e20ef0f, 2023-11-25, custom)"
   xmlns:inkscape="http://www.inkscape.org/namespaces/inkscape"
   xmlns:sodipodi="http://sodipodi.sourceforge.net/DTD/sodipodi-0.dtd"
   xmlns="http://www.w3.org/2000/svg"
   xmlns:svg="http://www.w3.org/2000/svg">
  <defs
     id="defs1" />
  <sodipodi:namedview
     id="namedview1"
     pagecolor="#ffffff"
     bordercolor="#000000"
     borderopacity="0.25"
     inkscape:showpageshadow="2"
     inkscape:pageopacity="0.0"
     inkscape:pagecheckerboard="0"
     inkscape:deskcolor="#d1d1d1"
     inkscape:zoom="50.125"
     inkscape:cx="8"
     inkscape:cy="8"
     inkscape:window-width="1916"
     inkscape:window-height="1034"
     inkscape:window-x="1920"
     inkscape:window-y="0"
     inkscape:window-maximized="1"
     inkscape:current-layer="svg1" />
  <path
     d="m 8.9908822,3.9939 c 0,-0.1776379 -0.1052021,-0.3474387 -0.2922276,-0.4728302 -0.3896363,-0.2612322 -1.0208467,-0.2612322 -1.4104831,0 L 1.3033569,7.5335972 C 1.1163315,7.6589888 1.0111294,7.8287895 1.0111294,8.0064275 c 0,0.1776379 0.1052021,0.3474387 0.2922275,0.4728302 l 5.9848146,4.0125273 c 0.3896364,0.261233 1.0208468,0.261233 1.4104831,0 0.1870255,-0.125391 0.2922276,-0.295192 0.2922276,-0.47283 0,-0.177638 -0.1052021,-0.347438 -0.2922276,-0.47283 L 3.4190816,8.0064275 8.6986546,4.4667303 C 8.8856801,4.3413388 8.9908822,4.1715379 8.9908822,3.9939 Z m 0,0"
     fill="#2e3436"
     id="path1"
     style="stroke-width:0.816738" />
  <rect
     style="fill:#2e3436;stroke-width:1.06137"
     id="rect1"
     width="10.046232"
     height="1.7065549"
     x="3.0699911"
     y="7.0240412" />
</svg>
